<svg xmlns="http://www.w3.org/2000/svg" xmlns:xlink="http://www.w3.org/1999/xlink" xmlns:inkscape="http://www.inkscape.org/namespaces/inkscape" version="1.1" width="173" height="145" viewBox="0 0 173 145">
<g>
<path transform="matrix(1.00003,0,0,-1.0001,29.643357,115.39194)" d="M28.3468 0V41.3783L30.7089 43.41685 33.07097 45.54753 35.43307 47.75565 37.79515 50.0256 40.15726 52.3414 42.51933 54.68793 44.88144 57.04785 47.24352 59.40518 49.60559 61.74435 51.9677 64.04848 54.32977 66.30156 56.69188 68.48805 59.05396 70.59236 61.41606 72.59976 63.77814 74.49817 66.14023 76.272 68.50232 77.9096 70.86441 79.40099 73.2265 80.73535 75.5886 81.90062 77.95068 82.892 80.31277 83.70215 82.67485 84.325 85.03696 84.75537 85.04042 0H28.3468" fill="#00ff00" fill-opacity=".33"/>
<path transform="matrix(1.00003,0,0,-1.0001,29.643357,115.39194)" stroke-width=".3985" stroke-linecap="butt" stroke-miterlimit="10" stroke-linejoin="miter" fill="none" stroke="#000000" stroke-opacity=".33" d="M28.3468 0V41.3783L30.7089 43.41685 33.07097 45.54753 35.43307 47.75565 37.79515 50.0256 40.15726 52.3414 42.51933 54.68793 44.88144 57.04785 47.24352 59.40518 49.60559 61.74435 51.9677 64.04848 54.32977 66.30156 56.69188 68.48805 59.05396 70.59236 61.41606 72.59976 63.77814 74.49817 66.14023 76.272 68.50232 77.9096 70.86441 79.40099 73.2265 80.73535 75.5886 81.90062 77.95068 82.892 80.31277 83.70215 82.67485 84.325 85.03696 84.75537 85.04042 0H28.3468"/>
</g>
<path transform="matrix(1.00003,0,0,-1.0001,29.643357,115.39194)" stroke-width=".3985" stroke-linecap="butt" stroke-miterlimit="10" stroke-linejoin="miter" fill="none" stroke="#000000" d="M28.3468 41.3783V0"/>
<path transform="matrix(1.00003,0,0,-1.0001,29.643357,115.39194)" stroke-width=".3985" stroke-linecap="butt" stroke-miterlimit="10" stroke-linejoin="miter" fill="none" stroke="#000000" d="M85.04042 84.75581V0"/>
<g>
<path transform="matrix(1.00003,0,0,-1.0001,29.643357,115.39194)" d="M-28.3468 0H141.73404V-28.3468H-28.3468Z" fill-opacity=".1"/>
<path transform="matrix(1.00003,0,0,-1.0001,29.643357,115.39194)" stroke-width=".3985" stroke-linecap="butt" stroke-miterlimit="10" stroke-linejoin="miter" fill="none" stroke="#ffffff" stroke-opacity=".1" d="M-28.3468 0H141.73404V-28.3468H-28.3468Z"/>
</g>
<path transform="matrix(1.00003,0,0,-1.0001,29.643357,115.39194)" stroke-width=".3985" stroke-linecap="butt" stroke-miterlimit="10" stroke-linejoin="miter" fill="none" stroke="#000000" d="M-28.3468 0H141.73404"/>
<path transform="matrix(1.00003,0,0,-1.0001,29.643357,115.39194)" stroke-width=".3985" stroke-linecap="butt" stroke-dasharray="2.98883,2.98883" stroke-miterlimit="10" stroke-linejoin="miter" fill="none" stroke="#000000" d="M-28.3468-14.17339H141.73404"/>
<path transform="matrix(1.00003,0,0,-1.0001,29.643357,115.39194)" stroke-width=".3985" stroke-linecap="butt" stroke-miterlimit="10" stroke-linejoin="miter" fill="none" stroke="#000000" d="M-28.3468-28.3468H141.73404"/>
<g>
<path transform="matrix(1.00003,0,0,-1.0001,29.643357,115.39194)" d="M-28.3468 0V41.3783L-21.85094 36.36041-15.35509 32.40573-8.85924 29.72054-2.36337 28.44672 4.13245 28.64871 10.62831 30.31787 17.12418 33.36467 23.62003 37.6321 30.11588 42.89565 36.61174 48.8811 43.10759 55.27531 49.60344 61.74219 56.09929 67.94609 62.59515 73.56172 69.091 78.29541 75.58685 81.89975 82.08272 84.18701 88.57858 85.03609 95.07443 84.40242 101.5703 82.32062 108.06615 78.8988 114.562 74.31651 121.05785 68.81288 127.55371 62.67517 127.56062 91.0155 121.06477 97.15321 114.56891 102.65768 108.07306 107.24173 101.57721 110.66438 95.08134 112.74792 88.5855 113.3829 82.08965 112.53555 75.5938 110.25003 69.09793 106.64655 62.60208 101.91415 56.10622 96.29938 49.61035 90.09592 43.1145 83.62862 36.61865 77.23483 30.12279 71.2485 23.62694 65.98409 17.13109 61.7158 10.63524 58.66684 4.13937 56.99681-2.35645 56.79265-8.8523 58.06519-15.34818 60.74864-21.84402 64.70247-28.33987 69.71948-28.3468 0" fill="#0000ff" fill-opacity=".33"/>
<path transform="matrix(1.00003,0,0,-1.0001,29.643357,115.39194)" stroke-width=".3985" stroke-linecap="butt" stroke-miterlimit="10" stroke-linejoin="miter" fill="none" stroke="#ffffff" stroke-opacity=".33" d="M-28.3468 0V41.3783L-21.85094 36.36041-15.35509 32.40573-8.85924 29.72054-2.36337 28.44672 4.13245 28.64871 10.62831 30.31787 17.12418 33.36467 23.62003 37.6321 30.11588 42.89565 36.61174 48.8811 43.10759 55.27531 49.60344 61.74219 56.09929 67.94609 62.59515 73.56172 69.091 78.29541 75.58685 81.89975 82.08272 84.18701 88.57858 85.03609 95.07443 84.40242 101.5703 82.32062 108.06615 78.8988 114.562 74.31651 121.05785 68.81288 127.55371 62.67517 127.56062 91.0155 121.06477 97.15321 114.56891 102.65768 108.07306 107.24173 101.57721 110.66438 95.08134 112.74792 88.5855 113.3829 82.08965 112.53555 75.5938 110.25003 69.09793 106.64655 62.60208 101.91415 56.10622 96.29938 49.61035 90.09592 43.1145 83.62862 36.61865 77.23483 30.12279 71.2485 23.62694 65.98409 17.13109 61.7158 10.63524 58.66684 4.13937 56.99681-2.35645 56.79265-8.8523 58.06519-15.34818 60.74864-21.84402 64.70247-28.33987 69.71948-28.3468 0"/>
</g>
<path transform="matrix(1.00003,0,0,-1.0001,29.643357,115.39194)" stroke-width=".79701" stroke-linecap="butt" stroke-miterlimit="10" stroke-linejoin="miter" fill="none" stroke="#000000" d="M-28.3468 69.72511-21.85094 64.70723-15.35509 60.75253-8.85924 58.06734-2.36337 56.79352 4.13245 56.99553 10.62831 58.66469 17.12418 61.71149 23.62003 65.9789 30.11588 71.24245 36.61174 77.2279 43.10759 83.62212 49.60344 90.089 56.09929 96.2929 62.59515 101.90854 69.091 106.64223 75.58685 110.24657 82.08272 112.53383 88.57858 113.3829 95.07443 112.74924 101.5703 110.66743 108.06615 107.24562 114.562 102.66331 121.05785 97.1597 127.55371 91.02197"/>
<path transform="matrix(1.00003,0,0,-1.0001,29.643357,115.39194)" stroke-width=".79701" stroke-linecap="butt" stroke-miterlimit="10" stroke-linejoin="miter" fill="none" stroke="#000000" d="M-28.3468 41.3783-21.85094 36.36041-15.35509 32.40573-8.85924 29.72054-2.36337 28.44672 4.13245 28.64871 10.62831 30.31787 17.12418 33.36467 23.62003 37.6321 30.11588 42.89565 36.61174 48.8811 43.10759 55.27531 49.60344 61.74219 56.09929 67.94609 62.59515 73.56172 69.091 78.29541 75.58685 81.89975 82.08272 84.18701 88.57858 85.03609 95.07443 84.40242 101.5703 82.32062 108.06615 78.8988 114.562 74.31651 121.05785 68.81288 127.55371 62.67517"/>
</svg>
