<svg xmlns="http://www.w3.org/2000/svg" xmlns:xlink="http://www.w3.org/1999/xlink" xmlns:inkscape="http://www.inkscape.org/namespaces/inkscape" version="1.1" width="173" height="52" viewBox="0 0 173 52">
<defs>
<path id="font_1_1" d="M.6589966 .23046875C.6759949 .23046875 .69400027 .23046875 .69400027 .25045777 .69400027 .27046205 .6759949 .27046205 .6589966 .27046205H.117996219C.100997928 .27046205 .08299255 .27046205 .08299255 .25045777 .08299255 .23046875 .100997928 .23046875 .117996219 .23046875H.6589966Z"/>
<path id="font_2_2" d="M.2939911 .64004519C.2939911 .66400149 .2939911 .6660156 .2709961 .6660156 .20899964 .60227969 .12098694 .60227969 .08898926 .60227969V.57128909C.10899353 .57128909 .16799927 .57128909 .21998596 .5972748V.07902527C.21998596 .042999269 .21699524 .0309906 .1269989 .0309906H.09498596V0C.12998963 .0029907227 .21699524 .0029907227 .25698854 .0029907227 .29699708 .0029907227 .38398744 .0029907227 .4189911 0V.0309906H.3869934C.29699708 .0309906 .2939911 .041992189 .2939911 .07902527V.64004519Z"/>
<path id="font_2_1" d="M.45999146 .31976319C.45999146 .39982606 .45498658 .47988893 .41999818 .5539398 .37399293 .65000918 .2919922 .6660156 .25 .6660156 .18998719 .6660156 .116989139 .64001467 .07598877 .54693606 .04399109 .47789 .038986207 .39982606 .038986207 .31976319 .038986207 .24472046 .042999269 .15464783 .083999637 .07859802 .1269989-.0024719239 .19999695-.022460938 .24899292-.022460938 .30299378-.022460938 .3789978-.0014648438 .4229889 .09359741 .45498658 .16265869 .45999146 .2407074 .45999146 .31976319M.24899292-.00047302247C.20999146-.00047302247 .15098572 .024551392 .1329956 .12062073 .12199402 .18066406 .12199402 .2727356 .12199402 .3317871 .12199402 .39582826 .12199402 .46188355 .12998963 .5159149 .14898682 .63500979 .22399903 .64401248 .24899292 .64401248 .28199769 .64401248 .34799195 .6259918 .36698915 .52693179 .3769989 .47088624 .3769989 .39482118 .3769989 .3317871 .3769989 .25672914 .3769989 .18867493 .3659973 .12461853 .35099793 .029556275 .2939911-.00047302247 .24899292-.00047302247Z"/>
<path id="font_3_1" d="M.40699769 .39465333H.5049896C.5249939 .39465333 .5379944 .39465333 .5379944 .4166565 .5379944 .43066407 .5249939 .43066407 .5069885 .43066407H.4139862C.43699647 .5580139 .44499208 .6040497 .45298768 .63305667 .45799256 .6550598 .47999574 .6760864 .5039978 .6760864 .5049896 .6760864 .5319977 .6760864 .5509949 .6640625 .5099945 .651062 .5069885 .61505129 .5069885 .60905459 .5069885 .5870514 .5239868 .572052 .5469971 .572052 .57398989 .572052 .60398867 .59506228 .60398867 .63305667 .60398867 .6790924 .5549927 .70410159 .5039978 .70410159 .45999146 .70410159 .41099549 .6790924 .38398744 .62905886 .3639984 .5920563 .35598756 .5469818 .33499146 .43066407H.2559967C.23599243 .43066407 .22299195 .43066407 .22299195 .4086609 .22299195 .39465333 .23599243 .39465333 .2539978 .39465333H.32798768C.32699586 .38865663 .2639923 .028869629 .23999024-.078063968 .23498535-.10006714 .21798706-.17610169 .16999817-.17610169 .16899109-.17610169 .14498902-.17610169 .12599182-.1640625 .16699219-.15107727 .16999817-.11506653 .16999817-.109069827 .16999817-.08706665 .15299988-.07206726 .12998963-.07206726 .102996829-.07206726 .07299805-.095077518 .07299805-.1330719 .07299805-.17811585 .11999512-.20410156 .16999817-.20410156 .23399353-.20410156 .27799989-.13807678 .2899933-.11607361 .32598878-.049087526 .34899903 .07385254 .35099793 .08584595L.40699769 .39465333Z"/>
<path id="font_4_1" d="M.3600006 .46505738C.36099244 .46606446 .36999513 .48506166 .36999513 .50006106 .36999513 .5360565 .33799745 .5590515 .30799867 .5590515 .2669983 .5590515 .2559967 .5280609 .25099183 .5130615L.09700012 .080078128C.09298706 .06808472 .09298706 .065078739 .09298706 .064071658 .09298706 .048080446 .1349945 .038085939 .13598633 .038085939 .14498902 .038085939 .14698792 .04307556 .15299988 .05508423L.3600006 .46505738Z"/>
<path id="font_5_4" d="M.7679901 .3359375C.7829895 .3359375 .80599978 .3359375 .80599978 .3609314 .80599978 .38493348 .7819977 .38493348 .7689972 .38493348H.10699463C.09399414 .38493348 .069992069 .38493348 .069992069 .3609314 .069992069 .3359375 .09298706 .3359375 .10798645 .3359375H.7679901M.7689972 .11602783C.7819977 .11602783 .80599978 .11602783 .80599978 .1400299 .80599978 .16503906 .7829895 .16503906 .7679901 .16503906H.10798645C.09298706 .16503906 .069992069 .16503906 .069992069 .1400299 .069992069 .11602783 .09399414 .11602783 .10699463 .11602783H.7689972Z"/>
<path id="font_5_1" d="M.35499574 .75C.16499329 .61598208 .114990238 .40397645 .114990238 .25097657 .114990238 .10997009 .15699768-.10902405 .35499574-.24902344 .36299134-.24902344 .375-.24902344 .375-.23703003 .375-.23103333 .37199403-.22903443 .36499024-.22203064 .23199463-.10203552 .18299866 .067977908 .18299866 .24996948 .18299866 .519989 .28599549 .65197756 .36799623 .72598269 .37199403 .7299957 .375 .73298647 .375 .73799136 .375 .75 .36299134 .75 .35499574 .75Z"/>
<path id="font_5_3" d="M.46299745 .2263794H.7689972C.7819977 .2263794 .80599978 .2263794 .80599978 .25038148 .80599978 .27539063 .7829895 .27539063 .7689972 .27539063H.46299745V.5821533C.46299745 .59513857 .46299745 .6191406 .43899537 .6191406 .4139862 .6191406 .4139862 .5961304 .4139862 .5821533V.27539063H.10699463C.09399414 .27539063 .069992069 .27539063 .069992069 .25138856 .069992069 .2263794 .09298706 .2263794 .10699463 .2263794H.4139862V-.08114624C.4139862-.09416199 .4139862-.11816406 .43798829-.11816406 .46299745-.11816406 .46299745-.09516907 .46299745-.08114624V.2263794Z"/>
<path id="font_5_2" d="M.08999634 .75C.08299255 .75 .070999149 .75 .070999149 .73799136 .070999149 .73298647 .07398987 .7299957 .07998657 .72299197 .1659851 .64398196 .2619934 .5089874 .2619934 .25097657 .2619934 .04197693 .19699097-.11602783 .08898926-.21403504 .07199097-.23103333 .070999149-.23202515 .070999149-.23703003 .070999149-.24203491 .07398987-.24902344 .083999637-.24902344 .09599304-.24902344 .19099427-.18302918 .25698854-.058029176 .30099488 .024978638 .32998658 .13298035 .32998658 .24996948 .32998658 .39097596 .28799439 .60998538 .08999634 .75Z"/>
<path id="font_1_2" d="M.8779907 .59887698C.875 .58187869 .8730011 .55888369 .8730011 .54089358 .8730011 .52090457 .875 .47192384 .8959961 .41394044 .901001 .40193177 .93099978 .33296205 .94599917 .33296205 .9529877 .33296205 .96899417 .34895326 .96899417 .35595704 .96899417 .35995484 .96798709 .36195375 .96398928 .36894227 .9149933 .44493104 .9119873 .50691226 .9119873 .54190066 .9119873 .60287478 .9279938 .6478729 .93899539 .6708679 .94200137 .6768646 .94299319 .6798706 .94299319 .6828613 .94299319 .6908722 .93699648 .6928711 .93299868 .6928711 .93099978 .6928711 .92900088 .6928711 .92099 .6898651 .8939972 .6768646 .84999087 .66186526 .7919922 .66186526 .7630005 .66186526 .69599917 .6628723 .61898806 .7138672 .61299136 .717865 .6100006 .7188721 .60598757 .7188721 .598999 .7188721 .58299258 .7028656 .58299258 .6958618 .58299258 .6818695 .644989 .6538696 .66600039 .645874 .723999 .62387087 .772995 .62286379 .79100039 .62286379 .82299807 .62286379 .82398989 .62286379 .848999 .62786868L.069992069-.15188599C.056991579-.16488648 .054992677-.16688538 .054992677-.17488098 .054992677-.18487549 .06399536-.19488526 .07499695-.19488526 .08299255-.19488526 .084991458-.19288635 .09700012-.18087769L.8779907 .59887698Z"/>
<path id="font_6_1" d="M.74398806 .2263794C.7599945 .2263794 .7839966 .2263794 .7839966 .25038148 .7839966 .27539063 .7609863 .27539063 .74398806 .27539063H.147995C.13198853 .27539063 .10798645 .27539063 .10798645 .25138856 .10798645 .2263794 .1309967 .2263794 .147995 .2263794H.74398806Z"/>
<path id="font_1_3" d="M.848999-.12788391C.83200076-.12487793 .8089905-.12287903 .79100039-.12287903 .7709961-.12287903 .7220001-.12487793 .6639862-.14588928 .6569977-.14888 .58299258-.17988587 .58299258-.19587708 .58299258-.20288086 .598999-.21888733 .60598757-.21888733 .6100006-.21888733 .61299136-.21788025 .61898806-.21388245 .69799807-.1618805 .7669983-.1618805 .7919922-.1618805 .8529968-.1618805 .897995-.17788697 .92099-.18888855 .9269867-.19187927 .9299927-.19288635 .93299868-.19288635 .93699648-.19288635 .94299319-.19088745 .94299319-.18287659 .94299319-.18087769 .94299319-.17887879 .9399872-.17088318 .9269867-.14387512 .9119873-.100875858 .9119873-.04185486 .9119873 .00015258789 .91799929 .060180665 .96398928 .13119507 .96798709 .13819885 .96899417 .14019776 .96899417 .14419556 .96899417 .15119934 .9529877 .16720581 .94599917 .16720581 .9319916 .16720581 .9039917 .10519409 .8959961 .08618164 .875 .030166626 .8730011-.017852784 .8730011-.04084778 .8730011-.07286072 .8730011-.0738678 .8779907-.09887695L.09700012 .6813507C.084991458 .6933594 .08299255 .6953583 .07499695 .6953583 .06298828 .6953583 .054992677 .6853485 .054992677 .675354 .054992677 .66734316 .056991579 .66534426 .069992069 .65234377L.848999-.12788391Z"/>
</defs>
<path transform="matrix(1.00008,0,0,-1.00002,86.54147,18.572112)" stroke-width="1.19553" stroke-linecap="butt" stroke-miterlimit="10" stroke-linejoin="miter" fill="none" stroke="#000000" d="M-79.30188 0H79.30188"/>
<path transform="matrix(-1.00008,-0,0,1.00002,7.2332537,18.572112)" d="M5.73854 0C4.0382 .31879 1.27522 1.27522-.6376 2.39105V-2.39105C1.27522-1.27522 4.0382-.31879 5.73854 0"/>
<path transform="matrix(1.00008,0,0,-1.00002,165.8497,18.572112)" d="M5.73854 0C4.0382 .31879 1.27522 1.27522-.6376 2.39105V-2.39105C1.27522-1.27522 4.0382-.31879 5.73854 0"/>
<path transform="matrix(1.00008,0,0,-1.00002,86.54147,18.572112)" d="M-26.35425 0C-26.35425 1.10046-27.24634 1.99255-28.3468 1.99255-29.44728 1.99255-30.33936 1.10046-30.33936 0-30.33936-1.10046-29.44728-1.99255-28.3468-1.99255-27.24634-1.99255-26.35425-1.10046-26.35425 0ZM-28.3468 0"/>
<path transform="matrix(1.00008,0,0,-1.00002,86.54147,18.572112)" stroke-width=".3985" stroke-linecap="butt" stroke-miterlimit="10" stroke-linejoin="miter" fill="none" stroke="#000000" d="M-26.35425 0C-26.35425 1.10046-27.24634 1.99255-28.3468 1.99255-29.44728 1.99255-30.33936 1.10046-30.33936 0-30.33936-1.10046-29.44728-1.99255-28.3468-1.99255-27.24634-1.99255-26.35425-1.10046-26.35425 0ZM-28.3468 0"/>
<use data-text="&#x2212;" xlink:href="#font_1_1" transform="matrix(9.963397,0,0,-9.962799,51.82669,28.51231)"/>
<use data-text="1" xlink:href="#font_2_2" transform="matrix(9.963397,0,0,-9.962799,59.575319,28.51231)"/>
<path transform="matrix(1.00008,0,0,-1.00002,86.54147,18.572112)" d="M1.99255 0C1.99255 1.10046 1.10046 1.99255 0 1.99255-1.10046 1.99255-1.99255 1.10046-1.99255 0-1.99255-1.10046-1.10046-1.99255 0-1.99255 1.10046-1.99255 1.99255-1.10046 1.99255 0ZM0 0" fill="#ffffff"/>
<path transform="matrix(1.00008,0,0,-1.00002,86.54147,18.572112)" stroke-width=".3985" stroke-linecap="butt" stroke-miterlimit="10" stroke-linejoin="miter" fill="none" stroke="#000000" d="M1.99255 0C1.99255 1.10046 1.10046 1.99255 0 1.99255-1.10046 1.99255-1.99255 1.10046-1.99255 0-1.99255-1.10046-1.10046-1.99255 0-1.99255 1.10046-1.99255 1.99255-1.10046 1.99255 0ZM0 0"/>
<use data-text="0" xlink:href="#font_2_1" transform="matrix(9.963397,0,0,-9.962799,84.05028,28.51231)"/>
<path transform="matrix(1.00008,0,0,-1.00002,86.54147,18.572112)" d="M30.33936 0C30.33936 1.10046 29.44728 1.99255 28.3468 1.99255 27.24634 1.99255 26.35425 1.10046 26.35425 0 26.35425-1.10046 27.24634-1.99255 28.3468-1.99255 29.44728-1.99255 30.33936-1.10046 30.33936 0ZM28.3468 0"/>
<path transform="matrix(1.00008,0,0,-1.00002,86.54147,18.572112)" stroke-width=".3985" stroke-linecap="butt" stroke-miterlimit="10" stroke-linejoin="miter" fill="none" stroke="#000000" d="M30.33936 0C30.33936 1.10046 29.44728 1.99255 28.3468 1.99255 27.24634 1.99255 26.35425 1.10046 26.35425 0 26.35425-1.10046 27.24634-1.99255 28.3468-1.99255 29.44728-1.99255 30.33936-1.10046 30.33936 0ZM28.3468 0"/>
<use data-text="1" xlink:href="#font_2_2" transform="matrix(9.963397,0,0,-9.962799,112.39954,28.51231)"/>
<path transform="matrix(1.00008,0,0,-1.00002,86.54147,18.572112)" stroke-width="1.39478" stroke-linecap="butt" stroke-miterlimit="10" stroke-linejoin="miter" fill="none" stroke="#ff0000" d="M-56.69362-9.37808V-21.2601"/>
<path transform="matrix(1.00008,0,0,-1.00002,86.54147,18.572112)" stroke-width=".59776" stroke-linecap="butt" stroke-miterlimit="10" stroke-linejoin="miter" fill="none" stroke="#ffffff" d="M-56.69362-9.37808V-21.2601"/>
<path transform="matrix(0,-1.00002,-1.00008,-0,29.843319,27.950379)" d="M2.29138 0-1.37483 1.83311 0 0-1.37483-1.83311" fill="#ff0000"/>
<use data-text="f" xlink:href="#font_3_1" transform="matrix(6.974358,0,0,-6.97394,14.663712,49.126726)" fill="#ff0000"/>
<use data-text="&#x2032;" xlink:href="#font_4_1" transform="matrix(4.9816987,0,0,-4.9813997,19.330094,46.120664)" fill="#ff0000"/>
<use data-text="=" xlink:href="#font_5_4" transform="matrix(6.974358,0,0,-6.97394,24.293488,49.126726)" fill="#ff0000"/>
<use data-text="(" xlink:href="#font_5_1" transform="matrix(6.974358,0,0,-6.97394,32.676668,49.126726)" fill="#ff0000"/>
<use data-text="+" xlink:href="#font_5_3" transform="matrix(6.974358,0,0,-6.97394,35.78723,49.126726)" fill="#ff0000"/>
<use data-text=")" xlink:href="#font_5_2" transform="matrix(6.974358,0,0,-6.97394,41.903749,49.126726)" fill="#ff0000"/>
<use data-text="&#x2197;" xlink:href="#font_1_2" transform="matrix(11.956157,0,0,-11.95544,23.865464,10.221944)" fill="#ff0000"/>
<path transform="matrix(1.00008,0,0,-1.00002,86.54147,18.572112)" stroke-width="1.39478" stroke-linecap="butt" stroke-miterlimit="10" stroke-linejoin="miter" fill="none" stroke="#ff0000" d="M-18.70897-9.37808V-21.2601"/>
<path transform="matrix(1.00008,0,0,-1.00002,86.54147,18.572112)" stroke-width=".59776" stroke-linecap="butt" stroke-miterlimit="10" stroke-linejoin="miter" fill="none" stroke="#ffffff" d="M-18.70897-9.37808V-21.2601"/>
<path transform="matrix(0,-1.00002,-1.00008,-0,67.83101,27.950379)" d="M2.29138 0-1.37483 1.83311 0 0-1.37483-1.83311" fill="#ff0000"/>
<use data-text="f" xlink:href="#font_3_1" transform="matrix(6.974358,0,0,-6.97394,52.596757,49.126726)" fill="#ff0000"/>
<use data-text="&#x2032;" xlink:href="#font_4_1" transform="matrix(4.9816987,0,0,-4.9813997,57.263139,46.120664)" fill="#ff0000"/>
<use data-text="=" xlink:href="#font_5_4" transform="matrix(6.974358,0,0,-6.97394,62.226533,49.126726)" fill="#ff0000"/>
<use data-text="(" xlink:href="#font_5_1" transform="matrix(6.974358,0,0,-6.97394,70.60971,49.126726)" fill="#ff0000"/>
<use data-text="&#x2212;" xlink:href="#font_6_1" transform="matrix(6.974358,0,0,-6.97394,73.72444,49.126726)" fill="#ff0000"/>
<use data-text=")" xlink:href="#font_5_2" transform="matrix(6.974358,0,0,-6.97394,79.95195,49.126726)" fill="#ff0000"/>
<use data-text="&#x2198;" xlink:href="#font_1_3" transform="matrix(11.956157,0,0,-11.95544,61.8525,10.221944)" fill="#ff0000"/>
<path transform="matrix(1.00008,0,0,-1.00002,86.54147,18.572112)" stroke-width="1.39478" stroke-linecap="butt" stroke-miterlimit="10" stroke-linejoin="miter" fill="none" stroke="#ff0000" d="M18.70897-9.37808V-21.2601"/>
<path transform="matrix(1.00008,0,0,-1.00002,86.54147,18.572112)" stroke-width=".59776" stroke-linecap="butt" stroke-miterlimit="10" stroke-linejoin="miter" fill="none" stroke="#ffffff" d="M18.70897-9.37808V-21.2601"/>
<path transform="matrix(0,-1.00002,-1.00008,-0,105.25194,27.950379)" d="M2.29138 0-1.37483 1.83311 0 0-1.37483-1.83311" fill="#ff0000"/>
<use data-text="f" xlink:href="#font_3_1" transform="matrix(6.974358,0,0,-6.97394,90.01775,49.126726)" fill="#ff0000"/>
<use data-text="&#x2032;" xlink:href="#font_4_1" transform="matrix(4.9816987,0,0,-4.9813997,94.684139,46.120664)" fill="#ff0000"/>
<use data-text="=" xlink:href="#font_5_4" transform="matrix(6.974358,0,0,-6.97394,99.64753,49.126726)" fill="#ff0000"/>
<use data-text="(" xlink:href="#font_5_1" transform="matrix(6.974358,0,0,-6.97394,108.03071,49.126726)" fill="#ff0000"/>
<use data-text="&#x2212;" xlink:href="#font_6_1" transform="matrix(6.974358,0,0,-6.97394,111.14544,49.126726)" fill="#ff0000"/>
<use data-text=")" xlink:href="#font_5_2" transform="matrix(6.974358,0,0,-6.97394,117.37295,49.126726)" fill="#ff0000"/>
<use data-text="&#x2197;" xlink:href="#font_1_2" transform="matrix(11.956157,0,0,-11.95544,99.27349,10.221944)" fill="#ff0000"/>
<path transform="matrix(1.00008,0,0,-1.00002,86.54147,18.572112)" stroke-width="1.39478" stroke-linecap="butt" stroke-miterlimit="10" stroke-linejoin="miter" fill="none" stroke="#ff0000" d="M56.69362-9.37808V-21.2601"/>
<path transform="matrix(1.00008,0,0,-1.00002,86.54147,18.572112)" stroke-width=".59776" stroke-linecap="butt" stroke-miterlimit="10" stroke-linejoin="miter" fill="none" stroke="#ffffff" d="M56.69362-9.37808V-21.2601"/>
<path transform="matrix(0,-1.00002,-1.00008,-0,143.23963,27.950379)" d="M2.29138 0-1.37483 1.83311 0 0-1.37483-1.83311" fill="#ff0000"/>
<use data-text="f" xlink:href="#font_3_1" transform="matrix(6.974358,0,0,-6.97394,128.00479,49.126726)" fill="#ff0000"/>
<use data-text="&#x2032;" xlink:href="#font_4_1" transform="matrix(4.9816987,0,0,-4.9813997,132.67118,46.120664)" fill="#ff0000"/>
<use data-text="=" xlink:href="#font_5_4" transform="matrix(6.974358,0,0,-6.97394,137.63457,49.126726)" fill="#ff0000"/>
<use data-text="(" xlink:href="#font_5_1" transform="matrix(6.974358,0,0,-6.97394,146.01775,49.126726)" fill="#ff0000"/>
<use data-text="&#x2212;" xlink:href="#font_6_1" transform="matrix(6.974358,0,0,-6.97394,149.13248,49.126726)" fill="#ff0000"/>
<use data-text=")" xlink:href="#font_5_2" transform="matrix(6.974358,0,0,-6.97394,155.35999,49.126726)" fill="#ff0000"/>
<use data-text="&#x2197;" xlink:href="#font_1_2" transform="matrix(11.956157,0,0,-11.95544,137.26154,10.221944)" fill="#ff0000"/>
</svg>
