<svg xmlns="http://www.w3.org/2000/svg" xmlns:xlink="http://www.w3.org/1999/xlink" xmlns:inkscape="http://www.inkscape.org/namespaces/inkscape" version="1.1" width="367" height="425" viewBox="0 0 367 425">
<defs>
<path id="font_1_58" d="M.7350006 .24145508V.27246095L.61299136 .26945497C.57299807 .26945497 .48799134 .26945497 .45199586 .27246095V.24145508H.48399354C.57398989 .24145508 .57699587 .23045349 .57699587 .19346619V.12948609C.57699587 .017532349 .44999696 .008529663 .42199708 .008529663 .35699464 .008529663 .15899658 .043518068 .15899658 .34155274 .15899658 .6410217 .35598756 .67407229 .41600038 .67407229 .522995 .67407229 .6139984 .5839386 .6339874 .43670655 .6359863 .42268373 .6359863 .41967774 .6499939 .41967774 .66600039 .41967774 .66600039 .42268373 .66600039 .44371034V.68107607C.66600039 .69807437 .66600039 .7050781 .6549988 .7050781 .651001 .7050781 .6469879 .7050781 .6389923 .69306948L.58898928 .61898806C.5569916 .6510315 .5029907 .7050781 .4039917 .7050781 .21798706 .7050781 .055999757 .546875 .055999757 .34155274 .055999757 .13648987 .21598816-.022460938 .4059906-.022460938 .47898866-.022460938 .5589905 .0035247803 .59298709 .06251526 .60598757 .040527345 .6459961 .0005340576 .6569977 .0005340576 .66600039 .0005340576 .66600039 .008529663 .66600039 .023529053V.19746399C.66600039 .2364502 .66999819 .24145508 .7350006 .24145508Z"/>
<path id="font_1_96" d="M.3639984 .38137818C.3639984 .41337586 .33299256 .4423828 .2899933 .4423828 .21699524 .4423828 .18099976 .37538148 .16699219 .3323822V.4423828L.027999878 .43066407V.3996582C.09799194 .3996582 .10598755 .39266969 .10598755 .34370423V.07595825C.10598755 .0309906 .09498596 .0309906 .027999878 .0309906V0L.14199829 .0029907227C.18199158 .0029907227 .22898865 .0029907227 .2689972 0V.0309906H.24798584C.17399597 .0309906 .17199707 .04197693 .17199707 .07795715V.23181153C.17199707 .33137513 .21398926 .42037965 .2899933 .42037965 .29699708 .42037965 .29899598 .42037965 .30099488 .41937257 .2979889 .41838075 .27799989 .40637208 .27799989 .3803711 .27799989 .35237123 .29899598 .33737184 .32099916 .33737184 .33898927 .33737184 .3639984 .3493805 .3639984 .38137818Z"/>
<path id="font_1_28" d="M.48298646 .08912659V.14511109H.45799256V.08912659C.45799256 .03112793 .43299867 .025131226 .42199708 .025131226 .3889923 .025131226 .3849945 .070129398 .3849945 .07511902V.27508546C.3849945 .31707765 .3849945 .3560791 .34899903 .39312745 .30999757 .43223573 .2599945 .4482422 .21199036 .4482422 .12998963 .4482422 .06098938 .40115357 .06098938 .335083 .06098938 .30508424 .08099365 .28808595 .10699463 .28808595 .1349945 .28808595 .15299988 .30807496 .15299988 .33407594 .15299988 .3460846 .147995 .37908937 .101989749 .38008119 .1289978 .41519166 .17799378 .426239 .20999146 .426239 .25898744 .426239 .31599427 .38710023 .31599427 .29808045V.26107789C.2649994 .25808717 .19499207 .25508119 .13198853 .22509766 .056991579 .19110108 .03199768 .13911438 .03199768 .09512329 .03199768 .014251709 .1289978-.0107421879 .19198609-.0107421879 .2579956-.0107421879 .3039856 .029251099 .32299806 .07624817 .32699586 .036132814 .35398866-.005859375 .40098573-.005859375 .42199708-.005859375 .48298646 .008132935 .48298646 .08912659M.31599427 .14013672C.31599427 .04525757 .24398804 .011245728 .19898987 .011245728 .1499939 .011245728 .10899353 .04624939 .10899353 .09625244 .10899353 .15124512 .15098572 .23425293 .31599427 .24024964V.14013672Z"/>
<path id="font_1_84" d="M.5209961 .21636963C.5209961 .34336854 .42399598 .4423828 .31199647 .4423828 .23399353 .4423828 .19198609 .39837647 .17199707 .3763733V.4423828L.027999878 .43066407V.3996582C.09899902 .3996582 .10598755 .3936615 .10598755 .34973146V-.117996219C.10598755-.16308594 .09498596-.16308594 .027999878-.16308594V-.1940918L.13999939-.19110108 .25299073-.1940918V-.16308594C.18598938-.16308594 .1749878-.16308594 .1749878-.117996219V.050186159 .059173585C.17999268 .04319763 .22200012-.0107421879 .2979889-.0107421879 .4169922-.0107421879 .5209961 .087127689 .5209961 .21594239V.21636963M.43798829 .21594239C.43798829 .09512329 .36799623 .011245728 .2939911 .011245728 .2539978 .011245728 .21598816 .031219483 .18899536 .07215881 .1749878 .09312439 .1749878 .09411621 .1749878 .114089969V.33674623C.20399475 .38838197 .25299073 .41737367 .3039856 .41737367 .3769989 .41737367 .43798829 .32937623 .43798829 .21636963V.21594239Z"/>
<path id="font_1_63" d="M.5349884 0V.0309906C.48298646 .0309906 .45799256 .0309906 .45700074 .061019899V.25221253C.45700074 .3383026 .45700074 .36932374 .42599488 .405365 .4119873 .42237855 .3789978 .4423828 .32099916 .4423828 .23699951 .4423828 .19299317 .38233949 .1769867 .34629823H.17599488V.69433596L.03199768 .6826172V.6516113C.101989749 .6516113 .10998535 .64463809 .10998535 .59580996V.076034549C.10998535 .0309906 .09899902 .0309906 .03199768 .0309906V0L.14498902 .0029907227 .25698854 0V.0309906C.18998719 .0309906 .1789856 .0309906 .1789856 .076034549V.2602234C.1789856 .36431886 .25 .42037965 .31399537 .42037965 .3769989 .42037965 .3880005 .36631776 .3880005 .30926515V.076034549C.3880005 .0309906 .3769989 .0309906 .30999757 .0309906V0L.4229889 .0029907227 .5349884 0Z"/>
<path id="font_1_82" d="M.4189911 0V.0309906H.3869934C.29699708 .0309906 .2939911 .041992189 .2939911 .07902527V.64012148C.2939911 .6640167 .2939911 .6660156 .2709961 .6660156 .20899964 .60227969 .12098694 .60227969 .08898926 .60227969V.57128909C.10899353 .57128909 .16799927 .57128909 .21998596 .5972748V.07902527C.21998596 .042999269 .21699524 .0309906 .1269989 .0309906H.09498596V0C.12998963 .0029907227 .21699524 .0029907227 .25698854 .0029907227 .29699708 .0029907227 .38398744 .0029907227 .4189911 0Z"/>
<path id="font_1_44" d="M.19198609 .37765504C.19198609 .406662 .16799927 .43066407 .13899231 .43066407 .10998535 .43066407 .085998538 .406662 .085998538 .37765504 .085998538 .34866334 .10998535 .32466126 .13899231 .32466126 .16799927 .32466126 .19198609 .34866334 .19198609 .37765504M.19198609 .052993776C.19198609 .08198547 .16799927 .10598755 .13899231 .10598755 .10998535 .10598755 .085998538 .08198547 .085998538 .052993776 .085998538 .023986817 .10998535 0 .13899231 0 .16799927 0 .19198609 .023986817 .19198609 .052993776Z"/>
<path id="font_1_81" d="M.47099305 .21424866C.47099305 .34223939 .37098695 .4482422 .25 .4482422 .125 .4482422 .027999878 .3392334 .027999878 .21424866 .027999878 .085250858 .13198853-.0107421879 .24899292-.0107421879 .36999513-.0107421879 .47099305 .087249759 .47099305 .21424866M.3880005 .22224427C.3880005 .18624878 .3880005 .13224793 .3659973 .08824158 .34399415 .04324341 .2999878 .014251709 .25 .014251709 .20698548 .014251709 .16299439 .035247804 .13598633 .08125305 .11099243 .12524414 .11099243 .18624878 .11099243 .22224427 .11099243 .26124574 .11099243 .31523133 .1349945 .35923768 .1619873 .40522767 .20899964 .426239 .24899292 .426239 .29299928 .426239 .33599855 .40423585 .3619995 .36123658 .3880005 .3182373 .3880005 .26023866 .3880005 .22224427Z"/>
<path id="font_1_55" d="M.35699464 .63479617C.35699464 .6717987 .31999208 .7050781 .2669983 .7050781 .19699097 .7050781 .11199951 .65179446 .11199951 .5457611V.43066407H.032989503V.3996582H.11199951V.07595825C.11199951 .0309906 .100997928 .0309906 .033996583 .0309906V0L.147995 .0029907227C.18798828 .0029907227 .23498535 .0029907227 .2749939 0V.0309906H.2539978C.17999268 .0309906 .17799378 .04197693 .17799378 .07795715V.3996582H.2919922V.43066407H.1749878V.5467529C.1749878 .63479617 .22299195 .68307498 .2669983 .68307498 .269989 .68307498 .2849884 .68307498 .2999878 .675827 .28799439 .6717987 .269989 .6587982 .269989 .6338043 .269989 .61079409 .28599549 .5907898 .31298829 .5907898 .34199525 .5907898 .35699464 .61079409 .35699464 .63479617Z"/>
<path id="font_1_104" d="M.68499758 .45214845 .66600039 .6767578H.054992677L.035995485 .45214845H.06098938C.07499695 .6128235 .08999634 .64575198 .24099732 .64575198 .25898744 .64575198 .2849884 .64575198 .29499818 .64375308 .31599427 .6397705 .31599427 .6287842 .31599427 .60583499V.07901001C.31599427 .04499817 .31599427 .0309906 .21099854 .0309906H.17098999V0C.21199036 .0029907227 .31399537 .0029907227 .3600006 .0029907227 .4059906 .0029907227 .5089874 .0029907227 .5499878 0V.0309906H.5099945C.40499879 .0309906 .40499879 .04499817 .40499879 .07901001V.60583499C.40499879 .62579348 .40499879 .6397705 .4229889 .64375308 .43399049 .64575198 .46099855 .64575198 .47999574 .64575198 .6309967 .64575198 .6459961 .6128235 .6599884 .45214845H.68499758Z"/>
<path id="font_1_105" d="M.33198548 .12385559V.18066406H.30699159V.12585449C.30699159 .052108766 .2769928 .014251709 .23999024 .014251709 .17298889 .014251709 .17298889 .10491943 .17298889 .12187195V.3996582H.31599427V.43066407H.17298889V.6142578H.147995C.14698792 .5324249 .116989139 .42565919 .018997193 .42166139V.3996582H.10398865V.12408447C.10398865 .0012512207 .19699097-.0107421879 .23298645-.0107421879 .3039856-.0107421879 .33198548 .060180665 .33198548 .12408447V.12385559Z"/>
<path id="font_1_72" d="M.25498963 0V.0309906C.18798828 .0309906 .1769867 .0309906 .1769867 .07601929V.69433596L.032989503 .6826172V.6516113C.102996829 .6516113 .11099243 .64460757 .11099243 .5956421V.07595825C.11099243 .0309906 .099990848 .0309906 .032989503 .0309906V0L.14399719 .0029907227 .25498963 0Z"/>
<path id="font_2_2" d="M.48599244 .38136292C.48999024 .39537049 .48999024 .39736939 .48999024 .40437318 .48999024 .42237855 .47599793 .43138124 .46099855 .43138124 .45098878 .43138124 .43499757 .42536927 .42599488 .41036988 .42399598 .405365 .41600038 .37435914 .4119873 .35635377 .40499879 .33035279 .397995 .30334474 .3919983 .27633668L.34700013 .09628296C.34298707 .08126831 .2999878 .011245728 .23399353 .011245728 .18299866 .011245728 .17199707 .055267335 .17199707 .0922699 .17199707 .1382904 .18899536 .20030213 .22299195 .28833009 .23899842 .3293457 .24299622 .3403473 .24299622 .36035157 .24299622 .405365 .21099854 .4423828 .16099549 .4423828 .06599426 .4423828 .0289917 .29733277 .0289917 .28833009 .0289917 .27833558 .038986207 .27833558 .040985109 .27833558 .050994874 .27833558 .051986696 .28033448 .056991579 .29634095 .083999637 .3903656 .12399292 .42037965 .1579895 .42037965 .1659851 .42037965 .18299866 .42037965 .18299866 .3883667 .18299866 .36335755 .17298889 .3373413 .1659851 .31834413 .12599182 .21231079 .10798645 .1552887 .10798645 .10827637 .10798645 .019256592 .17098999-.0107421879 .22999573-.0107421879 .2689972-.0107421879 .30299378 .0062561037 .33099366 .03425598 .31799317-.017745972 .30599977-.06674194 .2659912-.11973572 .23999024-.15385437 .20199585-.18309021 .1559906-.18309021 .14199829-.18309021 .09700012-.18005371 .07998657-.14074707 .09599304-.14074707 .10899353-.14074707 .12298584-.1287384 .1329956-.11973572 .14299011-.10673523 .14299011-.08773804 .14299011-.056747438 .115997318-.052734376 .10598755-.052734376 .08299255-.052734376 .049987794-.068740848 .049987794-.11773682 .049987794-.16796875 .09399414-.20507813 .1559906-.20507813 .25898744-.20507813 .3619995-.11373901 .3899994-.00074768069L.48599244 .38136292Z"/>
<path id="font_3_1" d="M.47299195 .31976319C.47299195 .38682557 .46998597 .47288514 .43499757 .5479431 .3909912 .64201357 .31498719 .6660156 .25698854 .6660156 .19699097 .6660156 .12098694 .64201357 .07699585 .5459442 .04499817 .47688294 .039993287 .39582826 .039993287 .31976319 .039993287 .25471498 .041992189 .15765381 .084991458 .07858276 .13198853-.0064697267 .20999146-.022460938 .2559967-.022460938 .32099916-.022460938 .394989 .0055389406 .43699647 .097595218 .46699525 .1646576 .47299195 .23971558 .47299195 .31976319M.25698854 .002532959C.22698975 .002532959 .15499878 .016540528 .13598633 .12962342 .12599182 .18867493 .12599182 .2747345 .12599182 .33177186 .12599182 .39982606 .12599182 .47888185 .13798523 .53393557 .1579895 .6230011 .22200012 .64100649 .2559967 .64100649 .2939911 .64100649 .35699464 .62098696 .37599183 .5279236 .3869934 .47288514 .3869934 .39482118 .3869934 .33177186 .3869934 .2697296 .3869934 .18566895 .3769989 .12661743 .35598756 .012542725 .28199769 .002532959 .25698854 .002532959Z"/>
<path id="font_3_6" d="M.10398865 .3444519C.10398865 .32641603 .10398865 .31539918 .117996219 .31539918 .12599182 .31539918 .1289978 .31941224 .1349945 .32843019 .16499329 .3704834 .21299744 .39453126 .2649994 .39453126 .37199403 .39453126 .37199403 .24029541 .37199403 .20425415 .37199403 .17324829 .37199403 .11125183 .34399415 .06637573 .31698609 .024475098 .2749939 .0055389406 .23599243 .0055389406 .1769867 .0055389406 .10998535 .042434694 .085998538 .116256717 .08699036 .116256717 .09298706 .11425781 .099990848 .11425781 .11999512 .11425781 .14898682 .12724304 .14898682 .16325379 .14898682 .19424439 .1269989 .21224976 .099990848 .21224976 .07899475 .21224976 .050994874 .20025635 .050994874 .1602478 .050994874 .069366458 .1269989-.022460938 .23799134-.022460938 .35899354-.022460938 .46199037 .0753479 .46199037 .19924927 .46199037 .3204193 .37599183 .41952516 .2669983 .41952516 .21899414 .41952516 .16999817 .40351869 .1349945 .36747743V.56477358C.16499329 .5557709 .19599915 .55078127 .22698975 .55078127 .34999085 .55078127 .42199708 .6397705 .42199708 .652771 .42199708 .6617737 .41600038 .6657715 .41099549 .6657715 .40899659 .6657715 .40699769 .6657715 .397995 .6607666 .35099793 .6417694 .30499269 .6337738 .2630005 .6337738 .21998596 .6337738 .1749878 .6417694 .1289978 .6607666 .11898804 .6657715 .116989139 .6657715 .115997318 .6657715 .10398865 .6657715 .10398865 .655777 .10398865 .6387787V.3444519Z"/>
<path id="font_3_2" d="M.3039856 .6392822C.3039856 .6642761 .30299378 .666275 .27799989 .666275 .21598816 .60227969 .12399292 .60227969 .09298706 .60227969V.57128909C.11199951 .57128909 .17298889 .57128909 .22698975 .5972748V.08001709C.22698975 .042999269 .22399903 .0309906 .1309967 .0309906H.09899902V0C.1349945 .0029907227 .22399903 .0029907227 .2649994 .0029907227 .30599977 .0029907227 .3959961 .0029907227 .43199159 0V.0309906H.3999939C.30699159 .0309906 .3039856 .042999269 .3039856 .08001709V.6392822Z"/>
<path id="font_4_1" d="M.6749878 .22944641C.69299319 .22944641 .71199038 .22944641 .71199038 .25144959 .71199038 .27246095 .69200137 .27246095 .6749878 .27246095H.12298584C.10598755 .27246095 .085998538 .27246095 .085998538 .25144959 .085998538 .22944641 .10499573 .22944641 .12298584 .22944641H.6749878Z"/>
<path id="font_3_3" d="M.46199037 .17704773H.43399049C.43199159 .16404724 .42399598 .10501099 .41099549 .08900452 .40499879 .07998657 .33599855 .07998657 .31599427 .07998657H.13798523L.23699951 .17404175C.40098573 .3161316 .46199037 .36915589 .46199037 .4711914 .46199037 .5860901 .36698915 .6660156 .24398804 .6660156 .1289978 .6660156 .050994874 .575119 .050994874 .4841919 .050994874 .43418885 .09399414 .42919923 .102996829 .42919923 .125 .42919923 .15499878 .44519044 .15499878 .48120118 .15499878 .51119998 .13398743 .5332031 .102996829 .5332031 .09799194 .5332031 .09498596 .5332031 .09098816 .53219607 .114990238 .6030731 .1789856 .63500979 .23298645 .63500979 .33499146 .63500979 .36999513 .5401764 .36999513 .4711914 .36999513 .36915589 .29299928 .28611756 .24499512 .23408509L.06199646 .035995485C.050994874 .024993897 .050994874 .022994996 .050994874 0H.43399049L.46199037 .17704773Z"/>
<path id="font_3_4" d="M.30499269 .35195924C.397995 .38697816 .44198609 .46006776 .44198609 .5290985 .44198609 .60606387 .35699464 .6660156 .25299073 .6660156 .14898682 .6660156 .070999149 .60705569 .070999149 .5310974 .070999149 .49809266 .09298706 .47909547 .12199402 .47909547 .15098572 .47909547 .17199707 .50009158 .17199707 .5290985 .17199707 .5640869 .147995 .57910159 .11399841 .57910159 .13999939 .6210327 .20098877 .64100649 .25 .64100649 .33299256 .64100649 .34899903 .5750885 .34899903 .52809146 .34899903 .49809266 .34298707 .45005799 .31799317 .41201783 .2869873 .36695863 .2519989 .36495973 .22299195 .36296083 .19799805 .36094667 .19599915 .36094667 .18798828 .36094667 .1789856 .35995484 .17098999 .35894776 .17098999 .34794618 .17098999 .33496095 .1789856 .33496095 .19599915 .33496095H.24299622C.32998658 .33496095 .36799623 .2646637 .36799623 .16937256 .36799623 .04145813 .2999878 .0055389406 .24899292 .0055389406 .22999573 .0055389406 .1329956 .010528564 .08799744 .0843811 .12399292 .07939148 .1519928 .10437012 .1519928 .13838196 .1519928 .17137146 .1269989 .19238281 .09799194 .19238281 .07299805 .19238281 .042999269 .17736817 .042999269 .13537598 .042999269 .046447755 .13598633-.022460938 .2519989-.022460938 .3769989-.022460938 .46998597 .06741333 .46998597 .16937256 .46998597 .25663758 .40098573 .33093263 .30499269 .35195924Z"/>
<path id="font_3_5" d="M.0289917 .19602967V.16503906H.3019867V.07901001C.3019867 .041992189 .29899598 .0309906 .22399903 .0309906H.20199585V0C.2649994 .0029907227 .33499146 .0029907227 .34199525 .0029907227 .34700013 .0029907227 .4189911 .0029907227 .48199464 0V.0309906H.45999146C.3849945 .0309906 .38198854 .041992189 .38198854 .07901001V.16503906H.48399354V.19602967H.38198854V.64974978C.38198854 .669754 .38198854 .6767578 .36299134 .6767578 .35099793 .6767578 .34999085 .67575076 .34098817 .66174319L.0289917 .19602967M.06098938 .19602967 .30799867 .56581118V.19602967H.06098938Z"/>
<path id="font_1_107" d="M.44898988 .17396546H.42399598C.4189911 .14398194 .4119873 .099990848 .4019928 .084991458 .394989 .07699585 .32899476 .07699585 .30699159 .07699585H.1269989L.23298645 .17996216C.3889923 .31803895 .44898988 .37210084 .44898988 .47216798 .44898988 .5860901 .35899354 .6660156 .23699951 .6660156 .12399292 .6660156 .049987794 .57411196 .049987794 .48516847 .049987794 .4291687 .099990848 .4291687 .102996829 .4291687 .11999512 .4291687 .15499878 .44117738 .15499878 .48217774 .15499878 .5081787 .13699341 .5341797 .101989749 .5341797 .09399414 .5341797 .09199524 .5341797 .08898926 .5331726 .11199951 .59806826 .1659851 .63500979 .22399903 .63500979 .31498719 .63500979 .35798646 .5541382 .35798646 .47216798 .35798646 .39196778 .30799867 .31297303 .25299073 .25097657L.06098938 .036987306C.049987794 .025985718 .049987794 .023986817 .049987794 0H.42099L.44898988 .17396546Z"/>
<path id="font_1_42" d="M.6649933 .23271179C.6649933 .24272156 .6649933 .24972534 .6519928 .24972534 .6409912 .24972534 .6409912 .24372864 .6399994 .23371887 .6319885 .09059143 .5249939 .008529663 .41600038 .008529663 .35499574 .008529663 .15899658 .042556764 .15899658 .34080506 .15899658 .64004519 .35398866 .67407229 .4149933 .67407229 .5239868 .67407229 .61299136 .58299258 .6329956 .4368744 .6349945 .42286683 .6349945 .41986085 .6489868 .41986085 .6649933 .41986085 .6649933 .42286683 .6649933 .44387818V.68107607C.6649933 .69807437 .6649933 .7050781 .6539917 .7050781 .6499939 .7050781 .6459961 .7050781 .6380005 .69306948L.58799746 .61901858C.5509949 .6550598 .5 .7050781 .4039917 .7050781 .21699524 .7050781 .055999757 .5459595 .055999757 .34179688 .055999757 .1346283 .21798706-.022460938 .4039917-.022460938 .5669861-.022460938 .6649933 .116622928 .6649933 .23271179Z"/>
<path id="font_1_77" d="M.5349884 0V.0309906C.48298646 .0309906 .45799256 .0309906 .45700074 .061019899V.25221253C.45700074 .3383026 .45700074 .36932374 .42599488 .405365 .4119873 .42237855 .3789978 .4423828 .32099916 .4423828 .24798584 .4423828 .20098877 .39935304 .17298889 .33729554V.4423828L.03199768 .43066407V.3996582C.101989749 .3996582 .10998535 .39266969 .10998535 .34370423V.07595825C.10998535 .0309906 .09899902 .0309906 .03199768 .0309906V0L.14498902 .0029907227 .25698854 0V.0309906C.18998719 .0309906 .1789856 .0309906 .1789856 .07595825V.25978089C.1789856 .36431886 .25 .42037965 .31399537 .42037965 .3769989 .42037965 .3880005 .36631776 .3880005 .30926515V.076034549C.3880005 .0309906 .3769989 .0309906 .30999757 .0309906V0L.4229889 .0029907227 .5349884 0Z"/>
<path id="font_1_59" d="M.4850006 .40411378C.4850006 .42111207 .47299195 .453125 .43399049 .453125 .4139862 .453125 .36999513 .44711305 .32798768 .40611268 .28599549 .43937684 .24398804 .4423828 .22200012 .4423828 .1289978 .4423828 .05999756 .37338258 .05999756 .29638673 .05999756 .25239564 .08198547 .21440125 .10699463 .19340515 .09399414 .17840576 .07598877 .14538574 .07598877 .11035156 .07598877 .07899475 .08898926 .04083252 .11999512 .020828248 .05999756 .003829956 .027999878-.039138795 .027999878-.07911682 .027999878-.15107727 .1269989-.20605469 .24899292-.20605469 .36698915-.20605469 .47099305-.15507508 .47099305-.07711792 .47099305-.042144777 .45700074 .008834839 .4059906 .036834718 .35299684 .064834598 .29499818 .064834598 .23399353 .064834598 .20899964 .064834598 .1659851 .064834598 .15899658 .065841678 .1269989 .069885257 .10598755 .101242069 .10598755 .13334656 .10598755 .13735962 .10598755 .16040039 .12298584 .18040467 .1619873 .15240479 .20298767 .14941406 .22200012 .14941406 .31498719 .14941406 .38398744 .21839905 .38398744 .2953949 .38398744 .3323822 .36799623 .36938478 .34298707 .39237977 .3789978 .42637635 .4149933 .43138124 .43299867 .43138124 .43299867 .43112184 .43998719 .43112184 .44299317 .43011476 .43199159 .42611695 .4269867 .41513063 .4269867 .40315248 .4269867 .38616944 .43998719 .37417604 .45599366 .37417604 .46598817 .37417604 .4850006 .3811798 .4850006 .4041443V.40411378M.30899049 .29626466C.30899049 .26930238 .30799867 .2373352 .29299928 .21235657 .2849884 .20037842 .2619934 .17240906 .22200012 .17240906 .1349945 .17240906 .1349945 .2722931 .1349945 .29527284 .1349945 .3222351 .13598633 .35420228 .15098572 .3791809 .15899658 .3913269 .18199158 .41937257 .22200012 .41937257 .30899049 .41937257 .30899049 .31922914 .30899049 .29618836V.29626466M.4189911-.07911682C.4189911-.13308716 .34799195-.18305969 .25-.18305969 .14898682-.18305969 .07998657-.13209534 .07998657-.07911682 .07998657-.03314209 .117996219 .003829956 .1619873 .0068359377H.22099304C.30699159 .0068359377 .4189911 .0068359377 .4189911-.07911682Z"/>
<path id="font_1_50" d="M.4149933 .11933899C.4149933 .12934876 .40699769 .13134766 .4019928 .13134766 .3929901 .13134766 .3909912 .12535095 .3889923 .11734009 .35398866 .014251709 .2639923 .014251709 .2539978 .014251709 .20399475 .014251709 .1639862 .044281007 .14099121 .08131409 .11099243 .12934876 .11099243 .19540406 .11099243 .23144531H.3899994C.4119873 .23144531 .4149933 .23144531 .4149933 .2524414 .4149933 .35131837 .36099244 .4482422 .23599243 .4482422 .11999512 .4482422 .027999878 .34532167 .027999878 .22042847 .027999878 .08631897 .1329956-.0107421879 .24798584-.0107421879 .36999513-.0107421879 .4149933 .10032654 .4149933 .11933899M.34899903 .2524414H.11199951C.117996219 .40126039 .20199585 .426239 .23599243 .426239 .33898927 .426239 .34899903 .2913971 .34899903 .2524414Z"/>
<path id="font_5_1" d="M.44198609 .69781497C.43499757 .7108154 .43299867 .7158203 .41600038 .7158203 .39898683 .7158203 .39698792 .7108154 .3899994 .69781497L.051986696 .019989014C.04699707 .010986328 .04699707 .008987427 .04699707 .0079956059 .04699707 0 .052993776 0 .068984989 0H.7630005C.7789917 0 .7849884 0 .7849884 .0079956059 .7849884 .008987427 .7849884 .010986328 .7799988 .019989014L.44198609 .69781497M.38398744 .61582949 .6529999 .07598877H.11399841L.38398744 .61582949Z"/>
<path id="font_6_121" d="M.5159912 .31925965C.5159912 .42918397 .5029907 .50813296 .45700074 .5780945 .42599488 .62405398 .3639984 .6640625 .28399659 .6640625 .051986696 .6640625 .051986696 .39120484 .051986696 .31925965 .051986696 .2472992 .051986696-.01953125 .28399659-.01953125 .5159912-.01953125 .5159912 .2472992 .5159912 .31925965M.4249878 .33224488C.4249878 .25830079 .4249878 .18434143 .4119873 .12138367 .3919983 .030441285 .32398988 .008468628 .28399659 .008468628 .23799134 .008468628 .1769867 .035446168 .15699768 .117385867 .14299011 .17634583 .14299011 .25830079 .14299011 .33224488 .14299011 .40519715 .14299011 .4811554 .1579895 .53611758 .1789856 .6150665 .24299622 .63604739 .28399659 .63604739 .33799745 .63604739 .3899994 .6030731 .4079895 .545105 .42399598 .4911499 .4249878 .41918946 .4249878 .33224488Z"/>
<path id="font_6_88" d="M.21899414 .056991579C.21899414 .09199524 .19099427 .114990238 .1619873 .114990238 .1269989 .114990238 .10398865 .08699036 .10398865 .057998659 .10398865 .022994996 .13198853 0 .16099549 0 .19599915 0 .21899414 .027999878 .21899414 .056991579Z"/>
<path id="font_6_56" d="M.5049896 .20095825C.5049896 .31396485 .4189911 .41796876 .29499818 .41796876 .25099183 .41796876 .19898987 .40696717 .15499878 .36895753V.5579071C.20599365 .5449219 .23599243 .5449219 .2519989 .5449219 .38398744 .5449219 .46199037 .6349182 .46199037 .6499176 .46199037 .6610565 .45498658 .6640625 .44999696 .6640625 .44999696 .6640625 .44599916 .6640625 .44198609 .6610565 .41799928 .65205386 .36499024 .63204959 .29100038 .63204959 .2630005 .63204959 .20999146 .63404849 .14498902 .6590576 .1349945 .6640625 .13198853 .6640625 .13198853 .6640625 .11898804 .6640625 .11898804 .6530609 .11898804 .63705447V.34204103C.11898804 .32507325 .11898804 .3130951 .1349945 .3130951 .14399719 .3130951 .14498902 .31507875 .15499878 .32707215 .19799805 .38197328 .25898744 .3899536 .2939911 .3899536 .35398866 .3899536 .3809967 .34204103 .38598634 .33406068 .4039917 .30110169 .4099884 .26316834 .4099884 .20524597 .4099884 .17524719 .4099884 .116256717 .37998963 .07234192 .35499574 .03640747 .31199647 .012466431 .2630005 .012466431 .19799805 .012466431 .1309967 .04838562 .10598755 .11425781 .14399719 .11125183 .16299439 .13624573 .16299439 .16325379 .16299439 .20625305 .12599182 .21424866 .11299133 .21424866 .11299133 .21424866 .06298828 .21424866 .06298828 .1602478 .06298828 .07034302 .14498902-.01953125 .2649994-.01953125 .3929901-.019744873 .5049896 .07525635 .5049896 .20124817V.20095825Z"/>
<path id="font_6_64" d="M.31399537 .18101502V.24902344H.019989014V.18101502H.31399537Z"/>
<path id="font_1_106" d="M.45700074 .17037964C.45700074 .252594 .3939972 .33088685 .2899933 .35191346 .37199403 .37893678 .42999269 .4490509 .42999269 .52809146 .42999269 .6100464 .34199525 .6660156 .24598694 .6660156 .14498902 .6660156 .068984989 .60606387 .068984989 .53009036 .068984989 .49710084 .09098816 .47808839 .11999512 .47808839 .15098572 .47808839 .17098999 .50009158 .17098999 .5290985 .17098999 .57910159 .12399292 .57910159 .10899353 .57910159 .13999939 .62802127 .20599365 .64100649 .24198914 .64100649 .2829895 .64100649 .33799745 .6190338 .33799745 .5290985 .33799745 .51708987 .33599855 .45906068 .30999757 .4149933 .27999879 .36691285 .24598694 .36390687 .22099304 .36291505 .21299744 .36190797 .18899536 .35990907 .18199158 .35990907 .17399597 .35890199 .16699219 .35791017 .16699219 .3479004 .16699219 .33691407 .17399597 .33691407 .19099427 .33691407H.23498535C.31698609 .33691407 .35398866 .2686615 .35398866 .17037964 .35398866 .034469606 .2849884 .0055389406 .24099732 .0055389406 .19799805 .0055389406 .12298584 .022491456 .08799744 .08137512 .12298584 .07637024 .1539917 .09837341 .1539917 .1363678 .1539917 .17237854 .1269989 .19238281 .09799194 .19238281 .07398987 .19238281 .041992189 .17837525 .041992189 .1343689 .041992189 .043441774 .1349945-.022460938 .24398804-.022460938 .3659973-.022460938 .45700074 .06838989 .45700074 .17037964Z"/>
<path id="font_1_95" d="M.7319946 .08753967C.7319946 .09353638 .7319946 .104537967 .71899417 .104537967 .70799258 .104537967 .70799258 .09555054 .70700076 .08854675 .70098879 .017532349 .66600039-.00047302247 .6409912-.00047302247 .59199526-.00047302247 .58399966 .05053711 .56999209 .14355469L.5569916 .22355652C.5389862 .28756715 .48999024 .3205719 .43499757 .3395691 .5319977 .36357118 .6100006 .4245758 .6100006 .502594 .6100006 .5986023 .49598695 .6826172 .34899903 .6826172H.034988405V.6516113H.05899048C.13598633 .6516113 .13798523 .64060977 .13798523 .604599V.077545169C.13798523 .04197693 .13598633 .0309906 .05899048 .0309906H.034988405V0C.070999149 .0029907227 .14199829 .0029907227 .18099976 .0029907227 .21998596 .0029907227 .29100038 .0029907227 .32699586 0V.0309906H.30299378C.22599793 .0309906 .22399903 .04197693 .22399903 .077926639V.3305359H.33898927C.35499574 .3305359 .39698792 .3305359 .43199159 .29658509 .46998597 .26063539 .46998597 .22969055 .46998597 .16279602 .46998597 .09788513 .46998597 .05795288 .5109863 .019989014 .5519867-.016464234 .6069946-.022460938 .6369934-.022460938 .71499636-.022460938 .7319946 .059524537 .7319946 .087524417V.08753967M.5069885 .5025635C.5069885 .43354798 .48298646 .35253907 .33499146 .35253907H.22399903V.6116028C.22399903 .6345978 .22399903 .64660647 .24598694 .6496124 .2559967 .6516113 .2849884 .6516113 .30499269 .6516113 .394989 .6516113 .5069885 .6476135 .5069885 .5025635Z"/>
<path id="font_2_1" d="M.33399964 .30233766C.33999635 .32835389 .36299134 .42037965 .43299867 .42037965 .43798829 .42037965 .46199037 .42037965 .48298646 .40734864 .45498658 .402359 .43499757 .37734986 .43499757 .35334779 .43499757 .33735658 .44599916 .31835938 .47299195 .31835938 .49499513 .31835938 .5269928 .3363495 .5269928 .37635804 .5269928 .42837525 .46798707 .4423828 .43399049 .4423828 .37599183 .4423828 .34098817 .38935853 .32899476 .36634828 .3039856 .43237306 .25 .4423828 .22099304 .4423828 .116989139 .4423828 .05999756 .3133545 .05999756 .28834535 .05999756 .27833558 .069992069 .27833558 .07199097 .27833558 .07998657 .27833558 .08299255 .28033448 .084991458 .28933717 .11898804 .39535523 .18499756 .42037965 .21899414 .42037965 .23799134 .42037965 .272995 .4113617 .272995 .35334779 .272995 .32235719 .2559967 .25532533 .21899414 .11528015 .20298767 .053268434 .16799927 .011245728 .12399292 .011245728 .117996219 .011245728 .09498596 .011245728 .07398987 .024276734 .09899902 .029266358 .12098694 .05027771 .12098694 .07827759 .12098694 .105270389 .09899902 .11328125 .083999637 .11328125 .053985597 .11328125 .0289917 .08728027 .0289917 .055267335 .0289917 .009246826 .07899475-.0107421879 .12298584-.0107421879 .18899536-.0107421879 .22499085 .059280397 .22799683 .0652771 .23999024 .028274537 .27598573-.0107421879 .33599855-.0107421879 .43899537-.0107421879 .49598695 .118270877 .49598695 .14328003 .49598695 .1532898 .4869995 .1532898 .48399354 .1532898 .47499085 .1532898 .47299195 .14929199 .47099305 .14228821 .43798829 .03527832 .36999513 .011245728 .33799745 .011245728 .29899598 .011245728 .2829895 .043273927 .2829895 .07727051 .2829895 .09927368 .2889862 .121276859 .2999878 .16529846L.33399964 .30233766Z"/>
<path id="font_6_107" d="M.5049896 .18203736H.47099305C.46798707 .16001892 .45799256 .100997928 .44499208 .09098816 .43699647 .084991458 .3600006 .084991458 .34599305 .084991458H.1619873C.2669983 .17803955 .3019867 .20603943 .3619995 .25306703 .43598939 .312088 .5049896 .374115 .5049896 .46914674 .5049896 .5900879 .39898683 .6640625 .2709961 .6640625 .14698792 .6640625 .06298828 .57710269 .06298828 .4851532 .06298828 .43414308 .10598755 .42915345 .115997318 .42915345 .13999939 .42915345 .16899109 .44615174 .16899109 .48214723 .16899109 .5001526 .1619873 .53515627 .10998535 .53515627 .14099121 .6060791 .20899964 .62805178 .2559967 .62805178 .35598756 .62805178 .4079895 .5501404 .4079895 .46914674 .4079895 .38212586 .34599305 .3130951 .31399537 .27708436L.07299805 .038986207C.06298828 .02999878 .06298828 .027999878 .06298828 0H.47499085L.5049896 .18203736Z"/>
<path id="font_6_57" d="M.5289917 .1640625V.20005799H.41799928V.6458435C.41799928 .66682437 .41799928 .6738281 .3959961 .6738281 .38398744 .6738281 .37998963 .6738281 .36999513 .6598358L.038986207 .20005799V.1640625H.33299256V.08201599C.33299256 .04800415 .33299256 .035995485 .2519989 .035995485H.22499085V0L.375 .0039978029 .526001 0V.035995485H.49899293C.41799928 .035995485 .41799928 .04800415 .41799928 .08201599V.1640625H.5289917M.33999635 .20005799H.07598877L.33999635 .5658722V.20005799Z"/>
<path id="font_6_101" d="M.5139923 .20445252C.5139923 .33145143 .41299439 .42546083 .29599 .42546083 .21598816 .42546083 .17199707 .37245179 .1499939 .3274536 .1499939 .40945436 .15699768 .48303224 .19499207 .543869 .22898865 .5978699 .2829895 .63505557 .34700013 .63505557 .3769989 .63505557 .4169922 .62701418 .43699647 .5998688 .4119873 .5978699 .3909912 .5808716 .3909912 .5518799 .3909912 .5268707 .4079895 .5048828 .43798829 .5048828 .46798707 .5048828 .48599244 .5248718 .48599244 .5538788 .48599244 .6119385 .44400025 .6640625 .34498597 .6640625 .20098877 .6640625 .053985597 .5318756 .053985597 .3174591 .053985597 .05845642 .17599488-.01953125 .28599549-.01953125 .4079895-.01953125 .5139923 .07345581 .5139923 .20445252M.41799928 .20445252C.41799928 .14746094 .41799928 .10545349 .3909912 .066467288 .36698915 .031463624 .33499146 .012466431 .28599549 .012466431 .23599243 .012466431 .19699097 .04145813 .17599488 .08546448 .16099549 .115448 .15299988 .16545105 .15299988 .22544861 .15299988 .32244874 .21099854 .39746095 .29100038 .39746095 .33699037 .39746095 .36799623 .37945558 .3929901 .342453 .4169922 .30445863 .41799928 .26245118 .41799928 .20445252Z"/>
<path id="font_6_51" d="M.5139923 .16905213C.5139923 .23504639 .47499085 .2910614 .4169922 .32505799L.35499574 .36105348C.43299867 .39904786 .48298646 .44606019 .48298646 .5150604 .48298646 .61206057 .38198854 .6640625 .2849884 .6640625 .1749878 .6640625 .084991458 .5920563 .084991458 .49705506 .084991458 .45005799 .10699463 .4160614 .125 .39605714 .14299011 .37506105 .1499939 .37104798 .20899964 .33605958 .15299988 .31245423 .053985597 .25846864 .053985597 .15345764 .053985597 .04246521 .16899109-.01953125 .2829895-.01953125 .4099884-.01953125 .5139923 .061462404 .5139923 .16946411V.16905213M.42999269 .51545718C.42999269 .4264679 .32398988 .38145448 .32398988 .38145448 .32398988 .38145448 .31999208 .38246156 .31298829 .38645936L.19198609 .45646668C.1659851 .4711609 .13798523 .49813844 .13798523 .53512576 .13798523 .5980835 .21099854 .63505557 .2829895 .63505557 .36099244 .63505557 .42999269 .5860901 .42999269 .5151367V.51545718M.45399476 .13438416C.45399476 .059432985 .37098695 .012466431 .2849884 .012466431 .19299317 .011993408 .11399841 .070999149 .11399841 .15299988 .11399841 .22698975 .16899109 .28399659 .24099732 .31698609 .29699708 .2849884 .29899598 .2849884 .37799073 .23799134 .4039917 .22299195 .45399476 .19299317 .45399476 .13398743V.13438416Z"/>
</defs>
<use data-text="G" xlink:href="#font_1_58" transform="matrix(9.963098,0,0,-9.963098,17.76648,415.0283)"/>
<use data-text="r" xlink:href="#font_1_96" transform="matrix(9.963098,0,0,-9.963098,25.587525,415.0283)"/>
<use data-text="a" xlink:href="#font_1_28" transform="matrix(9.963098,0,0,-9.963098,29.493042,415.0283)"/>
<use data-text="p" xlink:href="#font_1_84" transform="matrix(9.963098,0,0,-9.963098,34.474596,415.0283)"/>
<use data-text="h" xlink:href="#font_1_63" transform="matrix(9.963098,0,0,-9.963098,40.01407,415.0283)"/>
<use data-text="1" xlink:href="#font_1_82" transform="matrix(9.963098,0,0,-9.963098,48.861299,415.0283)"/>
<use data-text=":" xlink:href="#font_1_44" transform="matrix(9.963098,0,0,-9.963098,53.842836,415.0283)"/>
<use data-text="o" xlink:href="#font_1_81" transform="matrix(9.963098,0,0,-9.963098,61.03621,415.0283)"/>
<use data-text="f" xlink:href="#font_1_55" transform="matrix(9.963098,0,0,-9.963098,66.017749,415.0283)"/>
<use data-text="T" xlink:href="#font_1_104" transform="matrix(9.963098,0,0,-9.963098,72.38417,415.0283)"/>
<use data-text="o" xlink:href="#font_1_81" transform="matrix(9.963098,0,0,-9.963098,78.760547,415.0283)"/>
<use data-text="t" xlink:href="#font_1_105" transform="matrix(9.963098,0,0,-9.963098,83.74208,415.0283)"/>
<use data-text="a" xlink:href="#font_1_28" transform="matrix(9.963098,0,0,-9.963098,87.61774,415.0283)"/>
<use data-text="l" xlink:href="#font_1_72" transform="matrix(9.963098,0,0,-9.963098,92.59927,415.0283)"/>
<use data-text="y" xlink:href="#font_2_2" transform="matrix(9.963098,0,0,-9.963098,102.004688,415.0283)"/>
<path transform="matrix(1.00005,0,0,-1.00005,17.860489,256.56938)" stroke-width=".3985" stroke-linecap="butt" stroke-miterlimit="10" stroke-linejoin="miter" fill="none" stroke="#000000" d="M0-113.38724H95.2414"/>
<path transform="matrix(1.00005,0,0,-1.00005,17.860489,256.56938)" stroke-width=".3985" stroke-linecap="butt" stroke-miterlimit="10" stroke-linejoin="miter" fill="none" stroke="#000000" d="M0-56.69362H95.2414"/>
<path transform="matrix(1.00005,0,0,-1.00005,17.860489,256.56938)" stroke-width=".3985" stroke-linecap="butt" stroke-miterlimit="10" stroke-linejoin="miter" fill="none" stroke="#000000" d="M0 0H95.2414"/>
<path transform="matrix(1.00005,0,0,-1.00005,17.860489,256.56938)" stroke-width=".3985" stroke-linecap="butt" stroke-miterlimit="10" stroke-linejoin="miter" fill="none" stroke="#000000" d="M0 56.69362H95.2414"/>
<path transform="matrix(1.00005,0,0,-1.00005,17.860489,256.56938)" stroke-width=".3985" stroke-linecap="butt" stroke-miterlimit="10" stroke-linejoin="miter" fill="none" stroke="#000000" d="M0 113.38724H95.2414"/>
<path transform="matrix(1.00005,0,0,-1.00005,17.860489,256.56938)" stroke-width=".3985" stroke-linecap="butt" stroke-miterlimit="10" stroke-linejoin="miter" fill="none" stroke="#000000" d="M0 170.08086H95.2414"/>
<path transform="matrix(1.00005,0,0,-1.00005,17.860489,256.56938)" stroke-width=".3985" stroke-linecap="butt" stroke-miterlimit="10" stroke-linejoin="miter" fill="none" stroke="#000000" d="M0 226.77448H95.2414"/>
<path transform="matrix(1.00005,0,0,-1.00005,17.860489,256.56938)" stroke-width=".79701" stroke-linecap="butt" stroke-dasharray=".79701,1.99255" stroke-miterlimit="10" stroke-linejoin="miter" fill="none" stroke="#000000" d="M0-85.0404H95.2414"/>
<path transform="matrix(1.00005,0,0,-1.00005,17.860489,256.56938)" stroke-width=".79701" stroke-linecap="butt" stroke-dasharray=".79701,1.99255" stroke-miterlimit="10" stroke-linejoin="miter" fill="none" stroke="#000000" d="M0-28.34679H95.2414"/>
<path transform="matrix(1.00005,0,0,-1.00005,17.860489,256.56938)" stroke-width=".79701" stroke-linecap="butt" stroke-dasharray=".79701,1.99255" stroke-miterlimit="10" stroke-linejoin="miter" fill="none" stroke="#000000" d="M0 28.34679H95.2414"/>
<path transform="matrix(1.00005,0,0,-1.00005,17.860489,256.56938)" stroke-width=".79701" stroke-linecap="butt" stroke-dasharray=".79701,1.99255" stroke-miterlimit="10" stroke-linejoin="miter" fill="none" stroke="#000000" d="M0 85.0404H95.2414"/>
<path transform="matrix(1.00005,0,0,-1.00005,17.860489,256.56938)" stroke-width=".79701" stroke-linecap="butt" stroke-dasharray=".79701,1.99255" stroke-miterlimit="10" stroke-linejoin="miter" fill="none" stroke="#000000" d="M0 141.73403H95.2414"/>
<path transform="matrix(1.00005,0,0,-1.00005,17.860489,256.56938)" stroke-width=".79701" stroke-linecap="butt" stroke-dasharray=".79701,1.99255" stroke-miterlimit="10" stroke-linejoin="miter" fill="none" stroke="#000000" d="M0 198.42765H95.2414"/>
<path transform="matrix(1.00005,0,0,-1.00005,17.860489,256.56938)" stroke-width=".3985" stroke-linecap="butt" stroke-miterlimit="10" stroke-linejoin="miter" fill="none" stroke="#000000" d="M0 0H91.65485"/>
<path transform="matrix(1.00005,0,0,-1.00005,109.51991,256.56938)" d="M3.58653 0C2.52383 .19925 .797 .797-.3985 1.49438V-1.49438C.797-.797 2.52383-.19925 3.58653 0"/>
<path transform="matrix(1.00005,0,0,-1.00005,17.860489,256.56938)" stroke-width=".3985" stroke-linecap="butt" stroke-miterlimit="10" stroke-linejoin="miter" fill="none" stroke="#000000" d="M0-113.38724V251.53473"/>
<path transform="matrix(0,-1.00005,-1.00005,-0,17.860489,5.0220797)" d="M3.58653 0C2.52383 .19925 .797 .797-.3985 1.49438V-1.49438C.797-.797 2.52383-.19925 3.58653 0"/>
<path transform="matrix(1.00005,0,0,-1.00005,17.860489,256.56938)" d="M-5.62444-14.61133H5.6244499V-2.1918H-5.62444Z" fill="#ffffff"/>
<use data-text="0" xlink:href="#font_3_1" transform="matrix(8.966848,0,0,-8.966848,15.556381,267.86094)"/>
<path transform="matrix(1.00005,0,0,-1.00005,17.860489,256.56938)" d="M24.13849-14.61133H35.387384V-2.1918H24.13849Z" fill="#ffffff"/>
<use data-text="5" xlink:href="#font_3_6" transform="matrix(8.966848,0,0,-8.966848,45.32086,267.86094)"/>
<path transform="matrix(1.00005,0,0,-1.00005,17.860489,256.56938)" d="M51.59755-14.61133H67.45418V-2.1918H51.59755Z" fill="#ffffff"/>
<use data-text="1" xlink:href="#font_3_2" transform="matrix(8.966848,0,0,-8.966848,72.781238,267.86094)"/>
<use data-text="0" xlink:href="#font_3_1" transform="matrix(8.966848,0,0,-8.966848,77.381229,267.86094)"/>
<path transform="matrix(1.00005,0,0,-1.00005,17.860489,256.56938)" d="M81.36047-14.61133H97.2171V-2.1918H81.36047Z" fill="#ffffff"/>
<use data-text="1" xlink:href="#font_3_2" transform="matrix(8.966848,0,0,-8.966848,102.545719,267.86094)"/>
<use data-text="5" xlink:href="#font_3_6" transform="matrix(8.966848,0,0,-8.966848,107.145709,267.86094)"/>
<path transform="matrix(1.00005,0,0,-1.00005,17.860489,256.56938)" d="M-20.60829-120.0121H-2.1917992V-106.76237H-20.60829Z" fill="#ffffff"/>
<use data-text="&#x2212;" xlink:href="#font_4_1" transform="matrix(8.966848,0,0,-8.966848,.57162478,372.43617)"/>
<use data-text="2" xlink:href="#font_3_3" transform="matrix(8.966848,0,0,-8.966848,7.738983,372.43617)"/>
<path transform="matrix(1.00005,0,0,-1.00005,17.860489,256.56938)" d="M-20.60829-63.31848H-2.1917992V-50.068754H-20.60829Z" fill="#ffffff"/>
<use data-text="&#x2212;" xlink:href="#font_4_1" transform="matrix(8.966848,0,0,-8.966848,.57162478,315.74034)"/>
<use data-text="1" xlink:href="#font_3_2" transform="matrix(8.966848,0,0,-8.966848,7.738983,315.74034)"/>
<path transform="matrix(1.00005,0,0,-1.00005,17.860489,256.56938)" d="M-13.44069-6.20976H-2.1918V6.2097699H-13.44069Z" fill="#ffffff"/>
<use data-text="0" xlink:href="#font_3_1" transform="matrix(8.966848,0,0,-8.966848,7.73999,259.4585)"/>
<path transform="matrix(1.00005,0,0,-1.00005,17.860489,256.56938)" d="M-13.44069 50.48384H-2.1918V62.90337H-13.44069Z" fill="#ffffff"/>
<use data-text="1" xlink:href="#font_3_2" transform="matrix(8.966848,0,0,-8.966848,7.73999,202.76268)"/>
<path transform="matrix(1.00005,0,0,-1.00005,17.860489,256.56938)" d="M-13.44069 107.17746H-2.1918V119.59699H-13.44069Z" fill="#ffffff"/>
<use data-text="2" xlink:href="#font_3_3" transform="matrix(8.966848,0,0,-8.966848,7.73999,146.06586)"/>
<path transform="matrix(1.00005,0,0,-1.00005,17.860489,256.56938)" d="M-13.44069 163.8711H-2.1918V176.29062H-13.44069Z" fill="#ffffff"/>
<use data-text="3" xlink:href="#font_3_4" transform="matrix(8.966848,0,0,-8.966848,7.73999,89.36902)"/>
<path transform="matrix(1.00005,0,0,-1.00005,17.860489,256.56938)" d="M-13.44069 220.56472H-2.1918V232.98424H-13.44069Z" fill="#ffffff"/>
<use data-text="4" xlink:href="#font_3_5" transform="matrix(8.966848,0,0,-8.966848,7.73999,32.673189)"/>
<path transform="matrix(1.00005,0,0,-1.00005,17.860489,256.56938)" stroke-width=".09962" stroke-linecap="butt" stroke-miterlimit="10" stroke-linejoin="miter" fill="none" stroke="#000000" d="M0-113.38724V240.94786"/>
<path transform="matrix(1.00005,0,0,-1.00005,17.860489,256.56938)" stroke-width=".09962" stroke-linecap="butt" stroke-miterlimit="10" stroke-linejoin="miter" fill="none" stroke="#000000" d="M29.76292-113.38724V240.94786"/>
<path transform="matrix(1.00005,0,0,-1.00005,17.860489,256.56938)" stroke-width=".09962" stroke-linecap="butt" stroke-miterlimit="10" stroke-linejoin="miter" fill="none" stroke="#000000" d="M59.52586-113.38724V240.94786"/>
<path transform="matrix(1.00005,0,0,-1.00005,17.860489,256.56938)" stroke-width=".09962" stroke-linecap="butt" stroke-miterlimit="10" stroke-linejoin="miter" fill="none" stroke="#000000" d="M89.2888-113.38724V240.94786"/>
<path transform="matrix(1.00005,0,0,-1.00005,17.860489,256.56938)" stroke-width=".79701" stroke-linecap="butt" stroke-miterlimit="10" stroke-linejoin="miter" fill="none" stroke="#000000" d="M0-56.69362 3.72035-29.4541 7.44072-4.42918 11.16109 18.3811 14.88145 38.97598 18.60182 57.35712 22.32219 73.52278 26.04254 87.47388 29.76292 99.21036 33.48329 108.73224 37.20366 116.03955 40.92403 121.13136 44.6444 124.0086 48.36475 124.67126 52.08513 123.11932 55.8055 119.3528 59.52586 113.37163 63.24623 105.17592 66.9666 94.76471 70.68697 82.13893 74.40733 67.29857 78.1277 50.24359 81.84807 30.97403 85.56844 9.48901 89.2888-14.2097"/>
<g>
<path transform="matrix(1.00005,0,0,-1.00005,17.860489,256.56938)" d="M5.95258-56.69362V0H-5.95258V-56.69362ZM-5.95258 0" fill="#0000ff" fill-opacity=".3"/>
<path transform="matrix(1.00005,0,0,-1.00005,17.860489,256.56938)" stroke-width=".3985" stroke-linecap="butt" stroke-miterlimit="10" stroke-linejoin="miter" fill="none" stroke="#000000" stroke-opacity=".3" d="M5.95258-56.69362V0H-5.95258V-56.69362ZM-5.95258 0"/>
</g>
<path transform="matrix(1.00005,0,0,-1.00005,17.860489,256.56938)" stroke-width=".79701" stroke-linecap="butt" stroke-miterlimit="10" stroke-linejoin="miter" fill="none" stroke="#000000" d="M5.95258-56.69362V0H-5.95258V-56.69362ZM-5.95258 0"/>
<path transform="matrix(1.00005,0,0,-1.00005,17.860489,256.56938)" d="M3.52272-56.69362C3.52272-54.74805 1.94556-53.17088 0-53.17088-1.94556-53.17088-3.52272-54.74805-3.52272-56.69362-3.52272-58.63918-1.94556-60.21634 0-60.21634 1.94556-60.21634 3.52272-58.63918 3.52272-56.69362ZM0-56.69362" fill="#0000ff"/>
<path transform="matrix(1.00005,0,0,-1.00005,17.860489,256.56938)" stroke-width=".3985" stroke-linecap="butt" stroke-miterlimit="10" stroke-linejoin="miter" fill="none" stroke="#000000" d="M3.52272-56.69362C3.52272-54.74805 1.94556-53.17088 0-53.17088-1.94556-53.17088-3.52272-54.74805-3.52272-56.69362-3.52272-58.63918-1.94556-60.21634 0-60.21634 1.94556-60.21634 3.52272-58.63918 3.52272-56.69362ZM0-56.69362"/>
<g>
<path transform="matrix(1.00005,0,0,-1.00005,17.860489,256.56938)" d="M35.7155 99.21382V0H23.81033V99.21382ZM23.81033 0" fill="#0000ff" fill-opacity=".3"/>
<path transform="matrix(1.00005,0,0,-1.00005,17.860489,256.56938)" stroke-width=".3985" stroke-linecap="butt" stroke-miterlimit="10" stroke-linejoin="miter" fill="none" stroke="#000000" stroke-opacity=".3" d="M35.7155 99.21382V0H23.81033V99.21382ZM23.81033 0"/>
</g>
<path transform="matrix(1.00005,0,0,-1.00005,17.860489,256.56938)" stroke-width=".79701" stroke-linecap="butt" stroke-miterlimit="10" stroke-linejoin="miter" fill="none" stroke="#000000" d="M35.7155 99.21382V0H23.81033V99.21382ZM23.81033 0"/>
<path transform="matrix(1.00005,0,0,-1.00005,17.860489,256.56938)" d="M33.28564 99.21382C33.28564 101.15938 31.7085 102.73654 29.76292 102.73654 27.81737 102.73654 26.2402 101.15938 26.2402 99.21382 26.2402 97.26825 27.81737 95.6911 29.76292 95.6911 31.7085 95.6911 33.28564 97.26825 33.28564 99.21382ZM29.76292 99.21382" fill="#0000ff"/>
<path transform="matrix(1.00005,0,0,-1.00005,17.860489,256.56938)" stroke-width=".3985" stroke-linecap="butt" stroke-miterlimit="10" stroke-linejoin="miter" fill="none" stroke="#000000" d="M33.28564 99.21382C33.28564 101.15938 31.7085 102.73654 29.76292 102.73654 27.81737 102.73654 26.2402 101.15938 26.2402 99.21382 26.2402 97.26825 27.81737 95.6911 29.76292 95.6911 31.7085 95.6911 33.28564 97.26825 33.28564 99.21382ZM29.76292 99.21382"/>
<g>
<path transform="matrix(1.00005,0,0,-1.00005,17.860489,256.56938)" d="M65.47845 113.38724V0H53.57327V113.38724ZM53.57327 0" fill="#0000ff" fill-opacity=".3"/>
<path transform="matrix(1.00005,0,0,-1.00005,17.860489,256.56938)" stroke-width=".3985" stroke-linecap="butt" stroke-miterlimit="10" stroke-linejoin="miter" fill="none" stroke="#000000" stroke-opacity=".3" d="M65.47845 113.38724V0H53.57327V113.38724ZM53.57327 0"/>
</g>
<path transform="matrix(1.00005,0,0,-1.00005,17.860489,256.56938)" stroke-width=".79701" stroke-linecap="butt" stroke-miterlimit="10" stroke-linejoin="miter" fill="none" stroke="#000000" d="M65.47845 113.38724V0H53.57327V113.38724ZM53.57327 0"/>
<path transform="matrix(1.00005,0,0,-1.00005,17.860489,256.56938)" d="M63.04858 113.38724C63.04858 115.3328 61.47142 116.90996 59.52586 116.90996 57.58029 116.90996 56.00314 115.3328 56.00314 113.38724 56.00314 111.44167 57.58029 109.8645 59.52586 109.8645 61.47142 109.8645 63.04858 111.44167 63.04858 113.38724ZM59.52586 113.38724" fill="#0000ff"/>
<path transform="matrix(1.00005,0,0,-1.00005,17.860489,256.56938)" stroke-width=".3985" stroke-linecap="butt" stroke-miterlimit="10" stroke-linejoin="miter" fill="none" stroke="#000000" d="M63.04858 113.38724C63.04858 115.3328 61.47142 116.90996 59.52586 116.90996 57.58029 116.90996 56.00314 115.3328 56.00314 113.38724 56.00314 111.44167 57.58029 109.8645 59.52586 109.8645 61.47142 109.8645 63.04858 111.44167 63.04858 113.38724ZM59.52586 113.38724"/>
<g>
<path transform="matrix(1.00005,0,0,-1.00005,17.860489,256.56938)" d="M95.2414 14.17337V0H83.33621V14.17337ZM83.33621 0" fill="#0000ff" fill-opacity=".3"/>
<path transform="matrix(1.00005,0,0,-1.00005,17.860489,256.56938)" stroke-width=".3985" stroke-linecap="butt" stroke-miterlimit="10" stroke-linejoin="miter" fill="none" stroke="#000000" stroke-opacity=".3" d="M95.2414 14.17337V0H83.33621V14.17337ZM83.33621 0"/>
</g>
<path transform="matrix(1.00005,0,0,-1.00005,17.860489,256.56938)" stroke-width=".79701" stroke-linecap="butt" stroke-miterlimit="10" stroke-linejoin="miter" fill="none" stroke="#000000" d="M95.2414 14.17337V0H83.33621V14.17337ZM83.33621 0"/>
<path transform="matrix(1.00005,0,0,-1.00005,17.860489,256.56938)" d="M92.81152 14.17337C92.81152 16.11894 91.23436 17.6961 89.2888 17.6961 87.34323 17.6961 85.76607 16.11894 85.76607 14.17337 85.76607 12.22781 87.34323 10.65065 89.2888 10.65065 91.23436 10.65065 92.81152 12.22781 92.81152 14.17337ZM89.2888 14.17337" fill="#0000ff"/>
<path transform="matrix(1.00005,0,0,-1.00005,17.860489,256.56938)" stroke-width=".3985" stroke-linecap="butt" stroke-miterlimit="10" stroke-linejoin="miter" fill="none" stroke="#000000" d="M92.81152 14.17337C92.81152 16.11894 91.23436 17.6961 89.2888 17.6961 87.34323 17.6961 85.76607 16.11894 85.76607 14.17337 85.76607 12.22781 87.34323 10.65065 89.2888 10.65065 91.23436 10.65065 92.81152 12.22781 92.81152 14.17337ZM89.2888 14.17337"/>
<use data-text="G" xlink:href="#font_1_58" transform="matrix(9.963098,0,0,-9.963098,140.2576,414.97129)"/>
<use data-text="r" xlink:href="#font_1_96" transform="matrix(9.963098,0,0,-9.963098,148.07865,414.97129)"/>
<use data-text="a" xlink:href="#font_1_28" transform="matrix(9.963098,0,0,-9.963098,151.98416,414.97129)"/>
<use data-text="p" xlink:href="#font_1_84" transform="matrix(9.963098,0,0,-9.963098,156.9657,414.97129)"/>
<use data-text="h" xlink:href="#font_1_63" transform="matrix(9.963098,0,0,-9.963098,162.50519,414.97129)"/>
<use data-text="2" xlink:href="#font_1_107" transform="matrix(9.963098,0,0,-9.963098,171.35245,414.97129)"/>
<use data-text=":" xlink:href="#font_1_44" transform="matrix(9.963098,0,0,-9.963098,176.33399,414.97129)"/>
<use data-text="C" xlink:href="#font_1_42" transform="matrix(9.963098,0,0,-9.963098,183.52735,414.97129)"/>
<use data-text="h" xlink:href="#font_1_63" transform="matrix(9.963098,0,0,-9.963098,190.7207,414.97129)"/>
<use data-text="a" xlink:href="#font_1_28" transform="matrix(9.963098,0,0,-9.963098,196.2602,414.97129)"/>
<use data-text="n" xlink:href="#font_1_77" transform="matrix(9.963098,0,0,-9.963098,201.24173,414.97129)"/>
<use data-text="g" xlink:href="#font_1_59" transform="matrix(9.963098,0,0,-9.963098,206.78122,414.97129)"/>
<use data-text="e" xlink:href="#font_1_50" transform="matrix(9.963098,0,0,-9.963098,211.76276,414.97129)"/>
<use data-text="&#x2206;" xlink:href="#font_5_1" transform="matrix(9.963098,0,0,-9.963098,222.83173,414.97129)"/>
<use data-text="y" xlink:href="#font_2_2" transform="matrix(9.963098,0,0,-9.963098,231.13416,414.97129)"/>
<path transform="matrix(1.00005,0,0,-1.00005,143.67078,199.87354)" stroke-width=".3985" stroke-linecap="butt" stroke-miterlimit="10" stroke-linejoin="miter" fill="none" stroke="#000000" d="M0-170.08086H95.2414"/>
<path transform="matrix(1.00005,0,0,-1.00005,143.67078,199.87354)" stroke-width=".3985" stroke-linecap="butt" stroke-miterlimit="10" stroke-linejoin="miter" fill="none" stroke="#000000" d="M0-113.38724H95.2414"/>
<path transform="matrix(1.00005,0,0,-1.00005,143.67078,199.87354)" stroke-width=".3985" stroke-linecap="butt" stroke-miterlimit="10" stroke-linejoin="miter" fill="none" stroke="#000000" d="M0-56.69362H95.2414"/>
<path transform="matrix(1.00005,0,0,-1.00005,143.67078,199.87354)" stroke-width=".3985" stroke-linecap="butt" stroke-miterlimit="10" stroke-linejoin="miter" fill="none" stroke="#000000" d="M0 0H95.2414"/>
<path transform="matrix(1.00005,0,0,-1.00005,143.67078,199.87354)" stroke-width=".3985" stroke-linecap="butt" stroke-miterlimit="10" stroke-linejoin="miter" fill="none" stroke="#000000" d="M0 56.69362H95.2414"/>
<path transform="matrix(1.00005,0,0,-1.00005,143.67078,199.87354)" stroke-width=".3985" stroke-linecap="butt" stroke-miterlimit="10" stroke-linejoin="miter" fill="none" stroke="#000000" d="M0 113.38724H95.2414"/>
<path transform="matrix(1.00005,0,0,-1.00005,143.67078,199.87354)" stroke-width=".3985" stroke-linecap="butt" stroke-miterlimit="10" stroke-linejoin="miter" fill="none" stroke="#000000" d="M0 170.08086H95.2414"/>
<path transform="matrix(1.00005,0,0,-1.00005,143.67078,199.87354)" stroke-width=".79701" stroke-linecap="butt" stroke-dasharray=".79701,1.99255" stroke-miterlimit="10" stroke-linejoin="miter" fill="none" stroke="#000000" d="M0-141.73403H95.2414"/>
<path transform="matrix(1.00005,0,0,-1.00005,143.67078,199.87354)" stroke-width=".79701" stroke-linecap="butt" stroke-dasharray=".79701,1.99255" stroke-miterlimit="10" stroke-linejoin="miter" fill="none" stroke="#000000" d="M0-85.0404H95.2414"/>
<path transform="matrix(1.00005,0,0,-1.00005,143.67078,199.87354)" stroke-width=".79701" stroke-linecap="butt" stroke-dasharray=".79701,1.99255" stroke-miterlimit="10" stroke-linejoin="miter" fill="none" stroke="#000000" d="M0-28.34679H95.2414"/>
<path transform="matrix(1.00005,0,0,-1.00005,143.67078,199.87354)" stroke-width=".79701" stroke-linecap="butt" stroke-dasharray=".79701,1.99255" stroke-miterlimit="10" stroke-linejoin="miter" fill="none" stroke="#000000" d="M0 28.34679H95.2414"/>
<path transform="matrix(1.00005,0,0,-1.00005,143.67078,199.87354)" stroke-width=".79701" stroke-linecap="butt" stroke-dasharray=".79701,1.99255" stroke-miterlimit="10" stroke-linejoin="miter" fill="none" stroke="#000000" d="M0 85.0404H95.2414"/>
<path transform="matrix(1.00005,0,0,-1.00005,143.67078,199.87354)" stroke-width=".79701" stroke-linecap="butt" stroke-dasharray=".79701,1.99255" stroke-miterlimit="10" stroke-linejoin="miter" fill="none" stroke="#000000" d="M0 141.73403H95.2414"/>
<path transform="matrix(1.00005,0,0,-1.00005,143.67078,199.87354)" stroke-width=".3985" stroke-linecap="butt" stroke-miterlimit="10" stroke-linejoin="miter" fill="none" stroke="#000000" d="M0 0H91.65485"/>
<path transform="matrix(1.00005,0,0,-1.00005,235.3302,199.87354)" d="M3.58653 0C2.52383 .19925 .797 .797-.3985 1.49438V-1.49438C.797-.797 2.52383-.19925 3.58653 0"/>
<path transform="matrix(1.00005,0,0,-1.00005,143.67078,199.87354)" stroke-width=".3985" stroke-linecap="butt" stroke-miterlimit="10" stroke-linejoin="miter" fill="none" stroke="#000000" d="M0-166.49431V166.49431"/>
<path transform="matrix(0,1.00005,1.00005,0,143.67078,366.37617)" d="M3.58653 0C2.52383 .19925 .797 .797-.3985 1.49438V-1.49438C.797-.797 2.52383-.19925 3.58653 0"/>
<path transform="matrix(0,-1.00005,-1.00005,-0,143.67078,33.37091)" d="M3.58653 0C2.52383 .19925 .797 .797-.3985 1.49438V-1.49438C.797-.797 2.52383-.19925 3.58653 0"/>
<path transform="matrix(1.00005,0,0,-1.00005,143.67078,199.87354)" d="M-5.62444-188.67729H5.6244499V-176.25777H-5.62444Z" fill="#ffffff"/>
<use data-text="0" xlink:href="#font_3_1" transform="matrix(8.966848,0,0,-8.966848,141.36667,385.2398)"/>
<path transform="matrix(1.00005,0,0,-1.00005,143.67078,199.87354)" d="M24.13849-188.67729H35.387384V-176.25777H24.13849Z" fill="#ffffff"/>
<use data-text="5" xlink:href="#font_3_6" transform="matrix(8.966848,0,0,-8.966848,171.13115,385.2398)"/>
<path transform="matrix(1.00005,0,0,-1.00005,143.67078,199.87354)" d="M51.59755-188.67729H67.45418V-176.25777H51.59755Z" fill="#ffffff"/>
<use data-text="1" xlink:href="#font_3_2" transform="matrix(8.966848,0,0,-8.966848,198.59152,385.2398)"/>
<use data-text="0" xlink:href="#font_3_1" transform="matrix(8.966848,0,0,-8.966848,203.1915,385.2398)"/>
<path transform="matrix(1.00005,0,0,-1.00005,143.67078,199.87354)" d="M81.36047-188.67729H97.2171V-176.25777H81.36047Z" fill="#ffffff"/>
<use data-text="1" xlink:href="#font_3_2" transform="matrix(8.966848,0,0,-8.966848,228.356,385.2398)"/>
<use data-text="5" xlink:href="#font_3_6" transform="matrix(8.966848,0,0,-8.966848,232.95598,385.2398)"/>
<path transform="matrix(1.00005,0,0,-1.00005,143.67078,199.87354)" d="M-20.60829-176.70572H-2.1917992V-163.456H-20.60829Z" fill="#ffffff"/>
<use data-text="&#x2212;" xlink:href="#font_4_1" transform="matrix(8.966848,0,0,-8.966848,126.38191,372.43714)"/>
<use data-text="3" xlink:href="#font_3_4" transform="matrix(8.966848,0,0,-8.966848,133.54927,372.43714)"/>
<path transform="matrix(1.00005,0,0,-1.00005,143.67078,199.87354)" d="M-20.60829-120.0121H-2.1917992V-106.76237H-20.60829Z" fill="#ffffff"/>
<use data-text="&#x2212;" xlink:href="#font_4_1" transform="matrix(8.966848,0,0,-8.966848,126.38191,315.74034)"/>
<use data-text="2" xlink:href="#font_3_3" transform="matrix(8.966848,0,0,-8.966848,133.54927,315.74034)"/>
<path transform="matrix(1.00005,0,0,-1.00005,143.67078,199.87354)" d="M-20.60829-63.31848H-2.1917992V-50.068754H-20.60829Z" fill="#ffffff"/>
<use data-text="&#x2212;" xlink:href="#font_4_1" transform="matrix(8.966848,0,0,-8.966848,126.38191,259.0445)"/>
<use data-text="1" xlink:href="#font_3_2" transform="matrix(8.966848,0,0,-8.966848,133.54927,259.0445)"/>
<path transform="matrix(1.00005,0,0,-1.00005,143.67078,199.87354)" d="M-13.44069-6.20976H-2.1918V6.2097699H-13.44069Z" fill="#ffffff"/>
<use data-text="0" xlink:href="#font_3_1" transform="matrix(8.966848,0,0,-8.966848,133.55028,202.76268)"/>
<path transform="matrix(1.00005,0,0,-1.00005,143.67078,199.87354)" d="M-13.44069 50.48384H-2.1918V62.90337H-13.44069Z" fill="#ffffff"/>
<use data-text="1" xlink:href="#font_3_2" transform="matrix(8.966848,0,0,-8.966848,133.55028,146.06685)"/>
<path transform="matrix(1.00005,0,0,-1.00005,143.67078,199.87354)" d="M-13.44069 107.17746H-2.1918V119.59699H-13.44069Z" fill="#ffffff"/>
<use data-text="2" xlink:href="#font_3_3" transform="matrix(8.966848,0,0,-8.966848,133.55028,89.37002)"/>
<path transform="matrix(1.00005,0,0,-1.00005,143.67078,199.87354)" d="M-13.44069 163.8711H-2.1918V176.29062H-13.44069Z" fill="#ffffff"/>
<use data-text="3" xlink:href="#font_3_4" transform="matrix(8.966848,0,0,-8.966848,133.55028,32.673189)"/>
<use data-text="0" xlink:href="#font_6_121" transform="matrix(6.9741489,0,0,-6.9741489,129.96109,173.77123)"/>
<use data-text="." xlink:href="#font_6_88" transform="matrix(6.9741489,0,0,-6.9741489,133.92935,173.77123)"/>
<use data-text="5" xlink:href="#font_6_56" transform="matrix(6.9741489,0,0,-6.9741489,136.182,173.77123)"/>
<use data-text="-" xlink:href="#font_6_64" transform="matrix(6.9741489,0,0,-6.9741489,127.275959,230.46707)"/>
<use data-text="0" xlink:href="#font_6_121" transform="matrix(6.9741489,0,0,-6.9741489,129.96099,230.46707)"/>
<use data-text="." xlink:href="#font_6_88" transform="matrix(6.9741489,0,0,-6.9741489,133.92928,230.46707)"/>
<use data-text="5" xlink:href="#font_6_56" transform="matrix(6.9741489,0,0,-6.9741489,136.1819,230.46707)"/>
<path transform="matrix(1.00005,0,0,-1.00005,143.67078,199.87354)" stroke-width=".09962" stroke-linecap="butt" stroke-miterlimit="10" stroke-linejoin="miter" fill="none" stroke="#000000" d="M0-184.25423V184.25423"/>
<path transform="matrix(1.00005,0,0,-1.00005,143.67078,199.87354)" stroke-width=".09962" stroke-linecap="butt" stroke-miterlimit="10" stroke-linejoin="miter" fill="none" stroke="#000000" d="M29.76292-184.25423V184.25423"/>
<path transform="matrix(1.00005,0,0,-1.00005,143.67078,199.87354)" stroke-width=".09962" stroke-linecap="butt" stroke-miterlimit="10" stroke-linejoin="miter" fill="none" stroke="#000000" d="M59.52586-184.25423V184.25423"/>
<path transform="matrix(1.00005,0,0,-1.00005,143.67078,199.87354)" stroke-width=".09962" stroke-linecap="butt" stroke-miterlimit="10" stroke-linejoin="miter" fill="none" stroke="#000000" d="M89.2888-184.25423V184.25423"/>
<g>
<path transform="matrix(1.00005,0,0,-1.00005,143.67078,199.87354)" d="M35.7155 155.90744V0H23.81033V155.90744ZM23.81033 0" fill="#0000ff" fill-opacity=".3"/>
<path transform="matrix(1.00005,0,0,-1.00005,143.67078,199.87354)" stroke-width=".3985" stroke-linecap="butt" stroke-miterlimit="10" stroke-linejoin="miter" fill="none" stroke="#000000" stroke-opacity=".3" d="M35.7155 155.90744V0H23.81033V155.90744ZM23.81033 0"/>
</g>
<path transform="matrix(1.00005,0,0,-1.00005,143.67078,199.87354)" stroke-width=".79701" stroke-linecap="butt" stroke-miterlimit="10" stroke-linejoin="miter" fill="none" stroke="#000000" d="M35.7155 155.90744V0H23.81033V155.90744ZM23.81033 0"/>
<path transform="matrix(1.00005,0,0,-1.00005,143.67078,199.87354)" d="M33.28564 155.90744C33.28564 157.853 31.7085 159.43016 29.76292 159.43016 27.81737 159.43016 26.2402 157.853 26.2402 155.90744 26.2402 153.96187 27.81737 152.38472 29.76292 152.38472 31.7085 152.38472 33.28564 153.96187 33.28564 155.90744ZM29.76292 155.90744" fill="#0000ff"/>
<path transform="matrix(1.00005,0,0,-1.00005,143.67078,199.87354)" stroke-width=".3985" stroke-linecap="butt" stroke-miterlimit="10" stroke-linejoin="miter" fill="none" stroke="#000000" d="M33.28564 155.90744C33.28564 157.853 31.7085 159.43016 29.76292 159.43016 27.81737 159.43016 26.2402 157.853 26.2402 155.90744 26.2402 153.96187 27.81737 152.38472 29.76292 152.38472 31.7085 152.38472 33.28564 153.96187 33.28564 155.90744ZM29.76292 155.90744"/>
<g>
<path transform="matrix(1.00005,0,0,-1.00005,143.67078,199.87354)" d="M65.47845 14.17337V0H53.57327V14.17337ZM53.57327 0" fill="#0000ff" fill-opacity=".3"/>
<path transform="matrix(1.00005,0,0,-1.00005,143.67078,199.87354)" stroke-width=".3985" stroke-linecap="butt" stroke-miterlimit="10" stroke-linejoin="miter" fill="none" stroke="#000000" stroke-opacity=".3" d="M65.47845 14.17337V0H53.57327V14.17337ZM53.57327 0"/>
</g>
<path transform="matrix(1.00005,0,0,-1.00005,143.67078,199.87354)" stroke-width=".79701" stroke-linecap="butt" stroke-miterlimit="10" stroke-linejoin="miter" fill="none" stroke="#000000" d="M65.47845 14.17337V0H53.57327V14.17337ZM53.57327 0"/>
<path transform="matrix(1.00005,0,0,-1.00005,143.67078,199.87354)" d="M63.04858 14.17337C63.04858 16.11894 61.47142 17.6961 59.52586 17.6961 57.58029 17.6961 56.00314 16.11894 56.00314 14.17337 56.00314 12.22781 57.58029 10.65065 59.52586 10.65065 61.47142 10.65065 63.04858 12.22781 63.04858 14.17337ZM59.52586 14.17337" fill="#0000ff"/>
<path transform="matrix(1.00005,0,0,-1.00005,143.67078,199.87354)" stroke-width=".3985" stroke-linecap="butt" stroke-miterlimit="10" stroke-linejoin="miter" fill="none" stroke="#000000" d="M63.04858 14.17337C63.04858 16.11894 61.47142 17.6961 59.52586 17.6961 57.58029 17.6961 56.00314 16.11894 56.00314 14.17337 56.00314 12.22781 57.58029 10.65065 59.52586 10.65065 61.47142 10.65065 63.04858 12.22781 63.04858 14.17337ZM59.52586 14.17337"/>
<g>
<path transform="matrix(1.00005,0,0,-1.00005,143.67078,199.87354)" d="M95.2414-127.56061V0H83.33621V-127.56061ZM83.33621 0" fill="#0000ff" fill-opacity=".3"/>
<path transform="matrix(1.00005,0,0,-1.00005,143.67078,199.87354)" stroke-width=".3985" stroke-linecap="butt" stroke-miterlimit="10" stroke-linejoin="miter" fill="none" stroke="#000000" stroke-opacity=".3" d="M95.2414-127.56061V0H83.33621V-127.56061ZM83.33621 0"/>
</g>
<path transform="matrix(1.00005,0,0,-1.00005,143.67078,199.87354)" stroke-width=".79701" stroke-linecap="butt" stroke-miterlimit="10" stroke-linejoin="miter" fill="none" stroke="#000000" d="M95.2414-127.56061V0H83.33621V-127.56061ZM83.33621 0"/>
<path transform="matrix(1.00005,0,0,-1.00005,143.67078,199.87354)" d="M92.81152-127.56061C92.81152-125.61505 91.23436-124.03789 89.2888-124.03789 87.34323-124.03789 85.76607-125.61505 85.76607-127.56061 85.76607-129.50618 87.34323-131.08335 89.2888-131.08335 91.23436-131.08335 92.81152-129.50618 92.81152-127.56061ZM89.2888-127.56061" fill="#0000ff"/>
<path transform="matrix(1.00005,0,0,-1.00005,143.67078,199.87354)" stroke-width=".3985" stroke-linecap="butt" stroke-miterlimit="10" stroke-linejoin="miter" fill="none" stroke="#000000" d="M92.81152-127.56061C92.81152-125.61505 91.23436-124.03789 89.2888-124.03789 87.34323-124.03789 85.76607-125.61505 85.76607-127.56061 85.76607-129.50618 87.34323-131.08335 89.2888-131.08335 91.23436-131.08335 92.81152-129.50618 92.81152-127.56061ZM89.2888-127.56061"/>
<use data-text="G" xlink:href="#font_1_58" transform="matrix(9.963098,0,0,-9.963098,270.6681,415.84233)"/>
<use data-text="r" xlink:href="#font_1_96" transform="matrix(9.963098,0,0,-9.963098,278.48915,415.84233)"/>
<use data-text="a" xlink:href="#font_1_28" transform="matrix(9.963098,0,0,-9.963098,282.39466,415.84233)"/>
<use data-text="p" xlink:href="#font_1_84" transform="matrix(9.963098,0,0,-9.963098,287.37623,415.84233)"/>
<use data-text="h" xlink:href="#font_1_63" transform="matrix(9.963098,0,0,-9.963098,292.9157,415.84233)"/>
<use data-text="3" xlink:href="#font_1_106" transform="matrix(9.963098,0,0,-9.963098,301.76295,415.84233)"/>
<use data-text=":" xlink:href="#font_1_44" transform="matrix(9.963098,0,0,-9.963098,306.7445,415.84233)"/>
<use data-text="R" xlink:href="#font_1_95" transform="matrix(9.963098,0,0,-9.963098,313.93788,415.84233)"/>
<use data-text="a" xlink:href="#font_1_28" transform="matrix(9.963098,0,0,-9.963098,321.2707,415.84233)"/>
<use data-text="t" xlink:href="#font_1_105" transform="matrix(9.963098,0,0,-9.963098,326.25227,415.84233)"/>
<use data-text="e" xlink:href="#font_1_50" transform="matrix(9.963098,0,0,-9.963098,330.12788,415.84233)"/>
<use data-text="&#x2206;" xlink:href="#font_5_1" transform="matrix(9.963098,0,0,-9.963098,342.6187,409.102)"/>
<use data-text="y" xlink:href="#font_2_2" transform="matrix(9.963098,0,0,-9.963098,350.92109,409.102)"/>
<path transform="matrix(1.00005,0,0,-1.00005,-150.81694,224.94779)" stroke-width=".3985" stroke-linecap="butt" stroke-miterlimit="10" stroke-linejoin="miter" fill="none" stroke="#000000" d="M493.185-188.394H507.181"/>
<use data-text="&#x2206;" xlink:href="#font_5_1" transform="matrix(9.963098,0,0,-9.963098,342.3927,422.67665)"/>
<use data-text="x" xlink:href="#font_2_1" transform="matrix(9.963098,0,0,-9.963098,350.69514,422.67665)"/>
<path transform="matrix(1.00005,0,0,-1.00005,269.48106,199.87354)" stroke-width=".79701" stroke-linecap="butt" stroke-miterlimit="10" stroke-linejoin="miter" fill="none" stroke="#000000" d="M0-170.08086H95.2414"/>
<path transform="matrix(1.00005,0,0,-1.00005,269.48106,199.87354)" stroke-width=".79701" stroke-linecap="butt" stroke-miterlimit="10" stroke-linejoin="miter" fill="none" stroke="#000000" d="M0-113.38724H95.2414"/>
<path transform="matrix(1.00005,0,0,-1.00005,269.48106,199.87354)" stroke-width=".79701" stroke-linecap="butt" stroke-miterlimit="10" stroke-linejoin="miter" fill="none" stroke="#000000" d="M0-56.69362H95.2414"/>
<path transform="matrix(1.00005,0,0,-1.00005,269.48106,199.87354)" stroke-width=".79701" stroke-linecap="butt" stroke-miterlimit="10" stroke-linejoin="miter" fill="none" stroke="#000000" d="M0 0H95.2414"/>
<path transform="matrix(1.00005,0,0,-1.00005,269.48106,199.87354)" stroke-width=".79701" stroke-linecap="butt" stroke-miterlimit="10" stroke-linejoin="miter" fill="none" stroke="#000000" d="M0 56.69362H95.2414"/>
<path transform="matrix(1.00005,0,0,-1.00005,269.48106,199.87354)" stroke-width=".79701" stroke-linecap="butt" stroke-miterlimit="10" stroke-linejoin="miter" fill="none" stroke="#000000" d="M0 113.38724H95.2414"/>
<path transform="matrix(1.00005,0,0,-1.00005,269.48106,199.87354)" stroke-width=".79701" stroke-linecap="butt" stroke-miterlimit="10" stroke-linejoin="miter" fill="none" stroke="#000000" d="M0 170.08086H95.2414"/>
<path transform="matrix(1.00005,0,0,-1.00005,269.48106,199.87354)" stroke-width=".19925" stroke-linecap="butt" stroke-miterlimit="10" stroke-linejoin="miter" fill="none" stroke="#000000" d="M0-170.08086H95.2414"/>
<path transform="matrix(1.00005,0,0,-1.00005,269.48106,199.87354)" stroke-width=".19925" stroke-linecap="butt" stroke-miterlimit="10" stroke-linejoin="miter" fill="none" stroke="#000000" d="M0-158.74228H95.2414"/>
<path transform="matrix(1.00005,0,0,-1.00005,269.48106,199.87354)" stroke-width=".19925" stroke-linecap="butt" stroke-miterlimit="10" stroke-linejoin="miter" fill="none" stroke="#000000" d="M0-147.40373H95.2414"/>
<path transform="matrix(1.00005,0,0,-1.00005,269.48106,199.87354)" stroke-width=".19925" stroke-linecap="butt" stroke-miterlimit="10" stroke-linejoin="miter" fill="none" stroke="#000000" d="M0-136.06519H95.2414"/>
<path transform="matrix(1.00005,0,0,-1.00005,269.48106,199.87354)" stroke-width=".19925" stroke-linecap="butt" stroke-miterlimit="10" stroke-linejoin="miter" fill="none" stroke="#000000" d="M0-124.72662H95.2414"/>
<path transform="matrix(1.00005,0,0,-1.00005,269.48106,199.87354)" stroke-width=".19925" stroke-linecap="butt" stroke-miterlimit="10" stroke-linejoin="miter" fill="none" stroke="#000000" d="M0-113.38808H95.2414"/>
<path transform="matrix(1.00005,0,0,-1.00005,269.48106,199.87354)" stroke-width=".19925" stroke-linecap="butt" stroke-miterlimit="10" stroke-linejoin="miter" fill="none" stroke="#000000" d="M0-102.04953H95.2414"/>
<path transform="matrix(1.00005,0,0,-1.00005,269.48106,199.87354)" stroke-width=".19925" stroke-linecap="butt" stroke-miterlimit="10" stroke-linejoin="miter" fill="none" stroke="#000000" d="M0-90.71098H95.2414"/>
<path transform="matrix(1.00005,0,0,-1.00005,269.48106,199.87354)" stroke-width=".19925" stroke-linecap="butt" stroke-miterlimit="10" stroke-linejoin="miter" fill="none" stroke="#000000" d="M0-79.37244H95.2414"/>
<path transform="matrix(1.00005,0,0,-1.00005,269.48106,199.87354)" stroke-width=".19925" stroke-linecap="butt" stroke-miterlimit="10" stroke-linejoin="miter" fill="none" stroke="#000000" d="M0-68.03389H95.2414"/>
<path transform="matrix(1.00005,0,0,-1.00005,269.48106,199.87354)" stroke-width=".19925" stroke-linecap="butt" stroke-miterlimit="10" stroke-linejoin="miter" fill="none" stroke="#000000" d="M0-56.69531H95.2414"/>
<path transform="matrix(1.00005,0,0,-1.00005,269.48106,199.87354)" stroke-width=".19925" stroke-linecap="butt" stroke-miterlimit="10" stroke-linejoin="miter" fill="none" stroke="#000000" d="M0-45.35677H95.2414"/>
<path transform="matrix(1.00005,0,0,-1.00005,269.48106,199.87354)" stroke-width=".19925" stroke-linecap="butt" stroke-miterlimit="10" stroke-linejoin="miter" fill="none" stroke="#000000" d="M0-34.01822H95.2414"/>
<path transform="matrix(1.00005,0,0,-1.00005,269.48106,199.87354)" stroke-width=".19925" stroke-linecap="butt" stroke-miterlimit="10" stroke-linejoin="miter" fill="none" stroke="#000000" d="M0-22.67967H95.2414"/>
<path transform="matrix(1.00005,0,0,-1.00005,269.48106,199.87354)" stroke-width=".19925" stroke-linecap="butt" stroke-miterlimit="10" stroke-linejoin="miter" fill="none" stroke="#000000" d="M0-11.34113H95.2414"/>
<path transform="matrix(1.00005,0,0,-1.00005,269.48106,199.87354)" stroke-width=".19925" stroke-linecap="butt" stroke-miterlimit="10" stroke-linejoin="miter" fill="none" stroke="#000000" d="M0-.00258H95.2414"/>
<path transform="matrix(1.00005,0,0,-1.00005,269.48106,199.87354)" stroke-width=".19925" stroke-linecap="butt" stroke-miterlimit="10" stroke-linejoin="miter" fill="none" stroke="#000000" d="M0 11.33592H95.2414"/>
<path transform="matrix(1.00005,0,0,-1.00005,269.48106,199.87354)" stroke-width=".19925" stroke-linecap="butt" stroke-miterlimit="10" stroke-linejoin="miter" fill="none" stroke="#000000" d="M0 22.67447H95.2414"/>
<path transform="matrix(1.00005,0,0,-1.00005,269.48106,199.87354)" stroke-width=".19925" stroke-linecap="butt" stroke-miterlimit="10" stroke-linejoin="miter" fill="none" stroke="#000000" d="M0 34.01302H95.2414"/>
<path transform="matrix(1.00005,0,0,-1.00005,269.48106,199.87354)" stroke-width=".19925" stroke-linecap="butt" stroke-miterlimit="10" stroke-linejoin="miter" fill="none" stroke="#000000" d="M0 45.3516H95.2414"/>
<path transform="matrix(1.00005,0,0,-1.00005,269.48106,199.87354)" stroke-width=".19925" stroke-linecap="butt" stroke-miterlimit="10" stroke-linejoin="miter" fill="none" stroke="#000000" d="M0 56.69014H95.2414"/>
<path transform="matrix(1.00005,0,0,-1.00005,269.48106,199.87354)" stroke-width=".19925" stroke-linecap="butt" stroke-miterlimit="10" stroke-linejoin="miter" fill="none" stroke="#000000" d="M0 68.02869H95.2414"/>
<path transform="matrix(1.00005,0,0,-1.00005,269.48106,199.87354)" stroke-width=".19925" stroke-linecap="butt" stroke-miterlimit="10" stroke-linejoin="miter" fill="none" stroke="#000000" d="M0 79.36725H95.2414"/>
<path transform="matrix(1.00005,0,0,-1.00005,269.48106,199.87354)" stroke-width=".19925" stroke-linecap="butt" stroke-miterlimit="10" stroke-linejoin="miter" fill="none" stroke="#000000" d="M0 90.7058H95.2414"/>
<path transform="matrix(1.00005,0,0,-1.00005,269.48106,199.87354)" stroke-width=".19925" stroke-linecap="butt" stroke-miterlimit="10" stroke-linejoin="miter" fill="none" stroke="#000000" d="M0 102.04434H95.2414"/>
<path transform="matrix(1.00005,0,0,-1.00005,269.48106,199.87354)" stroke-width=".19925" stroke-linecap="butt" stroke-miterlimit="10" stroke-linejoin="miter" fill="none" stroke="#000000" d="M0 113.38289H95.2414"/>
<path transform="matrix(1.00005,0,0,-1.00005,269.48106,199.87354)" stroke-width=".19925" stroke-linecap="butt" stroke-miterlimit="10" stroke-linejoin="miter" fill="none" stroke="#000000" d="M0 124.72144H95.2414"/>
<path transform="matrix(1.00005,0,0,-1.00005,269.48106,199.87354)" stroke-width=".19925" stroke-linecap="butt" stroke-miterlimit="10" stroke-linejoin="miter" fill="none" stroke="#000000" d="M0 136.05998H95.2414"/>
<path transform="matrix(1.00005,0,0,-1.00005,269.48106,199.87354)" stroke-width=".19925" stroke-linecap="butt" stroke-miterlimit="10" stroke-linejoin="miter" fill="none" stroke="#000000" d="M0 147.39856H95.2414"/>
<path transform="matrix(1.00005,0,0,-1.00005,269.48106,199.87354)" stroke-width=".19925" stroke-linecap="butt" stroke-miterlimit="10" stroke-linejoin="miter" fill="none" stroke="#000000" d="M0 158.7371H95.2414"/>
<path transform="matrix(1.00005,0,0,-1.00005,269.48106,199.87354)" stroke-width=".19925" stroke-linecap="butt" stroke-miterlimit="10" stroke-linejoin="miter" fill="none" stroke="#000000" d="M0 170.07566H95.2414"/>
<path transform="matrix(1.00005,0,0,-1.00005,269.48106,199.87354)" stroke-width=".3985" stroke-linecap="butt" stroke-miterlimit="10" stroke-linejoin="miter" fill="none" stroke="#000000" d="M0 0H91.65485"/>
<path transform="matrix(1.00005,0,0,-1.00005,361.14048,199.87354)" d="M3.58653 0C2.52383 .19925 .797 .797-.3985 1.49438V-1.49438C.797-.797 2.52383-.19925 3.58653 0"/>
<path transform="matrix(1.00005,0,0,-1.00005,269.48106,199.87354)" stroke-width=".3985" stroke-linecap="butt" stroke-miterlimit="10" stroke-linejoin="miter" fill="none" stroke="#000000" d="M0-166.49431V166.49431"/>
<path transform="matrix(0,1.00005,1.00005,0,269.48106,366.37617)" d="M3.58653 0C2.52383 .19925 .797 .797-.3985 1.49438V-1.49438C.797-.797 2.52383-.19925 3.58653 0"/>
<path transform="matrix(0,-1.00005,-1.00005,-0,269.48106,33.37091)" d="M3.58653 0C2.52383 .19925 .797 .797-.3985 1.49438V-1.49438C.797-.797 2.52383-.19925 3.58653 0"/>
<path transform="matrix(1.00005,0,0,-1.00005,269.48106,199.87354)" d="M-5.62444-188.67729H5.6244499V-176.25777H-5.62444Z" fill="#ffffff"/>
<use data-text="0" xlink:href="#font_3_1" transform="matrix(8.966848,0,0,-8.966848,267.17695,385.2398)"/>
<path transform="matrix(1.00005,0,0,-1.00005,269.48106,199.87354)" d="M24.13849-188.67729H35.387384V-176.25777H24.13849Z" fill="#ffffff"/>
<use data-text="5" xlink:href="#font_3_6" transform="matrix(8.966848,0,0,-8.966848,296.9414,385.2398)"/>
<path transform="matrix(1.00005,0,0,-1.00005,269.48106,199.87354)" d="M51.59755-188.67729H67.45418V-176.25777H51.59755Z" fill="#ffffff"/>
<use data-text="1" xlink:href="#font_3_2" transform="matrix(8.966848,0,0,-8.966848,324.4018,385.2398)"/>
<use data-text="0" xlink:href="#font_3_1" transform="matrix(8.966848,0,0,-8.966848,329.00178,385.2398)"/>
<path transform="matrix(1.00005,0,0,-1.00005,269.48106,199.87354)" d="M81.36047-188.67729H97.2171V-176.25777H81.36047Z" fill="#ffffff"/>
<use data-text="1" xlink:href="#font_3_2" transform="matrix(8.966848,0,0,-8.966848,354.16627,385.2398)"/>
<use data-text="5" xlink:href="#font_3_6" transform="matrix(8.966848,0,0,-8.966848,358.76625,385.2398)"/>
<path transform="matrix(1.00005,0,0,-1.00005,269.48106,199.87354)" d="M-20.60829-176.70572H-2.1917992V-163.456H-20.60829Z" fill="#ffffff"/>
<use data-text="&#x2212;" xlink:href="#font_4_1" transform="matrix(8.966848,0,0,-8.966848,252.19219,372.43714)"/>
<use data-text="3" xlink:href="#font_3_4" transform="matrix(8.966848,0,0,-8.966848,259.35957,372.43714)"/>
<path transform="matrix(1.00005,0,0,-1.00005,269.48106,199.87354)" d="M-20.60829-120.0121H-2.1917992V-106.76237H-20.60829Z" fill="#ffffff"/>
<use data-text="&#x2212;" xlink:href="#font_4_1" transform="matrix(8.966848,0,0,-8.966848,252.19219,315.74034)"/>
<use data-text="2" xlink:href="#font_3_3" transform="matrix(8.966848,0,0,-8.966848,259.35957,315.74034)"/>
<path transform="matrix(1.00005,0,0,-1.00005,269.48106,199.87354)" d="M-20.60829-63.31848H-2.1917992V-50.068754H-20.60829Z" fill="#ffffff"/>
<use data-text="&#x2212;" xlink:href="#font_4_1" transform="matrix(8.966848,0,0,-8.966848,252.19219,259.0445)"/>
<use data-text="1" xlink:href="#font_3_2" transform="matrix(8.966848,0,0,-8.966848,259.35957,259.0445)"/>
<path transform="matrix(1.00005,0,0,-1.00005,269.48106,199.87354)" d="M-13.44069-6.20976H-2.1918V6.2097699H-13.44069Z" fill="#ffffff"/>
<use data-text="0" xlink:href="#font_3_1" transform="matrix(8.966848,0,0,-8.966848,259.36054,202.76268)"/>
<path transform="matrix(1.00005,0,0,-1.00005,269.48106,199.87354)" d="M-13.44069 50.48384H-2.1918V62.90337H-13.44069Z" fill="#ffffff"/>
<use data-text="1" xlink:href="#font_3_2" transform="matrix(8.966848,0,0,-8.966848,259.36054,146.06685)"/>
<path transform="matrix(1.00005,0,0,-1.00005,269.48106,199.87354)" d="M-13.44069 107.17746H-2.1918V119.59699H-13.44069Z" fill="#ffffff"/>
<use data-text="2" xlink:href="#font_3_3" transform="matrix(8.966848,0,0,-8.966848,259.36054,89.37002)"/>
<path transform="matrix(1.00005,0,0,-1.00005,269.48106,199.87354)" d="M-13.44069 163.8711H-2.1918V176.29062H-13.44069Z" fill="#ffffff"/>
<use data-text="3" xlink:href="#font_3_4" transform="matrix(8.966848,0,0,-8.966848,259.36054,32.673189)"/>
<use data-text="0" xlink:href="#font_6_121" transform="matrix(6.9741489,0,0,-6.9741489,255.77136,190.78008)"/>
<use data-text="." xlink:href="#font_6_88" transform="matrix(6.9741489,0,0,-6.9741489,259.73963,190.78008)"/>
<use data-text="2" xlink:href="#font_6_107" transform="matrix(6.9741489,0,0,-6.9741489,261.99229,190.78008)"/>
<use data-text="0" xlink:href="#font_6_121" transform="matrix(6.9741489,0,0,-6.9741489,255.77136,179.47553)"/>
<use data-text="." xlink:href="#font_6_88" transform="matrix(6.9741489,0,0,-6.9741489,259.73963,179.47553)"/>
<use data-text="4" xlink:href="#font_6_57" transform="matrix(6.9741489,0,0,-6.9741489,261.99229,179.47553)"/>
<use data-text="0" xlink:href="#font_6_121" transform="matrix(6.9741489,0,0,-6.9741489,255.77136,168.10095)"/>
<use data-text="." xlink:href="#font_6_88" transform="matrix(6.9741489,0,0,-6.9741489,259.73963,168.10095)"/>
<use data-text="6" xlink:href="#font_6_101" transform="matrix(6.9741489,0,0,-6.9741489,261.99229,168.10095)"/>
<use data-text="0" xlink:href="#font_6_121" transform="matrix(6.9741489,0,0,-6.9741489,255.77136,156.76239)"/>
<use data-text="." xlink:href="#font_6_88" transform="matrix(6.9741489,0,0,-6.9741489,259.73963,156.76239)"/>
<use data-text="8" xlink:href="#font_6_51" transform="matrix(6.9741489,0,0,-6.9741489,261.99229,156.76239)"/>
<use data-text="-" xlink:href="#font_6_64" transform="matrix(6.9741489,0,0,-6.9741489,253.08623,213.45822)"/>
<use data-text="0" xlink:href="#font_6_121" transform="matrix(6.9741489,0,0,-6.9741489,255.77126,213.45822)"/>
<use data-text="." xlink:href="#font_6_88" transform="matrix(6.9741489,0,0,-6.9741489,259.73957,213.45822)"/>
<use data-text="2" xlink:href="#font_6_107" transform="matrix(6.9741489,0,0,-6.9741489,261.9922,213.45822)"/>
<use data-text="-" xlink:href="#font_6_64" transform="matrix(6.9741489,0,0,-6.9741489,253.08623,224.83278)"/>
<use data-text="0" xlink:href="#font_6_121" transform="matrix(6.9741489,0,0,-6.9741489,255.77126,224.83278)"/>
<use data-text="." xlink:href="#font_6_88" transform="matrix(6.9741489,0,0,-6.9741489,259.73957,224.83278)"/>
<use data-text="4" xlink:href="#font_6_57" transform="matrix(6.9741489,0,0,-6.9741489,261.9922,224.83278)"/>
<use data-text="-" xlink:href="#font_6_64" transform="matrix(6.9741489,0,0,-6.9741489,253.08623,236.13735)"/>
<use data-text="0" xlink:href="#font_6_121" transform="matrix(6.9741489,0,0,-6.9741489,255.77126,236.13735)"/>
<use data-text="." xlink:href="#font_6_88" transform="matrix(6.9741489,0,0,-6.9741489,259.73957,236.13735)"/>
<use data-text="6" xlink:href="#font_6_101" transform="matrix(6.9741489,0,0,-6.9741489,261.9922,236.13735)"/>
<use data-text="-" xlink:href="#font_6_64" transform="matrix(6.9741489,0,0,-6.9741489,253.08623,247.47692)"/>
<use data-text="0" xlink:href="#font_6_121" transform="matrix(6.9741489,0,0,-6.9741489,255.77126,247.47692)"/>
<use data-text="." xlink:href="#font_6_88" transform="matrix(6.9741489,0,0,-6.9741489,259.73957,247.47692)"/>
<use data-text="8" xlink:href="#font_6_51" transform="matrix(6.9741489,0,0,-6.9741489,261.9922,247.47692)"/>
<path transform="matrix(1.00005,0,0,-1.00005,269.48106,199.87354)" stroke-width=".09962" stroke-linecap="butt" stroke-miterlimit="10" stroke-linejoin="miter" fill="none" stroke="#000000" d="M0-184.25423V184.25423"/>
<path transform="matrix(1.00005,0,0,-1.00005,269.48106,199.87354)" stroke-width=".09962" stroke-linecap="butt" stroke-miterlimit="10" stroke-linejoin="miter" fill="none" stroke="#000000" d="M29.76292-184.25423V184.25423"/>
<path transform="matrix(1.00005,0,0,-1.00005,269.48106,199.87354)" stroke-width=".09962" stroke-linecap="butt" stroke-miterlimit="10" stroke-linejoin="miter" fill="none" stroke="#000000" d="M59.52586-184.25423V184.25423"/>
<path transform="matrix(1.00005,0,0,-1.00005,269.48106,199.87354)" stroke-width=".09962" stroke-linecap="butt" stroke-miterlimit="10" stroke-linejoin="miter" fill="none" stroke="#000000" d="M89.2888-184.25423V184.25423"/>
<g>
<path transform="matrix(1.00005,0,0,-1.00005,269.48106,199.87354)" d="M35.7155 31.18166V0H23.81033V31.18166ZM23.81033 0" fill="#0000ff" fill-opacity=".3"/>
<path transform="matrix(1.00005,0,0,-1.00005,269.48106,199.87354)" stroke-width=".3985" stroke-linecap="butt" stroke-miterlimit="10" stroke-linejoin="miter" fill="none" stroke="#000000" stroke-opacity=".3" d="M35.7155 31.18166V0H23.81033V31.18166ZM23.81033 0"/>
</g>
<path transform="matrix(1.00005,0,0,-1.00005,269.48106,199.87354)" stroke-width=".79701" stroke-linecap="butt" stroke-miterlimit="10" stroke-linejoin="miter" fill="none" stroke="#000000" d="M35.7155 31.18166V0H23.81033V31.18166ZM23.81033 0"/>
<path transform="matrix(1.00005,0,0,-1.00005,269.48106,199.87354)" d="M33.28564 31.18166C33.28564 33.12721 31.7085 34.70438 29.76292 34.70438 27.81737 34.70438 26.2402 33.12721 26.2402 31.18166 26.2402 29.23608 27.81737 27.65892 29.76292 27.65892 31.7085 27.65892 33.28564 29.23608 33.28564 31.18166ZM29.76292 31.18166" fill="#0000ff"/>
<path transform="matrix(1.00005,0,0,-1.00005,269.48106,199.87354)" stroke-width=".3985" stroke-linecap="butt" stroke-miterlimit="10" stroke-linejoin="miter" fill="none" stroke="#000000" d="M33.28564 31.18166C33.28564 33.12721 31.7085 34.70438 29.76292 34.70438 27.81737 34.70438 26.2402 33.12721 26.2402 31.18166 26.2402 29.23608 27.81737 27.65892 29.76292 27.65892 31.7085 27.65892 33.28564 29.23608 33.28564 31.18166ZM29.76292 31.18166"/>
<g>
<path transform="matrix(1.00005,0,0,-1.00005,269.48106,199.87354)" d="M65.47845 2.83482V0H53.57327V2.83482ZM53.57327 0" fill="#0000ff" fill-opacity=".3"/>
<path transform="matrix(1.00005,0,0,-1.00005,269.48106,199.87354)" stroke-width=".3985" stroke-linecap="butt" stroke-miterlimit="10" stroke-linejoin="miter" fill="none" stroke="#000000" stroke-opacity=".3" d="M65.47845 2.83482V0H53.57327V2.83482ZM53.57327 0"/>
</g>
<path transform="matrix(1.00005,0,0,-1.00005,269.48106,199.87354)" stroke-width=".79701" stroke-linecap="butt" stroke-miterlimit="10" stroke-linejoin="miter" fill="none" stroke="#000000" d="M65.47845 2.83482V0H53.57327V2.83482ZM53.57327 0"/>
<path transform="matrix(1.00005,0,0,-1.00005,269.48106,199.87354)" d="M63.04858 2.83482C63.04858 4.7804 61.47142 6.35754 59.52586 6.35754 57.58029 6.35754 56.00314 4.7804 56.00314 2.83482 56.00314 .88927 57.58029-.68788 59.52586-.68788 61.47142-.68788 63.04858 .88927 63.04858 2.83482ZM59.52586 2.83482" fill="#0000ff"/>
<path transform="matrix(1.00005,0,0,-1.00005,269.48106,199.87354)" stroke-width=".3985" stroke-linecap="butt" stroke-miterlimit="10" stroke-linejoin="miter" fill="none" stroke="#000000" d="M63.04858 2.83482C63.04858 4.7804 61.47142 6.35754 59.52586 6.35754 57.58029 6.35754 56.00314 4.7804 56.00314 2.83482 56.00314 .88927 57.58029-.68788 59.52586-.68788 61.47142-.68788 63.04858 .88927 63.04858 2.83482ZM59.52586 2.83482"/>
<g>
<path transform="matrix(1.00005,0,0,-1.00005,269.48106,199.87354)" d="M95.2414-25.51192V0H83.33621V-25.51192ZM83.33621 0" fill="#0000ff" fill-opacity=".3"/>
<path transform="matrix(1.00005,0,0,-1.00005,269.48106,199.87354)" stroke-width=".3985" stroke-linecap="butt" stroke-miterlimit="10" stroke-linejoin="miter" fill="none" stroke="#000000" stroke-opacity=".3" d="M95.2414-25.51192V0H83.33621V-25.51192ZM83.33621 0"/>
</g>
<path transform="matrix(1.00005,0,0,-1.00005,269.48106,199.87354)" stroke-width=".79701" stroke-linecap="butt" stroke-miterlimit="10" stroke-linejoin="miter" fill="none" stroke="#000000" d="M95.2414-25.51192V0H83.33621V-25.51192ZM83.33621 0"/>
<path transform="matrix(1.00005,0,0,-1.00005,269.48106,199.87354)" d="M92.81152-25.51192C92.81152-23.56636 91.23436-21.9892 89.2888-21.9892 87.34323-21.9892 85.76607-23.56636 85.76607-25.51192 85.76607-27.45749 87.34323-29.03465 89.2888-29.03465 91.23436-29.03465 92.81152-27.45749 92.81152-25.51192ZM89.2888-25.51192" fill="#0000ff"/>
<path transform="matrix(1.00005,0,0,-1.00005,269.48106,199.87354)" stroke-width=".3985" stroke-linecap="butt" stroke-miterlimit="10" stroke-linejoin="miter" fill="none" stroke="#000000" d="M92.81152-25.51192C92.81152-23.56636 91.23436-21.9892 89.2888-21.9892 87.34323-21.9892 85.76607-23.56636 85.76607-25.51192 85.76607-27.45749 87.34323-29.03465 89.2888-29.03465 91.23436-29.03465 92.81152-27.45749 92.81152-25.51192ZM89.2888-25.51192"/>
</svg>
