<svg xmlns="http://www.w3.org/2000/svg" xmlns:xlink="http://www.w3.org/1999/xlink" xmlns:inkscape="http://www.inkscape.org/namespaces/inkscape" version="1.1" width="273" height="145" viewBox="0 0 273 145">
<defs>
<path id="font_1_1" d="M.37298585 .37835694C.35499574 .41537477 .32598878 .4423828 .2809906 .4423828 .1639862 .4423828 .039993287 .29533387 .039993287 .14929199 .039993287 .055267335 .09498596-.0107421879 .17298889-.0107421879 .19299317-.0107421879 .24299622-.0067443849 .30299378 .06427002 .31098939 .022247315 .34599305-.0107421879 .3939972-.0107421879 .42900086-.0107421879 .45199586 .012252808 .46798707 .044265748 .4850006 .08027649 .49798585 .14129639 .49798585 .14329529 .49798585 .1532898 .4889984 .1532898 .48599244 .1532898 .47599793 .1532898 .47499085 .14929199 .47200013 .13528443 .45498658 .07026672 .43699647 .011245728 .3959961 .011245728 .36898805 .011245728 .3659973 .037261964 .3659973 .057266237 .3659973 .07926941 .36799623 .08728027 .3789978 .13128662 .3899994 .17329407 .3919983 .18330384 .40098573 .22131348L.43699647 .36135865C.44400025 .38935853 .44400025 .39135743 .44400025 .39537049 .44400025 .41236878 .43199159 .42237855 .4149933 .42237855 .3909912 .42237855 .37599183 .4003601 .37298585 .37835694M.30799867 .119277957C.30299378 .10127258 .30299378 .09927368 .28799439 .08227539 .24398804 .027252198 .20298767 .011245728 .1749878 .011245728 .125 .011245728 .11099243 .06626892 .11099243 .105285648 .11099243 .1552887 .14299011 .27833558 .1659851 .32434083 .19699097 .38336183 .24198914 .42037965 .28199769 .42037965 .34700013 .42037965 .36099244 .3383484 .36099244 .33235169 .36099244 .32633973 .35899354 .32034303 .35798646 .31533814L.30799867 .119277957Z"/>
<path id="font_1_2" d="M.23899842 .68333438C.23899842 .6843262 .23899842 .69433596 .22599793 .69433596 .20298767 .69433596 .12998963 .6863251 .10398865 .6843262 .09599304 .68333438 .084991458 .6823273 .084991458 .6643219 .084991458 .6523285 .09399414 .6523285 .10899353 .6523285 .15699768 .6523285 .15899658 .6453247 .15899658 .6353302 .15899658 .6283264 .1499939 .5943451 .14498902 .573349L.06298828 .24731446C.050994874 .1973114 .04699707 .18130493 .04699707 .14628601 .04699707 .05126953 .099990848-.0107421879 .17399597-.0107421879 .2919922-.0107421879 .4149933 .1382904 .4149933 .28233338 .4149933 .37335206 .3619995 .4423828 .28199769 .4423828 .23599243 .4423828 .19499207 .41337586 .16499329 .38235475L.23899842 .68333438M.14498902 .30534364C.15098572 .3273468 .15098572 .3293457 .1599884 .3403473 .20899964 .405365 .2539978 .42037965 .27999879 .42037965 .31599427 .42037965 .34298707 .3903656 .34298707 .32633973 .34298707 .26733399 .30999757 .15229798 .2919922 .11428833 .25898744 .04725647 .21299744 .011245728 .17399597 .011245728 .13999939 .011245728 .10699463 .038253786 .10699463 .11227417 .10699463 .13128662 .10699463 .15029907 .12298584 .21331787L.14498902 .30534364Z"/>
<path id="font_1_5" d="M.48599244 .38136292C.48999024 .39537049 .48999024 .39736939 .48999024 .40437318 .48999024 .42237855 .47599793 .43138124 .46099855 .43138124 .45098878 .43138124 .43499757 .42536927 .42599488 .41036988 .42399598 .405365 .41600038 .37435914 .4119873 .35635377 .40499879 .33035279 .397995 .30334474 .3919983 .27633668L.34700013 .09628296C.34298707 .08126831 .2999878 .011245728 .23399353 .011245728 .18299866 .011245728 .17199707 .055267335 .17199707 .0922699 .17199707 .1382904 .18899536 .20030213 .22299195 .28833009 .23899842 .3293457 .24299622 .3403473 .24299622 .36035157 .24299622 .405365 .21099854 .4423828 .16099549 .4423828 .06599426 .4423828 .0289917 .29733277 .0289917 .28833009 .0289917 .27833558 .038986207 .27833558 .040985109 .27833558 .050994874 .27833558 .051986696 .28033448 .056991579 .29634095 .083999637 .3903656 .12399292 .42037965 .1579895 .42037965 .1659851 .42037965 .18299866 .42037965 .18299866 .3883667 .18299866 .36335755 .17298889 .3373413 .1659851 .31834413 .12599182 .21231079 .10798645 .1552887 .10798645 .10827637 .10798645 .019256592 .17098999-.0107421879 .22999573-.0107421879 .2689972-.0107421879 .30299378 .0062561037 .33099366 .03425598 .31799317-.017745972 .30599977-.06674194 .2659912-.11973572 .23999024-.15385437 .20199585-.18309021 .1559906-.18309021 .14199829-.18309021 .09700012-.18005371 .07998657-.14074707 .09599304-.14074707 .10899353-.14074707 .12298584-.1287384 .1329956-.11973572 .14299011-.10673523 .14299011-.08773804 .14299011-.056747438 .115997318-.052734376 .10598755-.052734376 .08299255-.052734376 .049987794-.068740848 .049987794-.11773682 .049987794-.16796875 .09399414-.20507813 .1559906-.20507813 .25898744-.20507813 .3619995-.11373901 .3899994-.00074768069L.48599244 .38136292Z"/>
<path id="font_1_4" d="M.33399964 .30233766C.33999635 .32835389 .36299134 .42037965 .43299867 .42037965 .43798829 .42037965 .46199037 .42037965 .48298646 .40734864 .45498658 .402359 .43499757 .37734986 .43499757 .35334779 .43499757 .33735658 .44599916 .31835938 .47299195 .31835938 .49499513 .31835938 .5269928 .3363495 .5269928 .37635804 .5269928 .42837525 .46798707 .4423828 .43399049 .4423828 .37599183 .4423828 .34098817 .38935853 .32899476 .36634828 .3039856 .43237306 .25 .4423828 .22099304 .4423828 .116989139 .4423828 .05999756 .3133545 .05999756 .28834535 .05999756 .27833558 .069992069 .27833558 .07199097 .27833558 .07998657 .27833558 .08299255 .28033448 .084991458 .28933717 .11898804 .39535523 .18499756 .42037965 .21899414 .42037965 .23799134 .42037965 .272995 .4113617 .272995 .35334779 .272995 .32235719 .2559967 .25532533 .21899414 .11528015 .20298767 .053268434 .16799927 .011245728 .12399292 .011245728 .117996219 .011245728 .09498596 .011245728 .07398987 .024276734 .09899902 .029266358 .12098694 .05027771 .12098694 .07827759 .12098694 .105270389 .09899902 .11328125 .083999637 .11328125 .053985597 .11328125 .0289917 .08728027 .0289917 .055267335 .0289917 .009246826 .07899475-.0107421879 .12298584-.0107421879 .18899536-.0107421879 .22499085 .059280397 .22799683 .0652771 .23999024 .028274537 .27598573-.0107421879 .33599855-.0107421879 .43899537-.0107421879 .49598695 .118270877 .49598695 .14328003 .49598695 .1532898 .4869995 .1532898 .48399354 .1532898 .47499085 .1532898 .47299195 .14929199 .47099305 .14228821 .43798829 .03527832 .36999513 .011245728 .33799745 .011245728 .29899598 .011245728 .2829895 .043273927 .2829895 .07727051 .2829895 .09927368 .2889862 .121276859 .2999878 .16529846L.33399964 .30233766Z"/>
<path id="font_1_3" d="M.36698915 .3996582H.45298768C.47299195 .3996582 .48298646 .3996582 .48298646 .41966249 .48298646 .43066407 .47299195 .43066407 .45599366 .43066407H.37298585L.3939972 .5449524C.397995 .5660095 .4119873 .6370239 .41799928 .6490326 .4269867 .66804507 .44400025 .68307498 .46499635 .68307498 .46899415 .68307498 .49499513 .68307498 .5139923 .66503909 .46998597 .661026 .45999146 .6260376 .45999146 .6110382 .45999146 .58802798 .47799684 .57603457 .49699403 .57603457 .522995 .57603457 .5519867 .5980377 .5519867 .6360321 .5519867 .6820679 .5059967 .7050781 .46499635 .7050781 .43099977 .7050781 .36799623 .68707278 .33799745 .58802798 .33198548 .56700137 .32899476 .5569763 .30499269 .43066407H.23599243C.21699524 .43066407 .20599365 .43066407 .20599365 .4116516 .20599365 .3996582 .21499634 .3996582 .23399353 .3996582H.2999878L.22499085 .0048828127C.20698548-.09207153 .18998719-.18309021 .13798523-.18309021 .13398743-.18309021 .10899353-.18309021 .08999634-.16506958 .13598633-.1620636 .14498902-.12606812 .14498902-.111068729 .14498902-.08807373 .1269989-.07606506 .10798645-.07606506 .08198547-.07606506 .052993776-.09806824 .052993776-.13606262 .052993776-.18109131 .09700012-.20507813 .13798523-.20507813 .19299317-.20507813 .23298645-.14607239 .25099183-.108062747 .2829895-.04508972 .30599977 .07583618 .30699159 .082839969L.36698915 .3996582Z"/>
<path id="font_2_2" d="M.33099366-.2400055C.33099366-.23701477 .33099366-.23500061 .31399537-.21800232 .18899536-.0920105 .15699768 .09700012 .15699768 .25 .15699768 .42399598 .19499207 .59799197 .31799317 .72299197 .33099366 .73498538 .33099366 .7369995 .33099366 .73999026 .33099366 .746994 .32699586 .75 .32099916 .75 .31098939 .75 .22099304 .6819916 .1619873 .5549927 .11099243 .44499208 .09899902 .33399964 .09899902 .25 .09899902 .17199707 .10998535 .050994874 .16499329-.06201172 .22499085-.18501282 .31098939-.25 .32099916-.25 .32699586-.25 .33099366-.24700928 .33099366-.2400055Z"/>
<path id="font_2_3" d="M.2889862 .25C.2889862 .32798768 .27799989 .44898988 .22299195 .56199648 .16299439 .68499758 .07699585 .75 .066986087 .75 .06098938 .75 .056991579 .74598696 .056991579 .73999026 .056991579 .7369995 .056991579 .73498538 .07598877 .71699526 .17399597 .6179962 .23098755 .45899964 .23098755 .25 .23098755 .07899475 .19400025-.09700012 .069992069-.2230072 .056991579-.23500061 .056991579-.23701477 .056991579-.2400055 .056991579-.2460022 .06098938-.25 .066986087-.25 .07699585-.25 .16699219-.18200684 .22599793-.055007936 .2769928 .054992677 .2889862 .16600037 .2889862 .25Z"/>
<path id="font_3_1" d="M.7220001 .4517517C.7220001 .4727478 .71499636 .4817505 .70799258 .4817505 .70399478 .4817505 .69499209 .4777527 .69400027 .4547577 .6899872 .38589479 .6199951 .34506227 .5549927 .34506227 .49699403 .34506227 .44699098 .37594605 .394989 .41081239 .34098817 .44674684 .2869873 .48275758 .22200012 .48275758 .1289978 .48275758 .054992677 .4118042 .054992677 .3200531 .054992677 .29804994 .06298828 .29005433 .068984989 .29005433 .07899475 .29005433 .08299255 .3090515 .08299255 .31304933 .08799744 .39686585 .16999817 .4267578 .22200012 .4267578 .27999879 .4267578 .32998658 .39585877 .38198854 .36099244 .43598939 .32505799 .48999024 .2890625 .5549927 .2890625 .647995 .2890625 .7220001 .3600006 .7220001 .4517517M.7220001 .21798706C.7220001 .24699402 .70999148 .24899292 .70799258 .24899292 .70399478 .24899292 .69499209 .24398804 .69400027 .22198487 .6899872 .1531372 .6199951 .11230469 .5549927 .11230469 .49699403 .11230469 .44699098 .14318848 .394989 .17805481 .34098817 .21398926 .2869873 .25 .22200012 .25 .1289978 .25 .054992677 .17904663 .054992677 .08729553 .054992677 .06529236 .06298828 .057296754 .068984989 .057296754 .07899475 .057296754 .08299255 .076293949 .08299255 .08029175 .08799744 .16410828 .16999817 .19398499 .22200012 .19398499 .27999879 .19398499 .32998658 .1631012 .38198854 .12823487 .43598939 .092300418 .48999024 .056289674 .5549927 .056289674 .6499939 .056289674 .7220001 .13023377 .7220001 .21798706Z"/>
<path id="font_2_1" d="M.44198609 .69781497C.43499757 .7108154 .43299867 .7158203 .41600038 .7158203 .39898683 .7158203 .39698792 .7108154 .3899994 .69781497L.051986696 .019989014C.04699707 .010986328 .04699707 .008987427 .04699707 .0079956059 .04699707 0 .052993776 0 .068984989 0H.7630005C.7789917 0 .7849884 0 .7849884 .0079956059 .7849884 .008987427 .7849884 .010986328 .7799988 .019989014L.44198609 .69781497M.38398744 .61582949 .6529999 .07598877H.11399841L.38398744 .61582949Z"/>
</defs>
<g>
<path transform="matrix(1.00006,0,0,-1.00005,29.842713,115.190959)" d="M28.3468 0V72.00891L30.7089 69.97035 33.07097 67.83968 35.43307 65.63158 37.79515 63.3616 40.15726 61.0458 42.51933 58.69928 44.88144 56.33936 47.24352 53.98203 49.60559 51.64287 51.9677 49.33873 54.32977 47.08565 56.69188 44.89915 59.05396 42.79486 61.41606 40.78745 63.77814 38.88904 66.14023 37.11522 68.50232 35.47762 70.86441 33.98622 73.2265 32.65186 75.5886 31.48659 77.95068 30.49521 80.31277 29.68506 82.67485 29.06221 85.03696 28.63184 85.04042 0H28.3468" fill="#00ff00" fill-opacity=".1"/>
<path transform="matrix(1.00006,0,0,-1.00005,29.842713,115.190959)" stroke-width=".3985" stroke-linecap="butt" stroke-miterlimit="10" stroke-linejoin="miter" fill="none" stroke="#ffffff" stroke-opacity=".1" d="M28.3468 0V72.00891L30.7089 69.97035 33.07097 67.83968 35.43307 65.63158 37.79515 63.3616 40.15726 61.0458 42.51933 58.69928 44.88144 56.33936 47.24352 53.98203 49.60559 51.64287 51.9677 49.33873 54.32977 47.08565 56.69188 44.89915 59.05396 42.79486 61.41606 40.78745 63.77814 38.88904 66.14023 37.11522 68.50232 35.47762 70.86441 33.98622 73.2265 32.65186 75.5886 31.48659 77.95068 30.49521 80.31277 29.68506 82.67485 29.06221 85.03696 28.63184 85.04042 0H28.3468"/>
</g>
<path transform="matrix(1.00006,0,0,-1.00005,29.842713,115.190959)" d="M28.3468 0V72.00891L28.64178 71.75977 28.93678 71.5089 29.23177 71.25716 29.52676 71.00282 29.82175 70.74763 30.11674 70.49113 30.41173 70.23204 30.70673 69.97252 31.00171 69.71083 31.2967 69.44829 31.59169 69.184 31.88669 68.91843 32.18169 68.652 32.47667 68.38338 32.77165 68.11433 33.06665 67.84357 33.36165 67.5715 33.65663 67.29857 33.95161 67.02434 34.24661 66.74925 34.54161 66.47328 34.8366 66.19559 35.13158 65.91748 35.42657 65.63806 35.43349 0Z" fill="#00ff00"/>
<path transform="matrix(1.00006,0,0,-1.00005,29.842713,115.190959)" stroke-width=".3985" stroke-linecap="butt" stroke-miterlimit="10" stroke-linejoin="miter" fill="none" stroke="#000000" d="M28.3468 0V72.00891L28.64178 71.75977 28.93678 71.5089 29.23177 71.25716 29.52676 71.00282 29.82175 70.74763 30.11674 70.49113 30.41173 70.23204 30.70673 69.97252 31.00171 69.71083 31.2967 69.44829 31.59169 69.184 31.88669 68.91843 32.18169 68.652 32.47667 68.38338 32.77165 68.11433 33.06665 67.84357 33.36165 67.5715 33.65663 67.29857 33.95161 67.02434 34.24661 66.74925 34.54161 66.47328 34.8366 66.19559 35.13158 65.91748 35.42657 65.63806 35.43349 0Z"/>
<path transform="matrix(1.00006,0,0,-1.00005,29.842713,115.190959)" stroke-width="1.19553" stroke-linecap="butt" stroke-miterlimit="10" stroke-linejoin="miter" fill="none" stroke="#ff0000" d="M28.3468 99.21382V-2.26778"/>
<use data-text="a" xlink:href="#font_1_1" transform="matrix(9.963197,0,0,-9.963098,55.558256,125.66748)" fill="#ff0000"/>
<path transform="matrix(1.00006,0,0,-1.00005,29.842713,115.190959)" stroke-width="1.19553" stroke-linecap="butt" stroke-miterlimit="10" stroke-linejoin="miter" fill="none" stroke="#ff0000" d="M85.04042 99.21382V-2.26778"/>
<use data-text="b" xlink:href="#font_1_2" transform="matrix(9.963197,0,0,-9.963098,112.75069,128.29662)" fill="#ff0000"/>
<path transform="matrix(1.00006,0,0,-1.00005,29.842713,115.190959)" stroke-width=".3985" stroke-linecap="butt" stroke-miterlimit="10" stroke-linejoin="miter" fill="none" stroke="#ff0000" d="M28.3468 0V72.00891"/>
<path transform="matrix(1.00006,0,0,-1.00005,29.842713,115.190959)" stroke-width=".3985" stroke-linecap="butt" stroke-miterlimit="10" stroke-linejoin="miter" fill="none" stroke="#ff0000" d="M35.43349 0V65.63158"/>
<path transform="matrix(1.00006,0,0,-1.00005,29.842713,115.190959)" stroke-width=".3985" stroke-linecap="butt" stroke-miterlimit="10" stroke-linejoin="miter" fill="none" stroke="#ff0000" d="M42.5202 0V58.69843"/>
<path transform="matrix(1.00006,0,0,-1.00005,29.842713,115.190959)" stroke-width=".3985" stroke-linecap="butt" stroke-miterlimit="10" stroke-linejoin="miter" fill="none" stroke="#ff0000" d="M49.6069 0V51.64156"/>
<path transform="matrix(1.00006,0,0,-1.00005,29.842713,115.190959)" stroke-width=".3985" stroke-linecap="butt" stroke-miterlimit="10" stroke-linejoin="miter" fill="none" stroke="#ff0000" d="M56.69362 0V44.89786"/>
<path transform="matrix(1.00006,0,0,-1.00005,29.842713,115.190959)" stroke-width=".3985" stroke-linecap="butt" stroke-miterlimit="10" stroke-linejoin="miter" fill="none" stroke="#ff0000" d="M63.7803 0V38.88774"/>
<path transform="matrix(1.00006,0,0,-1.00005,29.842713,115.190959)" stroke-width=".3985" stroke-linecap="butt" stroke-miterlimit="10" stroke-linejoin="miter" fill="none" stroke="#ff0000" d="M70.867 0V33.9845"/>
<path transform="matrix(1.00006,0,0,-1.00005,29.842713,115.190959)" stroke-width=".3985" stroke-linecap="butt" stroke-miterlimit="10" stroke-linejoin="miter" fill="none" stroke="#ff0000" d="M77.95372 0V30.49391"/>
<path transform="matrix(1.00006,0,0,-1.00005,29.842713,115.190959)" stroke-width=".3985" stroke-linecap="butt" stroke-miterlimit="10" stroke-linejoin="miter" fill="none" stroke="#ff0000" d="M85.04042 0V28.6314"/>
<path transform="matrix(1.00006,0,0,-1.00005,29.842713,115.190959)" stroke-width=".3985" stroke-linecap="butt" stroke-miterlimit="10" stroke-linejoin="miter" fill="none" stroke="#000000" d="M0-24.76025V109.80069"/>
<path transform="matrix(0,1.00005,1.00006,0,29.842713,139.95244)" d="M3.58653 0C2.52383 .19925 .797 .797-.3985 1.49438V-1.49438C.797-.797 2.52383-.19925 3.58653 0"/>
<path transform="matrix(0,-1.00005,-1.00006,-0,29.842713,5.384781)" d="M3.58653 0C2.52383 .19925 .797 .797-.3985 1.49438V-1.49438C.797-.797 2.52383-.19925 3.58653 0"/>
<use data-text="y" xlink:href="#font_1_5" transform="matrix(9.963197,0,0,-9.963098,21.080185,9.607681)"/>
<path transform="matrix(1.00006,0,0,-1.00005,29.842713,115.190959)" stroke-width=".3985" stroke-linecap="butt" stroke-miterlimit="10" stroke-linejoin="miter" fill="none" stroke="#000000" d="M-24.76025 0H138.1475"/>
<path transform="matrix(-1.00006,-0,0,1.00005,5.0809786,115.190959)" d="M3.58653 0C2.52383 .19925 .797 .797-.3985 1.49438V-1.49438C.797-.797 2.52383-.19925 3.58653 0"/>
<path transform="matrix(1.00006,0,0,-1.00005,167.9985,115.190959)" d="M3.58653 0C2.52383 .19925 .797 .797-.3985 1.49438V-1.49438C.797-.797 2.52383-.19925 3.58653 0"/>
<use data-text="x" xlink:href="#font_1_4" transform="matrix(9.963197,0,0,-9.963098,162.37067,111.67078)"/>
<path transform="matrix(1.00006,0,0,-1.00005,29.842713,115.190959)" stroke-width="1.19553" stroke-linecap="butt" stroke-miterlimit="10" stroke-linejoin="miter" fill="none" stroke="#0000ff" d="M-28.3468 72.00891-21.85094 77.0268-15.35509 80.98148-8.85924 83.66669-2.36337 84.9405 4.13245 84.7385 10.62831 83.06934 17.12418 80.02254 23.62003 75.75511 30.11588 70.49156 36.61174 64.5061 43.10759 58.1119 49.60344 51.64502 56.09929 45.44112 62.59515 39.82549 69.091 35.0918 75.58685 31.48746 82.08272 29.2002 88.57858 28.35112 95.07443 28.98479 101.5703 31.06659 108.06615 34.4884 114.562 39.07071 121.05785 44.57433 127.55371 50.71205"/>
<use data-text="f" xlink:href="#font_1_3" transform="matrix(9.963197,0,0,-9.963098,147.70679,58.067106)" fill="#0000ff"/>
<use data-text="(" xlink:href="#font_2_2" transform="matrix(9.963197,0,0,-9.963098,153.65714,58.067106)" fill="#0000ff"/>
<use data-text="x" xlink:href="#font_1_4" transform="matrix(9.963197,0,0,-9.963098,157.53137,58.067106)" fill="#0000ff"/>
<use data-text=")" xlink:href="#font_2_3" transform="matrix(9.963197,0,0,-9.963098,163.22571,58.067106)" fill="#0000ff"/>
<path transform="matrix(1.00006,0,0,-1.00005,29.842713,115.190959)" d="M170.08086 0V72.00891L170.37583 71.75977 170.67082 71.5089 170.96582 71.25716 171.26082 71.00282 171.55579 70.74763 171.85079 70.49113 172.14579 70.23204 172.44078 69.97252 172.73575 69.71083 173.03075 69.44829 173.32575 69.184 173.62075 68.91843 173.91573 68.652 174.21071 68.38338 174.5057 68.11433 174.8007 67.84357 175.09569 67.5715 175.39067 67.29857 175.68567 67.02434 175.98067 66.74925 176.27567 66.47328 176.57064 66.19559 176.86563 65.91748 177.16063 65.63806 177.16754 0Z" fill="#00ff00"/>
<path transform="matrix(1.00006,0,0,-1.00005,29.842713,115.190959)" stroke-width=".3985" stroke-linecap="butt" stroke-miterlimit="10" stroke-linejoin="miter" fill="none" stroke="#000000" d="M170.08086 0V72.00891L170.37583 71.75977 170.67082 71.5089 170.96582 71.25716 171.26082 71.00282 171.55579 70.74763 171.85079 70.49113 172.14579 70.23204 172.44078 69.97252 172.73575 69.71083 173.03075 69.44829 173.32575 69.184 173.62075 68.91843 173.91573 68.652 174.21071 68.38338 174.5057 68.11433 174.8007 67.84357 175.09569 67.5715 175.39067 67.29857 175.68567 67.02434 175.98067 66.74925 176.27567 66.47328 176.57064 66.19559 176.86563 65.91748 177.16063 65.63806 177.16754 0Z"/>
<use data-text="&#x2248;" xlink:href="#font_3_1" transform="matrix(9.963197,0,0,-9.963098,217.32096,84.78044)"/>
<path transform="matrix(1.00006,0,0,-1.00005,29.842713,115.190959)" d="M205.51436 0V65.63158H212.60106V0ZM212.60106 65.63158" fill="#00ff00"/>
<path transform="matrix(1.00006,0,0,-1.00005,29.842713,115.190959)" stroke-width=".3985" stroke-linecap="butt" stroke-miterlimit="10" stroke-linejoin="miter" fill="none" stroke="#000000" d="M205.51436 0V65.63158H212.60106V0ZM212.60106 65.63158"/>
<path transform="matrix(1.00006,0,0,-1.00005,29.842713,115.190959)" stroke-width=".3985" stroke-linecap="butt" stroke-miterlimit="10" stroke-linejoin="miter" fill="none" stroke="#000000" d="M205.81322-7.08669H212.30219"/>
<path transform="matrix(-1.00006,-0,0,1.00005,235.66828,122.278)" stroke-width=".3985" stroke-linecap="square" stroke-miterlimit="10" stroke-linejoin="miter" fill="none" stroke="#000000" d="M.09961-2.5903V2.5903"/>
<path transform="matrix(1.00006,0,0,-1.00005,242.15763,122.278)" stroke-width=".3985" stroke-linecap="square" stroke-miterlimit="10" stroke-linejoin="miter" fill="none" stroke="#000000" d="M.09961-2.5903V2.5903"/>
<use data-text="&#x2206;" xlink:href="#font_2_1" transform="matrix(9.963197,0,0,-9.963098,231.91483,132.60584)"/>
<use data-text="x" xlink:href="#font_1_4" transform="matrix(9.963197,0,0,-9.963098,240.21732,132.60584)"/>
<path transform="matrix(1.00006,0,0,-1.00005,29.842713,115.190959)" stroke-width=".3985" stroke-linecap="butt" stroke-miterlimit="10" stroke-linejoin="miter" fill="none" stroke="#000000" d="M219.68776 .29886V65.3327"/>
<path transform="matrix(0,1.00005,1.00006,0,249.54364,114.89208)" stroke-width=".3985" stroke-linecap="square" stroke-miterlimit="10" stroke-linejoin="miter" fill="none" stroke="#000000" d="M.09961-2.5903V2.5903"/>
<path transform="matrix(0,-1.00005,-1.00006,-0,249.54364,49.85499)" stroke-width=".3985" stroke-linecap="square" stroke-miterlimit="10" stroke-linejoin="miter" fill="none" stroke="#000000" d="M.09961-2.5903V2.5903"/>
<use data-text="f" xlink:href="#font_1_3" transform="matrix(9.963197,0,0,-9.963098,253.06409,84.86444)"/>
<use data-text="(" xlink:href="#font_2_2" transform="matrix(9.963197,0,0,-9.963098,259.01445,84.86444)"/>
<use data-text="x" xlink:href="#font_1_4" transform="matrix(9.963197,0,0,-9.963098,262.88868,84.86444)"/>
<use data-text=")" xlink:href="#font_2_3" transform="matrix(9.963197,0,0,-9.963098,268.583,84.86444)"/>
</svg>
