<svg xmlns="http://www.w3.org/2000/svg" xmlns:xlink="http://www.w3.org/1999/xlink" xmlns:inkscape="http://www.inkscape.org/namespaces/inkscape" version="1.1" width="258" height="116" viewBox="0 0 258 116">
<defs>
<path id="font_1_3" d="M.48599244 .38136292C.48999024 .39537049 .48999024 .39736939 .48999024 .40437318 .48999024 .42237855 .47599793 .43138124 .46099855 .43138124 .45098878 .43138124 .43499757 .42536927 .42599488 .41036988 .42399598 .405365 .41600038 .37435914 .4119873 .35635377 .40499879 .33035279 .397995 .30334474 .3919983 .27633668L.34700013 .09628296C.34298707 .08126831 .2999878 .011245728 .23399353 .011245728 .18299866 .011245728 .17199707 .055267335 .17199707 .0922699 .17199707 .1382904 .18899536 .20030213 .22299195 .28833009 .23899842 .3293457 .24299622 .3403473 .24299622 .36035157 .24299622 .405365 .21099854 .4423828 .16099549 .4423828 .06599426 .4423828 .0289917 .29733277 .0289917 .28833009 .0289917 .27833558 .038986207 .27833558 .040985109 .27833558 .050994874 .27833558 .051986696 .28033448 .056991579 .29634095 .083999637 .3903656 .12399292 .42037965 .1579895 .42037965 .1659851 .42037965 .18299866 .42037965 .18299866 .3883667 .18299866 .36335755 .17298889 .3373413 .1659851 .31834413 .12599182 .21231079 .10798645 .1552887 .10798645 .10827637 .10798645 .019256592 .17098999-.0107421879 .22999573-.0107421879 .2689972-.0107421879 .30299378 .0062561037 .33099366 .03425598 .31799317-.017745972 .30599977-.06674194 .2659912-.11973572 .23999024-.15385437 .20199585-.18309021 .1559906-.18309021 .14199829-.18309021 .09700012-.18005371 .07998657-.14074707 .09599304-.14074707 .10899353-.14074707 .12298584-.1287384 .1329956-.11973572 .14299011-.10673523 .14299011-.08773804 .14299011-.056747438 .115997318-.052734376 .10598755-.052734376 .08299255-.052734376 .049987794-.068740848 .049987794-.11773682 .049987794-.16796875 .09399414-.20507813 .1559906-.20507813 .25898744-.20507813 .3619995-.11373901 .3899994-.00074768069L.48599244 .38136292Z"/>
<path id="font_1_2" d="M.33399964 .30233766C.33999635 .32835389 .36299134 .42037965 .43299867 .42037965 .43798829 .42037965 .46199037 .42037965 .48298646 .40734864 .45498658 .402359 .43499757 .37734986 .43499757 .35334779 .43499757 .33735658 .44599916 .31835938 .47299195 .31835938 .49499513 .31835938 .5269928 .3363495 .5269928 .37635804 .5269928 .42837525 .46798707 .4423828 .43399049 .4423828 .37599183 .4423828 .34098817 .38935853 .32899476 .36634828 .3039856 .43237306 .25 .4423828 .22099304 .4423828 .116989139 .4423828 .05999756 .3133545 .05999756 .28834535 .05999756 .27833558 .069992069 .27833558 .07199097 .27833558 .07998657 .27833558 .08299255 .28033448 .084991458 .28933717 .11898804 .39535523 .18499756 .42037965 .21899414 .42037965 .23799134 .42037965 .272995 .4113617 .272995 .35334779 .272995 .32235719 .2559967 .25532533 .21899414 .11528015 .20298767 .053268434 .16799927 .011245728 .12399292 .011245728 .117996219 .011245728 .09498596 .011245728 .07398987 .024276734 .09899902 .029266358 .12098694 .05027771 .12098694 .07827759 .12098694 .105270389 .09899902 .11328125 .083999637 .11328125 .053985597 .11328125 .0289917 .08728027 .0289917 .055267335 .0289917 .009246826 .07899475-.0107421879 .12298584-.0107421879 .18899536-.0107421879 .22499085 .059280397 .22799683 .0652771 .23999024 .028274537 .27598573-.0107421879 .33599855-.0107421879 .43899537-.0107421879 .49598695 .118270877 .49598695 .14328003 .49598695 .1532898 .4869995 .1532898 .48399354 .1532898 .47499085 .1532898 .47299195 .14929199 .47099305 .14228821 .43798829 .03527832 .36999513 .011245728 .33799745 .011245728 .29899598 .011245728 .2829895 .043273927 .2829895 .07727051 .2829895 .09927368 .2889862 .121276859 .2999878 .16529846L.33399964 .30233766Z"/>
<path id="font_1_1" d="M.36698915 .3996582H.45298768C.47299195 .3996582 .48298646 .3996582 .48298646 .41966249 .48298646 .43066407 .47299195 .43066407 .45599366 .43066407H.37298585L.3939972 .5449524C.397995 .5660095 .4119873 .6370239 .41799928 .6490326 .4269867 .66804507 .44400025 .68307498 .46499635 .68307498 .46899415 .68307498 .49499513 .68307498 .5139923 .66503909 .46998597 .661026 .45999146 .6260376 .45999146 .6110382 .45999146 .58802798 .47799684 .57603457 .49699403 .57603457 .522995 .57603457 .5519867 .5980377 .5519867 .6360321 .5519867 .6820679 .5059967 .7050781 .46499635 .7050781 .43099977 .7050781 .36799623 .68707278 .33799745 .58802798 .33198548 .56700137 .32899476 .5569763 .30499269 .43066407H.23599243C.21699524 .43066407 .20599365 .43066407 .20599365 .4116516 .20599365 .3996582 .21499634 .3996582 .23399353 .3996582H.2999878L.22499085 .0048828127C.20698548-.09207153 .18998719-.18309021 .13798523-.18309021 .13398743-.18309021 .10899353-.18309021 .08999634-.16506958 .13598633-.1620636 .14498902-.12606812 .14498902-.111068729 .14498902-.08807373 .1269989-.07606506 .10798645-.07606506 .08198547-.07606506 .052993776-.09806824 .052993776-.13606262 .052993776-.18109131 .09700012-.20507813 .13798523-.20507813 .19299317-.20507813 .23298645-.14607239 .25099183-.108062747 .2829895-.04508972 .30599977 .07583618 .30699159 .082839969L.36698915 .3996582Z"/>
<path id="font_2_1" d="M.33099366-.2400055C.33099366-.23701477 .33099366-.23500061 .31399537-.21800232 .18899536-.0920105 .15699768 .09700012 .15699768 .25 .15699768 .42399598 .19499207 .59799197 .31799317 .72299197 .33099366 .73498538 .33099366 .7369995 .33099366 .73999026 .33099366 .746994 .32699586 .75 .32099916 .75 .31098939 .75 .22099304 .6819916 .1619873 .5549927 .11099243 .44499208 .09899902 .33399964 .09899902 .25 .09899902 .17199707 .10998535 .050994874 .16499329-.06201172 .22499085-.18501282 .31098939-.25 .32099916-.25 .32699586-.25 .33099366-.24700928 .33099366-.2400055Z"/>
<path id="font_2_2" d="M.2889862 .25C.2889862 .32798768 .27799989 .44898988 .22299195 .56199648 .16299439 .68499758 .07699585 .75 .066986087 .75 .06098938 .75 .056991579 .74598696 .056991579 .73999026 .056991579 .7369995 .056991579 .73498538 .07598877 .71699526 .17399597 .6179962 .23098755 .45899964 .23098755 .25 .23098755 .07899475 .19400025-.09700012 .069992069-.2230072 .056991579-.23500061 .056991579-.23701477 .056991579-.2400055 .056991579-.2460022 .06098938-.25 .066986087-.25 .07699585-.25 .16699219-.18200684 .22599793-.055007936 .2769928 .054992677 .2889862 .16600037 .2889862 .25Z"/>
</defs>
<path transform="matrix(1.0001,0,0,-1.00002,29.844185,57.890859)" stroke-width="1.19553" stroke-linecap="butt" stroke-miterlimit="10" stroke-linejoin="miter" fill="none" stroke="#000000" d="M0-50.95506V50.95506"/>
<path transform="matrix(0,1.00002,1.0001,0,29.844185,108.84694)" d="M5.73854 0C4.0382 .31879 1.27522 1.27522-.6376 2.39105V-2.39105C1.27522-1.27522 4.0382-.31879 5.73854 0"/>
<path transform="matrix(0,-1.00002,-1.0001,-0,29.844185,6.9347765)" d="M5.73854 0C4.0382 .31879 1.27522 1.27522-.6376 2.39105V-2.39105C1.27522-1.27522 4.0382-.31879 5.73854 0"/>
<use data-text="y" xlink:href="#font_1_3" transform="matrix(9.963596,0,0,-9.962799,20.683266,9.403885)"/>
<path transform="matrix(1.0001,0,0,-1.00002,29.844185,57.890859)" stroke-width="1.19553" stroke-linecap="butt" stroke-miterlimit="10" stroke-linejoin="miter" fill="none" stroke="#0000ff" d="M-22.60825 0H221.03592"/>
<path transform="matrix(-1.0001,-0,0,1.00002,7.233673,57.890859)" d="M5.73854 0C4.0382 .31879 1.27522 1.27522-.6376 2.39105V-2.39105C1.27522-1.27522 4.0382-.31879 5.73854 0" fill="#0000ff"/>
<path transform="matrix(1.0001,0,0,-1.00002,250.90222,57.890859)" d="M5.73854 0C4.0382 .31879 1.27522 1.27522-.6376 2.39105V-2.39105C1.27522-1.27522 4.0382-.31879 5.73854 0" fill="#0000ff"/>
<use data-text="x" xlink:href="#font_1_2" transform="matrix(9.963596,0,0,-9.962799,247.02791,53.97278)" fill="#0000ff"/>
<path transform="matrix(1.0001,0,0,-1.00002,29.844185,57.890859)" stroke-width=".79701" stroke-linecap="butt" stroke-miterlimit="10" stroke-linejoin="miter" fill="none" stroke="#00a800" d="M0 0C0 0 5.97331 1.09012 8.26752 2.08525 10.56172 3.08038 14.24084 5.5647 16.53505 7.17233 18.82925 8.77997 22.50838 11.87155 24.80258 13.67207 27.09679 15.4726 30.7759 18.53137 33.0701 20.14934 35.3643 21.76729 39.04343 24.21434 41.33763 25.3333 43.63185 26.45226 47.31096 27.83018 49.60518 28.21402 51.89938 28.59785 55.5785 28.59055 57.87271 28.09982 60.16692 27.60909 63.84602 26.07414 66.14023 24.67714 68.43443 23.28014 72.11356 20.25734 74.40776 18.03119 76.70197 15.80505 80.38109 11.51051 82.6753 8.63257 84.9695 5.75462 88.64862 .56079 90.94284-2.71114 93.23705-5.98306 96.91615-11.59657 99.21036-14.94936 101.50456-18.30214 105.18369-23.77988 107.47789-26.87573 109.7721-29.9716 113.45122-34.75058 115.74542-37.26227 118.03963-39.77394 121.71875-43.33383 124.01295-44.97832 126.30716-46.6228 129.98627-48.54703 132.28047-49.11469 134.57469-49.68234 138.25382-49.6934 140.54802-49.06969 142.84223-48.44597 146.52135-46.4379 148.81555-44.61931 151.10976-42.8007 154.78888-38.86572 157.08309-35.9625 159.37729-33.05927 163.0564-27.46666 165.3506-23.69484 167.6448-19.92303 171.32393-13.11234 173.61814-8.77791 175.91234-4.44347 179.59146 3.01605 181.88568 7.54475 184.17989 12.07346 187.85901 19.53752 190.15322 23.8618 192.44742 28.1861 198.42073 38.71127 198.42073 38.71127"/>
<use data-text="f" xlink:href="#font_1_1" transform="matrix(9.963596,0,0,-9.962799,232.0044,30.370306)" fill="#00a800"/>
<use data-text="(" xlink:href="#font_2_1" transform="matrix(9.963596,0,0,-9.962799,237.95499,30.370306)" fill="#00a800"/>
<use data-text="x" xlink:href="#font_1_2" transform="matrix(9.963596,0,0,-9.962799,241.82938,30.370306)" fill="#00a800"/>
<use data-text=")" xlink:href="#font_2_2" transform="matrix(9.963596,0,0,-9.962799,247.52396,30.370306)" fill="#00a800"/>
<path transform="matrix(1.0001,0,0,-1.00002,29.844185,57.890859)" d="M1.24535 0C1.24535 .68777 .68777 1.24535 0 1.24535-.68777 1.24535-1.24535 .68777-1.24535 0-1.24535-.68777-.68777-1.24535 0-1.24535 .68777-1.24535 1.24535-.68777 1.24535 0ZM0 0" fill="#00a800"/>
<path transform="matrix(1.0001,0,0,-1.00002,29.844185,57.890859)" stroke-width=".3985" stroke-linecap="butt" stroke-miterlimit="10" stroke-linejoin="miter" fill="none" stroke="#00a800" d="M1.24535 0C1.24535 .68777 .68777 1.24535 0 1.24535-.68777 1.24535-1.24535 .68777-1.24535 0-1.24535-.68777-.68777-1.24535 0-1.24535 .68777-1.24535 1.24535-.68777 1.24535 0ZM0 0"/>
<path transform="matrix(1.0001,0,0,-1.00002,29.844185,57.890859)" stroke-width=".3985" stroke-linecap="butt" stroke-miterlimit="10" stroke-linejoin="miter" fill="none" stroke="#00a800" d="M0 0V1.99252"/>
<path transform="matrix(0,-1.00002,-1.0001,-0,29.844185,59.88342)" d="M1.99252 0-1.19551 1.59401 0 0-1.19551-1.59401" fill="#00a800"/>
<path transform="matrix(1.0001,0,0,-1.00002,29.844185,57.890859)" d="M8.33203 1.56447C8.33203 2.25226 7.77446 2.80981 7.08669 2.80981 6.3989 2.80981 5.84134 2.25226 5.84134 1.56447 5.84134 .8767 6.3989 .31912 7.08669 .31912 7.77446 .31912 8.33203 .8767 8.33203 1.56447ZM7.08669 1.56447" fill="#00a800"/>
<path transform="matrix(1.0001,0,0,-1.00002,29.844185,57.890859)" stroke-width=".3985" stroke-linecap="butt" stroke-miterlimit="10" stroke-linejoin="miter" fill="none" stroke="#00a800" d="M8.33203 1.56447C8.33203 2.25226 7.77446 2.80981 7.08669 2.80981 6.3989 2.80981 5.84134 2.25226 5.84134 1.56447 5.84134 .8767 6.3989 .31912 7.08669 .31912 7.77446 .31912 8.33203 .8767 8.33203 1.56447ZM7.08669 1.56447"/>
<path transform="matrix(1.0001,0,0,-1.00002,29.844185,57.890859)" stroke-width=".3985" stroke-linecap="butt" stroke-miterlimit="10" stroke-linejoin="miter" fill="none" stroke="#00a800" d="M7.08669 1.56447V1.99252"/>
<path transform="matrix(0,1.00002,1.0001,0,36.931585,55.898298)" d="M1.99252 0-1.19551 1.59401 0 0-1.19551-1.59401" fill="#00a800"/>
<path transform="matrix(1.0001,0,0,-1.00002,29.844185,57.890859)" d="M15.41873 5.50966C15.41873 6.19745 14.86118 6.755 14.17339 6.755 13.48561 6.755 12.92804 6.19745 12.92804 5.50966 12.92804 4.82188 13.48561 4.26431 14.17339 4.26431 14.86118 4.26431 15.41873 4.82188 15.41873 5.50966ZM14.17339 5.50966" fill="#00a800"/>
<path transform="matrix(1.0001,0,0,-1.00002,29.844185,57.890859)" stroke-width=".3985" stroke-linecap="butt" stroke-miterlimit="10" stroke-linejoin="miter" fill="none" stroke="#00a800" d="M15.41873 5.50966C15.41873 6.19745 14.86118 6.755 14.17339 6.755 13.48561 6.755 12.92804 6.19745 12.92804 5.50966 12.92804 4.82188 13.48561 4.26431 14.17339 4.26431 14.86118 4.26431 15.41873 4.82188 15.41873 5.50966ZM14.17339 5.50966"/>
<path transform="matrix(1.0001,0,0,-1.00002,29.844185,57.890859)" stroke-width=".3985" stroke-linecap="butt" stroke-miterlimit="10" stroke-linejoin="miter" fill="none" stroke="#00a800" d="M14.17339 5.50966V1.99252"/>
<path transform="matrix(0,1.00002,1.0001,0,44.018995,55.898298)" d="M1.99252 0-1.19551 1.59401 0 0-1.19551-1.59401" fill="#00a800"/>
<path transform="matrix(1.0001,0,0,-1.00002,29.844185,57.890859)" d="M22.50545 10.81084C22.50545 11.49861 21.94788 12.05618 21.2601 12.05618 20.57231 12.05618 20.01476 11.49861 20.01476 10.81084 20.01476 10.12305 20.57231 9.56549 21.2601 9.56549 21.94788 9.56549 22.50545 10.12305 22.50545 10.81084ZM21.2601 10.81084" fill="#00a800"/>
<path transform="matrix(1.0001,0,0,-1.00002,29.844185,57.890859)" stroke-width=".3985" stroke-linecap="butt" stroke-miterlimit="10" stroke-linejoin="miter" fill="none" stroke="#00a800" d="M22.50545 10.81084C22.50545 11.49861 21.94788 12.05618 21.2601 12.05618 20.57231 12.05618 20.01476 11.49861 20.01476 10.81084 20.01476 10.12305 20.57231 9.56549 21.2601 9.56549 21.94788 9.56549 22.50545 10.12305 22.50545 10.81084ZM21.2601 10.81084"/>
<path transform="matrix(1.0001,0,0,-1.00002,29.844185,57.890859)" stroke-width=".3985" stroke-linecap="butt" stroke-miterlimit="10" stroke-linejoin="miter" fill="none" stroke="#00a800" d="M21.2601 10.81084V1.99252"/>
<path transform="matrix(0,1.00002,1.0001,0,51.10641,55.898298)" d="M1.99252 0-1.19551 1.59401 0 0-1.19551-1.59401" fill="#00a800"/>
<path transform="matrix(1.0001,0,0,-1.00002,29.844185,57.890859)" d="M29.59215 16.53029C29.59215 17.21808 29.03459 17.77563 28.3468 17.77563 27.65901 17.77563 27.10146 17.21808 27.10146 16.53029 27.10146 15.8425 27.65901 15.28494 28.3468 15.28494 29.03459 15.28494 29.59215 15.8425 29.59215 16.53029ZM28.3468 16.53029" fill="#00a800"/>
<path transform="matrix(1.0001,0,0,-1.00002,29.844185,57.890859)" stroke-width=".3985" stroke-linecap="butt" stroke-miterlimit="10" stroke-linejoin="miter" fill="none" stroke="#00a800" d="M29.59215 16.53029C29.59215 17.21808 29.03459 17.77563 28.3468 17.77563 27.65901 17.77563 27.10146 17.21808 27.10146 16.53029 27.10146 15.8425 27.65901 15.28494 28.3468 15.28494 29.03459 15.28494 29.59215 15.8425 29.59215 16.53029ZM28.3468 16.53029"/>
<path transform="matrix(1.0001,0,0,-1.00002,29.844185,57.890859)" stroke-width=".3985" stroke-linecap="butt" stroke-miterlimit="10" stroke-linejoin="miter" fill="none" stroke="#00a800" d="M28.3468 16.53029V1.99252"/>
<path transform="matrix(0,1.00002,1.0001,0,58.193819,55.898298)" d="M1.99252 0-1.19551 1.59401 0 0-1.19551-1.59401" fill="#00a800"/>
<path transform="matrix(1.0001,0,0,-1.00002,29.844185,57.890859)" d="M36.67883 21.81287C36.67883 22.50066 36.12128 23.05821 35.43349 23.05821 34.74571 23.05821 34.18814 22.50066 34.18814 21.81287 34.18814 21.12509 34.74571 20.56752 35.43349 20.56752 36.12128 20.56752 36.67883 21.12509 36.67883 21.81287ZM35.43349 21.81287" fill="#00a800"/>
<path transform="matrix(1.0001,0,0,-1.00002,29.844185,57.890859)" stroke-width=".3985" stroke-linecap="butt" stroke-miterlimit="10" stroke-linejoin="miter" fill="none" stroke="#00a800" d="M36.67883 21.81287C36.67883 22.50066 36.12128 23.05821 35.43349 23.05821 34.74571 23.05821 34.18814 22.50066 34.18814 21.81287 34.18814 21.12509 34.74571 20.56752 35.43349 20.56752 36.12128 20.56752 36.67883 21.12509 36.67883 21.81287ZM35.43349 21.81287"/>
<path transform="matrix(1.0001,0,0,-1.00002,29.844185,57.890859)" stroke-width=".3985" stroke-linecap="butt" stroke-miterlimit="10" stroke-linejoin="miter" fill="none" stroke="#00a800" d="M35.43349 21.81287V1.99252"/>
<path transform="matrix(0,1.00002,1.0001,0,65.28122,55.898298)" d="M1.99252 0-1.19551 1.59401 0 0-1.19551-1.59401" fill="#00a800"/>
<path transform="matrix(1.0001,0,0,-1.00002,29.844185,57.890859)" d="M43.76555 25.90727C43.76555 26.59506 43.20798 27.15262 42.5202 27.15262 41.83241 27.15262 41.27486 26.59506 41.27486 25.90727 41.27486 25.2195 41.83241 24.66193 42.5202 24.66193 43.20798 24.66193 43.76555 25.2195 43.76555 25.90727ZM42.5202 25.90727" fill="#00a800"/>
<path transform="matrix(1.0001,0,0,-1.00002,29.844185,57.890859)" stroke-width=".3985" stroke-linecap="butt" stroke-miterlimit="10" stroke-linejoin="miter" fill="none" stroke="#00a800" d="M43.76555 25.90727C43.76555 26.59506 43.20798 27.15262 42.5202 27.15262 41.83241 27.15262 41.27486 26.59506 41.27486 25.90727 41.27486 25.2195 41.83241 24.66193 42.5202 24.66193 43.20798 24.66193 43.76555 25.2195 43.76555 25.90727ZM42.5202 25.90727"/>
<path transform="matrix(1.0001,0,0,-1.00002,29.844185,57.890859)" stroke-width=".3985" stroke-linecap="butt" stroke-miterlimit="10" stroke-linejoin="miter" fill="none" stroke="#00a800" d="M42.5202 25.90727V1.99252"/>
<path transform="matrix(0,1.00002,1.0001,0,72.36864,55.898298)" d="M1.99252 0-1.19551 1.59401 0 0-1.19551-1.59401" fill="#00a800"/>
<path transform="matrix(1.0001,0,0,-1.00002,29.844185,57.890859)" d="M50.85225 28.21402C50.85225 28.9018 50.2947 29.45937 49.6069 29.45937 48.91913 29.45937 48.36156 28.9018 48.36156 28.21402 48.36156 27.52623 48.91913 26.96867 49.6069 26.96867 50.2947 26.96867 50.85225 27.52623 50.85225 28.21402ZM49.6069 28.21402" fill="#00a800"/>
<path transform="matrix(1.0001,0,0,-1.00002,29.844185,57.890859)" stroke-width=".3985" stroke-linecap="butt" stroke-miterlimit="10" stroke-linejoin="miter" fill="none" stroke="#00a800" d="M50.85225 28.21402C50.85225 28.9018 50.2947 29.45937 49.6069 29.45937 48.91913 29.45937 48.36156 28.9018 48.36156 28.21402 48.36156 27.52623 48.91913 26.96867 49.6069 26.96867 50.2947 26.96867 50.85225 27.52623 50.85225 28.21402ZM49.6069 28.21402"/>
<path transform="matrix(1.0001,0,0,-1.00002,29.844185,57.890859)" stroke-width=".3985" stroke-linecap="butt" stroke-miterlimit="10" stroke-linejoin="miter" fill="none" stroke="#00a800" d="M49.6069 28.21402V1.99252"/>
<path transform="matrix(0,1.00002,1.0001,0,79.45605,55.898298)" d="M1.99252 0-1.19551 1.59401 0 0-1.19551-1.59401" fill="#00a800"/>
<path transform="matrix(1.0001,0,0,-1.00002,29.844185,57.890859)" d="M57.93896 28.31479C57.93896 29.00256 57.3814 29.56013 56.69362 29.56013 56.00583 29.56013 55.44827 29.00256 55.44827 28.31479 55.44827 27.627 56.00583 27.06944 56.69362 27.06944 57.3814 27.06944 57.93896 27.627 57.93896 28.31479ZM56.69362 28.31479" fill="#00a800"/>
<path transform="matrix(1.0001,0,0,-1.00002,29.844185,57.890859)" stroke-width=".3985" stroke-linecap="butt" stroke-miterlimit="10" stroke-linejoin="miter" fill="none" stroke="#00a800" d="M57.93896 28.31479C57.93896 29.00256 57.3814 29.56013 56.69362 29.56013 56.00583 29.56013 55.44827 29.00256 55.44827 28.31479 55.44827 27.627 56.00583 27.06944 56.69362 27.06944 57.3814 27.06944 57.93896 27.627 57.93896 28.31479ZM56.69362 28.31479"/>
<path transform="matrix(1.0001,0,0,-1.00002,29.844185,57.890859)" stroke-width=".3985" stroke-linecap="butt" stroke-miterlimit="10" stroke-linejoin="miter" fill="none" stroke="#00a800" d="M56.69362 28.31479V1.99252"/>
<path transform="matrix(0,1.00002,1.0001,0,86.54347,55.898298)" d="M1.99252 0-1.19551 1.59401 0 0-1.19551-1.59401" fill="#00a800"/>
<path transform="matrix(1.0001,0,0,-1.00002,29.844185,57.890859)" d="M65.02565 25.99379C65.02565 26.68158 64.4681 27.23914 63.7803 27.23914 63.09251 27.23914 62.53496 26.68158 62.53496 25.99379 62.53496 25.30602 63.09251 24.74844 63.7803 24.74844 64.4681 24.74844 65.02565 25.30602 65.02565 25.99379ZM63.7803 25.99379" fill="#00a800"/>
<path transform="matrix(1.0001,0,0,-1.00002,29.844185,57.890859)" stroke-width=".3985" stroke-linecap="butt" stroke-miterlimit="10" stroke-linejoin="miter" fill="none" stroke="#00a800" d="M65.02565 25.99379C65.02565 26.68158 64.4681 27.23914 63.7803 27.23914 63.09251 27.23914 62.53496 26.68158 62.53496 25.99379 62.53496 25.30602 63.09251 24.74844 63.7803 24.74844 64.4681 24.74844 65.02565 25.30602 65.02565 25.99379ZM63.7803 25.99379"/>
<path transform="matrix(1.0001,0,0,-1.00002,29.844185,57.890859)" stroke-width=".3985" stroke-linecap="butt" stroke-miterlimit="10" stroke-linejoin="miter" fill="none" stroke="#00a800" d="M63.7803 25.99379V1.99252"/>
<path transform="matrix(0,1.00002,1.0001,0,93.63086,55.898298)" d="M1.99252 0-1.19551 1.59401 0 0-1.19551-1.59401" fill="#00a800"/>
<path transform="matrix(1.0001,0,0,-1.00002,29.844185,57.890859)" d="M72.11235 21.25014C72.11235 21.93793 71.5548 22.49548 70.867 22.49548 70.17923 22.49548 69.62166 21.93793 69.62166 21.25014 69.62166 20.56236 70.17923 20.00479 70.867 20.00479 71.5548 20.00479 72.11235 20.56236 72.11235 21.25014ZM70.867 21.25014" fill="#00a800"/>
<path transform="matrix(1.0001,0,0,-1.00002,29.844185,57.890859)" stroke-width=".3985" stroke-linecap="butt" stroke-miterlimit="10" stroke-linejoin="miter" fill="none" stroke="#00a800" d="M72.11235 21.25014C72.11235 21.93793 71.5548 22.49548 70.867 22.49548 70.17923 22.49548 69.62166 21.93793 69.62166 21.25014 69.62166 20.56236 70.17923 20.00479 70.867 20.00479 71.5548 20.00479 72.11235 20.56236 72.11235 21.25014ZM70.867 21.25014"/>
<path transform="matrix(1.0001,0,0,-1.00002,29.844185,57.890859)" stroke-width=".3985" stroke-linecap="butt" stroke-miterlimit="10" stroke-linejoin="miter" fill="none" stroke="#00a800" d="M70.867 21.25014V1.99252"/>
<path transform="matrix(0,1.00002,1.0001,0,100.71827,55.898298)" d="M1.99252 0-1.19551 1.59401 0 0-1.19551-1.59401" fill="#00a800"/>
<path transform="matrix(1.0001,0,0,-1.00002,29.844185,57.890859)" d="M79.19907 14.29709C79.19907 14.98488 78.6415 15.54243 77.95372 15.54243 77.26593 15.54243 76.70837 14.98488 76.70837 14.29709 76.70837 13.6093 77.26593 13.05174 77.95372 13.05174 78.6415 13.05174 79.19907 13.6093 79.19907 14.29709ZM77.95372 14.29709" fill="#00a800"/>
<path transform="matrix(1.0001,0,0,-1.00002,29.844185,57.890859)" stroke-width=".3985" stroke-linecap="butt" stroke-miterlimit="10" stroke-linejoin="miter" fill="none" stroke="#00a800" d="M79.19907 14.29709C79.19907 14.98488 78.6415 15.54243 77.95372 15.54243 77.26593 15.54243 76.70837 14.98488 76.70837 14.29709 76.70837 13.6093 77.26593 13.05174 77.95372 13.05174 78.6415 13.05174 79.19907 13.6093 79.19907 14.29709ZM77.95372 14.29709"/>
<path transform="matrix(1.0001,0,0,-1.00002,29.844185,57.890859)" stroke-width=".3985" stroke-linecap="butt" stroke-miterlimit="10" stroke-linejoin="miter" fill="none" stroke="#00a800" d="M77.95372 14.29709V1.99252"/>
<path transform="matrix(0,1.00002,1.0001,0,107.8057,55.898298)" d="M1.99252 0-1.19551 1.59401 0 0-1.19551-1.59401" fill="#00a800"/>
<path transform="matrix(1.0001,0,0,-1.00002,29.844185,57.890859)" d="M86.28577 5.54512C86.28577 6.23291 85.72821 6.79047 85.04042 6.79047 84.35265 6.79047 83.79507 6.23291 83.79507 5.54512 83.79507 4.85735 84.35265 4.29977 85.04042 4.29977 85.72821 4.29977 86.28577 4.85735 86.28577 5.54512ZM85.04042 5.54512" fill="#00a800"/>
<path transform="matrix(1.0001,0,0,-1.00002,29.844185,57.890859)" stroke-width=".3985" stroke-linecap="butt" stroke-miterlimit="10" stroke-linejoin="miter" fill="none" stroke="#00a800" d="M86.28577 5.54512C86.28577 6.23291 85.72821 6.79047 85.04042 6.79047 84.35265 6.79047 83.79507 6.23291 83.79507 5.54512 83.79507 4.85735 84.35265 4.29977 85.04042 4.29977 85.72821 4.29977 86.28577 4.85735 86.28577 5.54512ZM85.04042 5.54512"/>
<path transform="matrix(1.0001,0,0,-1.00002,29.844185,57.890859)" stroke-width=".3985" stroke-linecap="butt" stroke-miterlimit="10" stroke-linejoin="miter" fill="none" stroke="#00a800" d="M85.04042 5.54512V1.99252"/>
<path transform="matrix(0,1.00002,1.0001,0,114.89311,55.898298)" d="M1.99252 0-1.19551 1.59401 0 0-1.19551-1.59401" fill="#00a800"/>
<path transform="matrix(1.0001,0,0,-1.00002,29.844185,57.890859)" d="M93.37245-4.4361C93.37245-3.7483 92.8149-3.19075 92.1271-3.19075 91.43933-3.19075 90.88176-3.7483 90.88176-4.4361 90.88176-5.12389 91.43933-5.68144 92.1271-5.68144 92.8149-5.68144 93.37245-5.12389 93.37245-4.4361ZM92.1271-4.4361" fill="#ff0000"/>
<path transform="matrix(1.0001,0,0,-1.00002,29.844185,57.890859)" stroke-width=".3985" stroke-linecap="butt" stroke-miterlimit="10" stroke-linejoin="miter" fill="none" stroke="#ff0000" d="M93.37245-4.4361C93.37245-3.7483 92.8149-3.19075 92.1271-3.19075 91.43933-3.19075 90.88176-3.7483 90.88176-4.4361 90.88176-5.12389 91.43933-5.68144 92.1271-5.68144 92.8149-5.68144 93.37245-5.12389 93.37245-4.4361ZM92.1271-4.4361"/>
<path transform="matrix(1.0001,0,0,-1.00002,29.844185,57.890859)" stroke-width=".3985" stroke-linecap="butt" stroke-miterlimit="10" stroke-linejoin="miter" fill="none" stroke="#ff0000" d="M92.1271-4.4361V-1.99252"/>
<path transform="matrix(0,-1.00002,-1.0001,-0,121.9805,59.88342)" d="M1.99252 0-1.19551 1.59401 0 0-1.19551-1.59401" fill="#ff0000"/>
<path transform="matrix(1.0001,0,0,-1.00002,29.844185,57.890859)" d="M100.45917-14.95499C100.45917-14.2672 99.9016-13.70964 99.21382-13.70964 98.52603-13.70964 97.96848-14.2672 97.96848-14.95499 97.96848-15.64276 98.52603-16.20033 99.21382-16.20033 99.9016-16.20033 100.45917-15.64276 100.45917-14.95499ZM99.21382-14.95499" fill="#ff0000"/>
<path transform="matrix(1.0001,0,0,-1.00002,29.844185,57.890859)" stroke-width=".3985" stroke-linecap="butt" stroke-miterlimit="10" stroke-linejoin="miter" fill="none" stroke="#ff0000" d="M100.45917-14.95499C100.45917-14.2672 99.9016-13.70964 99.21382-13.70964 98.52603-13.70964 97.96848-14.2672 97.96848-14.95499 97.96848-15.64276 98.52603-16.20033 99.21382-16.20033 99.9016-16.20033 100.45917-15.64276 100.45917-14.95499ZM99.21382-14.95499"/>
<path transform="matrix(1.0001,0,0,-1.00002,29.844185,57.890859)" stroke-width=".3985" stroke-linecap="butt" stroke-miterlimit="10" stroke-linejoin="miter" fill="none" stroke="#ff0000" d="M99.21382-14.95499V-1.99252"/>
<path transform="matrix(0,-1.00002,-1.0001,-0,129.06793,59.88342)" d="M1.99252 0-1.19551 1.59401 0 0-1.19551-1.59401" fill="#ff0000"/>
<path transform="matrix(1.0001,0,0,-1.00002,29.844185,57.890859)" d="M107.54587-25.24333C107.54587-24.55556 106.98831-23.99799 106.30052-23.99799 105.61275-23.99799 105.05518-24.55556 105.05518-25.24333 105.05518-25.93112 105.61275-26.48868 106.30052-26.48868 106.98831-26.48868 107.54587-25.93112 107.54587-25.24333ZM106.30052-25.24333" fill="#ff0000"/>
<path transform="matrix(1.0001,0,0,-1.00002,29.844185,57.890859)" stroke-width=".3985" stroke-linecap="butt" stroke-miterlimit="10" stroke-linejoin="miter" fill="none" stroke="#ff0000" d="M107.54587-25.24333C107.54587-24.55556 106.98831-23.99799 106.30052-23.99799 105.61275-23.99799 105.05518-24.55556 105.05518-25.24333 105.05518-25.93112 105.61275-26.48868 106.30052-26.48868 106.98831-26.48868 107.54587-25.93112 107.54587-25.24333ZM106.30052-25.24333"/>
<path transform="matrix(1.0001,0,0,-1.00002,29.844185,57.890859)" stroke-width=".3985" stroke-linecap="butt" stroke-miterlimit="10" stroke-linejoin="miter" fill="none" stroke="#ff0000" d="M106.30052-25.24333V-1.99252"/>
<path transform="matrix(0,-1.00002,-1.0001,-0,136.15534,59.88342)" d="M1.99252 0-1.19551 1.59401 0 0-1.19551-1.59401" fill="#ff0000"/>
<path transform="matrix(1.0001,0,0,-1.00002,29.844185,57.890859)" d="M114.63258-34.52516C114.63258-33.83737 114.07501-33.27982 113.38724-33.27982 112.69945-33.27982 112.14189-33.83737 112.14189-34.52516 112.14189-35.21294 112.69945-35.77051 113.38724-35.77051 114.07501-35.77051 114.63258-35.21294 114.63258-34.52516ZM113.38724-34.52516" fill="#ff0000"/>
<path transform="matrix(1.0001,0,0,-1.00002,29.844185,57.890859)" stroke-width=".3985" stroke-linecap="butt" stroke-miterlimit="10" stroke-linejoin="miter" fill="none" stroke="#ff0000" d="M114.63258-34.52516C114.63258-33.83737 114.07501-33.27982 113.38724-33.27982 112.69945-33.27982 112.14189-33.83737 112.14189-34.52516 112.14189-35.21294 112.69945-35.77051 113.38724-35.77051 114.07501-35.77051 114.63258-35.21294 114.63258-34.52516ZM113.38724-34.52516"/>
<path transform="matrix(1.0001,0,0,-1.00002,29.844185,57.890859)" stroke-width=".3985" stroke-linecap="butt" stroke-miterlimit="10" stroke-linejoin="miter" fill="none" stroke="#ff0000" d="M113.38724-34.52516V-1.99252"/>
<path transform="matrix(0,-1.00002,-1.0001,-0,143.24277,59.88342)" d="M1.99252 0-1.19551 1.59401 0 0-1.19551-1.59401" fill="#ff0000"/>
<path transform="matrix(1.0001,0,0,-1.00002,29.844185,57.890859)" d="M121.71927-42.06604C121.71927-41.37825 121.16171-40.8207 120.47392-40.8207 119.78613-40.8207 119.22858-41.37825 119.22858-42.06604 119.22858-42.75383 119.78613-43.31139 120.47392-43.31139 121.16171-43.31139 121.71927-42.75383 121.71927-42.06604ZM120.47392-42.06604" fill="#ff0000"/>
<path transform="matrix(1.0001,0,0,-1.00002,29.844185,57.890859)" stroke-width=".3985" stroke-linecap="butt" stroke-miterlimit="10" stroke-linejoin="miter" fill="none" stroke="#ff0000" d="M121.71927-42.06604C121.71927-41.37825 121.16171-40.8207 120.47392-40.8207 119.78613-40.8207 119.22858-41.37825 119.22858-42.06604 119.22858-42.75383 119.78613-43.31139 120.47392-43.31139 121.16171-43.31139 121.71927-42.75383 121.71927-42.06604ZM120.47392-42.06604"/>
<path transform="matrix(1.0001,0,0,-1.00002,29.844185,57.890859)" stroke-width=".3985" stroke-linecap="butt" stroke-miterlimit="10" stroke-linejoin="miter" fill="none" stroke="#ff0000" d="M120.47392-42.06604V-1.99252"/>
<path transform="matrix(0,-1.00002,-1.0001,-0,150.33016,59.88342)" d="M1.99252 0-1.19551 1.59401 0 0-1.19551-1.59401" fill="#ff0000"/>
<path transform="matrix(1.0001,0,0,-1.00002,29.844185,57.890859)" d="M128.80597-47.23616C128.80597-46.54837 128.24842-45.99081 127.56062-45.99081 126.87285-45.99081 126.31528-46.54837 126.31528-47.23616 126.31528-47.92393 126.87285-48.4815 127.56062-48.4815 128.24842-48.4815 128.80597-47.92393 128.80597-47.23616ZM127.56062-47.23616" fill="#ff0000"/>
<path transform="matrix(1.0001,0,0,-1.00002,29.844185,57.890859)" stroke-width=".3985" stroke-linecap="butt" stroke-miterlimit="10" stroke-linejoin="miter" fill="none" stroke="#ff0000" d="M128.80597-47.23616C128.80597-46.54837 128.24842-45.99081 127.56062-45.99081 126.87285-45.99081 126.31528-46.54837 126.31528-47.23616 126.31528-47.92393 126.87285-48.4815 127.56062-48.4815 128.24842-48.4815 128.80597-47.92393 128.80597-47.23616ZM127.56062-47.23616"/>
<path transform="matrix(1.0001,0,0,-1.00002,29.844185,57.890859)" stroke-width=".3985" stroke-linecap="butt" stroke-miterlimit="10" stroke-linejoin="miter" fill="none" stroke="#ff0000" d="M127.56062-47.23616V-1.99252"/>
<path transform="matrix(0,-1.00002,-1.0001,-0,157.41757,59.88342)" d="M1.99252 0-1.19551 1.59401 0 0-1.19551-1.59401" fill="#ff0000"/>
<path transform="matrix(1.0001,0,0,-1.00002,29.844185,57.890859)" d="M135.89269-49.54678C135.89269-48.859 135.33512-48.30144 134.64734-48.30144 133.95955-48.30144 133.402-48.859 133.402-49.54678 133.402-50.23456 133.95955-50.79213 134.64734-50.79213 135.33512-50.79213 135.89269-50.23456 135.89269-49.54678ZM134.64734-49.54678" fill="#ff0000"/>
<path transform="matrix(1.0001,0,0,-1.00002,29.844185,57.890859)" stroke-width=".3985" stroke-linecap="butt" stroke-miterlimit="10" stroke-linejoin="miter" fill="none" stroke="#ff0000" d="M135.89269-49.54678C135.89269-48.859 135.33512-48.30144 134.64734-48.30144 133.95955-48.30144 133.402-48.859 133.402-49.54678 133.402-50.23456 133.95955-50.79213 134.64734-50.79213 135.33512-50.79213 135.89269-50.23456 135.89269-49.54678ZM134.64734-49.54678"/>
<path transform="matrix(1.0001,0,0,-1.00002,29.844185,57.890859)" stroke-width=".3985" stroke-linecap="butt" stroke-miterlimit="10" stroke-linejoin="miter" fill="none" stroke="#ff0000" d="M134.64734-49.54678V-1.99252"/>
<path transform="matrix(0,-1.00002,-1.0001,-0,164.505,59.88342)" d="M1.99252 0-1.19551 1.59401 0 0-1.19551-1.59401" fill="#ff0000"/>
<path transform="matrix(1.0001,0,0,-1.00002,29.844185,57.890859)" d="M142.97939-48.7003C142.97939-48.01253 142.42183-47.45496 141.73404-47.45496 141.04627-47.45496 140.4887-48.01253 140.4887-48.7003 140.4887-49.38809 141.04627-49.94565 141.73404-49.94565 142.42183-49.94565 142.97939-49.38809 142.97939-48.7003ZM141.73404-48.7003" fill="#ff0000"/>
<path transform="matrix(1.0001,0,0,-1.00002,29.844185,57.890859)" stroke-width=".3985" stroke-linecap="butt" stroke-miterlimit="10" stroke-linejoin="miter" fill="none" stroke="#ff0000" d="M142.97939-48.7003C142.97939-48.01253 142.42183-47.45496 141.73404-47.45496 141.04627-47.45496 140.4887-48.01253 140.4887-48.7003 140.4887-49.38809 141.04627-49.94565 141.73404-49.94565 142.42183-49.94565 142.97939-49.38809 142.97939-48.7003ZM141.73404-48.7003"/>
<path transform="matrix(1.0001,0,0,-1.00002,29.844185,57.890859)" stroke-width=".3985" stroke-linecap="butt" stroke-miterlimit="10" stroke-linejoin="miter" fill="none" stroke="#ff0000" d="M141.73404-48.7003V-1.99252"/>
<path transform="matrix(0,-1.00002,-1.0001,-0,171.5924,59.88342)" d="M1.99252 0-1.19551 1.59401 0 0-1.19551-1.59401" fill="#ff0000"/>
<path transform="matrix(1.0001,0,0,-1.00002,29.844185,57.890859)" d="M150.06609-44.61586C150.06609-43.92807 149.50852-43.37051 148.82074-43.37051 148.13295-43.37051 147.5754-43.92807 147.5754-44.61586 147.5754-45.30363 148.13295-45.8612 148.82074-45.8612 149.50852-45.8612 150.06609-45.30363 150.06609-44.61586ZM148.82074-44.61586" fill="#ff0000"/>
<path transform="matrix(1.0001,0,0,-1.00002,29.844185,57.890859)" stroke-width=".3985" stroke-linecap="butt" stroke-miterlimit="10" stroke-linejoin="miter" fill="none" stroke="#ff0000" d="M150.06609-44.61586C150.06609-43.92807 149.50852-43.37051 148.82074-43.37051 148.13295-43.37051 147.5754-43.92807 147.5754-44.61586 147.5754-45.30363 148.13295-45.8612 148.82074-45.8612 149.50852-45.8612 150.06609-45.30363 150.06609-44.61586ZM148.82074-44.61586"/>
<path transform="matrix(1.0001,0,0,-1.00002,29.844185,57.890859)" stroke-width=".3985" stroke-linecap="butt" stroke-miterlimit="10" stroke-linejoin="miter" fill="none" stroke="#ff0000" d="M148.82074-44.61586V-1.99252"/>
<path transform="matrix(0,-1.00002,-1.0001,-0,178.67981,59.88342)" d="M1.99252 0-1.19551 1.59401 0 0-1.19551-1.59401" fill="#ff0000"/>
<path transform="matrix(1.0001,0,0,-1.00002,29.844185,57.890859)" d="M157.15279-37.43312C157.15279-36.74533 156.59522-36.18777 155.90744-36.18777 155.21965-36.18777 154.6621-36.74533 154.6621-37.43312 154.6621-38.1209 155.21965-38.67847 155.90744-38.67847 156.59522-38.67847 157.15279-38.1209 157.15279-37.43312ZM155.90744-37.43312" fill="#ff0000"/>
<path transform="matrix(1.0001,0,0,-1.00002,29.844185,57.890859)" stroke-width=".3985" stroke-linecap="butt" stroke-miterlimit="10" stroke-linejoin="miter" fill="none" stroke="#ff0000" d="M157.15279-37.43312C157.15279-36.74533 156.59522-36.18777 155.90744-36.18777 155.21965-36.18777 154.6621-36.74533 154.6621-37.43312 154.6621-38.1209 155.21965-38.67847 155.90744-38.67847 156.59522-38.67847 157.15279-38.1209 157.15279-37.43312ZM155.90744-37.43312"/>
<path transform="matrix(1.0001,0,0,-1.00002,29.844185,57.890859)" stroke-width=".3985" stroke-linecap="butt" stroke-miterlimit="10" stroke-linejoin="miter" fill="none" stroke="#ff0000" d="M155.90744-37.43312V-1.99252"/>
<path transform="matrix(0,-1.00002,-1.0001,-0,185.76721,59.88342)" d="M1.99252 0-1.19551 1.59401 0 0-1.19551-1.59401" fill="#ff0000"/>
<path transform="matrix(1.0001,0,0,-1.00002,29.844185,57.890859)" d="M164.23949-27.5107C164.23949-26.8229 163.68193-26.26535 162.99414-26.26535 162.30637-26.26535 161.7488-26.8229 161.7488-27.5107 161.7488-28.19847 162.30637-28.75604 162.99414-28.75604 163.68193-28.75604 164.23949-28.19847 164.23949-27.5107ZM162.99414-27.5107" fill="#ff0000"/>
<path transform="matrix(1.0001,0,0,-1.00002,29.844185,57.890859)" stroke-width=".3985" stroke-linecap="butt" stroke-miterlimit="10" stroke-linejoin="miter" fill="none" stroke="#ff0000" d="M164.23949-27.5107C164.23949-26.8229 163.68193-26.26535 162.99414-26.26535 162.30637-26.26535 161.7488-26.8229 161.7488-27.5107 161.7488-28.19847 162.30637-28.75604 162.99414-28.75604 163.68193-28.75604 164.23949-28.19847 164.23949-27.5107ZM162.99414-27.5107"/>
<path transform="matrix(1.0001,0,0,-1.00002,29.844185,57.890859)" stroke-width=".3985" stroke-linecap="butt" stroke-miterlimit="10" stroke-linejoin="miter" fill="none" stroke="#ff0000" d="M162.99414-27.5107V-1.99252"/>
<path transform="matrix(0,-1.00002,-1.0001,-0,192.85462,59.88342)" d="M1.99252 0-1.19551 1.59401 0 0-1.19551-1.59401" fill="#ff0000"/>
<path transform="matrix(1.0001,0,0,-1.00002,29.844185,57.890859)" d="M171.3262-15.41C171.3262-14.72223 170.76863-14.16466 170.08086-14.16466 169.39307-14.16466 168.83551-14.72223 168.83551-15.41 168.83551-16.0978 169.39307-16.65535 170.08086-16.65535 170.76863-16.65535 171.3262-16.0978 171.3262-15.41ZM170.08086-15.41" fill="#ff0000"/>
<path transform="matrix(1.0001,0,0,-1.00002,29.844185,57.890859)" stroke-width=".3985" stroke-linecap="butt" stroke-miterlimit="10" stroke-linejoin="miter" fill="none" stroke="#ff0000" d="M171.3262-15.41C171.3262-14.72223 170.76863-14.16466 170.08086-14.16466 169.39307-14.16466 168.83551-14.72223 168.83551-15.41 168.83551-16.0978 169.39307-16.65535 170.08086-16.65535 170.76863-16.65535 171.3262-16.0978 171.3262-15.41ZM170.08086-15.41"/>
<path transform="matrix(1.0001,0,0,-1.00002,29.844185,57.890859)" stroke-width=".3985" stroke-linecap="butt" stroke-miterlimit="10" stroke-linejoin="miter" fill="none" stroke="#ff0000" d="M170.08086-15.41V-1.99252"/>
<path transform="matrix(0,-1.00002,-1.0001,-0,199.94205,59.88342)" d="M1.99252 0-1.19551 1.59401 0 0-1.19551-1.59401" fill="#ff0000"/>
</svg>
