<svg xmlns="http://www.w3.org/2000/svg" xmlns:xlink="http://www.w3.org/1999/xlink" xmlns:inkscape="http://www.inkscape.org/namespaces/inkscape" version="1.1" width="102" height="171" viewBox="0 0 102 171">
<defs>
<path id="font_1_1" d="M.47299195 .31976319C.47299195 .38682557 .46998597 .47288514 .43499757 .5479431 .3909912 .64201357 .31498719 .6660156 .25698854 .6660156 .19699097 .6660156 .12098694 .64201357 .07699585 .5459442 .04499817 .47688294 .039993287 .39582826 .039993287 .31976319 .039993287 .25471498 .041992189 .15765381 .084991458 .07858276 .13198853-.0064697267 .20999146-.022460938 .2559967-.022460938 .32099916-.022460938 .394989 .0055389406 .43699647 .097595218 .46699525 .1646576 .47299195 .23971558 .47299195 .31976319M.25698854 .002532959C.22698975 .002532959 .15499878 .016540528 .13598633 .12962342 .12599182 .18867493 .12599182 .2747345 .12599182 .33177186 .12599182 .39982606 .12599182 .47888185 .13798523 .53393557 .1579895 .6230011 .22200012 .64100649 .2559967 .64100649 .2939911 .64100649 .35699464 .62098696 .37599183 .5279236 .3869934 .47288514 .3869934 .39482118 .3869934 .33177186 .3869934 .2697296 .3869934 .18566895 .3769989 .12661743 .35598756 .012542725 .28199769 .002532959 .25698854 .002532959Z"/>
<path id="font_1_6" d="M.10398865 .3444519C.10398865 .32641603 .10398865 .31539918 .117996219 .31539918 .12599182 .31539918 .1289978 .31941224 .1349945 .32843019 .16499329 .3704834 .21299744 .39453126 .2649994 .39453126 .37199403 .39453126 .37199403 .24029541 .37199403 .20425415 .37199403 .17324829 .37199403 .11125183 .34399415 .06637573 .31698609 .024475098 .2749939 .0055389406 .23599243 .0055389406 .1769867 .0055389406 .10998535 .042434694 .085998538 .116256717 .08699036 .116256717 .09298706 .11425781 .099990848 .11425781 .11999512 .11425781 .14898682 .12724304 .14898682 .16325379 .14898682 .19424439 .1269989 .21224976 .099990848 .21224976 .07899475 .21224976 .050994874 .20025635 .050994874 .1602478 .050994874 .069366458 .1269989-.022460938 .23799134-.022460938 .35899354-.022460938 .46199037 .0753479 .46199037 .19924927 .46199037 .3204193 .37599183 .41952516 .2669983 .41952516 .21899414 .41952516 .16999817 .40351869 .1349945 .36747743V.56477358C.16499329 .5557709 .19599915 .55078127 .22698975 .55078127 .34999085 .55078127 .42199708 .6397705 .42199708 .652771 .42199708 .6617737 .41600038 .6657715 .41099549 .6657715 .40899659 .6657715 .40699769 .6657715 .397995 .6607666 .35099793 .6417694 .30499269 .6337738 .2630005 .6337738 .21998596 .6337738 .1749878 .6417694 .1289978 .6607666 .11898804 .6657715 .116989139 .6657715 .115997318 .6657715 .10398865 .6657715 .10398865 .655777 .10398865 .6387787V.3444519Z"/>
<path id="font_1_2" d="M.3039856 .6392822C.3039856 .6642761 .30299378 .666275 .27799989 .666275 .21598816 .60227969 .12399292 .60227969 .09298706 .60227969V.57128909C.11199951 .57128909 .17298889 .57128909 .22698975 .5972748V.08001709C.22698975 .042999269 .22399903 .0309906 .1309967 .0309906H.09899902V0C.1349945 .0029907227 .22399903 .0029907227 .2649994 .0029907227 .30599977 .0029907227 .3959961 .0029907227 .43199159 0V.0309906H.3999939C.30699159 .0309906 .3039856 .042999269 .3039856 .08001709V.6392822Z"/>
<path id="font_1_3" d="M.46199037 .17704773H.43399049C.43199159 .16404724 .42399598 .10501099 .41099549 .08900452 .40499879 .07998657 .33599855 .07998657 .31599427 .07998657H.13798523L.23699951 .17404175C.40098573 .3161316 .46199037 .36915589 .46199037 .4711914 .46199037 .5860901 .36698915 .6660156 .24398804 .6660156 .1289978 .6660156 .050994874 .575119 .050994874 .4841919 .050994874 .43418885 .09399414 .42919923 .102996829 .42919923 .125 .42919923 .15499878 .44519044 .15499878 .48120118 .15499878 .51119998 .13398743 .5332031 .102996829 .5332031 .09799194 .5332031 .09498596 .5332031 .09098816 .53219607 .114990238 .6030731 .1789856 .63500979 .23298645 .63500979 .33499146 .63500979 .36999513 .5401764 .36999513 .4711914 .36999513 .36915589 .29299928 .28611756 .24499512 .23408509L.06199646 .035995485C.050994874 .024993897 .050994874 .022994996 .050994874 0H.43399049L.46199037 .17704773Z"/>
<path id="font_1_4" d="M.30499269 .35195924C.397995 .38697816 .44198609 .46006776 .44198609 .5290985 .44198609 .60606387 .35699464 .6660156 .25299073 .6660156 .14898682 .6660156 .070999149 .60705569 .070999149 .5310974 .070999149 .49809266 .09298706 .47909547 .12199402 .47909547 .15098572 .47909547 .17199707 .50009158 .17199707 .5290985 .17199707 .5640869 .147995 .57910159 .11399841 .57910159 .13999939 .6210327 .20098877 .64100649 .25 .64100649 .33299256 .64100649 .34899903 .5750885 .34899903 .52809146 .34899903 .49809266 .34298707 .45005799 .31799317 .41201783 .2869873 .36695863 .2519989 .36495973 .22299195 .36296083 .19799805 .36094667 .19599915 .36094667 .18798828 .36094667 .1789856 .35995484 .17098999 .35894776 .17098999 .34794618 .17098999 .33496095 .1789856 .33496095 .19599915 .33496095H.24299622C.32998658 .33496095 .36799623 .2646637 .36799623 .16937256 .36799623 .04145813 .2999878 .0055389406 .24899292 .0055389406 .22999573 .0055389406 .1329956 .010528564 .08799744 .0843811 .12399292 .07939148 .1519928 .10437012 .1519928 .13838196 .1519928 .17137146 .1269989 .19238281 .09799194 .19238281 .07299805 .19238281 .042999269 .17736817 .042999269 .13537598 .042999269 .046447755 .13598633-.022460938 .2519989-.022460938 .3769989-.022460938 .46998597 .06741333 .46998597 .16937256 .46998597 .25663758 .40098573 .33093263 .30499269 .35195924Z"/>
<path id="font_1_5" d="M.0289917 .19602967V.16503906H.3019867V.07901001C.3019867 .041992189 .29899598 .0309906 .22399903 .0309906H.20199585V0C.2649994 .0029907227 .33499146 .0029907227 .34199525 .0029907227 .34700013 .0029907227 .4189911 .0029907227 .48199464 0V.0309906H.45999146C.3849945 .0309906 .38198854 .041992189 .38198854 .07901001V.16503906H.48399354V.19602967H.38198854V.64974978C.38198854 .669754 .38198854 .6767578 .36299134 .6767578 .35099793 .6767578 .34999085 .67575076 .34098817 .66174319L.0289917 .19602967M.06098938 .19602967 .30799867 .56581118V.19602967H.06098938Z"/>
</defs>
<path transform="matrix(1.00003,0,0,-1.00003,11.373795,157.35045)" stroke-width=".3985" stroke-linecap="butt" stroke-miterlimit="10" stroke-linejoin="miter" fill="none" stroke="#000000" d="M0 0H87.88046"/>
<path transform="matrix(1.00003,0,0,-1.00003,11.373795,157.35045)" stroke-width=".3985" stroke-linecap="butt" stroke-miterlimit="10" stroke-linejoin="miter" fill="none" stroke="#000000" d="M0 28.3468H87.88046"/>
<path transform="matrix(1.00003,0,0,-1.00003,11.373795,157.35045)" stroke-width=".3985" stroke-linecap="butt" stroke-miterlimit="10" stroke-linejoin="miter" fill="none" stroke="#000000" d="M0 56.69362H87.88046"/>
<path transform="matrix(1.00003,0,0,-1.00003,11.373795,157.35045)" stroke-width=".3985" stroke-linecap="butt" stroke-miterlimit="10" stroke-linejoin="miter" fill="none" stroke="#000000" d="M0 85.04042H87.88046"/>
<path transform="matrix(1.00003,0,0,-1.00003,11.373795,157.35045)" stroke-width=".3985" stroke-linecap="butt" stroke-miterlimit="10" stroke-linejoin="miter" fill="none" stroke="#000000" d="M0 113.38724H87.88046"/>
<path transform="matrix(1.00003,0,0,-1.00003,11.373795,157.35045)" stroke-width=".3985" stroke-linecap="butt" stroke-miterlimit="10" stroke-linejoin="miter" fill="none" stroke="#000000" d="M0 141.73404H87.88046"/>
<path transform="matrix(1.00003,0,0,-1.00003,11.373795,157.35045)" stroke-width=".79701" stroke-linecap="butt" stroke-dasharray=".79701,1.99255" stroke-miterlimit="10" stroke-linejoin="miter" fill="none" stroke="#000000" d="M0 14.17339H87.88046"/>
<path transform="matrix(1.00003,0,0,-1.00003,11.373795,157.35045)" stroke-width=".79701" stroke-linecap="butt" stroke-dasharray=".79701,1.99255" stroke-miterlimit="10" stroke-linejoin="miter" fill="none" stroke="#000000" d="M0 42.5202H87.88046"/>
<path transform="matrix(1.00003,0,0,-1.00003,11.373795,157.35045)" stroke-width=".79701" stroke-linecap="butt" stroke-dasharray=".79701,1.99255" stroke-miterlimit="10" stroke-linejoin="miter" fill="none" stroke="#000000" d="M0 70.867H87.88046"/>
<path transform="matrix(1.00003,0,0,-1.00003,11.373795,157.35045)" stroke-width=".79701" stroke-linecap="butt" stroke-dasharray=".79701,1.99255" stroke-miterlimit="10" stroke-linejoin="miter" fill="none" stroke="#000000" d="M0 99.21382H87.88046"/>
<path transform="matrix(1.00003,0,0,-1.00003,11.373795,157.35045)" stroke-width=".79701" stroke-linecap="butt" stroke-dasharray=".79701,1.99255" stroke-miterlimit="10" stroke-linejoin="miter" fill="none" stroke="#000000" d="M0 127.56062H87.88046"/>
<path transform="matrix(1.00003,0,0,-1.00003,11.373795,157.35045)" stroke-width=".3985" stroke-linecap="butt" stroke-miterlimit="10" stroke-linejoin="miter" fill="none" stroke="#000000" d="M0 0H84.29391"/>
<path transform="matrix(1.00003,0,0,-1.00003,95.670238,157.35045)" d="M3.58653 0C2.52383 .19925 .797 .797-.3985 1.49438V-1.49438C.797-.797 2.52383-.19925 3.58653 0"/>
<path transform="matrix(1.00003,0,0,-1.00003,11.373795,157.35045)" stroke-width=".3985" stroke-linecap="butt" stroke-miterlimit="10" stroke-linejoin="miter" fill="none" stroke="#000000" d="M0 0V152.32089"/>
<path transform="matrix(0,-1.00003,-1.00003,-0,11.373795,5.0249788)" d="M3.58653 0C2.52383 .19925 .797 .797-.3985 1.49438V-1.49438C.797-.797 2.52383-.19925 3.58653 0"/>
<path transform="matrix(1.00003,0,0,-1.00003,11.373795,157.35045)" d="M-5.62444-14.61133H5.6244499V-2.1918H-5.62444Z" fill="#ffffff"/>
<use data-text="0" xlink:href="#font_1_1" transform="matrix(8.966669,0,0,-8.966669,9.069733,168.64179)"/>
<path transform="matrix(1.00003,0,0,-1.00003,11.373795,157.35045)" d="M8.54982-14.61133H19.79871V-2.1918H8.54982Z" fill="#ffffff"/>
<use data-text="5" xlink:href="#font_1_6" transform="matrix(8.966669,0,0,-8.966669,23.244156,168.64179)"/>
<path transform="matrix(1.00003,0,0,-1.00003,11.373795,157.35045)" d="M20.4202-14.61133H36.276834V-2.1918H20.4202Z" fill="#ffffff"/>
<use data-text="1" xlink:href="#font_1_2" transform="matrix(8.966669,0,0,-8.966669,35.11551,168.64179)"/>
<use data-text="0" xlink:href="#font_1_1" transform="matrix(8.966669,0,0,-8.966669,39.71541,168.64179)"/>
<path transform="matrix(1.00003,0,0,-1.00003,11.373795,157.35045)" d="M34.59448-14.61133H50.45111V-2.1918H34.59448Z" fill="#ffffff"/>
<use data-text="1" xlink:href="#font_1_2" transform="matrix(8.966669,0,0,-8.966669,49.289934,168.64179)"/>
<use data-text="5" xlink:href="#font_1_6" transform="matrix(8.966669,0,0,-8.966669,53.88983,168.64179)"/>
<path transform="matrix(1.00003,0,0,-1.00003,11.373795,157.35045)" d="M48.76874-14.61133H64.625377V-2.1918H48.76874Z" fill="#ffffff"/>
<use data-text="2" xlink:href="#font_1_3" transform="matrix(8.966669,0,0,-8.966669,63.464357,168.64179)"/>
<use data-text="0" xlink:href="#font_1_1" transform="matrix(8.966669,0,0,-8.966669,68.064258,168.64179)"/>
<path transform="matrix(1.00003,0,0,-1.00003,11.373795,157.35045)" d="M62.94302-14.61133H78.79965V-2.1918H62.94302Z" fill="#ffffff"/>
<use data-text="2" xlink:href="#font_1_3" transform="matrix(8.966669,0,0,-8.966669,77.639789,168.64179)"/>
<use data-text="5" xlink:href="#font_1_6" transform="matrix(8.966669,0,0,-8.966669,82.239688,168.64179)"/>
<path transform="matrix(1.00003,0,0,-1.00003,11.373795,157.35045)" d="M77.1173-14.61133H92.97393V-2.1918H77.1173Z" fill="#ffffff"/>
<use data-text="3" xlink:href="#font_1_4" transform="matrix(8.966669,0,0,-8.966669,91.81422,168.64179)"/>
<use data-text="0" xlink:href="#font_1_1" transform="matrix(8.966669,0,0,-8.966669,96.414119,168.64179)"/>
<path transform="matrix(1.00003,0,0,-1.00003,11.373795,157.35045)" d="M-13.44069-6.20976H-2.1918V6.2097699H-13.44069Z" fill="#ffffff"/>
<use data-text="0" xlink:href="#font_1_1" transform="matrix(8.966669,0,0,-8.966669,1.2534943,160.23954)"/>
<path transform="matrix(1.00003,0,0,-1.00003,11.373795,157.35045)" d="M-13.44069 22.13704H-2.1918V34.55657H-13.44069Z" fill="#ffffff"/>
<use data-text="1" xlink:href="#font_1_2" transform="matrix(8.966669,0,0,-8.966669,1.2534943,131.89168)"/>
<path transform="matrix(1.00003,0,0,-1.00003,11.373795,157.35045)" d="M-13.44069 50.48384H-2.1918V62.90337H-13.44069Z" fill="#ffffff"/>
<use data-text="2" xlink:href="#font_1_3" transform="matrix(8.966669,0,0,-8.966669,1.2534943,103.54483)"/>
<path transform="matrix(1.00003,0,0,-1.00003,11.373795,157.35045)" d="M-13.44069 78.83066H-2.1918V91.25019H-13.44069Z" fill="#ffffff"/>
<use data-text="3" xlink:href="#font_1_4" transform="matrix(8.966669,0,0,-8.966669,1.2534943,75.19698)"/>
<path transform="matrix(1.00003,0,0,-1.00003,11.373795,157.35045)" d="M-13.44069 107.17746H-2.1918V119.59699H-13.44069Z" fill="#ffffff"/>
<use data-text="4" xlink:href="#font_1_5" transform="matrix(8.966669,0,0,-8.966669,1.2534943,46.84913)"/>
<path transform="matrix(1.00003,0,0,-1.00003,11.373795,157.35045)" d="M-13.44069 135.52428H-2.1918V147.9438H-13.44069Z" fill="#ffffff"/>
<use data-text="5" xlink:href="#font_1_6" transform="matrix(8.966669,0,0,-8.966669,1.2534943,18.501282)"/>
<path transform="matrix(1.00003,0,0,-1.00003,11.373795,157.35045)" stroke-width=".09962" stroke-linecap="butt" stroke-miterlimit="10" stroke-linejoin="miter" fill="none" stroke="#000000" d="M0 0V148.82074"/>
<path transform="matrix(1.00003,0,0,-1.00003,11.373795,157.35045)" stroke-width=".09962" stroke-linecap="butt" stroke-miterlimit="10" stroke-linejoin="miter" fill="none" stroke="#000000" d="M14.17426 0V148.82074"/>
<path transform="matrix(1.00003,0,0,-1.00003,11.373795,157.35045)" stroke-width=".09962" stroke-linecap="butt" stroke-miterlimit="10" stroke-linejoin="miter" fill="none" stroke="#000000" d="M28.34853 0V148.82074"/>
<path transform="matrix(1.00003,0,0,-1.00003,11.373795,157.35045)" stroke-width=".09962" stroke-linecap="butt" stroke-miterlimit="10" stroke-linejoin="miter" fill="none" stroke="#000000" d="M42.5228 0V148.82074"/>
<path transform="matrix(1.00003,0,0,-1.00003,11.373795,157.35045)" stroke-width=".09962" stroke-linecap="butt" stroke-miterlimit="10" stroke-linejoin="miter" fill="none" stroke="#000000" d="M56.69707 0V148.82074"/>
<path transform="matrix(1.00003,0,0,-1.00003,11.373795,157.35045)" stroke-width=".09962" stroke-linecap="butt" stroke-miterlimit="10" stroke-linejoin="miter" fill="none" stroke="#000000" d="M70.87134 0V148.82074"/>
<path transform="matrix(1.00003,0,0,-1.00003,11.373795,157.35045)" stroke-width=".09962" stroke-linecap="butt" stroke-miterlimit="10" stroke-linejoin="miter" fill="none" stroke="#000000" d="M85.04561 0V148.82074"/>
<g>
<path transform="matrix(1.00003,0,0,-1.00003,11.373795,157.35045)" d="M2.83484 56.69362V0H-2.83484V56.69362ZM-2.83484 0" fill="#0000ff" fill-opacity=".3"/>
<path transform="matrix(1.00003,0,0,-1.00003,11.373795,157.35045)" stroke-width=".3985" stroke-linecap="butt" stroke-miterlimit="10" stroke-linejoin="miter" fill="none" stroke="#000000" stroke-opacity=".3" d="M2.83484 56.69362V0H-2.83484V56.69362ZM-2.83484 0"/>
</g>
<path transform="matrix(1.00003,0,0,-1.00003,11.373795,157.35045)" stroke-width=".79701" stroke-linecap="butt" stroke-miterlimit="10" stroke-linejoin="miter" fill="none" stroke="#000000" d="M2.83484 56.69362V0H-2.83484V56.69362ZM-2.83484 0"/>
<path transform="matrix(1.00003,0,0,-1.00003,11.373795,157.35045)" d="M3.52272 56.69362C3.52272 58.63918 1.94556 60.21634 0 60.21634-1.94556 60.21634-3.52272 58.63918-3.52272 56.69362-3.52272 54.74805-1.94556 53.17088 0 53.17088 1.94556 53.17088 3.52272 54.74805 3.52272 56.69362ZM0 56.69362" fill="#0000ff"/>
<path transform="matrix(1.00003,0,0,-1.00003,11.373795,157.35045)" stroke-width=".3985" stroke-linecap="butt" stroke-miterlimit="10" stroke-linejoin="miter" fill="none" stroke="#000000" d="M3.52272 56.69362C3.52272 58.63918 1.94556 60.21634 0 60.21634-1.94556 60.21634-3.52272 58.63918-3.52272 56.69362-3.52272 54.74805-1.94556 53.17088 0 53.17088 1.94556 53.17088 3.52272 54.74805 3.52272 56.69362ZM0 56.69362"/>
<g>
<path transform="matrix(1.00003,0,0,-1.00003,11.373795,157.35045)" d="M17.00911 113.38724V0H11.3394V113.38724ZM11.3394 0" fill="#0000ff" fill-opacity=".3"/>
<path transform="matrix(1.00003,0,0,-1.00003,11.373795,157.35045)" stroke-width=".3985" stroke-linecap="butt" stroke-miterlimit="10" stroke-linejoin="miter" fill="none" stroke="#000000" stroke-opacity=".3" d="M17.00911 113.38724V0H11.3394V113.38724ZM11.3394 0"/>
</g>
<path transform="matrix(1.00003,0,0,-1.00003,11.373795,157.35045)" stroke-width=".79701" stroke-linecap="butt" stroke-miterlimit="10" stroke-linejoin="miter" fill="none" stroke="#000000" d="M17.00911 113.38724V0H11.3394V113.38724ZM11.3394 0"/>
<path transform="matrix(1.00003,0,0,-1.00003,11.373795,157.35045)" d="M17.69698 113.38724C17.69698 115.3328 16.11983 116.90996 14.17426 116.90996 12.2287 116.90996 10.65154 115.3328 10.65154 113.38724 10.65154 111.44167 12.2287 109.8645 14.17426 109.8645 16.11983 109.8645 17.69698 111.44167 17.69698 113.38724ZM14.17426 113.38724" fill="#0000ff"/>
<path transform="matrix(1.00003,0,0,-1.00003,11.373795,157.35045)" stroke-width=".3985" stroke-linecap="butt" stroke-miterlimit="10" stroke-linejoin="miter" fill="none" stroke="#000000" d="M17.69698 113.38724C17.69698 115.3328 16.11983 116.90996 14.17426 116.90996 12.2287 116.90996 10.65154 115.3328 10.65154 113.38724 10.65154 111.44167 12.2287 109.8645 14.17426 109.8645 16.11983 109.8645 17.69698 111.44167 17.69698 113.38724ZM14.17426 113.38724"/>
<g>
<path transform="matrix(1.00003,0,0,-1.00003,11.373795,157.35045)" d="M31.18338 85.04042V0H25.51367V85.04042ZM25.51367 0" fill="#0000ff" fill-opacity=".3"/>
<path transform="matrix(1.00003,0,0,-1.00003,11.373795,157.35045)" stroke-width=".3985" stroke-linecap="butt" stroke-miterlimit="10" stroke-linejoin="miter" fill="none" stroke="#000000" stroke-opacity=".3" d="M31.18338 85.04042V0H25.51367V85.04042ZM25.51367 0"/>
</g>
<path transform="matrix(1.00003,0,0,-1.00003,11.373795,157.35045)" stroke-width=".79701" stroke-linecap="butt" stroke-miterlimit="10" stroke-linejoin="miter" fill="none" stroke="#000000" d="M31.18338 85.04042V0H25.51367V85.04042ZM25.51367 0"/>
<path transform="matrix(1.00003,0,0,-1.00003,11.373795,157.35045)" d="M31.87125 85.04042C31.87125 86.986 30.29408 88.56314 28.34853 88.56314 26.40295 88.56314 24.82579 86.986 24.82579 85.04042 24.82579 83.09486 26.40295 81.5177 28.34853 81.5177 30.29408 81.5177 31.87125 83.09486 31.87125 85.04042ZM28.34853 85.04042" fill="#0000ff"/>
<path transform="matrix(1.00003,0,0,-1.00003,11.373795,157.35045)" stroke-width=".3985" stroke-linecap="butt" stroke-miterlimit="10" stroke-linejoin="miter" fill="none" stroke="#000000" d="M31.87125 85.04042C31.87125 86.986 30.29408 88.56314 28.34853 88.56314 26.40295 88.56314 24.82579 86.986 24.82579 85.04042 24.82579 83.09486 26.40295 81.5177 28.34853 81.5177 30.29408 81.5177 31.87125 83.09486 31.87125 85.04042ZM28.34853 85.04042"/>
<g>
<path transform="matrix(1.00003,0,0,-1.00003,11.373795,157.35045)" d="M45.35765 70.867V0H39.68793V70.867ZM39.68793 0" fill="#0000ff" fill-opacity=".3"/>
<path transform="matrix(1.00003,0,0,-1.00003,11.373795,157.35045)" stroke-width=".3985" stroke-linecap="butt" stroke-miterlimit="10" stroke-linejoin="miter" fill="none" stroke="#000000" stroke-opacity=".3" d="M45.35765 70.867V0H39.68793V70.867ZM39.68793 0"/>
</g>
<path transform="matrix(1.00003,0,0,-1.00003,11.373795,157.35045)" stroke-width=".79701" stroke-linecap="butt" stroke-miterlimit="10" stroke-linejoin="miter" fill="none" stroke="#000000" d="M45.35765 70.867V0H39.68793V70.867ZM39.68793 0"/>
<path transform="matrix(1.00003,0,0,-1.00003,11.373795,157.35045)" d="M46.04552 70.867C46.04552 72.81258 44.46837 74.38974 42.5228 74.38974 40.57724 74.38974 39.00008 72.81258 39.00008 70.867 39.00008 68.92145 40.57724 67.34428 42.5228 67.34428 44.46837 67.34428 46.04552 68.92145 46.04552 70.867ZM42.5228 70.867" fill="#0000ff"/>
<path transform="matrix(1.00003,0,0,-1.00003,11.373795,157.35045)" stroke-width=".3985" stroke-linecap="butt" stroke-miterlimit="10" stroke-linejoin="miter" fill="none" stroke="#000000" d="M46.04552 70.867C46.04552 72.81258 44.46837 74.38974 42.5228 74.38974 40.57724 74.38974 39.00008 72.81258 39.00008 70.867 39.00008 68.92145 40.57724 67.34428 42.5228 67.34428 44.46837 67.34428 46.04552 68.92145 46.04552 70.867ZM42.5228 70.867"/>
<g>
<path transform="matrix(1.00003,0,0,-1.00003,11.373795,157.35045)" d="M59.5319 99.21382V0H53.86221V99.21382ZM53.86221 0" fill="#0000ff" fill-opacity=".3"/>
<path transform="matrix(1.00003,0,0,-1.00003,11.373795,157.35045)" stroke-width=".3985" stroke-linecap="butt" stroke-miterlimit="10" stroke-linejoin="miter" fill="none" stroke="#000000" stroke-opacity=".3" d="M59.5319 99.21382V0H53.86221V99.21382ZM53.86221 0"/>
</g>
<path transform="matrix(1.00003,0,0,-1.00003,11.373795,157.35045)" stroke-width=".79701" stroke-linecap="butt" stroke-miterlimit="10" stroke-linejoin="miter" fill="none" stroke="#000000" d="M59.5319 99.21382V0H53.86221V99.21382ZM53.86221 0"/>
<path transform="matrix(1.00003,0,0,-1.00003,11.373795,157.35045)" d="M60.21979 99.21382C60.21979 101.15938 58.64262 102.73654 56.69707 102.73654 54.7515 102.73654 53.17433 101.15938 53.17433 99.21382 53.17433 97.26825 54.7515 95.6911 56.69707 95.6911 58.64262 95.6911 60.21979 97.26825 60.21979 99.21382ZM56.69707 99.21382" fill="#0000ff"/>
<path transform="matrix(1.00003,0,0,-1.00003,11.373795,157.35045)" stroke-width=".3985" stroke-linecap="butt" stroke-miterlimit="10" stroke-linejoin="miter" fill="none" stroke="#000000" d="M60.21979 99.21382C60.21979 101.15938 58.64262 102.73654 56.69707 102.73654 54.7515 102.73654 53.17433 101.15938 53.17433 99.21382 53.17433 97.26825 54.7515 95.6911 56.69707 95.6911 58.64262 95.6911 60.21979 97.26825 60.21979 99.21382ZM56.69707 99.21382"/>
<g>
<path transform="matrix(1.00003,0,0,-1.00003,11.373795,157.35045)" d="M73.70619 85.04042V0H68.03648V85.04042ZM68.03648 0" fill="#0000ff" fill-opacity=".3"/>
<path transform="matrix(1.00003,0,0,-1.00003,11.373795,157.35045)" stroke-width=".3985" stroke-linecap="butt" stroke-miterlimit="10" stroke-linejoin="miter" fill="none" stroke="#000000" stroke-opacity=".3" d="M73.70619 85.04042V0H68.03648V85.04042ZM68.03648 0"/>
</g>
<path transform="matrix(1.00003,0,0,-1.00003,11.373795,157.35045)" stroke-width=".79701" stroke-linecap="butt" stroke-miterlimit="10" stroke-linejoin="miter" fill="none" stroke="#000000" d="M73.70619 85.04042V0H68.03648V85.04042ZM68.03648 0"/>
<path transform="matrix(1.00003,0,0,-1.00003,11.373795,157.35045)" d="M74.39407 85.04042C74.39407 86.986 72.81691 88.56314 70.87134 88.56314 68.92578 88.56314 67.34862 86.986 67.34862 85.04042 67.34862 83.09486 68.92578 81.5177 70.87134 81.5177 72.81691 81.5177 74.39407 83.09486 74.39407 85.04042ZM70.87134 85.04042" fill="#0000ff"/>
<path transform="matrix(1.00003,0,0,-1.00003,11.373795,157.35045)" stroke-width=".3985" stroke-linecap="butt" stroke-miterlimit="10" stroke-linejoin="miter" fill="none" stroke="#000000" d="M74.39407 85.04042C74.39407 86.986 72.81691 88.56314 70.87134 88.56314 68.92578 88.56314 67.34862 86.986 67.34862 85.04042 67.34862 83.09486 68.92578 81.5177 70.87134 81.5177 72.81691 81.5177 74.39407 83.09486 74.39407 85.04042ZM70.87134 85.04042"/>
<g>
<path transform="matrix(1.00003,0,0,-1.00003,11.373795,157.35045)" d="M87.88046 56.69362V0H82.21075V56.69362ZM82.21075 0" fill="#0000ff" fill-opacity=".3"/>
<path transform="matrix(1.00003,0,0,-1.00003,11.373795,157.35045)" stroke-width=".3985" stroke-linecap="butt" stroke-miterlimit="10" stroke-linejoin="miter" fill="none" stroke="#000000" stroke-opacity=".3" d="M87.88046 56.69362V0H82.21075V56.69362ZM82.21075 0"/>
</g>
<path transform="matrix(1.00003,0,0,-1.00003,11.373795,157.35045)" stroke-width=".79701" stroke-linecap="butt" stroke-miterlimit="10" stroke-linejoin="miter" fill="none" stroke="#000000" d="M87.88046 56.69362V0H82.21075V56.69362ZM82.21075 0"/>
<path transform="matrix(1.00003,0,0,-1.00003,11.373795,157.35045)" d="M88.56833 56.69362C88.56833 58.63918 86.99117 60.21634 85.04561 60.21634 83.10004 60.21634 81.52289 58.63918 81.52289 56.69362 81.52289 54.74805 83.10004 53.17088 85.04561 53.17088 86.99117 53.17088 88.56833 54.74805 88.56833 56.69362ZM85.04561 56.69362" fill="#0000ff"/>
<path transform="matrix(1.00003,0,0,-1.00003,11.373795,157.35045)" stroke-width=".3985" stroke-linecap="butt" stroke-miterlimit="10" stroke-linejoin="miter" fill="none" stroke="#000000" d="M88.56833 56.69362C88.56833 58.63918 86.99117 60.21634 85.04561 60.21634 83.10004 60.21634 81.52289 58.63918 81.52289 56.69362 81.52289 54.74805 83.10004 53.17088 85.04561 53.17088 86.99117 53.17088 88.56833 54.74805 88.56833 56.69362ZM85.04561 56.69362"/>
</svg>
