<svg xmlns="http://www.w3.org/2000/svg" xmlns:xlink="http://www.w3.org/1999/xlink" xmlns:inkscape="http://www.inkscape.org/namespaces/inkscape" version="1.1" width="201" height="105" viewBox="0 0 201 105">
<path transform="matrix(1.00005,0,0,-1.00002,43.61827,89.46347)" stroke-width=".3985" stroke-linecap="butt" stroke-miterlimit="10" stroke-linejoin="miter" fill="none" stroke="#000000" d="M-38.93365 0H152.32089"/>
<path transform="matrix(-1.00005,-0,0,1.00002,4.6826746,89.46347)" d="M3.58653 0C2.52383 .19925 .797 .797-.3985 1.49438V-1.49438C.797-.797 2.52383-.19925 3.58653 0"/>
<path transform="matrix(1.00005,0,0,-1.00002,195.94678,89.46347)" d="M3.58653 0C2.52383 .19925 .797 .797-.3985 1.49438V-1.49438C.797-.797 2.52383-.19925 3.58653 0"/>
<path transform="matrix(1.00005,0,0,-1.00002,43.61827,89.46347)" stroke-width=".3985" stroke-linecap="butt" stroke-miterlimit="10" stroke-linejoin="miter" fill="none" stroke="#000000" d="M0-10.5877V81.45906"/>
<path transform="matrix(0,1.00002,1.00005,0,43.61827,100.051387)" d="M3.58653 0C2.52383 .19925 .797 .797-.3985 1.49438V-1.49438C.797-.797 2.52383-.19925 3.58653 0"/>
<path transform="matrix(0,-1.00002,-1.00005,-0,43.61827,8.002777)" d="M3.58653 0C2.52383 .19925 .797 .797-.3985 1.49438V-1.49438C.797-.797 2.52383-.19925 3.58653 0"/>
<path transform="matrix(1.00005,0,0,-1.00002,43.61827,89.46347)" stroke-width=".79701" stroke-linecap="butt" stroke-miterlimit="10" stroke-linejoin="miter" fill="none" stroke="#000000" d="M0 28.34853 5.90543 32.95122 11.81087 36.23123 17.71631 38.34253 23.62175 39.43869 29.52719 39.6735 35.43263 39.20079 41.33807 38.1747 47.24352 36.74849 53.14896 35.07625 59.0544 33.31168 64.95984 31.60863 70.86528 30.1207 76.7707 29.002 82.67616 28.40613 88.5816 28.48686 94.48705 29.39793 100.39249 31.29333 106.29793 34.32664 112.20337 38.65186 118.10881 44.42262 124.01425 51.79279 129.9197 60.91608 135.82514 71.9463 141.73058 85.03731"/>
<path transform="matrix(1.00005,0,0,-1.00002,43.61827,89.46347)" d="M2.81807 28.34853C2.81807 29.9049 1.55638 31.1666 0 31.1666-1.55638 31.1666-2.81807 29.9049-2.81807 28.34853-2.81807 26.79213-1.55638 25.53044 0 25.53044 1.55638 25.53044 2.81807 26.79213 2.81807 28.34853ZM0 28.34853" fill="#0000ff"/>
<path transform="matrix(1.00005,0,0,-1.00002,43.61827,89.46347)" d="M144.55213 85.04561C144.55213 86.602 143.29044 87.8637 141.73404 87.8637 140.17765 87.8637 138.91596 86.602 138.91596 85.04561 138.91596 83.48921 140.17765 82.22752 141.73404 82.22752 143.29044 82.22752 144.55213 83.48921 144.55213 85.04561ZM141.73404 85.04561" fill="#0000ff"/>
<path transform="matrix(1.00005,0,0,-1.00002,43.61827,89.46347)" d="M31.16489 39.68793C31.16489 41.24432 29.9032 42.50601 28.3468 42.50601 26.7904 42.50601 25.52872 41.24432 25.52872 39.68793 25.52872 38.13155 26.7904 36.86986 28.3468 36.86986 29.9032 36.86986 31.16489 38.13155 31.16489 39.68793ZM28.3468 39.68793" fill="#ff0000"/>
<path transform="matrix(1.00005,0,0,-1.00002,43.61827,89.46347)" d="M87.8585 28.34853C87.8585 29.9049 86.59682 31.1666 85.04042 31.1666 83.48402 31.1666 82.22234 29.9049 82.22234 28.34853 82.22234 26.79213 83.48402 25.53044 85.04042 25.53044 86.59682 25.53044 87.8585 26.79213 87.8585 28.34853ZM85.04042 28.34853" fill="#ff0000"/>
</svg>
