<svg xmlns="http://www.w3.org/2000/svg" xmlns:xlink="http://www.w3.org/1999/xlink" xmlns:inkscape="http://www.inkscape.org/namespaces/inkscape" version="1.1" width="258" height="116" viewBox="0 0 258 116">
<defs>
<path id="font_1_3" d="M.48599244 .38136292C.48999024 .39537049 .48999024 .39736939 .48999024 .40437318 .48999024 .42237855 .47599793 .43138124 .46099855 .43138124 .45098878 .43138124 .43499757 .42536927 .42599488 .41036988 .42399598 .405365 .41600038 .37435914 .4119873 .35635377 .40499879 .33035279 .397995 .30334474 .3919983 .27633668L.34700013 .09628296C.34298707 .08126831 .2999878 .011245728 .23399353 .011245728 .18299866 .011245728 .17199707 .055267335 .17199707 .0922699 .17199707 .1382904 .18899536 .20030213 .22299195 .28833009 .23899842 .3293457 .24299622 .3403473 .24299622 .36035157 .24299622 .405365 .21099854 .4423828 .16099549 .4423828 .06599426 .4423828 .0289917 .29733277 .0289917 .28833009 .0289917 .27833558 .038986207 .27833558 .040985109 .27833558 .050994874 .27833558 .051986696 .28033448 .056991579 .29634095 .083999637 .3903656 .12399292 .42037965 .1579895 .42037965 .1659851 .42037965 .18299866 .42037965 .18299866 .3883667 .18299866 .36335755 .17298889 .3373413 .1659851 .31834413 .12599182 .21231079 .10798645 .1552887 .10798645 .10827637 .10798645 .019256592 .17098999-.0107421879 .22999573-.0107421879 .2689972-.0107421879 .30299378 .0062561037 .33099366 .03425598 .31799317-.017745972 .30599977-.06674194 .2659912-.11973572 .23999024-.15385437 .20199585-.18309021 .1559906-.18309021 .14199829-.18309021 .09700012-.18005371 .07998657-.14074707 .09599304-.14074707 .10899353-.14074707 .12298584-.1287384 .1329956-.11973572 .14299011-.10673523 .14299011-.08773804 .14299011-.056747438 .115997318-.052734376 .10598755-.052734376 .08299255-.052734376 .049987794-.068740848 .049987794-.11773682 .049987794-.16796875 .09399414-.20507813 .1559906-.20507813 .25898744-.20507813 .3619995-.11373901 .3899994-.00074768069L.48599244 .38136292Z"/>
<path id="font_1_2" d="M.33399964 .30233766C.33999635 .32835389 .36299134 .42037965 .43299867 .42037965 .43798829 .42037965 .46199037 .42037965 .48298646 .40734864 .45498658 .402359 .43499757 .37734986 .43499757 .35334779 .43499757 .33735658 .44599916 .31835938 .47299195 .31835938 .49499513 .31835938 .5269928 .3363495 .5269928 .37635804 .5269928 .42837525 .46798707 .4423828 .43399049 .4423828 .37599183 .4423828 .34098817 .38935853 .32899476 .36634828 .3039856 .43237306 .25 .4423828 .22099304 .4423828 .116989139 .4423828 .05999756 .3133545 .05999756 .28834535 .05999756 .27833558 .069992069 .27833558 .07199097 .27833558 .07998657 .27833558 .08299255 .28033448 .084991458 .28933717 .11898804 .39535523 .18499756 .42037965 .21899414 .42037965 .23799134 .42037965 .272995 .4113617 .272995 .35334779 .272995 .32235719 .2559967 .25532533 .21899414 .11528015 .20298767 .053268434 .16799927 .011245728 .12399292 .011245728 .117996219 .011245728 .09498596 .011245728 .07398987 .024276734 .09899902 .029266358 .12098694 .05027771 .12098694 .07827759 .12098694 .105270389 .09899902 .11328125 .083999637 .11328125 .053985597 .11328125 .0289917 .08728027 .0289917 .055267335 .0289917 .009246826 .07899475-.0107421879 .12298584-.0107421879 .18899536-.0107421879 .22499085 .059280397 .22799683 .0652771 .23999024 .028274537 .27598573-.0107421879 .33599855-.0107421879 .43899537-.0107421879 .49598695 .118270877 .49598695 .14328003 .49598695 .1532898 .4869995 .1532898 .48399354 .1532898 .47499085 .1532898 .47299195 .14929199 .47099305 .14228821 .43798829 .03527832 .36999513 .011245728 .33799745 .011245728 .29899598 .011245728 .2829895 .043273927 .2829895 .07727051 .2829895 .09927368 .2889862 .121276859 .2999878 .16529846L.33399964 .30233766Z"/>
<path id="font_2_82" d="M.4189911 0V.0309906H.3869934C.29699708 .0309906 .2939911 .041992189 .2939911 .07902527V.64012148C.2939911 .6640167 .2939911 .6660156 .2709961 .6660156 .20899964 .60227969 .12098694 .60227969 .08898926 .60227969V.57128909C.10899353 .57128909 .16799927 .57128909 .21998596 .5972748V.07902527C.21998596 .042999269 .21699524 .0309906 .1269989 .0309906H.09498596V0C.12998963 .0029907227 .21699524 .0029907227 .25698854 .0029907227 .29699708 .0029907227 .38398744 .0029907227 .4189911 0Z"/>
<path id="font_2_107" d="M.44898988 .17396546H.42399598C.4189911 .14398194 .4119873 .099990848 .4019928 .084991458 .394989 .07699585 .32899476 .07699585 .30699159 .07699585H.1269989L.23298645 .17996216C.3889923 .31803895 .44898988 .37210084 .44898988 .47216798 .44898988 .5860901 .35899354 .6660156 .23699951 .6660156 .12399292 .6660156 .049987794 .57411196 .049987794 .48516847 .049987794 .4291687 .099990848 .4291687 .102996829 .4291687 .11999512 .4291687 .15499878 .44117738 .15499878 .48217774 .15499878 .5081787 .13699341 .5341797 .101989749 .5341797 .09399414 .5341797 .09199524 .5341797 .08898926 .5331726 .11199951 .59806826 .1659851 .63500979 .22399903 .63500979 .31498719 .63500979 .35798646 .5541382 .35798646 .47216798 .35798646 .39196778 .30799867 .31297303 .25299073 .25097657L.06098938 .036987306C.049987794 .025985718 .049987794 .023986817 .049987794 0H.42099L.44898988 .17396546Z"/>
<path id="font_2_106" d="M.45700074 .17037964C.45700074 .252594 .3939972 .33088685 .2899933 .35191346 .37199403 .37893678 .42999269 .4490509 .42999269 .52809146 .42999269 .6100464 .34199525 .6660156 .24598694 .6660156 .14498902 .6660156 .068984989 .60606387 .068984989 .53009036 .068984989 .49710084 .09098816 .47808839 .11999512 .47808839 .15098572 .47808839 .17098999 .50009158 .17098999 .5290985 .17098999 .57910159 .12399292 .57910159 .10899353 .57910159 .13999939 .62802127 .20599365 .64100649 .24198914 .64100649 .2829895 .64100649 .33799745 .6190338 .33799745 .5290985 .33799745 .51708987 .33599855 .45906068 .30999757 .4149933 .27999879 .36691285 .24598694 .36390687 .22099304 .36291505 .21299744 .36190797 .18899536 .35990907 .18199158 .35990907 .17399597 .35890199 .16699219 .35791017 .16699219 .3479004 .16699219 .33691407 .17399597 .33691407 .19099427 .33691407H.23498535C.31698609 .33691407 .35398866 .2686615 .35398866 .17037964 .35398866 .034469606 .2849884 .0055389406 .24099732 .0055389406 .19799805 .0055389406 .12298584 .022491456 .08799744 .08137512 .12298584 .07637024 .1539917 .09837341 .1539917 .1363678 .1539917 .17237854 .1269989 .19238281 .09799194 .19238281 .07398987 .19238281 .041992189 .17837525 .041992189 .1343689 .041992189 .043441774 .1349945-.022460938 .24398804-.022460938 .3659973-.022460938 .45700074 .06838989 .45700074 .17037964Z"/>
<path id="font_2_57" d="M.47099305 .16503906V.19602967H.37098695V.6507721C.37098695 .6707611 .37098695 .6767578 .35499574 .6767578 .34599305 .6767578 .34298707 .6767578 .33499146 .6647644L.027999878 .19602967V.16503906H.2939911V.07800293C.2939911 .041992189 .2919922 .0309906 .21798706 .0309906H.19699097V0C.23799134 .0029907227 .2899933 .0029907227 .33198548 .0029907227 .37399293 .0029907227 .4269867 .0029907227 .46798707 0V.0309906H.44699098C.37298585 .0309906 .37098695 .041992189 .37098695 .07800293V.16503906H.47099305M.2999878 .19602967H.055999757L.2999878 .56881716V.19602967Z"/>
<path id="font_2_56" d="M.44898988 .20091248C.44898988 .31991578 .36698915 .41992188 .25898744 .41992188 .21099854 .41992188 .16799927 .4039154 .13198853 .36891175V.5641022C.1519928 .55778506 .18499756 .55078127 .21699524 .55078127 .33999635 .55078127 .4099884 .6418457 .4099884 .65493777 .4099884 .6609802 .40699769 .6660156 .3999939 .6660156 .3999939 .66607668 .39698792 .66607668 .3919983 .66308596 .37199403 .65408328 .32299806 .63378909 .2559967 .63378909 .21598816 .63409426 .16999817 .641098 .12298584 .6621094 .114990238 .6651001 .11099243 .6651001 .11099243 .6651001 .100997928 .66508486 .100997928 .657074 .100997928 .64108279V.3447113C.100997928 .3266449 .100997928 .31861878 .114990238 .31861878 .12199402 .31861878 .12399292 .32164 .12799073 .32765199 .13899231 .34371949 .17599488 .3979187 .25698854 .3979187 .30899049 .3979187 .33399964 .3517456 .34199525 .3336792 .35798646 .2965393 .3600006 .2574005 .3600006 .20721436 .3600006 .17218018 .3600006 .112197879 .33599855 .07032776 .31199647 .031448366 .2749939 .0055389406 .22898865 .0055389406 .1559906 .0055389406 .09899902 .05836487 .08198547 .1171875 .084991458 .11685181 .08799744 .115859989 .09899902 .115859989 .13198853 .115859989 .14898682 .14085388 .14898682 .16485596 .14898682 .18885803 .13198853 .21386719 .09899902 .21386719 .084991458 .21386719 .049987794 .2068634 .049987794 .16085816 .049987794 .07432556 .11898804-.022460938 .23098755-.022460938 .34700013-.022460938 .44898988 .07331848 .44898988 .20019531V.20091248Z"/>
<path id="font_2_101" d="M.45700074 .2036438C.45700074 .33070375 .36799623 .4267578 .25698854 .4267578 .18899536 .4267578 .1519928 .37573243 .13198853 .327713V.35173036C.13198853 .6047821 .2559967 .64100649 .30699159 .64100649 .33099366 .64100649 .37298585 .634964 .394989 .6007538 .37998963 .6007538 .33999635 .6007538 .33999635 .5557556 .33999635 .524765 .3639984 .5097656 .38598634 .5097656 .4019928 .5097656 .43199159 .51875308 .43199159 .5577545 .43199159 .6178589 .3880005 .6660156 .30499269 .6660156 .1769867 .6660156 .041992189 .5367584 .041992189 .31570436 .041992189 .048553468 .1579895-.022460938 .25099183-.022460938 .3619995-.022460938 .45700074 .07156372 .45700074 .2036438M.36698915 .20463562C.36698915 .15661621 .36698915 .10658264 .34999085 .0705719 .31999208 .010528564 .27398683 .0055389406 .25099183 .0055389406 .18798828 .0055389406 .1579895 .06556702 .1519928 .080566409 .13398743 .127594 .13398743 .2076416 .13398743 .22564698 .13398743 .30369569 .1659851 .40374757 .2559967 .40374757 .27198792 .40374757 .31799317 .40374757 .34899903 .34172059 .36698915 .30470277 .36698915 .2536621 .36698915 .20463562Z"/>
<path id="font_2_100" d="M.4850006 .6435547H.24198914C.11999512 .6435547 .117996219 .6566467 .11399841 .67578127H.08898926L.055999757 .46954347H.08099365C.083999637 .48554994 .09298706 .54855349 .10598755 .5605469 .11299133 .5665436 .19099427 .5665436 .20399475 .5665436H.41099549L.29899598 .40853883C.20899964 .2735443 .17599488 .13453675 .17599488 .03253174 .17599488 .022537232 .17599488-.022460938 .22200012-.022460938 .2679901-.022460938 .2679901 .022537232 .2679901 .03253174V.08354187C.2679901 .13853455 .2709961 .19354248 .2789917 .24754334 .2829895 .27053834 .29699708 .35653688 .34098817 .41854859L.47599793 .608551C.4850006 .62054446 .4850006 .62254336 .4850006 .6435547Z"/>
<path id="font_1_1" d="M.36698915 .3996582H.45298768C.47299195 .3996582 .48298646 .3996582 .48298646 .41966249 .48298646 .43066407 .47299195 .43066407 .45599366 .43066407H.37298585L.3939972 .5449524C.397995 .5660095 .4119873 .6370239 .41799928 .6490326 .4269867 .66804507 .44400025 .68307498 .46499635 .68307498 .46899415 .68307498 .49499513 .68307498 .5139923 .66503909 .46998597 .661026 .45999146 .6260376 .45999146 .6110382 .45999146 .58802798 .47799684 .57603457 .49699403 .57603457 .522995 .57603457 .5519867 .5980377 .5519867 .6360321 .5519867 .6820679 .5059967 .7050781 .46499635 .7050781 .43099977 .7050781 .36799623 .68707278 .33799745 .58802798 .33198548 .56700137 .32899476 .5569763 .30499269 .43066407H.23599243C.21699524 .43066407 .20599365 .43066407 .20599365 .4116516 .20599365 .3996582 .21499634 .3996582 .23399353 .3996582H.2999878L.22499085 .0048828127C.20698548-.09207153 .18998719-.18309021 .13798523-.18309021 .13398743-.18309021 .10899353-.18309021 .08999634-.16506958 .13598633-.1620636 .14498902-.12606812 .14498902-.111068729 .14498902-.08807373 .1269989-.07606506 .10798645-.07606506 .08198547-.07606506 .052993776-.09806824 .052993776-.13606262 .052993776-.18109131 .09700012-.20507813 .13798523-.20507813 .19299317-.20507813 .23298645-.14607239 .25099183-.108062747 .2829895-.04508972 .30599977 .07583618 .30699159 .082839969L.36698915 .3996582Z"/>
<path id="font_3_1" d="M.33099366-.2400055C.33099366-.23701477 .33099366-.23500061 .31399537-.21800232 .18899536-.0920105 .15699768 .09700012 .15699768 .25 .15699768 .42399598 .19499207 .59799197 .31799317 .72299197 .33099366 .73498538 .33099366 .7369995 .33099366 .73999026 .33099366 .746994 .32699586 .75 .32099916 .75 .31098939 .75 .22099304 .6819916 .1619873 .5549927 .11099243 .44499208 .09899902 .33399964 .09899902 .25 .09899902 .17199707 .10998535 .050994874 .16499329-.06201172 .22499085-.18501282 .31098939-.25 .32099916-.25 .32699586-.25 .33099366-.24700928 .33099366-.2400055Z"/>
<path id="font_3_2" d="M.2889862 .25C.2889862 .32798768 .27799989 .44898988 .22299195 .56199648 .16299439 .68499758 .07699585 .75 .066986087 .75 .06098938 .75 .056991579 .74598696 .056991579 .73999026 .056991579 .7369995 .056991579 .73498538 .07598877 .71699526 .17399597 .6179962 .23098755 .45899964 .23098755 .25 .23098755 .07899475 .19400025-.09700012 .069992069-.2230072 .056991579-.23500061 .056991579-.23701477 .056991579-.2400055 .056991579-.2460022 .06098938-.25 .066986087-.25 .07699585-.25 .16699219-.18200684 .22599793-.055007936 .2769928 .054992677 .2889862 .16600037 .2889862 .25Z"/>
<path id="font_2_88" d="M.19198609 .052993776C.19198609 .08198547 .16799927 .10598755 .13899231 .10598755 .10998535 .10598755 .085998538 .08198547 .085998538 .052993776 .085998538 .023986817 .10998535 0 .13899231 0 .16799927 0 .19198609 .023986817 .19198609 .052993776Z"/>
<path id="font_2_51" d="M.45700074 .16764832C.45700074 .20367432 .44599916 .24871826 .4079895 .29074098 .3889923 .31176759 .37298585 .32176209 .30899049 .36180116 .3809967 .39881898 .42999269 .4508667 .42999269 .51690676 .42999269 .6089783 .34098817 .6660156 .25 .6660156 .1499939 .6660156 .068984989 .5919647 .068984989 .49890138 .068984989 .48088075 .070999149 .43585206 .11299133 .38882447 .12399292 .3768158 .16099549 .35179139 .18598938 .33477784 .12799073 .30575563 .041992189 .24971009 .041992189 .15063477 .041992189 .044555665 .14399719-.022460938 .24899292-.022460938 .3619995-.022460938 .45700074 .060577394 .45700074 .16764832M.38598634 .51690676C.38598634 .45986939 .34700013 .41183473 .2869873 .3768158L.16299439 .4568634C.116989139 .4868927 .11299133 .5209198 .11299133 .53793337 .11299133 .5989685 .17799378 .64100649 .24899292 .64100649 .32199098 .64100649 .38598634 .588974 .38598634 .51690676M.40699769 .13162232C.40699769 .05757141 .33198548 .0055389406 .25 .0055389406 .1639862 .0055389406 .09199524 .06758118 .09199524 .15063477 .09199524 .2086792 .12399292 .2727356 .20899964 .31976319L.33198548 .24171448C.3600006 .22268677 .40699769 .19267273 .40699769 .13162232Z"/>
</defs>
<path transform="matrix(1.0001,0,0,-1.00002,29.844185,57.890859)" stroke-width="1.19553" stroke-linecap="butt" stroke-miterlimit="10" stroke-linejoin="miter" fill="none" stroke="#000000" d="M0-50.95506V50.95506"/>
<path transform="matrix(0,1.00002,1.0001,0,29.844185,108.84694)" d="M5.73854 0C4.0382 .31879 1.27522 1.27522-.6376 2.39105V-2.39105C1.27522-1.27522 4.0382-.31879 5.73854 0"/>
<path transform="matrix(0,-1.00002,-1.0001,-0,29.844185,6.9347765)" d="M5.73854 0C4.0382 .31879 1.27522 1.27522-.6376 2.39105V-2.39105C1.27522-1.27522 4.0382-.31879 5.73854 0"/>
<use data-text="y" xlink:href="#font_1_3" transform="matrix(9.963596,0,0,-9.962799,20.683266,9.403885)"/>
<path transform="matrix(1.0001,0,0,-1.00002,29.844185,57.890859)" stroke-width="1.19553" stroke-linecap="butt" stroke-miterlimit="10" stroke-linejoin="miter" fill="none" stroke="#000000" d="M-22.60825 0H221.03592"/>
<path transform="matrix(-1.0001,-0,0,1.00002,7.233673,57.890859)" d="M5.73854 0C4.0382 .31879 1.27522 1.27522-.6376 2.39105V-2.39105C1.27522-1.27522 4.0382-.31879 5.73854 0"/>
<path transform="matrix(1.0001,0,0,-1.00002,250.90222,57.890859)" d="M5.73854 0C4.0382 .31879 1.27522 1.27522-.6376 2.39105V-2.39105C1.27522-1.27522 4.0382-.31879 5.73854 0"/>
<use data-text="x" xlink:href="#font_1_2" transform="matrix(9.963596,0,0,-9.962799,247.02791,53.97278)"/>
<path transform="matrix(1.0001,0,0,-1.00002,29.844185,57.890859)" stroke-width=".3985" stroke-linecap="butt" stroke-miterlimit="10" stroke-linejoin="miter" fill="none" stroke="#000000" d="M29.68463 2.83484V-2.83484"/>
<use data-text="1" xlink:href="#font_2_82" transform="matrix(9.963596,0,0,-9.962799,57.040906,70.88112)"/>
<path transform="matrix(1.0001,0,0,-1.00002,29.844185,57.890859)" stroke-width=".3985" stroke-linecap="butt" stroke-miterlimit="10" stroke-linejoin="miter" fill="none" stroke="#000000" d="M59.36928 2.83484V-2.83484"/>
<use data-text="2" xlink:href="#font_2_107" transform="matrix(9.963596,0,0,-9.962799,86.728878,70.88112)"/>
<path transform="matrix(1.0001,0,0,-1.00002,29.844185,57.890859)" stroke-width=".3985" stroke-linecap="butt" stroke-miterlimit="10" stroke-linejoin="miter" fill="none" stroke="#000000" d="M89.05394 2.83484V-2.83484"/>
<use data-text="3" xlink:href="#font_2_106" transform="matrix(9.963596,0,0,-9.962799,116.41585,70.88112)"/>
<path transform="matrix(1.0001,0,0,-1.00002,29.844185,57.890859)" stroke-width=".3985" stroke-linecap="butt" stroke-miterlimit="10" stroke-linejoin="miter" fill="none" stroke="#000000" d="M118.73859 2.83484V-2.83484"/>
<use data-text="4" xlink:href="#font_2_57" transform="matrix(9.963596,0,0,-9.962799,146.10382,70.99012)"/>
<path transform="matrix(1.0001,0,0,-1.00002,29.844185,57.890859)" stroke-width=".3985" stroke-linecap="butt" stroke-miterlimit="10" stroke-linejoin="miter" fill="none" stroke="#000000" d="M148.42324 2.83484V-2.83484"/>
<use data-text="5" xlink:href="#font_2_56" transform="matrix(9.963596,0,0,-9.962799,175.79178,70.88112)"/>
<path transform="matrix(1.0001,0,0,-1.00002,29.844185,57.890859)" stroke-width=".3985" stroke-linecap="butt" stroke-miterlimit="10" stroke-linejoin="miter" fill="none" stroke="#000000" d="M178.1079 2.83484V-2.83484"/>
<use data-text="6" xlink:href="#font_2_101" transform="matrix(9.963596,0,0,-9.962799,205.47876,70.88112)"/>
<path transform="matrix(1.0001,0,0,-1.00002,29.844185,57.890859)" stroke-width=".3985" stroke-linecap="butt" stroke-miterlimit="10" stroke-linejoin="miter" fill="none" stroke="#000000" d="M207.79254 2.83484V-2.83484"/>
<use data-text="7" xlink:href="#font_2_100" transform="matrix(9.963596,0,0,-9.962799,235.16672,70.98012)"/>
<g>
<path transform="matrix(1.0001,0,0,-1.00002,29.844185,57.890859)" d="M0 0C0 0 2.68071 .21794 3.7103 .45457 4.73988 .69121 6.39102 1.2702 7.42061 1.70549 8.4502 2.14076 10.10133 3.00066 11.1309 3.59178 12.16049 4.1829 13.81165 5.25914 14.84123 5.96597 15.87082 6.6728 17.52196 7.90231 18.55154 8.6862 19.58113 9.4701 21.23225 10.79259 22.26184 11.6158 23.29143 12.439 24.94258 13.79099 25.97217 14.61934 27.00174 15.4477 28.6529 16.78642 29.68248 17.5861 30.71207 18.3858 32.36319 19.6442 33.39278 20.3829 34.42236 21.12163 36.07352 22.26071 37.1031 22.91023 38.13268 23.55974 39.78381 24.52962 40.8134 25.06427 41.84299 25.59892 43.49413 26.36624 44.52371 26.7637 45.5533 27.16115 47.20445 27.68718 48.23402 27.92896 49.26361 28.17075 50.91475 28.4344 51.94434 28.50641 52.97392 28.57841 54.62506 28.55579 55.65465 28.448 56.68423 28.34023 58.33537 28.02277 59.36496 27.72955 60.39455 27.43634 62.04568 26.81454 63.07527 26.33463 64.10484 25.85469 65.756 24.9334 66.78558 24.27055 67.81517 23.60773 69.46631 22.3954 70.4959 21.55725 71.52548 20.7191 73.17662 19.23137 74.2062 18.22974 75.23578 17.2281 76.88693 15.48654 77.91652 14.33818 78.9461 13.18982 80.59723 11.22836 81.62682 9.95313 82.6564 8.67789 84.30756 6.5269 85.33713 5.14719 86.36671 3.76747 89.04745 .00906 89.04745 .00906Z" fill-opacity=".2"/>
<path transform="matrix(1.0001,0,0,-1.00002,29.844185,57.890859)" stroke-width=".3985" stroke-linecap="butt" stroke-miterlimit="10" stroke-linejoin="miter" fill="none" stroke="#000000" stroke-opacity=".2" d="M0 0C0 0 2.68071 .21794 3.7103 .45457 4.73988 .69121 6.39102 1.2702 7.42061 1.70549 8.4502 2.14076 10.10133 3.00066 11.1309 3.59178 12.16049 4.1829 13.81165 5.25914 14.84123 5.96597 15.87082 6.6728 17.52196 7.90231 18.55154 8.6862 19.58113 9.4701 21.23225 10.79259 22.26184 11.6158 23.29143 12.439 24.94258 13.79099 25.97217 14.61934 27.00174 15.4477 28.6529 16.78642 29.68248 17.5861 30.71207 18.3858 32.36319 19.6442 33.39278 20.3829 34.42236 21.12163 36.07352 22.26071 37.1031 22.91023 38.13268 23.55974 39.78381 24.52962 40.8134 25.06427 41.84299 25.59892 43.49413 26.36624 44.52371 26.7637 45.5533 27.16115 47.20445 27.68718 48.23402 27.92896 49.26361 28.17075 50.91475 28.4344 51.94434 28.50641 52.97392 28.57841 54.62506 28.55579 55.65465 28.448 56.68423 28.34023 58.33537 28.02277 59.36496 27.72955 60.39455 27.43634 62.04568 26.81454 63.07527 26.33463 64.10484 25.85469 65.756 24.9334 66.78558 24.27055 67.81517 23.60773 69.46631 22.3954 70.4959 21.55725 71.52548 20.7191 73.17662 19.23137 74.2062 18.22974 75.23578 17.2281 76.88693 15.48654 77.91652 14.33818 78.9461 13.18982 80.59723 11.22836 81.62682 9.95313 82.6564 8.67789 84.30756 6.5269 85.33713 5.14719 86.36671 3.76747 89.04745 .00906 89.04745 .00906Z"/>
</g>
<g>
<path transform="matrix(1.0001,0,0,-1.00002,29.844185,57.890859)" d="M89.05394 0C89.05394 0 91.73466-3.86263 92.76424-5.37125 93.79382-6.87987 95.44498-9.34363 96.47456-10.87314 97.50415-12.40263 99.15527-14.87517 100.18486-16.3949 101.21445-17.91463 102.86559-20.34784 103.89517-21.82628 104.92476-23.30472 106.57591-25.6443 107.6055-27.05049 108.63507-28.45667 110.28621-30.6571 111.3158-31.96109 112.34538-33.26506 113.99652-35.27559 115.02611-36.44867 116.0557-37.62173 117.70685-39.40053 118.73643-40.4159 119.766-41.43126 121.41714-42.93289 122.44673-43.76677 123.47632-44.60066 125.12746-45.79431 126.15704-46.42601 127.18663-47.05772 128.83777-47.90767 129.86734-48.31966 130.89693-48.73166 132.54808-49.21661 133.57767-49.39539 134.60726-49.57416 136.25839-49.67137 137.28798-49.6082 138.31757-49.54501 139.9687-49.24973 140.99828-48.93994 142.02787-48.63014 143.67902-47.93105 144.7086-47.37544 145.73818-46.81984 147.38933-45.73259 148.41892-44.93549 149.4485-44.13838 151.09963-42.65994 152.12921-41.63048 153.1588-40.60101 154.80995-38.7627 155.83954-37.51573 156.86911-36.26878 158.52027-34.08948 159.54985-32.6432 160.57944-31.19693 162.23056-28.71495 163.26015-27.092 164.28974-25.46906 165.94089-22.71965 166.97046-20.94608 168.00005-19.17249 169.65119-16.20383 170.68077-14.3092 171.71036-12.41458 173.3615-9.27448 174.39109-7.29085 175.42067-5.30722 178.1014-.01253 178.1014-.01253Z" fill-opacity=".2"/>
<path transform="matrix(1.0001,0,0,-1.00002,29.844185,57.890859)" stroke-width=".3985" stroke-linecap="butt" stroke-miterlimit="10" stroke-linejoin="miter" fill="none" stroke="#000000" stroke-opacity=".2" d="M89.05394 0C89.05394 0 91.73466-3.86263 92.76424-5.37125 93.79382-6.87987 95.44498-9.34363 96.47456-10.87314 97.50415-12.40263 99.15527-14.87517 100.18486-16.3949 101.21445-17.91463 102.86559-20.34784 103.89517-21.82628 104.92476-23.30472 106.57591-25.6443 107.6055-27.05049 108.63507-28.45667 110.28621-30.6571 111.3158-31.96109 112.34538-33.26506 113.99652-35.27559 115.02611-36.44867 116.0557-37.62173 117.70685-39.40053 118.73643-40.4159 119.766-41.43126 121.41714-42.93289 122.44673-43.76677 123.47632-44.60066 125.12746-45.79431 126.15704-46.42601 127.18663-47.05772 128.83777-47.90767 129.86734-48.31966 130.89693-48.73166 132.54808-49.21661 133.57767-49.39539 134.60726-49.57416 136.25839-49.67137 137.28798-49.6082 138.31757-49.54501 139.9687-49.24973 140.99828-48.93994 142.02787-48.63014 143.67902-47.93105 144.7086-47.37544 145.73818-46.81984 147.38933-45.73259 148.41892-44.93549 149.4485-44.13838 151.09963-42.65994 152.12921-41.63048 153.1588-40.60101 154.80995-38.7627 155.83954-37.51573 156.86911-36.26878 158.52027-34.08948 159.54985-32.6432 160.57944-31.19693 162.23056-28.71495 163.26015-27.092 164.28974-25.46906 165.94089-22.71965 166.97046-20.94608 168.00005-19.17249 169.65119-16.20383 170.68077-14.3092 171.71036-12.41458 173.3615-9.27448 174.39109-7.29085 175.42067-5.30722 178.1014-.01253 178.1014-.01253Z"/>
</g>
<path transform="matrix(1.0001,0,0,-1.00002,29.844185,57.890859)" stroke-width=".79701" stroke-linecap="butt" stroke-miterlimit="10" stroke-linejoin="miter" fill="none" stroke="#000000" d="M0 0C0 0 5.97331 1.09012 8.26752 2.08525 10.56172 3.08038 14.24084 5.5647 16.53505 7.17233 18.82925 8.77997 22.50838 11.87155 24.80258 13.67207 27.09679 15.4726 30.7759 18.53137 33.0701 20.14934 35.3643 21.76729 39.04343 24.21434 41.33763 25.3333 43.63185 26.45226 47.31096 27.83018 49.60518 28.21402 51.89938 28.59785 55.5785 28.59055 57.87271 28.09982 60.16692 27.60909 63.84602 26.07414 66.14023 24.67714 68.43443 23.28014 72.11356 20.25734 74.40776 18.03119 76.70197 15.80505 80.38109 11.51051 82.6753 8.63257 84.9695 5.75462 88.64862 .56079 90.94284-2.71114 93.23705-5.98306 96.91615-11.59657 99.21036-14.94936 101.50456-18.30214 105.18369-23.77988 107.47789-26.87573 109.7721-29.9716 113.45122-34.75058 115.74542-37.26227 118.03963-39.77394 121.71875-43.33383 124.01295-44.97832 126.30716-46.6228 129.98627-48.54703 132.28047-49.11469 134.57469-49.68234 138.25382-49.6934 140.54802-49.06969 142.84223-48.44597 146.52135-46.4379 148.81555-44.61931 151.10976-42.8007 154.78888-38.86572 157.08309-35.9625 159.37729-33.05927 163.0564-27.46666 165.3506-23.69484 167.6448-19.92303 171.32393-13.11234 173.61814-8.77791 175.91234-4.44347 179.59146 3.01605 181.88568 7.54475 184.17989 12.07346 187.85901 19.53752 190.15322 23.8618 192.44742 28.1861 198.42073 38.71127 198.42073 38.71127"/>
<use data-text="f" xlink:href="#font_1_1" transform="matrix(9.963596,0,0,-9.962799,232.0044,30.370306)"/>
<use data-text="(" xlink:href="#font_3_1" transform="matrix(9.963596,0,0,-9.962799,237.95499,30.370306)"/>
<use data-text="x" xlink:href="#font_1_2" transform="matrix(9.963596,0,0,-9.962799,241.82938,30.370306)"/>
<use data-text=")" xlink:href="#font_3_2" transform="matrix(9.963596,0,0,-9.962799,247.52396,30.370306)"/>
<path transform="matrix(1.0001,0,0,-1.00002,29.844185,57.890859)" stroke-width="1.39478" stroke-linecap="butt" stroke-miterlimit="10" stroke-linejoin="miter" fill="none" stroke="#000000" d="M51.5916 6.06616 44.52673-14.17339"/>
<path transform="matrix(1.0001,0,0,-1.00002,29.844185,57.890859)" stroke-width=".59776" stroke-linecap="butt" stroke-miterlimit="10" stroke-linejoin="miter" fill="none" stroke="#ffffff" d="M51.5916 6.06616 44.52673-14.17339"/>
<path transform="matrix(.32956297,-.9441189,-.94419446,-.3295366,81.44095,51.824586)" stroke-width="1.11581" stroke-linecap="round" stroke-linejoin="round" fill="none" stroke="#000000" d="M-2.09216 2.78955C-1.91782 1.74347 0 .17433 .52303 0 0-.17433-1.91782-1.74347-2.09216-2.78955"/>
<use data-text="1" xlink:href="#font_2_82" transform="matrix(9.963596,0,0,-9.962799,68.009,82.219348)"/>
<use data-text="." xlink:href="#font_2_88" transform="matrix(9.963596,0,0,-9.962799,72.9908,82.219348)"/>
<use data-text="8" xlink:href="#font_2_51" transform="matrix(9.963596,0,0,-9.962799,75.76068,82.219348)"/>
<path transform="matrix(1.0001,0,0,-1.00002,29.844185,57.890859)" stroke-width="1.39478" stroke-linecap="butt" stroke-miterlimit="10" stroke-linejoin="miter" fill="none" stroke="#000000" d="M133.85442-13.12772 141.00176 14.17339"/>
<path transform="matrix(1.0001,0,0,-1.00002,29.844185,57.890859)" stroke-width=".59776" stroke-linecap="butt" stroke-miterlimit="10" stroke-linejoin="miter" fill="none" stroke="#ffffff" d="M133.85442-13.12772 141.00176 14.17339"/>
<path transform="matrix(-.25325535,.9673794,.96745678,.25323508,163.71198,71.018848)" stroke-width="1.11581" stroke-linecap="round" stroke-linejoin="round" fill="none" stroke="#000000" d="M-2.09216 2.78955C-1.91782 1.74347 0 .17433 .52303 0 0-.17433-1.91782-1.74347-2.09216-2.78955"/>
<use data-text="3" xlink:href="#font_2_106" transform="matrix(9.963596,0,0,-9.962799,164.49365,39.9785)"/>
<use data-text="." xlink:href="#font_2_88" transform="matrix(9.963596,0,0,-9.962799,169.47544,39.9785)"/>
<use data-text="4" xlink:href="#font_2_57" transform="matrix(9.963596,0,0,-9.962799,172.24533,39.9785)"/>
</svg>
