<svg xmlns="http://www.w3.org/2000/svg" xmlns:xlink="http://www.w3.org/1999/xlink" xmlns:inkscape="http://www.inkscape.org/namespaces/inkscape" version="1.1" width="149" height="12" viewBox="0 0 149 12">
<defs>
<path id="font_1_1" d="M.6589966 .23046875C.6759949 .23046875 .69400027 .23046875 .69400027 .25045777 .69400027 .27046205 .6759949 .27046205 .6589966 .27046205H.117996219C.100997928 .27046205 .08299255 .27046205 .08299255 .25045777 .08299255 .23046875 .100997928 .23046875 .117996219 .23046875H.6589966Z"/>
<path id="font_1_2" d="M.5079956 .2711792C.45399476 .33917237 .44198609 .3541565 .41099549 .3791504 .35499574 .42414857 .29899598 .44215394 .24798584 .44215394 .1309967 .44215394 .054992677 .33216859 .054992677 .2151947 .054992677 .100234989 .1289978-.0107421879 .24398804-.0107421879 .35899354-.0107421879 .44198609 .08023071 .4909973 .16021729 .54499819 .09222412 .5569916 .07723999 .58799746 .052246095 .6439972 .007247925 .69999697-.0107421879 .7509918-.0107421879 .8679962-.0107421879 .94400027 .099227908 .94400027 .21620178 .94400027 .3311615 .8699951 .44215394 .7549896 .44215394 .6399994 .44215394 .5569916 .35116578 .5079956 .2711792M.5339966 .23719788C.57499697 .30917359 .6489868 .41015626 .7619934 .41015626 .8679962 .41015626 .9219971 .3061676 .9219971 .21620178 .9219971 .1182251 .8549957 .037246705 .7669983 .037246705 .70899966 .037246705 .6639862 .07923889 .6429901 .100234989 .6179962 .12722779 .59498599 .15821839 .5339966 .23719788M.46499635 .19419861C.42399598 .1222229 .34999085 .021255494 .23699951 .021255494 .1309967 .021255494 .07699585 .12522888 .07699585 .2151947 .07699585 .3131714 .14399719 .39414979 .23199463 .39414979 .2899933 .39414979 .33499146 .3521576 .35598756 .3311615 .3809967 .3041687 .4039917 .2731781 .46499635 .19419861Z"/>
</defs>
<path transform="matrix(1.00006,0,0,-1.00003,-6.8982546,6.241767)" stroke-width="2.98883" stroke-linecap="butt" stroke-miterlimit="10" stroke-linejoin="miter" fill="none" stroke="#000000" d="M38.92734 0H131.1535"/>
<path transform="matrix(-1.00006,-0,0,1.00003,32.03142,6.241767)" d="M10.58052 0C7.4455 .5878 2.35123 2.35123-1.17561 4.40854V-4.40854C2.35123-2.35123 7.4455-.5878 10.58052 0"/>
<path transform="matrix(1.00006,0,0,-1.00003,124.26311,6.241767)" d="M10.58052 0C7.4455 .5878 2.35123 2.35123-1.17561 4.40854V-4.40854C2.35123-2.35123 7.4455-.5878 10.58052 0"/>
<use data-text="&#x2212;" xlink:href="#font_1_1" transform="matrix(9.963197,0,0,-9.962899,.21717072,8.732842)"/>
<use data-text="&#x221e;" xlink:href="#font_1_2" transform="matrix(9.963197,0,0,-9.962899,7.95858,8.732842)"/>
<use data-text="&#x221e;" xlink:href="#font_1_2" transform="matrix(9.963197,0,0,-9.962899,138.36446,8.386832)"/>
</svg>
