<svg xmlns="http://www.w3.org/2000/svg" xmlns:xlink="http://www.w3.org/1999/xlink" xmlns:inkscape="http://www.inkscape.org/namespaces/inkscape" version="1.1" width="149" height="18" viewBox="0 0 149 18">
<defs>
<path id="font_1_1" d="M.6589966 .23046875C.6759949 .23046875 .69400027 .23046875 .69400027 .25045777 .69400027 .27046205 .6759949 .27046205 .6589966 .27046205H.117996219C.100997928 .27046205 .08299255 .27046205 .08299255 .25045777 .08299255 .23046875 .100997928 .23046875 .117996219 .23046875H.6589966Z"/>
<path id="font_1_2" d="M.5079956 .2711792C.45399476 .33917237 .44198609 .3541565 .41099549 .3791504 .35499574 .42414857 .29899598 .44215394 .24798584 .44215394 .1309967 .44215394 .054992677 .33216859 .054992677 .2151947 .054992677 .100234989 .1289978-.0107421879 .24398804-.0107421879 .35899354-.0107421879 .44198609 .08023071 .4909973 .16021729 .54499819 .09222412 .5569916 .07723999 .58799746 .052246095 .6439972 .007247925 .69999697-.0107421879 .7509918-.0107421879 .8679962-.0107421879 .94400027 .099227908 .94400027 .21620178 .94400027 .3311615 .8699951 .44215394 .7549896 .44215394 .6399994 .44215394 .5569916 .35116578 .5079956 .2711792M.5339966 .23719788C.57499697 .30917359 .6489868 .41015626 .7619934 .41015626 .8679962 .41015626 .9219971 .3061676 .9219971 .21620178 .9219971 .1182251 .8549957 .037246705 .7669983 .037246705 .70899966 .037246705 .6639862 .07923889 .6429901 .100234989 .6179962 .12722779 .59498599 .15821839 .5339966 .23719788M.46499635 .19419861C.42399598 .1222229 .34999085 .021255494 .23699951 .021255494 .1309967 .021255494 .07699585 .12522888 .07699585 .2151947 .07699585 .3131714 .14399719 .39414979 .23199463 .39414979 .2899933 .39414979 .33499146 .3521576 .35598756 .3311615 .3809967 .3041687 .4039917 .2731781 .46499635 .19419861Z"/>
<path id="font_2_106" d="M.45700074 .17037964C.45700074 .252594 .3939972 .33088685 .2899933 .35191346 .37199403 .37893678 .42999269 .4490509 .42999269 .52809146 .42999269 .6100464 .34199525 .6660156 .24598694 .6660156 .14498902 .6660156 .068984989 .60606387 .068984989 .53009036 .068984989 .49710084 .09098816 .47808839 .11999512 .47808839 .15098572 .47808839 .17098999 .50009158 .17098999 .5290985 .17098999 .57910159 .12399292 .57910159 .10899353 .57910159 .13999939 .62802127 .20599365 .64100649 .24198914 .64100649 .2829895 .64100649 .33799745 .6190338 .33799745 .5290985 .33799745 .51708987 .33599855 .45906068 .30999757 .4149933 .27999879 .36691285 .24598694 .36390687 .22099304 .36291505 .21299744 .36190797 .18899536 .35990907 .18199158 .35990907 .17399597 .35890199 .16699219 .35791017 .16699219 .3479004 .16699219 .33691407 .17399597 .33691407 .19099427 .33691407H.23498535C.31698609 .33691407 .35398866 .2686615 .35398866 .17037964 .35398866 .034469606 .2849884 .0055389406 .24099732 .0055389406 .19799805 .0055389406 .12298584 .022491456 .08799744 .08137512 .12298584 .07637024 .1539917 .09837341 .1539917 .1363678 .1539917 .17237854 .1269989 .19238281 .09799194 .19238281 .07398987 .19238281 .041992189 .17837525 .041992189 .1343689 .041992189 .043441774 .1349945-.022460938 .24398804-.022460938 .3659973-.022460938 .45700074 .06838989 .45700074 .17037964Z"/>
</defs>
<path transform="matrix(1.00006,0,0,-1,-6.8982546,6.241)" stroke-width="2.98883" stroke-linecap="butt" stroke-miterlimit="10" stroke-linejoin="miter" fill="none" stroke="#000000" d="M38.92734 0H131.1535"/>
<path transform="matrix(-1.00006,-0,0,1,32.03142,6.241)" d="M10.58052 0C7.4455 .5878 2.35123 2.35123-1.17561 4.40854V-4.40854C2.35123-2.35123 7.4455-.5878 10.58052 0"/>
<path transform="matrix(1.00006,0,0,-1,124.26311,6.241)" d="M10.58052 0C7.4455 .5878 2.35123 2.35123-1.17561 4.40854V-4.40854C2.35123-2.35123 7.4455-.5878 10.58052 0"/>
<use data-text="&#x2212;" xlink:href="#font_1_1" transform="matrix(9.963197,0,0,-9.9626,.21717072,8.731999)"/>
<use data-text="&#x221e;" xlink:href="#font_1_2" transform="matrix(9.963197,0,0,-9.9626,7.95858,8.731999)"/>
<use data-text="&#x221e;" xlink:href="#font_1_2" transform="matrix(9.963197,0,0,-9.9626,138.36446,8.386001)"/>
<path transform="matrix(1.00006,0,0,-1,-6.8982546,6.241)" d="M87.03297 0C87.03297 1.10046 86.1409 1.99255 85.04042 1.99255 83.93996 1.99255 83.04787 1.10046 83.04787 0 83.04787-1.10046 83.93996-1.99255 85.04042-1.99255 86.1409-1.99255 87.03297-1.10046 87.03297 0ZM85.04042 0" fill="#ffffff"/>
<path transform="matrix(1.00006,0,0,-1,-6.8982546,6.241)" stroke-width=".3985" stroke-linecap="butt" stroke-miterlimit="10" stroke-linejoin="miter" fill="none" stroke="#000000" d="M87.03297 0C87.03297 1.10046 86.1409 1.99255 85.04042 1.99255 83.93996 1.99255 83.04787 1.10046 83.04787 0 83.04787-1.10046 83.93996-1.99255 85.04042-1.99255 86.1409-1.99255 87.03297-1.10046 87.03297 0ZM85.04042 0"/>
<use data-text="3" xlink:href="#font_2_106" transform="matrix(9.963197,0,0,-9.9626,75.6567,16.396)"/>
</svg>
