<svg xmlns="http://www.w3.org/2000/svg" xmlns:xlink="http://www.w3.org/1999/xlink" xmlns:inkscape="http://www.inkscape.org/namespaces/inkscape" version="1.1" width="116" height="131" viewBox="0 0 116 131">
<path transform="matrix(1.00008,0,0,-1.00003,29.444916,101.207569)" stroke-width=".3985" stroke-linecap="butt" stroke-miterlimit="10" stroke-linejoin="miter" fill="none" stroke="#000000" d="M-24.76025 0H81.45387"/>
<path transform="matrix(-1.00008,-0,0,1.00003,4.682686,101.207569)" d="M3.58653 0C2.52383 .19925 .797 .797-.3985 1.49438V-1.49438C.797-.797 2.52383-.19925 3.58653 0"/>
<path transform="matrix(1.00008,0,0,-1.00003,110.905307,101.207569)" d="M3.58653 0C2.52383 .19925 .797 .797-.3985 1.49438V-1.49438C.797-.797 2.52383-.19925 3.58653 0"/>
<path transform="matrix(1.00008,0,0,-1.00003,29.444916,101.207569)" stroke-width=".3985" stroke-linecap="butt" stroke-miterlimit="10" stroke-linejoin="miter" fill="none" stroke="#000000" d="M0-24.76025V81.45387"/>
<path transform="matrix(0,1.00003,1.00008,0,29.444916,125.96856)" d="M3.58653 0C2.52383 .19925 .797 .797-.3985 1.49438V-1.49438C.797-.797 2.52383-.19925 3.58653 0"/>
<path transform="matrix(0,-1.00003,-1.00008,-0,29.444916,19.751244)" d="M3.58653 0C2.52383 .19925 .797 .797-.3985 1.49438V-1.49438C.797-.797 2.52383-.19925 3.58653 0"/>
<path transform="matrix(1.00008,0,0,-1.00003,29.444916,101.207569)" stroke-width=".79701" stroke-linecap="butt" stroke-miterlimit="10" stroke-linejoin="miter" fill="none" stroke="#000000" d="M14.17339 14.17339 15.35422 15.35422 16.53505 16.53505 17.71588 17.71588 18.8967 18.8967 20.07753 20.07753 21.25836 21.25836 22.4392 22.4392 23.62003 23.62003 24.80084 24.80084 25.98167 25.98167 27.1625 27.1625 28.34334 28.34334 29.52417 29.52417 30.70499 30.70499 31.88582 31.88582 33.06665 33.06665 34.24748 34.24748 35.42831 35.42831 36.60913 36.60913 37.78996 37.78996 38.9708 38.9708 40.15163 40.15163 41.33246 41.33246 42.51328 42.51328"/>
<path transform="matrix(1.00008,0,0,-1.00003,29.444916,101.207569)" stroke-width=".79701" stroke-linecap="butt" stroke-miterlimit="10" stroke-linejoin="miter" fill="none" stroke="#000000" d="M42.5202 70.867 43.70103 72.04784 44.88185 73.22867 46.06268 74.4095 47.24352 75.59033 48.42435 76.77115 49.60518 77.95198 50.786 79.13281 51.96683 80.31364 53.14766 81.49448 54.32849 82.6753 55.50932 83.85612 56.69014 85.03696 57.87097 86.21779 59.0518 87.39862 60.23264 88.57944 61.41347 89.76027 62.59428 90.9411 63.77512 92.12193 64.95595 93.30276 66.13678 94.48358 67.31761 95.66441 68.49843 96.84525 69.67926 98.02608 70.86009 99.20691"/>
<path transform="matrix(1.00008,0,0,-1.00003,29.444916,101.207569)" d="M45.50903 42.5202C45.50903 44.17091 44.17091 45.50903 42.5202 45.50903 40.86949 45.50903 39.53137 44.17091 39.53137 42.5202 39.53137 40.86949 40.86949 39.53137 42.5202 39.53137 44.17091 39.53137 45.50903 40.86949 45.50903 42.5202ZM42.5202 42.5202" fill="#ffffff"/>
<path transform="matrix(1.00008,0,0,-1.00003,29.444916,101.207569)" stroke-width=".3985" stroke-linecap="butt" stroke-miterlimit="10" stroke-linejoin="miter" fill="none" stroke="#000000" d="M45.50903 42.5202C45.50903 44.17091 44.17091 45.50903 42.5202 45.50903 40.86949 45.50903 39.53137 44.17091 39.53137 42.5202 39.53137 40.86949 40.86949 39.53137 42.5202 39.53137 44.17091 39.53137 45.50903 40.86949 45.50903 42.5202ZM42.5202 42.5202"/>
<path transform="matrix(1.00008,0,0,-1.00003,29.444916,101.207569)" d="M45.50903 70.867C45.50903 72.51772 44.17091 73.85583 42.5202 73.85583 40.86949 73.85583 39.53137 72.51772 39.53137 70.867 39.53137 69.21631 40.86949 67.87817 42.5202 67.87817 44.17091 67.87817 45.50903 69.21631 45.50903 70.867ZM42.5202 70.867"/>
<path transform="matrix(1.00008,0,0,-1.00003,29.444916,101.207569)" stroke-width=".3985" stroke-linecap="butt" stroke-miterlimit="10" stroke-linejoin="miter" fill="none" stroke="#000000" d="M45.50903 70.867C45.50903 72.51772 44.17091 73.85583 42.5202 73.85583 40.86949 73.85583 39.53137 72.51772 39.53137 70.867 39.53137 69.21631 40.86949 67.87817 42.5202 67.87817 44.17091 67.87817 45.50903 69.21631 45.50903 70.867ZM42.5202 70.867"/>
</svg>
