<svg xmlns="http://www.w3.org/2000/svg" xmlns:xlink="http://www.w3.org/1999/xlink" xmlns:inkscape="http://www.inkscape.org/namespaces/inkscape" version="1.1" width="116" height="145" viewBox="0 0 116 145">
<path transform="matrix(1,0,0,-1.00005,50.701997,122.27731)" stroke-width=".3985" stroke-linecap="butt" stroke-miterlimit="10" stroke-linejoin="miter" fill="none" stroke="#000000" d="M0-17.67355V116.88737"/>
<path transform="matrix(0,1.00005,1,0,50.701997,139.95175)" d="M3.58653 0C2.52383 .19925 .797 .797-.3985 1.49438V-1.49438C.797-.797 2.52383-.19925 3.58653 0"/>
<path transform="matrix(0,-1.00005,-1,-0,50.701997,5.3841097)" d="M3.58653 0C2.52383 .19925 .797 .797-.3985 1.49438V-1.49438C.797-.797 2.52383-.19925 3.58653 0"/>
<path transform="matrix(1,0,0,-1.00005,50.701997,122.27731)" stroke-width=".3985" stroke-linecap="butt" stroke-miterlimit="10" stroke-linejoin="miter" fill="none" stroke="#000000" d="M-46.02037 0H60.19376"/>
<path transform="matrix(-1,-0,0,1.00005,4.6816256,122.27731)" d="M3.58653 0C2.52383 .19925 .797 .797-.3985 1.49438V-1.49438C.797-.797 2.52383-.19925 3.58653 0"/>
<path transform="matrix(1,0,0,-1.00005,110.89575,122.27731)" d="M3.58653 0C2.52383 .19925 .797 .797-.3985 1.49438V-1.49438C.797-.797 2.52383-.19925 3.58653 0"/>
<path transform="matrix(1,0,0,-1.00005,50.701997,122.27731)" stroke-width=".79701" stroke-linecap="butt" stroke-miterlimit="10" stroke-linejoin="miter" fill="none" stroke="#0000ff" d="M-42.5202 53.2638C-42.5202 53.2638-39.3201 54.41847-38.09102 54.87067-36.86194 55.32286-34.8909 56.05577-33.66182 56.52296-32.43274 56.99017-30.46172 57.75607-29.23264 58.23798-28.00356 58.7199-26.03253 59.50053-24.80345 59.99625-23.57437 60.49196-21.60335 61.30032-20.37427 61.81075-19.14519 62.32115-17.17413 63.14882-15.94505 63.67499-14.71597 64.20116-12.74495 65.0611-11.51587 65.60303-10.28679 66.14494-8.31577 67.02223-7.08669 67.5808-5.8576 68.13937-3.88658 69.0553-2.6575 69.62888-1.42842 70.20245 .54259 71.1247 1.77167 71.71478 3.00075 72.30486 4.97177 73.2713 6.20085 73.8818 7.42993 74.49228 9.40096 75.48569 10.63004 76.11478 11.85912 76.74387 13.83014 77.76788 15.05922 78.4159 16.2883 79.06389 18.25934 80.11746 19.48842 80.7851 20.7175 81.45276 22.68852 82.53906 23.9176 83.22786 25.14668 83.91667 27.11772 85.0411 28.3468 85.74956 29.57588 86.45802 31.5469 87.60481 32.77599 88.33397 34.00507 89.06314 35.9761 90.25279 37.20518 91.0049 38.43425 91.75702 40.40529 92.97983 41.63437 93.75476 42.86345 94.52968 44.83447 95.79187 46.06355 96.59004 47.29263 97.38823 49.26366 98.68532 50.49274 99.5075 51.72182 100.3297 53.69284 101.66843 54.92192 102.51581 56.151 103.3632 58.12204 104.7419 59.35112 105.61494 60.5802 106.48799 63.7803 108.80817 63.7803 108.80817"/>
<path transform="matrix(1,0,0,-1.00005,50.701997,122.27731)" d="M-12.67897 64.433C-12.67897 65.25835-13.34804 65.92741-14.17339 65.92741-14.99873 65.92741-15.6678 65.25835-15.6678 64.433-15.6678 63.60765-14.99873 62.93858-14.17339 62.93858-13.34804 62.93858-12.67897 63.60765-12.67897 64.433ZM-14.17339 64.433" fill="#ff0000"/>
<path transform="matrix(1,0,0,-1.00005,50.701997,122.27731)" stroke-width=".3985" stroke-linecap="butt" stroke-miterlimit="10" stroke-linejoin="miter" fill="none" stroke="#ff0000" d="M-12.67897 64.433C-12.67897 65.25835-13.34804 65.92741-14.17339 65.92741-14.99873 65.92741-15.6678 65.25835-15.6678 64.433-15.6678 63.60765-14.99873 62.93858-14.17339 62.93858-13.34804 62.93858-12.67897 63.60765-12.67897 64.433ZM-14.17339 64.433"/>
<path transform="matrix(1,0,0,-1.00005,50.701997,122.27731)" d="M1.49442 70.867C1.49442 71.69235 .82533 72.36142 0 72.36142-.82533 72.36142-1.49442 71.69235-1.49442 70.867-1.49442 70.04166-.82533 69.37259 0 69.37259 .82533 69.37259 1.49442 70.04166 1.49442 70.867ZM0 70.867" fill="#ff0000"/>
<path transform="matrix(1,0,0,-1.00005,50.701997,122.27731)" stroke-width=".3985" stroke-linecap="butt" stroke-miterlimit="10" stroke-linejoin="miter" fill="none" stroke="#ff0000" d="M1.49442 70.867C1.49442 71.69235 .82533 72.36142 0 72.36142-.82533 72.36142-1.49442 71.69235-1.49442 70.867-1.49442 70.04166-.82533 69.37259 0 69.37259 .82533 69.37259 1.49442 70.04166 1.49442 70.867ZM0 70.867"/>
<path transform="matrix(1,0,0,-1.00005,50.701997,122.27731)" d="M15.6678 77.95415C15.6678 78.77948 14.99873 79.44856 14.17339 79.44856 13.34804 79.44856 12.67897 78.77948 12.67897 77.95415 12.67897 77.1288 13.34804 76.45973 14.17339 76.45973 14.99873 76.45973 15.6678 77.1288 15.6678 77.95415ZM14.17339 77.95415" fill="#ff0000"/>
<path transform="matrix(1,0,0,-1.00005,50.701997,122.27731)" stroke-width=".3985" stroke-linecap="butt" stroke-miterlimit="10" stroke-linejoin="miter" fill="none" stroke="#ff0000" d="M15.6678 77.95415C15.6678 78.77948 14.99873 79.44856 14.17339 79.44856 13.34804 79.44856 12.67897 78.77948 12.67897 77.95415 12.67897 77.1288 13.34804 76.45973 14.17339 76.45973 14.99873 76.45973 15.6678 77.1288 15.6678 77.95415ZM14.17339 77.95415"/>
<path transform="matrix(1,0,0,-1.00005,50.701997,122.27731)" d="M29.84122 85.74956C29.84122 86.5749 29.17215 87.24397 28.3468 87.24397 27.52145 87.24397 26.85239 86.5749 26.85239 85.74956 26.85239 84.92422 27.52145 84.25514 28.3468 84.25514 29.17215 84.25514 29.84122 84.92422 29.84122 85.74956ZM28.3468 85.74956" fill="#ff0000"/>
<path transform="matrix(1,0,0,-1.00005,50.701997,122.27731)" stroke-width=".3985" stroke-linecap="butt" stroke-miterlimit="10" stroke-linejoin="miter" fill="none" stroke="#ff0000" d="M29.84122 85.74956C29.84122 86.5749 29.17215 87.24397 28.3468 87.24397 27.52145 87.24397 26.85239 86.5749 26.85239 85.74956 26.85239 84.92422 27.52145 84.25514 28.3468 84.25514 29.17215 84.25514 29.84122 84.92422 29.84122 85.74956ZM28.3468 85.74956"/>
</svg>
