<svg xmlns="http://www.w3.org/2000/svg" xmlns:xlink="http://www.w3.org/1999/xlink" xmlns:inkscape="http://www.inkscape.org/namespaces/inkscape" version="1.1" width="116" height="117" viewBox="0 0 116 117">
<path transform="matrix(1.00003,0,0,-1,29.443352,86.839)" stroke-width=".3985" stroke-linecap="butt" stroke-miterlimit="10" stroke-linejoin="miter" fill="none" stroke="#000000" d="M-24.76025 0H81.45387"/>
<path transform="matrix(-1.00003,-0,0,1,4.682358,86.839)" d="M3.58653 0C2.52383 .19925 .797 .797-.3985 1.49438V-1.49438C.797-.797 2.52383-.19925 3.58653 0"/>
<path transform="matrix(1.00003,0,0,-1,110.89967,86.839)" d="M3.58653 0C2.52383 .19925 .797 .797-.3985 1.49438V-1.49438C.797-.797 2.52383-.19925 3.58653 0"/>
<path transform="matrix(1.00003,0,0,-1,29.443352,86.839)" stroke-width=".3985" stroke-linecap="butt" stroke-miterlimit="10" stroke-linejoin="miter" fill="none" stroke="#000000" d="M0-24.76025V81.45387"/>
<path transform="matrix(0,1,1.00003,0,29.443352,111.59924)" d="M3.58653 0C2.52383 .19925 .797 .797-.3985 1.49438V-1.49438C.797-.797 2.52383-.19925 3.58653 0"/>
<path transform="matrix(0,-1,-1.00003,-0,29.443352,5.385124)" d="M3.58653 0C2.52383 .19925 .797 .797-.3985 1.49438V-1.49438C.797-.797 2.52383-.19925 3.58653 0"/>
<path transform="matrix(1.00003,0,0,-1,29.443352,86.839)" stroke-width=".79701" stroke-linecap="butt" stroke-miterlimit="10" stroke-linejoin="miter" fill="none" stroke="#000000" d="M14.17339 14.17339 16.53548 16.53548 18.89757 18.89757 21.25966 21.25966 23.62175 23.62175 25.98384 25.98384 28.34593 28.34593 30.70802 30.70802 33.0701 33.0701 35.4322 35.4322 37.79428 37.79428 40.15639 40.15639 42.51846 42.51846 44.88057 44.88057 47.24265 47.24265 49.60474 49.60474 51.96683 51.96683 54.32892 54.32892 56.69101 56.69101 59.0531 59.0531 61.41519 61.41519 63.77728 63.77728 66.13937 66.13937 68.50146 68.50146 70.86354 70.86354"/>
<path transform="matrix(1.00003,0,0,-1,29.443352,86.839)" d="M45.50903 42.5202C45.50903 44.17091 44.17091 45.50903 42.5202 45.50903 40.86949 45.50903 39.53137 44.17091 39.53137 42.5202 39.53137 40.86949 40.86949 39.53137 42.5202 39.53137 44.17091 39.53137 45.50903 40.86949 45.50903 42.5202ZM42.5202 42.5202" fill="#ffffff"/>
<path transform="matrix(1.00003,0,0,-1,29.443352,86.839)" stroke-width=".3985" stroke-linecap="butt" stroke-miterlimit="10" stroke-linejoin="miter" fill="none" stroke="#000000" d="M45.50903 42.5202C45.50903 44.17091 44.17091 45.50903 42.5202 45.50903 40.86949 45.50903 39.53137 44.17091 39.53137 42.5202 39.53137 40.86949 40.86949 39.53137 42.5202 39.53137 44.17091 39.53137 45.50903 40.86949 45.50903 42.5202ZM42.5202 42.5202"/>
<path transform="matrix(1.00003,0,0,-1,29.443352,86.839)" d="M45.50903 14.17339C45.50903 15.8241 44.17091 17.16222 42.5202 17.16222 40.86949 17.16222 39.53137 15.8241 39.53137 14.17339 39.53137 12.52269 40.86949 11.18456 42.5202 11.18456 44.17091 11.18456 45.50903 12.52269 45.50903 14.17339ZM42.5202 14.17339"/>
<path transform="matrix(1.00003,0,0,-1,29.443352,86.839)" stroke-width=".3985" stroke-linecap="butt" stroke-miterlimit="10" stroke-linejoin="miter" fill="none" stroke="#000000" d="M45.50903 14.17339C45.50903 15.8241 44.17091 17.16222 42.5202 17.16222 40.86949 17.16222 39.53137 15.8241 39.53137 14.17339 39.53137 12.52269 40.86949 11.18456 42.5202 11.18456 44.17091 11.18456 45.50903 12.52269 45.50903 14.17339ZM42.5202 14.17339"/>
</svg>
