<svg xmlns="http://www.w3.org/2000/svg" xmlns:xlink="http://www.w3.org/1999/xlink" xmlns:inkscape="http://www.inkscape.org/namespaces/inkscape" version="1.1" width="201" height="173" viewBox="0 0 201 173">
<path transform="matrix(1.00005,0,0,-1.00003,72.28386,129.3614)" stroke-width=".3985" stroke-linecap="butt" stroke-dasharray=".3985,1.99255" stroke-miterlimit="10" stroke-linejoin="miter" fill="none" stroke="#000000" d="M-70.867-28.3468H127.56062M-70.867 0H127.56062M-70.867 28.3468H127.56062M-70.867 56.69362H127.56062M-70.867 85.04042H127.56062M-70.867 113.38724H127.56062M-56.69362-42.5202V127.56062M-28.3468-42.5202V127.56062M0-42.5202V127.56062M28.3468-42.5202V127.56062M56.69362-42.5202V127.56062M85.04042-42.5202V127.56062M113.38724-42.5202V127.56062M127.56062-42.5202"/>
<path transform="matrix(1.00005,0,0,-1.00003,72.28386,129.3614)" stroke-width=".3985" stroke-linecap="butt" stroke-miterlimit="10" stroke-linejoin="miter" fill="none" stroke="#000000" d="M-67.28047 0H123.97409"/>
<path transform="matrix(-1.00005,-0,0,1.00003,5.0000307,129.3614)" d="M3.58653 0C2.52383 .19925 .797 .797-.3985 1.49438V-1.49438C.797-.797 2.52383-.19925 3.58653 0"/>
<path transform="matrix(1.00005,0,0,-1.00003,196.26415,129.3614)" d="M3.58653 0C2.52383 .19925 .797 .797-.3985 1.49438V-1.49438C.797-.797 2.52383-.19925 3.58653 0"/>
<path transform="matrix(1.00005,0,0,-1.00003,72.28386,129.3614)" stroke-width=".3985" stroke-linecap="butt" stroke-miterlimit="10" stroke-linejoin="miter" fill="none" stroke="#000000" d="M0-38.93365V123.97409"/>
<path transform="matrix(0,1.00003,1.00005,0,72.28386,168.29624)" d="M3.58653 0C2.52383 .19925 .797 .797-.3985 1.49438V-1.49438C.797-.797 2.52383-.19925 3.58653 0"/>
<path transform="matrix(0,-1.00003,-1.00005,-0,72.28386,5.3835909)" d="M3.58653 0C2.52383 .19925 .797 .797-.3985 1.49438V-1.49438C.797-.797 2.52383-.19925 3.58653 0"/>
<path transform="matrix(1.00005,0,0,-1.00003,72.28386,129.3614)" stroke-width=".79701" stroke-linecap="butt" stroke-miterlimit="10" stroke-linejoin="miter" fill="none" stroke="#000000" d="M-56.69362-28.3468-55.51279-25.67154-54.33195-22.42276-53.15112-18.65794-51.97029-14.43681-50.78947-9.82552-49.60864-4.88118-48.42781 .33824-47.24698 5.76399-46.06615 11.3394-44.88533 16.99744-43.7045 22.684-42.52367 28.33035-41.34283 33.87982-40.162 39.27357-38.98119 44.44327-37.80035 49.33182-36.61952 53.87346-35.43869 58.00462-34.25786 61.67946-33.07704 64.82272-31.89621 67.37038-30.71538 69.27138-29.53455 70.45308-28.35371 70.867"/>
<path transform="matrix(1.00005,0,0,-1.00003,72.28386,129.3614)" stroke-width=".79701" stroke-linecap="butt" stroke-miterlimit="10" stroke-linejoin="miter" fill="none" stroke="#000000" d="M-28.3468 70.867-25.98471 70.65161-23.62262 70.03047-21.26053 69.0404-18.89844 67.71771-16.53635 66.1-14.17426 64.22409-11.81216 62.12671-9.45007 59.84465-7.088 57.41464-4.72589 54.87434-2.36382 52.26051-.00171 49.60864 2.36034 46.95717 4.72244 44.34334 7.08452 41.80263 9.44661 39.37262 11.8087 37.09056 14.17079 34.99274 16.53288 33.1164 18.89497 31.49826 21.25706 30.17513 23.61916 29.18419 25.98123 28.56262 28.34334 28.3468"/>
<path transform="matrix(1.00005,0,0,-1.00003,72.28386,129.3614)" stroke-width=".79701" stroke-linecap="butt" stroke-miterlimit="10" stroke-linejoin="miter" fill="none" stroke="#000000" d="M28.3468 28.3468 29.52762 28.48824 30.70845 28.90218 31.88927 29.56352 33.0701 30.44417 34.25093 31.52379 35.43176 32.77426 36.6126 34.17136 37.79341 35.69302 38.97424 37.31116 40.15508 39.0054 41.3359 40.74767 42.51674 42.51501 43.69756 44.28279 44.87839 46.0242 46.05922 47.71802 47.24005 49.33612 48.42088 50.85825 49.6017 52.25923 50.78253 53.50883 51.96336 54.58714 53.1442 55.47083 54.32503 56.13173 55.50584 56.5487 56.68668 56.69362"/>
<path transform="matrix(1.00005,0,0,-1.00003,72.28386,129.3614)" stroke-width=".79701" stroke-linecap="butt" stroke-miterlimit="10" stroke-linejoin="miter" fill="none" stroke="#000000" d="M56.69362 56.69362 57.87442 56.74551 59.05525 56.90771 60.23608 57.1919 61.41692 57.61232 62.59775 58.17938 63.77856 58.9069 64.9594 59.807 66.14023 60.89096 67.32106 62.17213 68.50189 63.66179 69.68271 65.37291 70.86354 67.31761 72.04437 69.50797 73.2252 71.95743 74.40604 74.6768 75.58685 77.67949 76.76768 80.97672 77.94852 84.58063 79.12935 88.5059 80.31018 92.76208 81.491 97.36255 82.67183 102.31987 83.85266 107.64528 85.0335 113.35262"/>
<path transform="matrix(1.00005,0,0,-1.00003,72.28386,129.3614)" stroke-width=".79701" stroke-linecap="butt" stroke-miterlimit="10" stroke-linejoin="miter" fill="none" stroke="#000000" d="M85.04042 113.38724 86.22124 107.58084 87.40207 101.97168 88.58289 96.55977 89.76372 91.34422 90.94455 86.32591 92.12538 81.50398 93.30621 76.87842 94.48705 72.4501 95.66786 68.21814 96.8487 64.18343 98.02953 60.3451 99.21036 56.70398 100.39119 53.25926 101.572 50.0109 102.75284 46.95976 103.93367 44.10503 105.1145 41.44751 106.29533 38.98723 107.47615 36.72246 108.65698 34.65492 109.83781 32.78464 111.01865 31.11072 112.19948 29.63403 113.3803 28.35371"/>
</svg>
