<svg xmlns="http://www.w3.org/2000/svg" xmlns:xlink="http://www.w3.org/1999/xlink" xmlns:inkscape="http://www.inkscape.org/namespaces/inkscape" version="1.1" width="116" height="119" viewBox="0 0 116 119">
<path transform="matrix(1,0,0,-1,29.442002,89.673)" stroke-width=".3985" stroke-linecap="butt" stroke-miterlimit="10" stroke-linejoin="miter" fill="none" stroke="#000000" d="M-24.76025 0H81.45387"/>
<path transform="matrix(-1,-0,0,1,4.6817514,89.673)" d="M3.58653 0C2.52383 .19925 .797 .797-.3985 1.49438V-1.49438C.797-.797 2.52383-.19925 3.58653 0"/>
<path transform="matrix(1,0,0,-1,110.895877,89.673)" d="M3.58653 0C2.52383 .19925 .797 .797-.3985 1.49438V-1.49438C.797-.797 2.52383-.19925 3.58653 0"/>
<path transform="matrix(1,0,0,-1,29.442002,89.673)" stroke-width=".3985" stroke-linecap="butt" stroke-miterlimit="10" stroke-linejoin="miter" fill="none" stroke="#000000" d="M0-24.76025V81.45387"/>
<path transform="matrix(0,1,1,0,29.442002,114.43324)" d="M3.58653 0C2.52383 .19925 .797 .797-.3985 1.49438V-1.49438C.797-.797 2.52383-.19925 3.58653 0"/>
<path transform="matrix(0,-1,-1,-0,29.442002,8.219124)" d="M3.58653 0C2.52383 .19925 .797 .797-.3985 1.49438V-1.49438C.797-.797 2.52383-.19925 3.58653 0"/>
<path transform="matrix(1,0,0,-1,29.442002,89.673)" stroke-width=".79701" stroke-linecap="butt" stroke-miterlimit="10" stroke-linejoin="miter" fill="none" stroke="#000000" d="M-14.17339 7.08669-12.01201 7.36438-9.8506 7.67061-7.68921 7.99934-5.52783 8.35965-3.36642 8.7537-1.20503 9.18709 .95633 9.66634 3.11772 10.1962 5.27911 10.78575 7.4405 11.4523 9.6019 12.20319 11.76329 13.0622 13.92468 14.04883 16.08607 15.19807 18.24745 16.55193 20.40886 18.1709 22.57025 20.13895 24.73163 22.58713 26.89304 25.71176 29.05443 29.83516 31.21582 35.5412 33.37721 43.94196 35.5386 57.54701 37.7 83.35526"/>
<path transform="matrix(1,0,0,-1,29.442002,89.673)" stroke-width=".79701" stroke-linecap="butt" stroke-miterlimit="10" stroke-linejoin="miter" fill="none" stroke="#000000" d="M47.33911 83.37514 48.90965 62.88148 50.4802 50.47586 52.05075 42.15903 53.62129 36.19217 55.19183 31.70631 56.76237 28.2127 58.33292 25.40985 59.90346 23.11308 61.47401 21.19781 63.04456 19.57579 64.6151 18.18388 66.18565 16.97752 67.7562 15.91956 69.32675 14.987 70.8973 14.15349 72.46783 13.41646 74.03839 12.74472 75.60892 12.1409 77.17946 11.59114 78.75002 11.08636 80.32056 10.62701 81.8911 10.20485 83.46165 9.81082 85.0322 9.45094"/>
<path transform="matrix(1,0,0,-1,29.442002,89.673)" stroke-width=".3985" stroke-linecap="butt" stroke-dasharray="2.98883,2.98883" stroke-miterlimit="10" stroke-linejoin="miter" fill="none" stroke="#000000" d="M42.5202-28.3468V87.87527"/>
</svg>
