<svg xmlns="http://www.w3.org/2000/svg" xmlns:xlink="http://www.w3.org/1999/xlink" xmlns:inkscape="http://www.inkscape.org/namespaces/inkscape" version="1.1" width="271" height="202" viewBox="0 0 271 202">
<path transform="matrix(1,0,0,-1.00003,58.106004,143.53583)" stroke-width=".3985" stroke-linecap="butt" stroke-miterlimit="10" stroke-linejoin="miter" fill="none" stroke="#000000" d="M-53.10707 0H138.1475"/>
<path transform="matrix(-1,-0,0,1.00003,4.998932,143.53583)" d="M3.58653 0C2.52383 .19925 .797 .797-.3985 1.49438V-1.49438C.797-.797 2.52383-.19925 3.58653 0"/>
<path transform="matrix(1,0,0,-1.00003,196.25351,143.53583)" d="M3.58653 0C2.52383 .19925 .797 .797-.3985 1.49438V-1.49438C.797-.797 2.52383-.19925 3.58653 0"/>
<path transform="matrix(1,0,0,-1.00003,58.106004,143.53583)" stroke-width=".3985" stroke-linecap="butt" stroke-miterlimit="10" stroke-linejoin="miter" fill="none" stroke="#000000" d="M0-53.10707V138.1475"/>
<path transform="matrix(0,1.00003,1,0,58.106004,196.6445)" d="M3.58653 0C2.52383 .19925 .797 .797-.3985 1.49438V-1.49438C.797-.797 2.52383-.19925 3.58653 0"/>
<path transform="matrix(0,-1.00003,-1,-0,58.106004,5.3841707)" d="M3.58653 0C2.52383 .19925 .797 .797-.3985 1.49438V-1.49438C.797-.797 2.52383-.19925 3.58653 0"/>
<path transform="matrix(1,0,0,-1.00003,58.106004,143.53583)" stroke-width=".3985" stroke-linecap="butt" stroke-dasharray=".3985,1.99255" stroke-miterlimit="10" stroke-linejoin="miter" fill="none" stroke="#000000" d="M-14.17339-28.3468H212.60106M-14.17339 0H212.60106M-14.17339 28.3468H212.60106M-14.17339 56.69362H212.60106M-14.17339 85.04042H212.60106M-14.17339 113.38724H212.60106M0-42.5202V127.56062M28.3468-42.5202V127.56062M56.69362-42.5202V127.56062M85.04042-42.5202V127.56062M113.38724-42.5202V127.56062M141.73404-42.5202V127.56062M170.08086-42.5202V127.56062M198.42766-42.5202V127.56062M212.60106-42.5202"/>
<path transform="matrix(1,0,0,-1.00003,58.106004,143.53583)" stroke-width=".79701" stroke-linecap="butt" stroke-miterlimit="10" stroke-linejoin="miter" fill="none" stroke="#000000" d="M0 56.69362 1.1808 55.46562 2.36163 54.15158 3.54247 52.76357 4.7233 51.31456 5.90413 49.81581 7.08495 48.2803 8.26578 46.72014 9.44661 45.14786 10.62744 43.57559 11.80827 42.01543 12.98909 40.4799 14.16992 38.98119 15.35075 37.53131 16.53159 36.1433 17.71242 34.82881 18.89323 33.60083 20.07407 32.47061 21.2549 31.45113 22.43573 30.5549 23.61656 29.79364 24.79738 29.17986 25.97821 28.7257 27.15904 28.4441 28.33987 28.3468"/>
<path transform="matrix(1,0,0,-1.00003,58.106004,143.53583)" stroke-width=".79701" stroke-linecap="butt" stroke-miterlimit="10" stroke-linejoin="miter" fill="none" stroke="#000000" d="M28.3468 28.3468 29.52762 28.44196 30.70845 28.72267 31.88927 29.1764 33.0701 29.78888 34.25093 30.55014 35.43176 31.44592 36.6126 32.46413 37.79341 33.59392 38.97424 34.82101 40.15508 36.1355 41.3359 37.52309 42.51674 38.97253 43.69756 40.47127 44.87839 42.00592 46.05922 43.56609 47.24005 45.1375 48.42088 46.7102 49.6017 48.27165 50.78253 49.80629 51.96336 51.30461 53.1442 52.75491 54.32503 54.14293 55.50584 55.45827 56.68668 56.68668"/>
<path transform="matrix(1,0,0,-1.00003,58.106004,143.53583)" stroke-width=".79701" stroke-linecap="butt" stroke-miterlimit="10" stroke-linejoin="miter" fill="none" stroke="#000000" d="M56.69362 56.69362 57.87442 57.92027 59.05525 59.23389 60.23608 60.62277 61.41692 62.07178 62.59775 63.5714 63.77856 65.1069 64.9594 66.6662 66.14023 68.2389 67.32106 69.81075 68.50189 71.37135 69.68271 72.90686 70.86354 74.40604 72.04437 75.8559 73.2252 77.24306 74.40604 78.55754 75.58685 79.78508 76.76768 80.9153 77.94852 81.93608 79.12935 82.83101 80.31018 83.59229 81.491 84.20648 82.67183 84.66022 83.85266 84.9431 85.0335 85.04042"/>
<path transform="matrix(1,0,0,-1.00003,58.106004,143.53583)" stroke-width=".79701" stroke-linecap="butt" stroke-miterlimit="10" stroke-linejoin="miter" fill="none" stroke="#000000" d="M85.04042 85.04042 86.22124 84.85269 87.40207 84.29211 88.58289 83.38293 89.76372 82.15797 90.94455 80.63371 92.12538 78.84215 93.30621 76.80748 94.48705 74.54704 95.66786 72.09369 96.8487 69.46385 98.02953 66.68954 99.21036 63.78896 100.39119 60.79234 101.572 57.72478 102.75284 54.60358 103.93367 51.46162 105.1145 48.31621 106.29533 45.19069 107.47615 42.124 108.65698 39.12738 109.83781 36.2259 111.01865 33.44987 112.19948 30.81746 113.3803 28.36064"/>
<path transform="matrix(1,0,0,-1.00003,58.106004,143.53583)" stroke-width=".79701" stroke-linecap="butt" stroke-miterlimit="10" stroke-linejoin="miter" fill="none" stroke="#000000" d="M113.38724 28.3468 114.56804 25.86186 115.74887 23.13124 116.9297 20.18654 118.11053 17.06836 119.29137 13.79707 120.47218 10.41333 121.65302 6.94655 122.83385 3.42093 124.01468-.1263 125.19551-3.6731 126.37633-7.17752 127.55716-10.6201 128.73799-13.96057 129.91883-17.16785 131.09966-20.22157 132.28047-23.07892 133.4613-25.72086 134.64214-28.11624 135.82297-30.2145 137.0038-32.00607 138.18462-33.45766 139.36545-34.52992 140.54628-35.20251 141.72711-35.43349"/>
<path transform="matrix(1,0,0,-1.00003,58.106004,143.53583)" stroke-width=".79701" stroke-linecap="butt" stroke-miterlimit="10" stroke-linejoin="miter" fill="none" stroke="#000000" d="M141.73404-35.43349 142.91486-35.42139 144.09569-35.38461 145.27652-35.3232 146.45734-35.23714 147.63817-35.1264 148.819-34.99101 149.99983-34.83098 151.18067-34.64671 152.36148-34.43779 153.54232-34.2038 154.72315-33.94557 155.90398-33.66269 157.08481-33.35558 158.26563-33.0234 159.44646-32.66699 160.62729-32.28548 161.80812-31.87978 162.98896-31.44939 164.16977-30.99437 165.3506-30.51468 166.53144-30.01077 167.71227-29.48177 168.8931-28.92856 170.07392-28.35025"/>
<path transform="matrix(1,0,0,-1.00003,58.106004,143.53583)" stroke-width=".79701" stroke-linecap="butt" stroke-miterlimit="10" stroke-linejoin="miter" fill="none" stroke="#000000" d="M170.08086-28.3468 171.26166-27.7564 172.44249-27.16597 173.62332-26.57556 174.80416-25.98514 175.98499-25.39473 177.1658-24.80432 178.34664-24.2139 179.52747-23.62349 180.7083-23.03307 181.88913-22.44266 183.06995-21.85225 184.25078-21.26183 185.43161-20.67142 186.61244-20.081 187.79328-19.49059 188.9741-18.90018 190.15493-18.30975 191.33576-17.71935 192.51659-17.12892 193.69742-16.53851 194.87825-15.9481 196.05907-15.35768 197.2399-14.76727 198.42073-14.17685"/>
</svg>
