<svg xmlns="http://www.w3.org/2000/svg" xmlns:xlink="http://www.w3.org/1999/xlink" xmlns:inkscape="http://www.inkscape.org/namespaces/inkscape" version="1.1" width="370" height="159" viewBox="0 0 370 159">
<defs>
<path id="font_1_2" d="M.2939911 .64004519C.2939911 .66400149 .2939911 .6660156 .2709961 .6660156 .20899964 .60227969 .12098694 .60227969 .08898926 .60227969V.57128909C.10899353 .57128909 .16799927 .57128909 .21998596 .5972748V.07902527C.21998596 .042999269 .21699524 .0309906 .1269989 .0309906H.09498596V0C.12998963 .0029907227 .21699524 .0029907227 .25698854 .0029907227 .29699708 .0029907227 .38398744 .0029907227 .4189911 0V.0309906H.3869934C.29699708 .0309906 .2939911 .041992189 .2939911 .07902527V.64004519Z"/>
<path id="font_1_3" d="M.1269989 .07699585 .23298645 .18003845C.3889923 .31811524 .44898988 .3721466 .44898988 .47216798 .44898988 .5860901 .35899354 .6660156 .23699951 .6660156 .12399292 .6660156 .049987794 .57411196 .049987794 .48516847 .049987794 .4291687 .099990848 .4291687 .102996829 .4291687 .11999512 .4291687 .15499878 .44117738 .15499878 .48217774 .15499878 .5081787 .13699341 .5341797 .101989749 .5341797 .09399414 .5341797 .09199524 .5341797 .08898926 .5331726 .11199951 .59806826 .1659851 .63500979 .22399903 .63500979 .31498719 .63500979 .35798646 .5541382 .35798646 .47216798 .35798646 .39215089 .30799867 .31311036 .25299073 .25108338L.06098938 .036987306C.049987794 .025985718 .049987794 .023986817 .049987794 0H.42099L.44898988 .17404175H.42399598C.4189911 .14402771 .4119873 .1000061 .4019928 .084991458 .394989 .07699585 .32899476 .07699585 .30699159 .07699585H.1269989Z"/>
<path id="font_1_4" d="M.2899933 .35191346C.37199403 .37893678 .42999269 .4490509 .42999269 .52809146 .42999269 .6100464 .34199525 .6660156 .24598694 .6660156 .14498902 .6660156 .068984989 .60606387 .068984989 .53009036 .068984989 .49710084 .09098816 .47808839 .11999512 .47808839 .15098572 .47808839 .17098999 .50009158 .17098999 .5290985 .17098999 .57910159 .12399292 .57910159 .10899353 .57910159 .13999939 .62802127 .20599365 .64100649 .24198914 .64100649 .2829895 .64100649 .33799745 .6190338 .33799745 .5290985 .33799745 .51708987 .33599855 .45906068 .30999757 .4149933 .27999879 .36691285 .24598694 .36390687 .22099304 .36291505 .21299744 .36190797 .18899536 .35990907 .18199158 .35990907 .17399597 .35890199 .16699219 .35791017 .16699219 .3479004 .16699219 .33691407 .17399597 .33691407 .19099427 .33691407H.23498535C.31698609 .33691407 .35398866 .2686615 .35398866 .17037964 .35398866 .034469606 .2849884 .0055389406 .24099732 .0055389406 .19799805 .0055389406 .12298584 .022491456 .08799744 .08137512 .12298584 .07637024 .1539917 .09837341 .1539917 .1363678 .1539917 .17237854 .1269989 .19238281 .09799194 .19238281 .07398987 .19238281 .041992189 .17837525 .041992189 .1343689 .041992189 .043441774 .1349945-.022460938 .24398804-.022460938 .3659973-.022460938 .45700074 .06838989 .45700074 .17037964 .45700074 .252594 .3939972 .33088685 .2899933 .35191346Z"/>
<path id="font_1_5" d="M.2939911 .16503906V.07800293C.2939911 .041992189 .2919922 .0309906 .21798706 .0309906H.19699097V0C.23799134 .0029907227 .2899933 .0029907227 .33198548 .0029907227 .37399293 .0029907227 .4269867 .0029907227 .46798707 0V.0309906H.44699098C.37298585 .0309906 .37098695 .041992189 .37098695 .07800293V.16503906H.47099305V.19602967H.37098695V.65075686C.37098695 .67074587 .37098695 .6767578 .35499574 .6767578 .34599305 .6767578 .34298707 .6767578 .33499146 .66474917L.027999878 .19602967V.16503906H.2939911M.2999878 .19602967H.055999757L.2999878 .5688019V.19602967Z"/>
<path id="font_1_6" d="M.44898988 .20022583C.44898988 .3193512 .36698915 .41944886 .25898744 .41944886 .21099854 .41944886 .16799927 .40345765 .13198853 .36842347V.5637665C.1519928 .5577698 .18499756 .55078127 .21699524 .55078127 .33999635 .55078127 .4099884 .6417694 .4099884 .6547699 .4099884 .6607666 .40699769 .6657715 .3999939 .6657715 .39898683 .6657715 .39698792 .6657715 .3919983 .66278079 .37199403 .6537781 .32299806 .6337738 .2559967 .6337738 .21598816 .6337738 .16999817 .6407776 .12298584 .6617737 .114990238 .66477969 .11299133 .66477969 .11099243 .66477969 .100997928 .66477969 .100997928 .6567688 .100997928 .6407776V.34439088C.100997928 .32637025 .100997928 .31835938 .114990238 .31835938 .12199402 .31835938 .12399292 .32136537 .12799073 .32736207 .13899231 .3433838 .17599488 .39746095 .25698854 .39746095 .30899049 .39746095 .33399964 .35139466 .34199525 .33337403 .35798646 .29632569 .3600006 .25727845 .3600006 .20722962 .3600006 .17222595 .3600006 .11222839 .33599855 .07035828 .31199647 .031463624 .2749939 .0055389406 .22898865 .0055389406 .1559906 .0055389406 .09899902 .058380128 .08198547 .11723328 .084991458 .1162262 .08799744 .115234378 .09899902 .115234378 .13198853 .115234378 .14898682 .14022827 .14898682 .16423035 .14898682 .18823242 .13198853 .21322632 .09899902 .21322632 .084991458 .21322632 .049987794 .20622254 .049987794 .16023255 .049987794 .07434082 .11898804-.022460938 .23098755-.022460938 .34700013-.022460938 .44898988 .073349 .44898988 .20022583Z"/>
<path id="font_1_7" d="M.13198853 .327713V.35173036C.13198853 .6047821 .2559967 .64100649 .30699159 .64100649 .33099366 .64100649 .37298585 .634964 .394989 .6007538 .37998963 .6007538 .33999635 .6007538 .33999635 .5557556 .33999635 .524765 .3639984 .5097656 .38598634 .5097656 .4019928 .5097656 .43199159 .51875308 .43199159 .5577545 .43199159 .6178589 .3880005 .6660156 .30499269 .6660156 .1769867 .6660156 .041992189 .5367584 .041992189 .31570436 .041992189 .048553468 .1579895-.022460938 .25099183-.022460938 .3619995-.022460938 .45700074 .07156372 .45700074 .2036438 .45700074 .33070375 .36799623 .4267578 .25698854 .4267578 .18899536 .4267578 .1519928 .37573243 .13198853 .327713M.25099183 .0055389406C.18798828 .0055389406 .1579895 .06556702 .1519928 .080566409 .13398743 .127594 .13398743 .2076416 .13398743 .22564698 .13398743 .30369569 .1659851 .40374757 .2559967 .40374757 .27198792 .40374757 .31799317 .40374757 .34899903 .34172059 .36698915 .30470277 .36698915 .2536621 .36698915 .20463562 .36698915 .15661621 .36698915 .10658264 .34999085 .0705719 .31999208 .010528564 .27398683 .0055389406 .25099183 .0055389406Z"/>
<path id="font_1_8" d="M.47599793 .609375C.4850006 .6213684 .4850006 .62338259 .4850006 .64437869H.24198914C.11999512 .64437869 .117996219 .65737918 .11399841 .67637637H.08898926L.055999757 .4702301H.08099365C.083999637 .48625184 .09298706 .5493469 .10598755 .56137087 .11299133 .5673828 .19099427 .5673828 .20399475 .5673828H.41099549C.3999939 .5513611 .32099916 .4421997 .29899598 .40914918 .20899964 .27394105 .17599488 .1347351 .17599488 .032577516 .17599488 .022567749 .17599488-.022460938 .22200012-.022460938 .2679901-.022460938 .2679901 .022567749 .2679901 .032577516V.08366394C.2679901 .13873291 .2709961 .19381714 .2789917 .24790955 .2829895 .27093507 .29699708 .35707093 .34098817 .41915895L.47599793 .609375Z"/>
<path id="font_1_9" d="M.16299439 .4569702C.116989139 .486969 .11299133 .52098086 .11299133 .5379791 .11299133 .598999 .17799378 .64100649 .24899292 .64100649 .32199098 .64100649 .38598634 .58898928 .38598634 .51698306 .38598634 .45996095 .34700013 .4119568 .2869873 .37695313L.16299439 .4569702M.30899049 .36193849C.3809967 .3989563 .42999269 .45095826 .42999269 .51698306 .42999269 .6090088 .34098817 .6660156 .25 .6660156 .1499939 .6660156 .068984989 .59199526 .068984989 .49897767 .068984989 .4809723 .070999149 .43595887 .11299133 .38894654 .12399292 .37695313 .16099549 .35194398 .18598938 .33494569 .12799073 .30592347 .041992189 .24984741 .041992189 .15072632 .041992189 .04458618 .14399719-.022460938 .24899292-.022460938 .3619995-.022460938 .45700074 .06060791 .45700074 .16773987 .45700074 .20379639 .44599916 .24885559 .4079895 .2909088 .3889923 .31193543 .37298585 .3219452 .30899049 .36193849M.20899964 .3199463 .33198548 .24183655C.3600006 .2228241 .40699769 .19277954 .40699769 .13169861 .40699769 .05760193 .33198548 .0055389406 .25 .0055389406 .1639862 .0055389406 .09199524 .067611698 .09199524 .15072632 .09199524 .20880127 .12399292 .27288819 .20899964 .3199463Z"/>
<path id="font_1_10" d="M.36698915 .31781007V.28579713C.36698915 .05178833 .2630005 .0055389406 .20498657 .0055389406 .18798828 .0055389406 .13398743 .007537842 .10699463 .041778566 .15098572 .041778566 .15899658 .07078552 .15899658 .08778381 .15899658 .118774417 .1349945 .13378906 .11299133 .13378906 .09700012 .13378906 .066986087 .12478638 .066986087 .08578491 .066986087 .018615723 .12098694-.022460938 .20599365-.022460938 .33499146-.022460938 .45700074 .11378479 .45700074 .32881166 .45700074 .5979767 .34199525 .6660156 .25299073 .6660156 .19799805 .6660156 .14898682 .64801028 .10598755 .60298159 .06498718 .5579529 .041992189 .5159302 .041992189 .44088746 .041992189 .31581117 .12998963 .21777344 .24198914 .21777344 .30299378 .21777344 .34399415 .25978089 .36698915 .31781007M.24299622 .24076844C.22698975 .24076844 .18099976 .24076844 .1499939 .3038025 .13198853 .3408203 .13198853 .39085389 .13198853 .43988038 .13198853 .49391175 .13198853 .54093936 .15299988 .5779724 .17999268 .6279907 .21798706 .64100649 .25299073 .64100649 .29899598 .64100649 .33198548 .60697939 .34899903 .5619507 .36099244 .52993777 .36499024 .4669037 .36499024 .42086793 .36499024 .3378296 .33099366 .24076844 .24299622 .24076844Z"/>
<path id="font_1_1" d="M.45999146 .31976319C.45999146 .39982606 .45498658 .47988893 .41999818 .5539398 .37399293 .65000918 .2919922 .6660156 .25 .6660156 .18998719 .6660156 .116989139 .64001467 .07598877 .54693606 .04399109 .47789 .038986207 .39982606 .038986207 .31976319 .038986207 .24472046 .042999269 .15464783 .083999637 .07859802 .1269989-.0024719239 .19999695-.022460938 .24899292-.022460938 .30299378-.022460938 .3789978-.0014648438 .4229889 .09359741 .45498658 .16265869 .45999146 .2407074 .45999146 .31976319M.24899292-.00047302247C.20999146-.00047302247 .15098572 .024551392 .1329956 .12062073 .12199402 .18066406 .12199402 .2727356 .12199402 .3317871 .12199402 .39582826 .12199402 .46188355 .12998963 .5159149 .14898682 .63500979 .22399903 .64401248 .24899292 .64401248 .28199769 .64401248 .34799195 .6259918 .36698915 .52693179 .3769989 .47088624 .3769989 .39482118 .3769989 .3317871 .3769989 .25672914 .3769989 .18867493 .3659973 .12461853 .35099793 .029556275 .2939911-.00047302247 .24899292-.00047302247Z"/>
<path id="font_2_2" d="M.48599244 .38136292C.48999024 .39537049 .48999024 .39736939 .48999024 .40437318 .48999024 .42237855 .47599793 .43138124 .46099855 .43138124 .45098878 .43138124 .43499757 .42536927 .42599488 .41036988 .42399598 .405365 .41600038 .37435914 .4119873 .35635377 .40499879 .33035279 .397995 .30334474 .3919983 .27633668L.34700013 .09628296C.34298707 .08126831 .2999878 .011245728 .23399353 .011245728 .18299866 .011245728 .17199707 .055267335 .17199707 .0922699 .17199707 .1382904 .18899536 .20030213 .22299195 .28833009 .23899842 .3293457 .24299622 .3403473 .24299622 .36035157 .24299622 .405365 .21099854 .4423828 .16099549 .4423828 .06599426 .4423828 .0289917 .29733277 .0289917 .28833009 .0289917 .27833558 .038986207 .27833558 .040985109 .27833558 .050994874 .27833558 .051986696 .28033448 .056991579 .29634095 .083999637 .3903656 .12399292 .42037965 .1579895 .42037965 .1659851 .42037965 .18299866 .42037965 .18299866 .3883667 .18299866 .36335755 .17298889 .3373413 .1659851 .31834413 .12599182 .21231079 .10798645 .1552887 .10798645 .10827637 .10798645 .019256592 .17098999-.0107421879 .22999573-.0107421879 .2689972-.0107421879 .30299378 .0062561037 .33099366 .03425598 .31799317-.017745972 .30599977-.06674194 .2659912-.11973572 .23999024-.15385437 .20199585-.18309021 .1559906-.18309021 .14199829-.18309021 .09700012-.18005371 .07998657-.14074707 .09599304-.14074707 .10899353-.14074707 .12298584-.1287384 .1329956-.11973572 .14299011-.10673523 .14299011-.08773804 .14299011-.056747438 .115997318-.052734376 .10598755-.052734376 .08299255-.052734376 .049987794-.068740848 .049987794-.11773682 .049987794-.16796875 .09399414-.20507813 .1559906-.20507813 .25898744-.20507813 .3619995-.11373901 .3899994-.00074768069L.48599244 .38136292Z"/>
<path id="font_1_11" d="M.68699648 .32714845C.70199587 .32714845 .72099307 .32714845 .72099307 .34713746 .72099307 .36714173 .70199587 .36714173 .6879883 .36714173H.08898926C.07499695 .36714173 .055999757 .36714173 .055999757 .34713746 .055999757 .32714845 .07499695 .32714845 .08999634 .32714845H.68699648M.6879883 .13284302C.70199587 .13284302 .72099307 .13284302 .72099307 .15284729 .72099307 .17285156 .70199587 .17285156 .68699648 .17285156H.08999634C.07499695 .17285156 .055999757 .17285156 .055999757 .15284729 .055999757 .13284302 .07499695 .13284302 .08898926 .13284302H.6879883Z"/>
<path id="font_2_1" d="M.20298767 .0009918213C.20298767 .066986087 .17799378 .10598755 .13899231 .10598755 .10598755 .10598755 .085998538 .08099365 .085998538 .052993776 .085998538 .025985718 .10598755 0 .13899231 0 .15098572 0 .1639862 .0039978029 .17399597 .0129852299 .1769867 .01499939 .17799378 .015991211 .1789856 .015991211 .17999268 .015991211 .18099976 .01499939 .18099976 .0009918213 .18099976-.07316589 .1459961-.13328552 .11299133-.16635132 .101989749-.17736817 .101989749-.17936707 .101989749-.18237305 .101989749-.18936157 .10699463-.19335938 .11199951-.19335938 .12298584-.19335938 .20298767-.116256717 .20298767 .0009918213Z"/>
</defs>
<path transform="matrix(1.00006,0,0,-1.00002,24.663582,146.86469)" stroke-width=".3985" stroke-linecap="butt" stroke-miterlimit="10" stroke-linejoin="miter" fill="none" stroke="#000000" d="M0 .75168V140.98235"/>
<path transform="matrix(0,1.00002,1.00006,0,24.663582,146.11299)" d="M3.58653 0C2.52383 .19925 .797 .797-.3985 1.49438V-1.49438C.797-.797 2.52383-.19925 3.58653 0"/>
<path transform="matrix(0,-1.00002,-1.00006,-0,24.663582,5.8795168)" d="M3.58653 0C2.52383 .19925 .797 .797-.3985 1.49438V-1.49438C.797-.797 2.52383-.19925 3.58653 0"/>
<path transform="matrix(1.00006,0,0,-1.00002,24.663582,146.86469)" stroke-width=".3985" stroke-linecap="butt" stroke-miterlimit="10" stroke-linejoin="miter" fill="none" stroke="#000000" d="M.75168 0H282.7164"/>
<path transform="matrix(-1.00006,-0,0,1.00002,25.415307,146.86469)" d="M3.58653 0C2.52383 .19925 .797 .797-.3985 1.49438V-1.49438C.797-.797 2.52383-.19925 3.58653 0"/>
<path transform="matrix(1.00006,0,0,-1.00002,307.3969,146.86469)" d="M3.58653 0C2.52383 .19925 .797 .797-.3985 1.49438V-1.49438C.797-.797 2.52383-.19925 3.58653 0"/>
<path transform="matrix(1.00006,0,0,-1.00002,24.663582,146.86469)" stroke-width=".3985" stroke-linecap="butt" stroke-dasharray=".3985,1.99255" stroke-miterlimit="10" stroke-linejoin="miter" fill="none" stroke="#000000" d="M-2.83484 0H286.30296M-2.83484 28.3468H286.30296M-2.83484 56.69362H286.30296M-2.83484 85.04042H286.30296M-2.83484 113.38724H286.30296M-2.83484 141.73404H286.30296M0-2.83484V144.5689M28.3468-2.83484V144.5689M56.69362-2.83484V144.5689M85.04042-2.83484V144.5689M113.38724-2.83484V144.5689M141.73404-2.83484V144.5689M170.08086-2.83484V144.5689M198.42766-2.83484V144.5689M226.77448-2.83484V144.5689M255.12128-2.83484V144.5689M283.4681-2.83484V144.5689M286.30296 144.5689"/>
<use data-text="1" xlink:href="#font_1_2" transform="matrix(9.963197,0,0,-9.962799,50.521135,156.80489)"/>
<use data-text="2" xlink:href="#font_1_3" transform="matrix(9.963197,0,0,-9.962799,78.86983,156.80489)"/>
<use data-text="3" xlink:href="#font_1_4" transform="matrix(9.963197,0,0,-9.962799,107.21854,156.80489)"/>
<use data-text="4" xlink:href="#font_1_5" transform="matrix(9.963197,0,0,-9.962799,135.56723,156.80489)"/>
<use data-text="5" xlink:href="#font_1_6" transform="matrix(9.963197,0,0,-9.962799,163.91492,156.80489)"/>
<use data-text="6" xlink:href="#font_1_7" transform="matrix(9.963197,0,0,-9.962799,192.26364,156.80489)"/>
<use data-text="7" xlink:href="#font_1_8" transform="matrix(9.963197,0,0,-9.962799,220.61234,156.80489)"/>
<use data-text="8" xlink:href="#font_1_9" transform="matrix(9.963197,0,0,-9.962799,248.96103,156.80489)"/>
<use data-text="9" xlink:href="#font_1_10" transform="matrix(9.963197,0,0,-9.962799,277.30973,156.80489)"/>
<use data-text="1" xlink:href="#font_1_2" transform="matrix(9.963197,0,0,-9.962799,303.16728,156.80489)"/>
<use data-text="0" xlink:href="#font_1_1" transform="matrix(9.963197,0,0,-9.962799,308.14888,156.80489)"/>
<use data-text="1" xlink:href="#font_1_2" transform="matrix(9.963197,0,0,-9.962799,1.2171784,121.72718)"/>
<use data-text="0" xlink:href="#font_1_1" transform="matrix(9.963197,0,0,-9.962799,6.1987764,121.72718)"/>
<use data-text="0" xlink:href="#font_1_1" transform="matrix(9.963197,0,0,-9.962799,11.180374,121.72718)"/>
<use data-text="0" xlink:href="#font_1_1" transform="matrix(9.963197,0,0,-9.962799,16.161972,121.72718)"/>
<use data-text="2" xlink:href="#font_1_3" transform="matrix(9.963197,0,0,-9.962799,1.2171784,93.380619)"/>
<use data-text="0" xlink:href="#font_1_1" transform="matrix(9.963197,0,0,-9.962799,6.1987764,93.380619)"/>
<use data-text="0" xlink:href="#font_1_1" transform="matrix(9.963197,0,0,-9.962799,11.180374,93.380619)"/>
<use data-text="0" xlink:href="#font_1_1" transform="matrix(9.963197,0,0,-9.962799,16.161972,93.380619)"/>
<use data-text="3" xlink:href="#font_1_4" transform="matrix(9.963197,0,0,-9.962799,1.2171784,65.03304)"/>
<use data-text="0" xlink:href="#font_1_1" transform="matrix(9.963197,0,0,-9.962799,6.1987764,65.03304)"/>
<use data-text="0" xlink:href="#font_1_1" transform="matrix(9.963197,0,0,-9.962799,11.180374,65.03304)"/>
<use data-text="0" xlink:href="#font_1_1" transform="matrix(9.963197,0,0,-9.962799,16.161972,65.03304)"/>
<use data-text="4" xlink:href="#font_1_5" transform="matrix(9.963197,0,0,-9.962799,1.2171784,36.68548)"/>
<use data-text="0" xlink:href="#font_1_1" transform="matrix(9.963197,0,0,-9.962799,6.1987764,36.68548)"/>
<use data-text="0" xlink:href="#font_1_1" transform="matrix(9.963197,0,0,-9.962799,11.180374,36.68548)"/>
<use data-text="0" xlink:href="#font_1_1" transform="matrix(9.963197,0,0,-9.962799,16.161972,36.68548)"/>
<use data-text="5" xlink:href="#font_1_6" transform="matrix(9.963197,0,0,-9.962799,1.2171784,8.337906)"/>
<use data-text="0" xlink:href="#font_1_1" transform="matrix(9.963197,0,0,-9.962799,6.1987764,8.337906)"/>
<use data-text="0" xlink:href="#font_1_1" transform="matrix(9.963197,0,0,-9.962799,11.180374,8.337906)"/>
<use data-text="0" xlink:href="#font_1_1" transform="matrix(9.963197,0,0,-9.962799,16.161972,8.337906)"/>
<path transform="matrix(1.00006,0,0,-1.00002,24.663582,146.86469)" stroke-width=".3985" stroke-linecap="butt" stroke-miterlimit="10" stroke-linejoin="miter" fill="none" stroke="#ff0000" d="M0 131.81247H297.6415"/>
<use data-text="y" xlink:href="#font_2_2" transform="matrix(9.963197,0,0,-9.962799,325.84266,17.291092)" fill="#ff0000"/>
<use data-text="=" xlink:href="#font_1_11" transform="matrix(9.963197,0,0,-9.962799,333.85316,17.291092)" fill="#ff0000"/>
<use data-text="4" xlink:href="#font_1_5" transform="matrix(9.963197,0,0,-9.962799,344.35438,17.291092)" fill="#ff0000"/>
<use data-text="," xlink:href="#font_2_1" transform="matrix(9.963197,0,0,-9.962799,349.35108,17.291092)" fill="#ff0000"/>
<use data-text="6" xlink:href="#font_1_7" transform="matrix(9.963197,0,0,-9.962799,353.77934,17.291092)" fill="#ff0000"/>
<use data-text="5" xlink:href="#font_1_6" transform="matrix(9.963197,0,0,-9.962799,358.76094,17.291092)" fill="#ff0000"/>
<use data-text="0" xlink:href="#font_1_1" transform="matrix(9.963197,0,0,-9.962799,363.7425,17.291092)" fill="#ff0000"/>
<path transform="matrix(1.00006,0,0,-1.00002,24.663582,146.86469)" stroke-width=".3985" stroke-linecap="butt" stroke-miterlimit="10" stroke-linejoin="miter" fill="none" stroke="#ff0000" d="M0 28.3468H297.6415"/>
<use data-text="y" xlink:href="#font_2_2" transform="matrix(9.963197,0,0,-9.962799,325.84266,120.75916)" fill="#ff0000"/>
<use data-text="=" xlink:href="#font_1_11" transform="matrix(9.963197,0,0,-9.962799,333.85316,120.75916)" fill="#ff0000"/>
<use data-text="1" xlink:href="#font_1_2" transform="matrix(9.963197,0,0,-9.962799,344.35438,120.75916)" fill="#ff0000"/>
<use data-text="," xlink:href="#font_2_1" transform="matrix(9.963197,0,0,-9.962799,349.35108,120.75916)" fill="#ff0000"/>
<use data-text="0" xlink:href="#font_1_1" transform="matrix(9.963197,0,0,-9.962799,353.77934,120.75916)" fill="#ff0000"/>
<use data-text="0" xlink:href="#font_1_1" transform="matrix(9.963197,0,0,-9.962799,358.76094,120.75916)" fill="#ff0000"/>
<use data-text="0" xlink:href="#font_1_1" transform="matrix(9.963197,0,0,-9.962799,363.7425,120.75916)" fill="#ff0000"/>
<path transform="matrix(1.00006,0,0,-1.00002,24.663582,146.86469)" stroke-width=".79701" stroke-linecap="butt" stroke-miterlimit="10" stroke-linejoin="miter" fill="none" stroke="#000000" d="M0 28.3468C0 28.3468 8.5334 31.46123 11.81087 32.65747 15.08833 33.85371 20.34428 35.77226 23.62175 36.96857 26.89923 38.16487 32.15515 40.08339 35.43263 41.2797 38.7101 42.476 43.96605 44.39449 47.24352 45.59079 50.52098 46.7871 55.77693 48.7056 59.0544 49.9019 62.33188 51.0982 67.5878 53.01675 70.86528 54.213 74.14275 55.40924 79.3987 57.32742 82.67616 58.52367 85.95363 59.71991 91.20956 61.63849 94.48705 62.8348 97.76451 64.0311 103.02046 65.94958 106.29793 67.14589 109.5754 68.3422 114.83134 70.2607 118.10881 71.457 121.38629 72.6533 126.64221 74.5718 129.9197 75.7681 133.19716 76.9644 138.45311 78.88297 141.73058 80.07921 145.00804 81.27545 150.26398 83.19363 153.54145 84.38988 156.81893 85.58612 162.07486 87.50468 165.35234 88.70099 168.6298 89.8973 173.88576 91.8158 177.16323 93.0121 180.44069 94.2084 185.69663 96.12689 188.9741 97.3232 192.25157 98.5195 197.50753 100.438 200.78499 101.63431 204.06246 102.83061 209.3184 104.74916 212.59587 105.9454 215.87335 107.14165 221.12928 109.05983 224.40676 110.25607 227.68422 111.45233 232.94017 113.3709 236.21764 114.5672 239.4951 115.7635 244.75104 117.68199 248.0285 118.8783 251.30599 120.0746 256.56193 121.9931 259.8394 123.1894 263.11689 124.38571 268.37284 126.3042 271.65028 127.5005 274.92778 128.69681 283.46119 131.81162 283.46119 131.81162"/>
<path transform="matrix(1.00006,0,0,-1.00002,24.663582,146.86469)" d="M1.99255 28.3468C1.99255 29.44728 1.10046 30.33936 0 30.33936-1.10046 30.33936-1.99255 29.44728-1.99255 28.3468-1.99255 27.24634-1.10046 26.35425 0 26.35425 1.10046 26.35425 1.99255 27.24634 1.99255 28.3468ZM0 28.3468"/>
<path transform="matrix(1.00006,0,0,-1.00002,24.663582,146.86469)" stroke-width=".3985" stroke-linecap="butt" stroke-miterlimit="10" stroke-linejoin="miter" fill="none" stroke="#000000" d="M1.99255 28.3468C1.99255 29.44728 1.10046 30.33936 0 30.33936-1.10046 30.33936-1.99255 29.44728-1.99255 28.3468-1.99255 27.24634-1.10046 26.35425 0 26.35425 1.10046 26.35425 1.99255 27.24634 1.99255 28.3468ZM0 28.3468"/>
<path transform="matrix(1.00006,0,0,-1.00002,24.663582,146.86469)" d="M285.46067 131.81421C285.46067 132.91468 284.56858 133.80677 283.4681 133.80677 282.3676 133.80677 281.47554 132.91468 281.47554 131.81421 281.47554 130.71373 282.3676 129.82166 283.4681 129.82166 284.56858 129.82166 285.46067 130.71373 285.46067 131.81421ZM283.4681 131.81421"/>
<path transform="matrix(1.00006,0,0,-1.00002,24.663582,146.86469)" stroke-width=".3985" stroke-linecap="butt" stroke-miterlimit="10" stroke-linejoin="miter" fill="none" stroke="#000000" d="M285.46067 131.81421C285.46067 132.91468 284.56858 133.80677 283.4681 133.80677 282.3676 133.80677 281.47554 132.91468 281.47554 131.81421 281.47554 130.71373 282.3676 129.82166 283.4681 129.82166 284.56858 129.82166 285.46067 130.71373 285.46067 131.81421ZM283.4681 131.81421"/>
</svg>
