<svg xmlns="http://www.w3.org/2000/svg" xmlns:xlink="http://www.w3.org/1999/xlink" xmlns:inkscape="http://www.inkscape.org/namespaces/inkscape" version="1.1" width="90" height="90" viewBox="0 0 90 90">
<path transform="matrix(1.00006,0,0,-1.00006,16.68792,59.913637)" stroke-width=".3985" stroke-linecap="butt" stroke-dasharray=".3985,1.99255" stroke-miterlimit="10" stroke-linejoin="miter" fill="none" stroke="#000000" d="M-15.59082-14.17339H72.28444M-15.59082 0H72.28444M-15.59082 14.17339H72.28444M-15.59082 28.3468H72.28444M-15.59082 42.5202H72.28444M-15.59082 56.69362H72.28444M-14.17339-15.59082V58.11102M0-15.59082V58.11102M14.17339-15.59082V58.11102M28.3468-15.59082V58.11102M42.5202-15.59082V58.11102M56.69362-15.59082V58.11102M70.867-15.59082V58.11102M72.28444 58.11102"/>
<path transform="matrix(1.00006,0,0,-1.00006,16.68792,59.913637)" stroke-width=".3985" stroke-linecap="butt" stroke-miterlimit="10" stroke-linejoin="miter" fill="none" stroke="#000000" d="M0-12.00429V54.52449"/>
<path transform="matrix(0,1.00006,1.00006,0,16.68792,71.91865)" d="M3.58653 0C2.52383 .19925 .797 .797-.3985 1.49438V-1.49438C.797-.797 2.52383-.19925 3.58653 0"/>
<path transform="matrix(0,-1.00006,-1.00006,-0,16.68792,5.3858759)" d="M3.58653 0C2.52383 .19925 .797 .797-.3985 1.49438V-1.49438C.797-.797 2.52383-.19925 3.58653 0"/>
<path transform="matrix(1.00006,0,0,-1.00006,16.68792,59.913637)" stroke-width=".3985" stroke-linecap="butt" stroke-miterlimit="10" stroke-linejoin="miter" fill="none" stroke="#000000" d="M-12.00429 0H68.6979"/>
<path transform="matrix(-1.00006,-0,0,1.00006,4.68291,59.913637)" d="M3.58653 0C2.52383 .19925 .797 .797-.3985 1.49438V-1.49438C.797-.797 2.52383-.19925 3.58653 0"/>
<path transform="matrix(1.00006,0,0,-1.00006,85.38994,59.913637)" d="M3.58653 0C2.52383 .19925 .797 .797-.3985 1.49438V-1.49438C.797-.797 2.52383-.19925 3.58653 0"/>
<path transform="matrix(1.00006,0,0,-1.00006,16.68792,59.913637)" stroke-width="1.19553" stroke-linecap="butt" stroke-dasharray="2.98883,2.98883" stroke-miterlimit="10" stroke-linejoin="miter" fill="none" stroke="#ff0000" d="M-14.17339 0H8.30125"/>
<path transform="matrix(1.00006,0,0,-1.00006,16.68792,59.913637)" stroke-width="1.19553" stroke-linecap="butt" stroke-miterlimit="10" stroke-linejoin="miter" fill="none" stroke="#ff0000" d="M8.30125 0H48.39082"/>
<path transform="matrix(1.00006,0,0,-1.00006,16.68792,59.913637)" stroke-width="1.19553" stroke-linecap="butt" stroke-dasharray="2.98883,2.98883" stroke-miterlimit="10" stroke-linejoin="miter" fill="none" stroke="#ff0000" d="M8.30125 0H70.867"/>
<path transform="matrix(1.00006,0,0,-1.00006,16.68792,59.913637)" d="M9.79567 0C9.79567 .82533 9.1266 1.49442 8.30125 1.49442 7.47592 1.49442 6.80684 .82533 6.80684 0 6.80684-.82533 7.47592-1.49442 8.30125-1.49442 9.1266-1.49442 9.79567-.82533 9.79567 0ZM8.30125 0" fill="#ffffff"/>
<path transform="matrix(1.00006,0,0,-1.00006,16.68792,59.913637)" stroke-width="1.19553" stroke-linecap="butt" stroke-miterlimit="10" stroke-linejoin="miter" fill="none" stroke="#ff0000" d="M9.79567 0C9.79567 .82533 9.1266 1.49442 8.30125 1.49442 7.47592 1.49442 6.80684 .82533 6.80684 0 6.80684-.82533 7.47592-1.49442 8.30125-1.49442 9.1266-1.49442 9.79567-.82533 9.79567 0ZM8.30125 0"/>
<path transform="matrix(1.00006,0,0,-1.00006,16.68792,59.913637)" d="M49.88524 0C49.88524 .82533 49.21617 1.49442 48.39082 1.49442 47.56548 1.49442 46.89641 .82533 46.89641 0 46.89641-.82533 47.56548-1.49442 48.39082-1.49442 49.21617-1.49442 49.88524-.82533 49.88524 0ZM48.39082 0" fill="#ffffff"/>
<path transform="matrix(1.00006,0,0,-1.00006,16.68792,59.913637)" stroke-width="1.19553" stroke-linecap="butt" stroke-miterlimit="10" stroke-linejoin="miter" fill="none" stroke="#ff0000" d="M49.88524 0C49.88524 .82533 49.21617 1.49442 48.39082 1.49442 47.56548 1.49442 46.89641 .82533 46.89641 0 46.89641-.82533 47.56548-1.49442 48.39082-1.49442 49.21617-1.49442 49.88524-.82533 49.88524 0ZM48.39082 0"/>
<path transform="matrix(1.00006,0,0,-1.00006,16.68792,59.913637)" stroke-width=".79701" stroke-linecap="butt" stroke-miterlimit="10" stroke-linejoin="miter" fill="none" stroke="#000000" d="M0-28.3468C0-28.3468 1.70662-21.69548 2.36208-19.29205 3.01753-16.88861 4.0687-13.20943 4.72415-11.0245 5.37964-8.8396 6.43079-5.51108 7.08626-3.54463 7.74171-1.5782 8.79288 1.40022 9.44833 3.14821 10.10382 4.8962 11.15497 7.52419 11.81044 9.05365 12.4659 10.58315 13.51706 12.86064 14.17252 14.17166 14.828 15.4827 15.87917 17.41013 16.53462 18.50267 17.19008 19.59521 18.24124 21.17197 18.8967 22.046 19.55217 22.92004 20.60332 24.14656 21.25879 24.80214 21.91426 25.45773 22.96541 26.33392 23.62088 26.77106 24.27635 27.2082 25.3275 27.73413 25.98297 27.95276 26.63844 28.17139 27.68959 28.34665 28.34506 28.3468 29.00053 28.34694 30.05168 28.17213 30.70715 27.95383 31.36263 27.73553 32.41379 27.21024 33.06924 26.77344 33.72472 26.33662 34.77586 25.46086 35.43134 24.8056 36.08679 24.15034 37.13795 22.92451 37.79341 22.05077 38.4489 21.17703 39.50003 19.60052 40.15552 18.50829 40.81097 17.41603 41.86214 15.48927 42.5176 14.17857 43.17308 12.86787 44.22421 10.5908 44.8797 9.06165 45.53516 7.5325 46.58632 4.90517 47.24178 3.15752 47.89726 1.40985 48.9484-1.5681 49.60388-3.53426 50.25934-5.50038 51.3105-8.82846 51.96596-11.01305 52.62143-13.19765 53.67258-16.87617 54.32805-19.27928 54.9835-21.68237 56.69014-28.33295 56.69014-28.33295"/>
</svg>
