<svg xmlns="http://www.w3.org/2000/svg" xmlns:xlink="http://www.w3.org/1999/xlink" xmlns:inkscape="http://www.inkscape.org/namespaces/inkscape" version="1.1" width="396" height="162" viewBox="0 0 396 162">
<defs>
<path id="font_1_58" d="M.7350006 .24145508V.27246095L.61299136 .26945497C.57299807 .26945497 .48799134 .26945497 .45199586 .27246095V.24145508H.48399354C.57398989 .24145508 .57699587 .23045349 .57699587 .19346619V.12948609C.57699587 .017532349 .44999696 .008529663 .42199708 .008529663 .35699464 .008529663 .15899658 .043518068 .15899658 .34155274 .15899658 .6410217 .35598756 .67407229 .41600038 .67407229 .522995 .67407229 .6139984 .5839386 .6339874 .43670655 .6359863 .42268373 .6359863 .41967774 .6499939 .41967774 .66600039 .41967774 .66600039 .42268373 .66600039 .44371034V.68107607C.66600039 .69807437 .66600039 .7050781 .6549988 .7050781 .651001 .7050781 .6469879 .7050781 .6389923 .69306948L.58898928 .61898806C.5569916 .6510315 .5029907 .7050781 .4039917 .7050781 .21798706 .7050781 .055999757 .546875 .055999757 .34155274 .055999757 .13648987 .21598816-.022460938 .4059906-.022460938 .47898866-.022460938 .5589905 .0035247803 .59298709 .06251526 .60598757 .040527345 .6459961 .0005340576 .6569977 .0005340576 .66600039 .0005340576 .66600039 .008529663 .66600039 .023529053V.19746399C.66600039 .2364502 .66999819 .24145508 .7350006 .24145508Z"/>
<path id="font_1_96" d="M.3639984 .38137818C.3639984 .41337586 .33299256 .4423828 .2899933 .4423828 .21699524 .4423828 .18099976 .37538148 .16699219 .3323822V.4423828L.027999878 .43066407V.3996582C.09799194 .3996582 .10598755 .39266969 .10598755 .34370423V.07595825C.10598755 .0309906 .09498596 .0309906 .027999878 .0309906V0L.14199829 .0029907227C.18199158 .0029907227 .22898865 .0029907227 .2689972 0V.0309906H.24798584C.17399597 .0309906 .17199707 .04197693 .17199707 .07795715V.23181153C.17199707 .33137513 .21398926 .42037965 .2899933 .42037965 .29699708 .42037965 .29899598 .42037965 .30099488 .41937257 .2979889 .41838075 .27799989 .40637208 .27799989 .3803711 .27799989 .35237123 .29899598 .33737184 .32099916 .33737184 .33898927 .33737184 .3639984 .3493805 .3639984 .38137818Z"/>
<path id="font_1_28" d="M.48298646 .08912659V.14511109H.45799256V.08912659C.45799256 .03112793 .43299867 .025131226 .42199708 .025131226 .3889923 .025131226 .3849945 .070129398 .3849945 .07511902V.27508546C.3849945 .31707765 .3849945 .3560791 .34899903 .39312745 .30999757 .43223573 .2599945 .4482422 .21199036 .4482422 .12998963 .4482422 .06098938 .40115357 .06098938 .335083 .06098938 .30508424 .08099365 .28808595 .10699463 .28808595 .1349945 .28808595 .15299988 .30807496 .15299988 .33407594 .15299988 .3460846 .147995 .37908937 .101989749 .38008119 .1289978 .41519166 .17799378 .426239 .20999146 .426239 .25898744 .426239 .31599427 .38710023 .31599427 .29808045V.26107789C.2649994 .25808717 .19499207 .25508119 .13198853 .22509766 .056991579 .19110108 .03199768 .13911438 .03199768 .09512329 .03199768 .014251709 .1289978-.0107421879 .19198609-.0107421879 .2579956-.0107421879 .3039856 .029251099 .32299806 .07624817 .32699586 .036132814 .35398866-.005859375 .40098573-.005859375 .42199708-.005859375 .48298646 .008132935 .48298646 .08912659M.31599427 .14013672C.31599427 .04525757 .24398804 .011245728 .19898987 .011245728 .1499939 .011245728 .10899353 .04624939 .10899353 .09625244 .10899353 .15124512 .15098572 .23425293 .31599427 .24024964V.14013672Z"/>
<path id="font_1_84" d="M.5209961 .21636963C.5209961 .34336854 .42399598 .4423828 .31199647 .4423828 .23399353 .4423828 .19198609 .39837647 .17199707 .3763733V.4423828L.027999878 .43066407V.3996582C.09899902 .3996582 .10598755 .3936615 .10598755 .34973146V-.117996219C.10598755-.16308594 .09498596-.16308594 .027999878-.16308594V-.1940918L.13999939-.19110108 .25299073-.1940918V-.16308594C.18598938-.16308594 .1749878-.16308594 .1749878-.117996219V.050186159 .059173585C.17999268 .04319763 .22200012-.0107421879 .2979889-.0107421879 .4169922-.0107421879 .5209961 .087127689 .5209961 .21594239V.21636963M.43798829 .21594239C.43798829 .09512329 .36799623 .011245728 .2939911 .011245728 .2539978 .011245728 .21598816 .031219483 .18899536 .07215881 .1749878 .09312439 .1749878 .09411621 .1749878 .114089969V.33674623C.20399475 .38838197 .25299073 .41737367 .3039856 .41737367 .3769989 .41737367 .43798829 .32937623 .43798829 .21636963V.21594239Z"/>
<path id="font_1_63" d="M.5349884 0V.0309906C.48298646 .0309906 .45799256 .0309906 .45700074 .061019899V.25221253C.45700074 .3383026 .45700074 .36932374 .42599488 .405365 .4119873 .42237855 .3789978 .4423828 .32099916 .4423828 .23699951 .4423828 .19299317 .38233949 .1769867 .34629823H.17599488V.69433596L.03199768 .6826172V.6516113C.101989749 .6516113 .10998535 .64463809 .10998535 .59580996V.076034549C.10998535 .0309906 .09899902 .0309906 .03199768 .0309906V0L.14498902 .0029907227 .25698854 0V.0309906C.18998719 .0309906 .1789856 .0309906 .1789856 .076034549V.2602234C.1789856 .36431886 .25 .42037965 .31399537 .42037965 .3769989 .42037965 .3880005 .36631776 .3880005 .30926515V.076034549C.3880005 .0309906 .3769989 .0309906 .30999757 .0309906V0L.4229889 .0029907227 .5349884 0Z"/>
<path id="font_1_81" d="M.47099305 .21424866C.47099305 .34223939 .37098695 .4482422 .25 .4482422 .125 .4482422 .027999878 .3392334 .027999878 .21424866 .027999878 .085250858 .13198853-.0107421879 .24899292-.0107421879 .36999513-.0107421879 .47099305 .087249759 .47099305 .21424866M.3880005 .22224427C.3880005 .18624878 .3880005 .13224793 .3659973 .08824158 .34399415 .04324341 .2999878 .014251709 .25 .014251709 .20698548 .014251709 .16299439 .035247804 .13598633 .08125305 .11099243 .12524414 .11099243 .18624878 .11099243 .22224427 .11099243 .26124574 .11099243 .31523133 .1349945 .35923768 .1619873 .40522767 .20899964 .426239 .24899292 .426239 .29299928 .426239 .33599855 .40423585 .3619995 .36123658 .3880005 .3182373 .3880005 .26023866 .3880005 .22224427Z"/>
<path id="font_1_55" d="M.35699464 .63479617C.35699464 .6717987 .31999208 .7050781 .2669983 .7050781 .19699097 .7050781 .11199951 .65179446 .11199951 .5457611V.43066407H.032989503V.3996582H.11199951V.07595825C.11199951 .0309906 .100997928 .0309906 .033996583 .0309906V0L.147995 .0029907227C.18798828 .0029907227 .23498535 .0029907227 .2749939 0V.0309906H.2539978C.17999268 .0309906 .17799378 .04197693 .17799378 .07795715V.3996582H.2919922V.43066407H.1749878V.5467529C.1749878 .63479617 .22299195 .68307498 .2669983 .68307498 .269989 .68307498 .2849884 .68307498 .2999878 .675827 .28799439 .6717987 .269989 .6587982 .269989 .6338043 .269989 .61079409 .28599549 .5907898 .31298829 .5907898 .34199525 .5907898 .35699464 .61079409 .35699464 .63479617Z"/>
<path id="font_1_104" d="M.68499758 .45214845 .66600039 .6767578H.054992677L.035995485 .45214845H.06098938C.07499695 .6128235 .08999634 .64575198 .24099732 .64575198 .25898744 .64575198 .2849884 .64575198 .29499818 .64375308 .31599427 .6397705 .31599427 .6287842 .31599427 .60583499V.07901001C.31599427 .04499817 .31599427 .0309906 .21099854 .0309906H.17098999V0C.21199036 .0029907227 .31399537 .0029907227 .3600006 .0029907227 .4059906 .0029907227 .5089874 .0029907227 .5499878 0V.0309906H.5099945C.40499879 .0309906 .40499879 .04499817 .40499879 .07901001V.60583499C.40499879 .62579348 .40499879 .6397705 .4229889 .64375308 .43399049 .64575198 .46099855 .64575198 .47999574 .64575198 .6309967 .64575198 .6459961 .6128235 .6599884 .45214845H.68499758Z"/>
<path id="font_1_105" d="M.33198548 .12385559V.18066406H.30699159V.12585449C.30699159 .052108766 .2769928 .014251709 .23999024 .014251709 .17298889 .014251709 .17298889 .10491943 .17298889 .12187195V.3996582H.31599427V.43066407H.17298889V.6142578H.147995C.14698792 .5324249 .116989139 .42565919 .018997193 .42166139V.3996582H.10398865V.12408447C.10398865 .0012512207 .19699097-.0107421879 .23298645-.0107421879 .3039856-.0107421879 .33198548 .060180665 .33198548 .12408447V.12385559Z"/>
<path id="font_1_72" d="M.25498963 0V.0309906C.18798828 .0309906 .1769867 .0309906 .1769867 .07601929V.69433596L.032989503 .6826172V.6516113C.102996829 .6516113 .11099243 .64460757 .11099243 .5956421V.07595825C.11099243 .0309906 .099990848 .0309906 .032989503 .0309906V0L.14399719 .0029907227 .25498963 0Z"/>
<path id="font_1_95" d="M.7319946 .08753967C.7319946 .09353638 .7319946 .104537967 .71899417 .104537967 .70799258 .104537967 .70799258 .09555054 .70700076 .08854675 .70098879 .017532349 .66600039-.00047302247 .6409912-.00047302247 .59199526-.00047302247 .58399966 .05053711 .56999209 .14355469L.5569916 .22355652C.5389862 .28756715 .48999024 .3205719 .43499757 .3395691 .5319977 .36357118 .6100006 .4245758 .6100006 .502594 .6100006 .5986023 .49598695 .6826172 .34899903 .6826172H.034988405V.6516113H.05899048C.13598633 .6516113 .13798523 .64060977 .13798523 .604599V.077545169C.13798523 .04197693 .13598633 .0309906 .05899048 .0309906H.034988405V0C.070999149 .0029907227 .14199829 .0029907227 .18099976 .0029907227 .21998596 .0029907227 .29100038 .0029907227 .32699586 0V.0309906H.30299378C.22599793 .0309906 .22399903 .04197693 .22399903 .077926639V.3305359H.33898927C.35499574 .3305359 .39698792 .3305359 .43199159 .29658509 .46998597 .26063539 .46998597 .22969055 .46998597 .16279602 .46998597 .09788513 .46998597 .05795288 .5109863 .019989014 .5519867-.016464234 .6069946-.022460938 .6369934-.022460938 .71499636-.022460938 .7319946 .059524537 .7319946 .087524417V.08753967M.5069885 .5025635C.5069885 .43354798 .48298646 .35253907 .33499146 .35253907H.22399903V.6116028C.22399903 .6345978 .22399903 .64660647 .24598694 .6496124 .2559967 .6516113 .2849884 .6516113 .30499269 .6516113 .394989 .6516113 .5069885 .6476135 .5069885 .5025635Z"/>
<path id="font_1_50" d="M.4149933 .11933899C.4149933 .12934876 .40699769 .13134766 .4019928 .13134766 .3929901 .13134766 .3909912 .12535095 .3889923 .11734009 .35398866 .014251709 .2639923 .014251709 .2539978 .014251709 .20399475 .014251709 .1639862 .044281007 .14099121 .08131409 .11099243 .12934876 .11099243 .19540406 .11099243 .23144531H.3899994C.4119873 .23144531 .4149933 .23144531 .4149933 .2524414 .4149933 .35131837 .36099244 .4482422 .23599243 .4482422 .11999512 .4482422 .027999878 .34532167 .027999878 .22042847 .027999878 .08631897 .1329956-.0107421879 .24798584-.0107421879 .36999513-.0107421879 .4149933 .10032654 .4149933 .11933899M.34899903 .2524414H.11199951C.117996219 .40126039 .20199585 .426239 .23599243 .426239 .33898927 .426239 .34899903 .2913971 .34899903 .2524414Z"/>
<path id="font_1_112" d="M.5079956 .3996582V.43066407C.4850006 .4286499 .45599366 .42765809 .43299867 .42765809L.34599305 .43066407V.3996582C.3829956 .39865113 .3939972 .37568666 .3939972 .35671998 .3939972 .34773255 .3919983 .34373475 .3880005 .3327484L.28599549 .078125 .17399597 .35671998C.16799927 .3697052 .16799927 .37368775 .16799927 .37368775 .16799927 .3996582 .20698548 .3996582 .22499085 .3996582V.43066407L.115997318 .42765809C.08898926 .42765809 .04899597 .4286499 .018997193 .43066407V.3996582C.08198547 .3996582 .085998538 .3936615 .09899902 .36271668L.24299622 .008224487C.24899292-.0057525637 .25099183-.0107421879 .2639923-.0107421879 .2769928-.0107421879 .2809906-.0017700195 .2849884 .008224487L.41600038 .3327484C.4249878 .3557129 .44198609 .39865113 .5079956 .3996582Z"/>
<path id="font_1_77" d="M.5349884 0V.0309906C.48298646 .0309906 .45799256 .0309906 .45700074 .061019899V.25221253C.45700074 .3383026 .45700074 .36932374 .42599488 .405365 .4119873 .42237855 .3789978 .4423828 .32099916 .4423828 .24798584 .4423828 .20098877 .39935304 .17298889 .33729554V.4423828L.03199768 .43066407V.3996582C.101989749 .3996582 .10998535 .39266969 .10998535 .34370423V.07595825C.10998535 .0309906 .09899902 .0309906 .03199768 .0309906V0L.14498902 .0029907227 .25698854 0V.0309906C.18998719 .0309906 .1789856 .0309906 .1789856 .07595825V.25978089C.1789856 .36431886 .25 .42037965 .31399537 .42037965 .3769989 .42037965 .3880005 .36631776 .3880005 .30926515V.076034549C.3880005 .0309906 .3769989 .0309906 .30999757 .0309906V0L.4229889 .0029907227 .5349884 0Z"/>
<path id="font_1_109" d="M.5349884 0V.0309906C.46499635 .0309906 .45700074 .037994386 .45700074 .08705139V.4423828L.30999757 .43066407V.3996582C.37998963 .3996582 .3880005 .39266969 .3880005 .34373475V.16601563C.3880005 .07910156 .33999635 .011245728 .2669983 .011245728 .18299866 .011245728 .1789856 .058135988 .1789856 .11009216V.4423828L.03199768 .43066407V.3996582C.10998535 .3996582 .10998535 .39666749 .10998535 .3078003V.15802002C.10998535 .080093387 .10998535-.0107421879 .2619934-.0107421879 .31799317-.0107421879 .3619995 .017242432 .3909912 .07910156V-.0107421879L.5349884 0Z"/>
<path id="font_2_1" d="M.375 .6136017C.3809967 .63760378 .38398744 .6476135 .40299989 .65060427 .4119873 .6516113 .44400025 .6516113 .46398927 .6516113 .5349884 .6516113 .6459961 .6516113 .6459961 .5525818 .6459961 .51856997 .6299896 .44955445 .59098818 .41055299 .5649872 .38453675 .5119934 .35253907 .42199708 .35253907H.30999757L.375 .6136017M.5189972 .33953858C.6199951 .3615265 .7389984 .43154908 .7389984 .5325775 .7389984 .61860659 .6489868 .6826172 .5179901 .6826172H.23298645C.21299744 .6826172 .20399475 .6826172 .20399475 .6626129 .20399475 .6516113 .21299744 .6516113 .23199463 .6516113 .23399353 .6516113 .25299073 .6516113 .269989 .6496124 .28799439 .6476135 .29699708 .64660647 .29699708 .63360598 .29699708 .62960818 .29599 .6266022 .29299928 .6145935L.15899658 .07752991C.14898682 .038528444 .14698792 .030532837 .067993167 .030532837 .049987794 .030532837 .040985109 .030532837 .040985109 .010528564 .040985109-.00047302247 .052993776-.00047302247 .054992677-.00047302247 .08299255-.00047302247 .15299988 .002532959 .18099976 .002532959 .20899964 .002532959 .27999879-.00047302247 .30799867-.00047302247 .31599427-.00047302247 .32798768-.00047302247 .32798768 .01953125 .32798768 .030532837 .31900025 .030532837 .2999878 .030532837 .2630005 .030532837 .23498535 .030532837 .23498535 .048538209 .23498535 .054534913 .23699951 .059524537 .23799134 .0655365L.3039856 .3305359H.4229889C.5139923 .3305359 .5319977 .27453614 .5319977 .23953247 .5319977 .22453308 .5239868 .19352722 .5179901 .17053223 .5109863 .14253235 .5019989 .105529788 .5019989 .08552551 .5019989-.022460938 .621994-.022460938 .6349945-.022460938 .7200012-.022460938 .7549896 .07853699 .7549896 .0925293 .7549896 .104537967 .74398806 .104537967 .7429962 .104537967 .73399356 .104537967 .7319946 .09753418 .7299957 .090530399 .7049866 .016525269 .6619873-.00047302247 .6389923-.00047302247 .60598757-.00047302247 .598999 .021530152 .598999 .060531618 .598999 .091537479 .6049957 .14253235 .60899356 .17453003 .61099246 .1885376 .61299136 .20753479 .61299136 .2215271 .61299136 .2985382 .54599 .3295288 .5189972 .33953858Z"/>
<path id="font_1_47" d="M.5269928 0V.0309906C.45700074 .0309906 .44898988 .038009645 .44898988 .0871582V.69433596L.30499269 .6826172V.6516113C.375 .6516113 .3829956 .64463809 .3829956 .59580996V.38035584C.35398866 .41636659 .31098939 .4423828 .25698854 .4423828 .13899231 .4423828 .033996583 .3443451 .033996583 .21531677 .033996583 .088272098 .13198853-.0107421879 .24598694-.0107421879 .30999757-.0107421879 .35499574 .023254395 .37998963 .055267335V-.0107421879L.5269928 0M.37998963 .117996219C.37998963 .099990848 .37998963 .09799194 .36898805 .08099365 .33898927 .033218385 .2939911 .011245728 .25099183 .011245728 .20599365 .011245728 .16999817 .037216188 .1459961 .075164798 .11999512 .1161499 .116989139 .17320252 .116989139 .21421814 .116989139 .25125123 .11898804 .31129457 .147995 .35632325 .16899109 .38734437 .20698548 .42037965 .26098634 .42037965 .29599 .42037965 .33799745 .405365 .36898805 .3603363 .37998963 .34332276 .37998963 .34132386 .37998963 .32330323V.117996219Z"/>
<path id="font_1_118" d="M.5079956 .3996582V.43066407C.4850006 .4286499 .45599366 .42765809 .43299867 .42765809L.34599305 .43066407V.3996582C.3769989 .39866639 .3929901 .3816681 .3929901 .35668946 .3929901 .34669496 .3919983 .34469605 .3869934 .33270265L.28599549 .08685303 .1749878 .35568238C.17098999 .36567689 .16899109 .36967469 .16899109 .3736725 .16899109 .3996582 .20599365 .3996582 .22499085 .3996582V.43066407L.115997318 .42765809C.08898926 .42765809 .04899597 .4286499 .018997193 .43066407V.3996582C.066986087 .3996582 .085998538 .3996582 .099990848 .36468507L.25-.000091552738 .22499085-.059066774C.20298767-.11407471 .1749878-.18309021 .11099243-.18309021 .10598755-.18309021 .08299255-.18309021 .06399536-.16503906 .09498596-.16104126 .102996829-.13905335 .102996829-.123046878 .102996829-.0970459 .083999637-.08103943 .06098938-.08103943 .040985109-.08103943 .018997193-.09403992 .018997193-.124053958 .018997193-.16905213 .06098938-.20507813 .11099243-.20507813 .17399597-.20507813 .21499634-.14804077 .23899842-.091049198L.4149933 .33569337C.44099427 .39865113 .49198915 .3996582 .5079956 .3996582Z"/>
<path id="font_3_2" d="M.3039856 .6392822C.3039856 .6642761 .30299378 .666275 .27799989 .666275 .21598816 .60227969 .12399292 .60227969 .09298706 .60227969V.57128909C.11199951 .57128909 .17298889 .57128909 .22698975 .5972748V.08001709C.22698975 .042999269 .22399903 .0309906 .1309967 .0309906H.09899902V0C.1349945 .0029907227 .22399903 .0029907227 .2649994 .0029907227 .30599977 .0029907227 .3959961 .0029907227 .43199159 0V.0309906H.3999939C.30699159 .0309906 .3039856 .042999269 .3039856 .08001709V.6392822Z"/>
<path id="font_3_3" d="M.46199037 .17704773H.43399049C.43199159 .16404724 .42399598 .10501099 .41099549 .08900452 .40499879 .07998657 .33599855 .07998657 .31599427 .07998657H.13798523L.23699951 .17404175C.40098573 .3161316 .46199037 .36915589 .46199037 .4711914 .46199037 .5860901 .36698915 .6660156 .24398804 .6660156 .1289978 .6660156 .050994874 .575119 .050994874 .4841919 .050994874 .43418885 .09399414 .42919923 .102996829 .42919923 .125 .42919923 .15499878 .44519044 .15499878 .48120118 .15499878 .51119998 .13398743 .5332031 .102996829 .5332031 .09799194 .5332031 .09498596 .5332031 .09098816 .53219607 .114990238 .6030731 .1789856 .63500979 .23298645 .63500979 .33499146 .63500979 .36999513 .5401764 .36999513 .4711914 .36999513 .36915589 .29299928 .28611756 .24499512 .23408509L.06199646 .035995485C.050994874 .024993897 .050994874 .022994996 .050994874 0H.43399049L.46199037 .17704773Z"/>
<path id="font_3_4" d="M.30499269 .35195924C.397995 .38697816 .44198609 .46006776 .44198609 .5290985 .44198609 .60606387 .35699464 .6660156 .25299073 .6660156 .14898682 .6660156 .070999149 .60705569 .070999149 .5310974 .070999149 .49809266 .09298706 .47909547 .12199402 .47909547 .15098572 .47909547 .17199707 .50009158 .17199707 .5290985 .17199707 .5640869 .147995 .57910159 .11399841 .57910159 .13999939 .6210327 .20098877 .64100649 .25 .64100649 .33299256 .64100649 .34899903 .5750885 .34899903 .52809146 .34899903 .49809266 .34298707 .45005799 .31799317 .41201783 .2869873 .36695863 .2519989 .36495973 .22299195 .36296083 .19799805 .36094667 .19599915 .36094667 .18798828 .36094667 .1789856 .35995484 .17098999 .35894776 .17098999 .34794618 .17098999 .33496095 .1789856 .33496095 .19599915 .33496095H.24299622C.32998658 .33496095 .36799623 .2646637 .36799623 .16937256 .36799623 .04145813 .2999878 .0055389406 .24899292 .0055389406 .22999573 .0055389406 .1329956 .010528564 .08799744 .0843811 .12399292 .07939148 .1519928 .10437012 .1519928 .13838196 .1519928 .17137146 .1269989 .19238281 .09799194 .19238281 .07299805 .19238281 .042999269 .17736817 .042999269 .13537598 .042999269 .046447755 .13598633-.022460938 .2519989-.022460938 .3769989-.022460938 .46998597 .06741333 .46998597 .16937256 .46998597 .25663758 .40098573 .33093263 .30499269 .35195924Z"/>
<path id="font_3_5" d="M.0289917 .19602967V.16503906H.3019867V.07901001C.3019867 .041992189 .29899598 .0309906 .22399903 .0309906H.20199585V0C.2649994 .0029907227 .33499146 .0029907227 .34199525 .0029907227 .34700013 .0029907227 .4189911 .0029907227 .48199464 0V.0309906H.45999146C.3849945 .0309906 .38198854 .041992189 .38198854 .07901001V.16503906H.48399354V.19602967H.38198854V.64974978C.38198854 .669754 .38198854 .6767578 .36299134 .6767578 .35099793 .6767578 .34999085 .67575076 .34098817 .66174319L.0289917 .19602967M.06098938 .19602967 .30799867 .56581118V.19602967H.06098938Z"/>
<path id="font_3_6" d="M.10398865 .3444519C.10398865 .32641603 .10398865 .31539918 .117996219 .31539918 .12599182 .31539918 .1289978 .31941224 .1349945 .32843019 .16499329 .3704834 .21299744 .39453126 .2649994 .39453126 .37199403 .39453126 .37199403 .24029541 .37199403 .20425415 .37199403 .17324829 .37199403 .11125183 .34399415 .06637573 .31698609 .024475098 .2749939 .0055389406 .23599243 .0055389406 .1769867 .0055389406 .10998535 .042434694 .085998538 .116256717 .08699036 .116256717 .09298706 .11425781 .099990848 .11425781 .11999512 .11425781 .14898682 .12724304 .14898682 .16325379 .14898682 .19424439 .1269989 .21224976 .099990848 .21224976 .07899475 .21224976 .050994874 .20025635 .050994874 .1602478 .050994874 .069366458 .1269989-.022460938 .23799134-.022460938 .35899354-.022460938 .46199037 .0753479 .46199037 .19924927 .46199037 .3204193 .37599183 .41952516 .2669983 .41952516 .21899414 .41952516 .16999817 .40351869 .1349945 .36747743V.56477358C.16499329 .5557709 .19599915 .55078127 .22698975 .55078127 .34999085 .55078127 .42199708 .6397705 .42199708 .652771 .42199708 .6617737 .41600038 .6657715 .41099549 .6657715 .40899659 .6657715 .40699769 .6657715 .397995 .6607666 .35099793 .6417694 .30499269 .6337738 .2630005 .6337738 .21998596 .6337738 .1749878 .6417694 .1289978 .6607666 .11898804 .6657715 .116989139 .6657715 .115997318 .6657715 .10398865 .6657715 .10398865 .655777 .10398865 .6387787V.3444519Z"/>
<path id="font_3_7" d="M.13398743 .33073426C.13398743 .43276979 .14498902 .4897766 .17199707 .54177859 .19198609 .58277896 .24099732 .64100649 .31498719 .64100649 .33499146 .64100649 .3809967 .63697817 .4039917 .6007843 .36698915 .6007843 .35099793 .5817871 .35099793 .55477908 .35099793 .5287781 .36898805 .50878909 .39698792 .50878909 .4249878 .50878909 .44400025 .5267792 .44400025 .55677798 .44400025 .612854 .4039917 .6660156 .31298829 .6660156 .18399048 .6660156 .042999269 .53878787 .042999269 .3157196 .042999269 .044555665 .16499329-.022460938 .25898744-.022460938 .36999513-.022460938 .46998597 .0705719 .46998597 .20265198 .46998597 .32972718 .37799073 .42578126 .2649994 .42578126 .20498657 .42578126 .1619873 .39076234 .13398743 .33073426M.2579956 .0055389406C.20098877 .0055389406 .16799927 .05256653 .1559906 .08157349 .13699341 .12660218 .13598633 .20965576 .13598633 .22566223 .13598633 .29270936 .16699219 .4007721 .2630005 .4007721 .2789917 .4007721 .32798768 .4007721 .3600006 .33872987 .3789978 .30070497 .3789978 .25167848 .3789978 .20365906 .3789978 .15562439 .3789978 .1065979 .3600006 .06956482 .32899476 .012542725 .2849884 .0055389406 .2579956 .0055389406Z"/>
<path id="font_3_8" d="M.48999024 .60954287C.49899293 .62054446 .49899293 .62254336 .49899293 .6435547H.25C.12399292 .6435547 .12098694 .6565399 .117996219 .67555239H.08999634L.056991579 .46655274H.084991458C.08898926 .48954774 .09700012 .5455475 .10998535 .55755618 .116989139 .56355288 .19599915 .56355288 .20999146 .56355288H.41999818L.32398988 .4325409C.19400025 .25354005 .18199158 .090530399 .18199158 .03353882 .18199158 .022537232 .18199158-.022460938 .22799683-.022460938 .2749939-.022460938 .2749939 .021530152 .2749939 .03453064V.08352661C.2749939 .23054505 .29699708 .34654237 .34999085 .41854859L.48999024 .60954287Z"/>
<path id="font_3_9" d="M.17199707 .45387269C.14199829 .47288514 .11898804 .4998932 .11898804 .53692629 .11898804 .6019745 .18899536 .64100649 .25498963 .64100649 .33198548 .64100649 .3939972 .58695986 .3939972 .51690676 .3939972 .44685365 .33399964 .40083314 .2939911 .37780763L.17199707 .45387269M.31900025 .36180116C.36898805 .38581849 .44198609 .43585206 .44198609 .51690676 .44198609 .6109772 .34799195 .6660156 .2579956 .6660156 .15299988 .6660156 .070999149 .5909729 .070999149 .49890138 .070999149 .46087647 .084991458 .42485047 .10899353 .39582826 .12599182 .3768158 .13198853 .37280274 .18998719 .3357849 .101989749 .29374696 .042999269 .23269654 .042999269 .15063477 .042999269 .044555665 .147995-.022460938 .2559967-.022460938 .37199403-.022460938 .46998597 .059570314 .46998597 .16764832 .46998597 .26472474 .3959961 .3127594 .37098695 .32876588 .3600006 .33677674 .33099366 .35479737 .31900025 .36180116M.21699524 .31877137 .34298707 .2407074C.3659973 .22569275 .41600038 .19366455 .41600038 .1326294 .41600038 .05357361 .33599855 .0055389406 .25698854 .0055389406 .16999817 .0055389406 .09700012 .06758118 .09700012 .15063477 .09700012 .22268677 .14698792 .28274537 .21699524 .31877137Z"/>
<path id="font_3_10" d="M.3789978 .31478883V.2927704C.3789978 .04875183 .2679901 .0055389406 .21099854 .0055389406 .18798828 .0055389406 .13699341 .009552002 .11099243 .042755128H.114990238C.12298584 .040740968 .1619873 .04875183 .1619873 .088760379 .1619873 .11476135 .14399719 .13476563 .115997318 .13476563 .08799744 .13476563 .068984989 .116760257 .068984989 .086761478 .068984989 .020629883 .12199402-.022460938 .21199036-.022460938 .34098817-.022460938 .46998597 .10975647 .46998597 .3287964 .46998597 .5999756 .34999085 .6660156 .2599945 .6660156 .14498902 .6660156 .042999269 .5729675 .042999269 .44187928 .042999269 .31478883 .1349945 .21875 .24798584 .21875 .32099916 .21875 .36099244 .27175904 .3789978 .31478883M.25 .2437439C.23399353 .2437439 .18499756 .2437439 .15299988 .30578614 .13398743 .34381105 .13398743 .39283753 .13398743 .4408722 .13398743 .48890687 .13398743 .5389404 .15499878 .57696536 .18499756 .628006 .22399903 .64100649 .2599945 .64100649 .32798768 .64100649 .35499574 .57196047 .35899354 .5619507 .37298585 .52493289 .3769989 .4638977 .3769989 .42086793 .3769989 .34780885 .34399415 .2437439 .25 .2437439Z"/>
<path id="font_3_1" d="M.47299195 .31976319C.47299195 .38682557 .46998597 .47288514 .43499757 .5479431 .3909912 .64201357 .31498719 .6660156 .25698854 .6660156 .19699097 .6660156 .12098694 .64201357 .07699585 .5459442 .04499817 .47688294 .039993287 .39582826 .039993287 .31976319 .039993287 .25471498 .041992189 .15765381 .084991458 .07858276 .13198853-.0064697267 .20999146-.022460938 .2559967-.022460938 .32099916-.022460938 .394989 .0055389406 .43699647 .097595218 .46699525 .1646576 .47299195 .23971558 .47299195 .31976319M.25698854 .002532959C.22698975 .002532959 .15499878 .016540528 .13598633 .12962342 .12599182 .18867493 .12599182 .2747345 .12599182 .33177186 .12599182 .39982606 .12599182 .47888185 .13798523 .53393557 .1579895 .6230011 .22200012 .64100649 .2559967 .64100649 .2939911 .64100649 .35699464 .62098696 .37599183 .5279236 .3869934 .47288514 .3869934 .39482118 .3869934 .33177186 .3869934 .2697296 .3869934 .18566895 .3769989 .12661743 .35598756 .012542725 .28199769 .002532959 .25698854 .002532959Z"/>
<path id="font_4_1" d="M.6749878 .22944641C.69299319 .22944641 .71199038 .22944641 .71199038 .25144959 .71199038 .27246095 .69200137 .27246095 .6749878 .27246095H.12298584C.10598755 .27246095 .085998538 .27246095 .085998538 .25144959 .085998538 .22944641 .10499573 .22944641 .12298584 .22944641H.6749878Z"/>
<path id="font_1_42" d="M.6649933 .23271179C.6649933 .24272156 .6649933 .24972534 .6519928 .24972534 .6409912 .24972534 .6409912 .24372864 .6399994 .23371887 .6319885 .09059143 .5249939 .008529663 .41600038 .008529663 .35499574 .008529663 .15899658 .042556764 .15899658 .34080506 .15899658 .64004519 .35398866 .67407229 .4149933 .67407229 .5239868 .67407229 .61299136 .58299258 .6329956 .4368744 .6349945 .42286683 .6349945 .41986085 .6489868 .41986085 .6649933 .41986085 .6649933 .42286683 .6649933 .44387818V.68107607C.6649933 .69807437 .6649933 .7050781 .6539917 .7050781 .6499939 .7050781 .6459961 .7050781 .6380005 .69306948L.58799746 .61901858C.5509949 .6550598 .5 .7050781 .4039917 .7050781 .21699524 .7050781 .055999757 .5459595 .055999757 .34179688 .055999757 .1346283 .21798706-.022460938 .4039917-.022460938 .5669861-.022460938 .6649933 .116622928 .6649933 .23271179Z"/>
<path id="font_1_59" d="M.4850006 .40411378C.4850006 .42111207 .47299195 .453125 .43399049 .453125 .4139862 .453125 .36999513 .44711305 .32798768 .40611268 .28599549 .43937684 .24398804 .4423828 .22200012 .4423828 .1289978 .4423828 .05999756 .37338258 .05999756 .29638673 .05999756 .25239564 .08198547 .21440125 .10699463 .19340515 .09399414 .17840576 .07598877 .14538574 .07598877 .11035156 .07598877 .07899475 .08898926 .04083252 .11999512 .020828248 .05999756 .003829956 .027999878-.039138795 .027999878-.07911682 .027999878-.15107727 .1269989-.20605469 .24899292-.20605469 .36698915-.20605469 .47099305-.15507508 .47099305-.07711792 .47099305-.042144777 .45700074 .008834839 .4059906 .036834718 .35299684 .064834598 .29499818 .064834598 .23399353 .064834598 .20899964 .064834598 .1659851 .064834598 .15899658 .065841678 .1269989 .069885257 .10598755 .101242069 .10598755 .13334656 .10598755 .13735962 .10598755 .16040039 .12298584 .18040467 .1619873 .15240479 .20298767 .14941406 .22200012 .14941406 .31498719 .14941406 .38398744 .21839905 .38398744 .2953949 .38398744 .3323822 .36799623 .36938478 .34298707 .39237977 .3789978 .42637635 .4149933 .43138124 .43299867 .43138124 .43299867 .43112184 .43998719 .43112184 .44299317 .43011476 .43199159 .42611695 .4269867 .41513063 .4269867 .40315248 .4269867 .38616944 .43998719 .37417604 .45599366 .37417604 .46598817 .37417604 .4850006 .3811798 .4850006 .4041443V.40411378M.30899049 .29626466C.30899049 .26930238 .30799867 .2373352 .29299928 .21235657 .2849884 .20037842 .2619934 .17240906 .22200012 .17240906 .1349945 .17240906 .1349945 .2722931 .1349945 .29527284 .1349945 .3222351 .13598633 .35420228 .15098572 .3791809 .15899658 .3913269 .18199158 .41937257 .22200012 .41937257 .30899049 .41937257 .30899049 .31922914 .30899049 .29618836V.29626466M.4189911-.07911682C.4189911-.13308716 .34799195-.18305969 .25-.18305969 .14898682-.18305969 .07998657-.13209534 .07998657-.07911682 .07998657-.03314209 .117996219 .003829956 .1619873 .0068359377H.22099304C.30699159 .0068359377 .4189911 .0068359377 .4189911-.07911682Z"/>
<path id="font_5_1" d="M.44198609 .69781497C.43499757 .7108154 .43299867 .7158203 .41600038 .7158203 .39898683 .7158203 .39698792 .7108154 .3899994 .69781497L.051986696 .019989014C.04699707 .010986328 .04699707 .008987427 .04699707 .0079956059 .04699707 0 .052993776 0 .068984989 0H.7630005C.7789917 0 .7849884 0 .7849884 .0079956059 .7849884 .008987427 .7849884 .010986328 .7799988 .019989014L.44198609 .69781497M.38398744 .61582949 .6529999 .07598877H.11399841L.38398744 .61582949Z"/>
<path id="font_1_66" d="M.24699402 0V.0309906C.18099976 .0309906 .1769867 .035995485 .1769867 .075042728V.4423828L.036987306 .43066407V.3996582C.101989749 .3996582 .11099243 .3936615 .11099243 .3447113V.07595825C.11099243 .0309906 .099990848 .0309906 .032989503 .0309906V0L.14299011 .0029907227C.17799378 .0029907227 .21299744 .0009918213 .24699402 0M.19198609 .603775C.19198609 .6307678 .16899109 .6567688 .13899231 .6567688 .10499573 .6567688 .084991458 .6287689 .084991458 .603775 .084991458 .57676699 .10798645 .55078127 .13798523 .55078127 .17199707 .55078127 .19198609 .5787811 .19198609 .603775Z"/>
</defs>
<use data-text="G" xlink:href="#font_1_58" transform="matrix(9.9626,0,0,-9.962899,48.345994,158.6894)"/>
<use data-text="r" xlink:href="#font_1_96" transform="matrix(9.9626,0,0,-9.962899,56.16664,158.6894)"/>
<use data-text="a" xlink:href="#font_1_28" transform="matrix(9.9626,0,0,-9.962899,60.071977,158.6894)"/>
<use data-text="p" xlink:href="#font_1_84" transform="matrix(9.9626,0,0,-9.962899,65.05327,158.6894)"/>
<use data-text="h" xlink:href="#font_1_63" transform="matrix(9.9626,0,0,-9.962899,70.59247,158.6894)"/>
<use data-text="o" xlink:href="#font_1_81" transform="matrix(9.9626,0,0,-9.962899,79.44922,158.6894)"/>
<use data-text="f" xlink:href="#font_1_55" transform="matrix(9.9626,0,0,-9.962899,84.43051,158.6894)"/>
<use data-text="T" xlink:href="#font_1_104" transform="matrix(9.9626,0,0,-9.962899,90.796619,158.6894)"/>
<use data-text="o" xlink:href="#font_1_81" transform="matrix(9.9626,0,0,-9.962899,97.17267,158.6894)"/>
<use data-text="t" xlink:href="#font_1_105" transform="matrix(9.9626,0,0,-9.962899,102.15396,158.6894)"/>
<use data-text="a" xlink:href="#font_1_28" transform="matrix(9.9626,0,0,-9.962899,106.02942,158.6894)"/>
<use data-text="l" xlink:href="#font_1_72" transform="matrix(9.9626,0,0,-9.962899,111.01071,158.6894)"/>
<use data-text="R" xlink:href="#font_1_95" transform="matrix(9.9626,0,0,-9.962899,117.087909,158.6894)"/>
<use data-text="e" xlink:href="#font_1_50" transform="matrix(9.9626,0,0,-9.962899,124.420398,158.6894)"/>
<use data-text="v" xlink:href="#font_1_112" transform="matrix(9.9626,0,0,-9.962899,128.8438,158.6894)"/>
<use data-text="e" xlink:href="#font_1_50" transform="matrix(9.9626,0,0,-9.962899,133.83507,158.6894)"/>
<use data-text="n" xlink:href="#font_1_77" transform="matrix(9.9626,0,0,-9.962899,138.25847,158.6894)"/>
<use data-text="u" xlink:href="#font_1_109" transform="matrix(9.9626,0,0,-9.962899,143.51873,158.6894)"/>
<use data-text="e" xlink:href="#font_1_50" transform="matrix(9.9626,0,0,-9.962899,149.05794,158.6894)"/>
<use data-text="R" xlink:href="#font_2_1" transform="matrix(9.9626,0,0,-9.962899,160.10698,158.6894)"/>
<path transform="matrix(1,0,0,-1.00003,37.75,71.101779)" stroke-width=".3985" stroke-linecap="butt" stroke-miterlimit="10" stroke-linejoin="miter" fill="none" stroke="#000000" d="M0-56.69275H154.6561"/>
<path transform="matrix(1,0,0,-1.00003,37.75,71.101779)" stroke-width=".3985" stroke-linecap="butt" stroke-miterlimit="10" stroke-linejoin="miter" fill="none" stroke="#000000" d="M0-28.34636H154.6561"/>
<path transform="matrix(1,0,0,-1.00003,37.75,71.101779)" stroke-width=".3985" stroke-linecap="butt" stroke-miterlimit="10" stroke-linejoin="miter" fill="none" stroke="#000000" d="M0 0H154.6561"/>
<path transform="matrix(1,0,0,-1.00003,37.75,71.101779)" stroke-width=".3985" stroke-linecap="butt" stroke-miterlimit="10" stroke-linejoin="miter" fill="none" stroke="#000000" d="M0 28.34636H154.6561"/>
<path transform="matrix(1,0,0,-1.00003,37.75,71.101779)" stroke-width=".3985" stroke-linecap="butt" stroke-miterlimit="10" stroke-linejoin="miter" fill="none" stroke="#000000" d="M0 56.69275H154.6561"/>
<path transform="matrix(1,0,0,-1.00003,37.75,71.101779)" stroke-width=".79701" stroke-linecap="butt" stroke-dasharray=".79701,1.99255" stroke-miterlimit="10" stroke-linejoin="miter" fill="none" stroke="#000000" d="M0-51.02345H154.6561"/>
<path transform="matrix(1,0,0,-1.00003,37.75,71.101779)" stroke-width=".79701" stroke-linecap="butt" stroke-dasharray=".79701,1.99255" stroke-miterlimit="10" stroke-linejoin="miter" fill="none" stroke="#000000" d="M0-45.35419H154.6561"/>
<path transform="matrix(1,0,0,-1.00003,37.75,71.101779)" stroke-width=".79701" stroke-linecap="butt" stroke-dasharray=".79701,1.99255" stroke-miterlimit="10" stroke-linejoin="miter" fill="none" stroke="#000000" d="M0-39.6849H154.6561"/>
<path transform="matrix(1,0,0,-1.00003,37.75,71.101779)" stroke-width=".79701" stroke-linecap="butt" stroke-dasharray=".79701,1.99255" stroke-miterlimit="10" stroke-linejoin="miter" fill="none" stroke="#000000" d="M0-34.01564H154.6561"/>
<path transform="matrix(1,0,0,-1.00003,37.75,71.101779)" stroke-width=".79701" stroke-linecap="butt" stroke-dasharray=".79701,1.99255" stroke-miterlimit="10" stroke-linejoin="miter" fill="none" stroke="#000000" d="M0-28.34636H154.6561"/>
<path transform="matrix(1,0,0,-1.00003,37.75,71.101779)" stroke-width=".79701" stroke-linecap="butt" stroke-dasharray=".79701,1.99255" stroke-miterlimit="10" stroke-linejoin="miter" fill="none" stroke="#000000" d="M0-22.6771H154.6561"/>
<path transform="matrix(1,0,0,-1.00003,37.75,71.101779)" stroke-width=".79701" stroke-linecap="butt" stroke-dasharray=".79701,1.99255" stroke-miterlimit="10" stroke-linejoin="miter" fill="none" stroke="#000000" d="M0-17.00781H154.6561"/>
<path transform="matrix(1,0,0,-1.00003,37.75,71.101779)" stroke-width=".79701" stroke-linecap="butt" stroke-dasharray=".79701,1.99255" stroke-miterlimit="10" stroke-linejoin="miter" fill="none" stroke="#000000" d="M0-11.33855H154.6561"/>
<path transform="matrix(1,0,0,-1.00003,37.75,71.101779)" stroke-width=".79701" stroke-linecap="butt" stroke-dasharray=".79701,1.99255" stroke-miterlimit="10" stroke-linejoin="miter" fill="none" stroke="#000000" d="M0-5.66927H154.6561"/>
<path transform="matrix(1,0,0,-1.00003,37.75,71.101779)" stroke-width=".79701" stroke-linecap="butt" stroke-dasharray=".79701,1.99255" stroke-miterlimit="10" stroke-linejoin="miter" fill="none" stroke="#000000" d="M0 0H154.6561"/>
<path transform="matrix(1,0,0,-1.00003,37.75,71.101779)" stroke-width=".79701" stroke-linecap="butt" stroke-dasharray=".79701,1.99255" stroke-miterlimit="10" stroke-linejoin="miter" fill="none" stroke="#000000" d="M0 5.66927H154.6561"/>
<path transform="matrix(1,0,0,-1.00003,37.75,71.101779)" stroke-width=".79701" stroke-linecap="butt" stroke-dasharray=".79701,1.99255" stroke-miterlimit="10" stroke-linejoin="miter" fill="none" stroke="#000000" d="M0 11.33855H154.6561"/>
<path transform="matrix(1,0,0,-1.00003,37.75,71.101779)" stroke-width=".79701" stroke-linecap="butt" stroke-dasharray=".79701,1.99255" stroke-miterlimit="10" stroke-linejoin="miter" fill="none" stroke="#000000" d="M0 17.00781H154.6561"/>
<path transform="matrix(1,0,0,-1.00003,37.75,71.101779)" stroke-width=".79701" stroke-linecap="butt" stroke-dasharray=".79701,1.99255" stroke-miterlimit="10" stroke-linejoin="miter" fill="none" stroke="#000000" d="M0 22.6771H154.6561"/>
<path transform="matrix(1,0,0,-1.00003,37.75,71.101779)" stroke-width=".79701" stroke-linecap="butt" stroke-dasharray=".79701,1.99255" stroke-miterlimit="10" stroke-linejoin="miter" fill="none" stroke="#000000" d="M0 28.34636H154.6561"/>
<path transform="matrix(1,0,0,-1.00003,37.75,71.101779)" stroke-width=".79701" stroke-linecap="butt" stroke-dasharray=".79701,1.99255" stroke-miterlimit="10" stroke-linejoin="miter" fill="none" stroke="#000000" d="M0 34.01564H154.6561"/>
<path transform="matrix(1,0,0,-1.00003,37.75,71.101779)" stroke-width=".79701" stroke-linecap="butt" stroke-dasharray=".79701,1.99255" stroke-miterlimit="10" stroke-linejoin="miter" fill="none" stroke="#000000" d="M0 39.6849H154.6561"/>
<path transform="matrix(1,0,0,-1.00003,37.75,71.101779)" stroke-width=".79701" stroke-linecap="butt" stroke-dasharray=".79701,1.99255" stroke-miterlimit="10" stroke-linejoin="miter" fill="none" stroke="#000000" d="M0 45.35419H154.6561"/>
<path transform="matrix(1,0,0,-1.00003,37.75,71.101779)" stroke-width=".79701" stroke-linecap="butt" stroke-dasharray=".79701,1.99255" stroke-miterlimit="10" stroke-linejoin="miter" fill="none" stroke="#000000" d="M0 51.02345H154.6561"/>
<path transform="matrix(1,0,0,-1.00003,37.75,71.101779)" stroke-width=".79701" stroke-linecap="butt" stroke-dasharray=".79701,1.99255" stroke-miterlimit="10" stroke-linejoin="miter" fill="none" stroke="#000000" d="M0 56.69275H154.6561"/>
<path transform="matrix(1,0,0,-1.00003,37.75,71.101779)" stroke-width=".3985" stroke-linecap="butt" stroke-miterlimit="10" stroke-linejoin="miter" fill="none" stroke="#000000" d="M0 0H151.06957"/>
<path transform="matrix(1,0,0,-1.00003,188.81957,71.101779)" d="M3.58653 0C2.52383 .19925 .797 .797-.3985 1.49438V-1.49438C.797-.797 2.52383-.19925 3.58653 0"/>
<use data-text="d" xlink:href="#font_1_47" transform="matrix(9.9626,0,0,-9.962899,184.655,81.53609)"/>
<use data-text="a" xlink:href="#font_1_28" transform="matrix(9.9626,0,0,-9.962899,190.1942,81.53609)"/>
<use data-text="y" xlink:href="#font_1_118" transform="matrix(9.9626,0,0,-9.962899,194.9065,81.53609)"/>
<path transform="matrix(1,0,0,-1.00003,37.75,71.101779)" stroke-width=".3985" stroke-linecap="butt" stroke-miterlimit="10" stroke-linejoin="miter" fill="none" stroke="#000000" d="M0-56.69275V55.94084"/>
<path transform="matrix(0,-1.00003,-1,-0,37.75,15.159252)" d="M3.58653 0C2.52383 .19925 .797 .797-.3985 1.49438V-1.49438C.797-.797 2.52383-.19925 3.58653 0"/>
<path transform="matrix(1,0,0,-1.00003,37.75,71.101779)" d="M-40.13805 59.72664H40.138059V73.501079H-40.13805Z" fill="#ffffff"/>
<use data-text="T" xlink:href="#font_1_104" transform="matrix(9.9626,0,0,-9.962899,.93299868,7.8338778)"/>
<use data-text="o" xlink:href="#font_1_81" transform="matrix(9.9626,0,0,-9.962899,7.3090517,7.8338778)"/>
<use data-text="t" xlink:href="#font_1_105" transform="matrix(9.9626,0,0,-9.962899,12.290344,7.8338778)"/>
<use data-text="a" xlink:href="#font_1_28" transform="matrix(9.9626,0,0,-9.962899,16.165802,7.8338778)"/>
<use data-text="l" xlink:href="#font_1_72" transform="matrix(9.9626,0,0,-9.962899,21.147095,7.8338778)"/>
<use data-text="R" xlink:href="#font_1_95" transform="matrix(9.9626,0,0,-9.962899,27.224289,7.8338778)"/>
<use data-text="e" xlink:href="#font_1_50" transform="matrix(9.9626,0,0,-9.962899,34.556764,7.8338778)"/>
<use data-text="v" xlink:href="#font_1_112" transform="matrix(9.9626,0,0,-9.962899,38.980165,7.8338778)"/>
<use data-text="e" xlink:href="#font_1_50" transform="matrix(9.9626,0,0,-9.962899,43.97142,7.8338778)"/>
<use data-text="n" xlink:href="#font_1_77" transform="matrix(9.9626,0,0,-9.962899,48.39482,7.8338778)"/>
<use data-text="u" xlink:href="#font_1_109" transform="matrix(9.9626,0,0,-9.962899,53.655076,7.8338778)"/>
<use data-text="e" xlink:href="#font_1_50" transform="matrix(9.9626,0,0,-9.962899,59.194276,7.8338778)"/>
<use data-text="R" xlink:href="#font_2_1" transform="matrix(9.9626,0,0,-9.962899,66.925998,7.8338778)"/>
<use data-text="1" xlink:href="#font_3_2" transform="matrix(8.9664,0,0,-8.966669,49.505998,139.08783)"/>
<use data-text="2" xlink:href="#font_3_3" transform="matrix(8.9664,0,0,-8.966669,63.565004,139.08783)"/>
<use data-text="3" xlink:href="#font_3_4" transform="matrix(8.9664,0,0,-8.966669,77.625,139.08783)"/>
<use data-text="4" xlink:href="#font_3_5" transform="matrix(8.9664,0,0,-8.966669,91.685,139.08783)"/>
<use data-text="5" xlink:href="#font_3_6" transform="matrix(8.9664,0,0,-8.966669,105.744,139.08783)"/>
<use data-text="6" xlink:href="#font_3_7" transform="matrix(8.9664,0,0,-8.966669,119.804,139.08783)"/>
<use data-text="7" xlink:href="#font_3_8" transform="matrix(8.9664,0,0,-8.966669,133.864,139.08783)"/>
<use data-text="8" xlink:href="#font_3_9" transform="matrix(8.9664,0,0,-8.966669,147.923,139.08783)"/>
<use data-text="9" xlink:href="#font_3_10" transform="matrix(8.9664,0,0,-8.966669,161.983,139.08783)"/>
<use data-text="1" xlink:href="#font_3_2" transform="matrix(8.9664,0,0,-8.966669,173.739,139.08783)"/>
<use data-text="0" xlink:href="#font_3_1" transform="matrix(8.9664,0,0,-8.966669,178.33876,139.08783)"/>
<use data-text="&#x2212;" xlink:href="#font_4_1" transform="matrix(8.9664,0,0,-8.966669,15.854996,130.27056)"/>
<use data-text="1" xlink:href="#font_3_2" transform="matrix(8.9664,0,0,-8.966669,23.022995,130.27056)"/>
<use data-text="0" xlink:href="#font_3_1" transform="matrix(8.9664,0,0,-8.966669,27.622757,130.27056)"/>
<use data-text="&#x2212;" xlink:href="#font_4_1" transform="matrix(8.9664,0,0,-8.966669,20.462006,101.9227)"/>
<use data-text="5" xlink:href="#font_3_6" transform="matrix(8.9664,0,0,-8.966669,27.630005,101.9227)"/>
<use data-text="0" xlink:href="#font_3_1" transform="matrix(8.9664,0,0,-8.966669,27.630005,73.99086)"/>
<use data-text="5" xlink:href="#font_3_6" transform="matrix(8.9664,0,0,-8.966669,27.630005,45.644014)"/>
<use data-text="1" xlink:href="#font_3_2" transform="matrix(8.9664,0,0,-8.966669,23.022004,17.296158)"/>
<use data-text="0" xlink:href="#font_3_1" transform="matrix(8.9664,0,0,-8.966669,27.621766,17.296158)"/>
<path transform="matrix(1,0,0,-1.00003,37.75,71.101779)" stroke-width=".09962" stroke-linecap="butt" stroke-miterlimit="10" stroke-linejoin="miter" fill="none" stroke="#000000" d="M14.05963-56.69275V58.11006"/>
<path transform="matrix(1,0,0,-1.00003,37.75,71.101779)" stroke-width=".09962" stroke-linecap="butt" stroke-miterlimit="10" stroke-linejoin="miter" fill="none" stroke="#000000" d="M28.11928-56.69275V58.11006"/>
<path transform="matrix(1,0,0,-1.00003,37.75,71.101779)" stroke-width=".09962" stroke-linecap="butt" stroke-miterlimit="10" stroke-linejoin="miter" fill="none" stroke="#000000" d="M42.17892-56.69275V58.11006"/>
<path transform="matrix(1,0,0,-1.00003,37.75,71.101779)" stroke-width=".09962" stroke-linecap="butt" stroke-miterlimit="10" stroke-linejoin="miter" fill="none" stroke="#000000" d="M56.23857-56.69275V58.11006"/>
<path transform="matrix(1,0,0,-1.00003,37.75,71.101779)" stroke-width=".09962" stroke-linecap="butt" stroke-miterlimit="10" stroke-linejoin="miter" fill="none" stroke="#000000" d="M70.29823-56.69275V58.11006"/>
<path transform="matrix(1,0,0,-1.00003,37.75,71.101779)" stroke-width=".09962" stroke-linecap="butt" stroke-miterlimit="10" stroke-linejoin="miter" fill="none" stroke="#000000" d="M84.35786-56.69275V58.11006"/>
<path transform="matrix(1,0,0,-1.00003,37.75,71.101779)" stroke-width=".09962" stroke-linecap="butt" stroke-miterlimit="10" stroke-linejoin="miter" fill="none" stroke="#000000" d="M98.41751-56.69275V58.11006"/>
<path transform="matrix(1,0,0,-1.00003,37.75,71.101779)" stroke-width=".09962" stroke-linecap="butt" stroke-miterlimit="10" stroke-linejoin="miter" fill="none" stroke="#000000" d="M112.47717-56.69275V58.11006"/>
<path transform="matrix(1,0,0,-1.00003,37.75,71.101779)" stroke-width=".09962" stroke-linecap="butt" stroke-miterlimit="10" stroke-linejoin="miter" fill="none" stroke="#000000" d="M126.5368-56.69275V58.11006"/>
<path transform="matrix(1,0,0,-1.00003,37.75,71.101779)" stroke-width=".09962" stroke-linecap="butt" stroke-miterlimit="10" stroke-linejoin="miter" fill="none" stroke="#000000" d="M140.59647-56.69275V58.11006"/>
<g>
<path transform="matrix(1,0,0,-1.00003,37.75,71.101779)" d="M3.5149-34.01564V0H-3.5149V-34.01564ZM-3.5149 0" fill="#0000ff" fill-opacity=".3"/>
<path transform="matrix(1,0,0,-1.00003,37.75,71.101779)" stroke-width=".3985" stroke-linecap="butt" stroke-miterlimit="10" stroke-linejoin="miter" fill="none" stroke="#000000" stroke-opacity=".3" d="M3.5149-34.01564V0H-3.5149V-34.01564ZM-3.5149 0"/>
</g>
<path transform="matrix(1,0,0,-1.00003,37.75,71.101779)" stroke-width=".79701" stroke-linecap="butt" stroke-miterlimit="10" stroke-linejoin="miter" fill="none" stroke="#000000" d="M3.5149-34.01564V0H-3.5149V-34.01564ZM-3.5149 0"/>
<path transform="matrix(1,0,0,-1.00003,37.75,71.101779)" d="M3.52272-34.01564C3.52272-32.07007 1.94556-30.4929 0-30.4929-1.94556-30.4929-3.52272-32.07007-3.52272-34.01564-3.52272-35.9612-1.94556-37.53836 0-37.53836 1.94556-37.53836 3.52272-35.9612 3.52272-34.01564ZM0-34.01564" fill="#0000ff"/>
<path transform="matrix(1,0,0,-1.00003,37.75,71.101779)" stroke-width=".3985" stroke-linecap="butt" stroke-miterlimit="10" stroke-linejoin="miter" fill="none" stroke="#000000" d="M3.52272-34.01564C3.52272-32.07007 1.94556-30.4929 0-30.4929-1.94556-30.4929-3.52272-32.07007-3.52272-34.01564-3.52272-35.9612-1.94556-37.53836 0-37.53836 1.94556-37.53836 3.52272-35.9612 3.52272-34.01564ZM0-34.01564"/>
<g>
<path transform="matrix(1,0,0,-1.00003,37.75,71.101779)" d="M17.57454-5.66927V0H10.54472V-5.66927ZM10.54472 0" fill="#0000ff" fill-opacity=".3"/>
<path transform="matrix(1,0,0,-1.00003,37.75,71.101779)" stroke-width=".3985" stroke-linecap="butt" stroke-miterlimit="10" stroke-linejoin="miter" fill="none" stroke="#000000" stroke-opacity=".3" d="M17.57454-5.66927V0H10.54472V-5.66927ZM10.54472 0"/>
</g>
<path transform="matrix(1,0,0,-1.00003,37.75,71.101779)" stroke-width=".79701" stroke-linecap="butt" stroke-miterlimit="10" stroke-linejoin="miter" fill="none" stroke="#000000" d="M17.57454-5.66927V0H10.54472V-5.66927ZM10.54472 0"/>
<path transform="matrix(1,0,0,-1.00003,37.75,71.101779)" d="M17.58235-5.66927C17.58235-3.72371 16.0052-2.14655 14.05963-2.14655 12.11407-2.14655 10.53691-3.72371 10.53691-5.66927 10.53691-7.61484 12.11407-9.19199 14.05963-9.19199 16.0052-9.19199 17.58235-7.61484 17.58235-5.66927ZM14.05963-5.66927" fill="#0000ff"/>
<path transform="matrix(1,0,0,-1.00003,37.75,71.101779)" stroke-width=".3985" stroke-linecap="butt" stroke-miterlimit="10" stroke-linejoin="miter" fill="none" stroke="#000000" d="M17.58235-5.66927C17.58235-3.72371 16.0052-2.14655 14.05963-2.14655 12.11407-2.14655 10.53691-3.72371 10.53691-5.66927 10.53691-7.61484 12.11407-9.19199 14.05963-9.19199 16.0052-9.19199 17.58235-7.61484 17.58235-5.66927ZM14.05963-5.66927"/>
<g>
<path transform="matrix(1,0,0,-1.00003,37.75,71.101779)" d="M31.63419 17.00781V0H24.60437V17.00781ZM24.60437 0" fill="#0000ff" fill-opacity=".3"/>
<path transform="matrix(1,0,0,-1.00003,37.75,71.101779)" stroke-width=".3985" stroke-linecap="butt" stroke-miterlimit="10" stroke-linejoin="miter" fill="none" stroke="#000000" stroke-opacity=".3" d="M31.63419 17.00781V0H24.60437V17.00781ZM24.60437 0"/>
</g>
<path transform="matrix(1,0,0,-1.00003,37.75,71.101779)" stroke-width=".79701" stroke-linecap="butt" stroke-miterlimit="10" stroke-linejoin="miter" fill="none" stroke="#000000" d="M31.63419 17.00781V0H24.60437V17.00781ZM24.60437 0"/>
<path transform="matrix(1,0,0,-1.00003,37.75,71.101779)" d="M31.642 17.00781C31.642 18.95338 30.06483 20.53053 28.11928 20.53053 26.1737 20.53053 24.59656 18.95338 24.59656 17.00781 24.59656 15.06226 26.1737 13.48509 28.11928 13.48509 30.06483 13.48509 31.642 15.06226 31.642 17.00781ZM28.11928 17.00781" fill="#0000ff"/>
<path transform="matrix(1,0,0,-1.00003,37.75,71.101779)" stroke-width=".3985" stroke-linecap="butt" stroke-miterlimit="10" stroke-linejoin="miter" fill="none" stroke="#000000" d="M31.642 17.00781C31.642 18.95338 30.06483 20.53053 28.11928 20.53053 26.1737 20.53053 24.59656 18.95338 24.59656 17.00781 24.59656 15.06226 26.1737 13.48509 28.11928 13.48509 30.06483 13.48509 31.642 15.06226 31.642 17.00781ZM28.11928 17.00781"/>
<g>
<path transform="matrix(1,0,0,-1.00003,37.75,71.101779)" d="M45.69385 34.01564V0H38.66402V34.01564ZM38.66402 0" fill="#0000ff" fill-opacity=".3"/>
<path transform="matrix(1,0,0,-1.00003,37.75,71.101779)" stroke-width=".3985" stroke-linecap="butt" stroke-miterlimit="10" stroke-linejoin="miter" fill="none" stroke="#000000" stroke-opacity=".3" d="M45.69385 34.01564V0H38.66402V34.01564ZM38.66402 0"/>
</g>
<path transform="matrix(1,0,0,-1.00003,37.75,71.101779)" stroke-width=".79701" stroke-linecap="butt" stroke-miterlimit="10" stroke-linejoin="miter" fill="none" stroke="#000000" d="M45.69385 34.01564V0H38.66402V34.01564ZM38.66402 0"/>
<path transform="matrix(1,0,0,-1.00003,37.75,71.101779)" d="M45.70166 34.01564C45.70166 35.9612 44.1245 37.53836 42.17892 37.53836 40.23337 37.53836 38.6562 35.9612 38.6562 34.01564 38.6562 32.07007 40.23337 30.4929 42.17892 30.4929 44.1245 30.4929 45.70166 32.07007 45.70166 34.01564ZM42.17892 34.01564" fill="#0000ff"/>
<path transform="matrix(1,0,0,-1.00003,37.75,71.101779)" stroke-width=".3985" stroke-linecap="butt" stroke-miterlimit="10" stroke-linejoin="miter" fill="none" stroke="#000000" d="M45.70166 34.01564C45.70166 35.9612 44.1245 37.53836 42.17892 37.53836 40.23337 37.53836 38.6562 35.9612 38.6562 34.01564 38.6562 32.07007 40.23337 30.4929 42.17892 30.4929 44.1245 30.4929 45.70166 32.07007 45.70166 34.01564ZM42.17892 34.01564"/>
<g>
<path transform="matrix(1,0,0,-1.00003,37.75,71.101779)" d="M59.75348 45.35419V0H52.72366V45.35419ZM52.72366 0" fill="#0000ff" fill-opacity=".3"/>
<path transform="matrix(1,0,0,-1.00003,37.75,71.101779)" stroke-width=".3985" stroke-linecap="butt" stroke-miterlimit="10" stroke-linejoin="miter" fill="none" stroke="#000000" stroke-opacity=".3" d="M59.75348 45.35419V0H52.72366V45.35419ZM52.72366 0"/>
</g>
<path transform="matrix(1,0,0,-1.00003,37.75,71.101779)" stroke-width=".79701" stroke-linecap="butt" stroke-miterlimit="10" stroke-linejoin="miter" fill="none" stroke="#000000" d="M59.75348 45.35419V0H52.72366V45.35419ZM52.72366 0"/>
<path transform="matrix(1,0,0,-1.00003,37.75,71.101779)" d="M59.76129 45.35419C59.76129 47.29974 58.18414 48.8769 56.23857 48.8769 54.293 48.8769 52.71585 47.29974 52.71585 45.35419 52.71585 43.40862 54.293 41.83145 56.23857 41.83145 58.18414 41.83145 59.76129 43.40862 59.76129 45.35419ZM56.23857 45.35419" fill="#0000ff"/>
<path transform="matrix(1,0,0,-1.00003,37.75,71.101779)" stroke-width=".3985" stroke-linecap="butt" stroke-miterlimit="10" stroke-linejoin="miter" fill="none" stroke="#000000" d="M59.76129 45.35419C59.76129 47.29974 58.18414 48.8769 56.23857 48.8769 54.293 48.8769 52.71585 47.29974 52.71585 45.35419 52.71585 43.40862 54.293 41.83145 56.23857 41.83145 58.18414 41.83145 59.76129 43.40862 59.76129 45.35419ZM56.23857 45.35419"/>
<g>
<path transform="matrix(1,0,0,-1.00003,37.75,71.101779)" d="M73.81313 51.02345V0H66.7833V51.02345ZM66.7833 0" fill="#0000ff" fill-opacity=".3"/>
<path transform="matrix(1,0,0,-1.00003,37.75,71.101779)" stroke-width=".3985" stroke-linecap="butt" stroke-miterlimit="10" stroke-linejoin="miter" fill="none" stroke="#000000" stroke-opacity=".3" d="M73.81313 51.02345V0H66.7833V51.02345ZM66.7833 0"/>
</g>
<path transform="matrix(1,0,0,-1.00003,37.75,71.101779)" stroke-width=".79701" stroke-linecap="butt" stroke-miterlimit="10" stroke-linejoin="miter" fill="none" stroke="#000000" d="M73.81313 51.02345V0H66.7833V51.02345ZM66.7833 0"/>
<path transform="matrix(1,0,0,-1.00003,37.75,71.101779)" d="M73.82095 51.02345C73.82095 52.96902 72.24379 54.54617 70.29823 54.54617 68.35266 54.54617 66.7755 52.96902 66.7755 51.02345 66.7755 49.0779 68.35266 47.50073 70.29823 47.50073 72.24379 47.50073 73.82095 49.0779 73.82095 51.02345ZM70.29823 51.02345" fill="#0000ff"/>
<path transform="matrix(1,0,0,-1.00003,37.75,71.101779)" stroke-width=".3985" stroke-linecap="butt" stroke-miterlimit="10" stroke-linejoin="miter" fill="none" stroke="#000000" d="M73.82095 51.02345C73.82095 52.96902 72.24379 54.54617 70.29823 54.54617 68.35266 54.54617 66.7755 52.96902 66.7755 51.02345 66.7755 49.0779 68.35266 47.50073 70.29823 47.50073 72.24379 47.50073 73.82095 49.0779 73.82095 51.02345ZM70.29823 51.02345"/>
<g>
<path transform="matrix(1,0,0,-1.00003,37.75,71.101779)" d="M87.87277 45.35419V0H80.84296V45.35419ZM80.84296 0" fill="#0000ff" fill-opacity=".3"/>
<path transform="matrix(1,0,0,-1.00003,37.75,71.101779)" stroke-width=".3985" stroke-linecap="butt" stroke-miterlimit="10" stroke-linejoin="miter" fill="none" stroke="#000000" stroke-opacity=".3" d="M87.87277 45.35419V0H80.84296V45.35419ZM80.84296 0"/>
</g>
<path transform="matrix(1,0,0,-1.00003,37.75,71.101779)" stroke-width=".79701" stroke-linecap="butt" stroke-miterlimit="10" stroke-linejoin="miter" fill="none" stroke="#000000" d="M87.87277 45.35419V0H80.84296V45.35419ZM80.84296 0"/>
<path transform="matrix(1,0,0,-1.00003,37.75,71.101779)" d="M87.8806 45.35419C87.8806 47.29974 86.30344 48.8769 84.35786 48.8769 82.41231 48.8769 80.83514 47.29974 80.83514 45.35419 80.83514 43.40862 82.41231 41.83145 84.35786 41.83145 86.30344 41.83145 87.8806 43.40862 87.8806 45.35419ZM84.35786 45.35419" fill="#0000ff"/>
<path transform="matrix(1,0,0,-1.00003,37.75,71.101779)" stroke-width=".3985" stroke-linecap="butt" stroke-miterlimit="10" stroke-linejoin="miter" fill="none" stroke="#000000" d="M87.8806 45.35419C87.8806 47.29974 86.30344 48.8769 84.35786 48.8769 82.41231 48.8769 80.83514 47.29974 80.83514 45.35419 80.83514 43.40862 82.41231 41.83145 84.35786 41.83145 86.30344 41.83145 87.8806 43.40862 87.8806 45.35419ZM84.35786 45.35419"/>
<g>
<path transform="matrix(1,0,0,-1.00003,37.75,71.101779)" d="M101.93242 34.01564V0H94.9026V34.01564ZM94.9026 0" fill="#0000ff" fill-opacity=".3"/>
<path transform="matrix(1,0,0,-1.00003,37.75,71.101779)" stroke-width=".3985" stroke-linecap="butt" stroke-miterlimit="10" stroke-linejoin="miter" fill="none" stroke="#000000" stroke-opacity=".3" d="M101.93242 34.01564V0H94.9026V34.01564ZM94.9026 0"/>
</g>
<path transform="matrix(1,0,0,-1.00003,37.75,71.101779)" stroke-width=".79701" stroke-linecap="butt" stroke-miterlimit="10" stroke-linejoin="miter" fill="none" stroke="#000000" d="M101.93242 34.01564V0H94.9026V34.01564ZM94.9026 0"/>
<path transform="matrix(1,0,0,-1.00003,37.75,71.101779)" d="M101.94023 34.01564C101.94023 35.9612 100.36307 37.53836 98.41751 37.53836 96.47194 37.53836 94.89479 35.9612 94.89479 34.01564 94.89479 32.07007 96.47194 30.4929 98.41751 30.4929 100.36307 30.4929 101.94023 32.07007 101.94023 34.01564ZM98.41751 34.01564" fill="#0000ff"/>
<path transform="matrix(1,0,0,-1.00003,37.75,71.101779)" stroke-width=".3985" stroke-linecap="butt" stroke-miterlimit="10" stroke-linejoin="miter" fill="none" stroke="#000000" d="M101.94023 34.01564C101.94023 35.9612 100.36307 37.53836 98.41751 37.53836 96.47194 37.53836 94.89479 35.9612 94.89479 34.01564 94.89479 32.07007 96.47194 30.4929 98.41751 30.4929 100.36307 30.4929 101.94023 32.07007 101.94023 34.01564ZM98.41751 34.01564"/>
<g>
<path transform="matrix(1,0,0,-1.00003,37.75,71.101779)" d="M115.99208 17.00781V0H108.96225V17.00781ZM108.96225 0" fill="#0000ff" fill-opacity=".3"/>
<path transform="matrix(1,0,0,-1.00003,37.75,71.101779)" stroke-width=".3985" stroke-linecap="butt" stroke-miterlimit="10" stroke-linejoin="miter" fill="none" stroke="#000000" stroke-opacity=".3" d="M115.99208 17.00781V0H108.96225V17.00781ZM108.96225 0"/>
</g>
<path transform="matrix(1,0,0,-1.00003,37.75,71.101779)" stroke-width=".79701" stroke-linecap="butt" stroke-miterlimit="10" stroke-linejoin="miter" fill="none" stroke="#000000" d="M115.99208 17.00781V0H108.96225V17.00781ZM108.96225 0"/>
<path transform="matrix(1,0,0,-1.00003,37.75,71.101779)" d="M115.9999 17.00781C115.9999 18.95338 114.42273 20.53053 112.47717 20.53053 110.5316 20.53053 108.95444 18.95338 108.95444 17.00781 108.95444 15.06226 110.5316 13.48509 112.47717 13.48509 114.42273 13.48509 115.9999 15.06226 115.9999 17.00781ZM112.47717 17.00781" fill="#0000ff"/>
<path transform="matrix(1,0,0,-1.00003,37.75,71.101779)" stroke-width=".3985" stroke-linecap="butt" stroke-miterlimit="10" stroke-linejoin="miter" fill="none" stroke="#000000" d="M115.9999 17.00781C115.9999 18.95338 114.42273 20.53053 112.47717 20.53053 110.5316 20.53053 108.95444 18.95338 108.95444 17.00781 108.95444 15.06226 110.5316 13.48509 112.47717 13.48509 114.42273 13.48509 115.9999 15.06226 115.9999 17.00781ZM112.47717 17.00781"/>
<g>
<path transform="matrix(1,0,0,-1.00003,37.75,71.101779)" d="M130.05171-5.66927V0H123.0219V-5.66927ZM123.0219 0" fill="#0000ff" fill-opacity=".3"/>
<path transform="matrix(1,0,0,-1.00003,37.75,71.101779)" stroke-width=".3985" stroke-linecap="butt" stroke-miterlimit="10" stroke-linejoin="miter" fill="none" stroke="#000000" stroke-opacity=".3" d="M130.05171-5.66927V0H123.0219V-5.66927ZM123.0219 0"/>
</g>
<path transform="matrix(1,0,0,-1.00003,37.75,71.101779)" stroke-width=".79701" stroke-linecap="butt" stroke-miterlimit="10" stroke-linejoin="miter" fill="none" stroke="#000000" d="M130.05171-5.66927V0H123.0219V-5.66927ZM123.0219 0"/>
<path transform="matrix(1,0,0,-1.00003,37.75,71.101779)" d="M130.05953-5.66927C130.05953-3.72371 128.48238-2.14655 126.5368-2.14655 124.59125-2.14655 123.01408-3.72371 123.01408-5.66927 123.01408-7.61484 124.59125-9.19199 126.5368-9.19199 128.48238-9.19199 130.05953-7.61484 130.05953-5.66927ZM126.5368-5.66927" fill="#0000ff"/>
<path transform="matrix(1,0,0,-1.00003,37.75,71.101779)" stroke-width=".3985" stroke-linecap="butt" stroke-miterlimit="10" stroke-linejoin="miter" fill="none" stroke="#000000" d="M130.05953-5.66927C130.05953-3.72371 128.48238-2.14655 126.5368-2.14655 124.59125-2.14655 123.01408-3.72371 123.01408-5.66927 123.01408-7.61484 124.59125-9.19199 126.5368-9.19199 128.48238-9.19199 130.05953-7.61484 130.05953-5.66927ZM126.5368-5.66927"/>
<g>
<path transform="matrix(1,0,0,-1.00003,37.75,71.101779)" d="M144.11138-34.01564V0H137.08156V-34.01564ZM137.08156 0" fill="#0000ff" fill-opacity=".3"/>
<path transform="matrix(1,0,0,-1.00003,37.75,71.101779)" stroke-width=".3985" stroke-linecap="butt" stroke-miterlimit="10" stroke-linejoin="miter" fill="none" stroke="#000000" stroke-opacity=".3" d="M144.11138-34.01564V0H137.08156V-34.01564ZM137.08156 0"/>
</g>
<path transform="matrix(1,0,0,-1.00003,37.75,71.101779)" stroke-width=".79701" stroke-linecap="butt" stroke-miterlimit="10" stroke-linejoin="miter" fill="none" stroke="#000000" d="M144.11138-34.01564V0H137.08156V-34.01564ZM137.08156 0"/>
<path transform="matrix(1,0,0,-1.00003,37.75,71.101779)" d="M144.11919-34.01564C144.11919-32.07007 142.54203-30.4929 140.59647-30.4929 138.6509-30.4929 137.07375-32.07007 137.07375-34.01564 137.07375-35.9612 138.6509-37.53836 140.59647-37.53836 142.54203-37.53836 144.11919-35.9612 144.11919-34.01564ZM140.59647-34.01564" fill="#0000ff"/>
<path transform="matrix(1,0,0,-1.00003,37.75,71.101779)" stroke-width=".3985" stroke-linecap="butt" stroke-miterlimit="10" stroke-linejoin="miter" fill="none" stroke="#000000" d="M144.11919-34.01564C144.11919-32.07007 142.54203-30.4929 140.59647-30.4929 138.6509-30.4929 137.07375-32.07007 137.07375-34.01564 137.07375-35.9612 138.6509-37.53836 140.59647-37.53836 142.54203-37.53836 144.11919-35.9612 144.11919-34.01564ZM140.59647-34.01564"/>
<use data-text="G" xlink:href="#font_1_58" transform="matrix(9.9626,0,0,-9.962899,258.81803,158.5684)"/>
<use data-text="r" xlink:href="#font_1_96" transform="matrix(9.9626,0,0,-9.962899,266.63868,158.5684)"/>
<use data-text="a" xlink:href="#font_1_28" transform="matrix(9.9626,0,0,-9.962899,270.544,158.5684)"/>
<use data-text="p" xlink:href="#font_1_84" transform="matrix(9.9626,0,0,-9.962899,275.5253,158.5684)"/>
<use data-text="h" xlink:href="#font_1_63" transform="matrix(9.9626,0,0,-9.962899,281.0645,158.5684)"/>
<use data-text="o" xlink:href="#font_1_81" transform="matrix(9.9626,0,0,-9.962899,289.92127,158.5684)"/>
<use data-text="f" xlink:href="#font_1_55" transform="matrix(9.9626,0,0,-9.962899,294.90257,158.5684)"/>
<use data-text="C" xlink:href="#font_1_42" transform="matrix(9.9626,0,0,-9.962899,301.26866,158.5684)"/>
<use data-text="h" xlink:href="#font_1_63" transform="matrix(9.9626,0,0,-9.962899,308.46165,158.5684)"/>
<use data-text="a" xlink:href="#font_1_28" transform="matrix(9.9626,0,0,-9.962899,314.00086,158.5684)"/>
<use data-text="n" xlink:href="#font_1_77" transform="matrix(9.9626,0,0,-9.962899,318.98216,158.5684)"/>
<use data-text="g" xlink:href="#font_1_59" transform="matrix(9.9626,0,0,-9.962899,324.52137,158.5684)"/>
<use data-text="e" xlink:href="#font_1_50" transform="matrix(9.9626,0,0,-9.962899,329.50267,158.5684)"/>
<use data-text="&#x2206;" xlink:href="#font_5_1" transform="matrix(9.9626,0,0,-9.962899,340.56205,158.5684)"/>
<use data-text="R" xlink:href="#font_2_1" transform="matrix(9.9626,0,0,-9.962899,348.86405,158.5684)"/>
<path transform="matrix(1,0,0,-1.00003,237.36402,99.388629)" stroke-width=".3985" stroke-linecap="butt" stroke-miterlimit="10" stroke-linejoin="miter" fill="none" stroke="#000000" d="M0-28.34636H154.6561"/>
<path transform="matrix(1,0,0,-1.00003,237.36402,99.388629)" stroke-width=".3985" stroke-linecap="butt" stroke-miterlimit="10" stroke-linejoin="miter" fill="none" stroke="#000000" d="M0-22.6771H154.6561"/>
<path transform="matrix(1,0,0,-1.00003,237.36402,99.388629)" stroke-width=".3985" stroke-linecap="butt" stroke-miterlimit="10" stroke-linejoin="miter" fill="none" stroke="#000000" d="M0-17.00781H154.6561"/>
<path transform="matrix(1,0,0,-1.00003,237.36402,99.388629)" stroke-width=".3985" stroke-linecap="butt" stroke-miterlimit="10" stroke-linejoin="miter" fill="none" stroke="#000000" d="M0-11.33855H154.6561"/>
<path transform="matrix(1,0,0,-1.00003,237.36402,99.388629)" stroke-width=".3985" stroke-linecap="butt" stroke-miterlimit="10" stroke-linejoin="miter" fill="none" stroke="#000000" d="M0-5.66927H154.6561"/>
<path transform="matrix(1,0,0,-1.00003,237.36402,99.388629)" stroke-width=".3985" stroke-linecap="butt" stroke-miterlimit="10" stroke-linejoin="miter" fill="none" stroke="#000000" d="M0 0H154.6561"/>
<path transform="matrix(1,0,0,-1.00003,237.36402,99.388629)" stroke-width=".3985" stroke-linecap="butt" stroke-miterlimit="10" stroke-linejoin="miter" fill="none" stroke="#000000" d="M0 5.66927H154.6561"/>
<path transform="matrix(1,0,0,-1.00003,237.36402,99.388629)" stroke-width=".3985" stroke-linecap="butt" stroke-miterlimit="10" stroke-linejoin="miter" fill="none" stroke="#000000" d="M0 11.33855H154.6561"/>
<path transform="matrix(1,0,0,-1.00003,237.36402,99.388629)" stroke-width=".3985" stroke-linecap="butt" stroke-miterlimit="10" stroke-linejoin="miter" fill="none" stroke="#000000" d="M0 17.00781H154.6561"/>
<path transform="matrix(1,0,0,-1.00003,237.36402,99.388629)" stroke-width=".3985" stroke-linecap="butt" stroke-miterlimit="10" stroke-linejoin="miter" fill="none" stroke="#000000" d="M0 22.6771H154.6561"/>
<path transform="matrix(1,0,0,-1.00003,237.36402,99.388629)" stroke-width=".3985" stroke-linecap="butt" stroke-miterlimit="10" stroke-linejoin="miter" fill="none" stroke="#000000" d="M0 28.34636H154.6561"/>
<path transform="matrix(1,0,0,-1.00003,237.36402,99.388629)" stroke-width=".3985" stroke-linecap="butt" stroke-miterlimit="10" stroke-linejoin="miter" fill="none" stroke="#000000" d="M0 0H151.06957"/>
<path transform="matrix(1,0,0,-1.00003,388.4336,99.388629)" d="M3.58653 0C2.52383 .19925 .797 .797-.3985 1.49438V-1.49438C.797-.797 2.52383-.19925 3.58653 0"/>
<use data-text="d" xlink:href="#font_1_47" transform="matrix(9.9626,0,0,-9.962899,384.269,109.82294)"/>
<use data-text="a" xlink:href="#font_1_28" transform="matrix(9.9626,0,0,-9.962899,389.80824,109.82294)"/>
<use data-text="y" xlink:href="#font_1_118" transform="matrix(9.9626,0,0,-9.962899,394.52055,109.82294)"/>
<path transform="matrix(1,0,0,-1.00003,237.36402,99.388629)" stroke-width=".3985" stroke-linecap="butt" stroke-miterlimit="10" stroke-linejoin="miter" fill="none" stroke="#000000" d="M0-27.59445V27.59445"/>
<path transform="matrix(0,1.00003,1,0,237.36402,126.9839)" d="M3.58653 0C2.52383 .19925 .797 .797-.3985 1.49438V-1.49438C.797-.797 2.52383-.19925 3.58653 0"/>
<path transform="matrix(0,-1.00003,-1,-0,237.36402,71.79335)" d="M3.58653 0C2.52383 .19925 .797 .797-.3985 1.49438V-1.49438C.797-.797 2.52383-.19925 3.58653 0"/>
<use data-text="C" xlink:href="#font_1_42" transform="matrix(9.9626,0,0,-9.962899,240.88402,62.634527)"/>
<use data-text="h" xlink:href="#font_1_63" transform="matrix(9.9626,0,0,-9.962899,248.07701,62.634527)"/>
<use data-text="a" xlink:href="#font_1_28" transform="matrix(9.9626,0,0,-9.962899,253.61623,62.634527)"/>
<use data-text="n" xlink:href="#font_1_77" transform="matrix(9.9626,0,0,-9.962899,258.59754,62.634527)"/>
<use data-text="g" xlink:href="#font_1_59" transform="matrix(9.9626,0,0,-9.962899,264.13673,62.634527)"/>
<use data-text="e" xlink:href="#font_1_50" transform="matrix(9.9626,0,0,-9.962899,269.11805,62.634527)"/>
<use data-text="i" xlink:href="#font_1_66" transform="matrix(9.9626,0,0,-9.962899,276.85896,62.634527)"/>
<use data-text="n" xlink:href="#font_1_77" transform="matrix(9.9626,0,0,-9.962899,279.62855,62.634527)"/>
<use data-text="R" xlink:href="#font_1_95" transform="matrix(9.9626,0,0,-9.962899,288.4853,62.634527)"/>
<use data-text="e" xlink:href="#font_1_50" transform="matrix(9.9626,0,0,-9.962899,295.8178,62.634527)"/>
<use data-text="v" xlink:href="#font_1_112" transform="matrix(9.9626,0,0,-9.962899,300.2412,62.634527)"/>
<use data-text="e" xlink:href="#font_1_50" transform="matrix(9.9626,0,0,-9.962899,305.23249,62.634527)"/>
<use data-text="n" xlink:href="#font_1_77" transform="matrix(9.9626,0,0,-9.962899,309.65589,62.634527)"/>
<use data-text="u" xlink:href="#font_1_109" transform="matrix(9.9626,0,0,-9.962899,314.91615,62.634527)"/>
<use data-text="e" xlink:href="#font_1_50" transform="matrix(9.9626,0,0,-9.962899,320.45533,62.634527)"/>
<use data-text="&#x2206;" xlink:href="#font_5_1" transform="matrix(9.9626,0,0,-9.962899,328.187,62.634527)"/>
<use data-text="R" xlink:href="#font_2_1" transform="matrix(9.9626,0,0,-9.962899,336.489,62.634527)"/>
<use data-text="1" xlink:href="#font_3_2" transform="matrix(8.9664,0,0,-8.966669,249.12001,143.01194)"/>
<use data-text="2" xlink:href="#font_3_3" transform="matrix(8.9664,0,0,-8.966669,263.17903,143.01194)"/>
<use data-text="3" xlink:href="#font_3_4" transform="matrix(8.9664,0,0,-8.966669,277.239,143.01194)"/>
<use data-text="4" xlink:href="#font_3_5" transform="matrix(8.9664,0,0,-8.966669,291.299,143.01194)"/>
<use data-text="5" xlink:href="#font_3_6" transform="matrix(8.9664,0,0,-8.966669,305.35804,143.01194)"/>
<use data-text="6" xlink:href="#font_3_7" transform="matrix(8.9664,0,0,-8.966669,319.41804,143.01194)"/>
<use data-text="7" xlink:href="#font_3_8" transform="matrix(8.9664,0,0,-8.966669,333.47804,143.01194)"/>
<use data-text="8" xlink:href="#font_3_9" transform="matrix(8.9664,0,0,-8.966669,347.53703,143.01194)"/>
<use data-text="9" xlink:href="#font_3_10" transform="matrix(8.9664,0,0,-8.966669,361.59703,143.01194)"/>
<use data-text="1" xlink:href="#font_3_2" transform="matrix(8.9664,0,0,-8.966669,373.35304,143.01194)"/>
<use data-text="0" xlink:href="#font_3_1" transform="matrix(8.9664,0,0,-8.966669,377.95277,143.01194)"/>
<use data-text="&#x2212;" xlink:href="#font_4_1" transform="matrix(8.9664,0,0,-8.966669,220.07602,130.20955)"/>
<use data-text="5" xlink:href="#font_3_6" transform="matrix(8.9664,0,0,-8.966669,227.24402,130.20955)"/>
<use data-text="&#x2212;" xlink:href="#font_4_1" transform="matrix(8.9664,0,0,-8.966669,220.07602,124.54038)"/>
<use data-text="4" xlink:href="#font_3_5" transform="matrix(8.9664,0,0,-8.966669,227.24402,124.54038)"/>
<use data-text="&#x2212;" xlink:href="#font_4_1" transform="matrix(8.9664,0,0,-8.966669,220.07602,118.871219)"/>
<use data-text="3" xlink:href="#font_3_4" transform="matrix(8.9664,0,0,-8.966669,227.24402,118.871219)"/>
<use data-text="&#x2212;" xlink:href="#font_4_1" transform="matrix(8.9664,0,0,-8.966669,220.07602,113.20204)"/>
<use data-text="2" xlink:href="#font_3_3" transform="matrix(8.9664,0,0,-8.966669,227.24402,113.20204)"/>
<use data-text="&#x2212;" xlink:href="#font_4_1" transform="matrix(8.9664,0,0,-8.966669,220.07602,107.531879)"/>
<use data-text="1" xlink:href="#font_3_2" transform="matrix(8.9664,0,0,-8.966669,227.24402,107.531879)"/>
<use data-text="0" xlink:href="#font_3_1" transform="matrix(8.9664,0,0,-8.966669,227.24402,102.27771)"/>
<use data-text="1" xlink:href="#font_3_2" transform="matrix(8.9664,0,0,-8.966669,227.24402,96.60854)"/>
<use data-text="2" xlink:href="#font_3_3" transform="matrix(8.9664,0,0,-8.966669,227.24402,90.93937)"/>
<use data-text="3" xlink:href="#font_3_4" transform="matrix(8.9664,0,0,-8.966669,227.24402,85.2692)"/>
<use data-text="4" xlink:href="#font_3_5" transform="matrix(8.9664,0,0,-8.966669,227.24402,79.60003)"/>
<use data-text="5" xlink:href="#font_3_6" transform="matrix(8.9664,0,0,-8.966669,227.24402,73.93086)"/>
<path transform="matrix(1,0,0,-1.00003,237.36402,99.388629)" stroke-width=".09962" stroke-linecap="butt" stroke-miterlimit="10" stroke-linejoin="miter" fill="none" stroke="#000000" d="M14.05963-29.76367V29.76367"/>
<path transform="matrix(1,0,0,-1.00003,237.36402,99.388629)" stroke-width=".09962" stroke-linecap="butt" stroke-miterlimit="10" stroke-linejoin="miter" fill="none" stroke="#000000" d="M28.11928-29.76367V29.76367"/>
<path transform="matrix(1,0,0,-1.00003,237.36402,99.388629)" stroke-width=".09962" stroke-linecap="butt" stroke-miterlimit="10" stroke-linejoin="miter" fill="none" stroke="#000000" d="M42.17892-29.76367V29.76367"/>
<path transform="matrix(1,0,0,-1.00003,237.36402,99.388629)" stroke-width=".09962" stroke-linecap="butt" stroke-miterlimit="10" stroke-linejoin="miter" fill="none" stroke="#000000" d="M56.23857-29.76367V29.76367"/>
<path transform="matrix(1,0,0,-1.00003,237.36402,99.388629)" stroke-width=".09962" stroke-linecap="butt" stroke-miterlimit="10" stroke-linejoin="miter" fill="none" stroke="#000000" d="M70.29823-29.76367V29.76367"/>
<path transform="matrix(1,0,0,-1.00003,237.36402,99.388629)" stroke-width=".09962" stroke-linecap="butt" stroke-miterlimit="10" stroke-linejoin="miter" fill="none" stroke="#000000" d="M84.35786-29.76367V29.76367"/>
<path transform="matrix(1,0,0,-1.00003,237.36402,99.388629)" stroke-width=".09962" stroke-linecap="butt" stroke-miterlimit="10" stroke-linejoin="miter" fill="none" stroke="#000000" d="M98.41751-29.76367V29.76367"/>
<path transform="matrix(1,0,0,-1.00003,237.36402,99.388629)" stroke-width=".09962" stroke-linecap="butt" stroke-miterlimit="10" stroke-linejoin="miter" fill="none" stroke="#000000" d="M112.47717-29.76367V29.76367"/>
<path transform="matrix(1,0,0,-1.00003,237.36402,99.388629)" stroke-width=".09962" stroke-linecap="butt" stroke-miterlimit="10" stroke-linejoin="miter" fill="none" stroke="#000000" d="M126.5368-29.76367V29.76367"/>
<path transform="matrix(1,0,0,-1.00003,237.36402,99.388629)" stroke-width=".09962" stroke-linecap="butt" stroke-miterlimit="10" stroke-linejoin="miter" fill="none" stroke="#000000" d="M140.59647-29.76367V29.76367"/>
<g>
<path transform="matrix(1,0,0,-1.00003,237.36402,99.388629)" d="M17.57454 28.34636V0H10.54472V28.34636ZM10.54472 0" fill="#0000ff" fill-opacity=".3"/>
<path transform="matrix(1,0,0,-1.00003,237.36402,99.388629)" stroke-width=".3985" stroke-linecap="butt" stroke-miterlimit="10" stroke-linejoin="miter" fill="none" stroke="#000000" stroke-opacity=".3" d="M17.57454 28.34636V0H10.54472V28.34636ZM10.54472 0"/>
</g>
<path transform="matrix(1,0,0,-1.00003,237.36402,99.388629)" stroke-width=".79701" stroke-linecap="butt" stroke-miterlimit="10" stroke-linejoin="miter" fill="none" stroke="#000000" d="M17.57454 28.34636V0H10.54472V28.34636ZM10.54472 0"/>
<path transform="matrix(1,0,0,-1.00003,237.36402,99.388629)" d="M17.58235 28.34636C17.58235 30.29193 16.0052 31.86908 14.05963 31.86908 12.11407 31.86908 10.53691 30.29193 10.53691 28.34636 10.53691 26.4008 12.11407 24.82364 14.05963 24.82364 16.0052 24.82364 17.58235 26.4008 17.58235 28.34636ZM14.05963 28.34636" fill="#0000ff"/>
<path transform="matrix(1,0,0,-1.00003,237.36402,99.388629)" stroke-width=".3985" stroke-linecap="butt" stroke-miterlimit="10" stroke-linejoin="miter" fill="none" stroke="#000000" d="M17.58235 28.34636C17.58235 30.29193 16.0052 31.86908 14.05963 31.86908 12.11407 31.86908 10.53691 30.29193 10.53691 28.34636 10.53691 26.4008 12.11407 24.82364 14.05963 24.82364 16.0052 24.82364 17.58235 26.4008 17.58235 28.34636ZM14.05963 28.34636"/>
<g>
<path transform="matrix(1,0,0,-1.00003,237.36402,99.388629)" d="M31.63419 22.6771V0H24.60437V22.6771ZM24.60437 0" fill="#0000ff" fill-opacity=".3"/>
<path transform="matrix(1,0,0,-1.00003,237.36402,99.388629)" stroke-width=".3985" stroke-linecap="butt" stroke-miterlimit="10" stroke-linejoin="miter" fill="none" stroke="#000000" stroke-opacity=".3" d="M31.63419 22.6771V0H24.60437V22.6771ZM24.60437 0"/>
</g>
<path transform="matrix(1,0,0,-1.00003,237.36402,99.388629)" stroke-width=".79701" stroke-linecap="butt" stroke-miterlimit="10" stroke-linejoin="miter" fill="none" stroke="#000000" d="M31.63419 22.6771V0H24.60437V22.6771ZM24.60437 0"/>
<path transform="matrix(1,0,0,-1.00003,237.36402,99.388629)" d="M31.642 22.6771C31.642 24.62265 30.06483 26.19981 28.11928 26.19981 26.1737 26.19981 24.59656 24.62265 24.59656 22.6771 24.59656 20.73152 26.1737 19.15436 28.11928 19.15436 30.06483 19.15436 31.642 20.73152 31.642 22.6771ZM28.11928 22.6771" fill="#0000ff"/>
<path transform="matrix(1,0,0,-1.00003,237.36402,99.388629)" stroke-width=".3985" stroke-linecap="butt" stroke-miterlimit="10" stroke-linejoin="miter" fill="none" stroke="#000000" d="M31.642 22.6771C31.642 24.62265 30.06483 26.19981 28.11928 26.19981 26.1737 26.19981 24.59656 24.62265 24.59656 22.6771 24.59656 20.73152 26.1737 19.15436 28.11928 19.15436 30.06483 19.15436 31.642 20.73152 31.642 22.6771ZM28.11928 22.6771"/>
<g>
<path transform="matrix(1,0,0,-1.00003,237.36402,99.388629)" d="M45.69385 17.00781V0H38.66402V17.00781ZM38.66402 0" fill="#0000ff" fill-opacity=".3"/>
<path transform="matrix(1,0,0,-1.00003,237.36402,99.388629)" stroke-width=".3985" stroke-linecap="butt" stroke-miterlimit="10" stroke-linejoin="miter" fill="none" stroke="#000000" stroke-opacity=".3" d="M45.69385 17.00781V0H38.66402V17.00781ZM38.66402 0"/>
</g>
<path transform="matrix(1,0,0,-1.00003,237.36402,99.388629)" stroke-width=".79701" stroke-linecap="butt" stroke-miterlimit="10" stroke-linejoin="miter" fill="none" stroke="#000000" d="M45.69385 17.00781V0H38.66402V17.00781ZM38.66402 0"/>
<path transform="matrix(1,0,0,-1.00003,237.36402,99.388629)" d="M45.70166 17.00781C45.70166 18.95338 44.1245 20.53053 42.17892 20.53053 40.23337 20.53053 38.6562 18.95338 38.6562 17.00781 38.6562 15.06226 40.23337 13.48509 42.17892 13.48509 44.1245 13.48509 45.70166 15.06226 45.70166 17.00781ZM42.17892 17.00781" fill="#0000ff"/>
<path transform="matrix(1,0,0,-1.00003,237.36402,99.388629)" stroke-width=".3985" stroke-linecap="butt" stroke-miterlimit="10" stroke-linejoin="miter" fill="none" stroke="#000000" d="M45.70166 17.00781C45.70166 18.95338 44.1245 20.53053 42.17892 20.53053 40.23337 20.53053 38.6562 18.95338 38.6562 17.00781 38.6562 15.06226 40.23337 13.48509 42.17892 13.48509 44.1245 13.48509 45.70166 15.06226 45.70166 17.00781ZM42.17892 17.00781"/>
<g>
<path transform="matrix(1,0,0,-1.00003,237.36402,99.388629)" d="M59.75348 11.33855V0H52.72366V11.33855ZM52.72366 0" fill="#0000ff" fill-opacity=".3"/>
<path transform="matrix(1,0,0,-1.00003,237.36402,99.388629)" stroke-width=".3985" stroke-linecap="butt" stroke-miterlimit="10" stroke-linejoin="miter" fill="none" stroke="#000000" stroke-opacity=".3" d="M59.75348 11.33855V0H52.72366V11.33855ZM52.72366 0"/>
</g>
<path transform="matrix(1,0,0,-1.00003,237.36402,99.388629)" stroke-width=".79701" stroke-linecap="butt" stroke-miterlimit="10" stroke-linejoin="miter" fill="none" stroke="#000000" d="M59.75348 11.33855V0H52.72366V11.33855ZM52.72366 0"/>
<path transform="matrix(1,0,0,-1.00003,237.36402,99.388629)" d="M59.76129 11.33855C59.76129 13.2841 58.18414 14.86127 56.23857 14.86127 54.293 14.86127 52.71585 13.2841 52.71585 11.33855 52.71585 9.39297 54.293 7.81581 56.23857 7.81581 58.18414 7.81581 59.76129 9.39297 59.76129 11.33855ZM56.23857 11.33855" fill="#0000ff"/>
<path transform="matrix(1,0,0,-1.00003,237.36402,99.388629)" stroke-width=".3985" stroke-linecap="butt" stroke-miterlimit="10" stroke-linejoin="miter" fill="none" stroke="#000000" d="M59.76129 11.33855C59.76129 13.2841 58.18414 14.86127 56.23857 14.86127 54.293 14.86127 52.71585 13.2841 52.71585 11.33855 52.71585 9.39297 54.293 7.81581 56.23857 7.81581 58.18414 7.81581 59.76129 9.39297 59.76129 11.33855ZM56.23857 11.33855"/>
<g>
<path transform="matrix(1,0,0,-1.00003,237.36402,99.388629)" d="M73.81313 5.66927V0H66.7833V5.66927ZM66.7833 0" fill="#0000ff" fill-opacity=".3"/>
<path transform="matrix(1,0,0,-1.00003,237.36402,99.388629)" stroke-width=".3985" stroke-linecap="butt" stroke-miterlimit="10" stroke-linejoin="miter" fill="none" stroke="#000000" stroke-opacity=".3" d="M73.81313 5.66927V0H66.7833V5.66927ZM66.7833 0"/>
</g>
<path transform="matrix(1,0,0,-1.00003,237.36402,99.388629)" stroke-width=".79701" stroke-linecap="butt" stroke-miterlimit="10" stroke-linejoin="miter" fill="none" stroke="#000000" d="M73.81313 5.66927V0H66.7833V5.66927ZM66.7833 0"/>
<path transform="matrix(1,0,0,-1.00003,237.36402,99.388629)" d="M73.82095 5.66927C73.82095 7.61484 72.24379 9.19199 70.29823 9.19199 68.35266 9.19199 66.7755 7.61484 66.7755 5.66927 66.7755 3.72371 68.35266 2.14655 70.29823 2.14655 72.24379 2.14655 73.82095 3.72371 73.82095 5.66927ZM70.29823 5.66927" fill="#0000ff"/>
<path transform="matrix(1,0,0,-1.00003,237.36402,99.388629)" stroke-width=".3985" stroke-linecap="butt" stroke-miterlimit="10" stroke-linejoin="miter" fill="none" stroke="#000000" d="M73.82095 5.66927C73.82095 7.61484 72.24379 9.19199 70.29823 9.19199 68.35266 9.19199 66.7755 7.61484 66.7755 5.66927 66.7755 3.72371 68.35266 2.14655 70.29823 2.14655 72.24379 2.14655 73.82095 3.72371 73.82095 5.66927ZM70.29823 5.66927"/>
<g>
<path transform="matrix(1,0,0,-1.00003,237.36402,99.388629)" d="M87.87277-5.66927V0H80.84296V-5.66927ZM80.84296 0" fill="#0000ff" fill-opacity=".3"/>
<path transform="matrix(1,0,0,-1.00003,237.36402,99.388629)" stroke-width=".3985" stroke-linecap="butt" stroke-miterlimit="10" stroke-linejoin="miter" fill="none" stroke="#000000" stroke-opacity=".3" d="M87.87277-5.66927V0H80.84296V-5.66927ZM80.84296 0"/>
</g>
<path transform="matrix(1,0,0,-1.00003,237.36402,99.388629)" stroke-width=".79701" stroke-linecap="butt" stroke-miterlimit="10" stroke-linejoin="miter" fill="none" stroke="#000000" d="M87.87277-5.66927V0H80.84296V-5.66927ZM80.84296 0"/>
<path transform="matrix(1,0,0,-1.00003,237.36402,99.388629)" d="M87.8806-5.66927C87.8806-3.72371 86.30344-2.14655 84.35786-2.14655 82.41231-2.14655 80.83514-3.72371 80.83514-5.66927 80.83514-7.61484 82.41231-9.19199 84.35786-9.19199 86.30344-9.19199 87.8806-7.61484 87.8806-5.66927ZM84.35786-5.66927" fill="#0000ff"/>
<path transform="matrix(1,0,0,-1.00003,237.36402,99.388629)" stroke-width=".3985" stroke-linecap="butt" stroke-miterlimit="10" stroke-linejoin="miter" fill="none" stroke="#000000" d="M87.8806-5.66927C87.8806-3.72371 86.30344-2.14655 84.35786-2.14655 82.41231-2.14655 80.83514-3.72371 80.83514-5.66927 80.83514-7.61484 82.41231-9.19199 84.35786-9.19199 86.30344-9.19199 87.8806-7.61484 87.8806-5.66927ZM84.35786-5.66927"/>
<g>
<path transform="matrix(1,0,0,-1.00003,237.36402,99.388629)" d="M101.93242-11.33855V0H94.9026V-11.33855ZM94.9026 0" fill="#0000ff" fill-opacity=".3"/>
<path transform="matrix(1,0,0,-1.00003,237.36402,99.388629)" stroke-width=".3985" stroke-linecap="butt" stroke-miterlimit="10" stroke-linejoin="miter" fill="none" stroke="#000000" stroke-opacity=".3" d="M101.93242-11.33855V0H94.9026V-11.33855ZM94.9026 0"/>
</g>
<path transform="matrix(1,0,0,-1.00003,237.36402,99.388629)" stroke-width=".79701" stroke-linecap="butt" stroke-miterlimit="10" stroke-linejoin="miter" fill="none" stroke="#000000" d="M101.93242-11.33855V0H94.9026V-11.33855ZM94.9026 0"/>
<path transform="matrix(1,0,0,-1.00003,237.36402,99.388629)" d="M101.94023-11.33855C101.94023-9.39297 100.36307-7.81581 98.41751-7.81581 96.47194-7.81581 94.89479-9.39297 94.89479-11.33855 94.89479-13.2841 96.47194-14.86127 98.41751-14.86127 100.36307-14.86127 101.94023-13.2841 101.94023-11.33855ZM98.41751-11.33855" fill="#0000ff"/>
<path transform="matrix(1,0,0,-1.00003,237.36402,99.388629)" stroke-width=".3985" stroke-linecap="butt" stroke-miterlimit="10" stroke-linejoin="miter" fill="none" stroke="#000000" d="M101.94023-11.33855C101.94023-9.39297 100.36307-7.81581 98.41751-7.81581 96.47194-7.81581 94.89479-9.39297 94.89479-11.33855 94.89479-13.2841 96.47194-14.86127 98.41751-14.86127 100.36307-14.86127 101.94023-13.2841 101.94023-11.33855ZM98.41751-11.33855"/>
<g>
<path transform="matrix(1,0,0,-1.00003,237.36402,99.388629)" d="M115.99208-17.00781V0H108.96225V-17.00781ZM108.96225 0" fill="#0000ff" fill-opacity=".3"/>
<path transform="matrix(1,0,0,-1.00003,237.36402,99.388629)" stroke-width=".3985" stroke-linecap="butt" stroke-miterlimit="10" stroke-linejoin="miter" fill="none" stroke="#000000" stroke-opacity=".3" d="M115.99208-17.00781V0H108.96225V-17.00781ZM108.96225 0"/>
</g>
<path transform="matrix(1,0,0,-1.00003,237.36402,99.388629)" stroke-width=".79701" stroke-linecap="butt" stroke-miterlimit="10" stroke-linejoin="miter" fill="none" stroke="#000000" d="M115.99208-17.00781V0H108.96225V-17.00781ZM108.96225 0"/>
<path transform="matrix(1,0,0,-1.00003,237.36402,99.388629)" d="M115.9999-17.00781C115.9999-15.06226 114.42273-13.48509 112.47717-13.48509 110.5316-13.48509 108.95444-15.06226 108.95444-17.00781 108.95444-18.95338 110.5316-20.53053 112.47717-20.53053 114.42273-20.53053 115.9999-18.95338 115.9999-17.00781ZM112.47717-17.00781" fill="#0000ff"/>
<path transform="matrix(1,0,0,-1.00003,237.36402,99.388629)" stroke-width=".3985" stroke-linecap="butt" stroke-miterlimit="10" stroke-linejoin="miter" fill="none" stroke="#000000" d="M115.9999-17.00781C115.9999-15.06226 114.42273-13.48509 112.47717-13.48509 110.5316-13.48509 108.95444-15.06226 108.95444-17.00781 108.95444-18.95338 110.5316-20.53053 112.47717-20.53053 114.42273-20.53053 115.9999-18.95338 115.9999-17.00781ZM112.47717-17.00781"/>
<g>
<path transform="matrix(1,0,0,-1.00003,237.36402,99.388629)" d="M130.05171-22.6771V0H123.0219V-22.6771ZM123.0219 0" fill="#0000ff" fill-opacity=".3"/>
<path transform="matrix(1,0,0,-1.00003,237.36402,99.388629)" stroke-width=".3985" stroke-linecap="butt" stroke-miterlimit="10" stroke-linejoin="miter" fill="none" stroke="#000000" stroke-opacity=".3" d="M130.05171-22.6771V0H123.0219V-22.6771ZM123.0219 0"/>
</g>
<path transform="matrix(1,0,0,-1.00003,237.36402,99.388629)" stroke-width=".79701" stroke-linecap="butt" stroke-miterlimit="10" stroke-linejoin="miter" fill="none" stroke="#000000" d="M130.05171-22.6771V0H123.0219V-22.6771ZM123.0219 0"/>
<path transform="matrix(1,0,0,-1.00003,237.36402,99.388629)" d="M130.05953-22.6771C130.05953-20.73152 128.48238-19.15436 126.5368-19.15436 124.59125-19.15436 123.01408-20.73152 123.01408-22.6771 123.01408-24.62265 124.59125-26.19981 126.5368-26.19981 128.48238-26.19981 130.05953-24.62265 130.05953-22.6771ZM126.5368-22.6771" fill="#0000ff"/>
<path transform="matrix(1,0,0,-1.00003,237.36402,99.388629)" stroke-width=".3985" stroke-linecap="butt" stroke-miterlimit="10" stroke-linejoin="miter" fill="none" stroke="#000000" d="M130.05953-22.6771C130.05953-20.73152 128.48238-19.15436 126.5368-19.15436 124.59125-19.15436 123.01408-20.73152 123.01408-22.6771 123.01408-24.62265 124.59125-26.19981 126.5368-26.19981 128.48238-26.19981 130.05953-24.62265 130.05953-22.6771ZM126.5368-22.6771"/>
<g>
<path transform="matrix(1,0,0,-1.00003,237.36402,99.388629)" d="M144.11138-28.34636V0H137.08156V-28.34636ZM137.08156 0" fill="#0000ff" fill-opacity=".3"/>
<path transform="matrix(1,0,0,-1.00003,237.36402,99.388629)" stroke-width=".3985" stroke-linecap="butt" stroke-miterlimit="10" stroke-linejoin="miter" fill="none" stroke="#000000" stroke-opacity=".3" d="M144.11138-28.34636V0H137.08156V-28.34636ZM137.08156 0"/>
</g>
<path transform="matrix(1,0,0,-1.00003,237.36402,99.388629)" stroke-width=".79701" stroke-linecap="butt" stroke-miterlimit="10" stroke-linejoin="miter" fill="none" stroke="#000000" d="M144.11138-28.34636V0H137.08156V-28.34636ZM137.08156 0"/>
<path transform="matrix(1,0,0,-1.00003,237.36402,99.388629)" d="M144.11919-28.34636C144.11919-26.4008 142.54203-24.82364 140.59647-24.82364 138.6509-24.82364 137.07375-26.4008 137.07375-28.34636 137.07375-30.29193 138.6509-31.86908 140.59647-31.86908 142.54203-31.86908 144.11919-30.29193 144.11919-28.34636ZM140.59647-28.34636" fill="#0000ff"/>
<path transform="matrix(1,0,0,-1.00003,237.36402,99.388629)" stroke-width=".3985" stroke-linecap="butt" stroke-miterlimit="10" stroke-linejoin="miter" fill="none" stroke="#000000" d="M144.11919-28.34636C144.11919-26.4008 142.54203-24.82364 140.59647-24.82364 138.6509-24.82364 137.07375-26.4008 137.07375-28.34636 137.07375-30.29193 138.6509-31.86908 140.59647-31.86908 142.54203-31.86908 144.11919-30.29193 144.11919-28.34636ZM140.59647-28.34636"/>
</svg>
