<svg xmlns="http://www.w3.org/2000/svg" xmlns:xlink="http://www.w3.org/1999/xlink" xmlns:inkscape="http://www.inkscape.org/namespaces/inkscape" version="1.1" width="242" height="74" viewBox="0 0 242 74">
<path transform="matrix(1,0,0,-1,44.615999,30.146)" stroke-width=".3985" stroke-linecap="butt" stroke-dasharray=".3985,1.99255" stroke-miterlimit="10" stroke-linejoin="miter" fill="none" stroke="#000000" d="M-42.5202-38.5351V24.3617C-42.5202 26.56264-40.73604 28.3468-38.5351 28.3468H38.5351C40.73604 28.3468 42.5202 26.56264 42.5202 24.3617V-38.5351C42.5202-40.73604 40.73604-42.5202 38.5351-42.5202H-38.5351C-40.73604-42.5202-42.5202-40.73604-42.5202-38.5351ZM42.5202 28.3468"/>
<path transform="matrix(1,0,0,-1,44.615999,30.146)" d="M-6.51157 14.17339C-6.51157 15.27386-7.40364 16.16594-8.50412 16.16594-9.60458 16.16594-10.49667 15.27386-10.49667 14.17339-10.49667 13.07292-9.60458 12.18083-8.50412 12.18083-7.40364 12.18083-6.51157 13.07292-6.51157 14.17339ZM-8.50412 14.17339"/>
<path transform="matrix(1,0,0,-1,44.615999,30.146)" stroke-width=".3985" stroke-linecap="butt" stroke-miterlimit="10" stroke-linejoin="miter" fill="none" stroke="#000000" d="M-6.51157 14.17339C-6.51157 15.27386-7.40364 16.16594-8.50412 16.16594-9.60458 16.16594-10.49667 15.27386-10.49667 14.17339-10.49667 13.07292-9.60458 12.18083-8.50412 12.18083-7.40364 12.18083-6.51157 13.07292-6.51157 14.17339ZM-8.50412 14.17339"/>
<path transform="matrix(1,0,0,-1,44.615999,30.146)" d="M10.49667 14.17339C10.49667 15.27386 9.60458 16.16594 8.50412 16.16594 7.40364 16.16594 6.51157 15.27386 6.51157 14.17339 6.51157 13.07292 7.40364 12.18083 8.50412 12.18083 9.60458 12.18083 10.49667 13.07292 10.49667 14.17339ZM8.50412 14.17339"/>
<path transform="matrix(1,0,0,-1,44.615999,30.146)" stroke-width=".3985" stroke-linecap="butt" stroke-miterlimit="10" stroke-linejoin="miter" fill="none" stroke="#000000" d="M10.49667 14.17339C10.49667 15.27386 9.60458 16.16594 8.50412 16.16594 7.40364 16.16594 6.51157 15.27386 6.51157 14.17339 6.51157 13.07292 7.40364 12.18083 8.50412 12.18083 9.60458 12.18083 10.49667 13.07292 10.49667 14.17339ZM8.50412 14.17339"/>
<path transform="matrix(1,0,0,-1,44.615999,30.146)" stroke-width=".79701" stroke-linecap="butt" stroke-miterlimit="10" stroke-linejoin="miter" fill="none" stroke="#000000" d="M-28.3468-28.3468-25.98471-23.81943-23.62262-19.68565-21.26053-15.9455-18.89844-12.59895-16.53635-9.64645-14.17426-7.08755-11.81216-4.92183-9.45007-3.15016-7.088-1.77208-4.72589-.78764-2.36382-.19678-.00171 0 2.36034-.19635 4.72244-.78635 7.08452-1.77037 9.44661-3.14801 11.8087-4.91925 14.17079-7.0841 16.53288-9.64256 18.89497-12.59462 21.25706-15.9403 23.61916-19.6796 25.98123-23.81293 28.34334-28.33987"/>
<path transform="matrix(1,0,0,-1,44.615999,30.146)" stroke-width=".3985" stroke-linecap="butt" stroke-dasharray=".3985,1.99255" stroke-miterlimit="10" stroke-linejoin="miter" fill="none" stroke="#000000" d="M56.69362-38.5351V24.3617C56.69362 26.56264 58.47778 28.3468 60.67873 28.3468H115.07138C117.27232 28.3468 119.05649 26.56264 119.05649 24.3617V-38.5351C119.05649-40.73604 117.27232-42.5202 115.07138-42.5202H60.67873C58.47778-42.5202 56.69362-40.73604 56.69362-38.5351ZM119.05649 28.3468"/>
<path transform="matrix(1,0,0,-1,44.615999,30.146)" d="M84.19812 14.17339C84.19812 15.27386 83.30605 16.16594 82.20557 16.16594 81.1051 16.16594 80.21301 15.27386 80.21301 14.17339 80.21301 13.07292 81.1051 12.18083 82.20557 12.18083 83.30605 12.18083 84.19812 13.07292 84.19812 14.17339ZM82.20557 14.17339"/>
<path transform="matrix(1,0,0,-1,44.615999,30.146)" stroke-width=".3985" stroke-linecap="butt" stroke-miterlimit="10" stroke-linejoin="miter" fill="none" stroke="#000000" d="M84.19812 14.17339C84.19812 15.27386 83.30605 16.16594 82.20557 16.16594 81.1051 16.16594 80.21301 15.27386 80.21301 14.17339 80.21301 13.07292 81.1051 12.18083 82.20557 12.18083 83.30605 12.18083 84.19812 13.07292 84.19812 14.17339ZM82.20557 14.17339"/>
<path transform="matrix(1,0,0,-1,44.615999,30.146)" d="M98.37152 14.17339C98.37152 15.27386 97.47945 16.16594 96.37897 16.16594 95.2785 16.16594 94.38641 15.27386 94.38641 14.17339 94.38641 13.07292 95.2785 12.18083 96.37897 12.18083 97.47945 12.18083 98.37152 13.07292 98.37152 14.17339ZM96.37897 14.17339"/>
<path transform="matrix(1,0,0,-1,44.615999,30.146)" stroke-width=".3985" stroke-linecap="butt" stroke-miterlimit="10" stroke-linejoin="miter" fill="none" stroke="#000000" d="M98.37152 14.17339C98.37152 15.27386 97.47945 16.16594 96.37897 16.16594 95.2785 16.16594 94.38641 15.27386 94.38641 14.17339 94.38641 13.07292 95.2785 12.18083 96.37897 12.18083 97.47945 12.18083 98.37152 13.07292 98.37152 14.17339ZM96.37897 14.17339"/>
<path transform="matrix(1,0,0,-1,44.615999,30.146)" stroke-width=".79701" stroke-linecap="butt" stroke-miterlimit="10" stroke-linejoin="miter" fill="none" stroke="#000000" d="M70.867-28.3468 72.04784-26.03401 73.22867-23.81985 74.4095-21.70432 75.59033-19.68695 76.77115-17.76822 77.95198-15.94766 79.13281-14.2253 80.31364-12.60155 81.49448-11.07599 82.6753-9.64903 83.85612-8.32028 85.03696-7.09015 86.21779-5.95819 87.39862-4.92442 88.57944-3.98927 89.76027-3.15231 90.9411-2.41397 92.12193-1.77426 93.30276-1.23228 94.48358-.78893 95.66441-.4442 96.84525-.19765 98.02608-.04973 99.20691 0"/>
<path transform="matrix(1,0,0,-1,44.615999,30.146)" stroke-width=".3985" stroke-linecap="butt" stroke-dasharray=".3985,1.99255" stroke-miterlimit="10" stroke-linejoin="miter" fill="none" stroke="#000000" d="M133.22992-38.5351V24.3617C133.22992 26.56264 135.01409 28.3468 137.21503 28.3468H191.6077C193.80863 28.3468 195.5928 26.56264 195.5928 24.3617V-38.5351C195.5928-40.73604 193.80863-42.5202 191.6077-42.5202H137.21503C135.01409-42.5202 133.22992-40.73604 133.22992-38.5351ZM195.5928 28.3468"/>
<path transform="matrix(1,0,0,-1,44.615999,30.146)" d="M157.9 14.17339C157.9 15.27386 157.0079 16.16594 155.90744 16.16594 154.80696 16.16594 153.91489 15.27386 153.91489 14.17339 153.91489 13.07292 154.80696 12.18083 155.90744 12.18083 157.0079 12.18083 157.9 13.07292 157.9 14.17339ZM155.90744 14.17339"/>
<path transform="matrix(1,0,0,-1,44.615999,30.146)" stroke-width=".3985" stroke-linecap="butt" stroke-miterlimit="10" stroke-linejoin="miter" fill="none" stroke="#000000" d="M157.9 14.17339C157.9 15.27386 157.0079 16.16594 155.90744 16.16594 154.80696 16.16594 153.91489 15.27386 153.91489 14.17339 153.91489 13.07292 154.80696 12.18083 155.90744 12.18083 157.0079 12.18083 157.9 13.07292 157.9 14.17339ZM155.90744 14.17339"/>
<path transform="matrix(1,0,0,-1,44.615999,30.146)" d="M172.0734 14.17339C172.0734 15.27386 171.1813 16.16594 170.08084 16.16594 168.98036 16.16594 168.08829 15.27386 168.08829 14.17339 168.08829 13.07292 168.98036 12.18083 170.08084 12.18083 171.1813 12.18083 172.0734 13.07292 172.0734 14.17339ZM170.08084 14.17339"/>
<path transform="matrix(1,0,0,-1,44.615999,30.146)" stroke-width=".3985" stroke-linecap="butt" stroke-miterlimit="10" stroke-linejoin="miter" fill="none" stroke="#000000" d="M172.0734 14.17339C172.0734 15.27386 171.1813 16.16594 170.08084 16.16594 168.98036 16.16594 168.08829 15.27386 168.08829 14.17339 168.08829 13.07292 168.98036 12.18083 170.08084 12.18083 171.1813 12.18083 172.0734 13.07292 172.0734 14.17339ZM170.08084 14.17339"/>
<path transform="matrix(1,0,0,-1,44.615999,30.146)" stroke-width=".79701" stroke-linecap="butt" stroke-miterlimit="10" stroke-linejoin="miter" fill="none" stroke="#000000" d="M153.07259 0 154.2534-.04887 155.43424-.19635 156.61507-.44247 157.79589-.78677 158.97672-1.22969 160.15755-1.7708 161.33838-2.41008 162.51921-3.14801 163.70003-3.9841 164.88086-4.91881 166.06169-5.9517 167.24253-7.08324 168.42336-8.31294 169.60417-9.64082 170.785-11.06734 171.96584-12.59204 173.14667-14.21535 174.3275-15.93727 175.50832-17.75697 176.68915-19.67528 177.86998-21.6922 179.05081-23.80731 180.23165-26.02104 181.41246-28.33295"/>
</svg>
