<svg xmlns="http://www.w3.org/2000/svg" xmlns:xlink="http://www.w3.org/1999/xlink" xmlns:inkscape="http://www.inkscape.org/namespaces/inkscape" version="1.1" width="201" height="173" viewBox="0 0 201 173">
<path transform="matrix(1.00005,0,0,-1.00006,43.61827,129.56082)" stroke-width=".3985" stroke-linecap="butt" stroke-miterlimit="10" stroke-linejoin="miter" fill="none" stroke="#000000" d="M-38.93365 0H152.32089"/>
<path transform="matrix(-1.00005,-0,0,1.00006,4.6826746,129.56082)" d="M3.58653 0C2.52383 .19925 .797 .797-.3985 1.49438V-1.49438C.797-.797 2.52383-.19925 3.58653 0"/>
<path transform="matrix(1.00005,0,0,-1.00006,195.94678,129.56082)" d="M3.58653 0C2.52383 .19925 .797 .797-.3985 1.49438V-1.49438C.797-.797 2.52383-.19925 3.58653 0"/>
<path transform="matrix(1.00005,0,0,-1.00006,43.61827,129.56082)" stroke-width=".3985" stroke-linecap="butt" stroke-miterlimit="10" stroke-linejoin="miter" fill="none" stroke="#000000" d="M0-38.93193V123.9689"/>
<path transform="matrix(0,1.00006,1.00005,0,43.61827,168.49509)" d="M3.58653 0C2.52383 .19925 .797 .797-.3985 1.49438V-1.49438C.797-.797 2.52383-.19925 3.58653 0"/>
<path transform="matrix(0,-1.00006,-1.00005,-0,43.61827,5.584488)" d="M3.58653 0C2.52383 .19925 .797 .797-.3985 1.49438V-1.49438C.797-.797 2.52383-.19925 3.58653 0"/>
<path transform="matrix(1.00005,0,0,-1.00006,43.61827,129.56082)" stroke-width=".79701" stroke-linecap="butt" stroke-miterlimit="10" stroke-linejoin="miter" fill="none" stroke="#000000" d="M-28.3468-25.51108-21.2601-2.32521-14.17339 16.47589-7.08669 31.29094 0 42.51846 7.08669 50.55711 14.17339 55.8055 21.2601 58.6622 28.3468 59.52586 35.43349 58.79507 42.5202 56.86845 49.6069 54.14462 56.69362 51.02217 63.7803 47.8997 70.867 45.17587 77.95372 43.24925 85.04042 42.51846 92.1271 43.38213 99.21382 46.23883 106.30052 51.48721 113.38724 59.52586 120.47392 70.7534 127.56062 85.56844 134.64734 104.36957 141.73404 127.55545"/>
</svg>
