<svg xmlns="http://www.w3.org/2000/svg" xmlns:xlink="http://www.w3.org/1999/xlink" xmlns:inkscape="http://www.inkscape.org/namespaces/inkscape" version="1.1" width="130" height="61" viewBox="0 0 130 61">
<path transform="matrix(1.00006,0,0,-1.00003,8.382423,87.04114)" stroke-width=".79701" stroke-linecap="butt" stroke-miterlimit="10" stroke-linejoin="miter" fill="none" stroke="#000000" d="M-7.08669 28.34723-5.61043 28.37276-4.13419 28.45407-2.65794 28.59593-1.18167 28.80573 .29454 29.08946 1.7708 29.45279 3.24704 29.90306 4.7233 30.44547 6.19955 31.08606 7.67581 31.83176 9.15205 32.68687 10.62831 33.65967 12.10457 34.7557 13.58081 35.98024 15.05707 37.34055 16.53331 38.84233 18.00957 40.49161 19.48582 42.29442 20.96208 44.25684 22.43832 46.38579 23.91458 48.68732 25.39082 51.16663 26.86708 53.83107 28.34334 56.6854"/>
<path transform="matrix(1.00006,0,0,-1.00003,8.382423,87.04114)" stroke-width=".79701" stroke-linecap="butt" stroke-miterlimit="10" stroke-linejoin="miter" fill="none" stroke="#000000" d="M28.3468 56.69362 29.52762 59.00638 30.70845 61.22055 31.88927 63.33609 33.0701 65.35345 34.25093 67.27219 35.43176 69.09274 36.6126 70.81511 37.79341 72.43884 38.97424 73.96442 40.15508 75.39136 41.3359 76.72012 42.51674 77.95026 43.69756 79.0822 44.87839 80.11597 46.05922 81.05112 47.24005 81.88808 48.42088 82.62642 49.6017 83.26614 50.78253 83.80812 51.96336 84.25146 53.1442 84.5962 54.32503 84.84276 55.50584 84.99066 56.68668 85.04042"/>
<path transform="matrix(1.00006,0,0,-1.00003,8.382423,87.04114)" stroke-width=".79701" stroke-linecap="butt" stroke-miterlimit="10" stroke-linejoin="miter" fill="none" stroke="#000000" d="M56.69362 85.04042 57.87442 84.99153 59.05525 84.84404 60.23608 84.59792 61.41692 84.25363 62.59775 83.8107 63.77856 83.2696 64.9594 82.63031 66.14023 81.8924 67.32106 81.0563 68.50189 80.1216 69.68271 79.0887 70.86354 77.95717 72.04437 76.72746 73.2252 75.39957 74.40604 73.97307 75.58685 72.44836 76.76768 70.82506 77.94852 69.10312 79.12935 67.28343 80.31018 65.36513 81.491 63.3482 82.67183 61.2331 83.85266 59.01936 85.0335 56.70744"/>
<path transform="matrix(1.00006,0,0,-1.00003,8.382423,87.04114)" stroke-width=".79701" stroke-linecap="butt" stroke-miterlimit="10" stroke-linejoin="miter" fill="none" stroke="#000000" d="M85.04042 56.69664 86.51668 53.84102 87.99292 51.17659 89.46916 48.69728 90.94542 46.39531 92.42168 44.26636 93.89793 42.3035 95.37418 40.50026 96.85043 38.85097 98.32668 37.3492 99.80295 35.98888 101.27919 34.76306 102.75543 33.66832 104.23169 32.6951 105.70793 31.83867 107.1842 31.09384 108.66045 30.45325 110.1367 29.90999 111.61295 29.46057 113.08922 29.09724 114.56546 28.8135 116.04172 28.60286 117.51796 28.46056 118.9942 28.3801 120.47047 28.35501"/>
<path transform="matrix(1.00006,0,0,-1.00003,8.382423,87.04114)" d="M30.33936 56.69362C30.33936 57.79408 29.44728 58.68617 28.3468 58.68617 27.24634 58.68617 26.35425 57.79408 26.35425 56.69362 26.35425 55.59314 27.24634 54.70107 28.3468 54.70107 29.44728 54.70107 30.33936 55.59314 30.33936 56.69362ZM28.3468 56.69362"/>
<path transform="matrix(1.00006,0,0,-1.00003,8.382423,87.04114)" stroke-width=".3985" stroke-linecap="butt" stroke-miterlimit="10" stroke-linejoin="miter" fill="none" stroke="#000000" d="M30.33936 56.69362C30.33936 57.79408 29.44728 58.68617 28.3468 58.68617 27.24634 58.68617 26.35425 57.79408 26.35425 56.69362 26.35425 55.59314 27.24634 54.70107 28.3468 54.70107 29.44728 54.70107 30.33936 55.59314 30.33936 56.69362ZM28.3468 56.69362"/>
<path transform="matrix(1.00006,0,0,-1.00003,8.382423,87.04114)" d="M87.03297 56.69362C87.03297 57.79408 86.1409 58.68617 85.04042 58.68617 83.93996 58.68617 83.04787 57.79408 83.04787 56.69362 83.04787 55.59314 83.93996 54.70107 85.04042 54.70107 86.1409 54.70107 87.03297 55.59314 87.03297 56.69362ZM85.04042 56.69362"/>
<path transform="matrix(1.00006,0,0,-1.00003,8.382423,87.04114)" stroke-width=".3985" stroke-linecap="butt" stroke-miterlimit="10" stroke-linejoin="miter" fill="none" stroke="#000000" d="M87.03297 56.69362C87.03297 57.79408 86.1409 58.68617 85.04042 58.68617 83.93996 58.68617 83.04787 57.79408 83.04787 56.69362 83.04787 55.59314 83.93996 54.70107 85.04042 54.70107 86.1409 54.70107 87.03297 55.59314 87.03297 56.69362ZM85.04042 56.69362"/>
</svg>
