<svg xmlns="http://www.w3.org/2000/svg" xmlns:xlink="http://www.w3.org/1999/xlink" xmlns:inkscape="http://www.inkscape.org/namespaces/inkscape" version="1.1" width="182" height="122" viewBox="0 0 182 122">
<defs>
<path id="font_1_58" d="M.7350006 .24145508V.27246095L.61299136 .26945497C.57299807 .26945497 .48799134 .26945497 .45199586 .27246095V.24145508H.48399354C.57398989 .24145508 .57699587 .23045349 .57699587 .19346619V.12948609C.57699587 .017532349 .44999696 .008529663 .42199708 .008529663 .35699464 .008529663 .15899658 .043518068 .15899658 .34155274 .15899658 .6410217 .35598756 .67407229 .41600038 .67407229 .522995 .67407229 .6139984 .5839386 .6339874 .43670655 .6359863 .42268373 .6359863 .41967774 .6499939 .41967774 .66600039 .41967774 .66600039 .42268373 .66600039 .44371034V.68107607C.66600039 .69807437 .66600039 .7050781 .6549988 .7050781 .651001 .7050781 .6469879 .7050781 .6389923 .69306948L.58898928 .61898806C.5569916 .6510315 .5029907 .7050781 .4039917 .7050781 .21798706 .7050781 .055999757 .546875 .055999757 .34155274 .055999757 .13648987 .21598816-.022460938 .4059906-.022460938 .47898866-.022460938 .5589905 .0035247803 .59298709 .06251526 .60598757 .040527345 .6459961 .0005340576 .6569977 .0005340576 .66600039 .0005340576 .66600039 .008529663 .66600039 .023529053V.19746399C.66600039 .2364502 .66999819 .24145508 .7350006 .24145508Z"/>
<path id="font_1_96" d="M.3639984 .38137818C.3639984 .41337586 .33299256 .4423828 .2899933 .4423828 .21699524 .4423828 .18099976 .37538148 .16699219 .3323822V.4423828L.027999878 .43066407V.3996582C.09799194 .3996582 .10598755 .39266969 .10598755 .34370423V.07595825C.10598755 .0309906 .09498596 .0309906 .027999878 .0309906V0L.14199829 .0029907227C.18199158 .0029907227 .22898865 .0029907227 .2689972 0V.0309906H.24798584C.17399597 .0309906 .17199707 .04197693 .17199707 .07795715V.23181153C.17199707 .33137513 .21398926 .42037965 .2899933 .42037965 .29699708 .42037965 .29899598 .42037965 .30099488 .41937257 .2979889 .41838075 .27799989 .40637208 .27799989 .3803711 .27799989 .35237123 .29899598 .33737184 .32099916 .33737184 .33898927 .33737184 .3639984 .3493805 .3639984 .38137818Z"/>
<path id="font_1_28" d="M.48298646 .08912659V.14511109H.45799256V.08912659C.45799256 .03112793 .43299867 .025131226 .42199708 .025131226 .3889923 .025131226 .3849945 .070129398 .3849945 .07511902V.27508546C.3849945 .31707765 .3849945 .3560791 .34899903 .39312745 .30999757 .43223573 .2599945 .4482422 .21199036 .4482422 .12998963 .4482422 .06098938 .40115357 .06098938 .335083 .06098938 .30508424 .08099365 .28808595 .10699463 .28808595 .1349945 .28808595 .15299988 .30807496 .15299988 .33407594 .15299988 .3460846 .147995 .37908937 .101989749 .38008119 .1289978 .41519166 .17799378 .426239 .20999146 .426239 .25898744 .426239 .31599427 .38710023 .31599427 .29808045V.26107789C.2649994 .25808717 .19499207 .25508119 .13198853 .22509766 .056991579 .19110108 .03199768 .13911438 .03199768 .09512329 .03199768 .014251709 .1289978-.0107421879 .19198609-.0107421879 .2579956-.0107421879 .3039856 .029251099 .32299806 .07624817 .32699586 .036132814 .35398866-.005859375 .40098573-.005859375 .42199708-.005859375 .48298646 .008132935 .48298646 .08912659M.31599427 .14013672C.31599427 .04525757 .24398804 .011245728 .19898987 .011245728 .1499939 .011245728 .10899353 .04624939 .10899353 .09625244 .10899353 .15124512 .15098572 .23425293 .31599427 .24024964V.14013672Z"/>
<path id="font_1_84" d="M.5209961 .21636963C.5209961 .34336854 .42399598 .4423828 .31199647 .4423828 .23399353 .4423828 .19198609 .39837647 .17199707 .3763733V.4423828L.027999878 .43066407V.3996582C.09899902 .3996582 .10598755 .3936615 .10598755 .34973146V-.117996219C.10598755-.16308594 .09498596-.16308594 .027999878-.16308594V-.1940918L.13999939-.19110108 .25299073-.1940918V-.16308594C.18598938-.16308594 .1749878-.16308594 .1749878-.117996219V.050186159 .059173585C.17999268 .04319763 .22200012-.0107421879 .2979889-.0107421879 .4169922-.0107421879 .5209961 .087127689 .5209961 .21594239V.21636963M.43798829 .21594239C.43798829 .09512329 .36799623 .011245728 .2939911 .011245728 .2539978 .011245728 .21598816 .031219483 .18899536 .07215881 .1749878 .09312439 .1749878 .09411621 .1749878 .114089969V.33674623C.20399475 .38838197 .25299073 .41737367 .3039856 .41737367 .3769989 .41737367 .43798829 .32937623 .43798829 .21636963V.21594239Z"/>
<path id="font_1_63" d="M.5349884 0V.0309906C.48298646 .0309906 .45799256 .0309906 .45700074 .061019899V.25221253C.45700074 .3383026 .45700074 .36932374 .42599488 .405365 .4119873 .42237855 .3789978 .4423828 .32099916 .4423828 .23699951 .4423828 .19299317 .38233949 .1769867 .34629823H.17599488V.69433596L.03199768 .6826172V.6516113C.101989749 .6516113 .10998535 .64463809 .10998535 .59580996V.076034549C.10998535 .0309906 .09899902 .0309906 .03199768 .0309906V0L.14498902 .0029907227 .25698854 0V.0309906C.18998719 .0309906 .1789856 .0309906 .1789856 .076034549V.2602234C.1789856 .36431886 .25 .42037965 .31399537 .42037965 .3769989 .42037965 .3880005 .36631776 .3880005 .30926515V.076034549C.3880005 .0309906 .3769989 .0309906 .30999757 .0309906V0L.4229889 .0029907227 .5349884 0Z"/>
<path id="font_1_81" d="M.47099305 .21424866C.47099305 .34223939 .37098695 .4482422 .25 .4482422 .125 .4482422 .027999878 .3392334 .027999878 .21424866 .027999878 .085250858 .13198853-.0107421879 .24899292-.0107421879 .36999513-.0107421879 .47099305 .087249759 .47099305 .21424866M.3880005 .22224427C.3880005 .18624878 .3880005 .13224793 .3659973 .08824158 .34399415 .04324341 .2999878 .014251709 .25 .014251709 .20698548 .014251709 .16299439 .035247804 .13598633 .08125305 .11099243 .12524414 .11099243 .18624878 .11099243 .22224427 .11099243 .26124574 .11099243 .31523133 .1349945 .35923768 .1619873 .40522767 .20899964 .426239 .24899292 .426239 .29299928 .426239 .33599855 .40423585 .3619995 .36123658 .3880005 .3182373 .3880005 .26023866 .3880005 .22224427Z"/>
<path id="font_1_55" d="M.35699464 .63479617C.35699464 .6717987 .31999208 .7050781 .2669983 .7050781 .19699097 .7050781 .11199951 .65179446 .11199951 .5457611V.43066407H.032989503V.3996582H.11199951V.07595825C.11199951 .0309906 .100997928 .0309906 .033996583 .0309906V0L.147995 .0029907227C.18798828 .0029907227 .23498535 .0029907227 .2749939 0V.0309906H.2539978C.17999268 .0309906 .17799378 .04197693 .17799378 .07795715V.3996582H.2919922V.43066407H.1749878V.5467529C.1749878 .63479617 .22299195 .68307498 .2669983 .68307498 .269989 .68307498 .2849884 .68307498 .2999878 .675827 .28799439 .6717987 .269989 .6587982 .269989 .6338043 .269989 .61079409 .28599549 .5907898 .31298829 .5907898 .34199525 .5907898 .35699464 .61079409 .35699464 .63479617Z"/>
<path id="font_1_97" d="M.49899293 .18579102C.49899293 .2858429 .43299867 .36791993 .34899903 .38793946L.22099304 .4189453C.15899658 .43388368 .11999512 .48773194 .11999512 .5458069 .11999512 .61595156 .17399597 .677063 .2519989 .677063 .4189911 .677063 .44099427 .5127411 .44699098 .46777345 .44799806 .461792 .44799806 .45581056 .45899964 .45581056 .47200013 .45581056 .47200013 .46080018 .47200013 .47973634V.68107607C.47200013 .69807437 .47200013 .7050781 .46099855 .7050781 .45399476 .7050781 .45298768 .70407107 .44599916 .69207766L.41099549 .63497927C.3809967 .66404727 .33999635 .7050781 .25099183 .7050781 .13999939 .7050781 .055999757 .61694338 .055999757 .5107422 .055999757 .42790223 .10899353 .35490418 .18699646 .32788087 .19799805 .32388307 .24899292 .3118744 .31900025 .29486085 .34599305 .28785707 .37599183 .280838 .4039917 .24382019 .4249878 .2177887 .43499757 .18478394 .43499757 .1517334 .43499757 .0806427 .3849945 .008529663 .30099488 .008529663 .27198792 .008529663 .19599915 .013534546 .14299011 .06260681 .084991458 .11668396 .08198547 .18078614 .08099365 .21679688 .07998657 .22679138 .07199097 .22679138 .068984989 .22679138 .055999757 .22679138 .055999757 .2197876 .055999757 .20178223V.0015258789C.055999757-.015472412 .055999757-.022460938 .066986087-.022460938 .07398987-.022460938 .07499695-.020462037 .08198547-.009475708 .08198547-.009475708 .084991458-.0054626467 .117996219 .047592164 .14898682 .013534546 .21299744-.022460938 .3019867-.022460938 .4189911-.022460938 .49899293 .07562256 .49899293 .18579102Z"/>
<path id="font_1_72" d="M.25498963 0V.0309906C.18798828 .0309906 .1769867 .0309906 .1769867 .07601929V.69433596L.032989503 .6826172V.6516113C.102996829 .6516113 .11099243 .64460757 .11099243 .5956421V.07595825C.11099243 .0309906 .099990848 .0309906 .032989503 .0309906V0L.14399719 .0029907227 .25498963 0Z"/>
<path id="font_1_50" d="M.4149933 .11933899C.4149933 .12934876 .40699769 .13134766 .4019928 .13134766 .3929901 .13134766 .3909912 .12535095 .3889923 .11734009 .35398866 .014251709 .2639923 .014251709 .2539978 .014251709 .20399475 .014251709 .1639862 .044281007 .14099121 .08131409 .11099243 .12934876 .11099243 .19540406 .11099243 .23144531H.3899994C.4119873 .23144531 .4149933 .23144531 .4149933 .2524414 .4149933 .35131837 .36099244 .4482422 .23599243 .4482422 .11999512 .4482422 .027999878 .34532167 .027999878 .22042847 .027999878 .08631897 .1329956-.0107421879 .24798584-.0107421879 .36999513-.0107421879 .4149933 .10032654 .4149933 .11933899M.34899903 .2524414H.11199951C.117996219 .40126039 .20199585 .426239 .23599243 .426239 .33898927 .426239 .34899903 .2913971 .34899903 .2524414Z"/>
<path id="font_2_1" d="M.30299378 .3157959H.47299195C.61499026 .3157959 .7539978 .41973878 .7539978 .53167727 .7539978 .6086273 .6879883 .6826172 .5569916 .6826172H.23298645C.21398926 .6826172 .20298767 .6826172 .20298767 .66360476 .20298767 .6516113 .21199036 .6516113 .23199463 .6516113 .24499512 .6516113 .2630005 .65060427 .2749939 .6496124 .29100038 .6476135 .29699708 .64460757 .29699708 .6336212 .29699708 .6296234 .29599 .62661746 .29299928 .614624L.15899658 .07795715C.14898682 .038986207 .14698792 .0309906 .067993167 .0309906 .050994874 .0309906 .039993287 .0309906 .039993287 .011993408 .039993287 0 .051986696 0 .054992677 0 .08299255 0 .1539917 .0029907227 .18199158 .0029907227 .20298767 .0029907227 .22499085 .0019989014 .24598694 .0019989014 .2679901 .0019989014 .2899933 0 .31098939 0 .31799317 0 .33099366 0 .33099366 .019989014 .33099366 .0309906 .32199098 .0309906 .30299378 .0309906 .2659912 .0309906 .23799134 .0309906 .23799134 .048980714 .23799134 .054977418 .23999024 .05996704 .24099732 .065963748L.30299378 .3157959M.375 .6136322C.38398744 .64860537 .38598634 .6516113 .42900086 .6516113H.5249939C.60798647 .6516113 .6609955 .62461856 .6609955 .55566409 .6609955 .5166931 .6409912 .43074037 .60198977 .39476014 .5519867 .34977723 .49198915 .34179688 .44799806 .34179688H.30699159L.375 .6136322Z"/>
<path id="font_3_1" d="M.2899933 .4720459C.2979889 .4890442 .29899598 .49705506 .29899598 .5040436 .29899598 .53504946 .2709961 .5590515 .23999024 .5590515 .20199585 .5590515 .18998719 .52804568 .18499756 .51205447L.052993776 .07901001C.051986696 .07701111 .04798889 .06401062 .04798889 .06300354 .04798889 .05101013 .07899475 .041015626 .08699036 .041015626 .09399414 .041015626 .09498596 .043014528 .101989749 .058013917L.2899933 .4720459Z"/>
<path id="font_1_47" d="M.5269928 0V.0309906C.45700074 .0309906 .44898988 .038009645 .44898988 .0871582V.69433596L.30499269 .6826172V.6516113C.375 .6516113 .3829956 .64463809 .3829956 .59580996V.38035584C.35398866 .41636659 .31098939 .4423828 .25698854 .4423828 .13899231 .4423828 .033996583 .3443451 .033996583 .21531677 .033996583 .088272098 .13198853-.0107421879 .24598694-.0107421879 .30999757-.0107421879 .35499574 .023254395 .37998963 .055267335V-.0107421879L.5269928 0M.37998963 .117996219C.37998963 .099990848 .37998963 .09799194 .36898805 .08099365 .33898927 .033218385 .2939911 .011245728 .25099183 .011245728 .20599365 .011245728 .16999817 .037216188 .1459961 .075164798 .11999512 .1161499 .116989139 .17320252 .116989139 .21421814 .116989139 .25125123 .11898804 .31129457 .147995 .35632325 .16899109 .38734437 .20698548 .42037965 .26098634 .42037965 .29599 .42037965 .33799745 .405365 .36898805 .3603363 .37998963 .34332276 .37998963 .34132386 .37998963 .32330323V.117996219Z"/>
<path id="font_1_118" d="M.5079956 .3996582V.43066407C.4850006 .4286499 .45599366 .42765809 .43299867 .42765809L.34599305 .43066407V.3996582C.3769989 .39866639 .3929901 .3816681 .3929901 .35668946 .3929901 .34669496 .3919983 .34469605 .3869934 .33270265L.28599549 .08685303 .1749878 .35568238C.17098999 .36567689 .16899109 .36967469 .16899109 .3736725 .16899109 .3996582 .20599365 .3996582 .22499085 .3996582V.43066407L.115997318 .42765809C.08898926 .42765809 .04899597 .4286499 .018997193 .43066407V.3996582C.066986087 .3996582 .085998538 .3996582 .099990848 .36468507L.25-.000091552738 .22499085-.059066774C.20298767-.11407471 .1749878-.18309021 .11099243-.18309021 .10598755-.18309021 .08299255-.18309021 .06399536-.16503906 .09498596-.16104126 .102996829-.13905335 .102996829-.123046878 .102996829-.0970459 .083999637-.08103943 .06098938-.08103943 .040985109-.08103943 .018997193-.09403992 .018997193-.124053958 .018997193-.16905213 .06098938-.20507813 .11099243-.20507813 .17399597-.20507813 .21499634-.14804077 .23899842-.091049198L.4149933 .33569337C.44099427 .39865113 .49198915 .3996582 .5079956 .3996582Z"/>
<path id="font_4_2" d="M.3039856 .6392822C.3039856 .6642761 .30299378 .666275 .27799989 .666275 .21598816 .60227969 .12399292 .60227969 .09298706 .60227969V.57128909C.11199951 .57128909 .17298889 .57128909 .22698975 .5972748V.08001709C.22698975 .042999269 .22399903 .0309906 .1309967 .0309906H.09899902V0C.1349945 .0029907227 .22399903 .0029907227 .2649994 .0029907227 .30599977 .0029907227 .3959961 .0029907227 .43199159 0V.0309906H.3999939C.30699159 .0309906 .3039856 .042999269 .3039856 .08001709V.6392822Z"/>
<path id="font_4_3" d="M.46199037 .17704773H.43399049C.43199159 .16404724 .42399598 .10501099 .41099549 .08900452 .40499879 .07998657 .33599855 .07998657 .31599427 .07998657H.13798523L.23699951 .17404175C.40098573 .3161316 .46199037 .36915589 .46199037 .4711914 .46199037 .5860901 .36698915 .6660156 .24398804 .6660156 .1289978 .6660156 .050994874 .575119 .050994874 .4841919 .050994874 .43418885 .09399414 .42919923 .102996829 .42919923 .125 .42919923 .15499878 .44519044 .15499878 .48120118 .15499878 .51119998 .13398743 .5332031 .102996829 .5332031 .09799194 .5332031 .09498596 .5332031 .09098816 .53219607 .114990238 .6030731 .1789856 .63500979 .23298645 .63500979 .33499146 .63500979 .36999513 .5401764 .36999513 .4711914 .36999513 .36915589 .29299928 .28611756 .24499512 .23408509L.06199646 .035995485C.050994874 .024993897 .050994874 .022994996 .050994874 0H.43399049L.46199037 .17704773Z"/>
<path id="font_4_4" d="M.30499269 .35195924C.397995 .38697816 .44198609 .46006776 .44198609 .5290985 .44198609 .60606387 .35699464 .6660156 .25299073 .6660156 .14898682 .6660156 .070999149 .60705569 .070999149 .5310974 .070999149 .49809266 .09298706 .47909547 .12199402 .47909547 .15098572 .47909547 .17199707 .50009158 .17199707 .5290985 .17199707 .5640869 .147995 .57910159 .11399841 .57910159 .13999939 .6210327 .20098877 .64100649 .25 .64100649 .33299256 .64100649 .34899903 .5750885 .34899903 .52809146 .34899903 .49809266 .34298707 .45005799 .31799317 .41201783 .2869873 .36695863 .2519989 .36495973 .22299195 .36296083 .19799805 .36094667 .19599915 .36094667 .18798828 .36094667 .1789856 .35995484 .17098999 .35894776 .17098999 .34794618 .17098999 .33496095 .1789856 .33496095 .19599915 .33496095H.24299622C.32998658 .33496095 .36799623 .2646637 .36799623 .16937256 .36799623 .04145813 .2999878 .0055389406 .24899292 .0055389406 .22999573 .0055389406 .1329956 .010528564 .08799744 .0843811 .12399292 .07939148 .1519928 .10437012 .1519928 .13838196 .1519928 .17137146 .1269989 .19238281 .09799194 .19238281 .07299805 .19238281 .042999269 .17736817 .042999269 .13537598 .042999269 .046447755 .13598633-.022460938 .2519989-.022460938 .3769989-.022460938 .46998597 .06741333 .46998597 .16937256 .46998597 .25663758 .40098573 .33093263 .30499269 .35195924Z"/>
<path id="font_4_5" d="M.0289917 .19602967V.16503906H.3019867V.07901001C.3019867 .041992189 .29899598 .0309906 .22399903 .0309906H.20199585V0C.2649994 .0029907227 .33499146 .0029907227 .34199525 .0029907227 .34700013 .0029907227 .4189911 .0029907227 .48199464 0V.0309906H.45999146C.3849945 .0309906 .38198854 .041992189 .38198854 .07901001V.16503906H.48399354V.19602967H.38198854V.64974978C.38198854 .669754 .38198854 .6767578 .36299134 .6767578 .35099793 .6767578 .34999085 .67575076 .34098817 .66174319L.0289917 .19602967M.06098938 .19602967 .30799867 .56581118V.19602967H.06098938Z"/>
<path id="font_4_6" d="M.10398865 .3444519C.10398865 .32641603 .10398865 .31539918 .117996219 .31539918 .12599182 .31539918 .1289978 .31941224 .1349945 .32843019 .16499329 .3704834 .21299744 .39453126 .2649994 .39453126 .37199403 .39453126 .37199403 .24029541 .37199403 .20425415 .37199403 .17324829 .37199403 .11125183 .34399415 .06637573 .31698609 .024475098 .2749939 .0055389406 .23599243 .0055389406 .1769867 .0055389406 .10998535 .042434694 .085998538 .116256717 .08699036 .116256717 .09298706 .11425781 .099990848 .11425781 .11999512 .11425781 .14898682 .12724304 .14898682 .16325379 .14898682 .19424439 .1269989 .21224976 .099990848 .21224976 .07899475 .21224976 .050994874 .20025635 .050994874 .1602478 .050994874 .069366458 .1269989-.022460938 .23799134-.022460938 .35899354-.022460938 .46199037 .0753479 .46199037 .19924927 .46199037 .3204193 .37599183 .41952516 .2669983 .41952516 .21899414 .41952516 .16999817 .40351869 .1349945 .36747743V.56477358C.16499329 .5557709 .19599915 .55078127 .22698975 .55078127 .34999085 .55078127 .42199708 .6397705 .42199708 .652771 .42199708 .6617737 .41600038 .6657715 .41099549 .6657715 .40899659 .6657715 .40699769 .6657715 .397995 .6607666 .35099793 .6417694 .30499269 .6337738 .2630005 .6337738 .21998596 .6337738 .1749878 .6417694 .1289978 .6607666 .11898804 .6657715 .116989139 .6657715 .115997318 .6657715 .10398865 .6657715 .10398865 .655777 .10398865 .6387787V.3444519Z"/>
<path id="font_4_7" d="M.13398743 .33073426C.13398743 .43276979 .14498902 .4897766 .17199707 .54177859 .19198609 .58277896 .24099732 .64100649 .31498719 .64100649 .33499146 .64100649 .3809967 .63697817 .4039917 .6007843 .36698915 .6007843 .35099793 .5817871 .35099793 .55477908 .35099793 .5287781 .36898805 .50878909 .39698792 .50878909 .4249878 .50878909 .44400025 .5267792 .44400025 .55677798 .44400025 .612854 .4039917 .6660156 .31298829 .6660156 .18399048 .6660156 .042999269 .53878787 .042999269 .3157196 .042999269 .044555665 .16499329-.022460938 .25898744-.022460938 .36999513-.022460938 .46998597 .0705719 .46998597 .20265198 .46998597 .32972718 .37799073 .42578126 .2649994 .42578126 .20498657 .42578126 .1619873 .39076234 .13398743 .33073426M.2579956 .0055389406C.20098877 .0055389406 .16799927 .05256653 .1559906 .08157349 .13699341 .12660218 .13598633 .20965576 .13598633 .22566223 .13598633 .29270936 .16699219 .4007721 .2630005 .4007721 .2789917 .4007721 .32798768 .4007721 .3600006 .33872987 .3789978 .30070497 .3789978 .25167848 .3789978 .20365906 .3789978 .15562439 .3789978 .1065979 .3600006 .06956482 .32899476 .012542725 .2849884 .0055389406 .2579956 .0055389406Z"/>
<path id="font_4_8" d="M.48999024 .60954287C.49899293 .62054446 .49899293 .62254336 .49899293 .6435547H.25C.12399292 .6435547 .12098694 .6565399 .117996219 .67555239H.08999634L.056991579 .46655274H.084991458C.08898926 .48954774 .09700012 .5455475 .10998535 .55755618 .116989139 .56355288 .19599915 .56355288 .20999146 .56355288H.41999818L.32398988 .4325409C.19400025 .25354005 .18199158 .090530399 .18199158 .03353882 .18199158 .022537232 .18199158-.022460938 .22799683-.022460938 .2749939-.022460938 .2749939 .021530152 .2749939 .03453064V.08352661C.2749939 .23054505 .29699708 .34654237 .34999085 .41854859L.48999024 .60954287Z"/>
<path id="font_4_9" d="M.17199707 .45387269C.14199829 .47288514 .11898804 .4998932 .11898804 .53692629 .11898804 .6019745 .18899536 .64100649 .25498963 .64100649 .33198548 .64100649 .3939972 .58695986 .3939972 .51690676 .3939972 .44685365 .33399964 .40083314 .2939911 .37780763L.17199707 .45387269M.31900025 .36180116C.36898805 .38581849 .44198609 .43585206 .44198609 .51690676 .44198609 .6109772 .34799195 .6660156 .2579956 .6660156 .15299988 .6660156 .070999149 .5909729 .070999149 .49890138 .070999149 .46087647 .084991458 .42485047 .10899353 .39582826 .12599182 .3768158 .13198853 .37280274 .18998719 .3357849 .101989749 .29374696 .042999269 .23269654 .042999269 .15063477 .042999269 .044555665 .147995-.022460938 .2559967-.022460938 .37199403-.022460938 .46998597 .059570314 .46998597 .16764832 .46998597 .26472474 .3959961 .3127594 .37098695 .32876588 .3600006 .33677674 .33099366 .35479737 .31900025 .36180116M.21699524 .31877137 .34298707 .2407074C.3659973 .22569275 .41600038 .19366455 .41600038 .1326294 .41600038 .05357361 .33599855 .0055389406 .25698854 .0055389406 .16999817 .0055389406 .09700012 .06758118 .09700012 .15063477 .09700012 .22268677 .14698792 .28274537 .21699524 .31877137Z"/>
<path id="font_4_10" d="M.3789978 .31478883V.2927704C.3789978 .04875183 .2679901 .0055389406 .21099854 .0055389406 .18798828 .0055389406 .13699341 .009552002 .11099243 .042755128H.114990238C.12298584 .040740968 .1619873 .04875183 .1619873 .088760379 .1619873 .11476135 .14399719 .13476563 .115997318 .13476563 .08799744 .13476563 .068984989 .116760257 .068984989 .086761478 .068984989 .020629883 .12199402-.022460938 .21199036-.022460938 .34098817-.022460938 .46998597 .10975647 .46998597 .3287964 .46998597 .5999756 .34999085 .6660156 .2599945 .6660156 .14498902 .6660156 .042999269 .5729675 .042999269 .44187928 .042999269 .31478883 .1349945 .21875 .24798584 .21875 .32099916 .21875 .36099244 .27175904 .3789978 .31478883M.25 .2437439C.23399353 .2437439 .18499756 .2437439 .15299988 .30578614 .13398743 .34381105 .13398743 .39283753 .13398743 .4408722 .13398743 .48890687 .13398743 .5389404 .15499878 .57696536 .18499756 .628006 .22399903 .64100649 .2599945 .64100649 .32798768 .64100649 .35499574 .57196047 .35899354 .5619507 .37298585 .52493289 .3769989 .4638977 .3769989 .42086793 .3769989 .34780885 .34399415 .2437439 .25 .2437439Z"/>
<path id="font_4_1" d="M.47299195 .31976319C.47299195 .38682557 .46998597 .47288514 .43499757 .5479431 .3909912 .64201357 .31498719 .6660156 .25698854 .6660156 .19699097 .6660156 .12098694 .64201357 .07699585 .5459442 .04499817 .47688294 .039993287 .39582826 .039993287 .31976319 .039993287 .25471498 .041992189 .15765381 .084991458 .07858276 .13198853-.0064697267 .20999146-.022460938 .2559967-.022460938 .32099916-.022460938 .394989 .0055389406 .43699647 .097595218 .46699525 .1646576 .47299195 .23971558 .47299195 .31976319M.25698854 .002532959C.22698975 .002532959 .15499878 .016540528 .13598633 .12962342 .12599182 .18867493 .12599182 .2747345 .12599182 .33177186 .12599182 .39982606 .12599182 .47888185 .13798523 .53393557 .1579895 .6230011 .22200012 .64100649 .2559967 .64100649 .2939911 .64100649 .35699464 .62098696 .37599183 .5279236 .3869934 .47288514 .3869934 .39482118 .3869934 .33177186 .3869934 .2697296 .3869934 .18566895 .3769989 .12661743 .35598756 .012542725 .28199769 .002532959 .25698854 .002532959Z"/>
<path id="font_5_1" d="M.6749878 .22944641C.69299319 .22944641 .71199038 .22944641 .71199038 .25144959 .71199038 .27246095 .69200137 .27246095 .6749878 .27246095H.12298584C.10598755 .27246095 .085998538 .27246095 .085998538 .25144959 .085998538 .22944641 .10499573 .22944641 .12298584 .22944641H.6749878Z"/>
</defs>
<use data-text="G" xlink:href="#font_1_58" transform="matrix(9.962799,0,0,-9.962899,46.923837,119.14616)"/>
<use data-text="r" xlink:href="#font_1_96" transform="matrix(9.962799,0,0,-9.962899,54.744638,119.14616)"/>
<use data-text="a" xlink:href="#font_1_28" transform="matrix(9.962799,0,0,-9.962899,58.650064,119.14616)"/>
<use data-text="p" xlink:href="#font_1_84" transform="matrix(9.962799,0,0,-9.962899,63.631448,119.14616)"/>
<use data-text="h" xlink:href="#font_1_63" transform="matrix(9.962799,0,0,-9.962899,69.17075,119.14616)"/>
<use data-text="o" xlink:href="#font_1_81" transform="matrix(9.962799,0,0,-9.962899,78.01772,119.14616)"/>
<use data-text="f" xlink:href="#font_1_55" transform="matrix(9.962799,0,0,-9.962899,82.99912,119.14616)"/>
<use data-text="S" xlink:href="#font_1_97" transform="matrix(9.962799,0,0,-9.962899,89.36535,119.14616)"/>
<use data-text="l" xlink:href="#font_1_72" transform="matrix(9.962799,0,0,-9.962899,94.904659,119.14616)"/>
<use data-text="o" xlink:href="#font_1_81" transform="matrix(9.962799,0,0,-9.962899,97.674327,119.14616)"/>
<use data-text="p" xlink:href="#font_1_84" transform="matrix(9.962799,0,0,-9.962899,102.65571,119.14616)"/>
<use data-text="e" xlink:href="#font_1_50" transform="matrix(9.962799,0,0,-9.962899,108.473979,119.14616)"/>
<use data-text="P" xlink:href="#font_2_1" transform="matrix(9.962799,0,0,-9.962899,119.54229,119.14616)"/>
<use data-text="&#x2032;" xlink:href="#font_3_1" transform="matrix(6.97394,0,0,-6.9740097,127.32244,115.53005)"/>
<path transform="matrix(1.00002,0,0,-1.00003,18.22226,48.33203)" stroke-width=".3985" stroke-linecap="butt" stroke-miterlimit="10" stroke-linejoin="miter" fill="none" stroke="#000000" d="M0 0H151.06957"/>
<path transform="matrix(1.00002,0,0,-1.00003,169.29485,48.33203)" d="M3.58653 0C2.52383 .19925 .797 .797-.3985 1.49438V-1.49438C.797-.797 2.52383-.19925 3.58653 0"/>
<use data-text="d" xlink:href="#font_1_47" transform="matrix(9.962799,0,0,-9.962899,165.1302,58.766347)"/>
<use data-text="a" xlink:href="#font_1_28" transform="matrix(9.962799,0,0,-9.962899,170.66951,58.766347)"/>
<use data-text="y" xlink:href="#font_1_118" transform="matrix(9.962799,0,0,-9.962899,175.37197,58.766347)"/>
<path transform="matrix(1.00002,0,0,-1.00003,18.22226,48.33203)" stroke-width=".3985" stroke-linecap="butt" stroke-miterlimit="10" stroke-linejoin="miter" fill="none" stroke="#000000" d="M0-43.18616V43.18616"/>
<path transform="matrix(0,1.00003,1.00002,0,18.22226,91.519489)" d="M3.58653 0C2.52383 .19925 .797 .797-.3985 1.49438V-1.49438C.797-.797 2.52383-.19925 3.58653 0"/>
<path transform="matrix(0,-1.00003,-1.00002,-0,18.22226,5.144573)" d="M3.58653 0C2.52383 .19925 .797 .797-.3985 1.49438V-1.49438C.797-.797 2.52383-.19925 3.58653 0"/>
<use data-text="1" xlink:href="#font_4_2" transform="matrix(8.966579,0,0,-8.966669,29.9785,106.13077)"/>
<use data-text="2" xlink:href="#font_4_3" transform="matrix(8.966579,0,0,-8.966669,44.03778,106.13077)"/>
<use data-text="3" xlink:href="#font_4_4" transform="matrix(8.966579,0,0,-8.966669,58.098054,106.13077)"/>
<use data-text="4" xlink:href="#font_4_5" transform="matrix(8.966579,0,0,-8.966669,72.15834,106.13077)"/>
<use data-text="5" xlink:href="#font_4_6" transform="matrix(8.966579,0,0,-8.966669,86.21762,106.13077)"/>
<use data-text="6" xlink:href="#font_4_7" transform="matrix(8.966579,0,0,-8.966669,100.2779,106.13077)"/>
<use data-text="7" xlink:href="#font_4_8" transform="matrix(8.966579,0,0,-8.966669,114.33818,106.13077)"/>
<use data-text="8" xlink:href="#font_4_9" transform="matrix(8.966579,0,0,-8.966669,128.39746,106.13077)"/>
<use data-text="9" xlink:href="#font_4_10" transform="matrix(8.966579,0,0,-8.966669,142.45775,106.13077)"/>
<use data-text="1" xlink:href="#font_4_2" transform="matrix(8.966579,0,0,-8.966669,154.21398,106.13077)"/>
<use data-text="0" xlink:href="#font_4_1" transform="matrix(8.966579,0,0,-8.966669,158.81383,106.13077)"/>
<use data-text="&#x2212;" xlink:href="#font_5_1" transform="matrix(8.966579,0,0,-8.966669,.9339142,93.328388)"/>
<use data-text="5" xlink:href="#font_4_6" transform="matrix(8.966579,0,0,-8.966669,8.101074,93.328388)"/>
<use data-text="&#x2212;" xlink:href="#font_5_1" transform="matrix(8.966579,0,0,-8.966669,.9339142,84.82413)"/>
<use data-text="4" xlink:href="#font_4_5" transform="matrix(8.966579,0,0,-8.966669,8.101074,84.82413)"/>
<use data-text="&#x2212;" xlink:href="#font_5_1" transform="matrix(8.966579,0,0,-8.966669,.9339142,76.31887)"/>
<use data-text="3" xlink:href="#font_4_4" transform="matrix(8.966579,0,0,-8.966669,8.101074,76.31887)"/>
<use data-text="&#x2212;" xlink:href="#font_5_1" transform="matrix(8.966579,0,0,-8.966669,.9339142,67.81462)"/>
<use data-text="2" xlink:href="#font_4_3" transform="matrix(8.966579,0,0,-8.966669,8.101074,67.81462)"/>
<use data-text="&#x2212;" xlink:href="#font_5_1" transform="matrix(8.966579,0,0,-8.966669,.9339142,59.31036)"/>
<use data-text="1" xlink:href="#font_4_2" transform="matrix(8.966579,0,0,-8.966669,8.101074,59.31036)"/>
<use data-text="0" xlink:href="#font_4_1" transform="matrix(8.966579,0,0,-8.966669,8.102051,51.22112)"/>
<use data-text="1" xlink:href="#font_4_2" transform="matrix(8.966579,0,0,-8.966669,8.102051,42.71686)"/>
<use data-text="2" xlink:href="#font_4_3" transform="matrix(8.966579,0,0,-8.966669,8.102051,34.21261)"/>
<use data-text="3" xlink:href="#font_4_4" transform="matrix(8.966579,0,0,-8.966669,8.102051,25.708353)"/>
<use data-text="4" xlink:href="#font_4_5" transform="matrix(8.966579,0,0,-8.966669,8.102051,17.204096)"/>
<use data-text="5" xlink:href="#font_4_6" transform="matrix(8.966579,0,0,-8.966669,8.102051,8.699841)"/>
<path transform="matrix(1.00002,0,0,-1.00003,18.22226,48.33203)" stroke-width=".09962" stroke-linecap="butt" stroke-miterlimit="10" stroke-linejoin="miter" fill="none" stroke="#000000" d="M14.05963-44.64667V44.64667"/>
<path transform="matrix(1.00002,0,0,-1.00003,18.22226,48.33203)" stroke-width=".09962" stroke-linecap="butt" stroke-miterlimit="10" stroke-linejoin="miter" fill="none" stroke="#000000" d="M28.11928-44.64667V44.64667"/>
<path transform="matrix(1.00002,0,0,-1.00003,18.22226,48.33203)" stroke-width=".09962" stroke-linecap="butt" stroke-miterlimit="10" stroke-linejoin="miter" fill="none" stroke="#000000" d="M42.17892-44.64667V44.64667"/>
<path transform="matrix(1.00002,0,0,-1.00003,18.22226,48.33203)" stroke-width=".09962" stroke-linecap="butt" stroke-miterlimit="10" stroke-linejoin="miter" fill="none" stroke="#000000" d="M56.23857-44.64667V44.64667"/>
<path transform="matrix(1.00002,0,0,-1.00003,18.22226,48.33203)" stroke-width=".09962" stroke-linecap="butt" stroke-miterlimit="10" stroke-linejoin="miter" fill="none" stroke="#000000" d="M70.29823-44.64667V44.64667"/>
<path transform="matrix(1.00002,0,0,-1.00003,18.22226,48.33203)" stroke-width=".09962" stroke-linecap="butt" stroke-miterlimit="10" stroke-linejoin="miter" fill="none" stroke="#000000" d="M84.35786-44.64667V44.64667"/>
<path transform="matrix(1.00002,0,0,-1.00003,18.22226,48.33203)" stroke-width=".09962" stroke-linecap="butt" stroke-miterlimit="10" stroke-linejoin="miter" fill="none" stroke="#000000" d="M98.41751-44.64667V44.64667"/>
<path transform="matrix(1.00002,0,0,-1.00003,18.22226,48.33203)" stroke-width=".09962" stroke-linecap="butt" stroke-miterlimit="10" stroke-linejoin="miter" fill="none" stroke="#000000" d="M112.47717-44.64667V44.64667"/>
<path transform="matrix(1.00002,0,0,-1.00003,18.22226,48.33203)" stroke-width=".09962" stroke-linecap="butt" stroke-miterlimit="10" stroke-linejoin="miter" fill="none" stroke="#000000" d="M126.5368-44.64667V44.64667"/>
<path transform="matrix(1.00002,0,0,-1.00003,18.22226,48.33203)" stroke-width=".09962" stroke-linecap="butt" stroke-miterlimit="10" stroke-linejoin="miter" fill="none" stroke="#000000" d="M140.59647-44.64667V44.64667"/>
</svg>
