<svg xmlns="http://www.w3.org/2000/svg" xmlns:xlink="http://www.w3.org/1999/xlink" xmlns:inkscape="http://www.inkscape.org/namespaces/inkscape" version="1.1" width="373" height="155" viewBox="0 0 373 155">
<defs>
<path id="font_1_66" d="M.24699402 0V.0309906C.18099976 .0309906 .1769867 .035995485 .1769867 .075042728V.4423828L.036987306 .43066407V.3996582C.101989749 .3996582 .11099243 .3936615 .11099243 .3447113V.07595825C.11099243 .0309906 .099990848 .0309906 .032989503 .0309906V0L.14299011 .0029907227C.17799378 .0029907227 .21299744 .0009918213 .24699402 0M.19198609 .603775C.19198609 .6307678 .16899109 .6567688 .13899231 .6567688 .10499573 .6567688 .084991458 .6287689 .084991458 .603775 .084991458 .57676699 .10798645 .55078127 .13798523 .55078127 .17199707 .55078127 .19198609 .5787811 .19198609 .603775Z"/>
<path id="font_1_105" d="M.33198548 .12385559V.18066406H.30699159V.12585449C.30699159 .052108766 .2769928 .014251709 .23999024 .014251709 .17298889 .014251709 .17298889 .10491943 .17298889 .12187195V.3996582H.31599427V.43066407H.17298889V.6142578H.147995C.14698792 .5324249 .116989139 .42565919 .018997193 .42166139V.3996582H.10398865V.12408447C.10398865 .0012512207 .19699097-.0107421879 .23298645-.0107421879 .3039856-.0107421879 .33198548 .060180665 .33198548 .12408447V.12385559Z"/>
<path id="font_1_50" d="M.4149933 .11933899C.4149933 .12934876 .40699769 .13134766 .4019928 .13134766 .3929901 .13134766 .3909912 .12535095 .3889923 .11734009 .35398866 .014251709 .2639923 .014251709 .2539978 .014251709 .20399475 .014251709 .1639862 .044281007 .14099121 .08131409 .11099243 .12934876 .11099243 .19540406 .11099243 .23144531H.3899994C.4119873 .23144531 .4149933 .23144531 .4149933 .2524414 .4149933 .35131837 .36099244 .4482422 .23599243 .4482422 .11999512 .4482422 .027999878 .34532167 .027999878 .22042847 .027999878 .08631897 .1329956-.0107421879 .24798584-.0107421879 .36999513-.0107421879 .4149933 .10032654 .4149933 .11933899M.34899903 .2524414H.11199951C.117996219 .40126039 .20199585 .426239 .23599243 .426239 .33898927 .426239 .34899903 .2913971 .34899903 .2524414Z"/>
<path id="font_1_75" d="M.8129883 0V.0309906C.7609863 .0309906 .73599246 .0309906 .7350006 .061019899V.25221253C.7350006 .3383026 .7350006 .36932374 .70399478 .405365 .6899872 .42237855 .6569977 .4423828 .598999 .4423828 .5149994 .4423828 .47099305 .38233949 .45399476 .34429933 .43998719 .43138124 .3659973 .4423828 .32099916 .4423828 .24798584 .4423828 .20098877 .39935304 .17298889 .33729554V.4423828L.03199768 .43066407V.3996582C.101989749 .3996582 .10998535 .39266969 .10998535 .34370423V.07595825C.10998535 .0309906 .09899902 .0309906 .03199768 .0309906V0L.14498902 .0029907227 .25698854 0V.0309906C.18998719 .0309906 .1789856 .0309906 .1789856 .07595825V.25978089C.1789856 .36431886 .25 .42037965 .31399537 .42037965 .3769989 .42037965 .3880005 .36631776 .3880005 .30926515V.076034549C.3880005 .0309906 .3769989 .0309906 .30999757 .0309906V0L.4229889 .0029907227 .5349884 0V.0309906C.46798707 .0309906 .45700074 .0309906 .45700074 .076034549V.2602234C.45700074 .36431886 .5279999 .42037965 .59199526 .42037965 .6549988 .42037965 .66600039 .36631776 .66600039 .30926515V.076034549C.66600039 .0309906 .6549988 .0309906 .58799746 .0309906V0L.70098879 .0029907227 .8129883 0Z"/>
<path id="font_1_104" d="M.68499758 .45214845 .66600039 .6767578H.054992677L.035995485 .45214845H.06098938C.07499695 .6128235 .08999634 .64575198 .24099732 .64575198 .25898744 .64575198 .2849884 .64575198 .29499818 .64375308 .31599427 .6397705 .31599427 .6287842 .31599427 .60583499V.07901001C.31599427 .04499817 .31599427 .0309906 .21099854 .0309906H.17098999V0C.21199036 .0029907227 .31399537 .0029907227 .3600006 .0029907227 .4059906 .0029907227 .5089874 .0029907227 .5499878 0V.0309906H.5099945C.40499879 .0309906 .40499879 .04499817 .40499879 .07901001V.60583499C.40499879 .62579348 .40499879 .6397705 .4229889 .64375308 .43399049 .64575198 .46099855 .64575198 .47999574 .64575198 .6309967 .64575198 .6459961 .6128235 .6599884 .45214845H.68499758Z"/>
<path id="font_1_81" d="M.47099305 .21424866C.47099305 .34223939 .37098695 .4482422 .25 .4482422 .125 .4482422 .027999878 .3392334 .027999878 .21424866 .027999878 .085250858 .13198853-.0107421879 .24899292-.0107421879 .36999513-.0107421879 .47099305 .087249759 .47099305 .21424866M.3880005 .22224427C.3880005 .18624878 .3880005 .13224793 .3659973 .08824158 .34399415 .04324341 .2999878 .014251709 .25 .014251709 .20698548 .014251709 .16299439 .035247804 .13598633 .08125305 .11099243 .12524414 .11099243 .18624878 .11099243 .22224427 .11099243 .26124574 .11099243 .31523133 .1349945 .35923768 .1619873 .40522767 .20899964 .426239 .24899292 .426239 .29299928 .426239 .33599855 .40423585 .3619995 .36123658 .3880005 .3182373 .3880005 .26023866 .3880005 .22224427Z"/>
<path id="font_1_28" d="M.48298646 .08912659V.14511109H.45799256V.08912659C.45799256 .03112793 .43299867 .025131226 .42199708 .025131226 .3889923 .025131226 .3849945 .070129398 .3849945 .07511902V.27508546C.3849945 .31707765 .3849945 .3560791 .34899903 .39312745 .30999757 .43223573 .2599945 .4482422 .21199036 .4482422 .12998963 .4482422 .06098938 .40115357 .06098938 .335083 .06098938 .30508424 .08099365 .28808595 .10699463 .28808595 .1349945 .28808595 .15299988 .30807496 .15299988 .33407594 .15299988 .3460846 .147995 .37908937 .101989749 .38008119 .1289978 .41519166 .17799378 .426239 .20999146 .426239 .25898744 .426239 .31599427 .38710023 .31599427 .29808045V.26107789C.2649994 .25808717 .19499207 .25508119 .13198853 .22509766 .056991579 .19110108 .03199768 .13911438 .03199768 .09512329 .03199768 .014251709 .1289978-.0107421879 .19198609-.0107421879 .2579956-.0107421879 .3039856 .029251099 .32299806 .07624817 .32699586 .036132814 .35398866-.005859375 .40098573-.005859375 .42199708-.005859375 .48298646 .008132935 .48298646 .08912659M.31599427 .14013672C.31599427 .04525757 .24398804 .011245728 .19898987 .011245728 .1499939 .011245728 .10899353 .04624939 .10899353 .09625244 .10899353 .15124512 .15098572 .23425293 .31599427 .24024964V.14013672Z"/>
<path id="font_1_72" d="M.25498963 0V.0309906C.18798828 .0309906 .1769867 .0309906 .1769867 .07601929V.69433596L.032989503 .6826172V.6516113C.102996829 .6516113 .11099243 .64460757 .11099243 .5956421V.07595825C.11099243 .0309906 .099990848 .0309906 .032989503 .0309906V0L.14399719 .0029907227 .25498963 0Z"/>
<path id="font_1_42" d="M.6649933 .23271179C.6649933 .24272156 .6649933 .24972534 .6519928 .24972534 .6409912 .24972534 .6409912 .24372864 .6399994 .23371887 .6319885 .09059143 .5249939 .008529663 .41600038 .008529663 .35499574 .008529663 .15899658 .042556764 .15899658 .34080506 .15899658 .64004519 .35398866 .67407229 .4149933 .67407229 .5239868 .67407229 .61299136 .58299258 .6329956 .4368744 .6349945 .42286683 .6349945 .41986085 .6489868 .41986085 .6649933 .41986085 .6649933 .42286683 .6649933 .44387818V.68107607C.6649933 .69807437 .6649933 .7050781 .6539917 .7050781 .6499939 .7050781 .6459961 .7050781 .6380005 .69306948L.58799746 .61901858C.5509949 .6550598 .5 .7050781 .4039917 .7050781 .21699524 .7050781 .055999757 .5459595 .055999757 .34179688 .055999757 .1346283 .21798706-.022460938 .4039917-.022460938 .5669861-.022460938 .6649933 .116622928 .6649933 .23271179Z"/>
<path id="font_1_98" d="M.3600006 .12823487C.3600006 .18122864 .32998658 .21122742 .31799317 .22323609 .2849884 .25523377 .24598694 .26322938 .20399475 .27124024 .147995 .28224183 .08099365 .29522706 .08099365 .35324098 .08099365 .38822938 .10699463 .42922975 .19299317 .42922975 .30299378 .42922975 .30799867 .3392334 .30999757 .30822755 .31098939 .2992401 .32199098 .2992401 .32199098 .2992401 .33499146 .2992401 .33499146 .30422975 .33499146 .32322694V.4242401C.33499146 .4412384 .33499146 .4482422 .32398988 .4482422 .31900025 .4482422 .31698609 .4482422 .3039856 .43623353 .30099488 .43223573 .29100038 .42323304 .2869873 .42022706 .24899292 .4482422 .20799256 .4482422 .19299317 .4482422 .070999149 .4482422 .032989503 .38124085 .032989503 .3252411 .032989503 .29023744 .04899597 .26223756 .07598877 .24023438 .10798645 .2142334 .13598633 .2082367 .20799256 .19422913 .22999573 .19021607 .31199647 .17422486 .31199647 .10221863 .31199647 .051223756 .2769928 .011245728 .19898987 .011245728 .114990238 .011245728 .07899475 .068222049 .05999756 .1532135 .056991579 .16621399 .055999757 .17021179 .04598999 .17021179 .032989503 .17021179 .032989503 .16322327 .032989503 .1452179V.013214111C.032989503-.003753662 .032989503-.0107421879 .04399109-.0107421879 .04899597-.0107421879 .049987794-.009750366 .068984989 .009246826 .070999149 .011245728 .070999149 .013214111 .08898926 .032226564 .1329956-.009750366 .17799378-.0107421879 .19898987-.0107421879 .31399537-.0107421879 .3600006 .05621338 .3600006 .1282196V.12823487Z"/>
<path id="font_2_1" d="M.7599945 .69506838C.7599945 .69807437 .7579956 .7050781 .7489929 .7050781 .74598696 .7050781 .7449951 .70407107 .73399356 .69306948L.6639862 .61602786C.6549988 .6300354 .60899356 .7050781 .49798585 .7050781 .2749939 .7050781 .049987794 .48391725 .049987794 .25172425 .049987794 .08659363 .16799927-.022460938 .32099916-.022460938 .4079895-.022460938 .48399354 .017532349 .5369873 .063583377 .6299896 .14564514 .6469879 .2367096 .6469879 .23971558 .6469879 .24972534 .6369934 .24972534 .6349945 .24972534 .6289978 .24972534 .6239929 .24772644 .621994 .23971558 .61299136 .21069336 .58999636 .13963318 .5209961 .081588748 .45199586 .025543213 .3889923 .008529663 .33699037 .008529663 .24699402 .008529663 .14099121 .060577394 .14099121 .21670532 .14099121 .27374269 .1619873 .43588258 .2619934 .55296328 .32299806 .62402346 .4169922 .67407229 .5059967 .67407229 .60798647 .67407229 .6669922 .5970001 .6669922 .48091126 .6669922 .44088746 .6639862 .43988038 .6639862 .4298706 .6639862 .41986085 .6749878 .41986085 .67900088 .41986085 .69200137 .41986085 .69200137 .42185975 .69699099 .43988038L.7599945 .69506838Z"/>
<path id="font_3_2" d="M.3039856 .6392822C.3039856 .6642761 .30299378 .666275 .27799989 .666275 .21598816 .60227969 .12399292 .60227969 .09298706 .60227969V.57128909C.11199951 .57128909 .17298889 .57128909 .22698975 .5972748V.08001709C.22698975 .042999269 .22399903 .0309906 .1309967 .0309906H.09899902V0C.1349945 .0029907227 .22399903 .0029907227 .2649994 .0029907227 .30599977 .0029907227 .3959961 .0029907227 .43199159 0V.0309906H.3999939C.30699159 .0309906 .3039856 .042999269 .3039856 .08001709V.6392822Z"/>
<path id="font_3_3" d="M.46199037 .17704773H.43399049C.43199159 .16404724 .42399598 .10501099 .41099549 .08900452 .40499879 .07998657 .33599855 .07998657 .31599427 .07998657H.13798523L.23699951 .17404175C.40098573 .3161316 .46199037 .36915589 .46199037 .4711914 .46199037 .5860901 .36698915 .6660156 .24398804 .6660156 .1289978 .6660156 .050994874 .575119 .050994874 .4841919 .050994874 .43418885 .09399414 .42919923 .102996829 .42919923 .125 .42919923 .15499878 .44519044 .15499878 .48120118 .15499878 .51119998 .13398743 .5332031 .102996829 .5332031 .09799194 .5332031 .09498596 .5332031 .09098816 .53219607 .114990238 .6030731 .1789856 .63500979 .23298645 .63500979 .33499146 .63500979 .36999513 .5401764 .36999513 .4711914 .36999513 .36915589 .29299928 .28611756 .24499512 .23408509L.06199646 .035995485C.050994874 .024993897 .050994874 .022994996 .050994874 0H.43399049L.46199037 .17704773Z"/>
<path id="font_3_4" d="M.30499269 .35195924C.397995 .38697816 .44198609 .46006776 .44198609 .5290985 .44198609 .60606387 .35699464 .6660156 .25299073 .6660156 .14898682 .6660156 .070999149 .60705569 .070999149 .5310974 .070999149 .49809266 .09298706 .47909547 .12199402 .47909547 .15098572 .47909547 .17199707 .50009158 .17199707 .5290985 .17199707 .5640869 .147995 .57910159 .11399841 .57910159 .13999939 .6210327 .20098877 .64100649 .25 .64100649 .33299256 .64100649 .34899903 .5750885 .34899903 .52809146 .34899903 .49809266 .34298707 .45005799 .31799317 .41201783 .2869873 .36695863 .2519989 .36495973 .22299195 .36296083 .19799805 .36094667 .19599915 .36094667 .18798828 .36094667 .1789856 .35995484 .17098999 .35894776 .17098999 .34794618 .17098999 .33496095 .1789856 .33496095 .19599915 .33496095H.24299622C.32998658 .33496095 .36799623 .2646637 .36799623 .16937256 .36799623 .04145813 .2999878 .0055389406 .24899292 .0055389406 .22999573 .0055389406 .1329956 .010528564 .08799744 .0843811 .12399292 .07939148 .1519928 .10437012 .1519928 .13838196 .1519928 .17137146 .1269989 .19238281 .09799194 .19238281 .07299805 .19238281 .042999269 .17736817 .042999269 .13537598 .042999269 .046447755 .13598633-.022460938 .2519989-.022460938 .3769989-.022460938 .46998597 .06741333 .46998597 .16937256 .46998597 .25663758 .40098573 .33093263 .30499269 .35195924Z"/>
<path id="font_3_5" d="M.0289917 .19602967V.16503906H.3019867V.07901001C.3019867 .041992189 .29899598 .0309906 .22399903 .0309906H.20199585V0C.2649994 .0029907227 .33499146 .0029907227 .34199525 .0029907227 .34700013 .0029907227 .4189911 .0029907227 .48199464 0V.0309906H.45999146C.3849945 .0309906 .38198854 .041992189 .38198854 .07901001V.16503906H.48399354V.19602967H.38198854V.64974978C.38198854 .669754 .38198854 .6767578 .36299134 .6767578 .35099793 .6767578 .34999085 .67575076 .34098817 .66174319L.0289917 .19602967M.06098938 .19602967 .30799867 .56581118V.19602967H.06098938Z"/>
<path id="font_3_6" d="M.10398865 .3444519C.10398865 .32641603 .10398865 .31539918 .117996219 .31539918 .12599182 .31539918 .1289978 .31941224 .1349945 .32843019 .16499329 .3704834 .21299744 .39453126 .2649994 .39453126 .37199403 .39453126 .37199403 .24029541 .37199403 .20425415 .37199403 .17324829 .37199403 .11125183 .34399415 .06637573 .31698609 .024475098 .2749939 .0055389406 .23599243 .0055389406 .1769867 .0055389406 .10998535 .042434694 .085998538 .116256717 .08699036 .116256717 .09298706 .11425781 .099990848 .11425781 .11999512 .11425781 .14898682 .12724304 .14898682 .16325379 .14898682 .19424439 .1269989 .21224976 .099990848 .21224976 .07899475 .21224976 .050994874 .20025635 .050994874 .1602478 .050994874 .069366458 .1269989-.022460938 .23799134-.022460938 .35899354-.022460938 .46199037 .0753479 .46199037 .19924927 .46199037 .3204193 .37599183 .41952516 .2669983 .41952516 .21899414 .41952516 .16999817 .40351869 .1349945 .36747743V.56477358C.16499329 .5557709 .19599915 .55078127 .22698975 .55078127 .34999085 .55078127 .42199708 .6397705 .42199708 .652771 .42199708 .6617737 .41600038 .6657715 .41099549 .6657715 .40899659 .6657715 .40699769 .6657715 .397995 .6607666 .35099793 .6417694 .30499269 .6337738 .2630005 .6337738 .21998596 .6337738 .1749878 .6417694 .1289978 .6607666 .11898804 .6657715 .116989139 .6657715 .115997318 .6657715 .10398865 .6657715 .10398865 .655777 .10398865 .6387787V.3444519Z"/>
<path id="font_3_7" d="M.13398743 .33073426C.13398743 .43276979 .14498902 .4897766 .17199707 .54177859 .19198609 .58277896 .24099732 .64100649 .31498719 .64100649 .33499146 .64100649 .3809967 .63697817 .4039917 .6007843 .36698915 .6007843 .35099793 .5817871 .35099793 .55477908 .35099793 .5287781 .36898805 .50878909 .39698792 .50878909 .4249878 .50878909 .44400025 .5267792 .44400025 .55677798 .44400025 .612854 .4039917 .6660156 .31298829 .6660156 .18399048 .6660156 .042999269 .53878787 .042999269 .3157196 .042999269 .044555665 .16499329-.022460938 .25898744-.022460938 .36999513-.022460938 .46998597 .0705719 .46998597 .20265198 .46998597 .32972718 .37799073 .42578126 .2649994 .42578126 .20498657 .42578126 .1619873 .39076234 .13398743 .33073426M.2579956 .0055389406C.20098877 .0055389406 .16799927 .05256653 .1559906 .08157349 .13699341 .12660218 .13598633 .20965576 .13598633 .22566223 .13598633 .29270936 .16699219 .4007721 .2630005 .4007721 .2789917 .4007721 .32798768 .4007721 .3600006 .33872987 .3789978 .30070497 .3789978 .25167848 .3789978 .20365906 .3789978 .15562439 .3789978 .1065979 .3600006 .06956482 .32899476 .012542725 .2849884 .0055389406 .2579956 .0055389406Z"/>
<path id="font_3_8" d="M.48999024 .60954287C.49899293 .62054446 .49899293 .62254336 .49899293 .6435547H.25C.12399292 .6435547 .12098694 .6565399 .117996219 .67555239H.08999634L.056991579 .46655274H.084991458C.08898926 .48954774 .09700012 .5455475 .10998535 .55755618 .116989139 .56355288 .19599915 .56355288 .20999146 .56355288H.41999818L.32398988 .4325409C.19400025 .25354005 .18199158 .090530399 .18199158 .03353882 .18199158 .022537232 .18199158-.022460938 .22799683-.022460938 .2749939-.022460938 .2749939 .021530152 .2749939 .03453064V.08352661C.2749939 .23054505 .29699708 .34654237 .34999085 .41854859L.48999024 .60954287Z"/>
<path id="font_3_9" d="M.17199707 .45387269C.14199829 .47288514 .11898804 .4998932 .11898804 .53692629 .11898804 .6019745 .18899536 .64100649 .25498963 .64100649 .33198548 .64100649 .3939972 .58695986 .3939972 .51690676 .3939972 .44685365 .33399964 .40083314 .2939911 .37780763L.17199707 .45387269M.31900025 .36180116C.36898805 .38581849 .44198609 .43585206 .44198609 .51690676 .44198609 .6109772 .34799195 .6660156 .2579956 .6660156 .15299988 .6660156 .070999149 .5909729 .070999149 .49890138 .070999149 .46087647 .084991458 .42485047 .10899353 .39582826 .12599182 .3768158 .13198853 .37280274 .18998719 .3357849 .101989749 .29374696 .042999269 .23269654 .042999269 .15063477 .042999269 .044555665 .147995-.022460938 .2559967-.022460938 .37199403-.022460938 .46998597 .059570314 .46998597 .16764832 .46998597 .26472474 .3959961 .3127594 .37098695 .32876588 .3600006 .33677674 .33099366 .35479737 .31900025 .36180116M.21699524 .31877137 .34298707 .2407074C.3659973 .22569275 .41600038 .19366455 .41600038 .1326294 .41600038 .05357361 .33599855 .0055389406 .25698854 .0055389406 .16999817 .0055389406 .09700012 .06758118 .09700012 .15063477 .09700012 .22268677 .14698792 .28274537 .21699524 .31877137Z"/>
<path id="font_3_10" d="M.3789978 .31478883V.2927704C.3789978 .04875183 .2679901 .0055389406 .21099854 .0055389406 .18798828 .0055389406 .13699341 .009552002 .11099243 .042755128H.114990238C.12298584 .040740968 .1619873 .04875183 .1619873 .088760379 .1619873 .11476135 .14399719 .13476563 .115997318 .13476563 .08799744 .13476563 .068984989 .116760257 .068984989 .086761478 .068984989 .020629883 .12199402-.022460938 .21199036-.022460938 .34098817-.022460938 .46998597 .10975647 .46998597 .3287964 .46998597 .5999756 .34999085 .6660156 .2599945 .6660156 .14498902 .6660156 .042999269 .5729675 .042999269 .44187928 .042999269 .31478883 .1349945 .21875 .24798584 .21875 .32099916 .21875 .36099244 .27175904 .3789978 .31478883M.25 .2437439C.23399353 .2437439 .18499756 .2437439 .15299988 .30578614 .13398743 .34381105 .13398743 .39283753 .13398743 .4408722 .13398743 .48890687 .13398743 .5389404 .15499878 .57696536 .18499756 .628006 .22399903 .64100649 .2599945 .64100649 .32798768 .64100649 .35499574 .57196047 .35899354 .5619507 .37298585 .52493289 .3769989 .4638977 .3769989 .42086793 .3769989 .34780885 .34399415 .2437439 .25 .2437439Z"/>
<path id="font_3_1" d="M.47299195 .31976319C.47299195 .38682557 .46998597 .47288514 .43499757 .5479431 .3909912 .64201357 .31498719 .6660156 .25698854 .6660156 .19699097 .6660156 .12098694 .64201357 .07699585 .5459442 .04499817 .47688294 .039993287 .39582826 .039993287 .31976319 .039993287 .25471498 .041992189 .15765381 .084991458 .07858276 .13198853-.0064697267 .20999146-.022460938 .2559967-.022460938 .32099916-.022460938 .394989 .0055389406 .43699647 .097595218 .46699525 .1646576 .47299195 .23971558 .47299195 .31976319M.25698854 .002532959C.22698975 .002532959 .15499878 .016540528 .13598633 .12962342 .12599182 .18867493 .12599182 .2747345 .12599182 .33177186 .12599182 .39982606 .12599182 .47888185 .13798523 .53393557 .1579895 .6230011 .22200012 .64100649 .2559967 .64100649 .2939911 .64100649 .35699464 .62098696 .37599183 .5279236 .3869934 .47288514 .3869934 .39482118 .3869934 .33177186 .3869934 .2697296 .3869934 .18566895 .3769989 .12661743 .35598756 .012542725 .28199769 .002532959 .25698854 .002532959Z"/>
<path id="font_1_63" d="M.5349884 0V.0309906C.48298646 .0309906 .45799256 .0309906 .45700074 .061019899V.25221253C.45700074 .3383026 .45700074 .36932374 .42599488 .405365 .4119873 .42237855 .3789978 .4423828 .32099916 .4423828 .23699951 .4423828 .19299317 .38233949 .1769867 .34629823H.17599488V.69433596L.03199768 .6826172V.6516113C.101989749 .6516113 .10998535 .64463809 .10998535 .59580996V.076034549C.10998535 .0309906 .09899902 .0309906 .03199768 .0309906V0L.14498902 .0029907227 .25698854 0V.0309906C.18998719 .0309906 .1789856 .0309906 .1789856 .076034549V.2602234C.1789856 .36431886 .25 .42037965 .31399537 .42037965 .3769989 .42037965 .3880005 .36631776 .3880005 .30926515V.076034549C.3880005 .0309906 .3769989 .0309906 .30999757 .0309906V0L.4229889 .0029907227 .5349884 0Z"/>
<path id="font_1_77" d="M.5349884 0V.0309906C.48298646 .0309906 .45799256 .0309906 .45700074 .061019899V.25221253C.45700074 .3383026 .45700074 .36932374 .42599488 .405365 .4119873 .42237855 .3789978 .4423828 .32099916 .4423828 .24798584 .4423828 .20098877 .39935304 .17298889 .33729554V.4423828L.03199768 .43066407V.3996582C.101989749 .3996582 .10998535 .39266969 .10998535 .34370423V.07595825C.10998535 .0309906 .09899902 .0309906 .03199768 .0309906V0L.14498902 .0029907227 .25698854 0V.0309906C.18998719 .0309906 .1789856 .0309906 .1789856 .07595825V.25978089C.1789856 .36431886 .25 .42037965 .31399537 .42037965 .3769989 .42037965 .3880005 .36631776 .3880005 .30926515V.076034549C.3880005 .0309906 .3769989 .0309906 .30999757 .0309906V0L.4229889 .0029907227 .5349884 0Z"/>
<path id="font_1_59" d="M.4850006 .40411378C.4850006 .42111207 .47299195 .453125 .43399049 .453125 .4139862 .453125 .36999513 .44711305 .32798768 .40611268 .28599549 .43937684 .24398804 .4423828 .22200012 .4423828 .1289978 .4423828 .05999756 .37338258 .05999756 .29638673 .05999756 .25239564 .08198547 .21440125 .10699463 .19340515 .09399414 .17840576 .07598877 .14538574 .07598877 .11035156 .07598877 .07899475 .08898926 .04083252 .11999512 .020828248 .05999756 .003829956 .027999878-.039138795 .027999878-.07911682 .027999878-.15107727 .1269989-.20605469 .24899292-.20605469 .36698915-.20605469 .47099305-.15507508 .47099305-.07711792 .47099305-.042144777 .45700074 .008834839 .4059906 .036834718 .35299684 .064834598 .29499818 .064834598 .23399353 .064834598 .20899964 .064834598 .1659851 .064834598 .15899658 .065841678 .1269989 .069885257 .10598755 .101242069 .10598755 .13334656 .10598755 .13735962 .10598755 .16040039 .12298584 .18040467 .1619873 .15240479 .20298767 .14941406 .22200012 .14941406 .31498719 .14941406 .38398744 .21839905 .38398744 .2953949 .38398744 .3323822 .36799623 .36938478 .34298707 .39237977 .3789978 .42637635 .4149933 .43138124 .43299867 .43138124 .43299867 .43112184 .43998719 .43112184 .44299317 .43011476 .43199159 .42611695 .4269867 .41513063 .4269867 .40315248 .4269867 .38616944 .43998719 .37417604 .45599366 .37417604 .46598817 .37417604 .4850006 .3811798 .4850006 .4041443V.40411378M.30899049 .29626466C.30899049 .26930238 .30799867 .2373352 .29299928 .21235657 .2849884 .20037842 .2619934 .17240906 .22200012 .17240906 .1349945 .17240906 .1349945 .2722931 .1349945 .29527284 .1349945 .3222351 .13598633 .35420228 .15098572 .3791809 .15899658 .3913269 .18199158 .41937257 .22200012 .41937257 .30899049 .41937257 .30899049 .31922914 .30899049 .29618836V.29626466M.4189911-.07911682C.4189911-.13308716 .34799195-.18305969 .25-.18305969 .14898682-.18305969 .07998657-.13209534 .07998657-.07911682 .07998657-.03314209 .117996219 .003829956 .1619873 .0068359377H.22099304C.30699159 .0068359377 .4189911 .0068359377 .4189911-.07911682Z"/>
<path id="font_4_1" d="M.44198609 .69781497C.43499757 .7108154 .43299867 .7158203 .41600038 .7158203 .39898683 .7158203 .39698792 .7108154 .3899994 .69781497L.051986696 .019989014C.04699707 .010986328 .04699707 .008987427 .04699707 .0079956059 .04699707 0 .052993776 0 .068984989 0H.7630005C.7789917 0 .7849884 0 .7849884 .0079956059 .7849884 .008987427 .7849884 .010986328 .7799988 .019989014L.44198609 .69781497M.38398744 .61582949 .6529999 .07598877H.11399841L.38398744 .61582949Z"/>
<path id="font_5_1" d="M.6749878 .22944641C.69299319 .22944641 .71199038 .22944641 .71199038 .25144959 .71199038 .27246095 .69200137 .27246095 .6749878 .27246095H.12298584C.10598755 .27246095 .085998538 .27246095 .085998538 .25144959 .085998538 .22944641 .10499573 .22944641 .12298584 .22944641H.6749878Z"/>
</defs>
<path transform="matrix(1.00006,0,0,-1.00009,15.665619,141.37564)" stroke-width=".3985" stroke-linecap="butt" stroke-miterlimit="10" stroke-linejoin="miter" fill="none" stroke="#000000" d="M0 0H154.6561"/>
<path transform="matrix(1.00006,0,0,-1.00009,15.665619,141.37564)" stroke-width=".3985" stroke-linecap="butt" stroke-miterlimit="10" stroke-linejoin="miter" fill="none" stroke="#000000" d="M0 21.25923H154.6561"/>
<path transform="matrix(1.00006,0,0,-1.00009,15.665619,141.37564)" stroke-width=".3985" stroke-linecap="butt" stroke-miterlimit="10" stroke-linejoin="miter" fill="none" stroke="#000000" d="M0 42.51846H154.6561"/>
<path transform="matrix(1.00006,0,0,-1.00009,15.665619,141.37564)" stroke-width=".3985" stroke-linecap="butt" stroke-miterlimit="10" stroke-linejoin="miter" fill="none" stroke="#000000" d="M0 63.77773H154.6561"/>
<path transform="matrix(1.00006,0,0,-1.00009,15.665619,141.37564)" stroke-width=".3985" stroke-linecap="butt" stroke-miterlimit="10" stroke-linejoin="miter" fill="none" stroke="#000000" d="M0 85.03696H154.6561"/>
<path transform="matrix(1.00006,0,0,-1.00009,15.665619,141.37564)" stroke-width=".3985" stroke-linecap="butt" stroke-miterlimit="10" stroke-linejoin="miter" fill="none" stroke="#000000" d="M0 106.29619H154.6561"/>
<path transform="matrix(1.00006,0,0,-1.00009,15.665619,141.37564)" stroke-width=".3985" stroke-linecap="butt" stroke-miterlimit="10" stroke-linejoin="miter" fill="none" stroke="#000000" d="M0 127.55545H154.6561"/>
<path transform="matrix(1.00006,0,0,-1.00009,15.665619,141.37564)" stroke-width=".79701" stroke-linecap="butt" stroke-dasharray=".79701,1.99255" stroke-miterlimit="10" stroke-linejoin="miter" fill="none" stroke="#000000" d="M0 4.25183H154.6561"/>
<path transform="matrix(1.00006,0,0,-1.00009,15.665619,141.37564)" stroke-width=".79701" stroke-linecap="butt" stroke-dasharray=".79701,1.99255" stroke-miterlimit="10" stroke-linejoin="miter" fill="none" stroke="#000000" d="M0 8.50368H154.6561"/>
<path transform="matrix(1.00006,0,0,-1.00009,15.665619,141.37564)" stroke-width=".79701" stroke-linecap="butt" stroke-dasharray=".79701,1.99255" stroke-miterlimit="10" stroke-linejoin="miter" fill="none" stroke="#000000" d="M0 12.75554H154.6561"/>
<path transform="matrix(1.00006,0,0,-1.00009,15.665619,141.37564)" stroke-width=".79701" stroke-linecap="butt" stroke-dasharray=".79701,1.99255" stroke-miterlimit="10" stroke-linejoin="miter" fill="none" stroke="#000000" d="M0 17.00737H154.6561"/>
<path transform="matrix(1.00006,0,0,-1.00009,15.665619,141.37564)" stroke-width=".79701" stroke-linecap="butt" stroke-dasharray=".79701,1.99255" stroke-miterlimit="10" stroke-linejoin="miter" fill="none" stroke="#000000" d="M0 21.25923H154.6561"/>
<path transform="matrix(1.00006,0,0,-1.00009,15.665619,141.37564)" stroke-width=".79701" stroke-linecap="butt" stroke-dasharray=".79701,1.99255" stroke-miterlimit="10" stroke-linejoin="miter" fill="none" stroke="#000000" d="M0 25.51108H154.6561"/>
<path transform="matrix(1.00006,0,0,-1.00009,15.665619,141.37564)" stroke-width=".79701" stroke-linecap="butt" stroke-dasharray=".79701,1.99255" stroke-miterlimit="10" stroke-linejoin="miter" fill="none" stroke="#000000" d="M0 29.76292H154.6561"/>
<path transform="matrix(1.00006,0,0,-1.00009,15.665619,141.37564)" stroke-width=".79701" stroke-linecap="butt" stroke-dasharray=".79701,1.99255" stroke-miterlimit="10" stroke-linejoin="miter" fill="none" stroke="#000000" d="M0 34.01477H154.6561"/>
<path transform="matrix(1.00006,0,0,-1.00009,15.665619,141.37564)" stroke-width=".79701" stroke-linecap="butt" stroke-dasharray=".79701,1.99255" stroke-miterlimit="10" stroke-linejoin="miter" fill="none" stroke="#000000" d="M0 38.26663H154.6561"/>
<path transform="matrix(1.00006,0,0,-1.00009,15.665619,141.37564)" stroke-width=".79701" stroke-linecap="butt" stroke-dasharray=".79701,1.99255" stroke-miterlimit="10" stroke-linejoin="miter" fill="none" stroke="#000000" d="M0 42.51846H154.6561"/>
<path transform="matrix(1.00006,0,0,-1.00009,15.665619,141.37564)" stroke-width=".79701" stroke-linecap="butt" stroke-dasharray=".79701,1.99255" stroke-miterlimit="10" stroke-linejoin="miter" fill="none" stroke="#000000" d="M0 46.77032H154.6561"/>
<path transform="matrix(1.00006,0,0,-1.00009,15.665619,141.37564)" stroke-width=".79701" stroke-linecap="butt" stroke-dasharray=".79701,1.99255" stroke-miterlimit="10" stroke-linejoin="miter" fill="none" stroke="#000000" d="M0 51.02217H154.6561"/>
<path transform="matrix(1.00006,0,0,-1.00009,15.665619,141.37564)" stroke-width=".79701" stroke-linecap="butt" stroke-dasharray=".79701,1.99255" stroke-miterlimit="10" stroke-linejoin="miter" fill="none" stroke="#000000" d="M0 55.27402H154.6561"/>
<path transform="matrix(1.00006,0,0,-1.00009,15.665619,141.37564)" stroke-width=".79701" stroke-linecap="butt" stroke-dasharray=".79701,1.99255" stroke-miterlimit="10" stroke-linejoin="miter" fill="none" stroke="#000000" d="M0 59.52586H154.6561"/>
<path transform="matrix(1.00006,0,0,-1.00009,15.665619,141.37564)" stroke-width=".79701" stroke-linecap="butt" stroke-dasharray=".79701,1.99255" stroke-miterlimit="10" stroke-linejoin="miter" fill="none" stroke="#000000" d="M0 63.77773H154.6561"/>
<path transform="matrix(1.00006,0,0,-1.00009,15.665619,141.37564)" stroke-width=".79701" stroke-linecap="butt" stroke-dasharray=".79701,1.99255" stroke-miterlimit="10" stroke-linejoin="miter" fill="none" stroke="#000000" d="M0 68.02956H154.6561"/>
<path transform="matrix(1.00006,0,0,-1.00009,15.665619,141.37564)" stroke-width=".79701" stroke-linecap="butt" stroke-dasharray=".79701,1.99255" stroke-miterlimit="10" stroke-linejoin="miter" fill="none" stroke="#000000" d="M0 72.2814H154.6561"/>
<path transform="matrix(1.00006,0,0,-1.00009,15.665619,141.37564)" stroke-width=".79701" stroke-linecap="butt" stroke-dasharray=".79701,1.99255" stroke-miterlimit="10" stroke-linejoin="miter" fill="none" stroke="#000000" d="M0 76.53326H154.6561"/>
<path transform="matrix(1.00006,0,0,-1.00009,15.665619,141.37564)" stroke-width=".79701" stroke-linecap="butt" stroke-dasharray=".79701,1.99255" stroke-miterlimit="10" stroke-linejoin="miter" fill="none" stroke="#000000" d="M0 80.7851H154.6561"/>
<path transform="matrix(1.00006,0,0,-1.00009,15.665619,141.37564)" stroke-width=".79701" stroke-linecap="butt" stroke-dasharray=".79701,1.99255" stroke-miterlimit="10" stroke-linejoin="miter" fill="none" stroke="#000000" d="M0 85.03696H154.6561"/>
<path transform="matrix(1.00006,0,0,-1.00009,15.665619,141.37564)" stroke-width=".79701" stroke-linecap="butt" stroke-dasharray=".79701,1.99255" stroke-miterlimit="10" stroke-linejoin="miter" fill="none" stroke="#000000" d="M0 89.2888H154.6561"/>
<path transform="matrix(1.00006,0,0,-1.00009,15.665619,141.37564)" stroke-width=".79701" stroke-linecap="butt" stroke-dasharray=".79701,1.99255" stroke-miterlimit="10" stroke-linejoin="miter" fill="none" stroke="#000000" d="M0 93.54065H154.6561"/>
<path transform="matrix(1.00006,0,0,-1.00009,15.665619,141.37564)" stroke-width=".79701" stroke-linecap="butt" stroke-dasharray=".79701,1.99255" stroke-miterlimit="10" stroke-linejoin="miter" fill="none" stroke="#000000" d="M0 97.7925H154.6561"/>
<path transform="matrix(1.00006,0,0,-1.00009,15.665619,141.37564)" stroke-width=".79701" stroke-linecap="butt" stroke-dasharray=".79701,1.99255" stroke-miterlimit="10" stroke-linejoin="miter" fill="none" stroke="#000000" d="M0 102.04436H154.6561"/>
<path transform="matrix(1.00006,0,0,-1.00009,15.665619,141.37564)" stroke-width=".79701" stroke-linecap="butt" stroke-dasharray=".79701,1.99255" stroke-miterlimit="10" stroke-linejoin="miter" fill="none" stroke="#000000" d="M0 106.29619H154.6561"/>
<path transform="matrix(1.00006,0,0,-1.00009,15.665619,141.37564)" stroke-width=".79701" stroke-linecap="butt" stroke-dasharray=".79701,1.99255" stroke-miterlimit="10" stroke-linejoin="miter" fill="none" stroke="#000000" d="M0 110.54805H154.6561"/>
<path transform="matrix(1.00006,0,0,-1.00009,15.665619,141.37564)" stroke-width=".79701" stroke-linecap="butt" stroke-dasharray=".79701,1.99255" stroke-miterlimit="10" stroke-linejoin="miter" fill="none" stroke="#000000" d="M0 114.7999H154.6561"/>
<path transform="matrix(1.00006,0,0,-1.00009,15.665619,141.37564)" stroke-width=".79701" stroke-linecap="butt" stroke-dasharray=".79701,1.99255" stroke-miterlimit="10" stroke-linejoin="miter" fill="none" stroke="#000000" d="M0 119.05174H154.6561"/>
<path transform="matrix(1.00006,0,0,-1.00009,15.665619,141.37564)" stroke-width=".79701" stroke-linecap="butt" stroke-dasharray=".79701,1.99255" stroke-miterlimit="10" stroke-linejoin="miter" fill="none" stroke="#000000" d="M0 123.30359H154.6561"/>
<path transform="matrix(1.00006,0,0,-1.00009,15.665619,141.37564)" stroke-width=".79701" stroke-linecap="butt" stroke-dasharray=".79701,1.99255" stroke-miterlimit="10" stroke-linejoin="miter" fill="none" stroke="#000000" d="M0 127.55545H154.6561"/>
<path transform="matrix(1.00006,0,0,-1.00009,15.665619,141.37564)" stroke-width=".3985" stroke-linecap="butt" stroke-miterlimit="10" stroke-linejoin="miter" fill="none" stroke="#000000" d="M0 0H151.06957"/>
<path transform="matrix(1.00006,0,0,-1.00009,166.74425,141.37564)" d="M3.58653 0C2.52383 .19925 .797 .797-.3985 1.49438V-1.49438C.797-.797 2.52383-.19925 3.58653 0"/>
<use data-text="i" xlink:href="#font_1_66" transform="matrix(9.963197,0,0,-9.963496,160.64632,151.44155)"/>
<use data-text="t" xlink:href="#font_1_105" transform="matrix(9.963197,0,0,-9.963496,163.41609,151.44155)"/>
<use data-text="e" xlink:href="#font_1_50" transform="matrix(9.963197,0,0,-9.963496,167.29178,151.44155)"/>
<use data-text="m" xlink:href="#font_1_75" transform="matrix(9.963197,0,0,-9.963496,171.71546,151.44155)"/>
<path transform="matrix(1.00006,0,0,-1.00009,15.665619,141.37564)" stroke-width=".3985" stroke-linecap="butt" stroke-miterlimit="10" stroke-linejoin="miter" fill="none" stroke="#000000" d="M0 0V126.09482"/>
<path transform="matrix(0,-1.00009,-1.00006,-0,15.665619,15.26947)" d="M3.58653 0C2.52383 .19925 .797 .797-.3985 1.49438V-1.49438C.797-.797 2.52383-.19925 3.58653 0"/>
<use data-text="T" xlink:href="#font_1_104" transform="matrix(9.963197,0,0,-9.963496,19.185837,7.943634)"/>
<use data-text="o" xlink:href="#font_1_81" transform="matrix(9.963197,0,0,-9.963496,25.552323,7.943634)"/>
<use data-text="t" xlink:href="#font_1_105" transform="matrix(9.963197,0,0,-9.963496,30.53392,7.943634)"/>
<use data-text="a" xlink:href="#font_1_28" transform="matrix(9.963197,0,0,-9.963496,34.409608,7.943634)"/>
<use data-text="l" xlink:href="#font_1_72" transform="matrix(9.963197,0,0,-9.963496,39.391206,7.943634)"/>
<use data-text="C" xlink:href="#font_1_42" transform="matrix(9.963197,0,0,-9.963496,45.468767,7.943634)"/>
<use data-text="o" xlink:href="#font_1_81" transform="matrix(9.963197,0,0,-9.963496,52.662187,7.943634)"/>
<use data-text="s" xlink:href="#font_1_98" transform="matrix(9.963197,0,0,-9.963496,57.64377,7.943634)"/>
<use data-text="t" xlink:href="#font_1_105" transform="matrix(9.963197,0,0,-9.963496,61.569276,7.943634)"/>
<use data-text="C" xlink:href="#font_2_1" transform="matrix(9.963197,0,0,-9.963496,68.77281,7.943634)"/>
<use data-text="1" xlink:href="#font_3_2" transform="matrix(8.966938,0,0,-8.967207,27.422318,152.66767)"/>
<use data-text="2" xlink:href="#font_3_3" transform="matrix(8.966938,0,0,-8.967207,41.48217,152.66767)"/>
<use data-text="3" xlink:href="#font_3_4" transform="matrix(8.966938,0,0,-8.967207,55.543016,152.66767)"/>
<use data-text="4" xlink:href="#font_3_5" transform="matrix(8.966938,0,0,-8.967207,69.60385,152.66767)"/>
<use data-text="5" xlink:href="#font_3_6" transform="matrix(8.966938,0,0,-8.967207,83.6637,152.66767)"/>
<use data-text="6" xlink:href="#font_3_7" transform="matrix(8.966938,0,0,-8.967207,97.72454,152.66767)"/>
<use data-text="7" xlink:href="#font_3_8" transform="matrix(8.966938,0,0,-8.967207,111.78538,152.66767)"/>
<use data-text="8" xlink:href="#font_3_9" transform="matrix(8.966938,0,0,-8.967207,125.84522,152.66767)"/>
<use data-text="9" xlink:href="#font_3_10" transform="matrix(8.966938,0,0,-8.967207,139.90607,152.66767)"/>
<use data-text="1" xlink:href="#font_3_2" transform="matrix(8.966938,0,0,-8.967207,151.66277,152.66767)"/>
<use data-text="0" xlink:href="#font_3_1" transform="matrix(8.966938,0,0,-8.967207,156.2628,152.66767)"/>
<use data-text="0" xlink:href="#font_3_1" transform="matrix(8.966938,0,0,-8.967207,5.5450136,144.26491)"/>
<use data-text="5" xlink:href="#font_3_6" transform="matrix(8.966938,0,0,-8.967207,5.5450136,123.00398)"/>
<use data-text="1" xlink:href="#font_3_2" transform="matrix(8.966938,0,0,-8.967207,.93673709,101.74307)"/>
<use data-text="0" xlink:href="#font_3_1" transform="matrix(8.966938,0,0,-8.967207,5.5367739,101.74307)"/>
<use data-text="1" xlink:href="#font_3_2" transform="matrix(8.966938,0,0,-8.967207,.93673709,80.481159)"/>
<use data-text="5" xlink:href="#font_3_6" transform="matrix(8.966938,0,0,-8.967207,5.5367739,80.481159)"/>
<use data-text="2" xlink:href="#font_3_3" transform="matrix(8.966938,0,0,-8.967207,.93673709,59.220247)"/>
<use data-text="0" xlink:href="#font_3_1" transform="matrix(8.966938,0,0,-8.967207,5.5367739,59.220247)"/>
<use data-text="2" xlink:href="#font_3_3" transform="matrix(8.966938,0,0,-8.967207,.93673709,37.959337)"/>
<use data-text="5" xlink:href="#font_3_6" transform="matrix(8.966938,0,0,-8.967207,5.5367739,37.959337)"/>
<use data-text="3" xlink:href="#font_3_4" transform="matrix(8.966938,0,0,-8.967207,.93673709,16.698418)"/>
<use data-text="0" xlink:href="#font_3_1" transform="matrix(8.966938,0,0,-8.967207,5.5367739,16.698418)"/>
<path transform="matrix(1.00006,0,0,-1.00009,15.665619,141.37564)" stroke-width=".09962" stroke-linecap="butt" stroke-miterlimit="10" stroke-linejoin="miter" fill="none" stroke="#000000" d="M14.05963 0V128.6184"/>
<path transform="matrix(1.00006,0,0,-1.00009,15.665619,141.37564)" stroke-width=".09962" stroke-linecap="butt" stroke-miterlimit="10" stroke-linejoin="miter" fill="none" stroke="#000000" d="M28.11928 0V128.6184"/>
<path transform="matrix(1.00006,0,0,-1.00009,15.665619,141.37564)" stroke-width=".09962" stroke-linecap="butt" stroke-miterlimit="10" stroke-linejoin="miter" fill="none" stroke="#000000" d="M42.17892 0V128.6184"/>
<path transform="matrix(1.00006,0,0,-1.00009,15.665619,141.37564)" stroke-width=".09962" stroke-linecap="butt" stroke-miterlimit="10" stroke-linejoin="miter" fill="none" stroke="#000000" d="M56.23857 0V128.6184"/>
<path transform="matrix(1.00006,0,0,-1.00009,15.665619,141.37564)" stroke-width=".09962" stroke-linecap="butt" stroke-miterlimit="10" stroke-linejoin="miter" fill="none" stroke="#000000" d="M70.29823 0V128.6184"/>
<path transform="matrix(1.00006,0,0,-1.00009,15.665619,141.37564)" stroke-width=".09962" stroke-linecap="butt" stroke-miterlimit="10" stroke-linejoin="miter" fill="none" stroke="#000000" d="M84.35786 0V128.6184"/>
<path transform="matrix(1.00006,0,0,-1.00009,15.665619,141.37564)" stroke-width=".09962" stroke-linecap="butt" stroke-miterlimit="10" stroke-linejoin="miter" fill="none" stroke="#000000" d="M98.41751 0V128.6184"/>
<path transform="matrix(1.00006,0,0,-1.00009,15.665619,141.37564)" stroke-width=".09962" stroke-linecap="butt" stroke-miterlimit="10" stroke-linejoin="miter" fill="none" stroke="#000000" d="M112.47717 0V128.6184"/>
<path transform="matrix(1.00006,0,0,-1.00009,15.665619,141.37564)" stroke-width=".09962" stroke-linecap="butt" stroke-miterlimit="10" stroke-linejoin="miter" fill="none" stroke="#000000" d="M126.5368 0V128.6184"/>
<path transform="matrix(1.00006,0,0,-1.00009,15.665619,141.37564)" stroke-width=".09962" stroke-linecap="butt" stroke-miterlimit="10" stroke-linejoin="miter" fill="none" stroke="#000000" d="M140.59647 0V128.6184"/>
<g>
<path transform="matrix(1.00006,0,0,-1.00009,15.665619,141.37564)" d="M3.5149 21.25923V0H-3.5149V21.25923ZM-3.5149 0" fill="#0000ff" fill-opacity=".3"/>
<path transform="matrix(1.00006,0,0,-1.00009,15.665619,141.37564)" stroke-width=".3985" stroke-linecap="butt" stroke-miterlimit="10" stroke-linejoin="miter" fill="none" stroke="#000000" stroke-opacity=".3" d="M3.5149 21.25923V0H-3.5149V21.25923ZM-3.5149 0"/>
</g>
<path transform="matrix(1.00006,0,0,-1.00009,15.665619,141.37564)" stroke-width=".79701" stroke-linecap="butt" stroke-miterlimit="10" stroke-linejoin="miter" fill="none" stroke="#000000" d="M3.5149 21.25923V0H-3.5149V21.25923ZM-3.5149 0"/>
<path transform="matrix(1.00006,0,0,-1.00009,15.665619,141.37564)" d="M2.81807 21.25923C2.81807 22.81563 1.55638 24.07732 0 24.07732-1.55638 24.07732-2.81807 22.81563-2.81807 21.25923-2.81807 19.70284-1.55638 18.44115 0 18.44115 1.55638 18.44115 2.81807 19.70284 2.81807 21.25923ZM0 21.25923" fill="#0000ff"/>
<path transform="matrix(1.00006,0,0,-1.00009,15.665619,141.37564)" stroke-width=".3985" stroke-linecap="butt" stroke-miterlimit="10" stroke-linejoin="miter" fill="none" stroke="#000000" d="M2.81807 21.25923C2.81807 22.81563 1.55638 24.07732 0 24.07732-1.55638 24.07732-2.81807 22.81563-2.81807 21.25923-2.81807 19.70284-1.55638 18.44115 0 18.44115 1.55638 18.44115 2.81807 19.70284 2.81807 21.25923ZM0 21.25923"/>
<g>
<path transform="matrix(1.00006,0,0,-1.00009,15.665619,141.37564)" d="M17.57454 38.26663V0H10.54472V38.26663ZM10.54472 0" fill="#0000ff" fill-opacity=".3"/>
<path transform="matrix(1.00006,0,0,-1.00009,15.665619,141.37564)" stroke-width=".3985" stroke-linecap="butt" stroke-miterlimit="10" stroke-linejoin="miter" fill="none" stroke="#000000" stroke-opacity=".3" d="M17.57454 38.26663V0H10.54472V38.26663ZM10.54472 0"/>
</g>
<path transform="matrix(1.00006,0,0,-1.00009,15.665619,141.37564)" stroke-width=".79701" stroke-linecap="butt" stroke-miterlimit="10" stroke-linejoin="miter" fill="none" stroke="#000000" d="M17.57454 38.26663V0H10.54472V38.26663ZM10.54472 0"/>
<path transform="matrix(1.00006,0,0,-1.00009,15.665619,141.37564)" d="M16.87772 38.26663C16.87772 39.82301 15.61603 41.0847 14.05963 41.0847 12.50323 41.0847 11.24155 39.82301 11.24155 38.26663 11.24155 36.71024 12.50323 35.44855 14.05963 35.44855 15.61603 35.44855 16.87772 36.71024 16.87772 38.26663ZM14.05963 38.26663" fill="#0000ff"/>
<path transform="matrix(1.00006,0,0,-1.00009,15.665619,141.37564)" stroke-width=".3985" stroke-linecap="butt" stroke-miterlimit="10" stroke-linejoin="miter" fill="none" stroke="#000000" d="M16.87772 38.26663C16.87772 39.82301 15.61603 41.0847 14.05963 41.0847 12.50323 41.0847 11.24155 39.82301 11.24155 38.26663 11.24155 36.71024 12.50323 35.44855 14.05963 35.44855 15.61603 35.44855 16.87772 36.71024 16.87772 38.26663ZM14.05963 38.26663"/>
<g>
<path transform="matrix(1.00006,0,0,-1.00009,15.665619,141.37564)" d="M31.63419 51.02217V0H24.60437V51.02217ZM24.60437 0" fill="#0000ff" fill-opacity=".3"/>
<path transform="matrix(1.00006,0,0,-1.00009,15.665619,141.37564)" stroke-width=".3985" stroke-linecap="butt" stroke-miterlimit="10" stroke-linejoin="miter" fill="none" stroke="#000000" stroke-opacity=".3" d="M31.63419 51.02217V0H24.60437V51.02217ZM24.60437 0"/>
</g>
<path transform="matrix(1.00006,0,0,-1.00009,15.665619,141.37564)" stroke-width=".79701" stroke-linecap="butt" stroke-miterlimit="10" stroke-linejoin="miter" fill="none" stroke="#000000" d="M31.63419 51.02217V0H24.60437V51.02217ZM24.60437 0"/>
<path transform="matrix(1.00006,0,0,-1.00009,15.665619,141.37564)" d="M30.93736 51.02217C30.93736 52.57855 29.67567 53.84024 28.11928 53.84024 26.56288 53.84024 25.3012 52.57855 25.3012 51.02217 25.3012 49.46577 26.56288 48.20409 28.11928 48.20409 29.67567 48.20409 30.93736 49.46577 30.93736 51.02217ZM28.11928 51.02217" fill="#0000ff"/>
<path transform="matrix(1.00006,0,0,-1.00009,15.665619,141.37564)" stroke-width=".3985" stroke-linecap="butt" stroke-miterlimit="10" stroke-linejoin="miter" fill="none" stroke="#000000" d="M30.93736 51.02217C30.93736 52.57855 29.67567 53.84024 28.11928 53.84024 26.56288 53.84024 25.3012 52.57855 25.3012 51.02217 25.3012 49.46577 26.56288 48.20409 28.11928 48.20409 29.67567 48.20409 30.93736 49.46577 30.93736 51.02217ZM28.11928 51.02217"/>
<g>
<path transform="matrix(1.00006,0,0,-1.00009,15.665619,141.37564)" d="M45.69385 59.52586V0H38.66402V59.52586ZM38.66402 0" fill="#0000ff" fill-opacity=".3"/>
<path transform="matrix(1.00006,0,0,-1.00009,15.665619,141.37564)" stroke-width=".3985" stroke-linecap="butt" stroke-miterlimit="10" stroke-linejoin="miter" fill="none" stroke="#000000" stroke-opacity=".3" d="M45.69385 59.52586V0H38.66402V59.52586ZM38.66402 0"/>
</g>
<path transform="matrix(1.00006,0,0,-1.00009,15.665619,141.37564)" stroke-width=".79701" stroke-linecap="butt" stroke-miterlimit="10" stroke-linejoin="miter" fill="none" stroke="#000000" d="M45.69385 59.52586V0H38.66402V59.52586ZM38.66402 0"/>
<path transform="matrix(1.00006,0,0,-1.00009,15.665619,141.37564)" d="M44.99701 59.52586C44.99701 61.08226 43.73532 62.34395 42.17892 62.34395 40.62254 62.34395 39.36086 61.08226 39.36086 59.52586 39.36086 57.96947 40.62254 56.70778 42.17892 56.70778 43.73532 56.70778 44.99701 57.96947 44.99701 59.52586ZM42.17892 59.52586" fill="#0000ff"/>
<path transform="matrix(1.00006,0,0,-1.00009,15.665619,141.37564)" stroke-width=".3985" stroke-linecap="butt" stroke-miterlimit="10" stroke-linejoin="miter" fill="none" stroke="#000000" d="M44.99701 59.52586C44.99701 61.08226 43.73532 62.34395 42.17892 62.34395 40.62254 62.34395 39.36086 61.08226 39.36086 59.52586 39.36086 57.96947 40.62254 56.70778 42.17892 56.70778 43.73532 56.70778 44.99701 57.96947 44.99701 59.52586ZM42.17892 59.52586"/>
<g>
<path transform="matrix(1.00006,0,0,-1.00009,15.665619,141.37564)" d="M59.75348 63.77773V0H52.72366V63.77773ZM52.72366 0" fill="#0000ff" fill-opacity=".3"/>
<path transform="matrix(1.00006,0,0,-1.00009,15.665619,141.37564)" stroke-width=".3985" stroke-linecap="butt" stroke-miterlimit="10" stroke-linejoin="miter" fill="none" stroke="#000000" stroke-opacity=".3" d="M59.75348 63.77773V0H52.72366V63.77773ZM52.72366 0"/>
</g>
<path transform="matrix(1.00006,0,0,-1.00009,15.665619,141.37564)" stroke-width=".79701" stroke-linecap="butt" stroke-miterlimit="10" stroke-linejoin="miter" fill="none" stroke="#000000" d="M59.75348 63.77773V0H52.72366V63.77773ZM52.72366 0"/>
<path transform="matrix(1.00006,0,0,-1.00009,15.665619,141.37564)" d="M59.05666 63.77773C59.05666 65.3341 57.79497 66.5958 56.23857 66.5958 54.68217 66.5958 53.42049 65.3341 53.42049 63.77773 53.42049 62.22133 54.68217 60.95964 56.23857 60.95964 57.79497 60.95964 59.05666 62.22133 59.05666 63.77773ZM56.23857 63.77773" fill="#0000ff"/>
<path transform="matrix(1.00006,0,0,-1.00009,15.665619,141.37564)" stroke-width=".3985" stroke-linecap="butt" stroke-miterlimit="10" stroke-linejoin="miter" fill="none" stroke="#000000" d="M59.05666 63.77773C59.05666 65.3341 57.79497 66.5958 56.23857 66.5958 54.68217 66.5958 53.42049 65.3341 53.42049 63.77773 53.42049 62.22133 54.68217 60.95964 56.23857 60.95964 57.79497 60.95964 59.05666 62.22133 59.05666 63.77773ZM56.23857 63.77773"/>
<g>
<path transform="matrix(1.00006,0,0,-1.00009,15.665619,141.37564)" d="M73.81313 68.02956V0H66.7833V68.02956ZM66.7833 0" fill="#0000ff" fill-opacity=".3"/>
<path transform="matrix(1.00006,0,0,-1.00009,15.665619,141.37564)" stroke-width=".3985" stroke-linecap="butt" stroke-miterlimit="10" stroke-linejoin="miter" fill="none" stroke="#000000" stroke-opacity=".3" d="M73.81313 68.02956V0H66.7833V68.02956ZM66.7833 0"/>
</g>
<path transform="matrix(1.00006,0,0,-1.00009,15.665619,141.37564)" stroke-width=".79701" stroke-linecap="butt" stroke-miterlimit="10" stroke-linejoin="miter" fill="none" stroke="#000000" d="M73.81313 68.02956V0H66.7833V68.02956ZM66.7833 0"/>
<path transform="matrix(1.00006,0,0,-1.00009,15.665619,141.37564)" d="M73.1163 68.02956C73.1163 69.58595 71.85461 70.84764 70.29823 70.84764 68.74184 70.84764 67.48015 69.58595 67.48015 68.02956 67.48015 66.47316 68.74184 65.21147 70.29823 65.21147 71.85461 65.21147 73.1163 66.47316 73.1163 68.02956ZM70.29823 68.02956" fill="#0000ff"/>
<path transform="matrix(1.00006,0,0,-1.00009,15.665619,141.37564)" stroke-width=".3985" stroke-linecap="butt" stroke-miterlimit="10" stroke-linejoin="miter" fill="none" stroke="#000000" d="M73.1163 68.02956C73.1163 69.58595 71.85461 70.84764 70.29823 70.84764 68.74184 70.84764 67.48015 69.58595 67.48015 68.02956 67.48015 66.47316 68.74184 65.21147 70.29823 65.21147 71.85461 65.21147 73.1163 66.47316 73.1163 68.02956ZM70.29823 68.02956"/>
<g>
<path transform="matrix(1.00006,0,0,-1.00009,15.665619,141.37564)" d="M87.87277 72.2814V0H80.84296V72.2814ZM80.84296 0" fill="#0000ff" fill-opacity=".3"/>
<path transform="matrix(1.00006,0,0,-1.00009,15.665619,141.37564)" stroke-width=".3985" stroke-linecap="butt" stroke-miterlimit="10" stroke-linejoin="miter" fill="none" stroke="#000000" stroke-opacity=".3" d="M87.87277 72.2814V0H80.84296V72.2814ZM80.84296 0"/>
</g>
<path transform="matrix(1.00006,0,0,-1.00009,15.665619,141.37564)" stroke-width=".79701" stroke-linecap="butt" stroke-miterlimit="10" stroke-linejoin="miter" fill="none" stroke="#000000" d="M87.87277 72.2814V0H80.84296V72.2814ZM80.84296 0"/>
<path transform="matrix(1.00006,0,0,-1.00009,15.665619,141.37564)" d="M87.17595 72.2814C87.17595 73.8378 85.91426 75.09949 84.35786 75.09949 82.80147 75.09949 81.53978 73.8378 81.53978 72.2814 81.53978 70.725 82.80147 69.46332 84.35786 69.46332 85.91426 69.46332 87.17595 70.725 87.17595 72.2814ZM84.35786 72.2814" fill="#0000ff"/>
<path transform="matrix(1.00006,0,0,-1.00009,15.665619,141.37564)" stroke-width=".3985" stroke-linecap="butt" stroke-miterlimit="10" stroke-linejoin="miter" fill="none" stroke="#000000" d="M87.17595 72.2814C87.17595 73.8378 85.91426 75.09949 84.35786 75.09949 82.80147 75.09949 81.53978 73.8378 81.53978 72.2814 81.53978 70.725 82.80147 69.46332 84.35786 69.46332 85.91426 69.46332 87.17595 70.725 87.17595 72.2814ZM84.35786 72.2814"/>
<g>
<path transform="matrix(1.00006,0,0,-1.00009,15.665619,141.37564)" d="M101.93242 76.53326V0H94.9026V76.53326ZM94.9026 0" fill="#0000ff" fill-opacity=".3"/>
<path transform="matrix(1.00006,0,0,-1.00009,15.665619,141.37564)" stroke-width=".3985" stroke-linecap="butt" stroke-miterlimit="10" stroke-linejoin="miter" fill="none" stroke="#000000" stroke-opacity=".3" d="M101.93242 76.53326V0H94.9026V76.53326ZM94.9026 0"/>
</g>
<path transform="matrix(1.00006,0,0,-1.00009,15.665619,141.37564)" stroke-width=".79701" stroke-linecap="butt" stroke-miterlimit="10" stroke-linejoin="miter" fill="none" stroke="#000000" d="M101.93242 76.53326V0H94.9026V76.53326ZM94.9026 0"/>
<path transform="matrix(1.00006,0,0,-1.00009,15.665619,141.37564)" d="M101.2356 76.53326C101.2356 78.08965 99.9739 79.35133 98.41751 79.35133 96.86111 79.35133 95.59943 78.08965 95.59943 76.53326 95.59943 74.97687 96.86111 73.71518 98.41751 73.71518 99.9739 73.71518 101.2356 74.97687 101.2356 76.53326ZM98.41751 76.53326" fill="#0000ff"/>
<path transform="matrix(1.00006,0,0,-1.00009,15.665619,141.37564)" stroke-width=".3985" stroke-linecap="butt" stroke-miterlimit="10" stroke-linejoin="miter" fill="none" stroke="#000000" d="M101.2356 76.53326C101.2356 78.08965 99.9739 79.35133 98.41751 79.35133 96.86111 79.35133 95.59943 78.08965 95.59943 76.53326 95.59943 74.97687 96.86111 73.71518 98.41751 73.71518 99.9739 73.71518 101.2356 74.97687 101.2356 76.53326ZM98.41751 76.53326"/>
<g>
<path transform="matrix(1.00006,0,0,-1.00009,15.665619,141.37564)" d="M115.99208 85.03696V0H108.96225V85.03696ZM108.96225 0" fill="#0000ff" fill-opacity=".3"/>
<path transform="matrix(1.00006,0,0,-1.00009,15.665619,141.37564)" stroke-width=".3985" stroke-linecap="butt" stroke-miterlimit="10" stroke-linejoin="miter" fill="none" stroke="#000000" stroke-opacity=".3" d="M115.99208 85.03696V0H108.96225V85.03696ZM108.96225 0"/>
</g>
<path transform="matrix(1.00006,0,0,-1.00009,15.665619,141.37564)" stroke-width=".79701" stroke-linecap="butt" stroke-miterlimit="10" stroke-linejoin="miter" fill="none" stroke="#000000" d="M115.99208 85.03696V0H108.96225V85.03696ZM108.96225 0"/>
<path transform="matrix(1.00006,0,0,-1.00009,15.665619,141.37564)" d="M115.29524 85.03696C115.29524 86.59335 114.03355 87.85504 112.47717 87.85504 110.92078 87.85504 109.65909 86.59335 109.65909 85.03696 109.65909 83.48056 110.92078 82.21887 112.47717 82.21887 114.03355 82.21887 115.29524 83.48056 115.29524 85.03696ZM112.47717 85.03696" fill="#0000ff"/>
<path transform="matrix(1.00006,0,0,-1.00009,15.665619,141.37564)" stroke-width=".3985" stroke-linecap="butt" stroke-miterlimit="10" stroke-linejoin="miter" fill="none" stroke="#000000" d="M115.29524 85.03696C115.29524 86.59335 114.03355 87.85504 112.47717 87.85504 110.92078 87.85504 109.65909 86.59335 109.65909 85.03696 109.65909 83.48056 110.92078 82.21887 112.47717 82.21887 114.03355 82.21887 115.29524 83.48056 115.29524 85.03696ZM112.47717 85.03696"/>
<g>
<path transform="matrix(1.00006,0,0,-1.00009,15.665619,141.37564)" d="M130.05171 93.54065V0H123.0219V93.54065ZM123.0219 0" fill="#0000ff" fill-opacity=".3"/>
<path transform="matrix(1.00006,0,0,-1.00009,15.665619,141.37564)" stroke-width=".3985" stroke-linecap="butt" stroke-miterlimit="10" stroke-linejoin="miter" fill="none" stroke="#000000" stroke-opacity=".3" d="M130.05171 93.54065V0H123.0219V93.54065ZM123.0219 0"/>
</g>
<path transform="matrix(1.00006,0,0,-1.00009,15.665619,141.37564)" stroke-width=".79701" stroke-linecap="butt" stroke-miterlimit="10" stroke-linejoin="miter" fill="none" stroke="#000000" d="M130.05171 93.54065V0H123.0219V93.54065ZM123.0219 0"/>
<path transform="matrix(1.00006,0,0,-1.00009,15.665619,141.37564)" d="M129.35489 93.54065C129.35489 95.09705 128.0932 96.35873 126.5368 96.35873 124.98041 96.35873 123.71872 95.09705 123.71872 93.54065 123.71872 91.98425 124.98041 90.72256 126.5368 90.72256 128.0932 90.72256 129.35489 91.98425 129.35489 93.54065ZM126.5368 93.54065" fill="#0000ff"/>
<path transform="matrix(1.00006,0,0,-1.00009,15.665619,141.37564)" stroke-width=".3985" stroke-linecap="butt" stroke-miterlimit="10" stroke-linejoin="miter" fill="none" stroke="#000000" d="M129.35489 93.54065C129.35489 95.09705 128.0932 96.35873 126.5368 96.35873 124.98041 96.35873 123.71872 95.09705 123.71872 93.54065 123.71872 91.98425 124.98041 90.72256 126.5368 90.72256 128.0932 90.72256 129.35489 91.98425 129.35489 93.54065ZM126.5368 93.54065"/>
<g>
<path transform="matrix(1.00006,0,0,-1.00009,15.665619,141.37564)" d="M144.11138 110.54805V0H137.08156V110.54805ZM137.08156 0" fill="#0000ff" fill-opacity=".3"/>
<path transform="matrix(1.00006,0,0,-1.00009,15.665619,141.37564)" stroke-width=".3985" stroke-linecap="butt" stroke-miterlimit="10" stroke-linejoin="miter" fill="none" stroke="#000000" stroke-opacity=".3" d="M144.11138 110.54805V0H137.08156V110.54805ZM137.08156 0"/>
</g>
<path transform="matrix(1.00006,0,0,-1.00009,15.665619,141.37564)" stroke-width=".79701" stroke-linecap="butt" stroke-miterlimit="10" stroke-linejoin="miter" fill="none" stroke="#000000" d="M144.11138 110.54805V0H137.08156V110.54805ZM137.08156 0"/>
<path transform="matrix(1.00006,0,0,-1.00009,15.665619,141.37564)" d="M143.41455 110.54805C143.41455 112.10445 142.15287 113.36613 140.59647 113.36613 139.04007 113.36613 137.77838 112.10445 137.77838 110.54805 137.77838 108.99165 139.04007 107.72997 140.59647 107.72997 142.15287 107.72997 143.41455 108.99165 143.41455 110.54805ZM140.59647 110.54805" fill="#0000ff"/>
<path transform="matrix(1.00006,0,0,-1.00009,15.665619,141.37564)" stroke-width=".3985" stroke-linecap="butt" stroke-miterlimit="10" stroke-linejoin="miter" fill="none" stroke="#000000" d="M143.41455 110.54805C143.41455 112.10445 142.15287 113.36613 140.59647 113.36613 139.04007 113.36613 137.77838 112.10445 137.77838 110.54805 137.77838 108.99165 139.04007 107.72997 140.59647 107.72997 142.15287 107.72997 143.41455 108.99165 143.41455 110.54805ZM140.59647 110.54805"/>
<path transform="matrix(1.00006,0,0,-1.00009,217.22473,116.12937)" stroke-width=".3985" stroke-linecap="butt" stroke-miterlimit="10" stroke-linejoin="miter" fill="none" stroke="#000000" d="M0-21.25923H154.6561"/>
<path transform="matrix(1.00006,0,0,-1.00009,217.22473,116.12937)" stroke-width=".3985" stroke-linecap="butt" stroke-miterlimit="10" stroke-linejoin="miter" fill="none" stroke="#000000" d="M0 0H154.6561"/>
<path transform="matrix(1.00006,0,0,-1.00009,217.22473,116.12937)" stroke-width=".3985" stroke-linecap="butt" stroke-miterlimit="10" stroke-linejoin="miter" fill="none" stroke="#000000" d="M0 21.25923H154.6561"/>
<path transform="matrix(1.00006,0,0,-1.00009,217.22473,116.12937)" stroke-width=".79701" stroke-linecap="butt" stroke-dasharray=".79701,1.99255" stroke-miterlimit="10" stroke-linejoin="miter" fill="none" stroke="#000000" d="M0-17.00737H154.6561"/>
<path transform="matrix(1.00006,0,0,-1.00009,217.22473,116.12937)" stroke-width=".79701" stroke-linecap="butt" stroke-dasharray=".79701,1.99255" stroke-miterlimit="10" stroke-linejoin="miter" fill="none" stroke="#000000" d="M0-12.75554H154.6561"/>
<path transform="matrix(1.00006,0,0,-1.00009,217.22473,116.12937)" stroke-width=".79701" stroke-linecap="butt" stroke-dasharray=".79701,1.99255" stroke-miterlimit="10" stroke-linejoin="miter" fill="none" stroke="#000000" d="M0-8.50368H154.6561"/>
<path transform="matrix(1.00006,0,0,-1.00009,217.22473,116.12937)" stroke-width=".79701" stroke-linecap="butt" stroke-dasharray=".79701,1.99255" stroke-miterlimit="10" stroke-linejoin="miter" fill="none" stroke="#000000" d="M0-4.25183H154.6561"/>
<path transform="matrix(1.00006,0,0,-1.00009,217.22473,116.12937)" stroke-width=".79701" stroke-linecap="butt" stroke-dasharray=".79701,1.99255" stroke-miterlimit="10" stroke-linejoin="miter" fill="none" stroke="#000000" d="M0 0H154.6561"/>
<path transform="matrix(1.00006,0,0,-1.00009,217.22473,116.12937)" stroke-width=".79701" stroke-linecap="butt" stroke-dasharray=".79701,1.99255" stroke-miterlimit="10" stroke-linejoin="miter" fill="none" stroke="#000000" d="M0 4.25183H154.6561"/>
<path transform="matrix(1.00006,0,0,-1.00009,217.22473,116.12937)" stroke-width=".79701" stroke-linecap="butt" stroke-dasharray=".79701,1.99255" stroke-miterlimit="10" stroke-linejoin="miter" fill="none" stroke="#000000" d="M0 8.50368H154.6561"/>
<path transform="matrix(1.00006,0,0,-1.00009,217.22473,116.12937)" stroke-width=".79701" stroke-linecap="butt" stroke-dasharray=".79701,1.99255" stroke-miterlimit="10" stroke-linejoin="miter" fill="none" stroke="#000000" d="M0 12.75554H154.6561"/>
<path transform="matrix(1.00006,0,0,-1.00009,217.22473,116.12937)" stroke-width=".79701" stroke-linecap="butt" stroke-dasharray=".79701,1.99255" stroke-miterlimit="10" stroke-linejoin="miter" fill="none" stroke="#000000" d="M0 17.00737H154.6561"/>
<path transform="matrix(1.00006,0,0,-1.00009,217.22473,116.12937)" stroke-width=".79701" stroke-linecap="butt" stroke-dasharray=".79701,1.99255" stroke-miterlimit="10" stroke-linejoin="miter" fill="none" stroke="#000000" d="M0 21.25923H154.6561"/>
<path transform="matrix(1.00006,0,0,-1.00009,217.22473,116.12937)" stroke-width=".3985" stroke-linecap="butt" stroke-miterlimit="10" stroke-linejoin="miter" fill="none" stroke="#000000" d="M0 0H151.06957"/>
<path transform="matrix(1.00006,0,0,-1.00009,368.30335,116.12937)" d="M3.58653 0C2.52383 .19925 .797 .797-.3985 1.49438V-1.49438C.797-.797 2.52383-.19925 3.58653 0"/>
<path transform="matrix(1.00006,0,0,-1.00009,217.22473,116.12937)" stroke-width=".3985" stroke-linecap="butt" stroke-miterlimit="10" stroke-linejoin="miter" fill="none" stroke="#000000" d="M0-19.79861V19.79861"/>
<path transform="matrix(0,1.00009,1.00006,0,217.22473,135.92977)" d="M3.58653 0C2.52383 .19925 .797 .797-.3985 1.49438V-1.49438C.797-.797 2.52383-.19925 3.58653 0"/>
<path transform="matrix(0,-1.00009,-1.00006,-0,217.22473,96.32898)" d="M3.58653 0C2.52383 .19925 .797 .797-.3985 1.49438V-1.49438C.797-.797 2.52383-.19925 3.58653 0"/>
<use data-text="C" xlink:href="#font_1_42" transform="matrix(9.963197,0,0,-9.963496,220.74495,87.16977)"/>
<use data-text="h" xlink:href="#font_1_63" transform="matrix(9.963197,0,0,-9.963496,227.93837,87.16977)"/>
<use data-text="a" xlink:href="#font_1_28" transform="matrix(9.963197,0,0,-9.963496,233.47792,87.16977)"/>
<use data-text="n" xlink:href="#font_1_77" transform="matrix(9.963197,0,0,-9.963496,238.45949,87.16977)"/>
<use data-text="g" xlink:href="#font_1_59" transform="matrix(9.963197,0,0,-9.963496,243.99904,87.16977)"/>
<use data-text="e" xlink:href="#font_1_50" transform="matrix(9.963197,0,0,-9.963496,248.98064,87.16977)"/>
<use data-text="i" xlink:href="#font_1_66" transform="matrix(9.963197,0,0,-9.963496,256.7121,87.16977)"/>
<use data-text="n" xlink:href="#font_1_77" transform="matrix(9.963197,0,0,-9.963496,259.48188,87.16977)"/>
<use data-text="C" xlink:href="#font_1_42" transform="matrix(9.963197,0,0,-9.963496,268.3391,87.16977)"/>
<use data-text="o" xlink:href="#font_1_81" transform="matrix(9.963197,0,0,-9.963496,275.53254,87.16977)"/>
<use data-text="s" xlink:href="#font_1_98" transform="matrix(9.963197,0,0,-9.963496,280.51417,87.16977)"/>
<use data-text="t" xlink:href="#font_1_105" transform="matrix(9.963197,0,0,-9.963496,284.43965,87.16977)"/>
<use data-text="&#x2206;" xlink:href="#font_4_1" transform="matrix(9.963197,0,0,-9.963496,291.6432,87.16977)"/>
<use data-text="C" xlink:href="#font_2_1" transform="matrix(9.963197,0,0,-9.963496,299.94569,87.16977)"/>
<use data-text="1" xlink:href="#font_3_2" transform="matrix(8.966938,0,0,-8.967207,228.98143,152.66767)"/>
<use data-text="2" xlink:href="#font_3_3" transform="matrix(8.966938,0,0,-8.967207,243.04129,152.66767)"/>
<use data-text="3" xlink:href="#font_3_4" transform="matrix(8.966938,0,0,-8.967207,257.1021,152.66767)"/>
<use data-text="4" xlink:href="#font_3_5" transform="matrix(8.966938,0,0,-8.967207,271.16297,152.66767)"/>
<use data-text="5" xlink:href="#font_3_6" transform="matrix(8.966938,0,0,-8.967207,285.2228,152.66767)"/>
<use data-text="6" xlink:href="#font_3_7" transform="matrix(8.966938,0,0,-8.967207,299.28367,152.66767)"/>
<use data-text="7" xlink:href="#font_3_8" transform="matrix(8.966938,0,0,-8.967207,313.34449,152.66767)"/>
<use data-text="8" xlink:href="#font_3_9" transform="matrix(8.966938,0,0,-8.967207,327.40434,152.66767)"/>
<use data-text="9" xlink:href="#font_3_10" transform="matrix(8.966938,0,0,-8.967207,341.46519,152.66767)"/>
<use data-text="1" xlink:href="#font_3_2" transform="matrix(8.966938,0,0,-8.967207,353.22187,152.66767)"/>
<use data-text="0" xlink:href="#font_3_1" transform="matrix(8.966938,0,0,-8.967207,357.8219,152.66767)"/>
<use data-text="&#x2212;" xlink:href="#font_5_1" transform="matrix(8.966938,0,0,-8.967207,199.9357,139.8645)"/>
<use data-text="5" xlink:href="#font_3_6" transform="matrix(8.966938,0,0,-8.967207,207.10312,139.8645)"/>
<use data-text="0" xlink:href="#font_3_1" transform="matrix(8.966938,0,0,-8.967207,207.10413,119.01863)"/>
<use data-text="5" xlink:href="#font_3_6" transform="matrix(8.966938,0,0,-8.967207,207.10413,97.75772)"/>
<path transform="matrix(1.00006,0,0,-1.00009,217.22473,116.12937)" stroke-width=".09962" stroke-linecap="butt" stroke-miterlimit="10" stroke-linejoin="miter" fill="none" stroke="#000000" d="M14.05963-22.32219V22.32219"/>
<path transform="matrix(1.00006,0,0,-1.00009,217.22473,116.12937)" stroke-width=".09962" stroke-linecap="butt" stroke-miterlimit="10" stroke-linejoin="miter" fill="none" stroke="#000000" d="M28.11928-22.32219V22.32219"/>
<path transform="matrix(1.00006,0,0,-1.00009,217.22473,116.12937)" stroke-width=".09962" stroke-linecap="butt" stroke-miterlimit="10" stroke-linejoin="miter" fill="none" stroke="#000000" d="M42.17892-22.32219V22.32219"/>
<path transform="matrix(1.00006,0,0,-1.00009,217.22473,116.12937)" stroke-width=".09962" stroke-linecap="butt" stroke-miterlimit="10" stroke-linejoin="miter" fill="none" stroke="#000000" d="M56.23857-22.32219V22.32219"/>
<path transform="matrix(1.00006,0,0,-1.00009,217.22473,116.12937)" stroke-width=".09962" stroke-linecap="butt" stroke-miterlimit="10" stroke-linejoin="miter" fill="none" stroke="#000000" d="M70.29823-22.32219V22.32219"/>
<path transform="matrix(1.00006,0,0,-1.00009,217.22473,116.12937)" stroke-width=".09962" stroke-linecap="butt" stroke-miterlimit="10" stroke-linejoin="miter" fill="none" stroke="#000000" d="M84.35786-22.32219V22.32219"/>
<path transform="matrix(1.00006,0,0,-1.00009,217.22473,116.12937)" stroke-width=".09962" stroke-linecap="butt" stroke-miterlimit="10" stroke-linejoin="miter" fill="none" stroke="#000000" d="M98.41751-22.32219V22.32219"/>
<path transform="matrix(1.00006,0,0,-1.00009,217.22473,116.12937)" stroke-width=".09962" stroke-linecap="butt" stroke-miterlimit="10" stroke-linejoin="miter" fill="none" stroke="#000000" d="M112.47717-22.32219V22.32219"/>
<path transform="matrix(1.00006,0,0,-1.00009,217.22473,116.12937)" stroke-width=".09962" stroke-linecap="butt" stroke-miterlimit="10" stroke-linejoin="miter" fill="none" stroke="#000000" d="M126.5368-22.32219V22.32219"/>
<path transform="matrix(1.00006,0,0,-1.00009,217.22473,116.12937)" stroke-width=".09962" stroke-linecap="butt" stroke-miterlimit="10" stroke-linejoin="miter" fill="none" stroke="#000000" d="M140.59647-22.32219V22.32219"/>
<g>
<path transform="matrix(1.00006,0,0,-1.00009,217.22473,116.12937)" d="M17.57454 17.00737V0H10.54472V17.00737ZM10.54472 0" fill="#0000ff" fill-opacity=".3"/>
<path transform="matrix(1.00006,0,0,-1.00009,217.22473,116.12937)" stroke-width=".3985" stroke-linecap="butt" stroke-miterlimit="10" stroke-linejoin="miter" fill="none" stroke="#000000" stroke-opacity=".3" d="M17.57454 17.00737V0H10.54472V17.00737ZM10.54472 0"/>
</g>
<path transform="matrix(1.00006,0,0,-1.00009,217.22473,116.12937)" stroke-width=".79701" stroke-linecap="butt" stroke-miterlimit="10" stroke-linejoin="miter" fill="none" stroke="#000000" d="M17.57454 17.00737V0H10.54472V17.00737ZM10.54472 0"/>
<path transform="matrix(1.00006,0,0,-1.00009,217.22473,116.12937)" d="M16.87772 17.00737C16.87772 18.56377 15.61603 19.82545 14.05963 19.82545 12.50323 19.82545 11.24155 18.56377 11.24155 17.00737 11.24155 15.45097 12.50323 14.18929 14.05963 14.18929 15.61603 14.18929 16.87772 15.45097 16.87772 17.00737ZM14.05963 17.00737" fill="#0000ff"/>
<path transform="matrix(1.00006,0,0,-1.00009,217.22473,116.12937)" stroke-width=".3985" stroke-linecap="butt" stroke-miterlimit="10" stroke-linejoin="miter" fill="none" stroke="#000000" d="M16.87772 17.00737C16.87772 18.56377 15.61603 19.82545 14.05963 19.82545 12.50323 19.82545 11.24155 18.56377 11.24155 17.00737 11.24155 15.45097 12.50323 14.18929 14.05963 14.18929 15.61603 14.18929 16.87772 15.45097 16.87772 17.00737ZM14.05963 17.00737"/>
<g>
<path transform="matrix(1.00006,0,0,-1.00009,217.22473,116.12937)" d="M31.63419 12.75554V0H24.60437V12.75554ZM24.60437 0" fill="#0000ff" fill-opacity=".3"/>
<path transform="matrix(1.00006,0,0,-1.00009,217.22473,116.12937)" stroke-width=".3985" stroke-linecap="butt" stroke-miterlimit="10" stroke-linejoin="miter" fill="none" stroke="#000000" stroke-opacity=".3" d="M31.63419 12.75554V0H24.60437V12.75554ZM24.60437 0"/>
</g>
<path transform="matrix(1.00006,0,0,-1.00009,217.22473,116.12937)" stroke-width=".79701" stroke-linecap="butt" stroke-miterlimit="10" stroke-linejoin="miter" fill="none" stroke="#000000" d="M31.63419 12.75554V0H24.60437V12.75554ZM24.60437 0"/>
<path transform="matrix(1.00006,0,0,-1.00009,217.22473,116.12937)" d="M30.93736 12.75554C30.93736 14.31192 29.67567 15.57361 28.11928 15.57361 26.56288 15.57361 25.3012 14.31192 25.3012 12.75554 25.3012 11.19914 26.56288 9.93745 28.11928 9.93745 29.67567 9.93745 30.93736 11.19914 30.93736 12.75554ZM28.11928 12.75554" fill="#0000ff"/>
<path transform="matrix(1.00006,0,0,-1.00009,217.22473,116.12937)" stroke-width=".3985" stroke-linecap="butt" stroke-miterlimit="10" stroke-linejoin="miter" fill="none" stroke="#000000" d="M30.93736 12.75554C30.93736 14.31192 29.67567 15.57361 28.11928 15.57361 26.56288 15.57361 25.3012 14.31192 25.3012 12.75554 25.3012 11.19914 26.56288 9.93745 28.11928 9.93745 29.67567 9.93745 30.93736 11.19914 30.93736 12.75554ZM28.11928 12.75554"/>
<g>
<path transform="matrix(1.00006,0,0,-1.00009,217.22473,116.12937)" d="M45.69385 8.50368V0H38.66402V8.50368ZM38.66402 0" fill="#0000ff" fill-opacity=".3"/>
<path transform="matrix(1.00006,0,0,-1.00009,217.22473,116.12937)" stroke-width=".3985" stroke-linecap="butt" stroke-miterlimit="10" stroke-linejoin="miter" fill="none" stroke="#000000" stroke-opacity=".3" d="M45.69385 8.50368V0H38.66402V8.50368ZM38.66402 0"/>
</g>
<path transform="matrix(1.00006,0,0,-1.00009,217.22473,116.12937)" stroke-width=".79701" stroke-linecap="butt" stroke-miterlimit="10" stroke-linejoin="miter" fill="none" stroke="#000000" d="M45.69385 8.50368V0H38.66402V8.50368ZM38.66402 0"/>
<path transform="matrix(1.00006,0,0,-1.00009,217.22473,116.12937)" d="M44.99701 8.50368C44.99701 10.06007 43.73532 11.32176 42.17892 11.32176 40.62254 11.32176 39.36086 10.06007 39.36086 8.50368 39.36086 6.94728 40.62254 5.6856 42.17892 5.6856 43.73532 5.6856 44.99701 6.94728 44.99701 8.50368ZM42.17892 8.50368" fill="#0000ff"/>
<path transform="matrix(1.00006,0,0,-1.00009,217.22473,116.12937)" stroke-width=".3985" stroke-linecap="butt" stroke-miterlimit="10" stroke-linejoin="miter" fill="none" stroke="#000000" d="M44.99701 8.50368C44.99701 10.06007 43.73532 11.32176 42.17892 11.32176 40.62254 11.32176 39.36086 10.06007 39.36086 8.50368 39.36086 6.94728 40.62254 5.6856 42.17892 5.6856 43.73532 5.6856 44.99701 6.94728 44.99701 8.50368ZM42.17892 8.50368"/>
<g>
<path transform="matrix(1.00006,0,0,-1.00009,217.22473,116.12937)" d="M59.75348 4.25183V0H52.72366V4.25183ZM52.72366 0" fill="#0000ff" fill-opacity=".3"/>
<path transform="matrix(1.00006,0,0,-1.00009,217.22473,116.12937)" stroke-width=".3985" stroke-linecap="butt" stroke-miterlimit="10" stroke-linejoin="miter" fill="none" stroke="#000000" stroke-opacity=".3" d="M59.75348 4.25183V0H52.72366V4.25183ZM52.72366 0"/>
</g>
<path transform="matrix(1.00006,0,0,-1.00009,217.22473,116.12937)" stroke-width=".79701" stroke-linecap="butt" stroke-miterlimit="10" stroke-linejoin="miter" fill="none" stroke="#000000" d="M59.75348 4.25183V0H52.72366V4.25183ZM52.72366 0"/>
<path transform="matrix(1.00006,0,0,-1.00009,217.22473,116.12937)" d="M59.05666 4.25183C59.05666 5.80823 57.79497 7.06992 56.23857 7.06992 54.68217 7.06992 53.42049 5.80823 53.42049 4.25183 53.42049 2.69543 54.68217 1.43375 56.23857 1.43375 57.79497 1.43375 59.05666 2.69543 59.05666 4.25183ZM56.23857 4.25183" fill="#0000ff"/>
<path transform="matrix(1.00006,0,0,-1.00009,217.22473,116.12937)" stroke-width=".3985" stroke-linecap="butt" stroke-miterlimit="10" stroke-linejoin="miter" fill="none" stroke="#000000" d="M59.05666 4.25183C59.05666 5.80823 57.79497 7.06992 56.23857 7.06992 54.68217 7.06992 53.42049 5.80823 53.42049 4.25183 53.42049 2.69543 54.68217 1.43375 56.23857 1.43375 57.79497 1.43375 59.05666 2.69543 59.05666 4.25183ZM56.23857 4.25183"/>
<g>
<path transform="matrix(1.00006,0,0,-1.00009,217.22473,116.12937)" d="M73.81313 4.25183V0H66.7833V4.25183ZM66.7833 0" fill="#0000ff" fill-opacity=".3"/>
<path transform="matrix(1.00006,0,0,-1.00009,217.22473,116.12937)" stroke-width=".3985" stroke-linecap="butt" stroke-miterlimit="10" stroke-linejoin="miter" fill="none" stroke="#000000" stroke-opacity=".3" d="M73.81313 4.25183V0H66.7833V4.25183ZM66.7833 0"/>
</g>
<path transform="matrix(1.00006,0,0,-1.00009,217.22473,116.12937)" stroke-width=".79701" stroke-linecap="butt" stroke-miterlimit="10" stroke-linejoin="miter" fill="none" stroke="#000000" d="M73.81313 4.25183V0H66.7833V4.25183ZM66.7833 0"/>
<path transform="matrix(1.00006,0,0,-1.00009,217.22473,116.12937)" d="M73.1163 4.25183C73.1163 5.80823 71.85461 7.06992 70.29823 7.06992 68.74184 7.06992 67.48015 5.80823 67.48015 4.25183 67.48015 2.69543 68.74184 1.43375 70.29823 1.43375 71.85461 1.43375 73.1163 2.69543 73.1163 4.25183ZM70.29823 4.25183" fill="#0000ff"/>
<path transform="matrix(1.00006,0,0,-1.00009,217.22473,116.12937)" stroke-width=".3985" stroke-linecap="butt" stroke-miterlimit="10" stroke-linejoin="miter" fill="none" stroke="#000000" d="M73.1163 4.25183C73.1163 5.80823 71.85461 7.06992 70.29823 7.06992 68.74184 7.06992 67.48015 5.80823 67.48015 4.25183 67.48015 2.69543 68.74184 1.43375 70.29823 1.43375 71.85461 1.43375 73.1163 2.69543 73.1163 4.25183ZM70.29823 4.25183"/>
<g>
<path transform="matrix(1.00006,0,0,-1.00009,217.22473,116.12937)" d="M87.87277 4.25183V0H80.84296V4.25183ZM80.84296 0" fill="#0000ff" fill-opacity=".3"/>
<path transform="matrix(1.00006,0,0,-1.00009,217.22473,116.12937)" stroke-width=".3985" stroke-linecap="butt" stroke-miterlimit="10" stroke-linejoin="miter" fill="none" stroke="#000000" stroke-opacity=".3" d="M87.87277 4.25183V0H80.84296V4.25183ZM80.84296 0"/>
</g>
<path transform="matrix(1.00006,0,0,-1.00009,217.22473,116.12937)" stroke-width=".79701" stroke-linecap="butt" stroke-miterlimit="10" stroke-linejoin="miter" fill="none" stroke="#000000" d="M87.87277 4.25183V0H80.84296V4.25183ZM80.84296 0"/>
<path transform="matrix(1.00006,0,0,-1.00009,217.22473,116.12937)" d="M87.17595 4.25183C87.17595 5.80823 85.91426 7.06992 84.35786 7.06992 82.80147 7.06992 81.53978 5.80823 81.53978 4.25183 81.53978 2.69543 82.80147 1.43375 84.35786 1.43375 85.91426 1.43375 87.17595 2.69543 87.17595 4.25183ZM84.35786 4.25183" fill="#0000ff"/>
<path transform="matrix(1.00006,0,0,-1.00009,217.22473,116.12937)" stroke-width=".3985" stroke-linecap="butt" stroke-miterlimit="10" stroke-linejoin="miter" fill="none" stroke="#000000" d="M87.17595 4.25183C87.17595 5.80823 85.91426 7.06992 84.35786 7.06992 82.80147 7.06992 81.53978 5.80823 81.53978 4.25183 81.53978 2.69543 82.80147 1.43375 84.35786 1.43375 85.91426 1.43375 87.17595 2.69543 87.17595 4.25183ZM84.35786 4.25183"/>
<g>
<path transform="matrix(1.00006,0,0,-1.00009,217.22473,116.12937)" d="M101.93242 4.25183V0H94.9026V4.25183ZM94.9026 0" fill="#0000ff" fill-opacity=".3"/>
<path transform="matrix(1.00006,0,0,-1.00009,217.22473,116.12937)" stroke-width=".3985" stroke-linecap="butt" stroke-miterlimit="10" stroke-linejoin="miter" fill="none" stroke="#000000" stroke-opacity=".3" d="M101.93242 4.25183V0H94.9026V4.25183ZM94.9026 0"/>
</g>
<path transform="matrix(1.00006,0,0,-1.00009,217.22473,116.12937)" stroke-width=".79701" stroke-linecap="butt" stroke-miterlimit="10" stroke-linejoin="miter" fill="none" stroke="#000000" d="M101.93242 4.25183V0H94.9026V4.25183ZM94.9026 0"/>
<path transform="matrix(1.00006,0,0,-1.00009,217.22473,116.12937)" d="M101.2356 4.25183C101.2356 5.80823 99.9739 7.06992 98.41751 7.06992 96.86111 7.06992 95.59943 5.80823 95.59943 4.25183 95.59943 2.69543 96.86111 1.43375 98.41751 1.43375 99.9739 1.43375 101.2356 2.69543 101.2356 4.25183ZM98.41751 4.25183" fill="#0000ff"/>
<path transform="matrix(1.00006,0,0,-1.00009,217.22473,116.12937)" stroke-width=".3985" stroke-linecap="butt" stroke-miterlimit="10" stroke-linejoin="miter" fill="none" stroke="#000000" d="M101.2356 4.25183C101.2356 5.80823 99.9739 7.06992 98.41751 7.06992 96.86111 7.06992 95.59943 5.80823 95.59943 4.25183 95.59943 2.69543 96.86111 1.43375 98.41751 1.43375 99.9739 1.43375 101.2356 2.69543 101.2356 4.25183ZM98.41751 4.25183"/>
<g>
<path transform="matrix(1.00006,0,0,-1.00009,217.22473,116.12937)" d="M115.99208 8.50368V0H108.96225V8.50368ZM108.96225 0" fill="#0000ff" fill-opacity=".3"/>
<path transform="matrix(1.00006,0,0,-1.00009,217.22473,116.12937)" stroke-width=".3985" stroke-linecap="butt" stroke-miterlimit="10" stroke-linejoin="miter" fill="none" stroke="#000000" stroke-opacity=".3" d="M115.99208 8.50368V0H108.96225V8.50368ZM108.96225 0"/>
</g>
<path transform="matrix(1.00006,0,0,-1.00009,217.22473,116.12937)" stroke-width=".79701" stroke-linecap="butt" stroke-miterlimit="10" stroke-linejoin="miter" fill="none" stroke="#000000" d="M115.99208 8.50368V0H108.96225V8.50368ZM108.96225 0"/>
<path transform="matrix(1.00006,0,0,-1.00009,217.22473,116.12937)" d="M115.29524 8.50368C115.29524 10.06007 114.03355 11.32176 112.47717 11.32176 110.92078 11.32176 109.65909 10.06007 109.65909 8.50368 109.65909 6.94728 110.92078 5.6856 112.47717 5.6856 114.03355 5.6856 115.29524 6.94728 115.29524 8.50368ZM112.47717 8.50368" fill="#0000ff"/>
<path transform="matrix(1.00006,0,0,-1.00009,217.22473,116.12937)" stroke-width=".3985" stroke-linecap="butt" stroke-miterlimit="10" stroke-linejoin="miter" fill="none" stroke="#000000" d="M115.29524 8.50368C115.29524 10.06007 114.03355 11.32176 112.47717 11.32176 110.92078 11.32176 109.65909 10.06007 109.65909 8.50368 109.65909 6.94728 110.92078 5.6856 112.47717 5.6856 114.03355 5.6856 115.29524 6.94728 115.29524 8.50368ZM112.47717 8.50368"/>
<g>
<path transform="matrix(1.00006,0,0,-1.00009,217.22473,116.12937)" d="M130.05171 8.50368V0H123.0219V8.50368ZM123.0219 0" fill="#0000ff" fill-opacity=".3"/>
<path transform="matrix(1.00006,0,0,-1.00009,217.22473,116.12937)" stroke-width=".3985" stroke-linecap="butt" stroke-miterlimit="10" stroke-linejoin="miter" fill="none" stroke="#000000" stroke-opacity=".3" d="M130.05171 8.50368V0H123.0219V8.50368ZM123.0219 0"/>
</g>
<path transform="matrix(1.00006,0,0,-1.00009,217.22473,116.12937)" stroke-width=".79701" stroke-linecap="butt" stroke-miterlimit="10" stroke-linejoin="miter" fill="none" stroke="#000000" d="M130.05171 8.50368V0H123.0219V8.50368ZM123.0219 0"/>
<path transform="matrix(1.00006,0,0,-1.00009,217.22473,116.12937)" d="M129.35489 8.50368C129.35489 10.06007 128.0932 11.32176 126.5368 11.32176 124.98041 11.32176 123.71872 10.06007 123.71872 8.50368 123.71872 6.94728 124.98041 5.6856 126.5368 5.6856 128.0932 5.6856 129.35489 6.94728 129.35489 8.50368ZM126.5368 8.50368" fill="#0000ff"/>
<path transform="matrix(1.00006,0,0,-1.00009,217.22473,116.12937)" stroke-width=".3985" stroke-linecap="butt" stroke-miterlimit="10" stroke-linejoin="miter" fill="none" stroke="#000000" d="M129.35489 8.50368C129.35489 10.06007 128.0932 11.32176 126.5368 11.32176 124.98041 11.32176 123.71872 10.06007 123.71872 8.50368 123.71872 6.94728 124.98041 5.6856 126.5368 5.6856 128.0932 5.6856 129.35489 6.94728 129.35489 8.50368ZM126.5368 8.50368"/>
<g>
<path transform="matrix(1.00006,0,0,-1.00009,217.22473,116.12937)" d="M144.11138 17.00737V0H137.08156V17.00737ZM137.08156 0" fill="#0000ff" fill-opacity=".3"/>
<path transform="matrix(1.00006,0,0,-1.00009,217.22473,116.12937)" stroke-width=".3985" stroke-linecap="butt" stroke-miterlimit="10" stroke-linejoin="miter" fill="none" stroke="#000000" stroke-opacity=".3" d="M144.11138 17.00737V0H137.08156V17.00737ZM137.08156 0"/>
</g>
<path transform="matrix(1.00006,0,0,-1.00009,217.22473,116.12937)" stroke-width=".79701" stroke-linecap="butt" stroke-miterlimit="10" stroke-linejoin="miter" fill="none" stroke="#000000" d="M144.11138 17.00737V0H137.08156V17.00737ZM137.08156 0"/>
<path transform="matrix(1.00006,0,0,-1.00009,217.22473,116.12937)" d="M143.41455 17.00737C143.41455 18.56377 142.15287 19.82545 140.59647 19.82545 139.04007 19.82545 137.77838 18.56377 137.77838 17.00737 137.77838 15.45097 139.04007 14.18929 140.59647 14.18929 142.15287 14.18929 143.41455 15.45097 143.41455 17.00737ZM140.59647 17.00737" fill="#0000ff"/>
<path transform="matrix(1.00006,0,0,-1.00009,217.22473,116.12937)" stroke-width=".3985" stroke-linecap="butt" stroke-miterlimit="10" stroke-linejoin="miter" fill="none" stroke="#000000" d="M143.41455 17.00737C143.41455 18.56377 142.15287 19.82545 140.59647 19.82545 139.04007 19.82545 137.77838 18.56377 137.77838 17.00737 137.77838 15.45097 139.04007 14.18929 140.59647 14.18929 142.15287 14.18929 143.41455 15.45097 143.41455 17.00737ZM140.59647 17.00737"/>
</svg>
