<svg xmlns="http://www.w3.org/2000/svg" xmlns:xlink="http://www.w3.org/1999/xlink" xmlns:inkscape="http://www.inkscape.org/namespaces/inkscape" version="1.1" width="144" height="145" viewBox="0 0 144 145">
<path transform="matrix(1.00006,0,0,-1.00005,50.70495,122.27731)" stroke-width=".3985" stroke-linecap="butt" stroke-miterlimit="10" stroke-linejoin="miter" fill="none" stroke="#000000" d="M0-17.67355V116.88737"/>
<path transform="matrix(0,1.00005,1.00006,0,50.70495,139.95175)" d="M3.58653 0C2.52383 .19925 .797 .797-.3985 1.49438V-1.49438C.797-.797 2.52383-.19925 3.58653 0"/>
<path transform="matrix(0,-1.00005,-1.00006,-0,50.70495,5.3841097)" d="M3.58653 0C2.52383 .19925 .797 .797-.3985 1.49438V-1.49438C.797-.797 2.52383-.19925 3.58653 0"/>
<path transform="matrix(1.00006,0,0,-1.00005,50.70495,122.27731)" stroke-width=".3985" stroke-linecap="butt" stroke-miterlimit="10" stroke-linejoin="miter" fill="none" stroke="#000000" d="M-46.02037 0H88.54057"/>
<path transform="matrix(-1.00006,-0,0,1.00005,4.68182,122.27731)" d="M3.58653 0C2.52383 .19925 .797 .797-.3985 1.49438V-1.49438C.797-.797 2.52383-.19925 3.58653 0"/>
<path transform="matrix(1.00006,0,0,-1.00005,139.25083,122.27731)" d="M3.58653 0C2.52383 .19925 .797 .797-.3985 1.49438V-1.49438C.797-.797 2.52383-.19925 3.58653 0"/>
<path transform="matrix(1.00006,0,0,-1.00005,50.70495,122.27731)" stroke-width=".79701" stroke-linecap="butt" stroke-miterlimit="10" stroke-linejoin="miter" fill="none" stroke="#0000ff" d="M-14.17339 88.58809C-14.17339 88.58809-11.82675 85.3641-10.92546 84.16864-10.02417 82.97316-8.57881 81.10739-7.67754 79.97192-6.77625 78.83649-5.3309 77.06377-4.42961 75.98502-3.52832 74.90627-2.08296 73.21954-1.18167 72.19707-.2804 71.17458 1.16493 69.58757 2.06621 68.61565 2.9675 67.64372 4.41286 66.11858 5.31415 65.19211 6.21542 64.26566 7.66078 62.8177 8.56209 61.93834 9.46336 61.05899 10.90872 59.68944 11.81 58.85434 12.71129 58.01926 14.15663 56.71416 15.05794 55.91957 15.95921 55.125 17.40457 53.88176 18.30586 53.12755 19.20714 52.37332 20.6525 51.19962 21.55379 50.48364 22.45508 49.7677 23.90042 48.64897 24.80171 47.96738 25.703 47.28577 27.14836 46.21835 28.04964 45.5711 28.95093 44.92386 30.39629 43.91713 31.29756 43.30244 32.19887 42.68776 33.64421 41.72508 34.5455 41.14084 35.44678 40.55661 36.89214 39.64636 37.79341 39.09167 38.69472 38.537 40.14008 37.67122 41.04135 37.14311 41.94264 36.61499 43.38799 35.78691 44.28929 35.28535 45.19057 34.7838 46.63593 34.00421 47.5372 33.52817 48.43849 33.05211 49.88385 32.30675 50.78514 31.85425 51.68643 31.40175 53.13177 30.69653 54.03307 30.26683 54.93434 29.83714 56.3797 29.16537 57.28099 28.75728 58.18228 28.34918 59.62762 27.7131 60.52892 27.32558 61.4302 26.93803 63.77686 25.96417 63.77686 25.96417"/>
<path transform="matrix(1.00006,0,0,-1.00005,50.70495,122.27731)" d="M1.49442 70.867C1.49442 71.69235 .82533 72.36142 0 72.36142-.82533 72.36142-1.49442 71.69235-1.49442 70.867-1.49442 70.04166-.82533 69.37259 0 69.37259 .82533 69.37259 1.49442 70.04166 1.49442 70.867ZM0 70.867" fill="#ff0000"/>
<path transform="matrix(1.00006,0,0,-1.00005,50.70495,122.27731)" stroke-width=".3985" stroke-linecap="butt" stroke-miterlimit="10" stroke-linejoin="miter" fill="none" stroke="#ff0000" d="M1.49442 70.867C1.49442 71.69235 .82533 72.36142 0 72.36142-.82533 72.36142-1.49442 71.69235-1.49442 70.867-1.49442 70.04166-.82533 69.37259 0 69.37259 .82533 69.37259 1.49442 70.04166 1.49442 70.867ZM0 70.867"/>
<path transform="matrix(1.00006,0,0,-1.00005,50.70495,122.27731)" d="M15.6678 56.69383C15.6678 57.51917 14.99873 58.18825 14.17339 58.18825 13.34804 58.18825 12.67897 57.51917 12.67897 56.69383 12.67897 55.86848 13.34804 55.19942 14.17339 55.19942 14.99873 55.19942 15.6678 55.86848 15.6678 56.69383ZM14.17339 56.69383" fill="#ff0000"/>
<path transform="matrix(1.00006,0,0,-1.00005,50.70495,122.27731)" stroke-width=".3985" stroke-linecap="butt" stroke-miterlimit="10" stroke-linejoin="miter" fill="none" stroke="#ff0000" d="M15.6678 56.69383C15.6678 57.51917 14.99873 58.18825 14.17339 58.18825 13.34804 58.18825 12.67897 57.51917 12.67897 56.69383 12.67897 55.86848 13.34804 55.19942 14.17339 55.19942 14.99873 55.19942 15.6678 55.86848 15.6678 56.69383ZM14.17339 56.69383"/>
<path transform="matrix(1.00006,0,0,-1.00005,50.70495,122.27731)" d="M29.84122 45.35484C29.84122 46.18018 29.17215 46.84926 28.3468 46.84926 27.52145 46.84926 26.85239 46.18018 26.85239 45.35484 26.85239 44.5295 27.52145 43.86043 28.3468 43.86043 29.17215 43.86043 29.84122 44.5295 29.84122 45.35484ZM28.3468 45.35484" fill="#ff0000"/>
<path transform="matrix(1.00006,0,0,-1.00005,50.70495,122.27731)" stroke-width=".3985" stroke-linecap="butt" stroke-miterlimit="10" stroke-linejoin="miter" fill="none" stroke="#ff0000" d="M29.84122 45.35484C29.84122 46.18018 29.17215 46.84926 28.3468 46.84926 27.52145 46.84926 26.85239 46.18018 26.85239 45.35484 26.85239 44.5295 27.52145 43.86043 28.3468 43.86043 29.17215 43.86043 29.84122 44.5295 29.84122 45.35484ZM28.3468 45.35484"/>
<path transform="matrix(1.00006,0,0,-1.00005,50.70495,122.27731)" d="M44.01462 36.28343C44.01462 37.10878 43.34555 37.77785 42.5202 37.77785 41.69485 37.77785 41.02579 37.10878 41.02579 36.28343 41.02579 35.45808 41.69485 34.78902 42.5202 34.78902 43.34555 34.78902 44.01462 35.45808 44.01462 36.28343ZM42.5202 36.28343" fill="#ff0000"/>
<path transform="matrix(1.00006,0,0,-1.00005,50.70495,122.27731)" stroke-width=".3985" stroke-linecap="butt" stroke-miterlimit="10" stroke-linejoin="miter" fill="none" stroke="#ff0000" d="M44.01462 36.28343C44.01462 37.10878 43.34555 37.77785 42.5202 37.77785 41.69485 37.77785 41.02579 37.10878 41.02579 36.28343 41.02579 35.45808 41.69485 34.78902 42.5202 34.78902 43.34555 34.78902 44.01462 35.45808 44.01462 36.28343ZM42.5202 36.28343"/>
<path transform="matrix(1.00006,0,0,-1.00005,50.70495,122.27731)" d="M58.18803 29.02654C58.18803 29.85187 57.51895 30.52095 56.69362 30.52095 55.86827 30.52095 55.1992 29.85187 55.1992 29.02654 55.1992 28.20119 55.86827 27.53212 56.69362 27.53212 57.51895 27.53212 58.18803 28.20119 58.18803 29.02654ZM56.69362 29.02654" fill="#ff0000"/>
<path transform="matrix(1.00006,0,0,-1.00005,50.70495,122.27731)" stroke-width=".3985" stroke-linecap="butt" stroke-miterlimit="10" stroke-linejoin="miter" fill="none" stroke="#ff0000" d="M58.18803 29.02654C58.18803 29.85187 57.51895 30.52095 56.69362 30.52095 55.86827 30.52095 55.1992 29.85187 55.1992 29.02654 55.1992 28.20119 55.86827 27.53212 56.69362 27.53212 57.51895 27.53212 58.18803 28.20119 58.18803 29.02654ZM56.69362 29.02654"/>
</svg>
