<svg xmlns="http://www.w3.org/2000/svg" xmlns:xlink="http://www.w3.org/1999/xlink" xmlns:inkscape="http://www.inkscape.org/namespaces/inkscape" version="1.1" width="461" height="150" viewBox="0 0 461 150">
<defs>
<path id="font_1_27" d="M.71699526 0V.0309906H.69898989C.6389923 .0309906 .625 .037979127 .6139984 .07095337L.397995 .6958008C.3929901 .7088165 .3909912 .7158203 .375 .7158203 .35899354 .7158203 .35598756 .70980837 .35099793 .6958008L.14399719 .09791565C.12599182 .04698181 .085998538 .03199768 .03199768 .0309906V0L.13398743 .0029907227 .24899292 0V.0309906C.19898987 .0309906 .17399597 .05596924 .17399597 .0819397 .17399597 .08493042 .1749878 .09492493 .17599488 .09692383L.22200012 .2277832H.46899415L.5219879 .07495117C.522995 .07095337 .5249939 .064956668 .5249939 .060958864 .5249939 .0309906 .46899415 .0309906 .44198609 .0309906V0C.47799684 .0029907227 .5479889 .0029907227 .58599856 .0029907227L.71699526 0M.45799256 .25878907H.23298645L.34498597 .58380129 .45799256 .25878907Z"/>
<path id="font_1_55" d="M.35699464 .63479617C.35699464 .6717987 .31999208 .7050781 .2669983 .7050781 .19699097 .7050781 .11199951 .65179446 .11199951 .5457611V.43066407H.032989503V.3996582H.11199951V.07595825C.11199951 .0309906 .100997928 .0309906 .033996583 .0309906V0L.147995 .0029907227C.18798828 .0029907227 .23498535 .0029907227 .2749939 0V.0309906H.2539978C.17999268 .0309906 .17799378 .04197693 .17799378 .07795715V.3996582H.2919922V.43066407H.1749878V.5467529C.1749878 .63479617 .22299195 .68307498 .2669983 .68307498 .269989 .68307498 .2849884 .68307498 .2999878 .675827 .28799439 .6717987 .269989 .6587982 .269989 .6338043 .269989 .61079409 .28599549 .5907898 .31298829 .5907898 .34199525 .5907898 .35699464 .61079409 .35699464 .63479617Z"/>
<path id="font_1_50" d="M.4149933 .11933899C.4149933 .12934876 .40699769 .13134766 .4019928 .13134766 .3929901 .13134766 .3909912 .12535095 .3889923 .11734009 .35398866 .014251709 .2639923 .014251709 .2539978 .014251709 .20399475 .014251709 .1639862 .044281007 .14099121 .08131409 .11099243 .12934876 .11099243 .19540406 .11099243 .23144531H.3899994C.4119873 .23144531 .4149933 .23144531 .4149933 .2524414 .4149933 .35131837 .36099244 .4482422 .23599243 .4482422 .11999512 .4482422 .027999878 .34532167 .027999878 .22042847 .027999878 .08631897 .1329956-.0107421879 .24798584-.0107421879 .36999513-.0107421879 .4149933 .10032654 .4149933 .11933899M.34899903 .2524414H.11199951C.117996219 .40126039 .20199585 .426239 .23599243 .426239 .33898927 .426239 .34899903 .2913971 .34899903 .2524414Z"/>
<path id="font_1_114" d="M.7029877 .3996582V.43066407C.68099978 .4286499 .6519928 .42765809 .6299896 .42765809L.5369873 .43066407V.3996582C.57299807 .39866639 .59498599 .38075257 .59498599 .35176087 .59498599 .34576417 .59498599 .34376527 .58999636 .33078004L.49899293 .07513428 .3999939 .35375978C.3959961 .36575318 .394989 .36775209 .394989 .37275697 .394989 .3996582 .43399049 .3996582 .45399476 .3996582V.43066407L.34999085 .42765809C.31999208 .42765809 .29100038 .4286499 .26098634 .43066407V.3996582C.2979889 .3996582 .31399537 .39767457 .32398988 .38476563 .32899476 .37875367 .33999635 .34877015 .34700013 .3297882L.26098634 .08811951 .1659851 .3547516C.16099549 .36676026 .16099549 .36875917 .16099549 .37275697 .16099549 .3996582 .19999695 .3996582 .21998596 .3996582V.43066407L.11099243 .42765809 .017990113 .43066407V.3996582C.067993167 .3996582 .07998657 .39668275 .09199524 .36476136L.21798706 .01121521C.22299195-.0027618409 .22599793-.0107421879 .23899842-.0107421879 .2519989-.0107421879 .2539978-.004760742 .25898744 .009216309L.3600006 .2918396 .46199037 .008224487C.46598817-.0027618409 .46899415-.0107421879 .48199464-.0107421879 .49499513-.0107421879 .49798585-.0017547608 .5019989 .008224487L.61898806 .3357849C.6369934 .38575746 .66799929 .39866639 .7029877 .3996582Z"/>
<path id="font_1_47" d="M.5269928 0V.0309906C.45700074 .0309906 .44898988 .038009645 .44898988 .0871582V.69433596L.30499269 .6826172V.6516113C.375 .6516113 .3829956 .64463809 .3829956 .59580996V.38035584C.35398866 .41636659 .31098939 .4423828 .25698854 .4423828 .13899231 .4423828 .033996583 .3443451 .033996583 .21531677 .033996583 .088272098 .13198853-.0107421879 .24598694-.0107421879 .30999757-.0107421879 .35499574 .023254395 .37998963 .055267335V-.0107421879L.5269928 0M.37998963 .117996219C.37998963 .099990848 .37998963 .09799194 .36898805 .08099365 .33898927 .033218385 .2939911 .011245728 .25099183 .011245728 .20599365 .011245728 .16999817 .037216188 .1459961 .075164798 .11999512 .1161499 .116989139 .17320252 .116989139 .21421814 .116989139 .25125123 .11898804 .31129457 .147995 .35632325 .16899109 .38734437 .20698548 .42037965 .26098634 .42037965 .29599 .42037965 .33799745 .405365 .36898805 .3603363 .37998963 .34332276 .37998963 .34132386 .37998963 .32330323V.117996219Z"/>
<path id="font_1_66" d="M.24699402 0V.0309906C.18099976 .0309906 .1769867 .035995485 .1769867 .075042728V.4423828L.036987306 .43066407V.3996582C.101989749 .3996582 .11099243 .3936615 .11099243 .3447113V.07595825C.11099243 .0309906 .099990848 .0309906 .032989503 .0309906V0L.14299011 .0029907227C.17799378 .0029907227 .21299744 .0009918213 .24699402 0M.19198609 .603775C.19198609 .6307678 .16899109 .6567688 .13899231 .6567688 .10499573 .6567688 .084991458 .6287689 .084991458 .603775 .084991458 .57676699 .10798645 .55078127 .13798523 .55078127 .17199707 .55078127 .19198609 .5787811 .19198609 .603775Z"/>
<path id="font_1_98" d="M.3600006 .12823487C.3600006 .18122864 .32998658 .21122742 .31799317 .22323609 .2849884 .25523377 .24598694 .26322938 .20399475 .27124024 .147995 .28224183 .08099365 .29522706 .08099365 .35324098 .08099365 .38822938 .10699463 .42922975 .19299317 .42922975 .30299378 .42922975 .30799867 .3392334 .30999757 .30822755 .31098939 .2992401 .32199098 .2992401 .32199098 .2992401 .33499146 .2992401 .33499146 .30422975 .33499146 .32322694V.4242401C.33499146 .4412384 .33499146 .4482422 .32398988 .4482422 .31900025 .4482422 .31698609 .4482422 .3039856 .43623353 .30099488 .43223573 .29100038 .42323304 .2869873 .42022706 .24899292 .4482422 .20799256 .4482422 .19299317 .4482422 .070999149 .4482422 .032989503 .38124085 .032989503 .3252411 .032989503 .29023744 .04899597 .26223756 .07598877 .24023438 .10798645 .2142334 .13598633 .2082367 .20799256 .19422913 .22999573 .19021607 .31199647 .17422486 .31199647 .10221863 .31199647 .051223756 .2769928 .011245728 .19898987 .011245728 .114990238 .011245728 .07899475 .068222049 .05999756 .1532135 .056991579 .16621399 .055999757 .17021179 .04598999 .17021179 .032989503 .17021179 .032989503 .16322327 .032989503 .1452179V.013214111C.032989503-.003753662 .032989503-.0107421879 .04399109-.0107421879 .04899597-.0107421879 .049987794-.009750366 .068984989 .009246826 .070999149 .011245728 .070999149 .013214111 .08898926 .032226564 .1329956-.009750366 .17799378-.0107421879 .19898987-.0107421879 .31399537-.0107421879 .3600006 .05621338 .3600006 .1282196V.12823487Z"/>
<path id="font_1_43" d="M.4149933 .119140628C.4149933 .12911988 .40499879 .12911988 .4019928 .12911988 .3929901 .12911988 .3909912 .12512207 .3889923 .119140628 .3600006 .026229859 .29499818 .014251709 .2579956 .014251709 .20498657 .014251709 .116989139 .0572052 .116989139 .21801758 .116989139 .38093568 .19898987 .42323304 .2519989 .42323304 .26098634 .42323304 .32398988 .42222596 .35899354 .38594056 .31799317 .38293458 .31199647 .3529358 .31199647 .3399353 .31199647 .31393434 .32998658 .2939453 .35798646 .2939453 .38398744 .2939453 .4039917 .3109436 .4039917 .34094239 .4039917 .40911866 .32798768 .4482422 .25099183 .4482422 .12599182 .4482422 .033996583 .3399353 .033996583 .21601868 .033996583 .08816528 .1329956-.0107421879 .24899292-.0107421879 .3829956-.0107421879 .4149933 .10914612 .4149933 .119140628Z"/>
<path id="font_1_96" d="M.3639984 .38137818C.3639984 .41337586 .33299256 .4423828 .2899933 .4423828 .21699524 .4423828 .18099976 .37538148 .16699219 .3323822V.4423828L.027999878 .43066407V.3996582C.09799194 .3996582 .10598755 .39266969 .10598755 .34370423V.07595825C.10598755 .0309906 .09498596 .0309906 .027999878 .0309906V0L.14199829 .0029907227C.18199158 .0029907227 .22898865 .0029907227 .2689972 0V.0309906H.24798584C.17399597 .0309906 .17199707 .04197693 .17199707 .07795715V.23181153C.17199707 .33137513 .21398926 .42037965 .2899933 .42037965 .29699708 .42037965 .29899598 .42037965 .30099488 .41937257 .2979889 .41838075 .27799989 .40637208 .27799989 .3803711 .27799989 .35237123 .29899598 .33737184 .32099916 .33737184 .33898927 .33737184 .3639984 .3493805 .3639984 .38137818Z"/>
<path id="font_1_105" d="M.33198548 .12385559V.18066406H.30699159V.12585449C.30699159 .052108766 .2769928 .014251709 .23999024 .014251709 .17298889 .014251709 .17298889 .10491943 .17298889 .12187195V.3996582H.31599427V.43066407H.17298889V.6142578H.147995C.14698792 .5324249 .116989139 .42565919 .018997193 .42166139V.3996582H.10398865V.12408447C.10398865 .0012512207 .19699097-.0107421879 .23298645-.0107421879 .3039856-.0107421879 .33198548 .060180665 .33198548 .12408447V.12385559Z"/>
<path id="font_1_84" d="M.5209961 .21636963C.5209961 .34336854 .42399598 .4423828 .31199647 .4423828 .23399353 .4423828 .19198609 .39837647 .17199707 .3763733V.4423828L.027999878 .43066407V.3996582C.09899902 .3996582 .10598755 .3936615 .10598755 .34973146V-.117996219C.10598755-.16308594 .09498596-.16308594 .027999878-.16308594V-.1940918L.13999939-.19110108 .25299073-.1940918V-.16308594C.18598938-.16308594 .1749878-.16308594 .1749878-.117996219V.050186159 .059173585C.17999268 .04319763 .22200012-.0107421879 .2979889-.0107421879 .4169922-.0107421879 .5209961 .087127689 .5209961 .21594239V.21636963M.43798829 .21594239C.43798829 .09512329 .36799623 .011245728 .2939911 .011245728 .2539978 .011245728 .21598816 .031219483 .18899536 .07215881 .1749878 .09312439 .1749878 .09411621 .1749878 .114089969V.33674623C.20399475 .38838197 .25299073 .41737367 .3039856 .41737367 .3769989 .41737367 .43798829 .32937623 .43798829 .21636963V.21594239Z"/>
<path id="font_1_81" d="M.47099305 .21424866C.47099305 .34223939 .37098695 .4482422 .25 .4482422 .125 .4482422 .027999878 .3392334 .027999878 .21424866 .027999878 .085250858 .13198853-.0107421879 .24899292-.0107421879 .36999513-.0107421879 .47099305 .087249759 .47099305 .21424866M.3880005 .22224427C.3880005 .18624878 .3880005 .13224793 .3659973 .08824158 .34399415 .04324341 .2999878 .014251709 .25 .014251709 .20698548 .014251709 .16299439 .035247804 .13598633 .08125305 .11099243 .12524414 .11099243 .18624878 .11099243 .22224427 .11099243 .26124574 .11099243 .31523133 .1349945 .35923768 .1619873 .40522767 .20899964 .426239 .24899292 .426239 .29299928 .426239 .33599855 .40423585 .3619995 .36123658 .3880005 .3182373 .3880005 .26023866 .3880005 .22224427Z"/>
<path id="font_1_77" d="M.5349884 0V.0309906C.48298646 .0309906 .45799256 .0309906 .45700074 .061019899V.25221253C.45700074 .3383026 .45700074 .36932374 .42599488 .405365 .4119873 .42237855 .3789978 .4423828 .32099916 .4423828 .24798584 .4423828 .20098877 .39935304 .17298889 .33729554V.4423828L.03199768 .43066407V.3996582C.101989749 .3996582 .10998535 .39266969 .10998535 .34370423V.07595825C.10998535 .0309906 .09899902 .0309906 .03199768 .0309906V0L.14498902 .0029907227 .25698854 0V.0309906C.18998719 .0309906 .1789856 .0309906 .1789856 .07595825V.25978089C.1789856 .36431886 .25 .42037965 .31399537 .42037965 .3769989 .42037965 .3880005 .36631776 .3880005 .30926515V.076034549C.3880005 .0309906 .3769989 .0309906 .30999757 .0309906V0L.4229889 .0029907227 .5349884 0Z"/>
<path id="font_1_74" d="M.8789978 0V.0309906H.8549957C.7779999 .0309906 .776001 .041992189 .776001 .07795715V.6046295C.776001 .64060977 .7779999 .6516113 .8549957 .6516113H.8789978V.6826172H.70999148C.6839905 .6826172 .6839905 .6816101 .6769867 .66360476L.45799256 .10095215 .24099732 .660614C.23199463 .6826172 .22898865 .6826172 .20599365 .6826172H.036987306V.6516113H.06098938C.13798523 .6516113 .13999939 .64060977 .13999939 .6046295V.10494995C.13999939 .07795715 .13999939 .0309906 .036987306 .0309906V0L.1539917 .0029907227 .2709961 0V.0309906C.16799927 .0309906 .16799927 .07795715 .16799927 .10494995V.6436157H.16899109L.4099884 .021987915C.4149933 .008987427 .41999818 0 .42999269 0 .44099427 0 .44400025 .0079956059 .44799806 .018997193L.69400027 .6516113H.69499209V.07795715C.69499209 .041992189 .69299319 .0309906 .6159973 .0309906H.59199526V0C.6289978 .0029907227 .69699099 .0029907227 .73599246 .0029907227 .7749939 .0029907227 .84199526 .0029907227 .8789978 0Z"/>
<path id="font_1_28" d="M.48298646 .08912659V.14511109H.45799256V.08912659C.45799256 .03112793 .43299867 .025131226 .42199708 .025131226 .3889923 .025131226 .3849945 .070129398 .3849945 .07511902V.27508546C.3849945 .31707765 .3849945 .3560791 .34899903 .39312745 .30999757 .43223573 .2599945 .4482422 .21199036 .4482422 .12998963 .4482422 .06098938 .40115357 .06098938 .335083 .06098938 .30508424 .08099365 .28808595 .10699463 .28808595 .1349945 .28808595 .15299988 .30807496 .15299988 .33407594 .15299988 .3460846 .147995 .37908937 .101989749 .38008119 .1289978 .41519166 .17799378 .426239 .20999146 .426239 .25898744 .426239 .31599427 .38710023 .31599427 .29808045V.26107789C.2649994 .25808717 .19499207 .25508119 .13198853 .22509766 .056991579 .19110108 .03199768 .13911438 .03199768 .09512329 .03199768 .014251709 .1289978-.0107421879 .19198609-.0107421879 .2579956-.0107421879 .3039856 .029251099 .32299806 .07624817 .32699586 .036132814 .35398866-.005859375 .40098573-.005859375 .42199708-.005859375 .48298646 .008132935 .48298646 .08912659M.31599427 .14013672C.31599427 .04525757 .24398804 .011245728 .19898987 .011245728 .1499939 .011245728 .10899353 .04624939 .10899353 .09625244 .10899353 .15124512 .15098572 .23425293 .31599427 .24024964V.14013672Z"/>
<path id="font_1_118" d="M.5079956 .3996582V.43066407C.4850006 .4286499 .45599366 .42765809 .43299867 .42765809L.34599305 .43066407V.3996582C.3769989 .39866639 .3929901 .3816681 .3929901 .35668946 .3929901 .34669496 .3919983 .34469605 .3869934 .33270265L.28599549 .08685303 .1749878 .35568238C.17098999 .36567689 .16899109 .36967469 .16899109 .3736725 .16899109 .3996582 .20599365 .3996582 .22499085 .3996582V.43066407L.115997318 .42765809C.08898926 .42765809 .04899597 .4286499 .018997193 .43066407V.3996582C.066986087 .3996582 .085998538 .3996582 .099990848 .36468507L.25-.000091552738 .22499085-.059066774C.20298767-.11407471 .1749878-.18309021 .11099243-.18309021 .10598755-.18309021 .08299255-.18309021 .06399536-.16503906 .09498596-.16104126 .102996829-.13905335 .102996829-.123046878 .102996829-.0970459 .083999637-.08103943 .06098938-.08103943 .040985109-.08103943 .018997193-.09403992 .018997193-.124053958 .018997193-.16905213 .06098938-.20507813 .11099243-.20507813 .17399597-.20507813 .21499634-.14804077 .23899842-.091049198L.4149933 .33569337C.44099427 .39865113 .49198915 .3996582 .5079956 .3996582Z"/>
<path id="font_1_109" d="M.5349884 0V.0309906C.46499635 .0309906 .45700074 .037994386 .45700074 .08705139V.4423828L.30999757 .43066407V.3996582C.37998963 .3996582 .3880005 .39266969 .3880005 .34373475V.16601563C.3880005 .07910156 .33999635 .011245728 .2669983 .011245728 .18299866 .011245728 .1789856 .058135988 .1789856 .11009216V.4423828L.03199768 .43066407V.3996582C.10998535 .3996582 .10998535 .39666749 .10998535 .3078003V.15802002C.10998535 .080093387 .10998535-.0107421879 .2619934-.0107421879 .31799317-.0107421879 .3619995 .017242432 .3909912 .07910156V-.0107421879L.5349884 0Z"/>
<path id="font_1_112" d="M.5079956 .3996582V.43066407C.4850006 .4286499 .45599366 .42765809 .43299867 .42765809L.34599305 .43066407V.3996582C.3829956 .39865113 .3939972 .37568666 .3939972 .35671998 .3939972 .34773255 .3919983 .34373475 .3880005 .3327484L.28599549 .078125 .17399597 .35671998C.16799927 .3697052 .16799927 .37368775 .16799927 .37368775 .16799927 .3996582 .20698548 .3996582 .22499085 .3996582V.43066407L.115997318 .42765809C.08898926 .42765809 .04899597 .4286499 .018997193 .43066407V.3996582C.08198547 .3996582 .085998538 .3936615 .09899902 .36271668L.24299622 .008224487C.24899292-.0057525637 .25099183-.0107421879 .2639923-.0107421879 .2769928-.0107421879 .2809906-.0017700195 .2849884 .008224487L.41600038 .3327484C.4249878 .3557129 .44198609 .39865113 .5079956 .3996582Z"/>
</defs>
<path transform="matrix(1.00006,0,0,-1.00002,3.0959855,115.18598)" stroke-width=".3985" stroke-linecap="butt" stroke-miterlimit="10" stroke-linejoin="miter" fill="none" stroke="#000000" d="M0 0V109.80069"/>
<path transform="matrix(0,-1.00002,-1.00006,-0,3.0959855,5.383095)" d="M3.58653 0C2.52383 .19925 .797 .797-.3985 1.49438V-1.49438C.797-.797 2.52383-.19925 3.58653 0"/>
<path transform="matrix(1.00006,0,0,-1.00002,3.0959855,115.18598)" stroke-width=".3985" stroke-linecap="butt" stroke-miterlimit="10" stroke-linejoin="miter" fill="none" stroke="#000000" d="M0 0H138.1475"/>
<path transform="matrix(1.00006,0,0,-1.00002,141.25177,115.18598)" d="M3.58653 0C2.52383 .19925 .797 .797-.3985 1.49438V-1.49438C.797-.797 2.52383-.19925 3.58653 0"/>
<path transform="matrix(1.00006,0,0,-1.00002,3.0959855,115.18598)" d="M31.33563 85.04042C31.33563 86.69113 29.99751 88.02925 28.3468 88.02925 26.69609 88.02925 25.35797 86.69113 25.35797 85.04042 25.35797 83.38971 26.69609 82.05159 28.3468 82.05159 29.99751 82.05159 31.33563 83.38971 31.33563 85.04042ZM28.3468 85.04042"/>
<path transform="matrix(1.00006,0,0,-1.00002,3.0959855,115.18598)" stroke-width=".3985" stroke-linecap="butt" stroke-miterlimit="10" stroke-linejoin="miter" fill="none" stroke="#000000" d="M31.33563 85.04042C31.33563 86.69113 29.99751 88.02925 28.3468 88.02925 26.69609 88.02925 25.35797 86.69113 25.35797 85.04042 25.35797 83.38971 26.69609 82.05159 28.3468 82.05159 29.99751 82.05159 31.33563 83.38971 31.33563 85.04042ZM28.3468 85.04042"/>
<path transform="matrix(1.00006,0,0,-1.00002,3.0959855,115.18598)" d="M59.68245 56.69362C59.68245 58.34431 58.34431 59.68245 56.69362 59.68245 55.04291 59.68245 53.70479 58.34431 53.70479 56.69362 53.70479 55.04291 55.04291 53.70479 56.69362 53.70479 58.34431 53.70479 59.68245 55.04291 59.68245 56.69362ZM56.69362 56.69362"/>
<path transform="matrix(1.00006,0,0,-1.00002,3.0959855,115.18598)" stroke-width=".3985" stroke-linecap="butt" stroke-miterlimit="10" stroke-linejoin="miter" fill="none" stroke="#000000" d="M59.68245 56.69362C59.68245 58.34431 58.34431 59.68245 56.69362 59.68245 55.04291 59.68245 53.70479 58.34431 53.70479 56.69362 53.70479 55.04291 55.04291 53.70479 56.69362 53.70479 58.34431 53.70479 59.68245 55.04291 59.68245 56.69362ZM56.69362 56.69362"/>
<path transform="matrix(1.00006,0,0,-1.00002,3.0959855,115.18598)" d="M88.02925 28.3468C88.02925 29.99751 86.69113 31.33563 85.04042 31.33563 83.38971 31.33563 82.05159 29.99751 82.05159 28.3468 82.05159 26.69609 83.38971 25.35797 85.04042 25.35797 86.69113 25.35797 88.02925 26.69609 88.02925 28.3468ZM85.04042 28.3468"/>
<path transform="matrix(1.00006,0,0,-1.00002,3.0959855,115.18598)" stroke-width=".3985" stroke-linecap="butt" stroke-miterlimit="10" stroke-linejoin="miter" fill="none" stroke="#000000" d="M88.02925 28.3468C88.02925 29.99751 86.69113 31.33563 85.04042 31.33563 83.38971 31.33563 82.05159 29.99751 82.05159 28.3468 82.05159 26.69609 83.38971 25.35797 85.04042 25.35797 86.69113 25.35797 88.02925 26.69609 88.02925 28.3468ZM85.04042 28.3468"/>
<path transform="matrix(1.00006,0,0,-1.00002,3.0959855,115.18598)" d="M116.37607 56.69362C116.37607 58.34431 115.03793 59.68245 113.38724 59.68245 111.73653 59.68245 110.3984 58.34431 110.3984 56.69362 110.3984 55.04291 111.73653 53.70479 113.38724 53.70479 115.03793 53.70479 116.37607 55.04291 116.37607 56.69362ZM113.38724 56.69362"/>
<path transform="matrix(1.00006,0,0,-1.00002,3.0959855,115.18598)" stroke-width=".3985" stroke-linecap="butt" stroke-miterlimit="10" stroke-linejoin="miter" fill="none" stroke="#000000" d="M116.37607 56.69362C116.37607 58.34431 115.03793 59.68245 113.38724 59.68245 111.73653 59.68245 110.3984 58.34431 110.3984 56.69362 110.3984 55.04291 111.73653 53.70479 113.38724 53.70479 115.03793 53.70479 116.37607 55.04291 116.37607 56.69362ZM113.38724 56.69362"/>
<use data-text="A" xlink:href="#font_1_27" transform="matrix(9.963197,0,0,-9.962799,27.96148,146.1336)"/>
<use data-text="f" xlink:href="#font_1_55" transform="matrix(9.963197,0,0,-9.962799,38.74166,146.1336)"/>
<use data-text="e" xlink:href="#font_1_50" transform="matrix(9.963197,0,0,-9.962799,41.790399,146.1336)"/>
<use data-text="w" xlink:href="#font_1_114" transform="matrix(9.963197,0,0,-9.962799,46.214059,146.1336)"/>
<use data-text="d" xlink:href="#font_1_47" transform="matrix(9.963197,0,0,-9.962799,56.725229,146.1336)"/>
<use data-text="i" xlink:href="#font_1_66" transform="matrix(9.963197,0,0,-9.962799,62.26477,146.1336)"/>
<use data-text="s" xlink:href="#font_1_98" transform="matrix(9.963197,0,0,-9.962799,65.03453,146.1336)"/>
<use data-text="c" xlink:href="#font_1_43" transform="matrix(9.963197,0,0,-9.962799,68.96003,146.1336)"/>
<use data-text="r" xlink:href="#font_1_96" transform="matrix(9.963197,0,0,-9.962799,73.38369,146.1336)"/>
<use data-text="e" xlink:href="#font_1_50" transform="matrix(9.963197,0,0,-9.962799,77.28925,146.1336)"/>
<use data-text="t" xlink:href="#font_1_105" transform="matrix(9.963197,0,0,-9.962799,81.71293,146.1336)"/>
<use data-text="e" xlink:href="#font_1_50" transform="matrix(9.963197,0,0,-9.962799,85.588619,146.1336)"/>
<use data-text="p" xlink:href="#font_1_84" transform="matrix(9.963197,0,0,-9.962799,93.33999,146.1336)"/>
<use data-text="o" xlink:href="#font_1_81" transform="matrix(9.963197,0,0,-9.962799,99.158489,146.1336)"/>
<use data-text="i" xlink:href="#font_1_66" transform="matrix(9.963197,0,0,-9.962799,104.14008,146.1336)"/>
<use data-text="n" xlink:href="#font_1_77" transform="matrix(9.963197,0,0,-9.962799,106.90986,146.1336)"/>
<use data-text="t" xlink:href="#font_1_105" transform="matrix(9.963197,0,0,-9.962799,112.18037,146.1336)"/>
<use data-text="s" xlink:href="#font_1_98" transform="matrix(9.963197,0,0,-9.962799,116.05607,146.1336)"/>
<path transform="matrix(1.00006,0,0,-1.00002,168.47888,115.24099)" stroke-width=".3985" stroke-linecap="butt" stroke-miterlimit="10" stroke-linejoin="miter" fill="none" stroke="#000000" d="M0 0V109.80069"/>
<path transform="matrix(0,-1.00002,-1.00006,-0,168.47888,5.4381029)" d="M3.58653 0C2.52383 .19925 .797 .797-.3985 1.49438V-1.49438C.797-.797 2.52383-.19925 3.58653 0"/>
<path transform="matrix(1.00006,0,0,-1.00002,168.47888,115.24099)" stroke-width=".3985" stroke-linecap="butt" stroke-miterlimit="10" stroke-linejoin="miter" fill="none" stroke="#000000" d="M0 0H138.1475"/>
<path transform="matrix(1.00006,0,0,-1.00002,306.63468,115.24099)" d="M3.58653 0C2.52383 .19925 .797 .797-.3985 1.49438V-1.49438C.797-.797 2.52383-.19925 3.58653 0"/>
<path transform="matrix(1.00006,0,0,-1.00002,168.47888,115.24099)" d="M29.34308 85.04042C29.34308 85.59065 28.89703 86.0367 28.3468 86.0367 27.79657 86.0367 27.35052 85.59065 27.35052 85.04042 27.35052 84.49019 27.79657 84.04414 28.3468 84.04414 28.89703 84.04414 29.34308 84.49019 29.34308 85.04042ZM28.3468 85.04042"/>
<path transform="matrix(1.00006,0,0,-1.00002,168.47888,115.24099)" stroke-width=".3985" stroke-linecap="butt" stroke-miterlimit="10" stroke-linejoin="miter" fill="none" stroke="#000000" d="M29.34308 85.04042C29.34308 85.59065 28.89703 86.0367 28.3468 86.0367 27.79657 86.0367 27.35052 85.59065 27.35052 85.04042 27.35052 84.49019 27.79657 84.04414 28.3468 84.04414 28.89703 84.04414 29.34308 84.49019 29.34308 85.04042ZM28.3468 85.04042"/>
<path transform="matrix(1.00006,0,0,-1.00002,168.47888,115.24099)" d="M36.42976 77.95372C36.42976 78.50395 35.98373 78.95 35.43349 78.95 34.88326 78.95 34.43721 78.50395 34.43721 77.95372 34.43721 77.40347 34.88326 76.95744 35.43349 76.95744 35.98373 76.95744 36.42976 77.40347 36.42976 77.95372ZM35.43349 77.95372"/>
<path transform="matrix(1.00006,0,0,-1.00002,168.47888,115.24099)" stroke-width=".3985" stroke-linecap="butt" stroke-miterlimit="10" stroke-linejoin="miter" fill="none" stroke="#000000" d="M36.42976 77.95372C36.42976 78.50395 35.98373 78.95 35.43349 78.95 34.88326 78.95 34.43721 78.50395 34.43721 77.95372 34.43721 77.40347 34.88326 76.95744 35.43349 76.95744 35.98373 76.95744 36.42976 77.40347 36.42976 77.95372ZM35.43349 77.95372"/>
<path transform="matrix(1.00006,0,0,-1.00002,168.47888,115.24099)" d="M43.51648 70.867C43.51648 71.41725 43.07043 71.86328 42.5202 71.86328 41.96997 71.86328 41.52393 71.41725 41.52393 70.867 41.52393 70.31677 41.96997 69.87073 42.5202 69.87073 43.07043 69.87073 43.51648 70.31677 43.51648 70.867ZM42.5202 70.867"/>
<path transform="matrix(1.00006,0,0,-1.00002,168.47888,115.24099)" stroke-width=".3985" stroke-linecap="butt" stroke-miterlimit="10" stroke-linejoin="miter" fill="none" stroke="#000000" d="M43.51648 70.867C43.51648 71.41725 43.07043 71.86328 42.5202 71.86328 41.96997 71.86328 41.52393 71.41725 41.52393 70.867 41.52393 70.31677 41.96997 69.87073 42.5202 69.87073 43.07043 69.87073 43.51648 70.31677 43.51648 70.867ZM42.5202 70.867"/>
<path transform="matrix(1.00006,0,0,-1.00002,168.47888,115.24099)" d="M50.60318 63.7803C50.60318 64.33054 50.15714 64.77658 49.6069 64.77658 49.05667 64.77658 48.61063 64.33054 48.61063 63.7803 48.61063 63.23007 49.05667 62.78403 49.6069 62.78403 50.15714 62.78403 50.60318 63.23007 50.60318 63.7803ZM49.6069 63.7803"/>
<path transform="matrix(1.00006,0,0,-1.00002,168.47888,115.24099)" stroke-width=".3985" stroke-linecap="butt" stroke-miterlimit="10" stroke-linejoin="miter" fill="none" stroke="#000000" d="M50.60318 63.7803C50.60318 64.33054 50.15714 64.77658 49.6069 64.77658 49.05667 64.77658 48.61063 64.33054 48.61063 63.7803 48.61063 63.23007 49.05667 62.78403 49.6069 62.78403 50.15714 62.78403 50.60318 63.23007 50.60318 63.7803ZM49.6069 63.7803"/>
<path transform="matrix(1.00006,0,0,-1.00002,168.47888,115.24099)" d="M57.6899 56.69362C57.6899 57.24385 57.24385 57.6899 56.69362 57.6899 56.14337 57.6899 55.69734 57.24385 55.69734 56.69362 55.69734 56.14337 56.14337 55.69734 56.69362 55.69734 57.24385 55.69734 57.6899 56.14337 57.6899 56.69362ZM56.69362 56.69362"/>
<path transform="matrix(1.00006,0,0,-1.00002,168.47888,115.24099)" stroke-width=".3985" stroke-linecap="butt" stroke-miterlimit="10" stroke-linejoin="miter" fill="none" stroke="#000000" d="M57.6899 56.69362C57.6899 57.24385 57.24385 57.6899 56.69362 57.6899 56.14337 57.6899 55.69734 57.24385 55.69734 56.69362 55.69734 56.14337 56.14337 55.69734 56.69362 55.69734 57.24385 55.69734 57.6899 56.14337 57.6899 56.69362ZM56.69362 56.69362"/>
<path transform="matrix(1.00006,0,0,-1.00002,168.47888,115.24099)" d="M64.77658 48.18947C64.77658 48.73972 64.33054 49.18575 63.7803 49.18575 63.23007 49.18575 62.78403 48.73972 62.78403 48.18947 62.78403 47.63924 63.23007 47.19319 63.7803 47.19319 64.33054 47.19319 64.77658 47.63924 64.77658 48.18947ZM63.7803 48.18947"/>
<path transform="matrix(1.00006,0,0,-1.00002,168.47888,115.24099)" stroke-width=".3985" stroke-linecap="butt" stroke-miterlimit="10" stroke-linejoin="miter" fill="none" stroke="#000000" d="M64.77658 48.18947C64.77658 48.73972 64.33054 49.18575 63.7803 49.18575 63.23007 49.18575 62.78403 48.73972 62.78403 48.18947 62.78403 47.63924 63.23007 47.19319 63.7803 47.19319 64.33054 47.19319 64.77658 47.63924 64.77658 48.18947ZM63.7803 48.18947"/>
<path transform="matrix(1.00006,0,0,-1.00002,168.47888,115.24099)" d="M71.86328 39.68535C71.86328 40.23558 71.41725 40.68163 70.867 40.68163 70.31677 40.68163 69.87073 40.23558 69.87073 39.68535 69.87073 39.13512 70.31677 38.68907 70.867 38.68907 71.41725 38.68907 71.86328 39.13512 71.86328 39.68535ZM70.867 39.68535"/>
<path transform="matrix(1.00006,0,0,-1.00002,168.47888,115.24099)" stroke-width=".3985" stroke-linecap="butt" stroke-miterlimit="10" stroke-linejoin="miter" fill="none" stroke="#000000" d="M71.86328 39.68535C71.86328 40.23558 71.41725 40.68163 70.867 40.68163 70.31677 40.68163 69.87073 40.23558 69.87073 39.68535 69.87073 39.13512 70.31677 38.68907 70.867 38.68907 71.41725 38.68907 71.86328 39.13512 71.86328 39.68535ZM70.867 39.68535"/>
<path transform="matrix(1.00006,0,0,-1.00002,168.47888,115.24099)" d="M78.95 31.89014C78.95 32.44037 78.50395 32.88641 77.95372 32.88641 77.40347 32.88641 76.95744 32.44037 76.95744 31.89014 76.95744 31.3399 77.40347 30.89386 77.95372 30.89386 78.50395 30.89386 78.95 31.3399 78.95 31.89014ZM77.95372 31.89014"/>
<path transform="matrix(1.00006,0,0,-1.00002,168.47888,115.24099)" stroke-width=".3985" stroke-linecap="butt" stroke-miterlimit="10" stroke-linejoin="miter" fill="none" stroke="#000000" d="M78.95 31.89014C78.95 32.44037 78.50395 32.88641 77.95372 32.88641 77.40347 32.88641 76.95744 32.44037 76.95744 31.89014 76.95744 31.3399 77.40347 30.89386 77.95372 30.89386 78.50395 30.89386 78.95 31.3399 78.95 31.89014ZM77.95372 31.89014"/>
<path transform="matrix(1.00006,0,0,-1.00002,168.47888,115.24099)" d="M86.0367 28.3468C86.0367 28.89703 85.59065 29.34308 85.04042 29.34308 84.49019 29.34308 84.04414 28.89703 84.04414 28.3468 84.04414 27.79657 84.49019 27.35052 85.04042 27.35052 85.59065 27.35052 86.0367 27.79657 86.0367 28.3468ZM85.04042 28.3468"/>
<path transform="matrix(1.00006,0,0,-1.00002,168.47888,115.24099)" stroke-width=".3985" stroke-linecap="butt" stroke-miterlimit="10" stroke-linejoin="miter" fill="none" stroke="#000000" d="M86.0367 28.3468C86.0367 28.89703 85.59065 29.34308 85.04042 29.34308 84.49019 29.34308 84.04414 28.89703 84.04414 28.3468 84.04414 27.79657 84.49019 27.35052 85.04042 27.35052 85.59065 27.35052 86.0367 27.79657 86.0367 28.3468ZM85.04042 28.3468"/>
<path transform="matrix(1.00006,0,0,-1.00002,168.47888,115.24099)" d="M93.12338 31.89014C93.12338 32.44037 92.67735 32.88641 92.1271 32.88641 91.57687 32.88641 91.13083 32.44037 91.13083 31.89014 91.13083 31.3399 91.57687 30.89386 92.1271 30.89386 92.67735 30.89386 93.12338 31.3399 93.12338 31.89014ZM92.1271 31.89014"/>
<path transform="matrix(1.00006,0,0,-1.00002,168.47888,115.24099)" stroke-width=".3985" stroke-linecap="butt" stroke-miterlimit="10" stroke-linejoin="miter" fill="none" stroke="#000000" d="M93.12338 31.89014C93.12338 32.44037 92.67735 32.88641 92.1271 32.88641 91.57687 32.88641 91.13083 32.44037 91.13083 31.89014 91.13083 31.3399 91.57687 30.89386 92.1271 30.89386 92.67735 30.89386 93.12338 31.3399 93.12338 31.89014ZM92.1271 31.89014"/>
<path transform="matrix(1.00006,0,0,-1.00002,168.47888,115.24099)" d="M100.2101 39.68535C100.2101 40.23558 99.76405 40.68163 99.21382 40.68163 98.66359 40.68163 98.21754 40.23558 98.21754 39.68535 98.21754 39.13512 98.66359 38.68907 99.21382 38.68907 99.76405 38.68907 100.2101 39.13512 100.2101 39.68535ZM99.21382 39.68535"/>
<path transform="matrix(1.00006,0,0,-1.00002,168.47888,115.24099)" stroke-width=".3985" stroke-linecap="butt" stroke-miterlimit="10" stroke-linejoin="miter" fill="none" stroke="#000000" d="M100.2101 39.68535C100.2101 40.23558 99.76405 40.68163 99.21382 40.68163 98.66359 40.68163 98.21754 40.23558 98.21754 39.68535 98.21754 39.13512 98.66359 38.68907 99.21382 38.68907 99.76405 38.68907 100.2101 39.13512 100.2101 39.68535ZM99.21382 39.68535"/>
<path transform="matrix(1.00006,0,0,-1.00002,168.47888,115.24099)" d="M107.2968 47.48099C107.2968 48.03122 106.85075 48.47726 106.30052 48.47726 105.75029 48.47726 105.30424 48.03122 105.30424 47.48099 105.30424 46.93076 105.75029 46.48471 106.30052 46.48471 106.85075 46.48471 107.2968 46.93076 107.2968 47.48099ZM106.30052 47.48099"/>
<path transform="matrix(1.00006,0,0,-1.00002,168.47888,115.24099)" stroke-width=".3985" stroke-linecap="butt" stroke-miterlimit="10" stroke-linejoin="miter" fill="none" stroke="#000000" d="M107.2968 47.48099C107.2968 48.03122 106.85075 48.47726 106.30052 48.47726 105.75029 48.47726 105.30424 48.03122 105.30424 47.48099 105.30424 46.93076 105.75029 46.48471 106.30052 46.48471 106.85075 46.48471 107.2968 46.93076 107.2968 47.48099ZM106.30052 47.48099"/>
<path transform="matrix(1.00006,0,0,-1.00002,168.47888,115.24099)" d="M114.38351 56.69362C114.38351 57.24385 113.93747 57.6899 113.38724 57.6899 112.83699 57.6899 112.39096 57.24385 112.39096 56.69362 112.39096 56.14337 112.83699 55.69734 113.38724 55.69734 113.93747 55.69734 114.38351 56.14337 114.38351 56.69362ZM113.38724 56.69362"/>
<path transform="matrix(1.00006,0,0,-1.00002,168.47888,115.24099)" stroke-width=".3985" stroke-linecap="butt" stroke-miterlimit="10" stroke-linejoin="miter" fill="none" stroke="#000000" d="M114.38351 56.69362C114.38351 57.24385 113.93747 57.6899 113.38724 57.6899 112.83699 57.6899 112.39096 57.24385 112.39096 56.69362 112.39096 56.14337 112.83699 55.69734 113.38724 55.69734 113.93747 55.69734 114.38351 56.14337 114.38351 56.69362ZM113.38724 56.69362"/>
<use data-text="M" xlink:href="#font_1_74" transform="matrix(9.963197,0,0,-9.962799,193.7524,146.0246)"/>
<use data-text="a" xlink:href="#font_1_28" transform="matrix(9.963197,0,0,-9.962799,202.88866,146.0246)"/>
<use data-text="n" xlink:href="#font_1_77" transform="matrix(9.963197,0,0,-9.962799,207.87026,146.0246)"/>
<use data-text="y" xlink:href="#font_1_118" transform="matrix(9.963197,0,0,-9.962799,213.1408,146.0246)"/>
<use data-text="d" xlink:href="#font_1_47" transform="matrix(9.963197,0,0,-9.962799,221.70915,146.0246)"/>
<use data-text="i" xlink:href="#font_1_66" transform="matrix(9.963197,0,0,-9.962799,227.2487,146.0246)"/>
<use data-text="s" xlink:href="#font_1_98" transform="matrix(9.963197,0,0,-9.962799,230.01845,146.0246)"/>
<use data-text="c" xlink:href="#font_1_43" transform="matrix(9.963197,0,0,-9.962799,233.94396,146.0246)"/>
<use data-text="r" xlink:href="#font_1_96" transform="matrix(9.963197,0,0,-9.962799,238.36763,146.0246)"/>
<use data-text="e" xlink:href="#font_1_50" transform="matrix(9.963197,0,0,-9.962799,242.27321,146.0246)"/>
<use data-text="t" xlink:href="#font_1_105" transform="matrix(9.963197,0,0,-9.962799,246.69686,146.0246)"/>
<use data-text="e" xlink:href="#font_1_50" transform="matrix(9.963197,0,0,-9.962799,250.57256,146.0246)"/>
<use data-text="p" xlink:href="#font_1_84" transform="matrix(9.963197,0,0,-9.962799,258.31398,146.0246)"/>
<use data-text="o" xlink:href="#font_1_81" transform="matrix(9.963197,0,0,-9.962799,264.13246,146.0246)"/>
<use data-text="i" xlink:href="#font_1_66" transform="matrix(9.963197,0,0,-9.962799,269.11408,146.0246)"/>
<use data-text="n" xlink:href="#font_1_77" transform="matrix(9.963197,0,0,-9.962799,271.88386,146.0246)"/>
<use data-text="t" xlink:href="#font_1_105" transform="matrix(9.963197,0,0,-9.962799,277.15437,146.0246)"/>
<use data-text="s" xlink:href="#font_1_98" transform="matrix(9.963197,0,0,-9.962799,281.0301,146.0246)"/>
<path transform="matrix(1.00006,0,0,-1.00002,333.8628,116.09801)" stroke-width=".3985" stroke-linecap="butt" stroke-miterlimit="10" stroke-linejoin="miter" fill="none" stroke="#000000" d="M0 0V109.80069"/>
<path transform="matrix(0,-1.00002,-1.00006,-0,333.8628,6.2951204)" d="M3.58653 0C2.52383 .19925 .797 .797-.3985 1.49438V-1.49438C.797-.797 2.52383-.19925 3.58653 0"/>
<path transform="matrix(1.00006,0,0,-1.00002,333.8628,116.09801)" stroke-width=".3985" stroke-linecap="butt" stroke-miterlimit="10" stroke-linejoin="miter" fill="none" stroke="#000000" d="M0 0H138.1475"/>
<path transform="matrix(1.00006,0,0,-1.00002,472.0186,116.09801)" d="M3.58653 0C2.52383 .19925 .797 .797-.3985 1.49438V-1.49438C.797-.797 2.52383-.19925 3.58653 0"/>
<path transform="matrix(1.00006,0,0,-1.00002,333.8628,116.09801)" stroke-width=".79701" stroke-linecap="butt" stroke-miterlimit="10" stroke-linejoin="miter" fill="none" stroke="#000000" d="M28.3468 85.04042C28.3468 85.04042 48.82748 64.55974 56.69362 56.69362 64.55974 48.82748 77.1743 28.3468 85.04042 28.3468 92.90656 28.3468 113.38724 56.69362 113.38724 56.69362"/>
<use data-text="A" xlink:href="#font_1_27" transform="matrix(9.963197,0,0,-9.962799,362.76353,147.95764)"/>
<use data-text="c" xlink:href="#font_1_43" transform="matrix(9.963197,0,0,-9.962799,373.55366,147.95764)"/>
<use data-text="o" xlink:href="#font_1_81" transform="matrix(9.963197,0,0,-9.962799,377.97734,147.95764)"/>
<use data-text="n" xlink:href="#font_1_77" transform="matrix(9.963197,0,0,-9.962799,382.95893,147.95764)"/>
<use data-text="t" xlink:href="#font_1_105" transform="matrix(9.963197,0,0,-9.962799,388.22947,147.95764)"/>
<use data-text="i" xlink:href="#font_1_66" transform="matrix(9.963197,0,0,-9.962799,392.10517,147.95764)"/>
<use data-text="n" xlink:href="#font_1_77" transform="matrix(9.963197,0,0,-9.962799,394.8749,147.95764)"/>
<use data-text="u" xlink:href="#font_1_109" transform="matrix(9.963197,0,0,-9.962799,400.1355,147.95764)"/>
<use data-text="o" xlink:href="#font_1_81" transform="matrix(9.963197,0,0,-9.962799,405.67503,147.95764)"/>
<use data-text="u" xlink:href="#font_1_109" transform="matrix(9.963197,0,0,-9.962799,410.65663,147.95764)"/>
<use data-text="s" xlink:href="#font_1_98" transform="matrix(9.963197,0,0,-9.962799,416.19618,147.95764)"/>
<use data-text="c" xlink:href="#font_1_43" transform="matrix(9.963197,0,0,-9.962799,423.42945,147.95764)"/>
<use data-text="u" xlink:href="#font_1_109" transform="matrix(9.963197,0,0,-9.962799,427.85313,147.95764)"/>
<use data-text="r" xlink:href="#font_1_96" transform="matrix(9.963197,0,0,-9.962799,433.39268,147.95764)"/>
<use data-text="v" xlink:href="#font_1_112" transform="matrix(9.963197,0,0,-9.962799,437.29826,147.95764)"/>
<use data-text="e" xlink:href="#font_1_50" transform="matrix(9.963197,0,0,-9.962799,442.2898,147.95764)"/>
</svg>
