<svg xmlns="http://www.w3.org/2000/svg" xmlns:xlink="http://www.w3.org/1999/xlink" xmlns:inkscape="http://www.inkscape.org/namespaces/inkscape" version="1.1" width="149" height="139" viewBox="0 0 149 139">
<defs>
<path id="font_1_1" d="M.36698915 .3996582H.45298768C.47299195 .3996582 .48298646 .3996582 .48298646 .41966249 .48298646 .43066407 .47299195 .43066407 .45599366 .43066407H.37298585L.3939972 .5449524C.397995 .5660095 .4119873 .6370239 .41799928 .6490326 .4269867 .66804507 .44400025 .68307498 .46499635 .68307498 .46899415 .68307498 .49499513 .68307498 .5139923 .66503909 .46998597 .661026 .45999146 .6260376 .45999146 .6110382 .45999146 .58802798 .47799684 .57603457 .49699403 .57603457 .522995 .57603457 .5519867 .5980377 .5519867 .6360321 .5519867 .6820679 .5059967 .7050781 .46499635 .7050781 .43099977 .7050781 .36799623 .68707278 .33799745 .58802798 .33198548 .56700137 .32899476 .5569763 .30499269 .43066407H.23599243C.21699524 .43066407 .20599365 .43066407 .20599365 .4116516 .20599365 .3996582 .21499634 .3996582 .23399353 .3996582H.2999878L.22499085 .0048828127C.20698548-.09207153 .18998719-.18309021 .13798523-.18309021 .13398743-.18309021 .10899353-.18309021 .08999634-.16506958 .13598633-.1620636 .14498902-.12606812 .14498902-.111068729 .14498902-.08807373 .1269989-.07606506 .10798645-.07606506 .08198547-.07606506 .052993776-.09806824 .052993776-.13606262 .052993776-.18109131 .09700012-.20507813 .13798523-.20507813 .19299317-.20507813 .23298645-.14607239 .25099183-.108062747 .2829895-.04508972 .30599977 .07583618 .30699159 .082839969L.36698915 .3996582Z"/>
<path id="font_2_1" d="M.33099366-.2400055C.33099366-.23701477 .33099366-.23500061 .31399537-.21800232 .18899536-.0920105 .15699768 .09700012 .15699768 .25 .15699768 .42399598 .19499207 .59799197 .31799317 .72299197 .33099366 .73498538 .33099366 .7369995 .33099366 .73999026 .33099366 .746994 .32699586 .75 .32099916 .75 .31098939 .75 .22099304 .6819916 .1619873 .5549927 .11099243 .44499208 .09899902 .33399964 .09899902 .25 .09899902 .17199707 .10998535 .050994874 .16499329-.06201172 .22499085-.18501282 .31098939-.25 .32099916-.25 .32699586-.25 .33099366-.24700928 .33099366-.2400055Z"/>
<path id="font_1_2" d="M.33399964 .30233766C.33999635 .32835389 .36299134 .42037965 .43299867 .42037965 .43798829 .42037965 .46199037 .42037965 .48298646 .40734864 .45498658 .402359 .43499757 .37734986 .43499757 .35334779 .43499757 .33735658 .44599916 .31835938 .47299195 .31835938 .49499513 .31835938 .5269928 .3363495 .5269928 .37635804 .5269928 .42837525 .46798707 .4423828 .43399049 .4423828 .37599183 .4423828 .34098817 .38935853 .32899476 .36634828 .3039856 .43237306 .25 .4423828 .22099304 .4423828 .116989139 .4423828 .05999756 .3133545 .05999756 .28834535 .05999756 .27833558 .069992069 .27833558 .07199097 .27833558 .07998657 .27833558 .08299255 .28033448 .084991458 .28933717 .11898804 .39535523 .18499756 .42037965 .21899414 .42037965 .23799134 .42037965 .272995 .4113617 .272995 .35334779 .272995 .32235719 .2559967 .25532533 .21899414 .11528015 .20298767 .053268434 .16799927 .011245728 .12399292 .011245728 .117996219 .011245728 .09498596 .011245728 .07398987 .024276734 .09899902 .029266358 .12098694 .05027771 .12098694 .07827759 .12098694 .105270389 .09899902 .11328125 .083999637 .11328125 .053985597 .11328125 .0289917 .08728027 .0289917 .055267335 .0289917 .009246826 .07899475-.0107421879 .12298584-.0107421879 .18899536-.0107421879 .22499085 .059280397 .22799683 .0652771 .23999024 .028274537 .27598573-.0107421879 .33599855-.0107421879 .43899537-.0107421879 .49598695 .118270877 .49598695 .14328003 .49598695 .1532898 .4869995 .1532898 .48399354 .1532898 .47499085 .1532898 .47299195 .14929199 .47099305 .14228821 .43798829 .03527832 .36999513 .011245728 .33799745 .011245728 .29899598 .011245728 .2829895 .043273927 .2829895 .07727051 .2829895 .09927368 .2889862 .121276859 .2999878 .16529846L.33399964 .30233766Z"/>
<path id="font_2_2" d="M.2889862 .25C.2889862 .32798768 .27799989 .44898988 .22299195 .56199648 .16299439 .68499758 .07699585 .75 .066986087 .75 .06098938 .75 .056991579 .74598696 .056991579 .73999026 .056991579 .7369995 .056991579 .73498538 .07598877 .71699526 .17399597 .6179962 .23098755 .45899964 .23098755 .25 .23098755 .07899475 .19400025-.09700012 .069992069-.2230072 .056991579-.23500061 .056991579-.23701477 .056991579-.2400055 .056991579-.2460022 .06098938-.25 .066986087-.25 .07699585-.25 .16699219-.18200684 .22599793-.055007936 .2769928 .054992677 .2889862 .16600037 .2889862 .25Z"/>
<path id="font_2_4" d="M.68699648 .32714845C.70199587 .32714845 .72099307 .32714845 .72099307 .34713746 .72099307 .36714173 .70199587 .36714173 .6879883 .36714173H.08898926C.07499695 .36714173 .055999757 .36714173 .055999757 .34713746 .055999757 .32714845 .07499695 .32714845 .08999634 .32714845H.68699648M.6879883 .13284302C.70199587 .13284302 .72099307 .13284302 .72099307 .15284729 .72099307 .17285156 .70199587 .17285156 .68699648 .17285156H.08999634C.07499695 .17285156 .055999757 .17285156 .055999757 .15284729 .055999757 .13284302 .07499695 .13284302 .08898926 .13284302H.6879883Z"/>
<path id="font_2_3" d="M.1269989 .07699585 .23298645 .18003845C.3889923 .31811524 .44898988 .3721466 .44898988 .47216798 .44898988 .5860901 .35899354 .6660156 .23699951 .6660156 .12399292 .6660156 .049987794 .57411196 .049987794 .48516847 .049987794 .4291687 .099990848 .4291687 .102996829 .4291687 .11999512 .4291687 .15499878 .44117738 .15499878 .48217774 .15499878 .5081787 .13699341 .5341797 .101989749 .5341797 .09399414 .5341797 .09199524 .5341797 .08898926 .5331726 .11199951 .59806826 .1659851 .63500979 .22399903 .63500979 .31498719 .63500979 .35798646 .5541382 .35798646 .47216798 .35798646 .39215089 .30799867 .31311036 .25299073 .25108338L.06098938 .036987306C.049987794 .025985718 .049987794 .023986817 .049987794 0H.42099L.44898988 .17404175H.42399598C.4189911 .14402771 .4119873 .1000061 .4019928 .084991458 .394989 .07699585 .32899476 .07699585 .30699159 .07699585H.1269989Z"/>
<path id="font_3_1" d="M.24899292 .10601807C.23899842 .072021488 .20599365 .018234253 .15499878 .018234253 .1519928 .018234253 .12199402 .018234253 .100997928 .03215027 .14199829 .04508972 .14498902 .08100891 .14498902 .087020877 .14498902 .10900879 .12799073 .12402344 .10499573 .12402344 .07699585 .12402344 .04798889 .10002136 .04798889 .0630188 .04798889 .01322937 .10398865-.009765625 .15299988-.009765625 .19898987-.009765625 .23999024 .019226075 .2649994 .061019899 .2889862 .008224487 .34399415-.009765625 .38398744-.009765625 .49899293-.009765625 .55999758 .11502075 .55999758 .14305115 .55999758 .15608216 .5469971 .15608216 .5439911 .15608216 .5299988 .15608216 .5289917 .15107727 .5249939 .13905335 .5039978 .07002258 .44400025 .018234253 .3880005 .018234253 .34799195 .018234253 .32699586 .04508972 .32699586 .08302307 .32699586 .10900879 .35099793 .20018006 .3789978 .31140138 .39898683 .38841249 .44400025 .4133911 .47698976 .4133911 .47898866 .4133911 .5099945 .4133911 .5309906 .39941407 .49899293 .39041139 .4869995 .3624115 .4869995 .34440614 .4869995 .32240296 .5039978 .30740357 .5269928 .30740357 .5499878 .30740357 .58299258 .32640077 .58299258 .3684082 .58299258 .4243927 .5189972 .44140626 .47898866 .44140626 .42900086 .44140626 .3889923 .4084015 .36698915 .3704071 .34899903 .4113922 .30299378 .44140626 .24699402 .44140626 .1349945 .44140626 .070999149 .31840516 .070999149 .2883606 .070999149 .27534486 .084991458 .27534486 .08799744 .27534486 .100997928 .27534486 .101989749 .27934266 .10699463 .29237367 .13198853 .3704071 .19499207 .4133911 .24398804 .4133911 .2769928 .4133911 .3039856 .395401 .3039856 .3474121 .3039856 .32740785 .2919922 .27734376 .2829895 .24327088L.24899292 .10601807Z"/>
<path id="font_4_1" d="M.41299439-1.1491852C.41299439-1.1451874 .41099549-1.1431885 .40899659-1.1401825 .36299134-1.0911713 .29499818-1.0101624 .25299073-.84713748 .22999573-.7561188 .22099304-.65309146 .22099304-.56007388 .22099304-.2970276 .28399659-.11299133 .4039917 .017044068 .41299439 .026031495 .41299439 .028030396 .41299439 .030029297 .41299439 .040039064 .40499879 .040039064 .40098573 .040039064 .38598634 .040039064 .33198548-.019973755 .31900025-.034973146 .21699524-.1559906 .1519928-.33602906 .1519928-.5590668 .1519928-.7010956 .1769867-.9021454 .30799867-1.071167 .31799317-1.0831757 .3829956-1.1591797 .40098573-1.1591797 .40499879-1.1591797 .41299439-1.1591797 .41299439-1.1491852Z"/>
<path id="font_5_1" d="M.33499146 .63612368C.33499146 .6630554 .33299256 .6640625 .30499269 .6640625 .24099732 .6014404 .1499939 .6004486 .10899353 .6004486V.5644531C.1329956 .5644531 .19898987 .5644531 .2539978 .592453V.08203125C.2539978 .04899597 .2539978 .035995485 .1539917 .035995485H.115997318V0C.13398743 .0009918213 .25698854 .0039978029 .2939911 .0039978029 .32499696 .0039978029 .45098878 .0009918213 .47299195 0V.035995485H.43499757C.33499146 .035995485 .33499146 .04899597 .33499146 .08203125V.63612368Z"/>
<path id="font_5_2" d="M.5049896 .18203736H.47099305C.46798707 .16001892 .45799256 .100997928 .44499208 .09098816 .43699647 .084991458 .3600006 .084991458 .34599305 .084991458H.1619873C.2669983 .17803955 .3019867 .20603943 .3619995 .25306703 .43598939 .312088 .5049896 .374115 .5049896 .46914674 .5049896 .5900879 .39898683 .6640625 .2709961 .6640625 .14698792 .6640625 .06298828 .57710269 .06298828 .4851532 .06298828 .43414308 .10598755 .42915345 .115997318 .42915345 .13999939 .42915345 .16899109 .44615174 .16899109 .48214723 .16899109 .5001526 .1619873 .53515627 .10998535 .53515627 .14099121 .6060791 .20899964 .62805178 .2559967 .62805178 .35598756 .62805178 .4079895 .5501404 .4079895 .46914674 .4079895 .38212586 .34599305 .3130951 .31399537 .27708436L.07299805 .038986207C.06298828 .02999878 .06298828 .027999878 .06298828 0H.47499085L.5049896 .18203736Z"/>
<path id="font_4_2" d="M.30499269-.56007388C.30499269-.41804505 .27999879-.2170105 .14898682-.047973634 .13899231-.035964967 .07398987 .040039064 .055999757 .040039064 .050994874 .040039064 .04399109 .038024904 .04399109 .030029297 .04399109 .026031495 .04598999 .023025513 .049987794 .02003479 .09799194-.031967164 .16299439-.11299133 .20399475-.27201844 .22698975-.3630371 .23599243-.4660492 .23599243-.5590668 .23599243-.6600952 .22698975-.7621155 .20098877-.86013796 .16299439-1.0001679 .10398865-1.0801697 .052993776-1.1361847 .04399109-1.1451874 .04399109-1.1471863 .04399109-1.1491852 .04399109-1.1571808 .050994874-1.1591797 .055999757-1.1591797 .070999149-1.1591797 .12599182-1.098175 .13798523-1.0841827 .23999024-.96315 .30499269-.7831116 .30499269-.56007388Z"/>
</defs>
<path transform="matrix(1.00003,0,0,-1.00003,79.545948,69.83262)" stroke-width=".3985" stroke-linecap="butt" stroke-miterlimit="10" stroke-linejoin="miter" fill="none" stroke="#000000" d="M-64.44583 0H64.44583"/>
<path transform="matrix(-1.00003,-0,0,1.00003,15.098175,69.83262)" d="M3.58653 0C2.52383 .19925 .797 .797-.3985 1.49438V-1.49438C.797-.797 2.52383-.19925 3.58653 0"/>
<path transform="matrix(1.00003,0,0,-1.00003,143.99372,69.83262)" d="M3.58653 0C2.52383 .19925 .797 .797-.3985 1.49438V-1.49438C.797-.797 2.52383-.19925 3.58653 0"/>
<path transform="matrix(1.00003,0,0,-1.00003,79.545948,69.83262)" stroke-width=".3985" stroke-linecap="butt" stroke-miterlimit="10" stroke-linejoin="miter" fill="none" stroke="#000000" d="M0-64.44583V64.44583"/>
<path transform="matrix(0,1.00003,1.00003,0,79.545948,134.2804)" d="M3.58653 0C2.52383 .19925 .797 .797-.3985 1.49438V-1.49438C.797-.797 2.52383-.19925 3.58653 0"/>
<path transform="matrix(0,-1.00003,-1.00003,-0,79.545948,5.3848497)" d="M3.58653 0C2.52383 .19925 .797 .797-.3985 1.49438V-1.49438C.797-.797 2.52383-.19925 3.58653 0"/>
<path transform="matrix(1.00003,0,0,-1.00003,79.545948,69.83262)" stroke-width=".79701" stroke-linecap="butt" stroke-miterlimit="10" stroke-linejoin="miter" fill="none" stroke="#000000" d="M0 14.17339C0 14.17339 .22751 14.33165 .31487 14.39311 .40225 14.45459 .54239 14.55408 .62976 14.61653 .71713 14.67896 .85728 14.77979 .94464 14.84317 1.03203 14.90659 1.17215 15.00912 1.25954 15.0735 1.34691 15.1379 1.48705 15.24191 1.57442 15.3073 1.6618 15.37268 1.80194 15.47835 1.88931 15.54474 1.97668 15.61115 2.11682 15.71844 2.20421 15.78589 2.29156 15.85335 2.43172 15.96245 2.51909 16.03091 2.60646 16.0994 2.7466 16.2099 2.83397 16.2794 2.92134 16.34892 3.0615 16.46135 3.14885 16.53203 3.23624 16.60268 3.37639 16.71695 3.46375 16.78874 3.55113 16.8605 3.69125 16.97649 3.77864 17.04933 3.86601 17.1222 4.00615 17.23987 4.09352 17.31383 4.18091 17.3878 4.32103 17.50734 4.40842 17.58243 4.49577 17.65755 4.63593 17.77887 4.7233 17.85516 4.81067 17.93143 4.95082 18.05472 5.0382 18.1322 5.12556 18.20967 5.2657 18.33488 5.35307 18.41356 5.44044 18.49225 5.5806 18.61937 5.66795 18.69925 5.75534 18.77911 5.89548 18.90814 5.98285 18.98927 6.07022 19.0704 6.21037 19.20168 6.29773 19.28404 6.38512 19.3664 6.52525 19.49927 6.61263 19.58292 6.70001 19.66658 6.84013 19.80203 6.92752 19.88701 7.01488 19.97198 7.15503 20.10912 7.2424 20.19539 7.32977 20.2817 7.46991 20.42131 7.5573 20.509 7.64465 20.59666 7.7848 20.73831 7.87218 20.82735 7.95955 20.91637 8.0997 21.06029 8.18706 21.15065 8.27444 21.24103 8.41458 21.38702 8.50195 21.47874 8.58932 21.57048 8.72948 21.7186 8.81683 21.8118 8.90422 21.905 9.04434 22.0558 9.13173 22.15048 9.2191 22.24513 9.35924 22.39804 9.44661 22.49411 9.534 22.5902 9.67413 22.74542 9.7615 22.84297 9.84888 22.94052 9.98901 23.0981 10.0764 23.1972 10.16376 23.29633 10.30391 23.45667 10.39128 23.5573 10.47865 23.65793 10.61879 23.8203 10.70616 23.92259 10.79353 24.02487 10.93369 24.1907 11.02104 24.29456 11.10843 24.3984 11.24858 24.5657 11.33594 24.67108 11.42332 24.77646 11.56345 24.94707 11.65083 25.0541 11.7382 25.16112 11.87834 25.33385 11.96571 25.44252 12.0531 25.55121 12.19322 25.727 12.28061 25.83743 12.36797 25.94785 12.50812 26.1263 12.59549 26.23839 12.68286 26.3505 12.823 26.53157 12.91039 26.64542 12.99774 26.75925 13.1379 26.94333 13.22527 27.0589 13.31264 27.17448 13.45279 27.36105 13.54015 27.47849 13.62753 27.59589 13.76767 27.78595 13.85504 27.90517 13.94241 28.02438 14.08257 28.21663 14.16992 28.3377 14.25731 28.45879 14.39743 28.65483 14.48482 28.77782 14.57219 28.9008 14.71233 29.09932 14.79971 29.2242 14.88707 29.34909 15.02722 29.55109 15.1146 29.67793 15.20197 29.80476 15.3421 30.00961 15.42949 30.13837 15.51685 30.26712 15.657 30.47514 15.74437 30.60594 15.83174 30.73674 15.97188 30.94826 16.05925 31.08109 16.14662 31.21393 16.28677 31.42854 16.37415 31.56335 16.46152 31.69818 16.60167 31.9159 16.68903 32.05278 16.77641 32.18967 16.91653 32.41089 17.00392 32.54999 17.0913 32.6891 17.23143 32.91415 17.3188 33.0554 17.40619 33.19664 17.54631 33.42459 17.6337 33.56796 17.72105 33.71133 17.8612 33.94302 17.9486 34.08875 18.03595 34.23445 18.1761 34.47017 18.26347 34.61816 18.35085 34.76616 18.49098 35.00513 18.57835 35.15538 18.66573 35.30562 18.80588 35.54855 18.89323 35.70102 18.98062 35.85349 19.12076 36.09943 19.20813 36.25423 19.2955 36.40903 19.43564 36.6594 19.52303 36.81676 19.6104 36.9741 19.75053 37.22867 19.8379 37.38835 19.9253 37.54805 20.06541 37.80544 20.1528 37.96774 20.24016 38.13004 20.38031 38.39333 20.46768 38.55815 20.55505 38.72298 20.69519 38.98851 20.78258 39.1557 20.86993 39.32289 21.01009 39.59334 21.09746 39.7632 21.18483 39.93306 21.32498 40.20743 21.41234 40.38 21.49973 40.55257 21.63986 40.83167 21.72723 41.00696 21.8146 41.18225 21.95476 41.46547 22.04211 41.64345 22.1295 41.82141 22.26962 42.1089 22.35701 42.28966 22.44438 42.47041 22.58452 42.76273 22.6719 42.94624 22.75926 43.12978 22.89941 43.42609 22.98679 43.61235 23.07416 43.79865 23.2143 44.09978 23.30168 44.28885 23.38904 44.4779 23.52919 44.78294 23.61656 44.97508 23.70393 45.1672 23.84407 45.47833 23.93144 45.67361 24.01881 45.8689 24.15897 46.18436 24.24632 46.38255 24.33371 46.58073 24.47386 46.90085 24.56122 47.10208 24.6486 47.30328 24.78873 47.62848 24.87611 47.83286 24.96349 48.03723 25.10362 48.36748 25.191 48.57509 25.27838 48.7827 25.4185 49.11845 25.50589 49.32921 25.59325 49.54 25.7334 49.88008 25.82077 50.09416 25.90814 50.30821 26.0483 50.6547 26.13567 50.87207 26.22304 51.08948 26.36317 51.44026 26.45055 51.66103 26.53792 51.88177 26.67807 52.23915 26.76543 52.46317 26.85281 52.6872 26.99295 53.04808 27.08032 53.2757 27.1677 53.50328 27.30783 53.87228 27.3952 54.10356 27.48259 54.33485 27.62273 54.70804 27.7101 54.94269 27.79749 55.17734 27.9376 55.55653 28.025 55.7948 28.11235 56.03304 28.2525 56.41771 28.33987 56.65987 28.42725 56.90202 28.56738 57.29424 28.65477 57.54008 28.74213 57.78593 28.88228 58.18204 28.96964 58.43176 29.05702 58.68147 29.19717 59.08607 29.28453 59.33986 29.37192 59.59366 29.51205 60.00345 29.59943 60.26097 29.6868 60.51848 29.82695 60.93442 29.9143 61.19589 30.0017 61.45737 30.14182 61.88007 30.2292 62.14552 30.31657 62.411 30.45671 62.83968 30.54408 63.10922 30.63145 63.37877 30.7716 63.81453 30.85898 64.08829 30.94635 64.36201 31.17387 65.08224 31.17387 65.08224"/>
<path transform="matrix(1.00003,0,0,-1.00003,79.545948,69.83262)" stroke-width=".79701" stroke-linecap="butt" stroke-miterlimit="10" stroke-linejoin="miter" fill="none" stroke="#000000" d="M0 14.17339C0 14.17339-.31017 13.95772-.42928 13.8771-.5484 13.79648-.73944 13.67113-.85857 13.59229-.97769 13.51343-1.16875 13.38643-1.28787 13.30875-1.407 13.23106-1.59804 13.10844-1.71716 13.03236-1.83629 12.95625-2.02733 12.83461-2.14645 12.76028-2.26558 12.68597-2.45663 12.56941-2.57576 12.49666-2.69487 12.42389-2.88593 12.30739-3.00505 12.23584-3.12416 12.16426-3.31522 12.05064-3.43433 11.98085-3.55345 11.91106-3.7445 11.80084-3.86363 11.73279-3.98276 11.66475-4.1738 11.55742-4.29292 11.49036-4.41205 11.4233-4.60309 11.31511-4.72221 11.24942-4.84134 11.18375-5.0324 11.08107-5.15152 11.01694-5.27065 10.95282-5.46169 10.84998-5.58081 10.78728-5.69994 10.72456-5.89098 10.62648-6.0101 10.56494-6.12921 10.5034-6.32028 10.40405-6.43939 10.34369-6.55852 10.28333-6.74956 10.18858-6.86868 10.12982-6.98781 10.07103-7.17885 9.97784-7.29797 9.92003-7.4171 9.8622-7.60815 9.76971-7.72728 9.71306-7.8464 9.65642-8.03745 9.56715-8.15657 9.51172-8.2757 9.45627-8.46674 9.36766-8.58586 9.3134-8.70499 9.25911-8.89604 9.1736-9.01517 9.12048-9.13428 9.06738-9.32533 8.98251-9.44444 8.93059-9.56357 8.8787-9.75462 8.79726-9.87375 8.74632-9.99287 8.69542-10.18391 8.61372-10.30304 8.56358-10.42216 8.51344-10.6132 8.43372-10.73233 8.38495-10.85146 8.3362-11.04251 8.25975-11.16164 8.21214-11.28076 8.16457-11.4718 8.08896-11.59093 8.04195-11.71005 7.99492-11.9011 7.91925-12.02022 7.87326-12.13933 7.82727-12.3304 7.75523-12.44951 7.7104-12.56863 7.66557-12.75969 7.59421-12.8788 7.55014-12.99792 7.5061-13.18896 7.43597-13.30809 7.39293-13.42722 7.34987-13.61827 7.2819-13.7374 7.2398-13.85652 7.19772-14.04756 7.13078-14.16669 7.0895-14.28581 7.0482-14.47685 6.98273-14.59598 6.94221-14.7151 6.90172-14.90616 6.83727-15.02528 6.79755-15.1444 6.75781-15.33545 6.69461-15.45456 6.65587-15.57368 6.61714-15.76474 6.5561-15.88385 6.51833-16.00298 6.48055-16.19403 6.42075-16.31316 6.38359-16.43228 6.34645-16.62332 6.28705-16.74245 6.2506-16.86157 6.21414-17.05261 6.15654-17.17174 6.12082-17.29086 6.08513-17.48192 6.02809-17.60104 5.99324-17.72017 5.95836-17.91121 5.90361-18.03033 5.86952-18.14944 5.83543-18.3405 5.781-18.45963 5.74756-18.57874 5.7141-18.7698 5.66112-18.88892 5.62839-19.00804 5.59564-19.19908 5.54376-19.3182 5.51161-19.43733 5.47945-19.62839 5.42815-19.74751 5.39655-19.86664 5.36496-20.05768 5.31468-20.1768 5.28386-20.29593 5.25305-20.48697 5.20444-20.6061 5.17444-20.72522 5.14444-20.91628 5.09706-21.0354 5.0676-21.15453 5.03815-21.34557 4.99098-21.46469 4.96205-21.5838 4.93314-21.77486 4.88745-21.89397 4.85912-22.01309 4.8308-22.20415 4.78561-22.32327 4.7579-22.4424 4.73018-22.63344 4.68637-22.75256 4.65927-22.87169 4.63219-23.06273 4.5892-23.18185 4.5626-23.30098 4.53604-23.49203 4.49368-23.61116 4.46767-23.73029 4.44167-23.92133 4.40059-24.04045 4.3751-24.15958 4.34964-24.35062 4.30899-24.46974 4.28406-24.58885 4.25912-24.77992 4.21983-24.89903 4.19539-25.01816 4.17093-25.2092 4.13177-25.32832 4.10779-25.44745 4.08382-25.63849 4.04604-25.75761 4.02258-25.87674 3.99916-26.0678 3.9618-26.18692 3.93889-26.30605 3.91595-26.49709 3.87976-26.61621 3.85736-26.73534 3.83495-26.92638 3.7993-27.0455 3.77733-27.16463 3.75539-27.35568 3.7207-27.47481 3.69905-27.59392 3.67738-27.78497 3.64236-27.90408 3.6212-28.02321 3.6-28.21425 3.56699-28.33337 3.54637-28.4525 3.52576-28.64355 3.4928-28.76268 3.47261-28.8818 3.45242-29.07285 3.42062-29.19197 3.40082-29.3111 3.38101-29.50215 3.34932-29.62128 3.32988-29.7404 3.31044-29.93144 3.27966-30.05057 3.26068-30.1697 3.2417-30.36073 3.21158-30.47986 3.19298-30.59897 3.17438-30.79004 3.14476-30.90915 3.12659-31.02827 3.1084-31.21933 3.07973-31.33844 3.06192-31.45757 3.0441-31.6486 3.01558-31.76773 2.99812-31.88686 2.98065-32.07791 2.95313-32.19704 2.93605-32.31616 2.91899-32.5072 2.8918-32.62633 2.87506-32.74545 2.85832-32.9365 2.83179-33.05562 2.81537-33.17474 2.79897-33.3658 2.77281-33.48492 2.75676-33.60403 2.7407-33.79509 2.71538-33.91422 2.69966-34.03333 2.68394-34.22438 2.65886-34.34349 2.64343-34.46262 2.62802-34.65367 2.60359-34.7728 2.58852-34.89192 2.57341-35.08296 2.54942-35.20209 2.53467-35.32121 2.5199-35.51225 2.49657-35.63138 2.48212-35.7505 2.46765-35.94156 2.44458-36.06068 2.4304-36.17981 2.41626-36.37085 2.3939-36.48997 2.38004-36.60909 2.36613-36.80014 2.34384-36.91927 2.33029-37.03838 2.31673-37.22945 2.29552-37.34856 2.28227-37.46768 2.26901-37.65872 2.24771-37.77785 2.2347-37.89697 2.22166-38.08801 2.20116-38.20714 2.18842-38.32626 2.17567-38.51732 2.15526-38.63644 2.14278-38.75557 2.1303-38.94661 2.11066-39.06573 2.09845-39.18486 2.08624-39.37592 2.06676-39.49504 2.05475-39.61417 2.04276-39.8052 2.02364-39.92433 2.01193-40.04344 2.00024-40.2345 1.98187-40.3536 1.97041-40.47273 1.95895-40.66379 1.9406-40.78291 1.92932-40.90204 1.91805-41.09308 1.9001-41.2122 1.8891-41.33133 1.8781-41.52237 1.86069-41.6415 1.84995-41.76062 1.8392-41.95168 1.82222-42.0708 1.81168-42.18993 1.8011-42.50009 1.77382-42.50009 1.77382"/>
<use data-text="f" xlink:href="#font_1_1" transform="matrix(9.962899,0,0,-9.962899,100.72958,43.97584)"/>
<use data-text="(" xlink:href="#font_2_1" transform="matrix(9.962899,0,0,-9.962899,106.67976,43.97584)"/>
<use data-text="x" xlink:href="#font_1_2" transform="matrix(9.962899,0,0,-9.962899,110.55386,43.97584)"/>
<use data-text=")" xlink:href="#font_2_2" transform="matrix(9.962899,0,0,-9.962899,116.24803,43.97584)"/>
<use data-text="=" xlink:href="#font_2_4" transform="matrix(9.962899,0,0,-9.962899,122.87338,43.97584)"/>
<use data-text="2" xlink:href="#font_2_3" transform="matrix(9.962899,0,0,-9.962899,133.38423,43.97584)"/>
<use data-text="x" xlink:href="#font_3_1" transform="matrix(6.9740097,0,0,-6.9740097,138.3877,40.36073)"/>
<path transform="matrix(1.00003,0,0,-1.00003,79.545948,69.83262)" stroke-width=".79701" stroke-linecap="butt" stroke-dasharray="2.98883,2.98883" stroke-miterlimit="10" stroke-linejoin="miter" fill="none" stroke="#000000" d="M0 14.17339-.2861 14.37279-.57222 14.57523-.85835 14.78046-1.14447 14.98872-1.4306 15.20003-1.71672 15.41412-2.00285 15.63147-2.28897 15.85164-2.5751 16.07483-2.86122 16.30125-3.14735 16.53116-3.43347 16.76385-3.7196 16.9998-4.0057 17.23964-4.29184 17.4823-4.57796 17.72864-4.86409 17.97842-5.1502 18.23189-5.43634 18.4886-5.72246 18.74922-6.00859 19.01349-6.29471 19.28145-6.58084 19.55243-6.86696 19.82838-7.15309 20.10759-7.43921 20.39091-7.72533 20.67833-8.01144 20.96965-8.29758 21.26506-8.5837 21.56459-8.86983 21.86847-9.15594 22.17664-9.44208 22.48915-9.7282 22.80554-10.01433 23.12671-10.30045 23.45306-10.58658 23.78331-10.8727 24.1183-11.15883 24.45827-11.44493 24.8028-11.73106 25.15228-12.01718 25.50655-12.30331 25.86641-12.58943 26.23059-12.87556 26.59999-13.16168 26.97414-13.44781 27.35521-13.73393 27.73994-14.02007 28.13097-14.30618 28.52716-14.5923 28.92941-14.87843 29.33688-15.16455 29.7506-15.45067 30.16951-15.73679 30.59468-16.02292 31.02528-16.30904 31.46259-16.59517 31.90593-16.88129 32.35556-17.16742 32.81146-17.45354 33.2736-17.73967 33.7427-18.02579 34.21785-18.31192 34.70056-18.59804 35.1891-18.88417 35.68459-19.17027 36.18741-19.4564 36.69716-19.74252 37.21425-20.02866 37.73828-20.31477 38.27008-20.6009 38.80988-20.88702 39.35684-21.17316 39.91092-21.45927 40.4732-21.7454 41.0433-22.03152 41.6216-22.31766 42.20769-22.60378 42.80222-22.8899 43.4054-23.17601 44.017-23.46214 44.63791-23.74826 45.26552-24.0344 45.90416-24.32051 46.5506-24.60664 47.20718-24.89276 47.87221-25.1789 48.54675-25.46501 49.23038-25.75114 49.92374-26.03726 50.6279-26.3234 51.34116-26.60951 52.06436-26.89563 52.79774-27.18175 53.54149-27.46788 54.29626-27.754 55.06035-28.04013 55.83632-28.32625 56.62419"/>
<path transform="matrix(1.00003,0,0,-1.00003,79.545948,69.83262)" stroke-width=".79701" stroke-linecap="butt" stroke-dasharray="2.98883,2.98883" stroke-miterlimit="10" stroke-linejoin="miter" fill="none" stroke="#000000" d="M0 14.17339 .57245 13.78085 1.14491 13.40086 1.71738 13.03236 2.28984 12.67249 2.8623 12.32234 3.43477 11.98085 4.00723 11.6506 4.5797 11.33011 5.15216 11.01694 5.72462 10.71222 6.29709 10.41745 6.86955 10.1283 7.44202 9.8506 8.01448 9.57703 8.58694 9.3134 9.15941 9.05539 9.73187 8.80603 10.30434 8.56358 10.8768 8.3283 11.44926 8.0973 12.02173 7.87326 12.5942 7.65656 13.16666 7.44395 13.73912 7.2383 14.31158 7.03996 14.88405 6.84424 15.45651 6.65587 16.02898 6.47162 16.60144 6.29362 17.1739 6.1204 17.74637 5.95107 18.31883 5.78755 18.8913 5.62708 19.46378 5.47223 20.03622 5.32085 20.60869 5.174 21.18115 5.0317 21.75362 4.89198 22.3261 4.75746 22.89854 4.62599 23.47101 4.49817 24.04347 4.37445 24.61594 4.25336 25.18842 4.13614 25.76086 4.02258 26.33333 3.91057 26.90579 3.80286 27.47826 3.69797 28.05074 3.59589 28.62318 3.49597 29.19565 3.40018 29.76811 3.3063 30.34058 3.21483 30.91306 3.12616 31.4855 3.03964 32.05797 2.95616 32.63043 2.87442 33.2029 2.79526 33.77538 2.71783 34.34782 2.643 34.92029 2.5699 35.49275 2.49896 36.06522 2.42976 36.63768 2.36295 37.21014 2.29762 37.78261 2.23404 38.35507 2.1724 38.92755 2.1125 39.5 2.05432 40.07246 1.99722 40.64493 1.94252 41.21739 1.88866 41.78987 1.83655 42.36232 1.78593 42.93478 1.73662 43.50725 1.68861 44.07971 1.64189 44.65219 1.5967 45.22464 1.55258 45.7971 1.50998 46.36957 1.46823 46.94203 1.42758 47.51451 1.38823 48.08696 1.34995 48.65942 1.31252 49.23189 1.27641 49.80435 1.24117 50.37683 1.20677 50.94928 1.17346 51.52174 1.14124 52.09421 1.10988 52.66667 1.07895 53.23915 1.04933 53.8116 1.02013 54.38406 .99222 54.95653 .96454 55.52899 .93817 56.10147 .9122 56.67392 .88712"/>
<use data-text="f" xlink:href="#font_1_1" transform="matrix(9.962899,0,0,-9.962899,1.2175903,44.24585)"/>
<use data-text="(" xlink:href="#font_2_1" transform="matrix(9.962899,0,0,-9.962899,7.1677706,44.24585)"/>
<use data-text="x" xlink:href="#font_1_2" transform="matrix(9.962899,0,0,-9.962899,11.04187,44.24585)"/>
<use data-text=")" xlink:href="#font_2_2" transform="matrix(9.962899,0,0,-9.962899,16.736039,44.24585)"/>
<use data-text="=" xlink:href="#font_2_4" transform="matrix(9.962899,0,0,-9.962899,23.36139,44.24585)"/>
<use data-text="(" xlink:href="#font_4_1" transform="matrix(9.962899,0,0,-9.962899,33.89456,36.175607)"/>
<use data-text="1" xlink:href="#font_5_1" transform="matrix(6.9740097,0,0,-6.9740097,39.655748,40.32273)"/>
<path transform="matrix(1.00003,0,0,-1.00003,-163.33036,-9.590767)" stroke-width=".3985" stroke-linecap="butt" stroke-miterlimit="10" stroke-linejoin="miter" fill="none" stroke="#000000" d="M202.98-51.344H206.952"/>
<use data-text="2" xlink:href="#font_5_2" transform="matrix(6.9740097,0,0,-6.9740097,39.655748,47.680955)"/>
<use data-text=")" xlink:href="#font_4_2" transform="matrix(9.962899,0,0,-9.962899,44.822908,36.175607)"/>
<use data-text="x" xlink:href="#font_3_1" transform="matrix(6.9740097,0,0,-6.9740097,49.389039,38.24067)"/>
</svg>
