<svg xmlns="http://www.w3.org/2000/svg" xmlns:xlink="http://www.w3.org/1999/xlink" xmlns:inkscape="http://www.inkscape.org/namespaces/inkscape" version="1.1" width="106" height="219" viewBox="0 0 106 219">
<path transform="matrix(1.00006,0,0,-1,17.82193,187.614)" stroke-width=".09962" stroke-linecap="butt" stroke-miterlimit="10" stroke-linejoin="miter" fill="none" stroke="#929292" d="M-15.87518-14.17426H86.74654M-15.87518-11.3394H86.74654M-15.87518-8.50455H86.74654M-15.87518-5.6697H86.74654M-15.87518-2.83484H86.74654M-15.87518 0H86.74654M-15.87518 2.83484H86.74654M-15.87518 5.6697H86.74654M-15.87518 8.50455H86.74654M-15.87518 11.3394H86.74654M-15.87518 14.17426H86.74654M-15.87518 17.00911H86.74654M-15.87518 19.84395H86.74654M-15.87518 22.67882H86.74654M-15.87518 25.51367H86.74654M-15.87518 28.34853H86.74654M-15.87518 31.18338H86.74654M-15.87518 34.01823H86.74654M-15.87518 36.85309H86.74654M-15.87518 39.68793H86.74654M-15.87518 42.5228H86.74654M-15.87518 45.35765H86.74654M-15.87518 48.1925H86.74654M-15.87518 51.02736H86.74654M-15.87518 53.86221H86.74654M-15.87518 56.69707H86.74654M-15.87518 59.5319H86.74654M-15.87518 62.36678H86.74654M-15.87518 65.20163H86.74654M-15.87518 68.03648H86.74654M-15.87518 70.87134H86.74654M-15.87518 73.70619H86.74654M-15.87518 76.54105H86.74654M-15.87518 79.37589H86.74654M-15.87518 82.21075H86.74654M-15.87518 85.04561H86.74654M-15.87518 87.88046H86.74654M-15.87518 90.7153H86.74654M-15.87518 93.55017H86.74654M-15.87518 96.38503H86.74654M-15.87518 99.21986H86.74654M-15.87518 102.05473H86.74654M-15.87518 104.88959H86.74654M-15.87518 107.72444H86.74654M-15.87518 110.55928H86.74654M-15.87518 113.39415H86.74654M-15.87518 116.229H86.74654M-15.87518 119.06384H86.74654M-15.87518 121.89871H86.74654M-15.87518 124.73357H86.74654M-15.87518 127.5684H86.74654M-15.87518 130.40326H86.74654M-15.87518 133.23813H86.74654M-15.87518 136.07299H86.74654M-15.87518 138.90782H86.74654M-15.87518 141.74269H86.74654M-15.87518 144.57755H86.74654M-15.87518 147.41239H86.74654M-15.87518 150.24724H86.74654M-15.87518 153.0821H86.74654M-15.87518 155.91696H86.74654M-15.87518 158.7518H86.74654M-15.87518 161.58667H86.74654M-15.87518 164.42153H86.74654M-15.87518 167.25637H86.74654M-15.87518 170.09122H86.74654M-15.87518 172.92609H86.74654M-15.87518 175.76094H86.74654M-15.87518 178.59578H86.74654M-15.87518 181.43064H86.74654M-15.87518 184.2655H86.74654M-14.17426-15.87518V185.96642M-11.3394-15.87518V185.96642M-8.50455-15.87518V185.96642M-5.6697-15.87518V185.96642M-2.83484-15.87518V185.96642M0-15.87518V185.96642M2.83484-15.87518V185.96642M5.6697-15.87518V185.96642M8.50455-15.87518V185.96642M11.3394-15.87518V185.96642M14.17426-15.87518V185.96642M17.00911-15.87518V185.96642M19.84395-15.87518V185.96642M22.67882-15.87518V185.96642M25.51367-15.87518V185.96642M28.34853-15.87518V185.96642M31.18338-15.87518V185.96642M34.01823-15.87518V185.96642M36.85309-15.87518V185.96642M39.68793-15.87518V185.96642M42.5228-15.87518V185.96642M45.35765-15.87518V185.96642M48.1925-15.87518V185.96642M51.02736-15.87518V185.96642M53.86221-15.87518V185.96642M56.69707-15.87518V185.96642M59.5319-15.87518V185.96642M62.36678-15.87518V185.96642M65.20163-15.87518V185.96642M68.03648-15.87518V185.96642M70.87134-15.87518V185.96642M73.70619-15.87518V185.96642M76.54105-15.87518V185.96642M79.37589-15.87518V185.96642M82.21075-15.87518V185.96642M85.04561-15.87518V185.96642M86.74654 185.96642"/>
<path transform="matrix(1.00006,0,0,-1,17.82193,187.614)" stroke-width=".3985" stroke-linecap="butt" stroke-miterlimit="10" stroke-linejoin="miter" fill="none" stroke="#000000" d="M0-10.87122V180.96247"/>
<path transform="matrix(0,1,1.00006,0,17.82193,198.48522)" d="M3.58653 0C2.52383 .19925 .797 .797-.3985 1.49438V-1.49438C.797-.797 2.52383-.19925 3.58653 0"/>
<path transform="matrix(0,-1,-1.00006,-0,17.82193,6.651535)" d="M3.58653 0C2.52383 .19925 .797 .797-.3985 1.49438V-1.49438C.797-.797 2.52383-.19925 3.58653 0"/>
<path transform="matrix(1.00006,0,0,-1,17.82193,187.614)" stroke-width=".3985" stroke-linecap="butt" stroke-miterlimit="10" stroke-linejoin="miter" fill="none" stroke="#000000" d="M-10.87122 0H81.74257"/>
<path transform="matrix(-1.00006,-0,0,1,6.950058,187.614)" d="M3.58653 0C2.52383 .19925 .797 .797-.3985 1.49438V-1.49438C.797-.797 2.52383-.19925 3.58653 0"/>
<path transform="matrix(1.00006,0,0,-1,99.5694,187.614)" d="M3.58653 0C2.52383 .19925 .797 .797-.3985 1.49438V-1.49438C.797-.797 2.52383-.19925 3.58653 0"/>
<path transform="matrix(1.00006,0,0,-1,17.82193,187.614)" stroke-width="1.19553" stroke-linecap="butt" stroke-dasharray="2.98883,2.98883" stroke-miterlimit="10" stroke-linejoin="miter" fill="none" stroke="#ff0000" d="M-14.17426 0H0"/>
<path transform="matrix(1.00006,0,0,-1,17.82193,187.614)" stroke-width="1.19553" stroke-linecap="butt" stroke-miterlimit="10" stroke-linejoin="miter" fill="none" stroke="#ff0000" d="M0 0H70.87134"/>
<path transform="matrix(1.00006,0,0,-1,17.82193,187.614)" stroke-width="1.19553" stroke-linecap="butt" stroke-dasharray="2.98883,2.98883" stroke-miterlimit="10" stroke-linejoin="miter" fill="none" stroke="#ff0000" d="M70.87134 0H85.04561"/>
<path transform="matrix(1.00006,0,0,-1,17.82193,187.614)" d="M2.989 0C2.989 1.65079 1.65079 2.989 0 2.989-1.65079 2.989-2.989 1.65079-2.989 0-2.989-1.65079-1.65079-2.989 0-2.989 1.65079-2.989 2.989-1.65079 2.989 0ZM0 0" fill="#ffffff"/>
<path transform="matrix(1.00006,0,0,-1,17.82193,187.614)" stroke-width="1.19553" stroke-linecap="butt" stroke-miterlimit="10" stroke-linejoin="miter" fill="none" stroke="#ff0000" d="M2.989 0C2.989 1.65079 1.65079 2.989 0 2.989-1.65079 2.989-2.989 1.65079-2.989 0-2.989-1.65079-1.65079-2.989 0-2.989 1.65079-2.989 2.989-1.65079 2.989 0ZM0 0"/>
<path transform="matrix(1.00006,0,0,-1,17.82193,187.614)" d="M73.86035 0C73.86035 1.65079 72.52214 2.989 70.87134 2.989 69.22055 2.989 67.88232 1.65079 67.88232 0 67.88232-1.65079 69.22055-2.989 70.87134-2.989 72.52214-2.989 73.86035-1.65079 73.86035 0ZM70.87134 0" fill="#ffffff"/>
<path transform="matrix(1.00006,0,0,-1,17.82193,187.614)" stroke-width="1.19553" stroke-linecap="butt" stroke-miterlimit="10" stroke-linejoin="miter" fill="none" stroke="#ff0000" d="M73.86035 0C73.86035 1.65079 72.52214 2.989 70.87134 2.989 69.22055 2.989 67.88232 1.65079 67.88232 0 67.88232-1.65079 69.22055-2.989 70.87134-2.989 72.52214-2.989 73.86035-1.65079 73.86035 0ZM70.87134 0"/>
<path transform="matrix(1.00006,0,0,-1,17.82193,187.614)" stroke-width=".79701" stroke-linecap="butt" stroke-miterlimit="10" stroke-linejoin="miter" fill="none" stroke="#000000" d="M-2.83484-29.48245C-2.83484-29.48245-.53062-5.23555 .35434 3.52586 1.23933 12.28731 2.65855 25.69896 3.54356 33.66393 4.42854 41.62888 5.84776 53.76326 6.73277 60.93175 7.61775 68.10022 9.03697 78.95732 9.92197 85.32932 10.80698 91.70132 12.22618 101.28116 13.11118 106.85667 13.99619 112.43219 15.4154 120.73471 16.30038 125.51373 17.1854 130.29276 18.60461 137.31803 19.48961 141.30055 20.3746 145.28311 21.79382 151.03108 22.67882 154.21715 23.5638 157.40322 24.98303 161.87392 25.86803 164.26349 26.75302 166.65308 28.17224 169.84651 29.05724 171.43962 29.94223 173.03272 31.36147 174.94887 32.24644 175.74549 33.13144 176.5421 34.55067 177.18096 35.43565 177.18109 36.32065 177.18122 37.73988 176.54279 38.62488 175.74645 39.50986 174.95009 40.92908 173.03438 41.81409 171.44156 42.69908 169.84874 44.11829 166.65576 45.0033 164.26645 45.88829 161.87712 47.30751 157.40685 48.1925 154.22104 49.0775 151.03525 50.49672 145.28772 51.38171 141.30545 52.26671 137.32317 53.68593 130.29834 54.57092 125.51956 55.45592 120.74081 56.87514 112.4387 57.76013 106.86345 58.64513 101.28822 60.06435 91.70883 60.94934 85.3371 61.83435 78.9654 63.25357 68.10873 64.13855 60.94052 65.02354 53.77231 66.44278 41.63835 67.32776 33.67365 68.21275 25.70895 69.63199 12.29773 70.51698 3.53654 71.40196-5.22461 73.70619-29.47078 73.70619-29.47078"/>
</svg>
