<svg xmlns="http://www.w3.org/2000/svg" xmlns:xlink="http://www.w3.org/1999/xlink" xmlns:inkscape="http://www.inkscape.org/namespaces/inkscape" version="1.1" width="156" height="159" viewBox="0 0 156 159">
<defs>
<path id="font_1_1" d="M.45999146 .31976319C.45999146 .39982606 .45498658 .47988893 .41999818 .5539398 .37399293 .65000918 .2919922 .6660156 .25 .6660156 .18998719 .6660156 .116989139 .64001467 .07598877 .54693606 .04399109 .47789 .038986207 .39982606 .038986207 .31976319 .038986207 .24472046 .042999269 .15464783 .083999637 .07859802 .1269989-.0024719239 .19999695-.022460938 .24899292-.022460938 .30299378-.022460938 .3789978-.0014648438 .4229889 .09359741 .45498658 .16265869 .45999146 .2407074 .45999146 .31976319M.24899292-.00047302247C.20999146-.00047302247 .15098572 .024551392 .1329956 .12062073 .12199402 .18066406 .12199402 .2727356 .12199402 .3317871 .12199402 .39582826 .12199402 .46188355 .12998963 .5159149 .14898682 .63500979 .22399903 .64401248 .24899292 .64401248 .28199769 .64401248 .34799195 .6259918 .36698915 .52693179 .3769989 .47088624 .3769989 .39482118 .3769989 .3317871 .3769989 .25672914 .3769989 .18867493 .3659973 .12461853 .35099793 .029556275 .2939911-.00047302247 .24899292-.00047302247Z"/>
<path id="font_1_2" d="M.2939911 .64004519C.2939911 .66400149 .2939911 .6660156 .2709961 .6660156 .20899964 .60227969 .12098694 .60227969 .08898926 .60227969V.57128909C.10899353 .57128909 .16799927 .57128909 .21998596 .5972748V.07902527C.21998596 .042999269 .21699524 .0309906 .1269989 .0309906H.09498596V0C.12998963 .0029907227 .21699524 .0029907227 .25698854 .0029907227 .29699708 .0029907227 .38398744 .0029907227 .4189911 0V.0309906H.3869934C.29699708 .0309906 .2939911 .041992189 .2939911 .07902527V.64004519Z"/>
<path id="font_1_3" d="M.1269989 .07699585 .23298645 .18003845C.3889923 .31811524 .44898988 .3721466 .44898988 .47216798 .44898988 .5860901 .35899354 .6660156 .23699951 .6660156 .12399292 .6660156 .049987794 .57411196 .049987794 .48516847 .049987794 .4291687 .099990848 .4291687 .102996829 .4291687 .11999512 .4291687 .15499878 .44117738 .15499878 .48217774 .15499878 .5081787 .13699341 .5341797 .101989749 .5341797 .09399414 .5341797 .09199524 .5341797 .08898926 .5331726 .11199951 .59806826 .1659851 .63500979 .22399903 .63500979 .31498719 .63500979 .35798646 .5541382 .35798646 .47216798 .35798646 .39215089 .30799867 .31311036 .25299073 .25108338L.06098938 .036987306C.049987794 .025985718 .049987794 .023986817 .049987794 0H.42099L.44898988 .17404175H.42399598C.4189911 .14402771 .4119873 .1000061 .4019928 .084991458 .394989 .07699585 .32899476 .07699585 .30699159 .07699585H.1269989Z"/>
<path id="font_1_4" d="M.2899933 .35191346C.37199403 .37893678 .42999269 .4490509 .42999269 .52809146 .42999269 .6100464 .34199525 .6660156 .24598694 .6660156 .14498902 .6660156 .068984989 .60606387 .068984989 .53009036 .068984989 .49710084 .09098816 .47808839 .11999512 .47808839 .15098572 .47808839 .17098999 .50009158 .17098999 .5290985 .17098999 .57910159 .12399292 .57910159 .10899353 .57910159 .13999939 .62802127 .20599365 .64100649 .24198914 .64100649 .2829895 .64100649 .33799745 .6190338 .33799745 .5290985 .33799745 .51708987 .33599855 .45906068 .30999757 .4149933 .27999879 .36691285 .24598694 .36390687 .22099304 .36291505 .21299744 .36190797 .18899536 .35990907 .18199158 .35990907 .17399597 .35890199 .16699219 .35791017 .16699219 .3479004 .16699219 .33691407 .17399597 .33691407 .19099427 .33691407H.23498535C.31698609 .33691407 .35398866 .2686615 .35398866 .17037964 .35398866 .034469606 .2849884 .0055389406 .24099732 .0055389406 .19799805 .0055389406 .12298584 .022491456 .08799744 .08137512 .12298584 .07637024 .1539917 .09837341 .1539917 .1363678 .1539917 .17237854 .1269989 .19238281 .09799194 .19238281 .07398987 .19238281 .041992189 .17837525 .041992189 .1343689 .041992189 .043441774 .1349945-.022460938 .24398804-.022460938 .3659973-.022460938 .45700074 .06838989 .45700074 .17037964 .45700074 .252594 .3939972 .33088685 .2899933 .35191346Z"/>
<path id="font_1_5" d="M.2939911 .16503906V.07800293C.2939911 .041992189 .2919922 .0309906 .21798706 .0309906H.19699097V0C.23799134 .0029907227 .2899933 .0029907227 .33198548 .0029907227 .37399293 .0029907227 .4269867 .0029907227 .46798707 0V.0309906H.44699098C.37298585 .0309906 .37098695 .041992189 .37098695 .07800293V.16503906H.47099305V.19602967H.37098695V.65075686C.37098695 .67074587 .37098695 .6767578 .35499574 .6767578 .34599305 .6767578 .34298707 .6767578 .33499146 .66474917L.027999878 .19602967V.16503906H.2939911M.2999878 .19602967H.055999757L.2999878 .5688019V.19602967Z"/>
<path id="font_1_6" d="M.44898988 .20022583C.44898988 .3193512 .36698915 .41944886 .25898744 .41944886 .21099854 .41944886 .16799927 .40345765 .13198853 .36842347V.5637665C.1519928 .5577698 .18499756 .55078127 .21699524 .55078127 .33999635 .55078127 .4099884 .6417694 .4099884 .6547699 .4099884 .6607666 .40699769 .6657715 .3999939 .6657715 .39898683 .6657715 .39698792 .6657715 .3919983 .66278079 .37199403 .6537781 .32299806 .6337738 .2559967 .6337738 .21598816 .6337738 .16999817 .6407776 .12298584 .6617737 .114990238 .66477969 .11299133 .66477969 .11099243 .66477969 .100997928 .66477969 .100997928 .6567688 .100997928 .6407776V.34439088C.100997928 .32637025 .100997928 .31835938 .114990238 .31835938 .12199402 .31835938 .12399292 .32136537 .12799073 .32736207 .13899231 .3433838 .17599488 .39746095 .25698854 .39746095 .30899049 .39746095 .33399964 .35139466 .34199525 .33337403 .35798646 .29632569 .3600006 .25727845 .3600006 .20722962 .3600006 .17222595 .3600006 .11222839 .33599855 .07035828 .31199647 .031463624 .2749939 .0055389406 .22898865 .0055389406 .1559906 .0055389406 .09899902 .058380128 .08198547 .11723328 .084991458 .1162262 .08799744 .115234378 .09899902 .115234378 .13198853 .115234378 .14898682 .14022827 .14898682 .16423035 .14898682 .18823242 .13198853 .21322632 .09899902 .21322632 .084991458 .21322632 .049987794 .20622254 .049987794 .16023255 .049987794 .07434082 .11898804-.022460938 .23098755-.022460938 .34700013-.022460938 .44898988 .073349 .44898988 .20022583Z"/>
</defs>
<path transform="matrix(1.00005,0,0,-1.00002,9.942894,146.86469)" stroke-width=".3985" stroke-linecap="butt" stroke-miterlimit="10" stroke-linejoin="miter" fill="none" stroke="#000000" d="M0 .75168V140.98235"/>
<path transform="matrix(0,1.00002,1.00005,0,9.942894,146.11299)" d="M3.58653 0C2.52383 .19925 .797 .797-.3985 1.49438V-1.49438C.797-.797 2.52383-.19925 3.58653 0"/>
<path transform="matrix(0,-1.00002,-1.00005,-0,9.942894,5.8795168)" d="M3.58653 0C2.52383 .19925 .797 .797-.3985 1.49438V-1.49438C.797-.797 2.52383-.19925 3.58653 0"/>
<path transform="matrix(1.00005,0,0,-1.00002,9.942894,146.86469)" stroke-width=".3985" stroke-linecap="butt" stroke-miterlimit="10" stroke-linejoin="miter" fill="none" stroke="#000000" d="M.75168 0H140.98235"/>
<path transform="matrix(-1.00005,-0,0,1.00002,10.694612,146.86469)" d="M3.58653 0C2.52383 .19925 .797 .797-.3985 1.49438V-1.49438C.797-.797 2.52383-.19925 3.58653 0"/>
<path transform="matrix(1.00005,0,0,-1.00002,150.93228,146.86469)" d="M3.58653 0C2.52383 .19925 .797 .797-.3985 1.49438V-1.49438C.797-.797 2.52383-.19925 3.58653 0"/>
<path transform="matrix(1.00005,0,0,-1.00002,9.942894,146.86469)" stroke-width=".3985" stroke-linecap="butt" stroke-dasharray=".3985,1.99255" stroke-miterlimit="10" stroke-linejoin="miter" fill="none" stroke="#000000" d="M-2.83484 0H144.5689M-2.83484 28.3468H144.5689M-2.83484 56.69362H144.5689M-2.83484 85.04042H144.5689M-2.83484 113.38724H144.5689M-2.83484 141.73404H144.5689M0-2.83484V144.5689M28.3468-2.83484V144.5689M56.69362-2.83484V144.5689M85.04042-2.83484V144.5689M113.38724-2.83484V144.5689M141.73404-2.83484V144.5689M144.5689 144.5689"/>
<use data-text="0" xlink:href="#font_1_1" transform="matrix(9.963098,0,0,-9.962799,7.451767,156.80489)"/>
<use data-text="1" xlink:href="#font_1_2" transform="matrix(9.963098,0,0,-9.962799,35.800188,156.80489)"/>
<use data-text="2" xlink:href="#font_1_3" transform="matrix(9.963098,0,0,-9.962799,64.148609,156.80489)"/>
<use data-text="3" xlink:href="#font_1_4" transform="matrix(9.963098,0,0,-9.962799,92.49702,156.80489)"/>
<use data-text="4" xlink:href="#font_1_5" transform="matrix(9.963098,0,0,-9.962799,120.845439,156.80489)"/>
<use data-text="5" xlink:href="#font_1_6" transform="matrix(9.963098,0,0,-9.962799,149.19284,156.80489)"/>
<use data-text="0" xlink:href="#font_1_1" transform="matrix(9.963098,0,0,-9.962799,1.4414673,150.07476)"/>
<use data-text="1" xlink:href="#font_1_2" transform="matrix(9.963098,0,0,-9.962799,1.4414673,121.72718)"/>
<use data-text="2" xlink:href="#font_1_3" transform="matrix(9.963098,0,0,-9.962799,1.4414673,93.380619)"/>
<use data-text="3" xlink:href="#font_1_4" transform="matrix(9.963098,0,0,-9.962799,1.4414673,65.03304)"/>
<use data-text="4" xlink:href="#font_1_5" transform="matrix(9.963098,0,0,-9.962799,1.4414673,36.68548)"/>
<use data-text="5" xlink:href="#font_1_6" transform="matrix(9.963098,0,0,-9.962799,1.4414673,8.337906)"/>
<path transform="matrix(1.00005,0,0,-1.00002,9.942894,146.86469)" stroke-width=".79701" stroke-linecap="butt" stroke-miterlimit="10" stroke-linejoin="miter" fill="none" stroke="#000000" d="M-2.83484 100.63126C-2.83484 100.63126 1.60248 98.41235 3.30675 97.56023 5.011 96.7081 7.74408 95.34177 9.44833 94.48964 11.1526 93.63751 13.8857 92.27075 15.58995 91.41862 17.29422 90.5665 20.0273 89.20016 21.73155 88.34804 23.43582 87.49591 26.1689 86.12914 27.87317 85.27701 29.57744 84.42488 32.3105 83.05849 34.01477 82.20642 35.71902 81.35435 38.45212 79.98796 40.15639 79.13583 41.86064 78.2837 44.59372 76.91696 46.29799 76.06482 48.00224 75.21269 50.73534 73.84637 52.43959 72.99423 54.14386 72.1421 56.87694 70.77534 58.58119 69.9232 60.28546 69.07108 63.01855 67.70476 64.72281 66.85262 66.42708 66.00049 69.16014 64.63374 70.86441 63.78162 72.56868 62.92947 75.30176 61.56316 77.00603 60.71103 78.71028 59.85889 81.44336 58.49213 83.14763 57.64 84.85188 56.78786 87.58498 55.42154 89.28925 54.56941 90.9935 53.71729 93.72658 52.35052 95.43083 51.4984 97.1351 50.64627 99.8682 49.27994 101.57245 48.42781 103.27672 47.57568 106.00978 46.20891 107.71405 45.35678 109.41832 44.50465 112.1514 43.13832 113.85567 42.2862 115.55994 41.43407 118.293 40.06732 119.99727 39.21518 121.70152 38.36305 124.43462 36.99673 126.13889 36.14459 127.84314 35.29247 130.57622 33.9257 132.28047 33.07356 133.98474 32.22144 136.71784 30.85512 138.42209 30.00298 140.12636 29.15085 144.56369 26.93198 144.56369 26.93198"/>
<path transform="matrix(1.00005,0,0,-1.00002,9.942894,146.86469)" d="M30.33936 85.04042C30.33936 86.1409 29.44728 87.03297 28.3468 87.03297 27.24634 87.03297 26.35425 86.1409 26.35425 85.04042 26.35425 83.93996 27.24634 83.04787 28.3468 83.04787 29.44728 83.04787 30.33936 83.93996 30.33936 85.04042ZM28.3468 85.04042"/>
<path transform="matrix(1.00005,0,0,-1.00002,9.942894,146.86469)" stroke-width=".3985" stroke-linecap="butt" stroke-miterlimit="10" stroke-linejoin="miter" fill="none" stroke="#000000" d="M30.33936 85.04042C30.33936 86.1409 29.44728 87.03297 28.3468 87.03297 27.24634 87.03297 26.35425 86.1409 26.35425 85.04042 26.35425 83.93996 27.24634 83.04787 28.3468 83.04787 29.44728 83.04787 30.33936 83.93996 30.33936 85.04042ZM28.3468 85.04042"/>
<path transform="matrix(1.00005,0,0,-1.00002,9.942894,146.86469)" d="M87.03297 56.69362C87.03297 57.79408 86.1409 58.68617 85.04042 58.68617 83.93996 58.68617 83.04787 57.79408 83.04787 56.69362 83.04787 55.59314 83.93996 54.70107 85.04042 54.70107 86.1409 54.70107 87.03297 55.59314 87.03297 56.69362ZM85.04042 56.69362"/>
<path transform="matrix(1.00005,0,0,-1.00002,9.942894,146.86469)" stroke-width=".3985" stroke-linecap="butt" stroke-miterlimit="10" stroke-linejoin="miter" fill="none" stroke="#000000" d="M87.03297 56.69362C87.03297 57.79408 86.1409 58.68617 85.04042 58.68617 83.93996 58.68617 83.04787 57.79408 83.04787 56.69362 83.04787 55.59314 83.93996 54.70107 85.04042 54.70107 86.1409 54.70107 87.03297 55.59314 87.03297 56.69362ZM85.04042 56.69362"/>
</svg>
