<svg xmlns="http://www.w3.org/2000/svg" xmlns:xlink="http://www.w3.org/1999/xlink" xmlns:inkscape="http://www.inkscape.org/namespaces/inkscape" version="1.1" width="196" height="139" viewBox="0 0 196 139">
<defs>
<path id="font_1_3" d="M.36698915 .3996582H.45298768C.47299195 .3996582 .48298646 .3996582 .48298646 .41966249 .48298646 .43066407 .47299195 .43066407 .45599366 .43066407H.37298585L.3939972 .5449524C.397995 .5660095 .4119873 .6370239 .41799928 .6490326 .4269867 .66804507 .44400025 .68307498 .46499635 .68307498 .46899415 .68307498 .49499513 .68307498 .5139923 .66503909 .46998597 .661026 .45999146 .6260376 .45999146 .6110382 .45999146 .58802798 .47799684 .57603457 .49699403 .57603457 .522995 .57603457 .5519867 .5980377 .5519867 .6360321 .5519867 .6820679 .5059967 .7050781 .46499635 .7050781 .43099977 .7050781 .36799623 .68707278 .33799745 .58802798 .33198548 .56700137 .32899476 .5569763 .30499269 .43066407H.23599243C.21699524 .43066407 .20599365 .43066407 .20599365 .4116516 .20599365 .3996582 .21499634 .3996582 .23399353 .3996582H.2999878L.22499085 .0048828127C.20698548-.09207153 .18998719-.18309021 .13798523-.18309021 .13398743-.18309021 .10899353-.18309021 .08999634-.16506958 .13598633-.1620636 .14498902-.12606812 .14498902-.111068729 .14498902-.08807373 .1269989-.07606506 .10798645-.07606506 .08198547-.07606506 .052993776-.09806824 .052993776-.13606262 .052993776-.18109131 .09700012-.20507813 .13798523-.20507813 .19299317-.20507813 .23298645-.14607239 .25099183-.108062747 .2829895-.04508972 .30599977 .07583618 .30699159 .082839969L.36698915 .3996582Z"/>
<path id="font_2_1" d="M.33099366-.2400055C.33099366-.23701477 .33099366-.23500061 .31399537-.21800232 .18899536-.0920105 .15699768 .09700012 .15699768 .25 .15699768 .42399598 .19499207 .59799197 .31799317 .72299197 .33099366 .73498538 .33099366 .7369995 .33099366 .73999026 .33099366 .746994 .32699586 .75 .32099916 .75 .31098939 .75 .22099304 .6819916 .1619873 .5549927 .11099243 .44499208 .09899902 .33399964 .09899902 .25 .09899902 .17199707 .10998535 .050994874 .16499329-.06201172 .22499085-.18501282 .31098939-.25 .32099916-.25 .32699586-.25 .33099366-.24700928 .33099366-.2400055Z"/>
<path id="font_1_4" d="M.33399964 .30233766C.33999635 .32835389 .36299134 .42037965 .43299867 .42037965 .43798829 .42037965 .46199037 .42037965 .48298646 .40734864 .45498658 .402359 .43499757 .37734986 .43499757 .35334779 .43499757 .33735658 .44599916 .31835938 .47299195 .31835938 .49499513 .31835938 .5269928 .3363495 .5269928 .37635804 .5269928 .42837525 .46798707 .4423828 .43399049 .4423828 .37599183 .4423828 .34098817 .38935853 .32899476 .36634828 .3039856 .43237306 .25 .4423828 .22099304 .4423828 .116989139 .4423828 .05999756 .3133545 .05999756 .28834535 .05999756 .27833558 .069992069 .27833558 .07199097 .27833558 .07998657 .27833558 .08299255 .28033448 .084991458 .28933717 .11898804 .39535523 .18499756 .42037965 .21899414 .42037965 .23799134 .42037965 .272995 .4113617 .272995 .35334779 .272995 .32235719 .2559967 .25532533 .21899414 .11528015 .20298767 .053268434 .16799927 .011245728 .12399292 .011245728 .117996219 .011245728 .09498596 .011245728 .07398987 .024276734 .09899902 .029266358 .12098694 .05027771 .12098694 .07827759 .12098694 .105270389 .09899902 .11328125 .083999637 .11328125 .053985597 .11328125 .0289917 .08728027 .0289917 .055267335 .0289917 .009246826 .07899475-.0107421879 .12298584-.0107421879 .18899536-.0107421879 .22499085 .059280397 .22799683 .0652771 .23999024 .028274537 .27598573-.0107421879 .33599855-.0107421879 .43899537-.0107421879 .49598695 .118270877 .49598695 .14328003 .49598695 .1532898 .4869995 .1532898 .48399354 .1532898 .47499085 .1532898 .47299195 .14929199 .47099305 .14228821 .43798829 .03527832 .36999513 .011245728 .33799745 .011245728 .29899598 .011245728 .2829895 .043273927 .2829895 .07727051 .2829895 .09927368 .2889862 .121276859 .2999878 .16529846L.33399964 .30233766Z"/>
<path id="font_2_2" d="M.2889862 .25C.2889862 .32798768 .27799989 .44898988 .22299195 .56199648 .16299439 .68499758 .07699585 .75 .066986087 .75 .06098938 .75 .056991579 .74598696 .056991579 .73999026 .056991579 .7369995 .056991579 .73498538 .07598877 .71699526 .17399597 .6179962 .23098755 .45899964 .23098755 .25 .23098755 .07899475 .19400025-.09700012 .069992069-.2230072 .056991579-.23500061 .056991579-.23701477 .056991579-.2400055 .056991579-.2460022 .06098938-.25 .066986087-.25 .07699585-.25 .16699219-.18200684 .22599793-.055007936 .2769928 .054992677 .2889862 .16600037 .2889862 .25Z"/>
<path id="font_2_5" d="M.68699648 .32714845C.70199587 .32714845 .72099307 .32714845 .72099307 .34713746 .72099307 .36714173 .70199587 .36714173 .6879883 .36714173H.08898926C.07499695 .36714173 .055999757 .36714173 .055999757 .34713746 .055999757 .32714845 .07499695 .32714845 .08999634 .32714845H.68699648M.6879883 .13284302C.70199587 .13284302 .72099307 .13284302 .72099307 .15284729 .72099307 .17285156 .70199587 .17285156 .68699648 .17285156H.08999634C.07499695 .17285156 .055999757 .17285156 .055999757 .15284729 .055999757 .13284302 .07499695 .13284302 .08898926 .13284302H.6879883Z"/>
<path id="font_3_1" d="M.5039978-.45344544C.5039978-.3714447 .526001-.1804657 .70399478-.054489137 .71699526-.04447937 .71798709-.04348755 .71798709-.025482178 .71798709-.0024871827 .71699526-.0014953613 .69200137-.0014953613H.6759949C.46099855-.11747742 .38398744-.30645753 .38398744-.45344544V-.88339236C.38398744-.9093933 .3849945-.9104004 .4119873-.9104004H.47599793C.5029907-.9104004 .5039978-.9093933 .5039978-.88339236V-.45344544Z"/>
<path id="font_3_4" d="M.5039978-.016540528C.5039978 .009460449 .5029907 .010467529 .47599793 .010467529H.4119873C.3849945 .010467529 .38398744 .009460449 .38398744-.016540528V-.28233338C.38398744-.30833436 .3849945-.30932618 .4119873-.30932618H.47599793C.5029907-.30932618 .5039978-.30833436 .5039978-.28233338V-.016540528Z"/>
<path id="font_3_3" d="M.38398744-1.7823334C.38398744-1.8083344 .3849945-1.8093262 .4119873-1.8093262H.47599793C.5029907-1.8093262 .5039978-1.8083344 .5039978-1.7823334V-1.3603821C.5039978-1.2393952 .45298768-1.0354157 .22898865-.8994293 .45498658-.7624512 .5039978-.5564728 .5039978-.43849183V-.016540528C.5039978 .009460449 .5029907 .010467529 .47599793 .010467529H.4119873C.3849945 .010467529 .38398744 .009460449 .38398744-.016540528V-.43948365C.38398744-.523468 .3659973-.7314453 .18199158-.87142947 .17098999-.8804321 .16999817-.8814392 .16999817-.8994293 .16999817-.9174347 .17098999-.9184265 .18199158-.9274292 .20799256-.9474182 .2769928-1.000412 .32499696-1.1014099 .3639984-1.1813965 .38398744-1.2703858 .38398744-1.359375V-1.7823334Z"/>
<path id="font_3_2" d="M.69200137-.8984375C.71699526-.8984375 .71798709-.8974457 .71798709-.8744507 .71798709-.8564453 .71699526-.8554535 .71299746-.8524475 .6819916-.8294525 .6100006-.77845767 .5629883-.6864624 .5239868-.61047366 .5039978-.5334778 .5039978-.44648744V-.016540528C.5039978 .009460449 .5029907 .010467529 .47599793 .010467529H.4119873C.3849945 .010467529 .38398744 .009460449 .38398744-.016540528V-.44648744C.38398744-.59446719 .46099855-.78344729 .6759949-.8984375H.69200137Z"/>
<path id="font_4_1" d="M.32998658 .3310547C.42199708 .3310547 .48298646 .2737732 .48298646 .17437744 .48298646 .07237244 .41999818 .01852417 .33099366 .01852417 .31999208 .01852417 .20098877 .01852417 .1499939 .070373538 .19099427 .07637024 .20298767 .1073761 .20298767 .13137818 .20298767 .16838074 .1749878 .19238281 .14199829 .19238281 .10998535 .19238281 .07998657 .17137146 .07998657 .12937927 .07998657 .025512696 .19799805-.022460938 .33399964-.022460938 .49798585-.022460938 .59999087 .07637024 .59999087 .17337036 .59999087 .25567628 .5269928 .3260193 .41299439 .35205079 .5329895 .3909912 .5649872 .46684266 .5649872 .5228424 .5649872 .60491946 .46299745 .6660156 .33699037 .6660156 .21398926 .6660156 .114990238 .61395266 .114990238 .5238342 .114990238 .47683717 .15299988 .46484376 .17199707 .46484376 .20098877 .46484376 .22898865 .48583985 .22898865 .5218353 .22898865 .5448303 .21699524 .5728302 .18099976 .57884219 .22399903 .625 .31298829 .628006 .33399964 .628006 .40699769 .628006 .45899964 .5908661 .45899964 .5228424 .45899964 .46484376 .42099 .37402345 .31599427 .368042 .28799439 .3670349 .28399659 .3660431 .2579956 .365036 .24699402 .3640442 .23599243 .36305238 .23599243 .34805299 .23599243 .3310547 .24598694 .3310547 .2639923 .3310547H.32998658Z"/>
<path id="font_5_3" d="M.3889923-.8549652 .21299744-.4659729C.20599365-.44996644 .20098877-.44996644 .19799805-.44996644 .19699097-.44996644 .19198609-.44996644 .18099976-.45796205L.085998538-.52996829C.07299805-.53996279 .07299805-.54296877 .07299805-.54597476 .07299805-.55096438 .07598877-.55696108 .08299255-.55696108 .08898926-.55696108 .10598755-.54296877 .116989139-.53497317 .12298584-.52996829 .13798523-.5189667 .14898682-.51097109L.34599305-.9439697C.35299684-.95996096 .35798646-.95996096 .36698915-.95996096 .38198854-.95996096 .3849945-.95396426 .3919983-.9399719L.84599307 .000030517579C.8529968 .014038086 .8529968 .018035889 .8529968 .02003479 .8529968 .030029297 .8450012 .040039064 .83299258 .040039064 .82499697 .040039064 .81799319 .03503418 .80999758 .01902771L.3889923-.8549652Z"/>
<path id="font_6_66" d="M.24699402 0V.0309906C.18099976 .0309906 .1769867 .035995485 .1769867 .075042728V.4423828L.036987306 .43066407V.3996582C.101989749 .3996582 .11099243 .3936615 .11099243 .3447113V.07595825C.11099243 .0309906 .099990848 .0309906 .032989503 .0309906V0L.14299011 .0029907227C.17799378 .0029907227 .21299744 .0009918213 .24699402 0M.19198609 .603775C.19198609 .6307678 .16899109 .6567688 .13899231 .6567688 .10499573 .6567688 .084991458 .6287689 .084991458 .603775 .084991458 .57676699 .10798645 .55078127 .13798523 .55078127 .17199707 .55078127 .19198609 .5787811 .19198609 .603775Z"/>
<path id="font_6_55" d="M.35699464 .63479617C.35699464 .6717987 .31999208 .7050781 .2669983 .7050781 .19699097 .7050781 .11199951 .65179446 .11199951 .5457611V.43066407H.032989503V.3996582H.11199951V.07595825C.11199951 .0309906 .100997928 .0309906 .033996583 .0309906V0L.147995 .0029907227C.18798828 .0029907227 .23498535 .0029907227 .2749939 0V.0309906H.2539978C.17999268 .0309906 .17799378 .04197693 .17799378 .07795715V.3996582H.2919922V.43066407H.1749878V.5467529C.1749878 .63479617 .22299195 .68307498 .2669983 .68307498 .269989 .68307498 .2849884 .68307498 .2999878 .675827 .28799439 .6717987 .269989 .6587982 .269989 .6338043 .269989 .61079409 .28599549 .5907898 .31298829 .5907898 .34199525 .5907898 .35699464 .61079409 .35699464 .63479617Z"/>
<path id="font_5_2" d="M.673996 .3241577C.6879883 .33015443 .69400027 .3371582 .69400027 .3461609 .69400027 .35617066 .6899872 .36216737 .673996 .36917115L.12298584 .62919619C.10899353 .63619998 .10499573 .63619998 .102996829 .63619998 .09098816 .63619998 .08299255 .62719729 .08299255 .61621096 .08299255 .6042023 .09098816 .5991974 .101989749 .59420779L.6269989 .34716798 .10398865 .100128177C.083999637 .09112549 .08299255 .083114627 .08299255 .07711792 .08299255 .06611633 .09199524 .057113649 .102996829 .057113649 .10598755 .057113649 .10798645 .057113649 .12098694 .06411743L.673996 .3241577M.6589966-.13671875C.6759949-.13671875 .69400027-.13671875 .69400027-.11672974 .69400027-.096725467 .6729889-.096725467 .6579895-.096725467H.11898804C.10398865-.096725467 .08299255-.096725467 .08299255-.11672974 .08299255-.13671875 .100997928-.13671875 .117996219-.13671875H.6589966Z"/>
<path id="font_2_4" d="M.2939911 .64004519C.2939911 .66400149 .2939911 .6660156 .2709961 .6660156 .20899964 .60227969 .12098694 .60227969 .08898926 .60227969V.57128909C.10899353 .57128909 .16799927 .57128909 .21998596 .5972748V.07902527C.21998596 .042999269 .21699524 .0309906 .1269989 .0309906H.09498596V0C.12998963 .0029907227 .21699524 .0029907227 .25698854 .0029907227 .29699708 .0029907227 .38398744 .0029907227 .4189911 0V.0309906H.3869934C.29699708 .0309906 .2939911 .041992189 .2939911 .07902527V.64004519Z"/>
<path id="font_7_1" d="M.5049896 .18203736H.47099305C.46798707 .16001892 .45799256 .100997928 .44499208 .09098816 .43699647 .084991458 .3600006 .084991458 .34599305 .084991458H.1619873C.2669983 .17803955 .3019867 .20603943 .3619995 .25306703 .43598939 .312088 .5049896 .374115 .5049896 .46914674 .5049896 .5900879 .39898683 .6640625 .2709961 .6640625 .14698792 .6640625 .06298828 .57710269 .06298828 .4851532 .06298828 .43414308 .10598755 .42915345 .115997318 .42915345 .13999939 .42915345 .16899109 .44615174 .16899109 .48214723 .16899109 .5001526 .1619873 .53515627 .10998535 .53515627 .14099121 .6060791 .20899964 .62805178 .2559967 .62805178 .35598756 .62805178 .4079895 .5501404 .4079895 .46914674 .4079895 .38212586 .34599305 .3130951 .31399537 .27708436L.07299805 .038986207C.06298828 .02999878 .06298828 .027999878 .06298828 0H.47499085L.5049896 .18203736Z"/>
<path id="font_1_2" d="M.6749878 .22798157C.6859894 .23298645 .69400027 .23799134 .69400027 .24998474 .69400027 .2619934 .6859894 .2669983 .6749878 .27198792L.12098694 .53305056C.10798645 .5400543 .10598755 .5400543 .102996829 .5400543 .09199524 .5400543 .08299255 .53105166 .08299255 .52005007 .08299255 .51104739 .08799744 .50505068 .101989749 .49804688L.6269989 .24998474 .101989749 .0019378662C.08799744-.005065918 .08299255-.011062622 .08299255-.020065308 .08299255-.031066895 .09199524-.04006958 .102996829-.04006958 .10598755-.04006958 .10798645-.04006958 .12098694-.033065797L.6749878 .22798157Z"/>
<path id="font_2_3" d="M.45999146 .31976319C.45999146 .39982606 .45498658 .47988893 .41999818 .5539398 .37399293 .65000918 .2919922 .6660156 .25 .6660156 .18998719 .6660156 .116989139 .64001467 .07598877 .54693606 .04399109 .47789 .038986207 .39982606 .038986207 .31976319 .038986207 .24472046 .042999269 .15464783 .083999637 .07859802 .1269989-.0024719239 .19999695-.022460938 .24899292-.022460938 .30299378-.022460938 .3789978-.0014648438 .4229889 .09359741 .45498658 .16265869 .45999146 .2407074 .45999146 .31976319M.24899292-.00047302247C.20999146-.00047302247 .15098572 .024551392 .1329956 .12062073 .12199402 .18066406 .12199402 .2727356 .12199402 .3317871 .12199402 .39582826 .12199402 .46188355 .12998963 .5159149 .14898682 .63500979 .22399903 .64401248 .24899292 .64401248 .28199769 .64401248 .34799195 .6259918 .36698915 .52693179 .3769989 .47088624 .3769989 .39482118 .3769989 .3317871 .3769989 .25672914 .3769989 .18867493 .3659973 .12461853 .35099793 .029556275 .2939911-.00047302247 .24899292-.00047302247Z"/>
<path id="font_5_1" d="M.6589966 .23046875C.6759949 .23046875 .69400027 .23046875 .69400027 .25045777 .69400027 .27046205 .6759949 .27046205 .6589966 .27046205H.117996219C.100997928 .27046205 .08299255 .27046205 .08299255 .25045777 .08299255 .23046875 .100997928 .23046875 .117996219 .23046875H.6589966Z"/>
<path id="font_1_1" d="M.6749878 .49804688C.68699648 .5040436 .69400027 .50904849 .69400027 .52005007 .69400027 .53105166 .68499758 .5400543 .673996 .5400543 .67099 .5400543 .6689911 .5400543 .6559906 .53305056L.101989749 .27198792C.09098816 .2669983 .08299255 .2619934 .08299255 .24998474 .08299255 .23799134 .09098816 .23298645 .101989749 .22798157L.6559906-.033065797C.6689911-.04006958 .67099-.04006958 .673996-.04006958 .68499758-.04006958 .69400027-.031066895 .69400027-.020065308 .69400027-.009063721 .68699648-.0040740969 .6749878 .0019378662L.1499939 .24998474 .6749878 .49804688Z"/>
</defs>
<path transform="matrix(1.00005,0,0,-1.00002,69.130558,69.83208)" stroke-width=".3985" stroke-linecap="butt" stroke-miterlimit="10" stroke-linejoin="miter" fill="none" stroke="#000000" d="M-64.44562 0H64.44562"/>
<path transform="matrix(-1.00005,-0,0,1.00002,4.681717,69.83208)" d="M3.58653 0C2.52383 .19925 .797 .797-.3985 1.49438V-1.49438C.797-.797 2.52383-.19925 3.58653 0"/>
<path transform="matrix(1.00005,0,0,-1.00002,133.57939,69.83208)" d="M3.58653 0C2.52383 .19925 .797 .797-.3985 1.49438V-1.49438C.797-.797 2.52383-.19925 3.58653 0"/>
<path transform="matrix(1.00005,0,0,-1.00002,69.130558,69.83208)" stroke-width=".3985" stroke-linecap="butt" stroke-miterlimit="10" stroke-linejoin="miter" fill="none" stroke="#000000" d="M0-64.44562V64.44562"/>
<path transform="matrix(0,1.00002,1.00005,0,69.130558,134.27899)" d="M3.58653 0C2.52383 .19925 .797 .797-.3985 1.49438V-1.49438C.797-.797 2.52383-.19925 3.58653 0"/>
<path transform="matrix(0,-1.00002,-1.00005,-0,69.130558,5.38517)" d="M3.58653 0C2.52383 .19925 .797 .797-.3985 1.49438V-1.49438C.797-.797 2.52383-.19925 3.58653 0"/>
<path transform="matrix(1.00005,0,0,-1.00002,69.130558,69.83208)" stroke-width=".79701" stroke-linecap="butt" stroke-miterlimit="10" stroke-linejoin="miter" fill="none" stroke="#000000" d="M28.3468 28.3468C28.3468 28.3468 28.59488 28.4293 28.69066 28.46098 28.78642 28.49266 28.94057 28.5435 29.03712 28.57518 29.13368 28.60686 29.28922 28.65768 29.38661 28.68936 29.48402 28.72104 29.64102 28.77188 29.73914 28.80356 29.83725 28.83524 29.99492 28.88606 30.09381 28.91774 30.1927 28.94942 30.35222 29.00026 30.45195 29.03194 30.5517 29.06361 30.71219 29.11444 30.8127 29.14612 30.91321 29.17781 31.07516 29.22864 31.17645 29.26031 31.27774 29.292 31.4408 29.34282 31.54282 29.3745 31.64484 29.40619 31.80891 29.45702 31.91177 29.4887 32.01463 29.52039 32.1805 29.5712 32.2842 29.60287 32.38788 29.63457 32.55476 29.6854 32.6592 29.71707 32.76361 29.74876 32.93155 29.79958 33.0368 29.83125 33.14207 29.86295 33.3117 29.91377 33.41786 29.94547 33.52402 29.97714 33.69504 30.02795 33.80197 30.05965 33.9089 30.09132 34.081 30.14215 34.18864 30.17384 34.29631 30.20552 34.46945 30.25633 34.57794 30.28802 34.68643 30.3197 34.86136 30.37053 34.97069 30.40222 35.08002 30.4339 35.25584 30.48471 35.36603 30.5164 35.47621 30.54808 35.65385 30.5989 35.76482 30.6306 35.87578 30.66228 36.05405 30.7131 36.16579 30.7448 36.27753 30.77647 36.45752 30.8273 36.5702 30.85898 36.68289 30.89066 36.86455 30.9415 36.97809 30.97318 37.09163 31.00485 37.27426 31.05568 37.38858 31.08736 37.5029 31.11903 37.68692 31.16988 37.80206 31.20155 37.91722 31.23323 38.1026 31.28406 38.2186 31.31573 38.33461 31.34741 38.52133 31.39825 38.63818 31.42993 38.75502 31.46161 38.94302 31.51244 39.06076 31.54411 39.1785 31.57579 39.36824 31.62663 39.48682 31.65831 39.6054 31.68999 39.79604 31.74081 39.91547 31.77249 40.03488 31.80417 40.22723 31.85501 40.34756 31.88669 40.46788 31.91837 40.66153 31.9692 40.78268 32.00087 40.90385 32.03255 41.09886 32.08339 41.22086 32.11507 41.34285 32.14674 41.5392 32.19757 41.66205 32.22925 41.7849 32.26093 41.98251 32.31177 42.10626 32.34344 42.23001 32.37512 42.42935 32.42595 42.55394 32.45763 42.67851 32.4893 42.87874 32.54015 43.00421 32.57182 43.1297 32.60352 43.33194 32.65433 43.45837 32.686 43.58481 32.7177 43.78828 32.76852 43.91557 32.8002 44.04286 32.8319 44.24767 32.8827 44.37578 32.91438 44.5039 32.94608 44.71 32.9969 44.83904 33.02858 44.96805 33.06027 45.17577 33.1111 45.30576 33.14278 45.43573 33.17447 45.64508 33.22528 45.77591 33.25696 45.90674 33.28865 46.11696 33.33948 46.24869 33.37117 46.3804 33.40285 46.59265 33.45366 46.72534 33.48535 46.85802 33.51703 47.07144 33.56786 47.20502 33.59955 47.33861 33.63123 47.55368 33.68204 47.68816 33.71373 47.82263 33.7454 48.039 33.79623 48.17433 33.82793 48.30966 33.8596 48.52731 33.91042 48.66353 33.94211 48.79976 33.97379 49.01895 34.02461 49.1562 34.0563 49.29344 34.08798 49.51462 34.13881 49.65276 34.17049 49.7909 34.20216 50.01286 34.253 50.1519 34.28468 50.29094 34.31636 50.51494 34.36719 50.65495 34.39886 50.79495 34.43054 51.0201 34.48138 51.16101 34.51306 51.30191 34.54474 51.52869 34.59557 51.67055 34.62724 51.81241 34.65892 52.04077 34.70976 52.18353 34.74144 52.3263 34.77312 52.5559 34.82394 52.69955 34.85562 52.84322 34.8873 53.0744 34.93814 53.21904 34.96982 53.36366 35.0015 53.59631 35.05232 53.74196 35.084 53.88762 35.11568 54.12218 35.16652 54.26878 35.1982 54.4154 35.22987 54.6511 35.2807 54.79866 35.31238 54.94623 35.34406 55.184 35.3949 55.33241 35.42657 55.48082 35.45825 55.7189 35.5091 55.86833 35.54077 56.01775 35.57245 56.25897 35.62328 56.40942 35.65495 56.55988 35.68663 56.8014 35.73747 56.9527 35.76915 57.10399 35.80083 57.34753 35.85165 57.49985 35.88333 57.65216 35.91501 57.89722 35.96585 58.05048 35.99753 58.20375 36.02922 58.45027 36.08003 58.60457 36.11171 58.75885 36.1434 59.00723 36.19423 59.16254 36.2259 59.31784 36.2576 59.56781 36.30841 59.72395 36.34009 59.88011 36.37178 60.13077 36.4226 60.288 36.45428 60.44524 36.48598 60.69891 36.53679 60.85722 36.56847 61.01553 36.60016 61.26988 36.65099 61.42903 36.68266 61.58818 36.71436 61.84413 36.76517 62.0043 36.79686 62.16447 36.82854 62.42236 36.87936 62.58348 36.91106 62.74461 36.94273 63.00352 36.99355 63.16566 37.02524 63.32782 37.05692 63.58897 37.10774 63.7522 37.13943 63.91542 37.17111 64.17798 37.22192 64.34216 37.25362 64.50636 37.2853 64.77046 37.33612 64.93562 37.36781 65.10078 37.39949 65.36635 37.4503 65.53252 37.482 65.69868 37.51367 65.96613 37.56451 66.13332 37.59619 66.3005 37.62787 66.5693 37.6787 66.73758 37.71037 66.90584 37.74205 67.17693 37.7929 67.34616 37.82457 67.51538 37.85625 67.78714 37.90709 67.95732 37.93877 68.1275 37.97044 68.4015 38.02127 68.57283 38.05295 68.74416 38.08463 69.01988 38.13547 69.19223 38.16714 69.36456 38.19882 69.6417 38.24965 69.81508 38.28133 69.98845 38.313 70.26743 38.36385 70.44182 38.39552 70.61623 38.4272 70.89656 38.47803 71.07204 38.5097 71.24751 38.54138 71.53008 38.59222 71.70657 38.6239 71.88306 38.65558 72.16661 38.7064 72.34413 38.73808 72.52164 38.76976 72.80742 38.8206 72.98601 38.85228 73.16461 38.88396 73.4518 38.93478 73.63135 38.96646 73.8109 38.99814 74.09955 39.04898 74.28017 39.08066 74.4608 39.11234 74.75146 39.16316 74.93329 39.19484 75.11513 39.22652 75.4079 39.27736 75.59074 39.30904 75.7736 39.34071 76.06743 39.39154 76.25125 39.42322 76.43507 39.45491 76.73071 39.50574 76.91562 39.53741 77.10052 39.5691 77.5839 39.6516 77.5839 39.6516"/>
<path transform="matrix(1.00005,0,0,-1.00002,69.130558,69.83208)" stroke-width=".79701" stroke-linecap="butt" stroke-miterlimit="10" stroke-linejoin="miter" fill="none" stroke="#000000" d="M0 0C0 0 .20657 .00102 .28589 .00258 .36522 .00412 .49248 .008 .5718 .01123 .65112 .01447 .77837 .02115 .8577 .02594 .93704 .03073 1.06429 .03947 1.14362 .04582 1.22296 .05219 1.3502 .06375 1.42952 .0718 1.50885 .07983 1.63611 .0942 1.71542 .10379 1.79475 .11339 1.922 .12984 2.00133 .14099 2.08067 .15215 2.20792 .17142 2.28725 .18423 2.3666 .19707 2.49384 .21916 2.57315 .23355 2.65248 .24796 2.77974 .2721 2.85905 .28806 2.93839 .30402 3.06563 .33096 3.14496 .3486 3.2243 .36624 3.35155 .39603 3.43088 .41522 3.51022 .43442 3.63747 .46626 3.71678 .48701 3.79611 .50777 3.92337 .54245 4.00269 .56488 4.08202 .58733 4.20926 .62479 4.28859 .6488 4.36794 .6728 4.49518 .71234 4.57451 .7379 4.65385 .76346 4.7811 .8058 4.86041 .83304 4.93974 .86029 5.06699 .90546 5.14632 .93427 5.22566 .96307 5.3529 1.01031 5.43224 1.04068 5.51158 1.07103 5.63881 1.1211 5.71814 1.15314 5.79747 1.18518 5.92471 1.23805 6.00404 1.27165 6.08337 1.30525 6.2106 1.36018 6.28995 1.39536 6.3693 1.43051 6.49652 1.48828 6.57587 1.52512 6.65521 1.56195 6.78244 1.62253 6.86177 1.66093 6.9411 1.69933 7.06834 1.76198 7.14767 1.80194 7.227 1.8419 7.35423 1.90736 7.43358 1.949 7.51291 1.99065 7.64015 2.05891 7.7195 2.10213 7.79883 2.14532 7.92607 2.21567 8.0054 2.26044 8.08472 2.3052 8.21198 2.37836 8.2913 2.4248 8.37062 2.47124 8.49786 2.54721 8.57721 2.59521 8.65654 2.64322 8.78378 2.72127 8.86313 2.77083 8.94246 2.82039 9.0697 2.90125 9.14903 2.95248 9.22835 3.00374 9.3556 3.0874 9.43494 3.1402 9.51425 3.193 9.6415 3.27875 9.72084 3.33311 9.80017 3.38748 9.92741 3.47604 10.00676 3.53209 10.08609 3.58815 10.21333 3.6795 10.29266 3.7371 10.37198 3.79471 10.49922 3.88815 10.57857 3.94733 10.6579 4.00648 10.78514 4.10275 10.86449 4.1636 10.94382 4.22446 11.07106 4.32346 11.15039 4.38591 11.2297 4.44838 11.35696 4.54984 11.4363 4.61388 11.51561 4.6779 11.64285 4.78185 11.7222 4.84743 11.80153 4.91301 11.92877 5.01942 12.00812 5.08664 12.08745 5.15384 12.21469 5.26305 12.29402 5.33188 12.37334 5.40071 12.5006 5.51236 12.57993 5.58275 12.65924 5.65314 12.78648 5.76724 12.86583 5.83925 12.94516 5.91127 13.0724 6.02817 13.15173 6.10179 13.23108 6.17542 13.35832 6.29478 13.43764 6.36996 13.51697 6.44516 13.64423 6.56696 13.72354 6.64377 13.80287 6.7206 13.93011 6.8452 14.00945 6.92363 14.08879 7.00206 14.21603 7.12909 14.29536 7.20909 14.37471 7.28908 14.50195 7.4186 14.58127 7.5002 14.6606 7.5818 14.78786 7.71411 14.86717 7.79735 14.9465 7.88057 15.07375 8.01532 15.15308 8.10013 15.23242 8.18492 15.35966 8.32211 15.439 8.40852 15.51834 8.49493 15.64558 8.63495 15.7249 8.72298 15.80423 8.81102 15.93147 8.95346 16.0108 9.04306 16.09015 9.13266 16.21739 9.27754 16.29672 9.36876 16.37607 9.45998 16.50331 9.60767 16.58263 9.70052 16.66196 9.79335 16.78922 9.9435 16.86853 10.03789 16.94786 10.13228 17.0751 10.28488 17.15443 10.38089 17.23378 10.47691 17.36102 10.63232 17.44035 10.72997 17.5197 10.8276 17.64694 10.98544 17.72626 11.08464 17.80559 11.18382 17.93285 11.34412 18.01216 11.44493 18.09149 11.54576 18.21873 11.70888 18.29807 11.81131 18.37741 11.91374 18.50464 12.07928 18.58398 12.18329 18.66333 12.28728 18.79056 12.45526 18.86989 12.56088 18.94922 12.6665 19.07646 12.83731 19.15579 12.94455 19.23512 13.05179 19.36235 13.22498 19.4417 13.33383 19.52104 13.44269 19.64827 13.61876 19.72762 13.72917 19.80696 13.83958 19.93419 14.01772 20.01352 14.1297 20.09285 14.24168 20.2201 14.42262 20.29942 14.53629 20.37875 14.64996 20.50598 14.83372 20.58533 14.94893 20.66466 15.06415 20.7919 15.24998 20.87125 15.36676 20.95058 15.48354 21.07782 15.6722 21.15715 15.79065 21.23647 15.9091 21.36371 16.10057 21.44305 16.2206 21.52238 16.3406 21.64963 16.53413 21.72897 16.65572 21.8083 16.77731 21.93555 16.97365 22.01488 17.09691 22.0942 17.22017 22.22145 17.41927 22.30078 17.54416 22.3801 17.66904 22.50734 17.87059 22.58669 17.99702 22.66602 18.12346 22.79326 18.32751 22.8726 18.45552 22.95193 18.58351 23.07918 18.79001 23.15851 18.91963 23.23782 19.04926 23.36508 19.25856 23.44441 19.3898 23.52373 19.52104 23.65097 19.73279 23.73032 19.86559 23.80965 19.9984 23.93689 20.21259 24.01624 20.347 24.09557 20.48141 24.22281 20.69843 24.30214 20.83447 24.38145 20.97052 24.50871 21.18996 24.58804 21.32756 24.66736 21.46516 24.7946 21.68706 24.87395 21.82628 24.95328 21.9655 25.08052 22.19022 25.15987 22.33105 25.2392 22.47191 25.36644 22.69905 25.44577 22.84145 25.52509 22.98384 25.65234 23.21344 25.73167 23.35747 25.81099 23.5015 25.93823 23.7339 26.01756 23.87955 26.09691 24.02519 26.22415 24.26004 26.30348 24.40724 26.38283 24.55444 26.51007 24.79173 26.58939 24.94055 26.66872 25.08939 26.79596 25.32948 26.87529 25.47993 26.95464 25.63039 27.08188 25.87286 27.16121 26.02493 27.24055 26.17699 27.3678 26.42235 27.44711 26.57599 27.52644 26.72961 27.6537 26.97705 27.73302 27.13222 27.81235 27.2874 27.93959 27.53766 28.01892 27.69453 28.09827 27.8514 28.30484 28.2629 28.30484 28.2629"/>
<path transform="matrix(1.00005,0,0,-1.00002,69.130558,69.83208)" stroke-width=".79701" stroke-linecap="butt" stroke-miterlimit="10" stroke-linejoin="miter" fill="none" stroke="#000000" d="M-56.69362 56.69362C-56.69362 56.69362-56.28015 56.28015-56.12137 56.12137-55.96259 55.96259-55.7079 55.7079-55.54912 55.54912-55.39034 55.39034-55.13565 55.13565-54.97687 54.97687-54.81808 54.81808-54.5634 54.5634-54.40462 54.40462-54.24583 54.24583-53.99115 53.99115-53.83237 53.83237-53.67358 53.67358-53.41891 53.41891-53.26012 53.26012-53.10133 53.10133-52.84666 52.84666-52.68788 52.68788-52.5291 52.5291-52.27441 52.27441-52.11563 52.11563-51.95685 51.95685-51.70216 51.70216-51.54338 51.54338-51.3846 51.3846-51.12991 51.12991-50.97113 50.97113-50.81235 50.81235-50.55766 50.55766-50.39888 50.39888-50.2401 50.2401-49.98541 49.98541-49.82663 49.82663-49.66785 49.66785-49.41318 49.41318-49.2544 49.2544-49.0956 49.0956-48.84093 48.84093-48.68214 48.68214-48.52336 48.52336-48.26868 48.26868-48.1099 48.1099-47.95111 47.95111-47.69643 47.69643-47.53764 47.53764-47.37886 47.37886-47.12418 47.12418-46.9654 46.9654-46.80661 46.80661-46.55193 46.55193-46.39314 46.39314-46.23436 46.23436-45.97969 45.97969-45.82089 45.82089-45.66211 45.66211-45.40744 45.40744-45.24866 45.24866-45.08986 45.08986-44.83519 44.83519-44.6764 44.6764-44.51762 44.51762-44.26294 44.26294-44.10416 44.10416-43.94537 43.94537-43.69069 43.69069-43.5319 43.5319-43.37312 43.37312-43.11844 43.11844-42.95966 42.95966-42.80087 42.80087-42.54619 42.54619-42.3874 42.3874-42.22862 42.22862-41.97395 41.97395-41.81516 41.81516-41.65637 41.65637-41.4017 41.4017-41.24292 41.24292-41.08414 41.08414-40.82945 40.82945-40.67067 40.67067-40.51189 40.51189-40.2572 40.2572-40.09842 40.09842-39.93964 39.93964-39.68495 39.68495-39.52617 39.52617-39.36739 39.36739-39.1127 39.1127-38.95392 38.95392-38.79514 38.79514-38.54045 38.54045-38.38167 38.38167-38.22289 38.22289-37.96822 37.96822-37.80943 37.80943-37.65063 37.65063-37.39597 37.39597-37.23718 37.23718-37.0784 37.0784-36.82372 36.82372-36.66493 36.66493-36.50615 36.50615-36.25146 36.25146-36.09268 36.09268-35.9339 35.9339-35.67921 35.67921-35.52043 35.52043-35.36165 35.36165-35.10696 35.10696-34.94818 34.94818-34.7894 34.7894-34.53473 34.53473-34.37593 34.37593-34.21715 34.21715-33.96248 33.96248-33.8037 33.8037-33.6449 33.6449-33.39023 33.39023-33.23145 33.23145-33.07266 33.07266-32.81798 32.81798-32.6592 32.6592-32.50041 32.50041-32.24573 32.24573-32.08694 32.08694-31.92816 31.92816-31.67348 31.67348-31.5147 31.5147-31.35591 31.35591-31.10123 31.10123-30.94244 30.94244-30.78366 30.78366-30.52899 30.52899-30.3702 30.3702-30.21141 30.21141-29.95674 29.95674-29.79796 29.79796-29.63918 29.63918-29.38449 29.38449-29.22571 29.22571-29.06693 29.06693-28.81224 28.81224-28.65346 28.65346-28.49467 28.49467-28.24 28.24-28.08122 28.08122-27.92244 27.92244-27.66776 27.66776-27.50897 27.50897-27.35019 27.35019-27.0955 27.0955-26.93672 26.93672-26.77794 26.77794-26.52327 26.52327-26.36449 26.36449-26.20569 26.20569-25.95102 25.95102-25.79224 25.79224-25.63345 25.63345-25.37877 25.37877-25.21999 25.21999-25.0612 25.0612-24.80652 24.80652-24.64774 24.64774-24.48895 24.48895-24.23427 24.23427-24.07549 24.07549-23.9167 23.9167-23.66202 23.66202-23.50323 23.50323-23.34445 23.34445-23.08978 23.08978-22.93098 22.93098-22.7722 22.7722-22.51753 22.51753-22.35875 22.35875-22.19995 22.19995-21.94528 21.94528-21.7865 21.7865-21.62772 21.62772-21.37303 21.37303-21.21425 21.21425-21.05547 21.05547-20.80078 20.80078-20.642 20.642-20.48322 20.48322-20.22853 20.22853-20.06975 20.06975-19.91096 19.91096-19.65628 19.65628-19.4975 19.4975-19.33871 19.33871-19.08405 19.08405-18.92525 18.92525-18.76646 18.76646-18.5118 18.5118-18.35301 18.35301-18.19423 18.19423-17.93954 17.93954-17.78076 17.78076-17.62198 17.62198-17.3673 17.3673-17.20851 17.20851-17.04973 17.04973-16.79504 16.79504-16.63626 16.63626-16.47748 16.47748-16.2228 16.2228-16.06401 16.06401-15.90523 15.90523-15.65054 15.65054-15.49176 15.49176-15.33298 15.33298-15.07831 15.07831-14.91953 14.91953-14.76073 14.76073-14.50606 14.50606-14.34727 14.34727-14.18849 14.18849-13.9338 13.9338-13.77502 13.77502-13.61624 13.61624-13.36156 13.36156-13.20277 13.20277-13.04399 13.04399-12.7893 12.7893-12.63052 12.63052-12.47174 12.47174-12.21706 12.21706-12.05827 12.05827-11.89949 11.89949-11.64482 11.64482-11.48602 11.48602-11.32724 11.32724-11.07257 11.07257-10.91379 10.91379-10.75499 10.75499-10.50032 10.50032-10.34154 10.34154-10.18275 10.18275-9.92807 9.92807-9.76929 9.76929-9.6105 9.6105-9.35582 9.35582-9.19704 9.19704-9.03825 9.03825-8.78357 8.78357-8.62479 8.62479-8.466 8.466-8.21132 8.21132-8.05254 8.05254-7.89375 7.89375-7.63908 7.63908-7.48029 7.48029-7.3215 7.3215-7.06683 7.06683-6.90805 6.90805-6.74927 6.74927-6.49458 6.49458-6.3358 6.3358-6.17702 6.17702-5.92233 5.92233-5.76355 5.76355-5.60477 5.60477-5.35008 5.35008-5.1913 5.1913-5.03252 5.03252-4.77783 4.77783-4.61905 4.61905-4.46027 4.46027-4.20558 4.20558-4.0468 4.0468-3.88802 3.88802-3.63335 3.63335-3.47456 3.47456-3.31577 3.31577-3.0611 3.0611-2.90231 2.90231-2.74353 2.74353-2.48885 2.48885-2.33006 2.33006-2.17128 2.17128-1.9166 1.9166-1.75781 1.75781-1.59903 1.59903-1.34435 1.34435-1.18556 1.18556-1.02678 1.02678-.7721 .7721-.61331 .61331-.45453 .45453-.04108 .04108-.04108 .04108"/>
<use data-text="f" xlink:href="#font_1_3" transform="matrix(9.963098,0,0,-9.962799,77.82799,103.50475)"/>
<use data-text="(" xlink:href="#font_2_1" transform="matrix(9.963098,0,0,-9.962799,83.778278,103.50475)"/>
<use data-text="x" xlink:href="#font_1_4" transform="matrix(9.963098,0,0,-9.962799,87.65347,103.50475)"/>
<use data-text=")" xlink:href="#font_2_2" transform="matrix(9.963098,0,0,-9.962799,93.346759,103.50475)"/>
<use data-text="=" xlink:href="#font_2_5" transform="matrix(9.963098,0,0,-9.962799,99.97221,103.50475)"/>
<use data-text="&#xf8f1;" xlink:href="#font_3_1" transform="matrix(9.963098,0,0,-9.962799,110.505619,80.09128)"/>
<use data-text="&#xf8f4;" xlink:href="#font_3_4" transform="matrix(9.963098,0,0,-9.962799,110.505619,89.058467)"/>
<use data-text="&#xf8f2;" xlink:href="#font_3_3" transform="matrix(9.963098,0,0,-9.962799,110.505619,92.046527)"/>
<use data-text="&#xf8f4;" xlink:href="#font_3_4" transform="matrix(9.963098,0,0,-9.962799,110.505619,109.97988)"/>
<use data-text="&#xf8f3;" xlink:href="#font_3_2" transform="matrix(9.963098,0,0,-9.962799,110.505619,112.96893)"/>
<use data-text="3" xlink:href="#font_4_1" transform="matrix(4.981549,0,0,-4.9813997,122.129199,86.1854)"/>
<use data-text="&#x221a;" xlink:href="#font_5_3" transform="matrix(9.963098,0,0,-9.962799,119.98509,82.36032)"/>
<path transform="matrix(1.00005,0,0,-1.00002,-73.306568,49.670675)" stroke-width=".3985" stroke-linecap="butt" stroke-miterlimit="10" stroke-linejoin="miter" fill="none" stroke="#000000" d="M201.584-32.49H207.278"/>
<use data-text="x" xlink:href="#font_1_4" transform="matrix(9.963098,0,0,-9.962799,128.2875,89.53647)"/>
<use data-text="i" xlink:href="#font_6_66" transform="matrix(9.963098,0,0,-9.962799,143.94429,89.53647)"/>
<use data-text="f" xlink:href="#font_6_55" transform="matrix(9.963098,0,0,-9.962799,146.71404,89.53647)"/>
<use data-text="x" xlink:href="#font_1_4" transform="matrix(9.963098,0,0,-9.962799,153.08075,89.53647)"/>
<use data-text="&#x2265;" xlink:href="#font_5_2" transform="matrix(9.963098,0,0,-9.962799,161.54218,89.53647)"/>
<use data-text="1" xlink:href="#font_2_4" transform="matrix(9.963098,0,0,-9.962799,172.0597,89.53647)"/>
<use data-text="x" xlink:href="#font_1_4" transform="matrix(9.963098,0,0,-9.962799,119.36206,103.88277)"/>
<use data-text="2" xlink:href="#font_7_1" transform="matrix(6.9741489,0,0,-6.97394,125.056339,100.267688)"/>
<use data-text="i" xlink:href="#font_6_66" transform="matrix(9.963098,0,0,-9.962799,143.94528,103.88277)"/>
<use data-text="f" xlink:href="#font_6_55" transform="matrix(9.963098,0,0,-9.962799,146.71503,103.88277)"/>
<use data-text="1" xlink:href="#font_2_4" transform="matrix(9.963098,0,0,-9.962799,153.08074,103.88277)"/>
<use data-text="&#x003e;" xlink:href="#font_1_2" transform="matrix(9.963098,0,0,-9.962799,160.83011,103.88277)"/>
<use data-text="x" xlink:href="#font_1_4" transform="matrix(9.963098,0,0,-9.962799,171.33123,103.88277)"/>
<use data-text="&#x2265;" xlink:href="#font_5_2" transform="matrix(9.963098,0,0,-9.962799,179.80808,103.88277)"/>
<use data-text="0" xlink:href="#font_2_3" transform="matrix(9.963098,0,0,-9.962799,190.32457,103.88277)"/>
<use data-text="&#x2212;" xlink:href="#font_5_1" transform="matrix(9.963098,0,0,-9.962799,119.362049,118.22905)"/>
<use data-text="x" xlink:href="#font_1_4" transform="matrix(9.963098,0,0,-9.962799,127.11142,118.22905)"/>
<use data-text="i" xlink:href="#font_6_66" transform="matrix(9.963098,0,0,-9.962799,143.94525,118.22905)"/>
<use data-text="f" xlink:href="#font_6_55" transform="matrix(9.963098,0,0,-9.962799,146.715,118.22905)"/>
<use data-text="x" xlink:href="#font_1_4" transform="matrix(9.963098,0,0,-9.962799,153.0807,118.22905)"/>
<use data-text="&#x003c;" xlink:href="#font_1_1" transform="matrix(9.963098,0,0,-9.962799,161.52942,118.22905)"/>
<use data-text="0" xlink:href="#font_2_3" transform="matrix(9.963098,0,0,-9.962799,172.05965,118.22905)"/>
</svg>
