<svg xmlns="http://www.w3.org/2000/svg" xmlns:xlink="http://www.w3.org/1999/xlink" xmlns:inkscape="http://www.inkscape.org/namespaces/inkscape" version="1.1" width="287" height="76" viewBox="0 0 287 76">
<defs>
<path id="font_1_47" d="M.43399049-.0001373291V.69433596H.35899354V.39985658C.30599977 .44407655 .25 .45507813 .21299744 .45507813 .11399841 .45507813 .035995485 .35107423 .035995485 .22210694 .035995485 .09111023 .11299133-.0107421879 .20799256-.0107421879 .24099732-.0107421879 .2999878-.0017547608 .35598756 .052246095V.00024414063L.43399049-.0001373291M.35598756 .13911438C.35598756 .12512207 .35499574 .1071167 .32299806 .078125 .2999878 .05821228 .2749939 .050247194 .24899292 .050247194 .18699646 .050247194 .11399841 .09712219 .11399841 .22109986 .11399841 .35307313 .19999695 .3940735 .25898744 .3940735 .3039856 .39385987 .33399964 .37086488 .35598756 .3388672V.13911438Z"/>
<path id="font_1_66" d="M.1559906 0V.44433595H.08099365V0H.1559906M.1639862 .5662689V.65527346H.07499695V.5662689H.1639862Z"/>
<path id="font_1_98" d="M.3600006 .12817383C.3600006 .18313599 .32299806 .21710205 .32099916 .22009278 .28199769 .25506593 .25498963 .26106263 .20498657 .27005006 .1499939 .28103639 .10398865 .29103089 .10398865 .33998109 .10398865 .40193177 .17599488 .40193177 .18899536 .40193177 .22099304 .40193177 .27398683 .39793397 .33099366 .3639679L.34298707 .42892457C.29100038 .45292665 .25 .4609375 .19898987 .4609375 .17399597 .4609375 .032989503 .4609375 .032989503 .32998658 .032989503 .28103639 .06199646 .24906922 .08699036 .23008728 .117996219 .20809937 .13999939 .20411682 .19499207 .19311524 .23098755 .18612671 .2889862 .1741333 .2889862 .1211853 .2889862 .052246095 .20999146 .052246095 .19499207 .052246095 .11399841 .052246095 .057998659 .08921814 .039993287 .10121155L.027999878 .0332489C.05999756 .01725769 .114990238-.0107421879 .19599915-.0107421879 .21398926-.0107421879 .2689972-.0107421879 .31199647 .021255494 .34298707 .04525757 .3600006 .08522034 .3600006 .12817383Z"/>
<path id="font_1_105" d="M.33198548 .027252198 .31599427 .086257938C.2899933 .06524658 .2579956 .053253175 .22599793 .053253175 .18899536 .053253175 .1749878 .08325195 .1749878 .13627625V.38632203H.31599427V.44433595H.1749878V.57128909H.10598755V.44433595H.018997193V.38632203H.102996829V.119262699C.102996829 .059249879 .116989139-.0107421879 .18598938-.0107421879 .2559967-.0107421879 .30699159 .014251709 .33198548 .027252198Z"/>
<path id="font_1_28" d="M.40899659 .00024414063V.28903199C.40899659 .39094544 .33599855 .4609375 .24398804 .4609375 .1789856 .4609375 .13398743 .44493104 .08699036 .41792298L.09298706 .3519745C.14498902 .38894654 .19499207 .40193177 .24398804 .40193177 .29100038 .40193177 .33099366 .361969 .33099366 .2880249V.24505615C.18099976 .24305725 .053985597 .20106507 .053985597 .11317444 .053985597 .07022095 .08099365-.0107421879 .16799927-.0107421879 .18199158-.0107421879 .27598573-.008743286 .33399964 .036254884V.00024414063H.40899659M.33099366 .13214112C.33099366 .11317444 .33099366 .0881958 .29699708 .069229129 .2679901 .051254274 .22999573 .050247194 .21899414 .050247194 .17098999 .050247194 .12599182 .07322693 .12599182 .11515808 .12599182 .18507385 .28799439 .19206238 .33099366 .19406128V.13214112Z"/>
<path id="font_1_77" d="M.43499757 0V.29804994C.43499757 .36405946 .41999818 .45507813 .2979889 .45507813 .20799256 .45507813 .15899658 .3870697 .15299988 .3790741V.45007325H.08099365V0H.15899658V.2450409C.15899658 .31105042 .18399048 .3940735 .2599945 .3940735 .35598756 .3940735 .35699464 .32305909 .35699464 .29104615V0H.43499757Z"/>
<path id="font_1_43" d="M.4149933 .040252687 .40899659 .10719299C.35798646 .067230228 .3039856 .053253175 .25299073 .053253175 .16999817 .053253175 .11399841 .1251831 .11399841 .2230835 .11399841 .3010254 .15098572 .39692689 .25698854 .39692689 .30899049 .39692689 .34298707 .38893128 .397995 .3529663L.4099884 .41792298C.35099793 .4519348 .31698609 .4609375 .2559967 .4609375 .116989139 .4609375 .035995485 .33998109 .035995485 .22209168 .035995485 .09820557 .1269989-.0107421879 .2519989-.0107421879 .30599977-.0107421879 .36099244 .003250122 .4149933 .040252687Z"/>
<path id="font_1_50" d="M.4139862 .21875C.4139862 .25274659 .41299439 .32781983 .37399293 .38790895 .33299256 .4499359 .27198792 .4609375 .23599243 .4609375 .125 .4609375 .034988405 .3548584 .034988405 .22573853 .034988405 .09411621 .1309967-.0107421879 .25099183-.0107421879 .31399537-.0107421879 .37098695 .013244629 .4099884 .041244508L.4039917 .1060791C.34098817 .054244996 .2749939 .050247194 .2519989 .050247194 .17199707 .050247194 .10798645 .121032718 .10499573 .21875H.4139862M.35699464 .27374269H.10998535C.12599182 .34985353 .1789856 .39993287 .23599243 .39993287 .28799439 .39993287 .34399415 .36587525 .35699464 .27374269Z"/>
<path id="font_2_1" d="M.3909912 .37405396C.36299134 .37304688 .34298707 .3510437 .34298707 .32904054 .34298707 .31503297 .35198976 .30003358 .37399293 .30003358 .3959961 .30003358 .41999818 .31703187 .41999818 .35603334 .41999818 .40124513 .3769989 .4423828 .30099488 .4423828 .16899109 .4423828 .13198853 .3400421 .13198853 .29605104 .13198853 .21820069 .20599365 .20323181 .23498535 .19725037 .2869873 .18727112 .33898927 .17628479 .33898927 .12133789 .33898927 .095336917 .31599427 .011245728 .19599915 .011245728 .18199158 .011245728 .10499573 .011245728 .08198547 .064331058 .11999512 .059326173 .14498902 .08934021 .14498902 .11734009 .14498902 .14033509 .1289978 .15234375 .10798645 .15234375 .08198547 .15234375 .051986696 .1313324 .051986696 .08633423 .051986696 .029281617 .10899353-.0107421879 .19499207-.0107421879 .35699464-.0107421879 .3959961 .1103363 .3959961 .15533448 .3959961 .19125366 .3769989 .21620178 .36499024 .22817993 .33799745 .25613404 .30899049 .26112367 .2649994 .27009584 .22898865 .27807618 .18899536 .2850647 .18899536 .33003236 .18899536 .3590393 .21299744 .42037965 .30099488 .42037965 .32598878 .42037965 .37599183 .41333009 .3909912 .37405396Z"/>
<path id="font_3_1" d="M.33499146 .63612368C.33499146 .6630554 .33299256 .6640625 .30499269 .6640625 .24099732 .6014404 .1499939 .6004486 .10899353 .6004486V.5644531C.1329956 .5644531 .19898987 .5644531 .2539978 .592453V.08203125C.2539978 .04899597 .2539978 .035995485 .1539917 .035995485H.115997318V0C.13398743 .0009918213 .25698854 .0039978029 .2939911 .0039978029 .32499696 .0039978029 .45098878 .0009918213 .47299195 0V.035995485H.43499757C.33499146 .035995485 .33499146 .04899597 .33499146 .08203125V.63612368Z"/>
<path id="font_1_75" d="M.71299746 0V.29804994C.71299746 .36506654 .69699099 .45507813 .57598879 .45507813 .5159912 .45507813 .46398927 .427063 .4269867 .37306214 .40098573 .44906617 .33099366 .45507813 .29899598 .45507813 .22698975 .45507813 .17999268 .41407777 .15299988 .37806703V.45007325H.08099365V0H.15899658V.2450409C.15899658 .31304933 .18598938 .3940735 .2599945 .3940735 .35299684 .3940735 .35798646 .3290558 .35798646 .29104615V0H.43598939V.2450409C.43598939 .31304933 .46299745 .3940735 .5369873 .3940735 .6299896 .3940735 .6349945 .3290558 .6349945 .29104615V0H.71299746Z"/>
<path id="font_2_2" d="M.20599365 .3996582H.2999878C.31999208 .3996582 .32998658 .3996582 .32998658 .41966249 .32998658 .43066407 .31999208 .43066407 .3019867 .43066407H.21398926C.25 .5724945 .25498963 .59246829 .25498963 .59846499 .25498963 .61546328 .24299622 .62545779 .22599793 .62545779 .22299195 .62545779 .19499207 .62446597 .18598938 .58947756L.14698792 .43066407H.052993776C.032989503 .43066407 .022994996 .43066407 .022994996 .4116516 .022994996 .3996582 .0309906 .3996582 .050994874 .3996582H.13899231C.066986087 .11608887 .06298828 .099121097 .06298828 .08114624 .06298828 .02722168 .100997928-.0107421879 .15499878-.0107421879 .25698854-.0107421879 .31399537 .13505554 .31399537 .14305115 .31399537 .1530304 .30599977 .1530304 .3019867 .1530304 .29299928 .1530304 .2919922 .15003968 .2869873 .13905335 .24398804 .035217287 .19099427 .011245728 .15699768 .011245728 .13598633 .011245728 .12599182 .024230957 .12599182 .057174684 .12599182 .08114624 .12799073 .088134769 .13198853 .10510254L.20599365 .3996582Z"/>
<path id="font_3_2" d="M.5049896 .18203736H.47099305C.46798707 .16001892 .45799256 .100997928 .44499208 .09098816 .43699647 .084991458 .3600006 .084991458 .34599305 .084991458H.1619873C.2669983 .17803955 .3019867 .20603943 .3619995 .25306703 .43598939 .312088 .5049896 .374115 .5049896 .46914674 .5049896 .5900879 .39898683 .6640625 .2709961 .6640625 .14698792 .6640625 .06298828 .57710269 .06298828 .4851532 .06298828 .43414308 .10598755 .42915345 .115997318 .42915345 .13999939 .42915345 .16899109 .44615174 .16899109 .48214723 .16899109 .5001526 .1619873 .53515627 .10998535 .53515627 .14099121 .6060791 .20899964 .62805178 .2559967 .62805178 .35598756 .62805178 .4079895 .5501404 .4079895 .46914674 .4079895 .38212586 .34599305 .3130951 .31399537 .27708436L.07299805 .038986207C.06298828 .02999878 .06298828 .027999878 .06298828 0H.47499085L.5049896 .18203736Z"/>
<path id="font_4_1" d="M.44198609 .69781497C.43499757 .7108154 .43299867 .7158203 .41600038 .7158203 .39898683 .7158203 .39698792 .7108154 .3899994 .69781497L.051986696 .019989014C.04699707 .010986328 .04699707 .008987427 .04699707 .0079956059 .04699707 0 .052993776 0 .068984989 0H.7630005C.7789917 0 .7849884 0 .7849884 .0079956059 .7849884 .008987427 .7849884 .010986328 .7799988 .019989014L.44198609 .69781497M.38398744 .61582949 .6529999 .07598877H.11399841L.38398744 .61582949Z"/>
<path id="font_4_2" d="M.68699648 .32714845C.70199587 .32714845 .72099307 .32714845 .72099307 .34713746 .72099307 .36714173 .70199587 .36714173 .6879883 .36714173H.08898926C.07499695 .36714173 .055999757 .36714173 .055999757 .34713746 .055999757 .32714845 .07499695 .32714845 .08999634 .32714845H.68699648M.6879883 .13284302C.70199587 .13284302 .72099307 .13284302 .72099307 .15284729 .72099307 .17285156 .70199587 .17285156 .68699648 .17285156H.08999634C.07499695 .17285156 .055999757 .17285156 .055999757 .15284729 .055999757 .13284302 .07499695 .13284302 .08898926 .13284302H.6879883Z"/>
<path id="font_5_1" d="M.6589966 .23046875C.6759949 .23046875 .69400027 .23046875 .69400027 .25045777 .69400027 .27046205 .6759949 .27046205 .6589966 .27046205H.117996219C.100997928 .27046205 .08299255 .27046205 .08299255 .25045777 .08299255 .23046875 .100997928 .23046875 .117996219 .23046875H.6589966Z"/>
</defs>
<path transform="matrix(1.00003,0,0,-1,1.9307022,55.368)" stroke-width=".3985" stroke-linecap="butt" stroke-miterlimit="10" stroke-linejoin="miter" fill="none" stroke="#000000" d="M0 0H283.4681"/>
<path transform="matrix(1.00003,0,0,-1,1.9307022,55.368)" stroke-width=".79701" stroke-linecap="butt" stroke-miterlimit="10" stroke-linejoin="miter" fill="none" stroke="#000000" d="M.99628 3.54312H34.43506C34.98529 3.54312 35.43134 3.98917 35.43134 4.5394V9.6331C35.43134 10.18333 34.99138 10.70271 34.44867 10.79315L25.7846 12.23718C25.24188 12.32762 24.55452 12.77208 24.24934 13.22987L21.81139 16.88675C21.5062 17.34454 20.81274 17.71567 20.26251 17.71567H9.8541C9.30386 17.71567 8.64119 17.32576 8.374 16.84479L5.79851 12.20892C5.53131 11.72795 4.87256 11.27908 4.3272 11.20638L.98749 10.76106C.44211 10.68835 0 10.18333 0 9.6331V4.5394C0 3.98917 .44603 3.54312 .99628 3.54312Z"/>
<path transform="matrix(1.00003,0,0,-1,1.9307022,55.368)" d="M10.62938 3.54312C10.62938 5.49994 9.04309 7.08624 7.08626 7.08624 5.12943 7.08624 3.54314 5.49994 3.54314 3.54312 3.54314 1.58629 5.12943 0 7.08626 0 9.04309 0 10.62938 1.58629 10.62938 3.54312ZM7.08626 3.54312" fill="#ffffff"/>
<path transform="matrix(1.00003,0,0,-1,1.9307022,55.368)" stroke-width=".79701" stroke-linecap="butt" stroke-miterlimit="10" stroke-linejoin="miter" fill="none" stroke="#000000" d="M10.62938 3.54312C10.62938 5.49994 9.04309 7.08624 7.08626 7.08624 5.12943 7.08624 3.54314 5.49994 3.54314 3.54312 3.54314 1.58629 5.12943 0 7.08626 0 9.04309 0 10.62938 1.58629 10.62938 3.54312ZM7.08626 3.54312"/>
<path transform="matrix(1.00003,0,0,-1,1.9307022,55.368)" d="M31.8882 3.54312C31.8882 5.49994 30.3019 7.08624 28.34506 7.08624 26.38824 7.08624 24.80194 5.49994 24.80194 3.54312 24.80194 1.58629 26.38824 0 28.34506 0 30.3019 0 31.8882 1.58629 31.8882 3.54312ZM28.34506 3.54312" fill="#ffffff"/>
<path transform="matrix(1.00003,0,0,-1,1.9307022,55.368)" stroke-width=".79701" stroke-linecap="butt" stroke-miterlimit="10" stroke-linejoin="miter" fill="none" stroke="#000000" d="M31.8882 3.54312C31.8882 5.49994 30.3019 7.08624 28.34506 7.08624 26.38824 7.08624 24.80194 5.49994 24.80194 3.54312 24.80194 1.58629 26.38824 0 28.34506 0 30.3019 0 31.8882 1.58629 31.8882 3.54312ZM28.34506 3.54312"/>
<path transform="matrix(1.00003,0,0,-1,1.9307022,55.368)" stroke-width=".79701" stroke-linecap="butt" stroke-miterlimit="10" stroke-linejoin="miter" fill="none" stroke="#000000" d="M86.0367 3.54312H119.4755C120.02573 3.54312 120.47177 3.98917 120.47177 4.5394V9.6331C120.47177 10.18333 120.0318 10.70271 119.48909 10.79315L110.82503 12.23718C110.28232 12.32762 109.59494 12.77208 109.28976 13.22987L106.8518 16.88675C106.54663 17.34454 105.85318 17.71567 105.30295 17.71567H94.89453C94.34428 17.71567 93.68163 17.32576 93.41441 16.84479L90.83894 12.20892C90.57173 11.72795 89.913 11.27908 89.36761 11.20638L86.02791 10.76106C85.48254 10.68835 85.04042 10.18333 85.04042 9.6331V4.5394C85.04042 3.98917 85.48647 3.54312 86.0367 3.54312Z"/>
<path transform="matrix(1.00003,0,0,-1,1.9307022,55.368)" d="M95.66982 3.54312C95.66982 5.49994 94.08351 7.08624 92.1267 7.08624 90.16986 7.08624 88.58356 5.49994 88.58356 3.54312 88.58356 1.58629 90.16986 0 92.1267 0 94.08351 0 95.66982 1.58629 95.66982 3.54312ZM92.1267 3.54312" fill="#ffffff"/>
<path transform="matrix(1.00003,0,0,-1,1.9307022,55.368)" stroke-width=".79701" stroke-linecap="butt" stroke-miterlimit="10" stroke-linejoin="miter" fill="none" stroke="#000000" d="M95.66982 3.54312C95.66982 5.49994 94.08351 7.08624 92.1267 7.08624 90.16986 7.08624 88.58356 5.49994 88.58356 3.54312 88.58356 1.58629 90.16986 0 92.1267 0 94.08351 0 95.66982 1.58629 95.66982 3.54312ZM92.1267 3.54312"/>
<path transform="matrix(1.00003,0,0,-1,1.9307022,55.368)" d="M116.92862 3.54312C116.92862 5.49994 115.34233 7.08624 113.3855 7.08624 111.42867 7.08624 109.84238 5.49994 109.84238 3.54312 109.84238 1.58629 111.42867 0 113.3855 0 115.34233 0 116.92862 1.58629 116.92862 3.54312ZM113.3855 3.54312" fill="#ffffff"/>
<path transform="matrix(1.00003,0,0,-1,1.9307022,55.368)" stroke-width=".79701" stroke-linecap="butt" stroke-miterlimit="10" stroke-linejoin="miter" fill="none" stroke="#000000" d="M116.92862 3.54312C116.92862 5.49994 115.34233 7.08624 113.3855 7.08624 111.42867 7.08624 109.84238 5.49994 109.84238 3.54312 109.84238 1.58629 111.42867 0 113.3855 0 115.34233 0 116.92862 1.58629 116.92862 3.54312ZM113.3855 3.54312"/>
<path transform="matrix(1.00003,0,0,-1,1.9307022,55.368)" stroke-width=".79701" stroke-linecap="butt" stroke-miterlimit="10" stroke-linejoin="miter" fill="none" stroke="#000000" d="M266.63716 0 269.29469 5.31502 271.9522 0"/>
<path transform="matrix(1.00003,0,0,-1,1.9307022,55.368)" stroke-width=".79701" stroke-linecap="butt" stroke-miterlimit="10" stroke-linejoin="miter" fill="none" stroke="#000000" d="M269.29469 5.31502V16.21107"/>
<path transform="matrix(1.00003,0,0,-1,1.9307022,55.368)" stroke-width=".79701" stroke-linecap="butt" stroke-miterlimit="10" stroke-linejoin="miter" fill="none" stroke="#000000" d="M266.63716 9.03528 271.9522 11.1612"/>
<path transform="matrix(1.00003,0,0,-1,1.9307022,55.368)" d="M271.9099 16.21107C271.9099 17.65543 270.73905 18.82631 269.29469 18.82631 267.85035 18.82631 266.67948 17.65543 266.67948 16.21107 266.67948 14.76672 267.85035 13.59586 269.29469 13.59586 270.73905 13.59586 271.9099 14.76672 271.9099 16.21107ZM269.29469 16.21107" fill="#ffffff"/>
<path transform="matrix(1.00003,0,0,-1,1.9307022,55.368)" stroke-width=".79701" stroke-linecap="butt" stroke-miterlimit="10" stroke-linejoin="miter" fill="none" stroke="#000000" d="M271.9099 16.21107C271.9099 17.65543 270.73905 18.82631 269.29469 18.82631 267.85035 18.82631 266.67948 17.65543 266.67948 16.21107 266.67948 14.76672 267.85035 13.59586 269.29469 13.59586 270.73905 13.59586 271.9099 14.76672 271.9099 16.21107ZM269.29469 16.21107"/>
<path transform="matrix(1.00003,0,0,-1,1.9307022,55.368)" stroke-width=".3985" stroke-linecap="butt" stroke-miterlimit="10" stroke-linejoin="miter" fill="none" stroke="#000000" d="M39.41852 42.5202H265.30967"/>
<path transform="matrix(-1.00003,-0,0,1,41.350408,12.847801)" d="M3.58653 0C2.52383 .19925 .797 .797-.3985 1.49438V-1.49438C.797-.797 2.52383-.19925 3.58653 0"/>
<path transform="matrix(-1.00003,-0,0,1,37.664136,12.847801)" stroke-width=".3985" stroke-linecap="square" stroke-miterlimit="10" stroke-linejoin="miter" fill="none" stroke="#000000" d="M.09961-2.5903V2.5903"/>
<path transform="matrix(1.00003,0,0,-1,267.24833,12.847801)" d="M3.58653 0C2.52383 .19925 .797 .797-.3985 1.49438V-1.49438C.797-.797 2.52383-.19925 3.58653 0"/>
<path transform="matrix(1.00003,0,0,-1,270.93458,12.847801)" stroke-width=".3985" stroke-linecap="square" stroke-miterlimit="10" stroke-linejoin="miter" fill="none" stroke="#000000" d="M.09961-2.5903V2.5903"/>
<path transform="matrix(1.00003,0,0,-1,1.9307022,55.368)" d="M103.58795 42.71945H201.14023V57.76913H103.58795Z" fill="#ffffff"/>
<use data-text="d" xlink:href="#font_1_47" transform="matrix(9.962899,0,0,-9.9626,108.84291,7.8339998)"/>
<use data-text="i" xlink:href="#font_1_66" transform="matrix(9.962899,0,0,-9.9626,113.99373,7.8339998)"/>
<use data-text="s" xlink:href="#font_1_98" transform="matrix(9.962899,0,0,-9.9626,116.37486,7.8339998)"/>
<use data-text="t" xlink:href="#font_1_105" transform="matrix(9.962899,0,0,-9.9626,120.19065,7.8339998)"/>
<use data-text="a" xlink:href="#font_1_28" transform="matrix(9.962899,0,0,-9.9626,123.787258,7.8339998)"/>
<use data-text="n" xlink:href="#font_1_77" transform="matrix(9.962899,0,0,-9.9626,128.5794,7.8339998)"/>
<use data-text="c" xlink:href="#font_1_43" transform="matrix(9.962899,0,0,-9.9626,133.73023,7.8339998)"/>
<use data-text="e" xlink:href="#font_1_50" transform="matrix(9.962899,0,0,-9.9626,138.15375,7.8339998)"/>
<use data-text="s" xlink:href="#font_2_1" transform="matrix(9.962899,0,0,-9.9626,145.89502,7.8339998)"/>
<use data-text="1" xlink:href="#font_3_1" transform="matrix(6.9740097,0,0,-6.9738,150.56516,9.328999)"/>
<use data-text="a" xlink:href="#font_1_28" transform="matrix(9.962899,0,0,-9.9626,158.35242,7.8339998)"/>
<use data-text="t" xlink:href="#font_1_105" transform="matrix(9.962899,0,0,-9.9626,163.14456,7.8339998)"/>
<use data-text="t" xlink:href="#font_1_105" transform="matrix(9.962899,0,0,-9.9626,170.0588,7.8339998)"/>
<use data-text="i" xlink:href="#font_1_66" transform="matrix(9.962899,0,0,-9.9626,173.65543,7.8339998)"/>
<use data-text="m" xlink:href="#font_1_75" transform="matrix(9.962899,0,0,-9.9626,176.03653,7.8339998)"/>
<use data-text="e" xlink:href="#font_1_50" transform="matrix(9.962899,0,0,-9.9626,183.94709,7.8339998)"/>
<use data-text="t" xlink:href="#font_2_2" transform="matrix(9.962899,0,0,-9.9626,191.68842,7.8339998)"/>
<use data-text="1" xlink:href="#font_3_1" transform="matrix(6.9740097,0,0,-6.9738,195.28653,9.328999)"/>
<path transform="matrix(1.00003,0,0,-1,1.9307022,55.368)" stroke-width=".3985" stroke-linecap="butt" stroke-miterlimit="10" stroke-linejoin="miter" fill="none" stroke="#000000" d="M124.45895 28.3468H265.30967"/>
<path transform="matrix(-1.00003,-0,0,1,126.39339,27.0212)" d="M3.58653 0C2.52383 .19925 .797 .797-.3985 1.49438V-1.49438C.797-.797 2.52383-.19925 3.58653 0"/>
<path transform="matrix(-1.00003,-0,0,1,122.70713,27.0212)" stroke-width=".3985" stroke-linecap="square" stroke-miterlimit="10" stroke-linejoin="miter" fill="none" stroke="#000000" d="M.09961-2.5903V2.5903"/>
<path transform="matrix(1.00003,0,0,-1,267.24833,27.0212)" d="M3.58653 0C2.52383 .19925 .797 .797-.3985 1.49438V-1.49438C.797-.797 2.52383-.19925 3.58653 0"/>
<path transform="matrix(1.00003,0,0,-1,270.93458,27.0212)" stroke-width=".3985" stroke-linecap="square" stroke-miterlimit="10" stroke-linejoin="miter" fill="none" stroke="#000000" d="M.09961-2.5903V2.5903"/>
<path transform="matrix(1.00003,0,0,-1,1.9307022,55.368)" d="M146.10816 13.09787H243.66043V28.147549H146.10816Z" fill="#ffffff"/>
<use data-text="d" xlink:href="#font_1_47" transform="matrix(9.962899,0,0,-9.9626,151.3642,37.455)"/>
<use data-text="i" xlink:href="#font_1_66" transform="matrix(9.962899,0,0,-9.9626,156.51502,37.455)"/>
<use data-text="s" xlink:href="#font_1_98" transform="matrix(9.962899,0,0,-9.9626,158.89615,37.455)"/>
<use data-text="t" xlink:href="#font_1_105" transform="matrix(9.962899,0,0,-9.9626,162.71193,37.455)"/>
<use data-text="a" xlink:href="#font_1_28" transform="matrix(9.962899,0,0,-9.9626,166.30854,37.455)"/>
<use data-text="n" xlink:href="#font_1_77" transform="matrix(9.962899,0,0,-9.9626,171.10068,37.455)"/>
<use data-text="c" xlink:href="#font_1_43" transform="matrix(9.962899,0,0,-9.9626,176.2515,37.455)"/>
<use data-text="e" xlink:href="#font_1_50" transform="matrix(9.962899,0,0,-9.9626,180.67504,37.455)"/>
<use data-text="s" xlink:href="#font_2_1" transform="matrix(9.962899,0,0,-9.9626,188.4163,37.455)"/>
<use data-text="2" xlink:href="#font_3_2" transform="matrix(6.9740097,0,0,-6.9738,193.08644,38.949998)"/>
<use data-text="a" xlink:href="#font_1_28" transform="matrix(9.962899,0,0,-9.9626,200.87369,37.455)"/>
<use data-text="t" xlink:href="#font_1_105" transform="matrix(9.962899,0,0,-9.9626,205.66584,37.455)"/>
<use data-text="t" xlink:href="#font_1_105" transform="matrix(9.962899,0,0,-9.9626,212.5801,37.455)"/>
<use data-text="i" xlink:href="#font_1_66" transform="matrix(9.962899,0,0,-9.9626,216.1767,37.455)"/>
<use data-text="m" xlink:href="#font_1_75" transform="matrix(9.962899,0,0,-9.9626,218.55782,37.455)"/>
<use data-text="e" xlink:href="#font_1_50" transform="matrix(9.962899,0,0,-9.9626,226.46837,37.455)"/>
<use data-text="t" xlink:href="#font_2_2" transform="matrix(9.962899,0,0,-9.9626,234.20969,37.455)"/>
<use data-text="2" xlink:href="#font_3_2" transform="matrix(6.9740097,0,0,-6.9738,237.8078,38.949998)"/>
<path transform="matrix(1.00003,0,0,-1,1.9307022,55.368)" stroke-width=".3985" stroke-linecap="butt" stroke-miterlimit="10" stroke-linejoin="miter" fill="none" stroke="#000000" d="M39.41852-7.08669H116.48889"/>
<path transform="matrix(-1.00003,-0,0,1,41.350408,62.45469)" d="M3.58653 0C2.52383 .19925 .797 .797-.3985 1.49438V-1.49438C.797-.797 2.52383-.19925 3.58653 0"/>
<path transform="matrix(-1.00003,-0,0,1,37.664136,62.45469)" stroke-width=".3985" stroke-linecap="square" stroke-miterlimit="10" stroke-linejoin="miter" fill="none" stroke="#000000" d="M.09961-2.5903V2.5903"/>
<path transform="matrix(1.00003,0,0,-1,118.423099,62.45469)" d="M3.58653 0C2.52383 .19925 .797 .797-.3985 1.49438V-1.49438C.797-.797 2.52383-.19925 3.58653 0"/>
<path transform="matrix(1.00003,0,0,-1,122.10936,62.45469)" stroke-width=".3985" stroke-linecap="square" stroke-miterlimit="10" stroke-linejoin="miter" fill="none" stroke="#000000" d="M.09961-2.5903V2.5903"/>
<path transform="matrix(1.00003,0,0,-1,1.9307022,55.368)" d="M46.27737-22.22932H109.630039V-7.2859308H46.27737Z" fill="#ffffff"/>
<use data-text="&#x2206;" xlink:href="#font_4_1" transform="matrix(9.962899,0,0,-9.9626,51.530195,72.782)"/>
<use data-text="s" xlink:href="#font_2_1" transform="matrix(9.962899,0,0,-9.9626,59.832448,72.782)"/>
<use data-text="=" xlink:href="#font_4_2" transform="matrix(9.962899,0,0,-9.9626,67.270679,72.782)"/>
<use data-text="s" xlink:href="#font_2_1" transform="matrix(9.962899,0,0,-9.9626,77.78699,72.782)"/>
<use data-text="2" xlink:href="#font_3_2" transform="matrix(6.9740097,0,0,-6.9738,82.45712,74.277)"/>
<use data-text="&#x2212;" xlink:href="#font_5_1" transform="matrix(9.962899,0,0,-9.9626,89.14032,72.782)"/>
<use data-text="s" xlink:href="#font_2_1" transform="matrix(9.962899,0,0,-9.9626,99.10362,72.782)"/>
<use data-text="1" xlink:href="#font_3_1" transform="matrix(6.9740097,0,0,-6.9738,103.77376,74.277)"/>
</svg>
