<svg xmlns="http://www.w3.org/2000/svg" xmlns:xlink="http://www.w3.org/1999/xlink" xmlns:inkscape="http://www.inkscape.org/namespaces/inkscape" version="1.1" width="201" height="202" viewBox="0 0 201 202">
<path transform="matrix(1,0,0,-1.00003,58.106004,143.53583)" stroke-width=".3985" stroke-linecap="butt" stroke-miterlimit="10" stroke-linejoin="miter" fill="none" stroke="#000000" d="M-53.10707 0H138.1475"/>
<path transform="matrix(-1,-0,0,1.00003,4.998932,143.53583)" d="M3.58653 0C2.52383 .19925 .797 .797-.3985 1.49438V-1.49438C.797-.797 2.52383-.19925 3.58653 0"/>
<path transform="matrix(1,0,0,-1.00003,196.25351,143.53583)" d="M3.58653 0C2.52383 .19925 .797 .797-.3985 1.49438V-1.49438C.797-.797 2.52383-.19925 3.58653 0"/>
<path transform="matrix(1,0,0,-1.00003,58.106004,143.53583)" stroke-width=".3985" stroke-linecap="butt" stroke-miterlimit="10" stroke-linejoin="miter" fill="none" stroke="#000000" d="M0-53.10707V138.1475"/>
<path transform="matrix(0,1.00003,1,0,58.106004,196.6445)" d="M3.58653 0C2.52383 .19925 .797 .797-.3985 1.49438V-1.49438C.797-.797 2.52383-.19925 3.58653 0"/>
<path transform="matrix(0,-1.00003,-1,-0,58.106004,5.3841707)" d="M3.58653 0C2.52383 .19925 .797 .797-.3985 1.49438V-1.49438C.797-.797 2.52383-.19925 3.58653 0"/>
<path transform="matrix(1,0,0,-1.00003,58.106004,143.53583)" stroke-width=".3985" stroke-linecap="butt" stroke-dasharray=".3985,1.99255" stroke-miterlimit="10" stroke-linejoin="miter" fill="none" stroke="#000000" d="M-42.5202-28.3468H127.56062M-42.5202 0H127.56062M-42.5202 28.3468H127.56062M-42.5202 56.69362H127.56062M-42.5202 85.04042H127.56062M-42.5202 113.38724H127.56062M-28.3468-42.5202V127.56062M0-42.5202V127.56062M28.3468-42.5202V127.56062M56.69362-42.5202V127.56062M85.04042-42.5202V127.56062M113.38724-42.5202V127.56062M127.56062-42.5202"/>
<path transform="matrix(1,0,0,-1.00003,58.106004,143.53583)" stroke-width=".79701" stroke-linecap="butt" stroke-miterlimit="10" stroke-linejoin="miter" fill="none" stroke="#000000" d="M0 28.3468 1.1808 29.1284 2.36163 30.27332 3.54247 31.75087 4.7233 33.52817 5.90413 35.57753 7.08495 37.86653 8.26578 40.364 9.44661 43.0401 10.62744 45.86328 11.80827 48.80411 12.98909 51.83058 14.16992 54.91286 15.35075 58.02065 16.53159 61.12062 17.71242 64.18517 18.89323 67.18048 20.07407 70.07936 21.2549 72.84933 22.43573 75.45753 23.61656 77.87672 24.79738 80.07487 25.97821 82.0213 27.15904 83.68398 28.33987 85.0335"/>
<path transform="matrix(1,0,0,-1.00003,58.106004,143.53583)" stroke-width=".79701" stroke-linecap="butt" stroke-miterlimit="10" stroke-linejoin="miter" fill="none" stroke="#000000" d="M28.3468 85.04042 29.52762 86.23206 30.70845 87.44273 31.88927 88.66594 33.0701 89.89479 34.25093 91.12405 35.43176 92.34685 36.6126 93.55751 37.79341 94.74959 38.97424 95.917 40.15508 97.05415 41.3359 98.1541 42.51674 99.2108 43.69756 100.21861 44.87839 101.17062 46.05922 102.06207 47.24005 102.88521 48.42088 103.63435 49.6017 104.3048 50.78253 104.88785 51.96336 105.37965 53.1442 105.77281 54.32503 106.0609 55.50584 106.23953 56.68668 106.30052"/>
<path transform="matrix(1,0,0,-1.00003,58.106004,143.53583)" stroke-width=".79701" stroke-linecap="butt" stroke-miterlimit="10" stroke-linejoin="miter" fill="none" stroke="#000000" d="M56.69362 106.30052 57.87442 105.88962 59.05525 104.6798 60.23608 102.73553 61.41692 100.14162 62.59775 96.94905 63.77856 93.23961 64.9594 89.08032 66.14023 84.527 67.32106 79.65877 68.50189 74.53235 69.68271 69.22467 70.86354 63.79631 72.04437 58.31995 73.2252 52.86996 74.40604 47.49829 75.58685 42.2862 76.76768 37.2891 77.94852 32.5727 79.12935 28.23131 80.31018 24.30429 81.491 20.86562 82.67183 17.99097 83.85266 15.73485 85.0335 14.18031"/>
<path transform="matrix(1,0,0,-1.00003,58.106004,143.53583)" stroke-width=".79701" stroke-linecap="butt" stroke-miterlimit="10" stroke-linejoin="miter" fill="none" stroke="#000000" d="M85.04042 14.17339 86.22124 12.94757 87.40207 11.63396 88.58289 10.24464 89.76372 8.79564 90.94455 7.29561 92.12538 5.7601 93.30621 4.20123 94.48705 2.62808 95.66786 1.05669 96.8487-.50432 98.02953-2.0394 99.21036-3.53902 100.39119-4.98845 101.572-6.37515 102.75284-7.69008 103.93367-8.91719 105.1145-10.04741 106.29533-11.06908 107.47615-11.96355 108.65698-12.72438 109.83781-13.33904 111.01865-13.79276 112.19948-14.07607 113.3803-14.17339"/>
<path transform="matrix(1,0,0,-1.00003,58.106004,143.53583)" stroke-width=".79701" stroke-linecap="butt" stroke-miterlimit="10" stroke-linejoin="miter" fill="none" stroke="#000000" d="M113.38724-14.17339 114.56804-14.1976 115.74887-14.27158 116.9297-14.39441 118.11053-14.56657 119.29137-14.78802 120.47218-15.05879 121.65302-15.37843 122.83385-15.7474 124.01468-16.16522 125.19551-16.6328 126.37633-17.14925 127.55716-17.71501 128.73799-18.32964 129.91883-18.99359 131.09966-19.70685 132.28047-20.4694 133.4613-21.28085 134.64214-22.14204 135.82297-23.05167 137.0038-24.01103 138.18462-25.01929 139.36545-26.07684 140.54628-27.1837 141.72711-28.33987"/>
</svg>
