<svg xmlns="http://www.w3.org/2000/svg" xmlns:xlink="http://www.w3.org/1999/xlink" xmlns:inkscape="http://www.inkscape.org/namespaces/inkscape" version="1.1" width="163" height="139" viewBox="0 0 163 139">
<defs>
<path id="font_1_1" d="M.36698915 .3996582H.45298768C.47299195 .3996582 .48298646 .3996582 .48298646 .41966249 .48298646 .43066407 .47299195 .43066407 .45599366 .43066407H.37298585L.3939972 .5449524C.397995 .5660095 .4119873 .6370239 .41799928 .6490326 .4269867 .66804507 .44400025 .68307498 .46499635 .68307498 .46899415 .68307498 .49499513 .68307498 .5139923 .66503909 .46998597 .661026 .45999146 .6260376 .45999146 .6110382 .45999146 .58802798 .47799684 .57603457 .49699403 .57603457 .522995 .57603457 .5519867 .5980377 .5519867 .6360321 .5519867 .6820679 .5059967 .7050781 .46499635 .7050781 .43099977 .7050781 .36799623 .68707278 .33799745 .58802798 .33198548 .56700137 .32899476 .5569763 .30499269 .43066407H.23599243C.21699524 .43066407 .20599365 .43066407 .20599365 .4116516 .20599365 .3996582 .21499634 .3996582 .23399353 .3996582H.2999878L.22499085 .0048828127C.20698548-.09207153 .18998719-.18309021 .13798523-.18309021 .13398743-.18309021 .10899353-.18309021 .08999634-.16506958 .13598633-.1620636 .14498902-.12606812 .14498902-.111068729 .14498902-.08807373 .1269989-.07606506 .10798645-.07606506 .08198547-.07606506 .052993776-.09806824 .052993776-.13606262 .052993776-.18109131 .09700012-.20507813 .13798523-.20507813 .19299317-.20507813 .23298645-.14607239 .25099183-.108062747 .2829895-.04508972 .30599977 .07583618 .30699159 .082839969L.36698915 .3996582Z"/>
<path id="font_2_1" d="M.33099366-.2400055C.33099366-.23701477 .33099366-.23500061 .31399537-.21800232 .18899536-.0920105 .15699768 .09700012 .15699768 .25 .15699768 .42399598 .19499207 .59799197 .31799317 .72299197 .33099366 .73498538 .33099366 .7369995 .33099366 .73999026 .33099366 .746994 .32699586 .75 .32099916 .75 .31098939 .75 .22099304 .6819916 .1619873 .5549927 .11099243 .44499208 .09899902 .33399964 .09899902 .25 .09899902 .17199707 .10998535 .050994874 .16499329-.06201172 .22499085-.18501282 .31098939-.25 .32099916-.25 .32699586-.25 .33099366-.24700928 .33099366-.2400055Z"/>
<path id="font_1_2" d="M.33399964 .30233766C.33999635 .32835389 .36299134 .42037965 .43299867 .42037965 .43798829 .42037965 .46199037 .42037965 .48298646 .40734864 .45498658 .402359 .43499757 .37734986 .43499757 .35334779 .43499757 .33735658 .44599916 .31835938 .47299195 .31835938 .49499513 .31835938 .5269928 .3363495 .5269928 .37635804 .5269928 .42837525 .46798707 .4423828 .43399049 .4423828 .37599183 .4423828 .34098817 .38935853 .32899476 .36634828 .3039856 .43237306 .25 .4423828 .22099304 .4423828 .116989139 .4423828 .05999756 .3133545 .05999756 .28834535 .05999756 .27833558 .069992069 .27833558 .07199097 .27833558 .07998657 .27833558 .08299255 .28033448 .084991458 .28933717 .11898804 .39535523 .18499756 .42037965 .21899414 .42037965 .23799134 .42037965 .272995 .4113617 .272995 .35334779 .272995 .32235719 .2559967 .25532533 .21899414 .11528015 .20298767 .053268434 .16799927 .011245728 .12399292 .011245728 .117996219 .011245728 .09498596 .011245728 .07398987 .024276734 .09899902 .029266358 .12098694 .05027771 .12098694 .07827759 .12098694 .105270389 .09899902 .11328125 .083999637 .11328125 .053985597 .11328125 .0289917 .08728027 .0289917 .055267335 .0289917 .009246826 .07899475-.0107421879 .12298584-.0107421879 .18899536-.0107421879 .22499085 .059280397 .22799683 .0652771 .23999024 .028274537 .27598573-.0107421879 .33599855-.0107421879 .43899537-.0107421879 .49598695 .118270877 .49598695 .14328003 .49598695 .1532898 .4869995 .1532898 .48399354 .1532898 .47499085 .1532898 .47299195 .14929199 .47099305 .14228821 .43798829 .03527832 .36999513 .011245728 .33799745 .011245728 .29899598 .011245728 .2829895 .043273927 .2829895 .07727051 .2829895 .09927368 .2889862 .121276859 .2999878 .16529846L.33399964 .30233766Z"/>
<path id="font_2_2" d="M.2889862 .25C.2889862 .32798768 .27799989 .44898988 .22299195 .56199648 .16299439 .68499758 .07699585 .75 .066986087 .75 .06098938 .75 .056991579 .74598696 .056991579 .73999026 .056991579 .7369995 .056991579 .73498538 .07598877 .71699526 .17399597 .6179962 .23098755 .45899964 .23098755 .25 .23098755 .07899475 .19400025-.09700012 .069992069-.2230072 .056991579-.23500061 .056991579-.23701477 .056991579-.2400055 .056991579-.2460022 .06098938-.25 .066986087-.25 .07699585-.25 .16699219-.18200684 .22599793-.055007936 .2769928 .054992677 .2889862 .16600037 .2889862 .25Z"/>
<path id="font_2_3" d="M.68699648 .32714845C.70199587 .32714845 .72099307 .32714845 .72099307 .34713746 .72099307 .36714173 .70199587 .36714173 .6879883 .36714173H.08898926C.07499695 .36714173 .055999757 .36714173 .055999757 .34713746 .055999757 .32714845 .07499695 .32714845 .08999634 .32714845H.68699648M.6879883 .13284302C.70199587 .13284302 .72099307 .13284302 .72099307 .15284729 .72099307 .17285156 .70199587 .17285156 .68699648 .17285156H.08999634C.07499695 .17285156 .055999757 .17285156 .055999757 .15284729 .055999757 .13284302 .07499695 .13284302 .08898926 .13284302H.6879883Z"/>
<path id="font_3_1" d="M.5049896 .18203736H.47099305C.46798707 .16001892 .45799256 .100997928 .44499208 .09098816 .43699647 .084991458 .3600006 .084991458 .34599305 .084991458H.1619873C.2669983 .17803955 .3019867 .20603943 .3619995 .25306703 .43598939 .312088 .5049896 .374115 .5049896 .46914674 .5049896 .5900879 .39898683 .6640625 .2709961 .6640625 .14698792 .6640625 .06298828 .57710269 .06298828 .4851532 .06298828 .43414308 .10598755 .42915345 .115997318 .42915345 .13999939 .42915345 .16899109 .44615174 .16899109 .48214723 .16899109 .5001526 .1619873 .53515627 .10998535 .53515627 .14099121 .6060791 .20899964 .62805178 .2559967 .62805178 .35598756 .62805178 .4079895 .5501404 .4079895 .46914674 .4079895 .38212586 .34599305 .3130951 .31399537 .27708436L.07299805 .038986207C.06298828 .02999878 .06298828 .027999878 .06298828 0H.47499085L.5049896 .18203736Z"/>
<path id="font_3_2" d="M.272995 .33428956C.35099793 .33428956 .40699769 .2803192 .40699769 .1733551 .40699769 .04940796 .33499146 .012466431 .2769928 .012466431 .23699951 .012466431 .14898682 .0234375 .10699463 .082351688 .1539917 .084350589 .16499329 .11735535 .16499329 .13835144 .16499329 .17034912 .14099121 .19335938 .10998535 .19335938 .08198547 .19335938 .053985597 .17634583 .053985597 .13534546 .053985597 .041412355 .1579895-.01953125 .2789917-.01953125 .41799928-.01953125 .5139923 .07336426 .5139923 .1733551 .5139923 .2513275 .44999696 .32929994 .33999635 .35229493 .44499208 .39024354 .48298646 .4650879 .48298646 .5260773 .48298646 .60505679 .3919983 .6640625 .2809906 .6640625 .16999817 .6640625 .084991458 .61006167 .084991458 .5300751 .084991458 .49606324 .10699463 .47706605 .13699341 .47706605 .16799927 .47706605 .18798828 .5000763 .18798828 .5280762 .18798828 .5570679 .16799927 .57806399 .13699341 .5800781 .17199707 .62405398 .24099732 .63505557 .27799989 .63505557 .32299806 .63505557 .38598634 .6130676 .38598634 .5260773 .38598634 .48406983 .37199403 .43814088 .34599305 .4072113 .31298829 .36927796 .2849884 .3672943 .23498535 .36428834 .20999146 .3623047 .20799256 .3623047 .20298767 .3612976 .20098877 .3612976 .19299317 .3592987 .19299317 .34829713 .19299317 .33428956 .20199585 .33428956 .21899414 .33428956H.272995Z"/>
</defs>
<path transform="matrix(1,0,0,-1.00002,93.503009,69.83208)" stroke-width=".3985" stroke-linecap="butt" stroke-miterlimit="10" stroke-linejoin="miter" fill="none" stroke="#000000" d="M-64.44562 0H64.44562"/>
<path transform="matrix(-1,-0,0,1.00002,29.057389,69.83208)" d="M3.58653 0C2.52383 .19925 .797 .797-.3985 1.49438V-1.49438C.797-.797 2.52383-.19925 3.58653 0"/>
<path transform="matrix(1,0,0,-1.00002,157.94863,69.83208)" d="M3.58653 0C2.52383 .19925 .797 .797-.3985 1.49438V-1.49438C.797-.797 2.52383-.19925 3.58653 0"/>
<path transform="matrix(1,0,0,-1.00002,93.503009,69.83208)" stroke-width=".3985" stroke-linecap="butt" stroke-miterlimit="10" stroke-linejoin="miter" fill="none" stroke="#000000" d="M0-64.44562V64.44562"/>
<path transform="matrix(0,1.00002,1,0,93.503009,134.27899)" d="M3.58653 0C2.52383 .19925 .797 .797-.3985 1.49438V-1.49438C.797-.797 2.52383-.19925 3.58653 0"/>
<path transform="matrix(0,-1.00002,-1,-0,93.503009,5.38517)" d="M3.58653 0C2.52383 .19925 .797 .797-.3985 1.49438V-1.49438C.797-.797 2.52383-.19925 3.58653 0"/>
<path transform="matrix(1,0,0,-1.00002,93.503009,69.83208)" stroke-width=".79701" stroke-linecap="butt" stroke-miterlimit="10" stroke-linejoin="miter" fill="none" stroke="#000000" d="M-39.68535 55.55905C-39.68535 55.55905-39.10626 53.9477-38.88385 53.33755-38.66145 52.7274-38.30476 51.75905-38.08237 51.16144-37.85995 50.56384-37.50328 49.61533-37.28087 49.03032-37.05846 48.44533-36.70178 47.51747-36.47937 46.94507-36.25697 46.37267-35.90028 45.46465-35.67789 44.90479-35.45547 44.34492-35.09879 43.45717-34.87639 42.90991-34.65398 42.36266-34.2973 41.49518-34.07489 40.96046-33.8525 40.42575-33.4958 39.57817-33.27339 39.056-33.051 38.53383-32.6943 37.70653-32.47191 37.19696-32.2495 36.68738-31.89282 35.8803-31.67041 35.38333-31.44801 34.88635-31.09132 34.09947-30.86891 33.61511-30.64651 33.13074-30.28984 32.36414-30.06744 31.89232-29.84503 31.42049-29.48834 30.6737-29.26595 30.2145-29.04353 29.75526-28.68686 29.02914-28.46445 28.58252-28.24205 28.13591-27.88536 27.42969-27.66296 26.99554-27.44055 26.5614-27.08386 25.87508-26.86147 25.45355-26.63905 25.03201-26.28238 24.36633-26.05997 23.9574-25.83757 23.54846-25.48088 22.90256-25.25847 22.50623-25.03607 22.10991-24.67938 21.4847-24.45699 21.10092-24.23457 20.71715-23.8779 20.11139-23.65549 19.74016-23.43307 19.36893-23.0764 18.7838-22.85399 18.42523-22.63159 18.06667-22.2749 17.50177-22.0525 17.15575-21.8301 16.80972-21.4734 16.26471-21.251 15.93123-21.0286 15.59773-20.67192 15.07301-20.44951 14.75214-20.22711 14.43124-19.87042 13.92673-19.64801 13.61844-19.42561 13.31017-19.06892 12.82591-18.84653 12.53018-18.62411 12.23444-18.26746 11.7701-18.04504 11.4869-17.82265 11.2037-17.46596 10.75963-17.24355 10.48904-17.02115 10.21844-16.66446 9.79459-16.44206 9.53659-16.21965 9.2786-15.86296 8.87494-15.64056 8.62955-15.41815 8.38416-15.06148 8.00078-14.83907 7.76793-14.61667 7.53508-14.25998 7.17162-14.03758 6.95131-13.81517 6.731-13.45848 6.38779-13.23608 6.18008-13.01367 5.97238-12.657 5.6494-12.43459 5.4543-12.21219 5.25919-11.8555 4.95647-11.63309 4.7739-11.41069 4.59134-11.054 4.30846-10.8316 4.1385-10.60919 3.96855-10.25252 3.70631-10.0301 3.54895-9.8077 3.3916-9.45102 3.14919-9.2286 3.0044-9.00621 2.85959-8.64952 2.63751-8.42712 2.50525-8.20471 2.37299-7.84802 2.17073-7.62563 2.05107-7.40321 1.93141-7.04654 1.74982-6.82413 1.64276-6.60173 1.5357-6.24506 1.37395-6.02264 1.27943-5.80025 1.18492-5.44356 1.04343-5.22116 .96152-4.99875 .87961-4.64207 .75839-4.41966 .68903-4.19727 .61966-3.84058 .51828-3.61816 .4615-3.39577 .40474-3.03908 .32399-2.81668 .27983-2.59427 .23567-2.23758 .17477-2.01518 .14314-1.79277 .11153-1.4361 .07097-1.21368 .0519-.99129 .0328-.6346 .01208-.4122 .0056-.18979-.00085 .16687-.00092 .38927 .00517 .61168 .01129 .96835 .03108 1.19077 .04973 1.41316 .06839 1.76985 .10844 1.99226 .1397 2.21466 .17096 2.57135 .23122 2.79375 .27507 3.01616 .31892 3.37283 .39949 3.59525 .45589 3.81766 .51228 4.17433 .61272 4.39674 .68167 4.61914 .75061 4.97583 .87132 5.19823 .95287 5.42064 1.03441 5.77733 1.17534 5.99973 1.26949 6.22214 1.36363 6.5788 1.52475 6.80121 1.63152 7.0236 1.73828 7.3803 1.91966 7.6027 2.03897 7.8251 2.15828 8.1818 2.35956 8.40419 2.4914 8.6266 2.62325 8.98328 2.8448 9.20569 2.98924 9.42809 3.1337 9.78477 3.37547 10.00719 3.53252 10.22958 3.68958 10.58627 3.95161 10.80867 4.1212 11.03108 4.2908 11.38776 4.5727 11.61017 4.75488 11.83258 4.93707 12.18925 5.2396 12.41167 5.4344 12.63406 5.6292 12.99075 5.95155 13.21315 6.15889 13.43556 6.36623 13.79225 6.70892 14.01465 6.92882 14.23706 7.1487 14.59373 7.51123 14.81615 7.74371 15.03854 7.9762 15.39523 8.35938 15.61765 8.60446 15.84004 8.84955 16.19673 9.25256 16.41913 9.5102 16.64154 9.76782 16.99821 10.19113 17.22063 10.46135 17.44302 10.73158 17.79971 11.17516 18.02213 11.45792 18.24452 11.74069 18.6012 12.2041 18.8236 12.49947 19.046 12.79485 19.4027 13.27888 19.62509 13.58687 19.8475 13.89484 20.20418 14.39871 20.42659 14.71925 20.64899 15.03978 21.00568 15.56398 21.22807 15.89705 21.45049 16.23013 21.80717 16.77415 22.02957 17.11984 22.25198 17.46552 22.60866 18.0302 22.83107 18.38847 23.05347 18.74675 23.41016 19.33127 23.63257 19.70209 23.85497 20.0729 24.21165 20.67769 24.43405 21.06111 24.65646 21.44453 25.01314 22.06955 25.23555 22.46558 25.45796 22.8616 25.81464 23.50687 26.03705 23.91544 26.25945 24.324 26.61613 24.98918 26.83853 25.4103 27.06094 25.8314 27.41763 26.51685 27.64003 26.95056 27.86244 27.38428 28.21912 28.08994 28.44153 28.53625 28.66393 28.98256 29.02061 29.70844 29.24303 30.16734 29.46542 30.62627 29.82211 31.3724 30.04451 31.84387 30.26692 32.31532 30.62358 33.08136 30.846 33.56537 31.06839 34.04936 31.42508 34.83568 31.64749 35.33228 31.86989 35.82889 32.22658 36.6354 32.44897 37.1446 32.67139 37.65382 33.02808 38.48062 33.25047 39.00237 33.47289 39.52412 33.82956 40.3708 34.05197 40.90509 34.27437 41.43939 34.63106 42.30629 34.85345 42.85326 35.07587 43.40022 35.43256 44.28775 35.65495 44.84726 35.87737 45.40677 36.23404 46.31377 36.45645 46.88582 36.67885 47.45787 37.03554 48.38554 37.25795 48.9702 37.48035 49.55486 37.83704 50.50233 38.05943 51.0996 38.28185 51.69684 38.63852 52.66496 38.86093 53.27483 39.08334 53.88469 39.66243 55.49504 39.66243 55.49504"/>
<use data-text="f" xlink:href="#font_1_1" transform="matrix(9.9626,0,0,-9.962799,1.2160034,44.294565)"/>
<use data-text="(" xlink:href="#font_2_1" transform="matrix(9.9626,0,0,-9.962799,7.1660006,44.294565)"/>
<use data-text="x" xlink:href="#font_1_2" transform="matrix(9.9626,0,0,-9.962799,11.039993,44.294565)"/>
<use data-text=")" xlink:href="#font_2_2" transform="matrix(9.9626,0,0,-9.962799,16.733994,44.294565)"/>
<use data-text="=" xlink:href="#font_2_3" transform="matrix(9.9626,0,0,-9.962799,23.35913,44.294565)"/>
<use data-text="x" xlink:href="#font_1_2" transform="matrix(9.9626,0,0,-9.962799,33.892,44.294565)"/>
<use data-text="2" xlink:href="#font_3_1" transform="matrix(6.9738,0,0,-6.97394,39.586,40.67849)"/>
<path transform="matrix(1,0,0,-1.00002,93.503009,69.83208)" stroke-width=".79701" stroke-linecap="butt" stroke-dasharray="2.98883,2.98883" stroke-miterlimit="10" stroke-linejoin="miter" fill="none" stroke="#000000" d="M-36.85092-62.2781-36.10654-58.57904-35.36214-55.03006-34.61772-51.62814-33.87334-48.36855-33.12894-45.24907-32.38454-42.26674-31.64014-39.41846-30.89575-36.70126-30.15134-34.11209-29.40694-31.64706-28.66255-29.30443-27.91815-27.07945-27.17375-24.97084-26.42935-22.97424-25.68495-21.08708-24.94055-19.30632-24.19617-17.62894-23.45177-16.05147-22.70737-14.57047-21.96297-13.18419-21.21857-11.88873-20.47417-10.68065-19.72977-9.55779-18.98538-8.5158-18.24098-7.55296-17.49657-6.66539-16.75218-5.8505-16.00778-5.10435-15.26338-4.42485-14.519-3.80849-13.7746-3.25224-13.03018-2.75308-12.2858-2.30757-11.5414-1.91267-10.797-1.56621-10.0526-1.26385-9.30821-1.00348-8.5638-.78114-7.8194-.59473-7.07501-.4403-6.33061-.3153-5.58621-.21667-4.84183-.14099-4.09741-.0852-3.35301-.04669-2.60863-.02205-1.86423-.00778-1.11983-.00171-.37543 0H.36894L1.11334 .00128 1.85774 .00778 2.60213 .0216 3.34653 .04626 4.09094 .08476 4.83533 .14056 5.57973 .21582 6.32413 .31444 7.06851 .43944 7.81291 .59343 8.55733 .77942 9.30171 1.00131 10.04611 1.26169 10.79051 1.56319 11.5349 1.90964 12.2793 2.30368 13.02371 2.74876 13.76811 3.24748 14.5125 3.80328 15.2569 4.41922 16.0013 5.09831 16.74568 5.84357 17.4901 6.65805 18.2345 7.54518 18.97888 8.50714 19.72328 9.54826 20.46768 10.6707 21.21207 11.87749 21.95648 13.17249 22.70088 14.5579 23.44527 16.03807 24.18967 17.61465 24.93407 19.29118 25.67848 21.07108 26.42287 22.95737 27.16727 24.9531 27.91167 27.06085 28.65605 29.2841 29.40045 31.6263 30.14487 34.09003 30.88925 36.67834 31.63365 39.39467 32.37805 42.24164 33.12244 45.2227 33.86684 48.34087 34.61125 51.59874 35.35564 55.00021 36.10004 58.54788 36.84444 62.24522"/>
<use data-text="f" xlink:href="#font_1_1" transform="matrix(9.9626,0,0,-9.962799,1.2160034,100.9887)"/>
<use data-text="(" xlink:href="#font_2_1" transform="matrix(9.9626,0,0,-9.962799,7.1660006,100.9887)"/>
<use data-text="x" xlink:href="#font_1_2" transform="matrix(9.9626,0,0,-9.962799,11.039993,100.9887)"/>
<use data-text=")" xlink:href="#font_2_2" transform="matrix(9.9626,0,0,-9.962799,16.733994,100.9887)"/>
<use data-text="=" xlink:href="#font_2_3" transform="matrix(9.9626,0,0,-9.962799,23.35913,100.9887)"/>
<use data-text="x" xlink:href="#font_1_2" transform="matrix(9.9626,0,0,-9.962799,33.892,100.9887)"/>
<use data-text="3" xlink:href="#font_3_2" transform="matrix(6.9738,0,0,-6.97394,39.586,97.37263)"/>
</svg>
