<svg xmlns="http://www.w3.org/2000/svg" xmlns:xlink="http://www.w3.org/1999/xlink" xmlns:inkscape="http://www.inkscape.org/namespaces/inkscape" version="1.1" width="312" height="150" viewBox="0 0 312 150">
<defs>
<path id="font_1_1" d="M.2939911 .64004519C.2939911 .66400149 .2939911 .6660156 .2709961 .6660156 .20899964 .60227969 .12098694 .60227969 .08898926 .60227969V.57128909C.10899353 .57128909 .16799927 .57128909 .21998596 .5972748V.07902527C.21998596 .042999269 .21699524 .0309906 .1269989 .0309906H.09498596V0C.12998963 .0029907227 .21699524 .0029907227 .25698854 .0029907227 .29699708 .0029907227 .38398744 .0029907227 .4189911 0V.0309906H.3869934C.29699708 .0309906 .2939911 .041992189 .2939911 .07902527V.64004519Z"/>
<path id="font_1_2" d="M.1269989 .07699585 .23298645 .18003845C.3889923 .31811524 .44898988 .3721466 .44898988 .47216798 .44898988 .5860901 .35899354 .6660156 .23699951 .6660156 .12399292 .6660156 .049987794 .57411196 .049987794 .48516847 .049987794 .4291687 .099990848 .4291687 .102996829 .4291687 .11999512 .4291687 .15499878 .44117738 .15499878 .48217774 .15499878 .5081787 .13699341 .5341797 .101989749 .5341797 .09399414 .5341797 .09199524 .5341797 .08898926 .5331726 .11199951 .59806826 .1659851 .63500979 .22399903 .63500979 .31498719 .63500979 .35798646 .5541382 .35798646 .47216798 .35798646 .39215089 .30799867 .31311036 .25299073 .25108338L.06098938 .036987306C.049987794 .025985718 .049987794 .023986817 .049987794 0H.42099L.44898988 .17404175H.42399598C.4189911 .14402771 .4119873 .1000061 .4019928 .084991458 .394989 .07699585 .32899476 .07699585 .30699159 .07699585H.1269989Z"/>
<path id="font_1_3" d="M.2899933 .35191346C.37199403 .37893678 .42999269 .4490509 .42999269 .52809146 .42999269 .6100464 .34199525 .6660156 .24598694 .6660156 .14498902 .6660156 .068984989 .60606387 .068984989 .53009036 .068984989 .49710084 .09098816 .47808839 .11999512 .47808839 .15098572 .47808839 .17098999 .50009158 .17098999 .5290985 .17098999 .57910159 .12399292 .57910159 .10899353 .57910159 .13999939 .62802127 .20599365 .64100649 .24198914 .64100649 .2829895 .64100649 .33799745 .6190338 .33799745 .5290985 .33799745 .51708987 .33599855 .45906068 .30999757 .4149933 .27999879 .36691285 .24598694 .36390687 .22099304 .36291505 .21299744 .36190797 .18899536 .35990907 .18199158 .35990907 .17399597 .35890199 .16699219 .35791017 .16699219 .3479004 .16699219 .33691407 .17399597 .33691407 .19099427 .33691407H.23498535C.31698609 .33691407 .35398866 .2686615 .35398866 .17037964 .35398866 .034469606 .2849884 .0055389406 .24099732 .0055389406 .19799805 .0055389406 .12298584 .022491456 .08799744 .08137512 .12298584 .07637024 .1539917 .09837341 .1539917 .1363678 .1539917 .17237854 .1269989 .19238281 .09799194 .19238281 .07398987 .19238281 .041992189 .17837525 .041992189 .1343689 .041992189 .043441774 .1349945-.022460938 .24398804-.022460938 .3659973-.022460938 .45700074 .06838989 .45700074 .17037964 .45700074 .252594 .3939972 .33088685 .2899933 .35191346Z"/>
<path id="font_2_1" d="M.37298585 .37835694C.35499574 .41537477 .32598878 .4423828 .2809906 .4423828 .1639862 .4423828 .039993287 .29533387 .039993287 .14929199 .039993287 .055267335 .09498596-.0107421879 .17298889-.0107421879 .19299317-.0107421879 .24299622-.0067443849 .30299378 .06427002 .31098939 .022247315 .34599305-.0107421879 .3939972-.0107421879 .42900086-.0107421879 .45199586 .012252808 .46798707 .044265748 .4850006 .08027649 .49798585 .14129639 .49798585 .14329529 .49798585 .1532898 .4889984 .1532898 .48599244 .1532898 .47599793 .1532898 .47499085 .14929199 .47200013 .13528443 .45498658 .07026672 .43699647 .011245728 .3959961 .011245728 .36898805 .011245728 .3659973 .037261964 .3659973 .057266237 .3659973 .07926941 .36799623 .08728027 .3789978 .13128662 .3899994 .17329407 .3919983 .18330384 .40098573 .22131348L.43699647 .36135865C.44400025 .38935853 .44400025 .39135743 .44400025 .39537049 .44400025 .41236878 .43199159 .42237855 .4149933 .42237855 .3909912 .42237855 .37599183 .4003601 .37298585 .37835694M.30799867 .119277957C.30299378 .10127258 .30299378 .09927368 .28799439 .08227539 .24398804 .027252198 .20298767 .011245728 .1749878 .011245728 .125 .011245728 .11099243 .06626892 .11099243 .105285648 .11099243 .1552887 .14299011 .27833558 .1659851 .32434083 .19699097 .38336183 .24198914 .42037965 .28199769 .42037965 .34700013 .42037965 .36099244 .3383484 .36099244 .33235169 .36099244 .32633973 .35899354 .32034303 .35798646 .31533814L.30799867 .119277957Z"/>
<path id="font_2_2" d="M.23899842 .68333438C.23899842 .6843262 .23899842 .69433596 .22599793 .69433596 .20298767 .69433596 .12998963 .6863251 .10398865 .6843262 .09599304 .68333438 .084991458 .6823273 .084991458 .6643219 .084991458 .6523285 .09399414 .6523285 .10899353 .6523285 .15699768 .6523285 .15899658 .6453247 .15899658 .6353302 .15899658 .6283264 .1499939 .5943451 .14498902 .573349L.06298828 .24731446C.050994874 .1973114 .04699707 .18130493 .04699707 .14628601 .04699707 .05126953 .099990848-.0107421879 .17399597-.0107421879 .2919922-.0107421879 .4149933 .1382904 .4149933 .28233338 .4149933 .37335206 .3619995 .4423828 .28199769 .4423828 .23599243 .4423828 .19499207 .41337586 .16499329 .38235475L.23899842 .68333438M.14498902 .30534364C.15098572 .3273468 .15098572 .3293457 .1599884 .3403473 .20899964 .405365 .2539978 .42037965 .27999879 .42037965 .31599427 .42037965 .34298707 .3903656 .34298707 .32633973 .34298707 .26733399 .30999757 .15229798 .2919922 .11428833 .25898744 .04725647 .21299744 .011245728 .17399597 .011245728 .13999939 .011245728 .10699463 .038253786 .10699463 .11227417 .10699463 .13128662 .10699463 .15029907 .12298584 .21331787L.14498902 .30534364Z"/>
<path id="font_2_3" d="M.3959961 .37998963C.37998963 .37998963 .3659973 .37998963 .35198976 .36598207 .33599855 .35098268 .33399964 .33398438 .33399964 .3269806 .33399964 .30297853 .35198976 .2919922 .37098695 .2919922 .3999939 .2919922 .4269867 .315979 .4269867 .35598756 .4269867 .40522767 .37998963 .4423828 .30899049 .4423828 .17399597 .4423828 .040985109 .2989807 .040985109 .15811157 .040985109 .06819153 .09899902-.0107421879 .20298767-.0107421879 .34599305-.0107421879 .42999269 .09516907 .42999269 .107162479 .42999269 .11315918 .42399598 .120147708 .41799928 .120147708 .41299439 .120147708 .41099549 .1181488 .40499879 .1101532 .32598878 .011245728 .21699524 .011245728 .20498657 .011245728 .14199829 .011245728 .114990238 .06021118 .114990238 .120147708 .114990238 .1611023 .1349945 .25801087 .16899109 .31999208 .19999695 .37698365 .25498963 .42037965 .30999757 .42037965 .34399415 .42037965 .38198854 .40724183 .3959961 .37998963Z"/>
<path id="font_2_4" d="M.36698915 .3996582H.45298768C.47299195 .3996582 .48298646 .3996582 .48298646 .41966249 .48298646 .43066407 .47299195 .43066407 .45599366 .43066407H.37298585L.3939972 .5449524C.397995 .5660095 .4119873 .6370239 .41799928 .6490326 .4269867 .66804507 .44400025 .68307498 .46499635 .68307498 .46899415 .68307498 .49499513 .68307498 .5139923 .66503909 .46998597 .661026 .45999146 .6260376 .45999146 .6110382 .45999146 .58802798 .47799684 .57603457 .49699403 .57603457 .522995 .57603457 .5519867 .5980377 .5519867 .6360321 .5519867 .6820679 .5059967 .7050781 .46499635 .7050781 .43099977 .7050781 .36799623 .68707278 .33799745 .58802798 .33198548 .56700137 .32899476 .5569763 .30499269 .43066407H.23599243C.21699524 .43066407 .20599365 .43066407 .20599365 .4116516 .20599365 .3996582 .21499634 .3996582 .23399353 .3996582H.2999878L.22499085 .0048828127C.20698548-.09207153 .18998719-.18309021 .13798523-.18309021 .13398743-.18309021 .10899353-.18309021 .08999634-.16506958 .13598633-.1620636 .14498902-.12606812 .14498902-.111068729 .14498902-.08807373 .1269989-.07606506 .10798645-.07606506 .08198547-.07606506 .052993776-.09806824 .052993776-.13606262 .052993776-.18109131 .09700012-.20507813 .13798523-.20507813 .19299317-.20507813 .23298645-.14607239 .25099183-.108062747 .2829895-.04508972 .30599977 .07583618 .30699159 .082839969L.36698915 .3996582Z"/>
<path id="font_3_104" d="M.68499758 .45214845 .66600039 .6767578H.054992677L.035995485 .45214845H.06098938C.07499695 .6128235 .08999634 .64575198 .24099732 .64575198 .25898744 .64575198 .2849884 .64575198 .29499818 .64375308 .31599427 .6397705 .31599427 .6287842 .31599427 .60583499V.07901001C.31599427 .04499817 .31599427 .0309906 .21099854 .0309906H.17098999V0C.21199036 .0029907227 .31399537 .0029907227 .3600006 .0029907227 .4059906 .0029907227 .5089874 .0029907227 .5499878 0V.0309906H.5099945C.40499879 .0309906 .40499879 .04499817 .40499879 .07901001V.60583499C.40499879 .62579348 .40499879 .6397705 .4229889 .64375308 .43399049 .64575198 .46099855 .64575198 .47999574 .64575198 .6309967 .64575198 .6459961 .6128235 .6599884 .45214845H.68499758Z"/>
<path id="font_3_63" d="M.5349884 0V.0309906C.48298646 .0309906 .45799256 .0309906 .45700074 .061019899V.25221253C.45700074 .3383026 .45700074 .36932374 .42599488 .405365 .4119873 .42237855 .3789978 .4423828 .32099916 .4423828 .23699951 .4423828 .19299317 .38233949 .1769867 .34629823H.17599488V.69433596L.03199768 .6826172V.6516113C.101989749 .6516113 .10998535 .64463809 .10998535 .59580996V.076034549C.10998535 .0309906 .09899902 .0309906 .03199768 .0309906V0L.14498902 .0029907227 .25698854 0V.0309906C.18998719 .0309906 .1789856 .0309906 .1789856 .076034549V.2602234C.1789856 .36431886 .25 .42037965 .31399537 .42037965 .3769989 .42037965 .3880005 .36631776 .3880005 .30926515V.076034549C.3880005 .0309906 .3769989 .0309906 .30999757 .0309906V0L.4229889 .0029907227 .5349884 0Z"/>
<path id="font_3_50" d="M.4149933 .11933899C.4149933 .12934876 .40699769 .13134766 .4019928 .13134766 .3929901 .13134766 .3909912 .12535095 .3889923 .11734009 .35398866 .014251709 .2639923 .014251709 .2539978 .014251709 .20399475 .014251709 .1639862 .044281007 .14099121 .08131409 .11099243 .12934876 .11099243 .19540406 .11099243 .23144531H.3899994C.4119873 .23144531 .4149933 .23144531 .4149933 .2524414 .4149933 .35131837 .36099244 .4482422 .23599243 .4482422 .11999512 .4482422 .027999878 .34532167 .027999878 .22042847 .027999878 .08631897 .1329956-.0107421879 .24798584-.0107421879 .36999513-.0107421879 .4149933 .10032654 .4149933 .11933899M.34899903 .2524414H.11199951C.117996219 .40126039 .20199585 .426239 .23599243 .426239 .33898927 .426239 .34899903 .2913971 .34899903 .2524414Z"/>
<path id="font_3_55" d="M.35699464 .63479617C.35699464 .6717987 .31999208 .7050781 .2669983 .7050781 .19699097 .7050781 .11199951 .65179446 .11199951 .5457611V.43066407H.032989503V.3996582H.11199951V.07595825C.11199951 .0309906 .100997928 .0309906 .033996583 .0309906V0L.147995 .0029907227C.18798828 .0029907227 .23498535 .0029907227 .2749939 0V.0309906H.2539978C.17999268 .0309906 .17799378 .04197693 .17799378 .07795715V.3996582H.2919922V.43066407H.1749878V.5467529C.1749878 .63479617 .22299195 .68307498 .2669983 .68307498 .269989 .68307498 .2849884 .68307498 .2999878 .675827 .28799439 .6717987 .269989 .6587982 .269989 .6338043 .269989 .61079409 .28599549 .5907898 .31298829 .5907898 .34199525 .5907898 .35699464 .61079409 .35699464 .63479617Z"/>
<path id="font_3_109" d="M.5349884 0V.0309906C.46499635 .0309906 .45700074 .037994386 .45700074 .08705139V.4423828L.30999757 .43066407V.3996582C.37998963 .3996582 .3880005 .39266969 .3880005 .34373475V.16601563C.3880005 .07910156 .33999635 .011245728 .2669983 .011245728 .18299866 .011245728 .1789856 .058135988 .1789856 .11009216V.4423828L.03199768 .43066407V.3996582C.10998535 .3996582 .10998535 .39666749 .10998535 .3078003V.15802002C.10998535 .080093387 .10998535-.0107421879 .2619934-.0107421879 .31799317-.0107421879 .3619995 .017242432 .3909912 .07910156V-.0107421879L.5349884 0Z"/>
<path id="font_3_77" d="M.5349884 0V.0309906C.48298646 .0309906 .45799256 .0309906 .45700074 .061019899V.25221253C.45700074 .3383026 .45700074 .36932374 .42599488 .405365 .4119873 .42237855 .3789978 .4423828 .32099916 .4423828 .24798584 .4423828 .20098877 .39935304 .17298889 .33729554V.4423828L.03199768 .43066407V.3996582C.101989749 .3996582 .10998535 .39266969 .10998535 .34370423V.07595825C.10998535 .0309906 .09899902 .0309906 .03199768 .0309906V0L.14498902 .0029907227 .25698854 0V.0309906C.18998719 .0309906 .1789856 .0309906 .1789856 .07595825V.25978089C.1789856 .36431886 .25 .42037965 .31399537 .42037965 .3769989 .42037965 .3880005 .36631776 .3880005 .30926515V.076034549C.3880005 .0309906 .3769989 .0309906 .30999757 .0309906V0L.4229889 .0029907227 .5349884 0Z"/>
<path id="font_3_43" d="M.4149933 .119140628C.4149933 .12911988 .40499879 .12911988 .4019928 .12911988 .3929901 .12911988 .3909912 .12512207 .3889923 .119140628 .3600006 .026229859 .29499818 .014251709 .2579956 .014251709 .20498657 .014251709 .116989139 .0572052 .116989139 .21801758 .116989139 .38093568 .19898987 .42323304 .2519989 .42323304 .26098634 .42323304 .32398988 .42222596 .35899354 .38594056 .31799317 .38293458 .31199647 .3529358 .31199647 .3399353 .31199647 .31393434 .32998658 .2939453 .35798646 .2939453 .38398744 .2939453 .4039917 .3109436 .4039917 .34094239 .4039917 .40911866 .32798768 .4482422 .25099183 .4482422 .12599182 .4482422 .033996583 .3399353 .033996583 .21601868 .033996583 .08816528 .1329956-.0107421879 .24899292-.0107421879 .3829956-.0107421879 .4149933 .10914612 .4149933 .119140628Z"/>
<path id="font_3_105" d="M.33198548 .12385559V.18066406H.30699159V.12585449C.30699159 .052108766 .2769928 .014251709 .23999024 .014251709 .17298889 .014251709 .17298889 .10491943 .17298889 .12187195V.3996582H.31599427V.43066407H.17298889V.6142578H.147995C.14698792 .5324249 .116989139 .42565919 .018997193 .42166139V.3996582H.10398865V.12408447C.10398865 .0012512207 .19699097-.0107421879 .23298645-.0107421879 .3039856-.0107421879 .33198548 .060180665 .33198548 .12408447V.12385559Z"/>
<path id="font_3_66" d="M.24699402 0V.0309906C.18099976 .0309906 .1769867 .035995485 .1769867 .075042728V.4423828L.036987306 .43066407V.3996582C.101989749 .3996582 .11099243 .3936615 .11099243 .3447113V.07595825C.11099243 .0309906 .099990848 .0309906 .032989503 .0309906V0L.14299011 .0029907227C.17799378 .0029907227 .21299744 .0009918213 .24699402 0M.19198609 .603775C.19198609 .6307678 .16899109 .6567688 .13899231 .6567688 .10499573 .6567688 .084991458 .6287689 .084991458 .603775 .084991458 .57676699 .10798645 .55078127 .13798523 .55078127 .17199707 .55078127 .19198609 .5787811 .19198609 .603775Z"/>
<path id="font_3_81" d="M.47099305 .21424866C.47099305 .34223939 .37098695 .4482422 .25 .4482422 .125 .4482422 .027999878 .3392334 .027999878 .21424866 .027999878 .085250858 .13198853-.0107421879 .24899292-.0107421879 .36999513-.0107421879 .47099305 .087249759 .47099305 .21424866M.3880005 .22224427C.3880005 .18624878 .3880005 .13224793 .3659973 .08824158 .34399415 .04324341 .2999878 .014251709 .25 .014251709 .20698548 .014251709 .16299439 .035247804 .13598633 .08125305 .11099243 .12524414 .11099243 .18624878 .11099243 .22224427 .11099243 .26124574 .11099243 .31523133 .1349945 .35923768 .1619873 .40522767 .20899964 .426239 .24899292 .426239 .29299928 .426239 .33599855 .40423585 .3619995 .36123658 .3880005 .3182373 .3880005 .26023866 .3880005 .22224427Z"/>
<path id="font_4_66" d="M.33099366 .14329529C.33099366 .1532898 .32299806 .1532898 .31599427 .1532898 .30299378 .1532898 .30299378 .1512909 .29899598 .1362915 .29100038 .107284549 .2639923 .011245728 .20599365 .011245728 .19799805 .011245728 .18399048 .012252808 .18399048 .039260866 .18399048 .06526184 .19699097 .09828186 .20999146 .13528443L.27398683 .30633546C.28399659 .3353424 .28599549 .34335328 .28599549 .36235047 .28599549 .41737367 .24798584 .4423828 .21099854 .4423828 .116989139 .4423828 .08299255 .29333497 .08299255 .28833009 .08299255 .27833558 .09298706 .27833558 .09799194 .27833558 .11099243 .27833558 .11199951 .28033448 .115997318 .29434205 .125 .3273468 .15098572 .42037965 .20899964 .42037965 .21998596 .42037965 .23098755 .41537477 .23098755 .3923645 .23098755 .36836244 .21998596 .33935548 .21299744 .32034303L.18299866 .23731995 .1459961 .1382904C.13198853 .10028076 .12799073 .089279178 .12799073 .0692749 .12799073 .030258179 .1519928-.0107421879 .20399475-.0107421879 .2979889-.0107421879 .33099366 .13928223 .33099366 .14329529M.35798646 .61128237C.35798646 .6322937 .34298707 .6542969 .31298829 .6542969 .2809906 .6542969 .24899292 .623291 .24899292 .59129336 .24899292 .56929019 .2649994 .54829409 .2939911 .54829409 .32598878 .54829409 .35798646 .57928469 .35798646 .61128237Z"/>
<path id="font_4_98" d="M.3929901 .15733338C.3929901 .24420166 .31498719 .2621765 .27398683 .27116395 .24598694 .2771454 .20999146 .285141 .20999146 .32810975 .20999146 .35211183 .23098755 .42037965 .31098939 .42037965 .33799745 .42037965 .375 .4103241 .38598634 .371109 .35398866 .3671112 .34599305 .34010316 .34599305 .33010865 .34599305 .31910707 .35198976 .30210877 .37599183 .30210877 .3929901 .30210877 .4189911 .31410218 .4189911 .3571167 .4189911 .4032898 .37799073 .4423828 .31199647 .4423828 .19499207 .4423828 .1539917 .3461151 .1539917 .29412843 .1539917 .21723938 .21899414 .20326233 .24699402 .19728089 .29100038 .18728638 .33599855 .17730713 .33599855 .12335205 .33599855 .09135437 .30899049 .011245728 .20599365 .011245728 .18399048 .011245728 .12599182 .01626587 .10998535 .067352298 .16099549 .07235718 .16099549 .11634827 .16099549 .11634827 .16099549 .13534546 .147995 .14834595 .1269989 .14834595 .10398865 .14834595 .07598877 .13134766 .07598877 .08634949 .07598877 .025268555 .13398743-.0107421879 .20498657-.0107421879 .35499574-.0107421879 .3929901 .11135864 .3929901 .15733338Z"/>
<path id="font_3_82" d="M.4189911 0V.0309906H.3869934C.29699708 .0309906 .2939911 .041992189 .2939911 .07902527V.64012148C.2939911 .6640167 .2939911 .6660156 .2709961 .6660156 .20899964 .60227969 .12098694 .60227969 .08898926 .60227969V.57128909C.10899353 .57128909 .16799927 .57128909 .21998596 .5972748V.07902527C.21998596 .042999269 .21699524 .0309906 .1269989 .0309906H.09498596V0C.12998963 .0029907227 .21699524 .0029907227 .25698854 .0029907227 .29699708 .0029907227 .38398744 .0029907227 .4189911 0Z"/>
<path id="font_3_64" d="M.27598573 .18710327V.24511719H.010986328V.18710327H.27598573Z"/>
<path id="font_2_5" d="M.47099305 .3773346C.47200013 .3833313 .47399903 .38833619 .47399903 .39535523 .47399903 .41236878 .46199037 .42237855 .44499208 .42237855 .43499757 .42237855 .4079895 .41537477 .4039917 .3793335 .38598634 .41636659 .35099793 .4423828 .31098939 .4423828 .19699097 .4423828 .07299805 .30226136 .07299805 .15812683 .07299805 .059020997 .13398743 0 .20599365 0 .2649994 0 .31199647 .04701233 .32199098 .058029176L.32299806 .057022096C.3019867-.031982423 .2899933-.07295227 .2899933-.07495117 .28599549-.08395386 .2519989-.18309021 .1459961-.18309021 .1269989-.18309021 .09399414-.18206787 .06599426-.17297364 .09599304-.16394043 .10699463-.13793946 .10699463-.12094116 .10699463-.10494995 .09599304-.0859375 .068984989-.0859375 .04699707-.0859375 .01499939-.10394287 .01499939-.14395142 .01499939-.18508911 .051986696-.20507813 .147995-.20507813 .272995-.20507813 .34498597-.12693787 .3600006-.06695557L.47099305 .3773346M.34098817 .12809754C.33499146 .10206604 .31199647 .077041629 .2899933 .058029176 .2689972 .040008546 .23799134 .021987915 .20899964 .021987915 .15899658 .021987915 .14399719 .074035648 .14399719 .11407471 .14399719 .16212464 .17298889 .28024293 .19999695 .33128358 .22698975 .38034059 .269989 .42037965 .31199647 .42037965 .37799073 .42037965 .3919983 .33929444 .3919983 .33428956 .3919983 .32928468 .3899994 .3232727 .3889923 .3192749L.34098817 .12809754Z"/>
<path id="font_3_98" d="M.3600006 .12823487C.3600006 .18122864 .32998658 .21122742 .31799317 .22323609 .2849884 .25523377 .24598694 .26322938 .20399475 .27124024 .147995 .28224183 .08099365 .29522706 .08099365 .35324098 .08099365 .38822938 .10699463 .42922975 .19299317 .42922975 .30299378 .42922975 .30799867 .3392334 .30999757 .30822755 .31098939 .2992401 .32199098 .2992401 .32199098 .2992401 .33499146 .2992401 .33499146 .30422975 .33499146 .32322694V.4242401C.33499146 .4412384 .33499146 .4482422 .32398988 .4482422 .31900025 .4482422 .31698609 .4482422 .3039856 .43623353 .30099488 .43223573 .29100038 .42323304 .2869873 .42022706 .24899292 .4482422 .20799256 .4482422 .19299317 .4482422 .070999149 .4482422 .032989503 .38124085 .032989503 .3252411 .032989503 .29023744 .04899597 .26223756 .07598877 .24023438 .10798645 .2142334 .13598633 .2082367 .20799256 .19422913 .22999573 .19021607 .31199647 .17422486 .31199647 .10221863 .31199647 .051223756 .2769928 .011245728 .19898987 .011245728 .114990238 .011245728 .07899475 .068222049 .05999756 .1532135 .056991579 .16621399 .055999757 .17021179 .04598999 .17021179 .032989503 .17021179 .032989503 .16322327 .032989503 .1452179V.013214111C.032989503-.003753662 .032989503-.0107421879 .04399109-.0107421879 .04899597-.0107421879 .049987794-.009750366 .068984989 .009246826 .070999149 .011245728 .070999149 .013214111 .08898926 .032226564 .1329956-.009750366 .17799378-.0107421879 .19898987-.0107421879 .31399537-.0107421879 .3600006 .05621338 .3600006 .1282196V.12823487Z"/>
<path id="font_4_77" d="M.58599856 .14329529C.58599856 .1532898 .5779877 .1532898 .57099917 .1532898 .55799868 .1532898 .55799868 .1512909 .55400088 .1362915 .54599 .10928345 .5189972 .011245728 .46099855 .011245728 .43998719 .011245728 .43899537 .026260376 .43899537 .040252687 .43899537 .06526184 .44898988 .091278079 .45700074 .11528015 .47698976 .16830445 .5179901 .28033448 .5179901 .3383484 .5179901 .42037965 .46299745 .4423828 .4139862 .4423828 .33198548 .4423828 .28399659 .38235475 .2709961 .36335755 .2639923 .41236878 .22999573 .4423828 .18699646 .4423828 .15098572 .4423828 .1309967 .41937257 .114990238 .38935853 .09599304 .34934999 .08299255 .28833009 .08299255 .28833009 .08299255 .27833558 .09298706 .27833558 .09799194 .27833558 .11099243 .27833558 .11199951 .2793274 .116989139 .30133058 .1349945 .37135316 .1539917 .42037965 .18499756 .42037965 .21099854 .42037965 .21099854 .39135743 .21099854 .38035584 .21099854 .36434938 .20799256 .34535218 .20399475 .3293457L.1289978 .029251099C.1269989 .023254395 .12599182 .018249512 .12599182 .015258789 .12599182 .004257202 .13398743-.0107421879 .1539917-.0107421879 .1659851-.0107421879 .18299866-.003753662 .18998719 .015258789L.22999573 .17529297C.23498535 .1973114 .24099732 .2183075 .24598694 .24032593 .25898744 .29133607 .25898744 .29232789 .27598573 .3213501 .2899933 .34535218 .33499146 .42037965 .41099549 .42037965 .45498658 .42037965 .45700074 .3753662 .45700074 .35435487 .45700074 .29232789 .41299439 .17329407 .39898683 .13328552 .38598634 .09927368 .3829956 .090270999 .3829956 .0692749 .3829956 .025253296 .41099549-.0107421879 .45899964-.0107421879 .5519867-.0107421879 .58599856 .1382904 .58599856 .14329529Z"/>
<path id="font_4_81" d="M.5089874 .27833558C.5089874 .37335206 .44999696 .4423828 .36299134 .4423828 .23899842 .4423828 .10998535 .30033876 .10998535 .15429688 .10998535 .05126953 .17298889-.0107421879 .2559967-.0107421879 .37998963-.0107421879 .5089874 .13128662 .5089874 .27833558M.43899537 .31733705C.43899537 .2743225 .4169922 .17129517 .3849945 .11128235 .35598756 .056259157 .30499269 .011245728 .2559967 .011245728 .21699524 .011245728 .17999268 .042266847 .17999268 .11428833 .17999268 .16429138 .20599365 .2753296 .23799134 .3293457 .2749939 .3903656 .32299806 .42037965 .3619995 .42037965 .41099549 .42037965 .43899537 .37635804 .43899537 .31733705Z"/>
<path id="font_4_105" d="M.35598756 .14305115C.35598756 .1530304 .34799195 .1530304 .34098817 .1530304 .32899476 .1530304 .32899476 .15203858 .32099916 .13406372 .30299378 .086135867 .2630005 .011245728 .20599365 .011245728 .1789856 .011245728 .1789856 .036209108 .1789856 .05218506 .1789856 .059173585 .1789856 .075149539 .18598938 .10310364L.2599945 .3996582H.34498597C.3619995 .3996582 .37298585 .3996582 .37298585 .4186554 .37298585 .43066407 .3639984 .43066407 .34799195 .43066407H.2679901L.30499269 .57888796C.30899049 .59291079 .30899049 .5949249 .30899049 .5999298 .30899049 .6209564 .2919922 .62597659 .28199769 .62597659 .25698854 .62597659 .24699402 .6049347 .24299622 .5899048L.20399475 .43066407H.11898804C.101989749 .43066407 .09098816 .43066407 .09098816 .4116516 .09098816 .3996582 .099990848 .3996582 .115997318 .3996582H.19599915L.12399292 .113098148C.12298584 .10910034 .11898804 .09312439 .11898804 .07914734 .11898804 .029220581 .1519928-.0107421879 .20399475-.0107421879 .30499269-.0107421879 .35598756 .13806153 .35598756 .14305115Z"/>
</defs>
<path transform="matrix(1.00002,0,0,-1.00008,30.442238,58.4964)" stroke-width=".3985" stroke-linecap="butt" stroke-miterlimit="10" stroke-linejoin="miter" fill="none" stroke="#000000" d="M28.3468 0C28.3468 31.31142 15.6557 56.69363 0 56.69363-15.6557 56.69363-28.3468 31.31142-28.3468 0-28.3468-31.31142-15.6557-56.69363 0-56.69363 15.6557-56.69363 28.3468-31.31142 28.3468 0ZM0 0"/>
<path transform="matrix(1.00002,0,0,-1.00008,30.442238,58.4964)" stroke-width=".3985" stroke-linecap="butt" stroke-miterlimit="10" stroke-linejoin="miter" fill="none" stroke="#000000" d="M113.38724 0C113.38724 31.31142 100.69614 56.69363 85.04042 56.69363 69.3847 56.69363 56.69362 31.31142 56.69362 0 56.69362-31.31142 69.3847-56.69363 85.04042-56.69363 100.69614-56.69363 113.38724-31.31142 113.38724 0ZM85.04042 0"/>
<use data-text="1" xlink:href="#font_1_1" transform="matrix(9.962799,0,0,-9.963397,27.951188,33.35739)"/>
<use data-text="2" xlink:href="#font_1_2" transform="matrix(9.962799,0,0,-9.963397,27.951188,61.706659)"/>
<use data-text="3" xlink:href="#font_1_3" transform="matrix(9.962799,0,0,-9.963397,27.951188,90.05592)"/>
<use data-text="a" xlink:href="#font_2_1" transform="matrix(9.962799,0,0,-9.963397,112.85088,32.292306)"/>
<use data-text="b" xlink:href="#font_2_2" transform="matrix(9.962799,0,0,-9.963397,113.3469,61.955675)"/>
<use data-text="c" xlink:href="#font_2_3" transform="matrix(9.962799,0,0,-9.963397,113.3289,88.99084)"/>
<path transform="matrix(1.00002,0,0,-1.00008,30.442238,58.4964)" stroke-width="1.19553" stroke-linecap="butt" stroke-miterlimit="10" stroke-linejoin="miter" fill="none" stroke="#ff0000" d="M6.0105 28.3468H73.14894"/>
<path transform="matrix(1.00002,0,0,-1.00008,103.59264,30.147332)" d="M5.73854 0C4.0382 .31879 1.27522 1.27522-.6376 2.39105V-2.39105C1.27522-1.27522 4.0382-.31879 5.73854 0" fill="#ff0000"/>
<use data-text="f" xlink:href="#font_2_4" transform="matrix(9.962799,0,0,-9.963397,69.91702,24.291665)" fill="#ff0000"/>
<path transform="matrix(1.00002,0,0,-1.00008,30.442238,58.4964)" stroke-width="1.19553" stroke-linecap="butt" stroke-miterlimit="10" stroke-linejoin="miter" fill="none" stroke="#0000ff" d="M6.0105-2.00189 73.92116-24.64206"/>
<path transform="matrix(.94863906,.3162753,.31625635,-.9486959,104.364879,83.14041)" d="M5.73854 0C4.0382 .31879 1.27522 1.27522-.6376 2.39105V-2.39105C1.27522-1.27522 4.0382-.31879 5.73854 0" fill="#0000ff"/>
<path transform="matrix(1.00002,0,0,-1.00008,30.442238,58.4964)" stroke-width="1.19553" stroke-linecap="butt" stroke-miterlimit="10" stroke-linejoin="miter" fill="none" stroke="#00ff00" d="M6.0105-26.34444 73.93904-3.69868"/>
<path transform="matrix(.94863906,-.3162653,-.31624637,-.9486959,104.38276,62.195398)" d="M5.73854 0C4.0382 .31879 1.27522 1.27522-.6376 2.39105V-2.39105C1.27522-1.27522 4.0382-.31879 5.73854 0" fill="#00ff00"/>
<use data-text="T" xlink:href="#font_3_104" transform="matrix(9.962799,0,0,-9.963397,12.485878,146.0874)"/>
<use data-text="h" xlink:href="#font_3_63" transform="matrix(9.962799,0,0,-9.963397,19.679017,146.0874)"/>
<use data-text="e" xlink:href="#font_3_50" transform="matrix(9.962799,0,0,-9.963397,25.218338,146.0874)"/>
<use data-text="f" xlink:href="#font_3_55" transform="matrix(9.962799,0,0,-9.963397,32.959444,146.0874)"/>
<use data-text="u" xlink:href="#font_3_109" transform="matrix(9.962799,0,0,-9.963397,36.008058,146.0874)"/>
<use data-text="n" xlink:href="#font_3_77" transform="matrix(9.962799,0,0,-9.963397,41.547365,146.0874)"/>
<use data-text="c" xlink:href="#font_3_43" transform="matrix(9.962799,0,0,-9.963397,47.086687,146.0874)"/>
<use data-text="t" xlink:href="#font_3_105" transform="matrix(9.962799,0,0,-9.963397,51.510164,146.0874)"/>
<use data-text="i" xlink:href="#font_3_66" transform="matrix(9.962799,0,0,-9.963397,55.38571,146.0874)"/>
<use data-text="o" xlink:href="#font_3_81" transform="matrix(9.962799,0,0,-9.963397,58.155366,146.0874)"/>
<use data-text="n" xlink:href="#font_3_77" transform="matrix(9.962799,0,0,-9.963397,63.136766,146.0874)"/>
<use data-text="f" xlink:href="#font_2_4" transform="matrix(9.962799,0,0,-9.963397,71.994068,146.0874)"/>
<use data-text="i" xlink:href="#font_4_66" transform="matrix(9.962799,0,0,-9.963397,81.26227,146.0874)"/>
<use data-text="s" xlink:href="#font_4_98" transform="matrix(9.962799,0,0,-9.963397,84.32085,146.0874)"/>
<use data-text="1" xlink:href="#font_3_82" transform="matrix(9.962799,0,0,-9.963397,91.81247,146.0874)"/>
<use data-text="-" xlink:href="#font_3_64" transform="matrix(9.962799,0,0,-9.963397,96.79387,146.0874)"/>
<use data-text="1" xlink:href="#font_3_82" transform="matrix(9.962799,0,0,-9.963397,100.11148,146.0874)"/>
<path transform="matrix(1.00002,0,0,-1.00008,196.72255,58.4964)" stroke-width=".3985" stroke-linecap="butt" stroke-miterlimit="10" stroke-linejoin="miter" fill="none" stroke="#000000" d="M28.3468 0C28.3468 31.31142 15.6557 56.69363 0 56.69363-15.6557 56.69363-28.3468 31.31142-28.3468 0-28.3468-31.31142-15.6557-56.69363 0-56.69363 15.6557-56.69363 28.3468-31.31142 28.3468 0ZM0 0"/>
<path transform="matrix(1.00002,0,0,-1.00008,196.72255,58.4964)" stroke-width=".3985" stroke-linecap="butt" stroke-miterlimit="10" stroke-linejoin="miter" fill="none" stroke="#000000" d="M113.38724 0C113.38724 31.31142 100.69614 56.69363 85.04042 56.69363 69.3847 56.69363 56.69362 31.31142 56.69362 0 56.69362-31.31142 69.3847-56.69363 85.04042-56.69363 100.69614-56.69363 113.38724-31.31142 113.38724 0ZM85.04042 0"/>
<use data-text="1" xlink:href="#font_1_1" transform="matrix(9.962799,0,0,-9.963397,194.2315,33.35739)"/>
<use data-text="2" xlink:href="#font_1_2" transform="matrix(9.962799,0,0,-9.963397,194.2315,61.706659)"/>
<use data-text="3" xlink:href="#font_1_3" transform="matrix(9.962799,0,0,-9.963397,194.2315,90.05592)"/>
<use data-text="a" xlink:href="#font_2_1" transform="matrix(9.962799,0,0,-9.963397,279.1312,32.292306)"/>
<use data-text="b" xlink:href="#font_2_2" transform="matrix(9.962799,0,0,-9.963397,279.6272,61.955675)"/>
<use data-text="c" xlink:href="#font_2_3" transform="matrix(9.962799,0,0,-9.963397,279.60923,88.99084)"/>
<path transform="matrix(1.00002,0,0,-1.00008,196.72255,58.4964)" stroke-width="1.19553" stroke-linecap="butt" stroke-miterlimit="10" stroke-linejoin="miter" fill="none" stroke="#ff0000" d="M6.0105 28.3468H73.14894"/>
<path transform="matrix(1.00002,0,0,-1.00008,269.87297,30.147332)" d="M5.73854 0C4.0382 .31879 1.27522 1.27522-.6376 2.39105V-2.39105C1.27522-1.27522 4.0382-.31879 5.73854 0" fill="#ff0000"/>
<use data-text="g" xlink:href="#font_2_5" transform="matrix(9.962799,0,0,-9.963397,236.61734,24.291665)" fill="#ff0000"/>
<path transform="matrix(1.00002,0,0,-1.00008,196.72255,58.4964)" stroke-width="1.19553" stroke-linecap="butt" stroke-miterlimit="10" stroke-linejoin="miter" fill="none" stroke="#0000ff" d="M6.0105 0H73.64421"/>
<path transform="matrix(1.00002,0,0,-1.00008,270.36824,58.4964)" d="M5.73854 0C4.0382 .31879 1.27522 1.27522-.6376 2.39105V-2.39105C1.27522-1.27522 4.0382-.31879 5.73854 0" fill="#0000ff"/>
<path transform="matrix(1.00002,0,0,-1.00008,196.72255,58.4964)" stroke-width="1.19553" stroke-linecap="butt" stroke-miterlimit="10" stroke-linejoin="miter" fill="none" stroke="#00ff00" d="M6.0105-26.34444 73.93904-3.69868"/>
<path transform="matrix(.94863906,-.3162653,-.31624637,-.9486959,270.6631,62.195398)" d="M5.73854 0C4.0382 .31879 1.27522 1.27522-.6376 2.39105V-2.39105C1.27522-1.27522 4.0382-.31879 5.73854 0" fill="#00ff00"/>
<use data-text="T" xlink:href="#font_3_104" transform="matrix(9.962799,0,0,-9.963397,170.59302,146.0874)"/>
<use data-text="h" xlink:href="#font_3_63" transform="matrix(9.962799,0,0,-9.963397,177.78617,146.0874)"/>
<use data-text="e" xlink:href="#font_3_50" transform="matrix(9.962799,0,0,-9.963397,183.3255,146.0874)"/>
<use data-text="f" xlink:href="#font_3_55" transform="matrix(9.962799,0,0,-9.963397,191.06659,146.0874)"/>
<use data-text="u" xlink:href="#font_3_109" transform="matrix(9.962799,0,0,-9.963397,194.1152,146.0874)"/>
<use data-text="n" xlink:href="#font_3_77" transform="matrix(9.962799,0,0,-9.963397,199.65451,146.0874)"/>
<use data-text="c" xlink:href="#font_3_43" transform="matrix(9.962799,0,0,-9.963397,205.19385,146.0874)"/>
<use data-text="t" xlink:href="#font_3_105" transform="matrix(9.962799,0,0,-9.963397,209.61734,146.0874)"/>
<use data-text="i" xlink:href="#font_3_66" transform="matrix(9.962799,0,0,-9.963397,213.49286,146.0874)"/>
<use data-text="o" xlink:href="#font_3_81" transform="matrix(9.962799,0,0,-9.963397,216.26251,146.0874)"/>
<use data-text="n" xlink:href="#font_3_77" transform="matrix(9.962799,0,0,-9.963397,221.2439,146.0874)"/>
<use data-text="g" xlink:href="#font_2_5" transform="matrix(9.962799,0,0,-9.963397,230.1012,146.0874)"/>
<use data-text="i" xlink:href="#font_3_66" transform="matrix(9.962799,0,0,-9.963397,238.52838,146.0874)"/>
<use data-text="s" xlink:href="#font_3_98" transform="matrix(9.962799,0,0,-9.963397,241.29804,146.0874)"/>
<use data-text="n" xlink:href="#font_4_77" transform="matrix(9.962799,0,0,-9.963397,248.54056,146.0874)"/>
<use data-text="o" xlink:href="#font_4_81" transform="matrix(9.962799,0,0,-9.963397,254.13965,146.0874)"/>
<use data-text="t" xlink:href="#font_4_105" transform="matrix(9.962799,0,0,-9.963397,259.23063,146.0874)"/>
<use data-text="1" xlink:href="#font_3_82" transform="matrix(9.962799,0,0,-9.963397,266.26493,146.0874)"/>
<use data-text="-" xlink:href="#font_3_64" transform="matrix(9.962799,0,0,-9.963397,271.2463,146.0874)"/>
<use data-text="1" xlink:href="#font_3_82" transform="matrix(9.962799,0,0,-9.963397,274.5639,146.0874)"/>
</svg>
