<svg xmlns="http://www.w3.org/2000/svg" xmlns:xlink="http://www.w3.org/1999/xlink" xmlns:inkscape="http://www.inkscape.org/namespaces/inkscape" version="1.1" width="88" height="131" viewBox="0 0 88 131">
<path transform="matrix(1.00003,0,0,-1.0001,36.530565,108.110218)" stroke-width=".3985" stroke-linecap="butt" stroke-miterlimit="10" stroke-linejoin="miter" fill="none" stroke="#000000" d="M0-17.67355V102.71399"/>
<path transform="matrix(0,1.0001,1.00003,0,36.530565,125.78553)" d="M3.58653 0C2.52383 .19925 .797 .797-.3985 1.49438V-1.49438C.797-.797 2.52383-.19925 3.58653 0"/>
<path transform="matrix(0,-1.0001,-1.00003,-0,36.530565,5.385948)" d="M3.58653 0C2.52383 .19925 .797 .797-.3985 1.49438V-1.49438C.797-.797 2.52383-.19925 3.58653 0"/>
<path transform="matrix(1.00003,0,0,-1.0001,36.530565,108.110218)" stroke-width=".3985" stroke-linecap="butt" stroke-miterlimit="10" stroke-linejoin="miter" fill="none" stroke="#000000" d="M-31.84695 0H46.02037"/>
<path transform="matrix(-1.00003,-0,0,1.0001,4.6826555,108.110218)" d="M3.58653 0C2.52383 .19925 .797 .797-.3985 1.49438V-1.49438C.797-.797 2.52383-.19925 3.58653 0"/>
<path transform="matrix(1.00003,0,0,-1.0001,82.552318,108.110218)" d="M3.58653 0C2.52383 .19925 .797 .797-.3985 1.49438V-1.49438C.797-.797 2.52383-.19925 3.58653 0"/>
<path transform="matrix(1.00003,0,0,-1.0001,36.530565,108.110218)" stroke-width=".79701" stroke-linecap="butt" stroke-miterlimit="10" stroke-linejoin="miter" fill="none" stroke="#0000ff" d="M-17.71674 101.53287C-17.71674 101.53287-15.9034 97.85419-15.20694 96.48947-14.51048 95.12476-13.39359 92.99385-12.69714 91.69696-12.00067 90.40005-10.88379 88.37471-10.18733 87.14233-9.49088 85.90996-8.374 83.9858-7.67754 82.81479-6.98108 81.64377-5.86418 79.81538-5.16774 78.70242-4.47127 77.58948-3.35439 75.85097-2.65794 74.79338-1.96147 73.73578-.84459 72.08272-.14813 71.08003 .5483 70.07736 1.66519 68.52051 2.36163 67.56676 3.0581 66.61298 4.17499 65.11469 4.87144 64.20593 5.5679 63.29716 6.68478 61.87943 7.38126 61.01704 8.0777 60.15465 9.1946 58.8106 9.89105 57.99036 10.5875 57.17012 11.70439 55.88536 12.40085 55.10533 13.0973 54.3253 14.21419 53.109 14.91066 52.36844 15.6071 51.62787 16.724 50.47102 17.42046 49.7678 18.1169 49.0646 19.2338 47.96902 19.93025 47.30017 20.62671 46.63133 21.74359 45.58347 22.44006 44.94716 23.1365 44.31087 24.2534 43.31807 24.94986 42.71419 25.6463 42.1103 26.7632 41.1691 27.45966 40.59476 28.15611 40.02043 29.273 39.12062 29.96947 38.5748 30.66591 38.02899 31.78282 37.17918 32.47926 36.66083 33.17572 36.14246 34.29262 35.33147 34.98906 34.83876 35.68553 34.34605 36.80241 33.57779 37.49887 33.1097 38.19533 32.64157 39.31221 31.9095 40.00867 31.46495 40.70512 31.0204 42.51846 29.90565 42.51846 29.90565"/>
<path transform="matrix(1.00003,0,0,-1.0001,36.530565,108.110218)" d="M-12.67897 94.49223C-12.67897 95.31758-13.34804 95.98665-14.17339 95.98665-14.99873 95.98665-15.6678 95.31758-15.6678 94.49223-15.6678 93.66689-14.99873 92.99782-14.17339 92.99782-13.34804 92.99782-12.67897 93.66689-12.67897 94.49223ZM-14.17339 94.49223" fill="#ff0000"/>
<path transform="matrix(1.00003,0,0,-1.0001,36.530565,108.110218)" stroke-width=".3985" stroke-linecap="butt" stroke-miterlimit="10" stroke-linejoin="miter" fill="none" stroke="#ff0000" d="M-12.67897 94.49223C-12.67897 95.31758-13.34804 95.98665-14.17339 95.98665-14.99873 95.98665-15.6678 95.31758-15.6678 94.49223-15.6678 93.66689-14.99873 92.99782-14.17339 92.99782-13.34804 92.99782-12.67897 93.66689-12.67897 94.49223ZM-14.17339 94.49223"/>
<path transform="matrix(1.00003,0,0,-1.0001,36.530565,108.110218)" d="M1.49442 70.867C1.49442 71.69235 .82533 72.36142 0 72.36142-.82533 72.36142-1.49442 71.69235-1.49442 70.867-1.49442 70.04166-.82533 69.37259 0 69.37259 .82533 69.37259 1.49442 70.04166 1.49442 70.867ZM0 70.867" fill="#ff0000"/>
<path transform="matrix(1.00003,0,0,-1.0001,36.530565,108.110218)" stroke-width=".3985" stroke-linecap="butt" stroke-miterlimit="10" stroke-linejoin="miter" fill="none" stroke="#ff0000" d="M1.49442 70.867C1.49442 71.69235 .82533 72.36142 0 72.36142-.82533 72.36142-1.49442 71.69235-1.49442 70.867-1.49442 70.04166-.82533 69.37259 0 69.37259 .82533 69.37259 1.49442 70.04166 1.49442 70.867ZM0 70.867"/>
<path transform="matrix(1.00003,0,0,-1.0001,36.530565,108.110218)" d="M15.6678 53.15025C15.6678 53.9756 14.99873 54.64467 14.17339 54.64467 13.34804 54.64467 12.67897 53.9756 12.67897 53.15025 12.67897 52.32492 13.34804 51.65584 14.17339 51.65584 14.99873 51.65584 15.6678 52.32492 15.6678 53.15025ZM14.17339 53.15025" fill="#ff0000"/>
<path transform="matrix(1.00003,0,0,-1.0001,36.530565,108.110218)" stroke-width=".3985" stroke-linecap="butt" stroke-miterlimit="10" stroke-linejoin="miter" fill="none" stroke="#ff0000" d="M15.6678 53.15025C15.6678 53.9756 14.99873 54.64467 14.17339 54.64467 13.34804 54.64467 12.67897 53.9756 12.67897 53.15025 12.67897 52.32492 13.34804 51.65584 14.17339 51.65584 14.99873 51.65584 15.6678 52.32492 15.6678 53.15025ZM14.17339 53.15025"/>
<path transform="matrix(1.00003,0,0,-1.0001,36.530565,108.110218)" d="M29.84122 39.86269C29.84122 40.68803 29.17215 41.3571 28.3468 41.3571 27.52145 41.3571 26.85239 40.68803 26.85239 39.86269 26.85239 39.03734 27.52145 38.36827 28.3468 38.36827 29.17215 38.36827 29.84122 39.03734 29.84122 39.86269ZM28.3468 39.86269" fill="#ff0000"/>
<path transform="matrix(1.00003,0,0,-1.0001,36.530565,108.110218)" stroke-width=".3985" stroke-linecap="butt" stroke-miterlimit="10" stroke-linejoin="miter" fill="none" stroke="#ff0000" d="M29.84122 39.86269C29.84122 40.68803 29.17215 41.3571 28.3468 41.3571 27.52145 41.3571 26.85239 40.68803 26.85239 39.86269 26.85239 39.03734 27.52145 38.36827 28.3468 38.36827 29.17215 38.36827 29.84122 39.03734 29.84122 39.86269ZM28.3468 39.86269"/>
</svg>
