<svg xmlns="http://www.w3.org/2000/svg" xmlns:xlink="http://www.w3.org/1999/xlink" xmlns:inkscape="http://www.inkscape.org/namespaces/inkscape" version="1.1" width="102" height="329" viewBox="0 0 102 329">
<path transform="matrix(1.00003,0,0,-1.00003,50.70398,306.5327)" stroke-width=".3985" stroke-linecap="butt" stroke-miterlimit="10" stroke-linejoin="miter" fill="none" stroke="#000000" d="M0-17.67355V301.14167"/>
<path transform="matrix(0,1.00003,1.00003,0,50.70398,324.2068)" d="M3.58653 0C2.52383 .19925 .797 .797-.3985 1.49438V-1.49438C.797-.797 2.52383-.19925 3.58653 0"/>
<path transform="matrix(0,-1.00003,-1.00003,-0,50.70398,5.382019)" d="M3.58653 0C2.52383 .19925 .797 .797-.3985 1.49438V-1.49438C.797-.797 2.52383-.19925 3.58653 0"/>
<path transform="matrix(1.00003,0,0,-1.00003,50.70398,306.5327)" stroke-width=".3985" stroke-linecap="butt" stroke-miterlimit="10" stroke-linejoin="miter" fill="none" stroke="#000000" d="M-46.02037 0H46.02037"/>
<path transform="matrix(-1.00003,-0,0,1.00003,4.682228,306.5327)" d="M3.58653 0C2.52383 .19925 .797 .797-.3985 1.49438V-1.49438C.797-.797 2.52383-.19925 3.58653 0"/>
<path transform="matrix(1.00003,0,0,-1.00003,96.72573,306.5327)" d="M3.58653 0C2.52383 .19925 .797 .797-.3985 1.49438V-1.49438C.797-.797 2.52383-.19925 3.58653 0"/>
<path transform="matrix(1.00003,0,0,-1.00003,50.70398,306.5327)" stroke-width=".79701" stroke-linecap="butt" stroke-miterlimit="10" stroke-linejoin="miter" fill="none" stroke="#0000ff" d="M-42.5202 8.85837C-42.5202 8.85837-40.3442 9.84189-39.50844 10.26303-38.67268 10.68417-37.33243 11.40488-36.49667 11.8937-35.66093 12.3825-34.32066 13.22058-33.48492 13.78606-32.64915 14.35153-31.30891 15.31424-30.47314 15.96928-29.6374 16.62433-28.29713 17.74788-27.4614 18.5072-26.62564 19.26653-25.28539 20.56277-24.44962 21.44197-23.61388 22.32118-22.2736 23.825-21.43787 24.84389-20.60211 25.86276-19.26186 27.60417-18.4261 28.7854-17.59035 29.9666-16.25009 31.9893-15.41434 33.35732-14.57858 34.72533-13.23833 37.05968-12.40257 38.6451-11.56683 40.23051-10.22658 42.94656-9.39082 44.78387-8.55507 46.6212-7.21481 49.75885-6.37906 51.88725-5.5433 54.01563-4.20305 57.65833-3.3673 60.12384-2.53154 62.58937-1.19128 66.80302-.35553 69.65698 .4802 72.51094 1.82045 77.38553 2.6562 80.69319 3.49194 84.00085 4.83221 89.66158 5.66795 93.4963 6.50372 97.33104 7.84396 103.88817 8.67973 108.33128 9.51547 112.77441 10.85574 120.37158 11.69148 125.51926 12.52724 130.66696 13.8675 139.4676 14.70325 145.43222 15.539 151.39687 16.87927 161.5965 17.71501 168.50814 18.55077 175.41977 19.89102 187.23877 20.72678 195.24655 21.56253 203.25435 22.90277 216.94432 23.73854 226.22277 24.57428 235.50119 25.91455 251.36762 26.75029 262.11909 27.58604 272.87059 29.76205 303.71195 29.76205 303.71195"/>
<path transform="matrix(1.00003,0,0,-1.00003,50.70398,306.5327)" d="M-12.67897 35.43349C-12.67897 36.25883-13.34804 36.9279-14.17339 36.9279-14.99873 36.9279-15.6678 36.25883-15.6678 35.43349-15.6678 34.60815-14.99873 33.93907-14.17339 33.93907-13.34804 33.93907-12.67897 34.60815-12.67897 35.43349ZM-14.17339 35.43349" fill="#ff0000"/>
<path transform="matrix(1.00003,0,0,-1.00003,50.70398,306.5327)" stroke-width=".3985" stroke-linecap="butt" stroke-miterlimit="10" stroke-linejoin="miter" fill="none" stroke="#ff0000" d="M-12.67897 35.43349C-12.67897 36.25883-13.34804 36.9279-14.17339 36.9279-14.99873 36.9279-15.6678 36.25883-15.6678 35.43349-15.6678 34.60815-14.99873 33.93907-14.17339 33.93907-13.34804 33.93907-12.67897 34.60815-12.67897 35.43349ZM-14.17339 35.43349"/>
<path transform="matrix(1.00003,0,0,-1.00003,50.70398,306.5327)" d="M1.49442 70.867C1.49442 71.69235 .82533 72.36142 0 72.36142-.82533 72.36142-1.49442 71.69235-1.49442 70.867-1.49442 70.04166-.82533 69.37259 0 69.37259 .82533 69.37259 1.49442 70.04166 1.49442 70.867ZM0 70.867" fill="#ff0000"/>
<path transform="matrix(1.00003,0,0,-1.00003,50.70398,306.5327)" stroke-width=".3985" stroke-linecap="butt" stroke-miterlimit="10" stroke-linejoin="miter" fill="none" stroke="#ff0000" d="M1.49442 70.867C1.49442 71.69235 .82533 72.36142 0 72.36142-.82533 72.36142-1.49442 71.69235-1.49442 70.867-1.49442 70.04166-.82533 69.37259 0 69.37259 .82533 69.37259 1.49442 70.04166 1.49442 70.867ZM0 70.867"/>
<path transform="matrix(1.00003,0,0,-1.00003,50.70398,306.5327)" d="M15.6678 141.73404C15.6678 142.55939 14.99873 143.22846 14.17339 143.22846 13.34804 143.22846 12.67897 142.55939 12.67897 141.73404 12.67897 140.90869 13.34804 140.23963 14.17339 140.23963 14.99873 140.23963 15.6678 140.90869 15.6678 141.73404ZM14.17339 141.73404" fill="#ff0000"/>
<path transform="matrix(1.00003,0,0,-1.00003,50.70398,306.5327)" stroke-width=".3985" stroke-linecap="butt" stroke-miterlimit="10" stroke-linejoin="miter" fill="none" stroke="#ff0000" d="M15.6678 141.73404C15.6678 142.55939 14.99873 143.22846 14.17339 143.22846 13.34804 143.22846 12.67897 142.55939 12.67897 141.73404 12.67897 140.90869 13.34804 140.23963 14.17339 140.23963 14.99873 140.23963 15.6678 140.90869 15.6678 141.73404ZM14.17339 141.73404"/>
<path transform="matrix(1.00003,0,0,-1.00003,50.70398,306.5327)" d="M29.84122 283.4681C29.84122 284.29344 29.17215 284.96253 28.3468 284.96253 27.52145 284.96253 26.85239 284.29344 26.85239 283.4681 26.85239 282.64277 27.52145 281.9737 28.3468 281.9737 29.17215 281.9737 29.84122 282.64277 29.84122 283.4681ZM28.3468 283.4681" fill="#ff0000"/>
<path transform="matrix(1.00003,0,0,-1.00003,50.70398,306.5327)" stroke-width=".3985" stroke-linecap="butt" stroke-miterlimit="10" stroke-linejoin="miter" fill="none" stroke="#ff0000" d="M29.84122 283.4681C29.84122 284.29344 29.17215 284.96253 28.3468 284.96253 27.52145 284.96253 26.85239 284.29344 26.85239 283.4681 26.85239 282.64277 27.52145 281.9737 28.3468 281.9737 29.17215 281.9737 29.84122 282.64277 29.84122 283.4681ZM28.3468 283.4681"/>
</svg>
