<svg xmlns="http://www.w3.org/2000/svg" xmlns:xlink="http://www.w3.org/1999/xlink" xmlns:inkscape="http://www.inkscape.org/namespaces/inkscape" version="1.1" width="201" height="202" viewBox="0 0 201 202">
<defs>
<path id="font_1_82" d="M.43199159 0V.0309906H.3999939C.30699159 .0309906 .3039856 .042999269 .3039856 .08001709V.63912966C.3039856 .6640167 .30299378 .6660156 .27799989 .6660156 .21598816 .60227969 .12399292 .60227969 .09298706 .60227969V.57128909C.11199951 .57128909 .17298889 .57128909 .22698975 .5972748V.08001709C.22698975 .042999269 .22399903 .0309906 .1309967 .0309906H.09899902V0C.1349945 .0029907227 .22399903 .0029907227 .2649994 .0029907227 .30599977 .0029907227 .3959961 .0029907227 .43199159 0Z"/>
<path id="font_1_107" d="M.46199037 .17704773H.43399049C.43199159 .16404724 .42399598 .10501099 .41099549 .08900452 .40499879 .07998657 .33599855 .07998657 .31599427 .07998657H.13798523L.23699951 .17404175C.40098573 .3161316 .46199037 .36915589 .46199037 .4711914 .46199037 .5860901 .36698915 .6660156 .24398804 .6660156 .1289978 .6660156 .050994874 .575119 .050994874 .4841919 .050994874 .43418885 .09399414 .42919923 .102996829 .42919923 .125 .42919923 .15499878 .44519044 .15499878 .48120118 .15499878 .51119998 .13398743 .5332031 .102996829 .5332031 .09799194 .5332031 .09498596 .5332031 .09098816 .53219607 .114990238 .6030731 .1789856 .63500979 .23298645 .63500979 .33499146 .63500979 .36999513 .5401764 .36999513 .4711914 .36999513 .36915589 .29299928 .28611756 .24499512 .23408509L.06199646 .035995485C.050994874 .024993897 .050994874 .022994996 .050994874 0H.43399049L.46199037 .17704773Z"/>
<path id="font_1_106" d="M.46998597 .17008972C.46998597 .25709535 .40098573 .33110047 .30499269 .35209657 .397995 .38710023 .44198609 .46009828 .44198609 .5290985 .44198609 .60606387 .35699464 .6660156 .25299073 .6660156 .14898682 .6660156 .070999149 .60705569 .070999149 .5310974 .070999149 .49809266 .09298706 .47909547 .12199402 .47909547 .15098572 .47909547 .17199707 .50009158 .17199707 .5290985 .17199707 .5640869 .147995 .57910159 .11399841 .57910159 .13999939 .6210327 .20098877 .64100649 .25 .64100649 .33299256 .64100649 .34899903 .5750885 .34899903 .52809146 .34899903 .49809266 .34298707 .45005799 .31799317 .41201783 .2869873 .36695863 .2519989 .36495973 .22299195 .36296083 .19799805 .36094667 .19599915 .36094667 .18798828 .36094667 .1789856 .35995484 .17098999 .35894776 .17098999 .34794618 .17098999 .33496095 .1789856 .33496095 .19599915 .33496095H.24299622C.32998658 .33496095 .36799623 .2646637 .36799623 .16937256 .36799623 .04145813 .2999878 .0055389406 .24899292 .0055389406 .22999573 .0055389406 .1329956 .010528564 .08799744 .0843811 .12399292 .07939148 .1519928 .10437012 .1519928 .13838196 .1519928 .17137146 .1269989 .19238281 .09799194 .19238281 .07299805 .19238281 .042999269 .17736817 .042999269 .13537598 .042999269 .046447755 .13598633-.022460938 .2519989-.022460938 .3769989-.022460938 .46998597 .06741333 .46998597 .16937256V.17008972Z"/>
<path id="font_1_57" d="M.48399354 .16503906V.19602967H.38198854V.649765C.38198854 .669754 .38198854 .6767578 .36299134 .6767578 .35099793 .6767578 .34999085 .67575076 .34098817 .6617584L.0289917 .19602967V.16503906H.3019867V.07901001C.3019867 .041992189 .29899598 .0309906 .22399903 .0309906H.20199585V0C.2649994 .0029907227 .33499146 .0029907227 .34199525 .0029907227 .34700013 .0029907227 .4189911 .0029907227 .48199464 0V.0309906H.45999146C.3849945 .0309906 .38198854 .041992189 .38198854 .07901001V.16503906H.48399354M.30799867 .19602967H.06098938L.30799867 .56581118V.19602967Z"/>
<path id="font_1_56" d="M.46199037 .19992066C.46199037 .3209076 .37599183 .41992188 .2669983 .41992188 .21899414 .41992188 .16999817 .4039154 .1349945 .36791993V.5647888C.16499329 .55578616 .19599915 .55078127 .22698975 .55078127 .34999085 .55078127 .42199708 .63983157 .42199708 .6529236 .42199708 .6619873 .41600038 .6660156 .41099549 .6660156 .41099549 .6660156 .40699769 .6660156 .397995 .6609802 .35099793 .6418457 .30499269 .63378909 .2630005 .63378909 .21998596 .63378909 .1749878 .6418457 .1289978 .6609802 .11898804 .6660156 .115997318 .6660156 .115997318 .6660156 .10398865 .6660156 .10398865 .6559448 .10398865 .63882449V.34490968C.10398865 .32699586 .10398865 .31599427 .117996219 .31599427 .12599182 .31562806 .1289978 .3196411 .1349945 .32867433 .16499329 .37083436 .21299744 .39491273 .2649994 .39491273 .37199403 .39491273 .37199403 .24035645 .37199403 .20422364 .37199403 .17321778 .37199403 .11122131 .34399415 .06636047 .31698609 .024475098 .2749939 .0055389406 .23599243 .0055389406 .1769867 .0055389406 .10998535 .042419435 .085998538 .11621094 .085998538 .116882327 .09298706 .11488342 .099990848 .11488342 .11999512 .11488342 .14898682 .12788391 .14898682 .1638794 .14898682 .19488526 .1269989 .21289063 .099990848 .21289063 .07899475 .21289063 .050994874 .20088196 .050994874 .16088867 .050994874 .069732669 .1269989-.022460938 .23799134-.022460938 .35899354-.02279663 .46199037 .07521057 .46199037 .19921875V.19992066Z"/>
<path id="font_2_1" d="M.36698915 .3996582H.45298768C.47299195 .3996582 .48298646 .3996582 .48298646 .41966249 .48298646 .43066407 .47299195 .43066407 .45599366 .43066407H.37298585L.3939972 .5449524C.397995 .5660095 .4119873 .6370239 .41799928 .6490326 .4269867 .66804507 .44400025 .68307498 .46499635 .68307498 .46899415 .68307498 .49499513 .68307498 .5139923 .66503909 .46998597 .661026 .45999146 .6260376 .45999146 .6110382 .45999146 .58802798 .47799684 .57603457 .49699403 .57603457 .522995 .57603457 .5519867 .5980377 .5519867 .6360321 .5519867 .6820679 .5059967 .7050781 .46499635 .7050781 .43099977 .7050781 .36799623 .68707278 .33799745 .58802798 .33198548 .56700137 .32899476 .5569763 .30499269 .43066407H.23599243C.21699524 .43066407 .20599365 .43066407 .20599365 .4116516 .20599365 .3996582 .21499634 .3996582 .23399353 .3996582H.2999878L.22499085 .0048828127C.20698548-.09207153 .18998719-.18309021 .13798523-.18309021 .13398743-.18309021 .10899353-.18309021 .08999634-.16506958 .13598633-.1620636 .14498902-.12606812 .14498902-.111068729 .14498902-.08807373 .1269989-.07606506 .10798645-.07606506 .08198547-.07606506 .052993776-.09806824 .052993776-.13606262 .052993776-.18109131 .09700012-.20507813 .13798523-.20507813 .19299317-.20507813 .23298645-.14607239 .25099183-.108062747 .2829895-.04508972 .30599977 .07583618 .30699159 .082839969L.36698915 .3996582Z"/>
<path id="font_3_1" d="M.33099366-.2400055C.33099366-.23701477 .33099366-.23500061 .31399537-.21800232 .18899536-.0920105 .15699768 .09700012 .15699768 .25 .15699768 .42399598 .19499207 .59799197 .31799317 .72299197 .33099366 .73498538 .33099366 .7369995 .33099366 .73999026 .33099366 .746994 .32699586 .75 .32099916 .75 .31098939 .75 .22099304 .6819916 .1619873 .5549927 .11099243 .44499208 .09899902 .33399964 .09899902 .25 .09899902 .17199707 .10998535 .050994874 .16499329-.06201172 .22499085-.18501282 .31098939-.25 .32099916-.25 .32699586-.25 .33099366-.24700928 .33099366-.2400055Z"/>
<path id="font_2_2" d="M.33399964 .30233766C.33999635 .32835389 .36299134 .42037965 .43299867 .42037965 .43798829 .42037965 .46199037 .42037965 .48298646 .40734864 .45498658 .402359 .43499757 .37734986 .43499757 .35334779 .43499757 .33735658 .44599916 .31835938 .47299195 .31835938 .49499513 .31835938 .5269928 .3363495 .5269928 .37635804 .5269928 .42837525 .46798707 .4423828 .43399049 .4423828 .37599183 .4423828 .34098817 .38935853 .32899476 .36634828 .3039856 .43237306 .25 .4423828 .22099304 .4423828 .116989139 .4423828 .05999756 .3133545 .05999756 .28834535 .05999756 .27833558 .069992069 .27833558 .07199097 .27833558 .07998657 .27833558 .08299255 .28033448 .084991458 .28933717 .11898804 .39535523 .18499756 .42037965 .21899414 .42037965 .23799134 .42037965 .272995 .4113617 .272995 .35334779 .272995 .32235719 .2559967 .25532533 .21899414 .11528015 .20298767 .053268434 .16799927 .011245728 .12399292 .011245728 .117996219 .011245728 .09498596 .011245728 .07398987 .024276734 .09899902 .029266358 .12098694 .05027771 .12098694 .07827759 .12098694 .105270389 .09899902 .11328125 .083999637 .11328125 .053985597 .11328125 .0289917 .08728027 .0289917 .055267335 .0289917 .009246826 .07899475-.0107421879 .12298584-.0107421879 .18899536-.0107421879 .22499085 .059280397 .22799683 .0652771 .23999024 .028274537 .27598573-.0107421879 .33599855-.0107421879 .43899537-.0107421879 .49598695 .118270877 .49598695 .14328003 .49598695 .1532898 .4869995 .1532898 .48399354 .1532898 .47499085 .1532898 .47299195 .14929199 .47099305 .14228821 .43798829 .03527832 .36999513 .011245728 .33799745 .011245728 .29899598 .011245728 .2829895 .043273927 .2829895 .07727051 .2829895 .09927368 .2889862 .121276859 .2999878 .16529846L.33399964 .30233766Z"/>
<path id="font_3_2" d="M.2889862 .25C.2889862 .32798768 .27799989 .44898988 .22299195 .56199648 .16299439 .68499758 .07699585 .75 .066986087 .75 .06098938 .75 .056991579 .74598696 .056991579 .73999026 .056991579 .7369995 .056991579 .73498538 .07598877 .71699526 .17399597 .6179962 .23098755 .45899964 .23098755 .25 .23098755 .07899475 .19400025-.09700012 .069992069-.2230072 .056991579-.23500061 .056991579-.23701477 .056991579-.2400055 .056991579-.2460022 .06098938-.25 .066986087-.25 .07699585-.25 .16699219-.18200684 .22599793-.055007936 .2769928 .054992677 .2889862 .16600037 .2889862 .25Z"/>
</defs>
<path transform="matrix(1.00005,0,0,-1.00003,29.443573,171.88269)" stroke-width=".3985" stroke-linecap="butt" stroke-dasharray=".3985,1.99255" stroke-miterlimit="10" stroke-linejoin="miter" fill="none" stroke="#000000" d="M-17.00824 0H153.07259M-17.00824 28.3468H153.07259M-17.00824 56.69362H153.07259M-17.00824 85.04042H153.07259M-17.00824 113.38724H153.07259M-17.00824 141.73404H153.07259M0-11.33855V153.07259M28.3468-11.33855V153.07259M56.69362-11.33855V153.07259M85.04042-11.33855V153.07259M113.38724-11.33855V153.07259M141.73404-11.33855V153.07259M153.07259 153.07259"/>
<path transform="matrix(1.00005,0,0,-1.00003,29.443573,171.88269)" stroke-width=".3985" stroke-linecap="butt" stroke-miterlimit="10" stroke-linejoin="miter" fill="none" stroke="#000000" d="M-24.76025 0H166.49431"/>
<path transform="matrix(-1.00005,-0,0,1.00003,4.682087,171.88269)" d="M3.58653 0C2.52383 .19925 .797 .797-.3985 1.49438V-1.49438C.797-.797 2.52383-.19925 3.58653 0"/>
<path transform="matrix(1.00005,0,0,-1.00003,195.9462,171.88269)" d="M3.58653 0C2.52383 .19925 .797 .797-.3985 1.49438V-1.49438C.797-.797 2.52383-.19925 3.58653 0"/>
<path transform="matrix(1.00005,0,0,-1.00003,29.443573,171.88269)" stroke-width=".3985" stroke-linecap="butt" stroke-miterlimit="10" stroke-linejoin="miter" fill="none" stroke="#000000" d="M0-24.76025V166.49431"/>
<path transform="matrix(0,1.00003,1.00005,0,29.443573,196.64368)" d="M3.58653 0C2.52383 .19925 .797 .797-.3985 1.49438V-1.49438C.797-.797 2.52383-.19925 3.58653 0"/>
<path transform="matrix(0,-1.00003,-1.00005,-0,29.443573,5.383377)" d="M3.58653 0C2.52383 .19925 .797 .797-.3985 1.49438V-1.49438C.797-.797 2.52383-.19925 3.58653 0"/>
<path transform="matrix(1.00005,0,0,-1.00003,29.443573,171.88269)" stroke-width=".3985" stroke-linecap="butt" stroke-miterlimit="10" stroke-linejoin="miter" fill="none" stroke="#000000" d="M28.3468 5.66927V-5.66927"/>
<use data-text="1" xlink:href="#font_1_82" transform="matrix(8.966848,0,0,-8.966669,61.312166,187.04415)"/>
<path transform="matrix(1.00005,0,0,-1.00003,29.443573,171.88269)" stroke-width=".3985" stroke-linecap="butt" stroke-miterlimit="10" stroke-linejoin="miter" fill="none" stroke="#000000" d="M56.69362 5.66927V-5.66927"/>
<use data-text="2" xlink:href="#font_1_107" transform="matrix(8.966848,0,0,-8.966669,89.65958,187.04415)"/>
<path transform="matrix(1.00005,0,0,-1.00003,29.443573,171.88269)" stroke-width=".3985" stroke-linecap="butt" stroke-miterlimit="10" stroke-linejoin="miter" fill="none" stroke="#000000" d="M85.04042 5.66927V-5.66927"/>
<use data-text="3" xlink:href="#font_1_106" transform="matrix(8.966848,0,0,-8.966669,118.007999,187.04415)"/>
<path transform="matrix(1.00005,0,0,-1.00003,29.443573,171.88269)" stroke-width=".3985" stroke-linecap="butt" stroke-miterlimit="10" stroke-linejoin="miter" fill="none" stroke="#000000" d="M113.38724 5.66927V-5.66927"/>
<use data-text="4" xlink:href="#font_1_57" transform="matrix(8.966848,0,0,-8.966669,146.35642,187.14215)"/>
<path transform="matrix(1.00005,0,0,-1.00003,29.443573,171.88269)" stroke-width=".3985" stroke-linecap="butt" stroke-miterlimit="10" stroke-linejoin="miter" fill="none" stroke="#000000" d="M141.73404 5.66927V-5.66927"/>
<use data-text="5" xlink:href="#font_1_56" transform="matrix(8.966848,0,0,-8.966669,174.70482,187.04415)"/>
<path transform="matrix(1.00005,0,0,-1.00003,29.443573,171.88269)" stroke-width=".3985" stroke-linecap="butt" stroke-miterlimit="10" stroke-linejoin="miter" fill="none" stroke="#000000" d="M5.66927 28.3468H-5.66927"/>
<use data-text="1" xlink:href="#font_1_82" transform="matrix(8.966848,0,0,-8.966669,15.644882,140.01474)"/>
<path transform="matrix(1.00005,0,0,-1.00003,29.443573,171.88269)" stroke-width=".3985" stroke-linecap="butt" stroke-miterlimit="10" stroke-linejoin="miter" fill="none" stroke="#000000" d="M5.66927 56.69362H-5.66927"/>
<use data-text="2" xlink:href="#font_1_107" transform="matrix(8.966848,0,0,-8.966669,15.644882,111.66788)"/>
<path transform="matrix(1.00005,0,0,-1.00003,29.443573,171.88269)" stroke-width=".3985" stroke-linecap="butt" stroke-miterlimit="10" stroke-linejoin="miter" fill="none" stroke="#000000" d="M5.66927 85.04042H-5.66927"/>
<use data-text="3" xlink:href="#font_1_106" transform="matrix(8.966848,0,0,-8.966669,15.644882,83.123027)"/>
<path transform="matrix(1.00005,0,0,-1.00003,29.443573,171.88269)" stroke-width=".3985" stroke-linecap="butt" stroke-miterlimit="10" stroke-linejoin="miter" fill="none" stroke="#000000" d="M5.66927 113.38724H-5.66927"/>
<use data-text="4" xlink:href="#font_1_57" transform="matrix(8.966848,0,0,-8.966669,15.644882,54.972185)"/>
<path transform="matrix(1.00005,0,0,-1.00003,29.443573,171.88269)" stroke-width=".3985" stroke-linecap="butt" stroke-miterlimit="10" stroke-linejoin="miter" fill="none" stroke="#000000" d="M5.66927 141.73404H-5.66927"/>
<use data-text="5" xlink:href="#font_1_56" transform="matrix(8.966848,0,0,-8.966669,15.644882,26.427323)"/>
<path transform="matrix(1.00005,0,0,-1.00003,29.443573,171.88269)" stroke-width="1.19553" stroke-linecap="butt" stroke-miterlimit="10" stroke-linejoin="miter" fill="none" stroke="#ff0000" d="M70.867 85.04042H141.73404"/>
<path transform="matrix(1.00005,0,0,-1.00003,29.443573,171.88269)" stroke-width="1.19553" stroke-linecap="butt" stroke-dasharray="1.19553,1.99255" stroke-miterlimit="10" stroke-linejoin="miter" fill="none" stroke="#ff0000" d="M42.5202 85.04042H70.867"/>
<path transform="matrix(1.00005,0,0,-1.00003,29.443573,171.88269)" stroke-width="1.19553" stroke-linecap="butt" stroke-miterlimit="10" stroke-linejoin="miter" fill="none" stroke="#ff0000" d="M42.5202 85.04042H0"/>
<path transform="matrix(1.00005,0,0,-1.00003,29.443573,171.88269)" d="M2.98883 85.04042C2.98883 86.69113 1.6507 88.02925 0 88.02925-1.6507 88.02925-2.98883 86.69113-2.98883 85.04042-2.98883 83.38971-1.6507 82.05159 0 82.05159 1.6507 82.05159 2.98883 83.38971 2.98883 85.04042ZM0 85.04042" fill="#ff0000"/>
<path transform="matrix(1.00005,0,0,-1.00003,29.443573,171.88269)" stroke-width="1.19553" stroke-linecap="butt" stroke-miterlimit="10" stroke-linejoin="miter" fill="none" stroke="#ff0000" d="M2.98883 85.04042C2.98883 86.69113 1.6507 88.02925 0 88.02925-1.6507 88.02925-2.98883 86.69113-2.98883 85.04042-2.98883 83.38971-1.6507 82.05159 0 82.05159 1.6507 82.05159 2.98883 83.38971 2.98883 85.04042ZM0 85.04042"/>
<path transform="matrix(1.00005,0,0,-1.00003,29.443573,171.88269)" d="M45.50903 85.04042C45.50903 86.69113 44.17091 88.02925 42.5202 88.02925 40.86949 88.02925 39.53137 86.69113 39.53137 85.04042 39.53137 83.38971 40.86949 82.05159 42.5202 82.05159 44.17091 82.05159 45.50903 83.38971 45.50903 85.04042ZM42.5202 85.04042" fill="#ff0000"/>
<path transform="matrix(1.00005,0,0,-1.00003,29.443573,171.88269)" stroke-width="1.19553" stroke-linecap="butt" stroke-miterlimit="10" stroke-linejoin="miter" fill="none" stroke="#ff0000" d="M45.50903 85.04042C45.50903 86.69113 44.17091 88.02925 42.5202 88.02925 40.86949 88.02925 39.53137 86.69113 39.53137 85.04042 39.53137 83.38971 40.86949 82.05159 42.5202 82.05159 44.17091 82.05159 45.50903 83.38971 45.50903 85.04042ZM42.5202 85.04042"/>
<path transform="matrix(1.00005,0,0,-1.00003,29.443573,171.88269)" d="M73.85583 85.04042C73.85583 86.69113 72.51772 88.02925 70.867 88.02925 69.21631 88.02925 67.87817 86.69113 67.87817 85.04042 67.87817 83.38971 69.21631 82.05159 70.867 82.05159 72.51772 82.05159 73.85583 83.38971 73.85583 85.04042ZM70.867 85.04042" fill="#ff0000"/>
<path transform="matrix(1.00005,0,0,-1.00003,29.443573,171.88269)" stroke-width="1.19553" stroke-linecap="butt" stroke-miterlimit="10" stroke-linejoin="miter" fill="none" stroke="#ff0000" d="M73.85583 85.04042C73.85583 86.69113 72.51772 88.02925 70.867 88.02925 69.21631 88.02925 67.87817 86.69113 67.87817 85.04042 67.87817 83.38971 69.21631 82.05159 70.867 82.05159 72.51772 82.05159 73.85583 83.38971 73.85583 85.04042ZM70.867 85.04042"/>
<path transform="matrix(1.00005,0,0,-1.00003,29.443573,171.88269)" stroke-width=".79701" stroke-linecap="butt" stroke-miterlimit="10" stroke-linejoin="miter" fill="none" stroke="#000000" d="M0 28.3468C0 28.3468 .20657 28.34784 .28589 28.34938 .36522 28.35094 .49248 28.3548 .5718 28.35803 .65112 28.36127 .77837 28.36797 .8577 28.37276 .93704 28.37755 1.06429 28.38628 1.14362 28.39264 1.22296 28.39899 1.3502 28.41055 1.42952 28.4186 1.50885 28.42664 1.63611 28.44101 1.71542 28.4506 1.79475 28.46019 1.922 28.47664 2.00133 28.4878 2.08067 28.49896 2.20792 28.51822 2.28725 28.53105 2.3666 28.54388 2.49384 28.56596 2.57315 28.58037 2.65248 28.59476 2.77974 28.6189 2.85905 28.63486 2.93839 28.65083 3.06563 28.67778 3.14496 28.69542 3.2243 28.71304 3.35155 28.74283 3.43088 28.76202 3.51022 28.78123 3.63747 28.81308 3.71678 28.83383 3.79611 28.85458 3.92337 28.88925 4.00269 28.9117 4.08202 28.93413 4.20926 28.9716 4.28859 28.9956 4.36794 29.0196 4.49518 29.05916 4.57451 29.0847 4.65385 29.11026 4.7811 29.15262 4.86041 29.17986 4.93974 29.20709 5.06699 29.25226 5.14632 29.28107 5.22566 29.30988 5.3529 29.35713 5.43224 29.38748 5.51158 29.41785 5.63881 29.4679 5.71814 29.49995 5.79747 29.532 5.92471 29.58487 6.00404 29.61847 6.08337 29.65205 6.2106 29.707 6.28995 29.74216 6.3693 29.77733 6.49652 29.8351 6.57587 29.87193 6.65521 29.90875 6.78244 29.96935 6.86177 30.00774 6.9411 30.04614 7.06834 30.10878 7.14767 30.14876 7.227 30.18872 7.35423 30.25418 7.43358 30.29582 7.51291 30.33745 7.64015 30.40573 7.7195 30.44893 7.79883 30.49214 7.92607 30.56247 8.0054 30.60724 8.08472 30.65201 8.21198 30.72517 8.2913 30.7716 8.37062 30.81805 8.49786 30.89401 8.57721 30.94202 8.65654 30.99004 8.78378 31.06808 8.86313 31.11763 8.94246 31.16719 9.0697 31.24805 9.14903 31.2993 9.22835 31.35054 9.3556 31.43422 9.43494 31.48701 9.51425 31.53981 9.6415 31.62556 9.72084 31.67993 9.80017 31.73428 9.92741 31.82286 10.00676 31.8789 10.08609 31.93495 10.21333 32.02632 10.29266 32.08392 10.37198 32.14153 10.49922 32.23497 10.57857 32.29413 10.6579 32.3533 10.78514 32.44955 10.86449 32.5104 10.94382 32.57126 11.07106 32.67026 11.15039 32.73273 11.2297 32.7952 11.35696 32.89665 11.4363 32.96068 11.51561 33.0247 11.64285 33.12866 11.7222 33.19424 11.80153 33.25983 11.92877 33.36624 12.00812 33.43344 12.08745 33.50066 12.21469 33.60985 12.29402 33.67868 12.37334 33.74751 12.5006 33.85918 12.57993 33.92957 12.65924 33.99995 12.78648 34.11406 12.86583 34.18607 12.94516 34.25807 13.0724 34.37498 13.15173 34.44861 13.23108 34.52223 13.35832 34.64159 13.43764 34.71678 13.51697 34.79198 13.64423 34.91377 13.72354 34.99059 13.80287 35.0674 13.93011 35.19202 14.00945 35.27043 14.08879 35.34886 14.21603 35.4759 14.29536 35.5559 14.37471 35.6359 14.50195 35.7654 14.58127 35.847 14.6606 35.9286 14.78786 36.06093 14.86717 36.14415 14.9465 36.22739 15.07375 36.36214 15.15308 36.44693 15.23242 36.53172 15.35966 36.66893 15.439 36.75534 15.51834 36.84175 15.64558 36.98175 15.7249 37.0698 15.80423 37.15782 15.93147 37.30026 16.0108 37.38986 16.09015 37.47946 16.21739 37.62436 16.29672 37.71558 16.37607 37.80678 16.50331 37.95448 16.58263 38.04732 16.66196 38.14017 16.78922 38.29031 16.86853 38.3847 16.94786 38.4791 17.0751 38.63168 17.15443 38.7277 17.23378 38.82372 17.36102 38.97913 17.44035 39.07677 17.5197 39.17441 17.64694 39.33226 17.72626 39.43144 17.80559 39.53064 17.93285 39.69093 18.01216 39.79175 18.09149 39.89256 18.21873 40.05568 18.29807 40.15811 18.37741 40.26054 18.50464 40.4261 18.58398 40.53009 18.66333 40.6341 18.79056 40.80208 18.86989 40.9077 18.94922 41.01332 19.07646 41.18413 19.15579 41.29137 19.23512 41.39859 19.36235 41.57178 19.4417 41.68063 19.52104 41.7895 19.64827 41.96558 19.72762 42.07599 19.80696 42.1864 19.93419 42.36453 20.01352 42.4765 20.09285 42.58849 20.2201 42.76944 20.29942 42.8831 20.37875 42.99677 20.50598 43.18053 20.58533 43.29575 20.66466 43.41096 20.7919 43.59679 20.87125 43.71358 20.95058 43.83035 21.07782 44.01901 21.15715 44.13747 21.23647 44.25592 21.36371 44.44739 21.44305 44.5674 21.52238 44.68742 21.64963 44.88095 21.72897 45.00253 21.8083 45.12411 21.93555 45.32047 22.01488 45.44373 22.0942 45.56699 22.22145 45.76608 22.30078 45.89096 22.3801 46.01585 22.50734 46.21739 22.58669 46.34383 22.66602 46.47026 22.79326 46.67432 22.8726 46.80232 22.95193 46.93033 23.07918 47.13681 23.15851 47.26643 23.23782 47.39607 23.36508 47.60536 23.44441 47.7366 23.52373 47.86784 23.65097 48.07959 23.73032 48.2124 23.80965 48.3452 23.93689 48.5594 24.01624 48.69382 24.09557 48.82823 24.22281 49.04524 24.30214 49.18127 24.38145 49.31732 24.50871 49.53676 24.58804 49.67438 24.66736 49.81198 24.7946 50.03387 24.87395 50.1731 24.95328 50.3123 25.08052 50.53702 25.15987 50.67787 25.2392 50.81871 25.36644 51.04587 25.44577 51.18826 25.52509 51.33066 25.65234 51.56026 25.73167 51.70428 25.81099 51.8483 25.93823 52.0807 26.01756 52.22636 26.09691 52.37201 26.22415 52.60684 26.30348 52.75404 26.38283 52.90125 26.51007 53.13853 26.58939 53.28737 26.66872 53.43619 26.79596 53.6763 26.87529 53.82675 26.95464 53.9772 27.08188 54.21967 27.16121 54.37173 27.24055 54.5238 27.3678 54.76917 27.44711 54.92279 27.52644 55.07643 27.6537 55.32385 27.73302 55.47903 27.81235 55.63422 27.93959 55.88448 28.01892 56.04134 28.09827 56.19821 28.30484 56.6097 28.30484 56.6097"/>
<path transform="matrix(1.00005,0,0,-1.00003,29.443573,171.88269)" stroke-width=".79701" stroke-linecap="butt" stroke-miterlimit="10" stroke-linejoin="miter" fill="none" stroke="#000000" d="M28.3468 56.69362C28.3468 56.69362 28.55338 57.10675 28.6327 57.26543 28.71204 57.42409 28.83928 57.67857 28.91861 57.83723 28.99794 57.99591 29.12517 58.25038 29.20451 58.40904 29.28386 58.56772 29.41109 58.8222 29.49043 58.98087 29.56978 59.13954 29.697 59.39401 29.77634 59.55267 29.85565 59.71133 29.98291 59.96584 30.06224 60.1245 30.14156 60.28316 30.2688 60.53764 30.34814 60.6963 30.42747 60.85497 30.55472 61.10947 30.63406 61.26813 30.7134 61.42679 30.84064 61.68127 30.91997 61.83994 30.99928 61.9986 31.12654 62.2531 31.20587 62.41176 31.28519 62.57042 31.41243 62.8249 31.49178 62.98357 31.5711 63.14223 31.69835 63.39673 31.7777 63.55539 31.85703 63.71405 31.98427 63.96854 32.0636 64.1272 32.14291 64.28586 32.27017 64.54036 32.3495 64.69902 32.42882 64.85768 32.55606 65.11217 32.6354 65.27083 32.71474 65.42949 32.84198 65.68399 32.92133 65.84265 33.00066 66.00131 33.1279 66.2558 33.20723 66.41446 33.28654 66.57312 33.41379 66.8276 33.49313 66.98628 33.57246 67.14496 33.6997 67.39944 33.77905 67.5581 33.85838 67.71677 33.98563 67.97125 34.06496 68.12991 34.14427 68.28857 34.27153 68.54306 34.35086 68.70174 34.43018 68.8604 34.55742 69.11487 34.63676 69.27354 34.7161 69.4322 34.84334 69.68669 34.92268 69.84537 35.00201 70.00403 35.12926 70.2585 35.20857 70.41716 35.2879 70.57584 35.41516 70.83032 35.49448 70.98898 35.5738 71.14766 35.70105 71.40213 35.78038 71.56079 35.85973 71.71947 35.98697 71.97395 36.0663 72.13261 36.14565 72.29129 36.27289 72.54576 36.3522 72.70442 36.43153 72.86308 36.55879 73.11758 36.6381 73.27625 36.71744 73.4349 36.84468 73.68939 36.92401 73.84805 37.00336 74.00671 37.1306 74.26122 37.20993 74.41988 37.28928 74.57854 37.41652 74.83302 37.49583 74.99168 37.57516 75.15034 37.70242 75.40485 37.78174 75.5635 37.86107 75.72217 37.98831 75.97665 38.06764 76.13531 38.14699 76.29398 38.27423 76.54848 38.35356 76.70714 38.4329 76.8658 38.56015 77.12029 38.63947 77.27895 38.7188 77.4376 38.84604 77.6921 38.92537 77.85077 39.00471 78.00945 39.13196 78.26393 39.21129 78.42259 39.29063 78.58125 39.41788 78.83574 39.4972 78.9944 39.57652 79.15306 39.70378 79.40756 39.7831 79.56622 39.86243 79.72488 39.98967 79.97937 40.069 80.13803 40.14835 80.29669 40.27559 80.5512 40.35492 80.70985 40.43427 80.86852 40.56151 81.123 40.64082 81.28166 40.72015 81.44032 40.8474 81.69481 40.92673 81.85349 41.00606 82.01215 41.13329 82.26662 41.21263 82.4253 41.29198 82.58395 41.4192 82.83844 41.49855 82.99712 41.5779 83.15578 41.70512 83.41025 41.78445 83.56891 41.86378 83.72758 41.99103 83.98207 42.07036 84.14073 42.14969 84.29941 42.27692 84.55388 42.35626 84.71254 42.43561 84.87122 42.56284 85.1257 42.64218 85.28436 42.72151 85.44302 42.84875 85.69751 42.92809 85.85617 43.0074 86.01483 43.13466 86.26933 43.21399 86.428 43.2933 86.58665 43.42055 86.84114 43.4999 86.9998 43.57922 87.15846 43.70647 87.41296 43.78581 87.57162 43.86514 87.73029 43.99239 87.98477 44.07172 88.14343 44.15103 88.3021 44.27827 88.55658 44.35762 88.71526 44.43695 88.87393 44.5642 89.12842 44.64354 89.28708 44.72287 89.44574 44.85011 89.70023 44.92944 89.85889 45.00876 90.01755 45.13602 90.27205 45.21535 90.43071 45.29466 90.58937 45.4219 90.84386 45.50125 91.00252 45.58058 91.16118 45.70782 91.41568 45.78717 91.57434 45.8665 91.733 45.99374 91.98749 46.07307 92.14615 46.15239 92.30481 46.27965 92.55931 46.35898 92.71797 46.4383 92.87663 46.56554 93.13112 46.64488 93.28978 46.72421 93.44844 46.85146 93.70294 46.9308 93.8616 47.01013 94.02026 47.13737 94.27473 47.2167 94.43341 47.29602 94.59207 47.42328 94.84656 47.50261 95.00523 47.58192 95.1639 47.70917 95.41837 47.78851 95.57704 47.86784 95.7357 47.99509 95.99019 48.07443 96.14886 48.15376 96.30753 48.281 96.562 48.36032 96.72066 48.43965 96.87933 48.56691 97.13382 48.64622 97.29248 48.72556 97.45116 48.8528 97.70563 48.93213 97.86429 49.01147 98.02296 49.13872 98.27745 49.21805 98.43611 49.2974 98.59477 49.42464 98.84926 49.50395 99.00792 49.58328 99.16658 49.71053 99.42107 49.78986 99.57974 49.8692 99.73842 49.99644 99.9929 50.07578 100.15157 50.15512 100.31023 50.28236 100.56471 50.36168 100.72337 50.44101 100.88203 50.56827 101.13654 50.64758 101.2952 50.72691 101.45386 50.85416 101.70834 50.93349 101.867 51.01283 102.02567 51.14008 102.28017 51.2194 102.43883 51.29875 102.59749 51.426 102.85197 51.50531 103.01064 51.58464 103.1693 51.7119 103.4238 51.79121 103.58246 51.87054 103.74112 51.99779 103.9956 52.07712 104.15427 52.15646 104.31293 52.2837 104.56743 52.36304 104.72609 52.44238 104.88475 52.56963 105.13924 52.64894 105.2979 52.72827 105.45656 52.85553 105.71106 52.93484 105.86972 53.01418 106.02838 53.14142 106.28287 53.22075 106.44153 53.3001 106.60019 53.42734 106.85469 53.50667 107.01335 53.58601 107.17201 53.71324 107.42648 53.79257 107.58516 53.8719 107.74382 53.99915 107.9983 54.07848 108.15698 54.1578 108.31564 54.28503 108.57011 54.36438 108.72879 54.44373 108.88745 54.57095 109.14192 54.6503 109.3006 54.72964 109.45929 54.85687 109.71376 54.9362 109.87242 55.01553 110.0311 55.14276 110.28557 55.2221 110.44423 55.30145 110.6029 55.42868 110.85739 55.50803 111.01605 55.58736 111.17471 55.7146 111.4292 55.79393 111.58786 55.87325 111.74652 56.0005 112.00102 56.07983 112.15968 56.15915 112.31834 56.28639 112.57283 56.36574 112.73149 56.44507 112.89015 56.65166 113.30331 56.65166 113.30331"/>
<path transform="matrix(1.00005,0,0,-1.00003,29.443573,171.88269)" stroke-width=".79701" stroke-linecap="butt" stroke-miterlimit="10" stroke-linejoin="miter" fill="none" stroke="#000000" d="M56.69362 113.38724C56.69362 113.38724 57.10706 112.56032 57.26584 112.24274 57.42464 111.92516 57.6793 111.41582 57.83809 111.09824 57.99687 110.78065 58.25156 110.27133 58.41034 109.95375 58.56912 109.63615 58.8238 109.12683 58.98259 108.80925 59.14137 108.49167 59.39606 107.98233 59.55484 107.66475 59.71362 107.34717 59.9683 106.83784 60.12709 106.52025 60.28587 106.20267 60.54054 105.69334 60.69934 105.37576 60.85812 105.05818 61.1128 104.54884 61.27158 104.23126 61.43036 103.91368 61.68504 103.40436 61.84383 103.08676 62.00261 102.76918 62.2573 102.25986 62.41608 101.94228 62.57486 101.62468 62.82954 101.11536 62.98833 100.79778 63.14711 100.4802 63.4018 99.97086 63.56058 99.65327 63.71936 99.3357 63.97403 98.82637 64.13283 98.50879 64.29161 98.1912 64.54628 97.68187 64.70506 97.36429 64.86386 97.0467 65.11853 96.53737 65.27731 96.21979 65.4361 95.9022 65.69078 95.39288 65.84956 95.07529 66.00835 94.7577 66.26303 94.24838 66.42181 93.9308 66.5806 93.61322 66.83528 93.10388 66.99406 92.7863 67.15285 92.46872 67.40753 91.9594 67.56631 91.6418 67.7251 91.32422 67.97977 90.8149 68.13857 90.49731 68.29735 90.17972 68.55202 89.6704 68.7108 89.35281 68.8696 89.03523 69.12427 88.5259 69.28305 88.20831 69.44183 87.89073 69.69652 87.38141 69.8553 87.06383 70.01408 86.74623 70.26877 86.23691 70.42755 85.91933 70.58633 85.60175 70.84102 85.09242 70.9998 84.77484 71.15858 84.45726 71.41327 83.94794 71.57205 83.63034 71.73083 83.31276 71.9855 82.80344 72.1443 82.48586 72.30309 82.16827 72.55775 81.65894 72.71654 81.34135 72.87532 81.02377 73.13 80.51445 73.28879 80.19685 73.44757 79.87927 73.70226 79.36995 73.86104 79.05237 74.01982 78.73477 74.2745 78.22545 74.43329 77.90787 74.59207 77.59029 74.84676 77.08095 75.00554 76.76337 75.16432 76.44579 75.41899 75.93646 75.57779 75.61888 75.73657 75.30128 75.99124 74.79196 76.15002 74.47438 76.30882 74.1568 76.56349 73.64746 76.72227 73.32988 76.88106 73.0123 77.13574 72.50298 77.29453 72.18538 77.45331 71.8678 77.708 71.35847 77.86678 71.0409 78.02556 70.72331 78.28024 70.21397 78.43903 69.8964 78.59781 69.57881 78.8525 69.06949 79.01128 68.75189 79.17006 68.43431 79.42473 67.92499 79.58353 67.6074 79.74231 67.28981 79.99698 66.78049 80.15576 66.4629 80.31456 66.14532 80.56923 65.63599 80.72801 65.3184 80.8868 65.00082 81.14148 64.4915 81.30026 64.17392 81.45905 63.85632 81.71373 63.347 81.87251 63.02942 82.0313 62.71184 82.28598 62.2025 82.44476 61.88492 82.60355 61.56734 82.85823 61.05801 83.01701 60.74042 83.1758 60.42284 83.43047 59.91351 83.58925 59.59593 83.74805 59.27835 84.00272 58.76901 84.1615 58.45143 84.32028 58.13385 84.57497 57.62453 84.73375 57.30693 84.89253 56.98935 85.1472 56.48004 85.30598 56.16246 85.46477 55.84486 85.71945 55.33554 85.87823 55.01796 86.03702 54.70038 86.2917 54.19104 86.45049 53.87346 86.60927 53.55588 86.86394 53.04655 87.02274 52.72897 87.18152 52.41138 87.43619 51.90205 87.59497 51.58447 87.75377 51.26689 88.00844 50.75755 88.16722 50.43997 88.326 50.12239 88.58069 49.61307 88.73947 49.29547 88.89825 48.97789 89.15294 48.46857 89.31172 48.15099 89.4705 47.8334 89.72519 47.32407 89.88397 47.00648 90.04276 46.6889 90.29744 46.17958 90.45622 45.86198 90.615 45.5444 90.86967 45.03508 91.02847 44.7175 91.18726 44.3999 91.44193 43.89058 91.60071 43.573 91.7595 43.25542 92.01418 42.74608 92.17296 42.4285 92.33174 42.11092 92.58643 41.6016 92.74521 41.28401 92.90399 40.96642 93.15868 40.45709 93.31746 40.13951 93.47624 39.82193 93.73093 39.31259 93.88971 38.99501 94.0485 38.67743 94.30318 38.1681 94.46196 37.85051 94.62074 37.53293 94.87541 37.0236 95.0342 36.70602 95.193 36.38844 95.44766 35.8791 95.60645 35.56152 95.76523 35.24394 96.01991 34.73462 96.1787 34.41702 96.33748 34.09944 96.59216 33.59012 96.75095 33.27254 96.90973 32.95494 97.16441 32.44562 97.3232 32.12804 97.48198 31.81046 97.73666 31.30112 97.89545 30.98354 98.05423 30.66595 98.3089 30.15663 98.4677 29.83905 98.62648 29.52145 98.88115 29.01215 99.03993 28.69456 99.19873 28.37698 99.4534 27.86765 99.61218 27.55006 99.77097 27.23248 100.02565 26.72316 100.18443 26.40556 100.34322 26.08798 100.5979 25.57866 100.75668 25.26108 100.91547 24.9435 101.17015 24.43416 101.32893 24.11658 101.48772 23.799 101.7424 23.28967 101.90118 22.97208 102.05997 22.6545 102.31464 22.14517 102.47343 21.82759 102.63222 21.51 102.88689 21.00067 103.04567 20.68309 103.20447 20.36551 103.45914 19.85617 103.61792 19.53859 103.7767 19.22101 104.03139 18.71169 104.19017 18.3941 104.34895 18.0765 104.60364 17.56718 104.76242 17.2496 104.9212 16.93202 105.17589 16.42268 105.33467 16.1051 105.49345 15.78752 105.74814 15.2782 105.90692 14.9606 106.0657 14.64302 106.32037 14.1337 106.47916 13.81612 106.63795 13.49854 106.89262 12.9892 107.0514 12.67162 107.21019 12.35403 107.46487 11.84471 107.62366 11.52711 107.78244 11.20953 108.03712 10.70021 108.1959 10.38263 108.35469 10.06503 108.60938 9.55571 108.76816 9.23813 108.92694 8.92055 109.18163 8.41121 109.34041 8.09363 109.49919 7.77605 109.75386 7.26672 109.91266 6.94914 110.07144 6.63155 110.32611 6.12222 110.4849 5.80464 110.64369 5.48706 110.89836 4.97772 111.05714 4.66014 111.21593 4.34256 111.47061 3.83324 111.6294 3.51564 111.78818 3.19806 112.04286 2.68874 112.20164 2.37115 112.36043 2.05357 112.61511 1.54424 112.7739 1.22665 112.93268 .90907 113.34613 .08217 113.34613 .08217"/>
<path transform="matrix(1.00005,0,0,-1.00003,29.443573,171.88269)" stroke-width=".79701" stroke-linecap="butt" stroke-miterlimit="10" stroke-linejoin="miter" fill="none" stroke="#000000" d="M113.38724 0C113.38724 0 113.59381 .8242 113.67314 1.13843 113.75246 1.45265 113.87971 1.95389 113.95905 2.26476 114.03836 2.57562 114.1656 3.07121 114.24495 3.37897 114.32428 3.68672 114.45152 4.17819 114.53087 4.48282 114.6102 4.78743 114.73744 5.27327 114.81677 5.57452 114.89609 5.87578 115.02335 6.35602 115.10266 6.65416 115.18199 6.9523 115.30923 7.42836 115.38857 7.72339 115.46791 8.01842 115.59515 8.48883 115.67448 8.7805 115.75383 9.07217 115.88107 9.53699 115.96039 9.82552 116.03972 10.11404 116.16698 10.57474 116.24629 10.86015 116.32562 11.14557 116.45287 11.6006 116.5322 11.88266 116.61154 12.16472 116.73878 12.61414 116.81812 12.89308 116.89746 13.17203 117.0247 13.6173 117.10402 13.89311 117.18335 14.16891 117.31061 14.60858 117.38992 14.88103 117.46925 15.15347 117.5965 15.5875 117.67583 15.85683 117.75517 16.12616 117.88242 16.55605 117.96175 16.82227 118.04109 17.08847 118.16833 17.5127 118.24765 17.77556 118.32698 18.03842 118.45422 18.45703 118.53355 18.71678 118.6129 18.97652 118.74014 19.39098 118.81947 19.6476 118.89882 19.9042 119.02606 20.31306 119.10538 20.56631 119.18471 20.81956 119.31197 21.22276 119.39128 21.4729 119.47061 21.72302 119.59785 22.12212 119.67719 22.36913 119.75653 22.61615 119.88377 23.00958 119.9631 23.25323 120.04245 23.49687 120.1697 23.8847 120.24901 24.12523 120.32834 24.36575 120.45558 24.74944 120.53491 24.98685 120.61424 25.22426 120.74147 25.6023 120.82082 25.83635 120.90016 26.0704 121.02739 26.44281 121.10674 26.67374 121.18608 26.90465 121.31331 27.27295 121.39264 27.50075 121.47197 27.72855 121.59921 28.09122 121.67854 28.31566 121.75787 28.5401 121.8851 28.89711 121.96445 29.11844 122.0438 29.33977 122.17102 29.69264 122.25037 29.91086 122.32971 30.12907 122.45694 30.4763 122.53627 30.69115 122.61559 30.90598 122.74284 31.24762 122.82217 31.45934 122.90149 31.67105 123.02873 32.00854 123.10808 32.21715 123.18741 32.42575 123.31465 32.7576 123.394 32.96284 123.47333 33.16808 123.60057 33.4943 123.6799 33.69643 123.75922 33.89854 123.88646 34.22063 123.9658 34.41963 124.04514 34.61862 124.17238 34.93507 124.25172 35.13072 124.33105 35.32635 124.4583 35.6373 124.53763 35.8297 124.61694 36.0221 124.7442 36.32816 124.82353 36.51744 124.90285 36.70673 125.03009 37.00778 125.10944 37.19392 125.18877 37.38008 125.31601 37.67625 125.39536 37.85916 125.47469 38.04208 125.60193 38.33263 125.68126 38.5123 125.76057 38.69197 125.88783 38.97763 125.96716 39.15419 126.04648 39.33075 126.17372 39.61151 126.25307 39.78484 126.3324 39.95815 126.45964 40.23329 126.53899 40.40335 126.61832 40.57343 126.74556 40.84369 126.82489 41.01065 126.9042 41.1776 127.03146 41.44298 127.1108 41.60669 127.19011 41.77039 127.31735 42.03014 127.3967 42.19061 127.47603 42.35107 127.60327 42.60593 127.68262 42.76328 127.76195 42.92064 127.88919 43.17062 127.9685 43.32472 128.04784 43.47882 128.1751 43.72318 128.25441 43.87404 128.33374 44.0249 128.46099 44.26437 128.54032 44.41211 128.61966 44.55986 128.7469 44.79445 128.82624 44.93895 128.90558 45.08347 129.03282 45.31241 129.11214 45.45367 129.19147 45.59496 129.31871 45.81902 129.39804 45.95715 129.47739 46.09529 129.60463 46.31448 129.68396 46.44937 129.7633 46.58427 129.89055 46.79782 129.96987 46.92949 130.0492 47.06116 130.17646 47.26982 130.25577 47.39836 130.3351 47.52692 130.46234 47.7307 130.54167 47.85599 130.62102 47.98128 130.74826 48.17944 130.82759 48.3015 130.90694 48.42355 131.03418 48.61684 131.1135 48.73578 131.19283 48.8547 131.32009 49.04309 131.3994 49.1588 131.47873 49.2745 131.60597 49.45724 131.6853 49.5697 131.76465 49.68217 131.89189 49.86003 131.97122 49.96936 132.05057 50.0787 132.17781 50.2517 132.25713 50.35779 132.33646 50.46388 132.46372 50.63124 132.54303 50.7341 132.62236 50.83696 132.7496 50.99954 132.82894 51.09917 132.90828 51.19878 133.03553 51.3556 133.11486 51.4521 133.1942 51.54861 133.32144 51.70131 133.40076 51.79468 133.48009 51.88805 133.60733 52.03513 133.68666 52.12514 133.76599 52.21515 133.89322 52.3566 133.97257 52.44348 134.05191 52.53038 134.17914 52.66768 134.25849 52.75145 134.33783 52.83524 134.46506 52.96689 134.54439 53.04732 134.62372 53.12773 134.75095 53.25377 134.83029 53.33105 134.90964 53.40834 135.03687 53.53024 135.11621 53.60442 135.19556 53.67859 135.32279 53.79486 135.40212 53.86566 135.48143 53.93648 135.60869 54.04724 135.68802 54.1148 135.76734 54.18239 135.89458 54.28827 135.97393 54.3527 136.05326 54.41714 136.1805 54.51802 136.25984 54.57935 136.33917 54.64067 136.46642 54.73668 136.54575 54.79477 136.62506 54.85284 136.75232 54.9432 136.83165 54.99806 136.91097 55.0529 137.03821 55.13838 137.11756 55.19011 137.19689 55.24182 137.32413 55.32242 137.40348 55.37091 137.4828 55.41939 137.61005 55.49435 137.68938 55.5396 137.76869 55.58484 137.89595 55.6549 137.97528 55.69704 138.0546 55.73915 138.18184 55.80434 138.26119 55.84323 138.34052 55.88211 138.46776 55.9417 138.5471 55.97733 138.62644 56.01295 138.75368 56.06764 138.83301 56.10016 138.91233 56.13268 139.03958 56.18248 139.11891 56.21176 139.19823 56.24103 139.32547 56.2852 139.40482 56.31123 139.48415 56.33728 139.61139 56.37656 139.69074 56.39949 139.77007 56.42241 139.89731 56.4568 139.97664 56.47647 140.05596 56.49614 140.1832 56.52492 140.26255 56.54135 140.34188 56.55779 140.46912 56.58179 140.54846 56.59499 140.62779 56.60817 140.75504 56.62643 140.83435 56.63652 140.91368 56.64659 141.04094 56.6607 141.12026 56.66765 141.19959 56.67459 141.32683 56.68309 141.40616 56.68668 141.4855 56.69026 141.69208 56.69362 141.69208 56.69362"/>
<path transform="matrix(1.00005,0,0,-1.00003,29.443573,171.88269)" d="M1.99255 28.3468C1.99255 29.44728 1.10046 30.33936 0 30.33936-1.10046 30.33936-1.99255 29.44728-1.99255 28.3468-1.99255 27.24634-1.10046 26.35425 0 26.35425 1.10046 26.35425 1.99255 27.24634 1.99255 28.3468ZM0 28.3468"/>
<path transform="matrix(1.00005,0,0,-1.00003,29.443573,171.88269)" stroke-width="1.19553" stroke-linecap="butt" stroke-miterlimit="10" stroke-linejoin="miter" fill="none" stroke="#000000" d="M1.99255 28.3468C1.99255 29.44728 1.10046 30.33936 0 30.33936-1.10046 30.33936-1.99255 29.44728-1.99255 28.3468-1.99255 27.24634-1.10046 26.35425 0 26.35425 1.10046 26.35425 1.99255 27.24634 1.99255 28.3468ZM0 28.3468"/>
<path transform="matrix(1.00005,0,0,-1.00003,29.443573,171.88269)" d="M143.7266 56.69362C143.7266 57.79408 142.83452 58.68617 141.73404 58.68617 140.63358 58.68617 139.74149 57.79408 139.74149 56.69362 139.74149 55.59314 140.63358 54.70107 141.73404 54.70107 142.83452 54.70107 143.7266 55.59314 143.7266 56.69362ZM141.73404 56.69362"/>
<path transform="matrix(1.00005,0,0,-1.00003,29.443573,171.88269)" stroke-width="1.19553" stroke-linecap="butt" stroke-miterlimit="10" stroke-linejoin="miter" fill="none" stroke="#000000" d="M143.7266 56.69362C143.7266 57.79408 142.83452 58.68617 141.73404 58.68617 140.63358 58.68617 139.74149 57.79408 139.74149 56.69362 139.74149 55.59314 140.63358 54.70107 141.73404 54.70107 142.83452 54.70107 143.7266 55.59314 143.7266 56.69362ZM141.73404 56.69362"/>
<use data-text="f" xlink:href="#font_2_1" transform="matrix(9.963098,0,0,-9.962899,175.66188,18.461075)"/>
<use data-text="(" xlink:href="#font_3_1" transform="matrix(9.963098,0,0,-9.962899,181.61219,18.461075)"/>
<use data-text="x" xlink:href="#font_2_2" transform="matrix(9.963098,0,0,-9.962899,185.48737,18.461075)"/>
<use data-text=")" xlink:href="#font_3_2" transform="matrix(9.963098,0,0,-9.962899,191.18164,18.461075)"/>
</svg>
