<svg xmlns="http://www.w3.org/2000/svg" xmlns:xlink="http://www.w3.org/1999/xlink" xmlns:inkscape="http://www.inkscape.org/namespaces/inkscape" version="1.1" width="339" height="156" viewBox="0 0 339 156">
<defs>
<path id="font_1_2" d="M.33399964 .30233766C.33999635 .32835389 .36299134 .42037965 .43299867 .42037965 .43798829 .42037965 .46199037 .42037965 .48298646 .40734864 .45498658 .402359 .43499757 .37734986 .43499757 .35334779 .43499757 .33735658 .44599916 .31835938 .47299195 .31835938 .49499513 .31835938 .5269928 .3363495 .5269928 .37635804 .5269928 .42837525 .46798707 .4423828 .43399049 .4423828 .37599183 .4423828 .34098817 .38935853 .32899476 .36634828 .3039856 .43237306 .25 .4423828 .22099304 .4423828 .116989139 .4423828 .05999756 .3133545 .05999756 .28834535 .05999756 .27833558 .069992069 .27833558 .07199097 .27833558 .07998657 .27833558 .08299255 .28033448 .084991458 .28933717 .11898804 .39535523 .18499756 .42037965 .21899414 .42037965 .23799134 .42037965 .272995 .4113617 .272995 .35334779 .272995 .32235719 .2559967 .25532533 .21899414 .11528015 .20298767 .053268434 .16799927 .011245728 .12399292 .011245728 .117996219 .011245728 .09498596 .011245728 .07398987 .024276734 .09899902 .029266358 .12098694 .05027771 .12098694 .07827759 .12098694 .105270389 .09899902 .11328125 .083999637 .11328125 .053985597 .11328125 .0289917 .08728027 .0289917 .055267335 .0289917 .009246826 .07899475-.0107421879 .12298584-.0107421879 .18899536-.0107421879 .22499085 .059280397 .22799683 .0652771 .23999024 .028274537 .27598573-.0107421879 .33599855-.0107421879 .43899537-.0107421879 .49598695 .118270877 .49598695 .14328003 .49598695 .1532898 .4869995 .1532898 .48399354 .1532898 .47499085 .1532898 .47299195 .14929199 .47099305 .14228821 .43798829 .03527832 .36999513 .011245728 .33799745 .011245728 .29899598 .011245728 .2829895 .043273927 .2829895 .07727051 .2829895 .09927368 .2889862 .121276859 .2999878 .16529846L.33399964 .30233766Z"/>
<path id="font_2_1" d="M.9079895 .23046875C.9259949 .23046875 .94400027 .23046875 .94400027 .25045777 .94400027 .27046205 .9259949 .27046205 .9079895 .27046205H.16499329C.21998596 .31245423 .24699402 .3534546 .25498963 .36645509 .2999878 .43545533 .30799867 .49845887 .30799867 .49946595 .30799867 .51145938 .29599 .51145938 .28799439 .51145938 .2709961 .51145938 .269989 .50946047 .2659912 .49145509 .24299622 .39346314 .18399048 .31045533 .070999149 .26345826 .05999756 .25946046 .055999757 .25746156 .055999757 .25045777 .055999757 .24345398 .06098938 .24145508 .070999149 .23745728 .1749878 .19445801 .24198914 .11645508 .2669983 .0044555666 .269989-.007537842 .2709961-.010543823 .28799439-.010543823 .29599-.010543823 .30799867-.010543823 .30799867 .0014648438 .30799867 .0034637452 .29899598 .066467288 .25698854 .13345337 .23699951 .1634674 .20799256 .19845581 .16499329 .23046875H.9079895Z"/>
<path id="font_2_2" d="M.83399966 .23046875C.7789917 .1884613 .7519989 .14746094 .74398806 .13446045 .69898989 .065460208 .69099429 .002456665 .69099429 .0014648438 .69099429-.010543823 .7029877-.010543823 .71099856-.010543823 .7279968-.010543823 .72898867-.008544922 .73298647 .009460449 .7559967 .10746765 .8149872 .19146729 .9279938 .23745728 .9399872 .24145508 .94299319 .24345398 .94299319 .25045777 .94299319 .25746156 .93699648 .26046754 .93499758 .26145936 .8909912 .27845765 .769989 .3284607 .7319946 .49645997 .72898867 .5084686 .7279968 .51145938 .71099856 .51145938 .7029877 .51145938 .69099429 .51145938 .69099429 .49946595 .69099429 .49746705 .69999697 .4344635 .74198916 .36746217 .7619934 .33746339 .79100039 .30245973 .83399966 .27046205H.09098816C.07299805 .27046205 .054992677 .27046205 .054992677 .25045777 .054992677 .23046875 .07299805 .23046875 .09098816 .23046875H.83399966Z"/>
<path id="font_1_1" d="M.36698915 .3996582H.45298768C.47299195 .3996582 .48298646 .3996582 .48298646 .41966249 .48298646 .43066407 .47299195 .43066407 .45599366 .43066407H.37298585L.3939972 .5449524C.397995 .5660095 .4119873 .6370239 .41799928 .6490326 .4269867 .66804507 .44400025 .68307498 .46499635 .68307498 .46899415 .68307498 .49499513 .68307498 .5139923 .66503909 .46998597 .661026 .45999146 .6260376 .45999146 .6110382 .45999146 .58802798 .47799684 .57603457 .49699403 .57603457 .522995 .57603457 .5519867 .5980377 .5519867 .6360321 .5519867 .6820679 .5059967 .7050781 .46499635 .7050781 .43099977 .7050781 .36799623 .68707278 .33799745 .58802798 .33198548 .56700137 .32899476 .5569763 .30499269 .43066407H.23599243C.21699524 .43066407 .20599365 .43066407 .20599365 .4116516 .20599365 .3996582 .21499634 .3996582 .23399353 .3996582H.2999878L.22499085 .0048828127C.20698548-.09207153 .18998719-.18309021 .13798523-.18309021 .13398743-.18309021 .10899353-.18309021 .08999634-.16506958 .13598633-.1620636 .14498902-.12606812 .14498902-.111068729 .14498902-.08807373 .1269989-.07606506 .10798645-.07606506 .08198547-.07606506 .052993776-.09806824 .052993776-.13606262 .052993776-.18109131 .09700012-.20507813 .13798523-.20507813 .19299317-.20507813 .23298645-.14607239 .25099183-.108062747 .2829895-.04508972 .30599977 .07583618 .30699159 .082839969L.36698915 .3996582Z"/>
<path id="font_3_1" d="M.33099366-.2400055C.33099366-.23701477 .33099366-.23500061 .31399537-.21800232 .18899536-.0920105 .15699768 .09700012 .15699768 .25 .15699768 .42399598 .19499207 .59799197 .31799317 .72299197 .33099366 .73498538 .33099366 .7369995 .33099366 .73999026 .33099366 .746994 .32699586 .75 .32099916 .75 .31098939 .75 .22099304 .6819916 .1619873 .5549927 .11099243 .44499208 .09899902 .33399964 .09899902 .25 .09899902 .17199707 .10998535 .050994874 .16499329-.06201172 .22499085-.18501282 .31098939-.25 .32099916-.25 .32699586-.25 .33099366-.24700928 .33099366-.2400055Z"/>
<path id="font_3_2" d="M.2889862 .25C.2889862 .32798768 .27799989 .44898988 .22299195 .56199648 .16299439 .68499758 .07699585 .75 .066986087 .75 .06098938 .75 .056991579 .74598696 .056991579 .73999026 .056991579 .7369995 .056991579 .73498538 .07598877 .71699526 .17399597 .6179962 .23098755 .45899964 .23098755 .25 .23098755 .07899475 .19400025-.09700012 .069992069-.2230072 .056991579-.23500061 .056991579-.23701477 .056991579-.2400055 .056991579-.2460022 .06098938-.25 .066986087-.25 .07699585-.25 .16699219-.18200684 .22599793-.055007936 .2769928 .054992677 .2889862 .16600037 .2889862 .25Z"/>
<path id="font_2_3" d="M.42199708 .4302826C.46099855 .39427186 .47499085 .38526917 .4909973 .37426759 .5239868 .35125733 .56199648 .33026124 .56799319 .33026124 .57899478 .33026124 .57899478 .34126283 .57899478 .3502655 .57899478 .3642578 .57899478 .3662567 .5669861 .37226869 .40699769 .45428468 .34599305 .5793152 .31498719 .68533328 .31399537 .69132998 .30899049 .69332888 .30499269 .69332888 .29699708 .69332888 .29499818 .6863251 .2939911 .6823273 .25898744 .56230166 .19099427 .44828797 .038986207 .37026979 .0309906 .3662567 .0309906 .3612671 .0309906 .3502655 .0309906 .34126283 .0309906 .33026124 .041992189 .33026124 .04798889 .33026124 .08799744 .3522644 .11898804 .3732605 .13999939 .3882599 .1539917 .39927674 .18798828 .4302826V-.15785218C.18798828-.17585755 .18798828-.19386292 .20799256-.19386292 .22799683-.19386292 .22799683-.17585755 .22799683-.15785218V.47628785C.2669983 .5222931 .2939911 .5773163 .30499269 .6023102 .31698609 .5753021 .34399415 .52130129 .38198854 .47628785V-.15785218C.38198854-.17486573 .38198854-.19386292 .4019928-.19386292 .42199708-.19386292 .42199708-.17585755 .42199708-.15785218V.4302826Z"/>
<path id="font_2_4" d="M.42199708 .6583252C.42199708 .67633059 .42199708 .69433596 .4019928 .69433596 .38198854 .69433596 .38198854 .6753235 .38198854 .6583252V.023971558C.34298707-.022064209 .31599427-.0770874 .30499269-.10211182 .29299928-.0750885 .2659912-.021057129 .22799683 .023971558V.6583252C.22799683 .67633059 .22799683 .69433596 .20799256 .69433596 .18798828 .69433596 .18798828 .67633059 .18798828 .6583252V.069992069C.14898682 .10601807 .1349945 .11502075 .11898804 .12602234 .085998538 .1490326 .04798889 .17004395 .041992189 .17004395 .0309906 .17004395 .0309906 .15904236 .0309906 .15003968 .0309906 .1360321 .0309906 .1340332 .042999269 .12802124 .19799805 .047973634 .2630005-.0730896 .29499818-.18513489 .29599-.19114685 .30099488-.19314575 .30499269-.19314575 .31298829-.19314575 .31498719-.18614197 .31599427-.18214417 .35398866-.051071168 .42799378 .055984498 .57099917 .13002014 .57899478 .1340332 .57899478 .13902283 .57899478 .15003968 .57899478 .15904236 .57899478 .17004395 .56799319 .17004395 .56199648 .17004395 .5219879 .14804077 .4909973 .12702942 .46998597 .11201477 .45599366 .10101318 .42199708 .069992069V.6583252Z"/>
</defs>
<path transform="matrix(1.00002,0,0,-1.00006,24.13018,144.95774)" stroke-width=".3985" stroke-linecap="butt" stroke-miterlimit="10" stroke-linejoin="miter" fill="none" stroke="#000000" d="M0 2.16911V139.56491"/>
<path transform="matrix(0,1.00006,1.00002,0,24.13018,142.7885)" d="M3.58653 0C2.52383 .19925 .797 .797-.3985 1.49438V-1.49438C.797-.797 2.52383-.19925 3.58653 0"/>
<path transform="matrix(0,-1.00006,-1.00002,-0,24.13018,5.3844606)" d="M3.58653 0C2.52383 .19925 .797 .797-.3985 1.49438V-1.49438C.797-.797 2.52383-.19925 3.58653 0"/>
<path transform="matrix(1.00002,0,0,-1.00006,24.13018,144.95774)" stroke-width=".3985" stroke-linecap="butt" stroke-miterlimit="10" stroke-linejoin="miter" fill="none" stroke="#000000" d="M2.16911 0H309.64579"/>
<path transform="matrix(-1.00002,-0,0,1.00006,26.299334,144.95774)" d="M3.58653 0C2.52383 .19925 .797 .797-.3985 1.49438V-1.49438C.797-.797 2.52383-.19925 3.58653 0"/>
<path transform="matrix(1.00002,0,0,-1.00006,333.78218,144.95774)" d="M3.58653 0C2.52383 .19925 .797 .797-.3985 1.49438V-1.49438C.797-.797 2.52383-.19925 3.58653 0"/>
<path transform="matrix(1.00002,0,0,-1.00006,24.13018,144.95774)" stroke-width=".3985" stroke-linecap="butt" stroke-dasharray=".3985,1.99255" stroke-miterlimit="10" stroke-linejoin="miter" fill="none" stroke="#000000" d="M-1.4174 0H313.23234M-1.4174 14.17339H313.23234M-1.4174 28.3468H313.23234M-1.4174 42.5202H313.23234M-1.4174 56.69362H313.23234M-1.4174 70.867H313.23234M-1.4174 85.04042H313.23234M-1.4174 99.21382H313.23234M-1.4174 113.38724H313.23234M-1.4174 127.56062H313.23234M-1.4174 141.73404H313.23234M0-1.4174V143.15146M14.17339-1.4174V143.15146M28.3468-1.4174V143.15146M42.5202-1.4174V143.15146M56.69362-1.4174V143.15146M70.867-1.4174V143.15146M85.04042-1.4174V143.15146M99.21382-1.4174V143.15146M113.38724-1.4174V143.15146M127.56062-1.4174V143.15146M141.73404-1.4174V143.15146M155.90744-1.4174V143.15146M170.08086-1.4174V143.15146M184.25424-1.4174V143.15146M198.42766-1.4174V143.15146M212.60106-1.4174V143.15146M226.77448-1.4174V143.15146M240.94788-1.4174V143.15146M255.12128-1.4174V143.15146M269.29469-1.4174V143.15146M283.4681-1.4174V143.15146M297.6415-1.4174V143.15146M311.8149-1.4174V143.15146M313.23234 143.15146"/>
<path transform="matrix(1.00002,0,0,-1.00006,24.13018,144.95774)" stroke-width=".79701" stroke-linecap="butt" stroke-miterlimit="10" stroke-linejoin="miter" fill="none" stroke="#000000" d="M-1.4174 16.65572C-1.4174 16.65572 8.05475 35.7274 11.6928 40.26451 15.33083 44.80162 21.16498 48.07144 24.80301 49.35603 28.44106 50.64063 34.27519 50.09502 37.91324 49.523 41.55127 48.95097 47.38542 46.70174 51.02345 45.23329 54.6615 43.76485 60.49565 40.67368 64.13368 38.93944 67.77173 37.20518 73.60588 34.12032 77.24393 32.73404 80.88196 31.34775 86.71611 29.6313 90.35414 28.94803 93.99219 28.26474 99.82634 27.61407 103.46437 27.80937 107.10242 28.00465 112.93655 29.27484 116.5746 30.3555 120.21263 31.43616 126.04678 33.81946 129.68482 35.59808 133.32286 37.37671 139.15702 40.9152 142.79505 43.17464 146.43309 45.43405 152.26723 49.42686 155.90528 51.88249 159.5433 54.33809 165.37747 58.55936 169.0155 60.873 172.65355 63.18665 178.4877 66.6774 182.12574 68.5577 185.76378 70.43797 191.59792 73.25403 195.23596 74.42485 198.874 75.59569 204.70815 76.7197 208.34618 76.99629 211.98423 77.27289 217.81838 77.11342 221.4564 76.41843 225.09445 75.72343 230.92859 73.59789 234.56664 71.98729 238.20467 70.3767 244.03882 67.07202 247.67687 64.8104 251.31491 62.54878 257.14906 58.15915 260.7871 55.68709 264.42515 53.21504 270.25929 48.94582 273.8973 46.9935 277.53535 45.0412 283.3695 42.07025 287.00755 41.6162 290.64558 41.16212 296.4797 41.36554 300.11778 43.72093 303.7558 46.07631 313.228 58.59224 313.228 58.59224"/>
<path transform="matrix(1.00002,0,0,-1.00006,24.13018,144.95774)" stroke-width=".3985" stroke-linecap="butt" stroke-dasharray="2.98883,2.98883" stroke-miterlimit="10" stroke-linejoin="miter" fill="none" stroke="#ff0000" d="M177.16754 0V65.95836H0"/>
<use data-text="x" xlink:href="#font_1_2" transform="matrix(9.962799,0,0,-9.963197,198.45468,152.7672)" fill="#ff0000"/>
<use data-text="&#x2190;" xlink:href="#font_2_1" transform="matrix(9.962799,0,0,-9.963197,182.14633,153.87227)" fill="#ff0000"/>
<use data-text="&#x2192;" xlink:href="#font_2_2" transform="matrix(9.962799,0,0,-9.963197,210.49393,153.87227)" fill="#ff0000"/>
<use data-text="f" xlink:href="#font_1_1" transform="matrix(9.962799,0,0,-9.963197,1.2167206,81.48593)" fill="#ff0000"/>
<use data-text="(" xlink:href="#font_3_1" transform="matrix(9.962799,0,0,-9.963197,7.1668398,81.48593)" fill="#ff0000"/>
<use data-text="x" xlink:href="#font_1_2" transform="matrix(9.962799,0,0,-9.963197,11.040916,81.48593)" fill="#ff0000"/>
<use data-text=")" xlink:href="#font_3_2" transform="matrix(9.962799,0,0,-9.963197,16.735032,81.48593)" fill="#ff0000"/>
<use data-text="&#x21d1;" xlink:href="#font_2_3" transform="matrix(9.962799,0,0,-9.963197,6.9118349,67.31208)" fill="#ff0000"/>
<use data-text="&#x21d3;" xlink:href="#font_2_4" transform="matrix(9.962799,0,0,-9.963197,6.9118349,95.66078)" fill="#ff0000"/>
<path transform="matrix(1.00002,0,0,-1.00006,24.13018,144.95774)" d="M178.66196 65.95836C178.66196 66.78369 177.99289 67.45277 177.16754 67.45277 176.3422 67.45277 175.67313 66.78369 175.67313 65.95836 175.67313 65.13301 176.3422 64.46394 177.16754 64.46394 177.99289 64.46394 178.66196 65.13301 178.66196 65.95836ZM177.16754 65.95836" fill="#ff0000"/>
<path transform="matrix(1.00002,0,0,-1.00006,24.13018,144.95774)" stroke-width=".3985" stroke-linecap="butt" stroke-miterlimit="10" stroke-linejoin="miter" fill="none" stroke="#ff0000" d="M178.66196 65.95836C178.66196 66.78369 177.99289 67.45277 177.16754 67.45277 176.3422 67.45277 175.67313 66.78369 175.67313 65.95836 175.67313 65.13301 176.3422 64.46394 177.16754 64.46394 177.99289 64.46394 178.66196 65.13301 178.66196 65.95836ZM177.16754 65.95836"/>
</svg>
