<svg xmlns="http://www.w3.org/2000/svg" xmlns:xlink="http://www.w3.org/1999/xlink" xmlns:inkscape="http://www.inkscape.org/namespaces/inkscape" version="1.1" width="173" height="315" viewBox="0 0 173 315">
<defs>
<path id="font_1_82" d="M.43199159 0V.0309906H.3999939C.30699159 .0309906 .3039856 .042999269 .3039856 .08001709V.63912966C.3039856 .6640167 .30299378 .6660156 .27799989 .6660156 .21598816 .60227969 .12399292 .60227969 .09298706 .60227969V.57128909C.11199951 .57128909 .17298889 .57128909 .22698975 .5972748V.08001709C.22698975 .042999269 .22399903 .0309906 .1309967 .0309906H.09899902V0C.1349945 .0029907227 .22399903 .0029907227 .2649994 .0029907227 .30599977 .0029907227 .3959961 .0029907227 .43199159 0Z"/>
<path id="font_1_107" d="M.46199037 .17704773H.43399049C.43199159 .16404724 .42399598 .10501099 .41099549 .08900452 .40499879 .07998657 .33599855 .07998657 .31599427 .07998657H.13798523L.23699951 .17404175C.40098573 .3161316 .46199037 .36915589 .46199037 .4711914 .46199037 .5860901 .36698915 .6660156 .24398804 .6660156 .1289978 .6660156 .050994874 .575119 .050994874 .4841919 .050994874 .43418885 .09399414 .42919923 .102996829 .42919923 .125 .42919923 .15499878 .44519044 .15499878 .48120118 .15499878 .51119998 .13398743 .5332031 .102996829 .5332031 .09799194 .5332031 .09498596 .5332031 .09098816 .53219607 .114990238 .6030731 .1789856 .63500979 .23298645 .63500979 .33499146 .63500979 .36999513 .5401764 .36999513 .4711914 .36999513 .36915589 .29299928 .28611756 .24499512 .23408509L.06199646 .035995485C.050994874 .024993897 .050994874 .022994996 .050994874 0H.43399049L.46199037 .17704773Z"/>
<path id="font_1_106" d="M.46998597 .17008972C.46998597 .25709535 .40098573 .33110047 .30499269 .35209657 .397995 .38710023 .44198609 .46009828 .44198609 .5290985 .44198609 .60606387 .35699464 .6660156 .25299073 .6660156 .14898682 .6660156 .070999149 .60705569 .070999149 .5310974 .070999149 .49809266 .09298706 .47909547 .12199402 .47909547 .15098572 .47909547 .17199707 .50009158 .17199707 .5290985 .17199707 .5640869 .147995 .57910159 .11399841 .57910159 .13999939 .6210327 .20098877 .64100649 .25 .64100649 .33299256 .64100649 .34899903 .5750885 .34899903 .52809146 .34899903 .49809266 .34298707 .45005799 .31799317 .41201783 .2869873 .36695863 .2519989 .36495973 .22299195 .36296083 .19799805 .36094667 .19599915 .36094667 .18798828 .36094667 .1789856 .35995484 .17098999 .35894776 .17098999 .34794618 .17098999 .33496095 .1789856 .33496095 .19599915 .33496095H.24299622C.32998658 .33496095 .36799623 .2646637 .36799623 .16937256 .36799623 .04145813 .2999878 .0055389406 .24899292 .0055389406 .22999573 .0055389406 .1329956 .010528564 .08799744 .0843811 .12399292 .07939148 .1519928 .10437012 .1519928 .13838196 .1519928 .17137146 .1269989 .19238281 .09799194 .19238281 .07299805 .19238281 .042999269 .17736817 .042999269 .13537598 .042999269 .046447755 .13598633-.022460938 .2519989-.022460938 .3769989-.022460938 .46998597 .06741333 .46998597 .16937256V.17008972Z"/>
<path id="font_1_57" d="M.48399354 .16503906V.19602967H.38198854V.649765C.38198854 .669754 .38198854 .6767578 .36299134 .6767578 .35099793 .6767578 .34999085 .67575076 .34098817 .6617584L.0289917 .19602967V.16503906H.3019867V.07901001C.3019867 .041992189 .29899598 .0309906 .22399903 .0309906H.20199585V0C.2649994 .0029907227 .33499146 .0029907227 .34199525 .0029907227 .34700013 .0029907227 .4189911 .0029907227 .48199464 0V.0309906H.45999146C.3849945 .0309906 .38198854 .041992189 .38198854 .07901001V.16503906H.48399354M.30799867 .19602967H.06098938L.30799867 .56581118V.19602967Z"/>
<path id="font_1_56" d="M.46199037 .19992066C.46199037 .3209076 .37599183 .41992188 .2669983 .41992188 .21899414 .41992188 .16999817 .4039154 .1349945 .36791993V.5647888C.16499329 .55578616 .19599915 .55078127 .22698975 .55078127 .34999085 .55078127 .42199708 .63983157 .42199708 .6529236 .42199708 .6619873 .41600038 .6660156 .41099549 .6660156 .41099549 .6660156 .40699769 .6660156 .397995 .6609802 .35099793 .6418457 .30499269 .63378909 .2630005 .63378909 .21998596 .63378909 .1749878 .6418457 .1289978 .6609802 .11898804 .6660156 .115997318 .6660156 .115997318 .6660156 .10398865 .6660156 .10398865 .6559448 .10398865 .63882449V.34490968C.10398865 .32699586 .10398865 .31599427 .117996219 .31599427 .12599182 .31562806 .1289978 .3196411 .1349945 .32867433 .16499329 .37083436 .21299744 .39491273 .2649994 .39491273 .37199403 .39491273 .37199403 .24035645 .37199403 .20422364 .37199403 .17321778 .37199403 .11122131 .34399415 .06636047 .31698609 .024475098 .2749939 .0055389406 .23599243 .0055389406 .1769867 .0055389406 .10998535 .042419435 .085998538 .11621094 .085998538 .116882327 .09298706 .11488342 .099990848 .11488342 .11999512 .11488342 .14898682 .12788391 .14898682 .1638794 .14898682 .19488526 .1269989 .21289063 .099990848 .21289063 .07899475 .21289063 .050994874 .20088196 .050994874 .16088867 .050994874 .069732669 .1269989-.022460938 .23799134-.022460938 .35899354-.02279663 .46199037 .07521057 .46199037 .19921875V.19992066Z"/>
<path id="font_1_101" d="M.46998597 .20277405C.46998597 .32977296 .37799073 .42578126 .2649994 .42578126 .20498657 .42578126 .1619873 .3907776 .13398743 .33078004 .13398743 .43276979 .14498902 .4897766 .17199707 .54177859 .19198609 .58277896 .24099732 .64100649 .31498719 .64100649 .33499146 .64100649 .3809967 .63697817 .4039917 .6007843 .36698915 .6007843 .35099793 .5817871 .35099793 .55477908 .35099793 .5287781 .36898805 .50878909 .39698792 .50878909 .4249878 .50878909 .44400025 .5267792 .44400025 .55677798 .44400025 .61299136 .4039917 .6660156 .31298829 .6660156 .18399048 .6660156 .042999269 .5389252 .042999269 .31576539 .042999269 .044555665 .16499329-.022460938 .25898744-.022460938 .36999513-.022460938 .46998597 .07052612 .46998597 .2025299V.20277405M.3789978 .20353699C.3789978 .15553284 .3789978 .106536868 .3600006 .0695343 .32899476 .012527466 .2849884 .0055389406 .2579956 .0055389406 .20098877 .0055389406 .16799927 .05253601 .1559906 .08152771 .13699341 .12652588 .13598633 .20953369 .13598633 .2255249 .13598633 .2927704 .16699219 .4007721 .2630005 .4007721 .2789917 .4007721 .32798768 .4007721 .3600006 .33877564 .3789978 .300766 .3789978 .25177003 .3789978 .20376587V.20353699Z"/>
<path id="font_1_100" d="M.49899293 .6435547H.25C.12399292 .6435547 .12098694 .6566467 .117996219 .67578127H.08999634L.056991579 .46655274H.084991458C.08898926 .48954774 .09700012 .5455475 .10998535 .55755618 .116989139 .56355288 .19599915 .56355288 .20999146 .56355288H.41999818L.32398988 .4325409C.19400025 .25354005 .18199158 .090530399 .18199158 .03353882 .18199158 .022537232 .18199158-.022460938 .22799683-.022460938 .2749939-.022460938 .2749939 .021530152 .2749939 .03453064V.08354187C.2749939 .23054505 .29699708 .34654237 .34999085 .41854859L.48999024 .60954287C.49899293 .62054446 .49899293 .62254336 .49899293 .6435547Z"/>
<path id="font_1_51" d="M.46998597 .16764832C.46998597 .26472474 .3959961 .3127594 .37098695 .32876588 .3600006 .33677674 .33099366 .35479737 .31900025 .36180116 .36898805 .38581849 .44198609 .43585206 .44198609 .51690676 .44198609 .6109772 .34799195 .6660156 .2579956 .6660156 .15299988 .6660156 .070999149 .5909729 .070999149 .49890138 .070999149 .46087647 .084991458 .42485047 .10899353 .39582826 .12599182 .3768158 .13198853 .37280274 .18998719 .3357849 .101989749 .29374696 .042999269 .23269654 .042999269 .15063477 .042999269 .044555665 .147995-.022460938 .2559967-.022460938 .37199403-.022460938 .46998597 .059570314 .46998597 .16764832M.3939972 .51690676C.3939972 .44685365 .33399964 .40083314 .2939911 .37780763L.17199707 .45387269C.14199829 .47288514 .11898804 .4998932 .11898804 .53692629 .11898804 .6019745 .18899536 .64100649 .25498963 .64100649 .33198548 .64100649 .3939972 .58695986 .3939972 .51690676M.41600038 .1326294C.41600038 .05357361 .33599855 .0055389406 .25698854 .0055389406 .16999817 .0055389406 .09700012 .06758118 .09700012 .15063477 .09700012 .22268677 .14698792 .28274537 .21699524 .31877137L.34298707 .2407074C.3659973 .22569275 .41600038 .19366455 .41600038 .1326294Z"/>
<path id="font_1_78" d="M.46998597 .3287964C.46998597 .5999756 .34999085 .6660156 .2599945 .6660156 .14498902 .6660156 .042999269 .5729675 .042999269 .44187928 .042999269 .31478883 .1349945 .21875 .24798584 .21875 .32099916 .21875 .36099244 .27175904 .3789978 .31478883V.2927704C.3789978 .04875183 .2679901 .0055389406 .21099854 .0055389406 .18798828 .0055389406 .13699341 .009552002 .11099243 .042755128H.114990238C.12298584 .040740968 .1619873 .04875183 .1619873 .088760379 .1619873 .11476135 .14399719 .13476563 .115997318 .13476563 .08799744 .13476563 .068984989 .116760257 .068984989 .086761478 .068984989 .020629883 .12199402-.022460938 .21199036-.022460938 .34098817-.022460938 .46998597 .10975647 .46998597 .32888795V.3287964M.3769989 .42089845C.3769989 .34788514 .34399415 .2437439 .25 .2437439 .23399353 .2437439 .18499756 .2437439 .15299988 .30584718 .13398743 .34388734 .13398743 .3928833 .13398743 .4409027 .13398743 .48892213 .13398743 .5389557 .15499878 .5769806 .18499756 .628006 .22399903 .64100649 .2599945 .64100649 .32798768 .64100649 .35499574 .5719757 .35899354 .56196597 .37298585 .5249481 .3769989 .46391297 .3769989 .42089845Z"/>
<path id="font_1_121" d="M.47299195 .31976319C.47299195 .38682557 .46998597 .47288514 .43499757 .5479431 .3909912 .64201357 .31498719 .6660156 .25698854 .6660156 .19699097 .6660156 .12098694 .64201357 .07699585 .5459442 .04499817 .47688294 .039993287 .39582826 .039993287 .31976319 .039993287 .25471498 .041992189 .15765381 .084991458 .07858276 .13198853-.0064697267 .20999146-.022460938 .2559967-.022460938 .32099916-.022460938 .394989 .0055389406 .43699647 .097595218 .46699525 .1646576 .47299195 .23971558 .47299195 .31976319M.3869934 .33177186C.3869934 .2697296 .3869934 .18566895 .3769989 .12661743 .35598756 .012542725 .28199769 .002532959 .25698854 .002532959 .22698975 .002532959 .15499878 .016540528 .13598633 .12962342 .12599182 .18867493 .12599182 .2747345 .12599182 .33177186 .12599182 .39982606 .12599182 .47888185 .13798523 .53393557 .1579895 .6230011 .22200012 .64100649 .2559967 .64100649 .2939911 .64100649 .35699464 .62098696 .37599183 .5279236 .3869934 .47288514 .3869934 .39482118 .3869934 .33177186Z"/>
<path id="font_1_64" d="M.2849884 .1850586V.24707031H.010986328V.1850586H.2849884Z"/>
</defs>
<path transform="matrix(1.00006,0,0,-1.00008,15.790108,186.26363)" stroke-width=".3985" stroke-linecap="butt" stroke-dasharray=".3985,1.99255" stroke-miterlimit="10" stroke-linejoin="miter" fill="none" stroke="#000000" d="M-8.50412-113.38724H147.40332M-8.50412-99.21382H147.40332M-8.50412-85.04042H147.40332M-8.50412-70.867H147.40332M-8.50412-56.69362H147.40332M-8.50412-42.5202H147.40332M-8.50412-28.3468H147.40332M-8.50412-14.17339H147.40332M-8.50412 0H147.40332M-8.50412 14.17339H147.40332M-8.50412 28.3468H147.40332M-8.50412 42.5202H147.40332M-8.50412 56.69362H147.40332M-8.50412 70.867H147.40332M-8.50412 85.04042H147.40332M-8.50412 99.21382H147.40332M-8.50412 113.38724H147.40332M-8.50412 127.56062H147.40332M-8.50412 141.73404H147.40332M-8.50412 155.90744H147.40332M0-113.38724V161.5767M14.17339-113.38724V161.5767M28.3468-113.38724V161.5767M42.5202-113.38724V161.5767M56.69362-113.38724V161.5767M70.867-113.38724V161.5767M85.04042-113.38724V161.5767M99.21382-113.38724V161.5767M113.38724-113.38724V161.5767M127.56062-113.38724V161.5767M141.73404-113.38724V161.5767M147.40332 161.5767"/>
<path transform="matrix(1.00006,0,0,-1.00008,15.790108,186.26363)" stroke-width=".3985" stroke-linecap="butt" stroke-miterlimit="10" stroke-linejoin="miter" fill="none" stroke="#000000" d="M-10.58685 0H152.32089"/>
<path transform="matrix(-1.00006,-0,0,1.00008,5.2026226,186.26363)" d="M3.58653 0C2.52383 .19925 .797 .797-.3985 1.49438V-1.49438C.797-.797 2.52383-.19925 3.58653 0"/>
<path transform="matrix(1.00006,0,0,-1.00008,168.12015,186.26363)" d="M3.58653 0C2.52383 .19925 .797 .797-.3985 1.49438V-1.49438C.797-.797 2.52383-.19925 3.58653 0"/>
<path transform="matrix(1.00006,0,0,-1.00008,15.790108,186.26363)" stroke-width=".3985" stroke-linecap="butt" stroke-miterlimit="10" stroke-linejoin="miter" fill="none" stroke="#000000" d="M0-109.80069V166.49431"/>
<path transform="matrix(0,1.00008,1.00006,0,15.790108,296.0731)" d="M3.58653 0C2.52383 .19925 .797 .797-.3985 1.49438V-1.49438C.797-.797 2.52383-.19925 3.58653 0"/>
<path transform="matrix(0,-1.00008,-1.00006,-0,15.790108,19.755997)" d="M3.58653 0C2.52383 .19925 .797 .797-.3985 1.49438V-1.49438C.797-.797 2.52383-.19925 3.58653 0"/>
<path transform="matrix(1.00006,0,0,-1.00008,15.790108,186.26363)" stroke-width=".3985" stroke-linecap="butt" stroke-miterlimit="10" stroke-linejoin="miter" fill="none" stroke="#000000" d="M14.17339 2.83463V-2.83463"/>
<use data-text="1" xlink:href="#font_1_82" transform="matrix(8.966938,0,0,-8.967117,27.65982,198.5906)"/>
<path transform="matrix(1.00006,0,0,-1.00008,15.790108,186.26363)" stroke-width=".3985" stroke-linecap="butt" stroke-miterlimit="10" stroke-linejoin="miter" fill="none" stroke="#000000" d="M28.3468 2.83463V-2.83463"/>
<use data-text="2" xlink:href="#font_1_107" transform="matrix(8.966938,0,0,-8.967117,41.83367,198.5906)"/>
<path transform="matrix(1.00006,0,0,-1.00008,15.790108,186.26363)" stroke-width=".3985" stroke-linecap="butt" stroke-miterlimit="10" stroke-linejoin="miter" fill="none" stroke="#000000" d="M42.5202 2.83463V-2.83463"/>
<use data-text="3" xlink:href="#font_1_106" transform="matrix(8.966938,0,0,-8.967117,56.00852,198.5906)"/>
<path transform="matrix(1.00006,0,0,-1.00008,15.790108,186.26363)" stroke-width=".3985" stroke-linecap="butt" stroke-miterlimit="10" stroke-linejoin="miter" fill="none" stroke="#000000" d="M56.69362 2.83463V-2.83463"/>
<use data-text="4" xlink:href="#font_1_57" transform="matrix(8.966938,0,0,-8.967117,70.18237,198.68962)"/>
<path transform="matrix(1.00006,0,0,-1.00008,15.790108,186.26363)" stroke-width=".3985" stroke-linecap="butt" stroke-miterlimit="10" stroke-linejoin="miter" fill="none" stroke="#000000" d="M70.867 2.83463V-2.83463"/>
<use data-text="5" xlink:href="#font_1_56" transform="matrix(8.966938,0,0,-8.967117,84.35722,198.5906)"/>
<path transform="matrix(1.00006,0,0,-1.00008,15.790108,186.26363)" stroke-width=".3985" stroke-linecap="butt" stroke-miterlimit="10" stroke-linejoin="miter" fill="none" stroke="#000000" d="M85.04042 2.83463V-2.83463"/>
<use data-text="6" xlink:href="#font_1_101" transform="matrix(8.966938,0,0,-8.967117,98.53107,198.5906)"/>
<path transform="matrix(1.00006,0,0,-1.00008,15.790108,186.26363)" stroke-width=".3985" stroke-linecap="butt" stroke-miterlimit="10" stroke-linejoin="miter" fill="none" stroke="#000000" d="M99.21382 2.83463V-2.83463"/>
<use data-text="7" xlink:href="#font_1_100" transform="matrix(8.966938,0,0,-8.967117,112.70492,198.68062)"/>
<path transform="matrix(1.00006,0,0,-1.00008,15.790108,186.26363)" stroke-width=".3985" stroke-linecap="butt" stroke-miterlimit="10" stroke-linejoin="miter" fill="none" stroke="#000000" d="M113.38724 2.83463V-2.83463"/>
<use data-text="8" xlink:href="#font_1_51" transform="matrix(8.966938,0,0,-8.967117,126.87977,198.5906)"/>
<path transform="matrix(1.00006,0,0,-1.00008,15.790108,186.26363)" stroke-width=".3985" stroke-linecap="butt" stroke-miterlimit="10" stroke-linejoin="miter" fill="none" stroke="#000000" d="M127.56062 2.83463V-2.83463"/>
<use data-text="9" xlink:href="#font_1_78" transform="matrix(8.966938,0,0,-8.967117,141.05362,198.5906)"/>
<path transform="matrix(1.00006,0,0,-1.00008,15.790108,186.26363)" stroke-width=".3985" stroke-linecap="butt" stroke-miterlimit="10" stroke-linejoin="miter" fill="none" stroke="#000000" d="M141.73404 2.83463V-2.83463"/>
<use data-text="1" xlink:href="#font_1_82" transform="matrix(8.966938,0,0,-8.967117,152.92334,198.5906)"/>
<use data-text="0" xlink:href="#font_1_121" transform="matrix(8.966938,0,0,-8.967117,157.53234,198.5906)"/>
<path transform="matrix(1.00006,0,0,-1.00008,15.790108,186.26363)" stroke-width=".3985" stroke-linecap="butt" stroke-miterlimit="10" stroke-linejoin="miter" fill="none" stroke="#000000" d="M2.83463-113.38724H-2.83463"/>
<use data-text="-" xlink:href="#font_1_64" transform="matrix(8.966938,0,0,-8.967117,1.750267,302.54695)"/>
<use data-text="8" xlink:href="#font_1_51" transform="matrix(8.966938,0,0,-8.967117,4.8259279,302.54695)"/>
<path transform="matrix(1.00006,0,0,-1.00008,15.790108,186.26363)" stroke-width=".3985" stroke-linecap="butt" stroke-miterlimit="10" stroke-linejoin="miter" fill="none" stroke="#000000" d="M2.83463-99.21382H-2.83463"/>
<use data-text="-" xlink:href="#font_1_64" transform="matrix(8.966938,0,0,-8.967117,1.750267,288.4178)"/>
<use data-text="7" xlink:href="#font_1_100" transform="matrix(8.966938,0,0,-8.967117,4.8259279,288.4178)"/>
<path transform="matrix(1.00006,0,0,-1.00008,15.790108,186.26363)" stroke-width=".3985" stroke-linecap="butt" stroke-miterlimit="10" stroke-linejoin="miter" fill="none" stroke="#000000" d="M2.83463-85.04042H-2.83463"/>
<use data-text="-" xlink:href="#font_1_64" transform="matrix(8.966938,0,0,-8.967117,1.750267,274.19868)"/>
<use data-text="6" xlink:href="#font_1_101" transform="matrix(8.966938,0,0,-8.967117,4.8259279,274.19868)"/>
<path transform="matrix(1.00006,0,0,-1.00008,15.790108,186.26363)" stroke-width=".3985" stroke-linecap="butt" stroke-miterlimit="10" stroke-linejoin="miter" fill="none" stroke="#000000" d="M2.83463-70.867H-2.83463"/>
<use data-text="-" xlink:href="#font_1_64" transform="matrix(8.966938,0,0,-8.967117,1.750267,260.02354)"/>
<use data-text="5" xlink:href="#font_1_56" transform="matrix(8.966938,0,0,-8.967117,4.8259279,260.02354)"/>
<path transform="matrix(1.00006,0,0,-1.00008,15.790108,186.26363)" stroke-width=".3985" stroke-linecap="butt" stroke-miterlimit="10" stroke-linejoin="miter" fill="none" stroke="#000000" d="M2.83463-56.69362H-2.83463"/>
<use data-text="-" xlink:href="#font_1_64" transform="matrix(8.966938,0,0,-8.967117,1.750267,245.9974)"/>
<use data-text="4" xlink:href="#font_1_57" transform="matrix(8.966938,0,0,-8.967117,4.8259279,245.9974)"/>
<path transform="matrix(1.00006,0,0,-1.00008,15.790108,186.26363)" stroke-width=".3985" stroke-linecap="butt" stroke-miterlimit="10" stroke-linejoin="miter" fill="none" stroke="#000000" d="M2.83463-42.5202H-2.83463"/>
<use data-text="-" xlink:href="#font_1_64" transform="matrix(8.966938,0,0,-8.967117,1.750267,231.67426)"/>
<use data-text="3" xlink:href="#font_1_106" transform="matrix(8.966938,0,0,-8.967117,4.8259279,231.67426)"/>
<path transform="matrix(1.00006,0,0,-1.00008,15.790108,186.26363)" stroke-width=".3985" stroke-linecap="butt" stroke-miterlimit="10" stroke-linejoin="miter" fill="none" stroke="#000000" d="M2.83463-28.3468H-2.83463"/>
<use data-text="-" xlink:href="#font_1_64" transform="matrix(8.966938,0,0,-8.967117,1.750267,217.59914)"/>
<use data-text="2" xlink:href="#font_1_107" transform="matrix(8.966938,0,0,-8.967117,4.8259279,217.59914)"/>
<path transform="matrix(1.00006,0,0,-1.00008,15.790108,186.26363)" stroke-width=".3985" stroke-linecap="butt" stroke-miterlimit="10" stroke-linejoin="miter" fill="none" stroke="#000000" d="M2.83463-14.17339H-2.83463"/>
<use data-text="-" xlink:href="#font_1_64" transform="matrix(8.966938,0,0,-8.967117,1.750267,203.424)"/>
<use data-text="1" xlink:href="#font_1_82" transform="matrix(8.966938,0,0,-8.967117,4.8259279,203.424)"/>
<path transform="matrix(1.00006,0,0,-1.00008,15.790108,186.26363)" stroke-width=".3985" stroke-linecap="butt" stroke-miterlimit="10" stroke-linejoin="miter" fill="none" stroke="#000000" d="M2.83463 0H-2.83463"/>
<use data-text="0" xlink:href="#font_1_121" transform="matrix(8.966938,0,0,-8.967117,4.8264467,189.15087)"/>
<path transform="matrix(1.00006,0,0,-1.00008,15.790108,186.26363)" stroke-width=".3985" stroke-linecap="butt" stroke-miterlimit="10" stroke-linejoin="miter" fill="none" stroke="#000000" d="M2.83463 14.17339H-2.83463"/>
<use data-text="1" xlink:href="#font_1_82" transform="matrix(8.966938,0,0,-8.967117,4.8264467,175.07474)"/>
<path transform="matrix(1.00006,0,0,-1.00008,15.790108,186.26363)" stroke-width=".3985" stroke-linecap="butt" stroke-miterlimit="10" stroke-linejoin="miter" fill="none" stroke="#000000" d="M2.83463 28.3468H-2.83463"/>
<use data-text="2" xlink:href="#font_1_107" transform="matrix(8.966938,0,0,-8.967117,4.8264467,160.9006)"/>
<path transform="matrix(1.00006,0,0,-1.00008,15.790108,186.26363)" stroke-width=".3985" stroke-linecap="butt" stroke-miterlimit="10" stroke-linejoin="miter" fill="none" stroke="#000000" d="M2.83463 42.5202H-2.83463"/>
<use data-text="3" xlink:href="#font_1_106" transform="matrix(8.966938,0,0,-8.967117,4.8264467,146.62746)"/>
<path transform="matrix(1.00006,0,0,-1.00008,15.790108,186.26363)" stroke-width=".3985" stroke-linecap="butt" stroke-miterlimit="10" stroke-linejoin="miter" fill="none" stroke="#000000" d="M2.83463 56.69362H-2.83463"/>
<use data-text="4" xlink:href="#font_1_57" transform="matrix(8.966938,0,0,-8.967117,4.8264467,132.60134)"/>
<path transform="matrix(1.00006,0,0,-1.00008,15.790108,186.26363)" stroke-width=".3985" stroke-linecap="butt" stroke-miterlimit="10" stroke-linejoin="miter" fill="none" stroke="#000000" d="M2.83463 70.867H-2.83463"/>
<use data-text="5" xlink:href="#font_1_56" transform="matrix(8.966938,0,0,-8.967117,4.8264467,118.27818)"/>
<path transform="matrix(1.00006,0,0,-1.00008,15.790108,186.26363)" stroke-width=".3985" stroke-linecap="butt" stroke-miterlimit="10" stroke-linejoin="miter" fill="none" stroke="#000000" d="M2.83463 85.04042H-2.83463"/>
<use data-text="6" xlink:href="#font_1_101" transform="matrix(8.966938,0,0,-8.967117,4.8264467,104.10406)"/>
<path transform="matrix(1.00006,0,0,-1.00008,15.790108,186.26363)" stroke-width=".3985" stroke-linecap="butt" stroke-miterlimit="10" stroke-linejoin="miter" fill="none" stroke="#000000" d="M2.83463 99.21382H-2.83463"/>
<use data-text="7" xlink:href="#font_1_100" transform="matrix(8.966938,0,0,-8.967117,4.8264467,89.97393)"/>
<path transform="matrix(1.00006,0,0,-1.00008,15.790108,186.26363)" stroke-width=".3985" stroke-linecap="butt" stroke-miterlimit="10" stroke-linejoin="miter" fill="none" stroke="#000000" d="M2.83463 113.38724H-2.83463"/>
<use data-text="8" xlink:href="#font_1_51" transform="matrix(8.966938,0,0,-8.967117,4.8264467,75.75478)"/>
<path transform="matrix(1.00006,0,0,-1.00008,15.790108,186.26363)" stroke-width=".3985" stroke-linecap="butt" stroke-miterlimit="10" stroke-linejoin="miter" fill="none" stroke="#000000" d="M2.83463 127.56062H-2.83463"/>
<use data-text="9" xlink:href="#font_1_78" transform="matrix(8.966938,0,0,-8.967117,4.8264467,61.580659)"/>
<path transform="matrix(1.00006,0,0,-1.00008,15.790108,186.26363)" stroke-width=".3985" stroke-linecap="butt" stroke-miterlimit="10" stroke-linejoin="miter" fill="none" stroke="#000000" d="M2.83463 141.73404H-2.83463"/>
<use data-text="1" xlink:href="#font_1_82" transform="matrix(8.966938,0,0,-8.967117,.21717835,47.405519)"/>
<use data-text="0" xlink:href="#font_1_121" transform="matrix(8.966938,0,0,-8.967117,4.8261797,47.405519)"/>
<path transform="matrix(1.00006,0,0,-1.00008,15.790108,186.26363)" stroke-width=".79701" stroke-linecap="butt" stroke-miterlimit="10" stroke-linejoin="miter" fill="none" stroke="#000000" d="M0 184.25424C0 184.25424 1.13768 181.97887 1.57465 181.10495 2.0116 180.23104 2.71233 178.82955 3.14929 177.95563 3.58624 177.08171 4.287 175.68024 4.72395 174.80632 5.16092 173.9324 5.86165 172.53093 6.2986 171.65702 6.73557 170.7831 7.4363 169.38162 7.87326 168.5077 8.31021 167.63379 9.01096 166.2323 9.44792 165.35839 9.88487 164.48447 10.5856 163.08301 11.02257 162.20909 11.45952 161.33518 12.16026 159.9337 12.59721 159.05979 13.03418 158.18587 13.73492 156.78438 14.17188 155.91046 14.60884 155.03655 15.30957 153.63507 15.74654 152.76116 16.18349 151.88726 16.88422 150.48577 17.32118 149.61185 17.75813 148.73793 18.4589 147.33646 18.89584 146.46254 19.33281 145.58863 20.03354 144.18714 20.47049 143.31322 20.90746 142.4393 21.60818 141.03784 22.04514 140.16393 22.4821 139.29001 23.18285 137.88854 23.61981 137.01462 24.05676 136.1407 24.75749 134.73921 25.19446 133.8653 25.63141 132.99138 26.33215 131.58992 26.7691 130.716 27.20607 129.84209 27.90681 128.4406 28.34377 127.56668 28.78073 126.69276 29.48146 125.29129 29.91843 124.41737 30.35538 123.54346 31.0561 122.14197 31.49307 121.26807 31.93002 120.39415 32.63077 118.99268 33.06773 118.11876 33.50468 117.24484 34.20543 115.84337 34.64238 114.96945 35.07935 114.09554 35.78009 112.69405 36.21704 111.82013 36.65399 110.94621 37.35474 109.54475 37.7917 108.67084 38.22865 107.79692 38.92938 106.39543 39.36635 105.52151 39.8033 104.6476 40.50406 103.24612 40.94101 102.37221 41.37798 101.49829 42.0787 100.09683 42.51566 99.22292 42.95262 98.349 43.65335 96.94751 44.0903 96.0736 44.52727 95.19968 45.22801 93.7982 45.66498 92.92429 46.10193 92.05037 46.80266 90.6489 47.23962 89.77498 47.67657 88.90106 48.37732 87.49959 48.81427 86.62567 49.25124 85.75175 49.95198 84.35027 50.38893 83.47635 50.8259 82.60243 51.52663 81.20096 51.9636 80.32704 52.40054 79.45313 53.10127 78.05167 53.53824 77.17775 53.97519 76.30383 54.67593 74.90234 55.1129 74.02843 55.54985 73.15451 56.2506 71.75304 56.68755 70.87912 57.12451 70.0052 57.82524 68.60373 58.26219 67.72981 58.69916 66.8559 59.3999 65.45442 59.83687 64.5805 60.27382 63.70659 60.97455 62.3051 61.41151 61.43118 61.84846 60.55727 62.54921 59.1558 62.98616 58.28189 63.42313 57.40797 64.12387 56.0065 64.56082 55.13258 64.99779 54.25867 65.69852 52.85718 66.13547 51.98326 66.57243 51.10934 67.27318 49.70787 67.71013 48.83395 68.14708 47.96005 68.84782 46.55856 69.28479 45.68465 69.72174 44.81073 70.42249 43.40926 70.85944 42.53534 71.2964 41.66142 71.99715 40.25993 72.4341 39.38602 72.87106 38.5121 73.5718 37.11064 74.00876 36.23672 74.44571 35.36281 75.14644 33.96133 75.5834 33.08742 76.02036 32.2135 76.7211 30.81201 77.15807 29.9381 77.59502 29.06418 78.29576 27.66272 78.73271 26.7888 79.16968 25.91489 79.8704 24.5134 80.30736 23.63948 80.74432 22.76556 81.44507 21.36409 81.88203 20.49017 82.31898 19.61626 83.01971 18.21477 83.45668 17.34087 83.89363 16.46695 84.59436 15.06548 85.03133 14.19156 85.46828 13.31764 86.16904 11.91617 86.60599 11.04225 87.04295 10.16833 87.74368 8.76685 88.18063 7.89293 88.6176 7.01901 89.31833 5.61755 89.7553 4.74364 90.19225 3.86972 90.89299 2.46823 91.32996 1.59431 91.7669 .7204 92.46765-.68105 92.9046-1.55496 93.34157-2.42888 94.0423-3.83035 94.47925-4.70427 94.91621-5.57819 95.61696-6.97966 96.05391-7.85358 96.49088-8.7275 97.1916-10.12897 97.62857-11.00288 98.06552-11.8768 98.76625-13.27827 99.20322-14.15219 99.64017-15.02611 100.34093-16.42758 100.77788-17.3015 101.21484-18.17542 101.91557-19.5769 102.35252-20.45082 102.78949-21.32474 103.49023-22.72621 103.92719-23.60013 104.36414-24.47404 105.06488-25.87552 105.50185-26.74944 105.9388-27.62335 106.63953-29.02483 107.07649-29.89874 107.51344-30.77266 108.2142-32.17413 108.65115-33.04805 109.08812-33.92197 109.78885-35.32344 110.2258-36.19736 110.66277-37.07127 111.3635-38.47275 111.80046-39.34666 112.23741-40.22058 112.93816-41.62207 113.37512-42.49599 113.81207-43.3699 114.51282-44.77136 114.94977-45.64528 115.38673-46.5192 116.08746-47.92067 116.52441-48.79459 116.96138-49.6685 117.66212-51.06999 118.09908-51.94391 118.53604-52.81783 119.23677-54.2193 119.67374-55.09322 120.11069-55.96712 120.81142-57.3686 121.24838-58.24252 121.68533-59.11644 122.3861-60.51791 122.82304-61.39183 123.26001-62.26575 123.96074-63.66724 124.39769-64.54115 124.83466-65.41507 125.53539-66.81653 125.97235-67.69044 126.4093-68.56436 127.11005-69.96584 127.54701-70.83975 127.98396-71.71367 128.6847-73.11516 129.12166-73.98907 129.55861-74.86299 130.25936-76.26445 130.6963-77.13837 131.13327-78.01228 131.83402-79.41377 132.27097-80.28769 132.70793-81.1616 133.40866-82.56308 133.84563-83.437 134.28258-84.31091 134.9833-85.7124 135.42028-86.5863 135.85723-87.46022 136.55799-88.8617 136.99494-89.73561 137.4319-90.60953 138.13263-92.011 138.56958-92.88492 139.00655-93.75883 139.70729-95.16032 140.14424-96.03424 140.58119-96.90816 141.28194-98.30962 141.7189-99.18353 142.15586-100.05745 142.85659-101.45894 143.29355-102.33286 143.7305-103.20677 144.43126-104.60825 144.86821-105.48216 145.30518-106.35608 146.0059-107.75755 146.44286-108.63147 146.87982-109.50539 147.58055-110.90686 148.01752-111.78078 148.45447-112.6547 149.15522-114.05617 149.59218-114.93008 150.02913-115.804 150.72986-117.20547 151.16683-118.07939 151.60378-118.95331 152.30452-120.35478 152.74147-121.2287 153.17844-122.10262 153.87918-123.5041 154.31613-124.37802 154.7531-125.25194 155.8908-127.52733 155.8908-127.52733"/>
</svg>
