<svg xmlns="http://www.w3.org/2000/svg" xmlns:xlink="http://www.w3.org/1999/xlink" xmlns:inkscape="http://www.inkscape.org/namespaces/inkscape" version="1.1" width="230" height="52" viewBox="0 0 230 52">
<defs>
<path id="font_1_1" d="M.45999146 .31976319C.45999146 .39982606 .45498658 .47988893 .41999818 .5539398 .37399293 .65000918 .2919922 .6660156 .25 .6660156 .18998719 .6660156 .116989139 .64001467 .07598877 .54693606 .04399109 .47789 .038986207 .39982606 .038986207 .31976319 .038986207 .24472046 .042999269 .15464783 .083999637 .07859802 .1269989-.0024719239 .19999695-.022460938 .24899292-.022460938 .30299378-.022460938 .3789978-.0014648438 .4229889 .09359741 .45498658 .16265869 .45999146 .2407074 .45999146 .31976319M.24899292-.00047302247C.20999146-.00047302247 .15098572 .024551392 .1329956 .12062073 .12199402 .18066406 .12199402 .2727356 .12199402 .3317871 .12199402 .39582826 .12199402 .46188355 .12998963 .5159149 .14898682 .63500979 .22399903 .64401248 .24899292 .64401248 .28199769 .64401248 .34799195 .6259918 .36698915 .52693179 .3769989 .47088624 .3769989 .39482118 .3769989 .3317871 .3769989 .25672914 .3769989 .18867493 .3659973 .12461853 .35099793 .029556275 .2939911-.00047302247 .24899292-.00047302247Z"/>
<path id="font_1_2" d="M.2939911 .16503906V.07800293C.2939911 .041992189 .2919922 .0309906 .21798706 .0309906H.19699097V0C.23799134 .0029907227 .2899933 .0029907227 .33198548 .0029907227 .37399293 .0029907227 .4269867 .0029907227 .46798707 0V.0309906H.44699098C.37298585 .0309906 .37098695 .041992189 .37098695 .07800293V.16503906H.47099305V.19602967H.37098695V.65075686C.37098695 .67074587 .37098695 .6767578 .35499574 .6767578 .34599305 .6767578 .34298707 .6767578 .33499146 .66474917L.027999878 .19602967V.16503906H.2939911M.2999878 .19602967H.055999757L.2999878 .5688019V.19602967Z"/>
<path id="font_2_1" d="M.40699769 .39465333H.5049896C.5249939 .39465333 .5379944 .39465333 .5379944 .4166565 .5379944 .43066407 .5249939 .43066407 .5069885 .43066407H.4139862C.43699647 .5580139 .44499208 .6040497 .45298768 .63305667 .45799256 .6550598 .47999574 .6760864 .5039978 .6760864 .5049896 .6760864 .5319977 .6760864 .5509949 .6640625 .5099945 .651062 .5069885 .61505129 .5069885 .60905459 .5069885 .5870514 .5239868 .572052 .5469971 .572052 .57398989 .572052 .60398867 .59506228 .60398867 .63305667 .60398867 .6790924 .5549927 .70410159 .5039978 .70410159 .45999146 .70410159 .41099549 .6790924 .38398744 .62905886 .3639984 .5920563 .35598756 .5469818 .33499146 .43066407H.2559967C.23599243 .43066407 .22299195 .43066407 .22299195 .4086609 .22299195 .39465333 .23599243 .39465333 .2539978 .39465333H.32798768C.32699586 .38865663 .2639923 .028869629 .23999024-.078063968 .23498535-.10006714 .21798706-.17610169 .16999817-.17610169 .16899109-.17610169 .14498902-.17610169 .12599182-.1640625 .16699219-.15107727 .16999817-.11506653 .16999817-.109069827 .16999817-.08706665 .15299988-.07206726 .12998963-.07206726 .102996829-.07206726 .07299805-.095077518 .07299805-.1330719 .07299805-.17811585 .11999512-.20410156 .16999817-.20410156 .23399353-.20410156 .27799989-.13807678 .2899933-.11607361 .32598878-.049087526 .34899903 .07385254 .35099793 .08584595L.40699769 .39465333Z"/>
<path id="font_3_1" d="M.3600006 .46505738C.36099244 .46606446 .36999513 .48506166 .36999513 .50006106 .36999513 .5360565 .33799745 .5590515 .30799867 .5590515 .2669983 .5590515 .2559967 .5280609 .25099183 .5130615L.09700012 .080078128C.09298706 .06808472 .09298706 .065078739 .09298706 .064071658 .09298706 .048080446 .1349945 .038085939 .13598633 .038085939 .14498902 .038085939 .14698792 .04307556 .15299988 .05508423L.3600006 .46505738Z"/>
<path id="font_4_1" d="M.35499574 .75C.16499329 .61598208 .114990238 .40397645 .114990238 .25097657 .114990238 .10997009 .15699768-.10902405 .35499574-.24902344 .36299134-.24902344 .375-.24902344 .375-.23703003 .375-.23103333 .37199403-.22903443 .36499024-.22203064 .23199463-.10203552 .18299866 .067977908 .18299866 .24996948 .18299866 .519989 .28599549 .65197756 .36799623 .72598269 .37199403 .7299957 .375 .73298647 .375 .73799136 .375 .75 .36299134 .75 .35499574 .75Z"/>
<path id="font_5_1" d="M.74398806 .2263794C.7599945 .2263794 .7839966 .2263794 .7839966 .25038148 .7839966 .27539063 .7609863 .27539063 .74398806 .27539063H.147995C.13198853 .27539063 .10798645 .27539063 .10798645 .25138856 .10798645 .2263794 .1309967 .2263794 .147995 .2263794H.74398806Z"/>
<path id="font_4_4" d="M.33499146 .63612368C.33499146 .6630554 .33299256 .6640625 .30499269 .6640625 .24099732 .6014404 .1499939 .6004486 .10899353 .6004486V.5644531C.1329956 .5644531 .19898987 .5644531 .2539978 .592453V.08203125C.2539978 .04899597 .2539978 .035995485 .1539917 .035995485H.115997318V0C.13398743 .0009918213 .25698854 .0039978029 .2939911 .0039978029 .32499696 .0039978029 .45098878 .0009918213 .47299195 0V.035995485H.43499757C.33499146 .035995485 .33499146 .04899597 .33499146 .08203125V.63612368Z"/>
<path id="font_4_2" d="M.08999634 .75C.08299255 .75 .070999149 .75 .070999149 .73799136 .070999149 .73298647 .07398987 .7299957 .07998657 .72299197 .1659851 .64398196 .2619934 .5089874 .2619934 .25097657 .2619934 .04197693 .19699097-.11602783 .08898926-.21403504 .07199097-.23103333 .070999149-.23202515 .070999149-.23703003 .070999149-.24203491 .07398987-.24902344 .083999637-.24902344 .09599304-.24902344 .19099427-.18302918 .25698854-.058029176 .30099488 .024978638 .32998658 .13298035 .32998658 .24996948 .32998658 .39097596 .28799439 .60998538 .08999634 .75Z"/>
<path id="font_4_6" d="M.7679901 .3359375C.7829895 .3359375 .80599978 .3359375 .80599978 .3609314 .80599978 .38493348 .7819977 .38493348 .7689972 .38493348H.10699463C.09399414 .38493348 .069992069 .38493348 .069992069 .3609314 .069992069 .3359375 .09298706 .3359375 .10798645 .3359375H.7679901M.7689972 .11602783C.7819977 .11602783 .80599978 .11602783 .80599978 .1400299 .80599978 .16503906 .7829895 .16503906 .7679901 .16503906H.10798645C.09298706 .16503906 .069992069 .16503906 .069992069 .1400299 .069992069 .11602783 .09399414 .11602783 .10699463 .11602783H.7689972Z"/>
<path id="font_4_3" d="M.46299745 .2263794H.7689972C.7819977 .2263794 .80599978 .2263794 .80599978 .25038148 .80599978 .27539063 .7829895 .27539063 .7689972 .27539063H.46299745V.5821533C.46299745 .59513857 .46299745 .6191406 .43899537 .6191406 .4139862 .6191406 .4139862 .5961304 .4139862 .5821533V.27539063H.10699463C.09399414 .27539063 .069992069 .27539063 .069992069 .25138856 .069992069 .2263794 .09298706 .2263794 .10699463 .2263794H.4139862V-.08114624C.4139862-.09416199 .4139862-.11816406 .43798829-.11816406 .46299745-.11816406 .46299745-.09516907 .46299745-.08114624V.2263794Z"/>
<path id="font_6_1" d="M.8779907 .59887698C.875 .58187869 .8730011 .55888369 .8730011 .54089358 .8730011 .52090457 .875 .47192384 .8959961 .41394044 .901001 .40193177 .93099978 .33296205 .94599917 .33296205 .9529877 .33296205 .96899417 .34895326 .96899417 .35595704 .96899417 .35995484 .96798709 .36195375 .96398928 .36894227 .9149933 .44493104 .9119873 .50691226 .9119873 .54190066 .9119873 .60287478 .9279938 .6478729 .93899539 .6708679 .94200137 .6768646 .94299319 .6798706 .94299319 .6828613 .94299319 .6908722 .93699648 .6928711 .93299868 .6928711 .93099978 .6928711 .92900088 .6928711 .92099 .6898651 .8939972 .6768646 .84999087 .66186526 .7919922 .66186526 .7630005 .66186526 .69599917 .6628723 .61898806 .7138672 .61299136 .717865 .6100006 .7188721 .60598757 .7188721 .598999 .7188721 .58299258 .7028656 .58299258 .6958618 .58299258 .6818695 .644989 .6538696 .66600039 .645874 .723999 .62387087 .772995 .62286379 .79100039 .62286379 .82299807 .62286379 .82398989 .62286379 .848999 .62786868L.069992069-.15188599C.056991579-.16488648 .054992677-.16688538 .054992677-.17488098 .054992677-.18487549 .06399536-.19488526 .07499695-.19488526 .08299255-.19488526 .084991458-.19288635 .09700012-.18087769L.8779907 .59887698Z"/>
<path id="font_6_2" d="M.848999-.12788391C.83200076-.12487793 .8089905-.12287903 .79100039-.12287903 .7709961-.12287903 .7220001-.12487793 .6639862-.14588928 .6569977-.14888 .58299258-.17988587 .58299258-.19587708 .58299258-.20288086 .598999-.21888733 .60598757-.21888733 .6100006-.21888733 .61299136-.21788025 .61898806-.21388245 .69799807-.1618805 .7669983-.1618805 .7919922-.1618805 .8529968-.1618805 .897995-.17788697 .92099-.18888855 .9269867-.19187927 .9299927-.19288635 .93299868-.19288635 .93699648-.19288635 .94299319-.19088745 .94299319-.18287659 .94299319-.18087769 .94299319-.17887879 .9399872-.17088318 .9269867-.14387512 .9119873-.100875858 .9119873-.04185486 .9119873 .00015258789 .91799929 .060180665 .96398928 .13119507 .96798709 .13819885 .96899417 .14019776 .96899417 .14419556 .96899417 .15119934 .9529877 .16720581 .94599917 .16720581 .9319916 .16720581 .9039917 .10519409 .8959961 .08618164 .875 .030166626 .8730011-.017852784 .8730011-.04084778 .8730011-.07286072 .8730011-.0738678 .8779907-.09887695L.09700012 .6813507C.084991458 .6933594 .08299255 .6953583 .07499695 .6953583 .06298828 .6953583 .054992677 .6853485 .054992677 .675354 .054992677 .66734316 .056991579 .66534426 .069992069 .65234377L.848999-.12788391Z"/>
<path id="font_4_5" d="M.15499878 .5588074C.20599365 .5458069 .23599243 .5458069 .2519989 .5458069 .38398744 .5458069 .46199037 .6358032 .46199037 .6508026 .46199037 .6618042 .45498658 .6648102 .44999696 .6648102 .44799806 .6648102 .44599916 .6648102 .44198609 .6618042 .41799928 .6528015 .36499024 .6328125 .29100038 .6328125 .2630005 .6328125 .20999146 .6348114 .14498902 .6598053 .1349945 .6648102 .1329956 .6648102 .13198853 .6648102 .11898804 .6648102 .11898804 .6538086 .11898804 .6378021V.34251405C.11898804 .32548524 .11898804 .3134613 .1349945 .3134613 .14399719 .3134613 .14498902 .3154602 .15499878 .32748414 .19799805 .38259889 .25898744 .390625 .2939911 .390625 .35398866 .390625 .3809967 .34251405 .38598634 .33450318 .4039917 .30143739 .4099884 .26335145 .4099884 .20524597 .4099884 .17524719 .4099884 .116256717 .37998963 .07234192 .35499574 .03640747 .31199647 .012466431 .2630005 .012466431 .19799805 .012466431 .1309967 .04838562 .10598755 .11425781 .14399719 .11125183 .16299439 .13624573 .16299439 .16325379 .16299439 .20625305 .12599182 .21424866 .11299133 .21424866 .11099243 .21424866 .06298828 .21424866 .06298828 .1602478 .06298828 .07034302 .14498902-.01953125 .2649994-.01953125 .3929901-.01953125 .5049896 .07533264 .5049896 .20124817 .5049896 .31445313 .4189911 .41862489 .29499818 .41862489 .25099183 .41862489 .19898987 .4076233 .15499878 .36956788V.5588074Z"/>
</defs>
<path transform="matrix(1.00005,0,0,-1.00002,58.190004,18.572112)" stroke-width="1.19553" stroke-linecap="butt" stroke-miterlimit="10" stroke-linejoin="miter" fill="none" stroke="#000000" d="M-50.95506 0H164.3423"/>
<path transform="matrix(-1.00005,-0,0,1.00002,7.232399,18.572112)" d="M5.73854 0C4.0382 .31879 1.27522 1.27522-.6376 2.39105V-2.39105C1.27522-1.27522 4.0382-.31879 5.73854 0"/>
<path transform="matrix(1.00005,0,0,-1.00002,222.54051,18.572112)" d="M5.73854 0C4.0382 .31879 1.27522 1.27522-.6376 2.39105V-2.39105C1.27522-1.27522 4.0382-.31879 5.73854 0"/>
<path transform="matrix(1.00005,0,0,-1.00002,58.190004,18.572112)" d="M1.99255 0C1.99255 1.10046 1.10046 1.99255 0 1.99255-1.10046 1.99255-1.99255 1.10046-1.99255 0-1.99255-1.10046-1.10046-1.99255 0-1.99255 1.10046-1.99255 1.99255-1.10046 1.99255 0ZM0 0"/>
<path transform="matrix(1.00005,0,0,-1.00002,58.190004,18.572112)" stroke-width=".3985" stroke-linecap="butt" stroke-miterlimit="10" stroke-linejoin="miter" fill="none" stroke="#000000" d="M1.99255 0C1.99255 1.10046 1.10046 1.99255 0 1.99255-1.10046 1.99255-1.99255 1.10046-1.99255 0-1.99255-1.10046-1.10046-1.99255 0-1.99255 1.10046-1.99255 1.99255-1.10046 1.99255 0ZM0 0"/>
<use data-text="0" xlink:href="#font_1_1" transform="matrix(9.963098,0,0,-9.962799,55.698877,28.51231)"/>
<path transform="matrix(1.00005,0,0,-1.00002,58.190004,18.572112)" d="M115.37979 0C115.37979 1.10046 114.4877 1.99255 113.38724 1.99255 112.28676 1.99255 111.39468 1.10046 111.39468 0 111.39468-1.10046 112.28676-1.99255 113.38724-1.99255 114.4877-1.99255 115.37979-1.10046 115.37979 0ZM113.38724 0"/>
<path transform="matrix(1.00005,0,0,-1.00002,58.190004,18.572112)" stroke-width=".3985" stroke-linecap="butt" stroke-miterlimit="10" stroke-linejoin="miter" fill="none" stroke="#000000" d="M115.37979 0C115.37979 1.10046 114.4877 1.99255 113.38724 1.99255 112.28676 1.99255 111.39468 1.10046 111.39468 0 111.39468-1.10046 112.28676-1.99255 113.38724-1.99255 114.4877-1.99255 115.37979-1.10046 115.37979 0ZM113.38724 0"/>
<use data-text="4" xlink:href="#font_1_2" transform="matrix(9.963098,0,0,-9.962799,169.09255,28.51231)"/>
<path transform="matrix(1.00005,0,0,-1.00002,58.190004,18.572112)" stroke-width="1.39478" stroke-linecap="butt" stroke-miterlimit="10" stroke-linejoin="miter" fill="none" stroke="#ff0000" d="M-28.3468-9.37808V-21.2601"/>
<path transform="matrix(1.00005,0,0,-1.00002,58.190004,18.572112)" stroke-width=".59776" stroke-linecap="butt" stroke-miterlimit="10" stroke-linejoin="miter" fill="none" stroke="#ffffff" d="M-28.3468-9.37808V-21.2601"/>
<path transform="matrix(0,-1.00002,-1.00005,-0,29.841788,27.950379)" d="M2.29138 0-1.37483 1.83311 0 0-1.37483-1.83311" fill="#ff0000"/>
<use data-text="f" xlink:href="#font_2_1" transform="matrix(6.9741489,0,0,-6.97394,6.450424,49.126726)" fill="#ff0000"/>
<use data-text="&#x2032;" xlink:href="#font_3_1" transform="matrix(4.981549,0,0,-4.9813997,11.1176609,46.120664)" fill="#ff0000"/>
<use data-text="(" xlink:href="#font_4_1" transform="matrix(6.9741489,0,0,-6.97394,13.812805,49.126726)" fill="#ff0000"/>
<use data-text="&#x2212;" xlink:href="#font_5_1" transform="matrix(6.9741489,0,0,-6.97394,16.925965,49.126726)" fill="#ff0000"/>
<use data-text="1" xlink:href="#font_4_4" transform="matrix(6.9741489,0,0,-6.97394,23.15329,49.126726)" fill="#ff0000"/>
<use data-text=")" xlink:href="#font_4_2" transform="matrix(6.9741489,0,0,-6.97394,27.121582,49.126726)" fill="#ff0000"/>
<use data-text="=" xlink:href="#font_4_6" transform="matrix(6.9741489,0,0,-6.97394,32.498643,49.126726)" fill="#ff0000"/>
<use data-text="(" xlink:href="#font_4_1" transform="matrix(6.9741489,0,0,-6.97394,40.881578,49.126726)" fill="#ff0000"/>
<use data-text="+" xlink:href="#font_4_3" transform="matrix(6.9741489,0,0,-6.97394,43.99205,49.126726)" fill="#ff0000"/>
<use data-text=")" xlink:href="#font_4_2" transform="matrix(6.9741489,0,0,-6.97394,50.108385,49.126726)" fill="#ff0000"/>
<use data-text="&#x2197;" xlink:href="#font_6_1" transform="matrix(11.955797,0,0,-11.95544,23.864289,10.221944)" fill="#ff0000"/>
<path transform="matrix(1.00005,0,0,-1.00002,58.190004,18.572112)" stroke-width="1.39478" stroke-linecap="butt" stroke-miterlimit="10" stroke-linejoin="miter" fill="none" stroke="#ff0000" d="M28.3468-9.37808V-21.2601"/>
<path transform="matrix(1.00005,0,0,-1.00002,58.190004,18.572112)" stroke-width=".59776" stroke-linecap="butt" stroke-miterlimit="10" stroke-linejoin="miter" fill="none" stroke="#ffffff" d="M28.3468-9.37808V-21.2601"/>
<path transform="matrix(0,-1.00002,-1.00005,-0,86.538219,27.950379)" d="M2.29138 0-1.37483 1.83311 0 0-1.37483-1.83311" fill="#ff0000"/>
<use data-text="f" xlink:href="#font_2_1" transform="matrix(6.9741489,0,0,-6.97394,66.20541,49.126726)" fill="#ff0000"/>
<use data-text="&#x2032;" xlink:href="#font_3_1" transform="matrix(4.981549,0,0,-4.9813997,70.87264,46.120664)" fill="#ff0000"/>
<use data-text="(" xlink:href="#font_4_1" transform="matrix(6.9741489,0,0,-6.97394,73.56779,49.126726)" fill="#ff0000"/>
<use data-text="1" xlink:href="#font_4_4" transform="matrix(6.9741489,0,0,-6.97394,76.67826,49.126726)" fill="#ff0000"/>
<use data-text=")" xlink:href="#font_4_2" transform="matrix(6.9741489,0,0,-6.97394,80.64655,49.126726)" fill="#ff0000"/>
<use data-text="=" xlink:href="#font_4_6" transform="matrix(6.9741489,0,0,-6.97394,86.02363,49.126726)" fill="#ff0000"/>
<use data-text="(" xlink:href="#font_4_1" transform="matrix(6.9741489,0,0,-6.97394,94.40655,49.126726)" fill="#ff0000"/>
<use data-text="&#x2212;" xlink:href="#font_5_1" transform="matrix(6.9741489,0,0,-6.97394,97.53098,49.126726)" fill="#ff0000"/>
<use data-text=")" xlink:href="#font_4_2" transform="matrix(6.9741489,0,0,-6.97394,103.75831,49.126726)" fill="#ff0000"/>
<use data-text="&#x2198;" xlink:href="#font_6_2" transform="matrix(11.955797,0,0,-11.95544,80.56012,10.221944)" fill="#ff0000"/>
<path transform="matrix(1.00005,0,0,-1.00002,58.190004,18.572112)" stroke-width="1.39478" stroke-linecap="butt" stroke-miterlimit="10" stroke-linejoin="miter" fill="none" stroke="#ff0000" d="M141.73404-9.37808V-21.2601"/>
<path transform="matrix(1.00005,0,0,-1.00002,58.190004,18.572112)" stroke-width=".59776" stroke-linecap="butt" stroke-miterlimit="10" stroke-linejoin="miter" fill="none" stroke="#ffffff" d="M141.73404-9.37808V-21.2601"/>
<path transform="matrix(0,-1.00002,-1.00005,-0,199.93112,27.950379)" d="M2.29138 0-1.37483 1.83311 0 0-1.37483-1.83311" fill="#ff0000"/>
<use data-text="f" xlink:href="#font_2_1" transform="matrix(6.9741489,0,0,-6.97394,179.65308,49.126726)" fill="#ff0000"/>
<use data-text="&#x2032;" xlink:href="#font_3_1" transform="matrix(4.981549,0,0,-4.9813997,184.32032,46.120664)" fill="#ff0000"/>
<use data-text="(" xlink:href="#font_4_1" transform="matrix(6.9741489,0,0,-6.97394,187.01544,49.126726)" fill="#ff0000"/>
<use data-text="5" xlink:href="#font_4_5" transform="matrix(6.9741489,0,0,-6.97394,190.12592,49.126726)" fill="#ff0000"/>
<use data-text=")" xlink:href="#font_4_2" transform="matrix(6.9741489,0,0,-6.97394,194.09421,49.126726)" fill="#ff0000"/>
<use data-text="=" xlink:href="#font_4_6" transform="matrix(6.9741489,0,0,-6.97394,199.47129,49.126726)" fill="#ff0000"/>
<use data-text="(" xlink:href="#font_4_1" transform="matrix(6.9741489,0,0,-6.97394,207.85422,49.126726)" fill="#ff0000"/>
<use data-text="+" xlink:href="#font_4_3" transform="matrix(6.9741489,0,0,-6.97394,210.96469,49.126726)" fill="#ff0000"/>
<use data-text=")" xlink:href="#font_4_2" transform="matrix(6.9741489,0,0,-6.97394,217.08103,49.126726)" fill="#ff0000"/>
<use data-text="&#x2197;" xlink:href="#font_6_1" transform="matrix(11.955797,0,0,-11.95544,193.95278,10.221944)" fill="#ff0000"/>
</svg>
