<svg xmlns="http://www.w3.org/2000/svg" xmlns:xlink="http://www.w3.org/1999/xlink" xmlns:inkscape="http://www.inkscape.org/namespaces/inkscape" version="1.1" width="327" height="202" viewBox="0 0 327 202">
<defs>
<path id="font_1_104" d="M.68499758 .45214845 .66600039 .6767578H.054992677L.035995485 .45214845H.06098938C.07499695 .6128235 .08999634 .64575198 .24099732 .64575198 .25898744 .64575198 .2849884 .64575198 .29499818 .64375308 .31599427 .6397705 .31599427 .6287842 .31599427 .60583499V.07901001C.31599427 .04499817 .31599427 .0309906 .21099854 .0309906H.17098999V0C.21199036 .0029907227 .31399537 .0029907227 .3600006 .0029907227 .4059906 .0029907227 .5089874 .0029907227 .5499878 0V.0309906H.5099945C.40499879 .0309906 .40499879 .04499817 .40499879 .07901001V.60583499C.40499879 .62579348 .40499879 .6397705 .4229889 .64375308 .43399049 .64575198 .46099855 .64575198 .47999574 .64575198 .6309967 .64575198 .6459961 .6128235 .6599884 .45214845H.68499758Z"/>
<path id="font_1_81" d="M.47099305 .21424866C.47099305 .34223939 .37098695 .4482422 .25 .4482422 .125 .4482422 .027999878 .3392334 .027999878 .21424866 .027999878 .085250858 .13198853-.0107421879 .24899292-.0107421879 .36999513-.0107421879 .47099305 .087249759 .47099305 .21424866M.3880005 .22224427C.3880005 .18624878 .3880005 .13224793 .3659973 .08824158 .34399415 .04324341 .2999878 .014251709 .25 .014251709 .20698548 .014251709 .16299439 .035247804 .13598633 .08125305 .11099243 .12524414 .11099243 .18624878 .11099243 .22224427 .11099243 .26124574 .11099243 .31523133 .1349945 .35923768 .1619873 .40522767 .20899964 .426239 .24899292 .426239 .29299928 .426239 .33599855 .40423585 .3619995 .36123658 .3880005 .3182373 .3880005 .26023866 .3880005 .22224427Z"/>
<path id="font_1_105" d="M.33198548 .12385559V.18066406H.30699159V.12585449C.30699159 .052108766 .2769928 .014251709 .23999024 .014251709 .17298889 .014251709 .17298889 .10491943 .17298889 .12187195V.3996582H.31599427V.43066407H.17298889V.6142578H.147995C.14698792 .5324249 .116989139 .42565919 .018997193 .42166139V.3996582H.10398865V.12408447C.10398865 .0012512207 .19699097-.0107421879 .23298645-.0107421879 .3039856-.0107421879 .33198548 .060180665 .33198548 .12408447V.12385559Z"/>
<path id="font_1_28" d="M.48298646 .08912659V.14511109H.45799256V.08912659C.45799256 .03112793 .43299867 .025131226 .42199708 .025131226 .3889923 .025131226 .3849945 .070129398 .3849945 .07511902V.27508546C.3849945 .31707765 .3849945 .3560791 .34899903 .39312745 .30999757 .43223573 .2599945 .4482422 .21199036 .4482422 .12998963 .4482422 .06098938 .40115357 .06098938 .335083 .06098938 .30508424 .08099365 .28808595 .10699463 .28808595 .1349945 .28808595 .15299988 .30807496 .15299988 .33407594 .15299988 .3460846 .147995 .37908937 .101989749 .38008119 .1289978 .41519166 .17799378 .426239 .20999146 .426239 .25898744 .426239 .31599427 .38710023 .31599427 .29808045V.26107789C.2649994 .25808717 .19499207 .25508119 .13198853 .22509766 .056991579 .19110108 .03199768 .13911438 .03199768 .09512329 .03199768 .014251709 .1289978-.0107421879 .19198609-.0107421879 .2579956-.0107421879 .3039856 .029251099 .32299806 .07624817 .32699586 .036132814 .35398866-.005859375 .40098573-.005859375 .42199708-.005859375 .48298646 .008132935 .48298646 .08912659M.31599427 .14013672C.31599427 .04525757 .24398804 .011245728 .19898987 .011245728 .1499939 .011245728 .10899353 .04624939 .10899353 .09625244 .10899353 .15124512 .15098572 .23425293 .31599427 .24024964V.14013672Z"/>
<path id="font_1_72" d="M.25498963 0V.0309906C.18798828 .0309906 .1769867 .0309906 .1769867 .07601929V.69433596L.032989503 .6826172V.6516113C.102996829 .6516113 .11099243 .64460757 .11099243 .5956421V.07595825C.11099243 .0309906 .099990848 .0309906 .032989503 .0309906V0L.14399719 .0029907227 .25498963 0Z"/>
<path id="font_1_42" d="M.6649933 .23271179C.6649933 .24272156 .6649933 .24972534 .6519928 .24972534 .6409912 .24972534 .6409912 .24372864 .6399994 .23371887 .6319885 .09059143 .5249939 .008529663 .41600038 .008529663 .35499574 .008529663 .15899658 .042556764 .15899658 .34080506 .15899658 .64004519 .35398866 .67407229 .4149933 .67407229 .5239868 .67407229 .61299136 .58299258 .6329956 .4368744 .6349945 .42286683 .6349945 .41986085 .6489868 .41986085 .6649933 .41986085 .6649933 .42286683 .6649933 .44387818V.68107607C.6649933 .69807437 .6649933 .7050781 .6539917 .7050781 .6499939 .7050781 .6459961 .7050781 .6380005 .69306948L.58799746 .61901858C.5509949 .6550598 .5 .7050781 .4039917 .7050781 .21699524 .7050781 .055999757 .5459595 .055999757 .34179688 .055999757 .1346283 .21798706-.022460938 .4039917-.022460938 .5669861-.022460938 .6649933 .116622928 .6649933 .23271179Z"/>
<path id="font_1_98" d="M.3600006 .12823487C.3600006 .18122864 .32998658 .21122742 .31799317 .22323609 .2849884 .25523377 .24598694 .26322938 .20399475 .27124024 .147995 .28224183 .08099365 .29522706 .08099365 .35324098 .08099365 .38822938 .10699463 .42922975 .19299317 .42922975 .30299378 .42922975 .30799867 .3392334 .30999757 .30822755 .31098939 .2992401 .32199098 .2992401 .32199098 .2992401 .33499146 .2992401 .33499146 .30422975 .33499146 .32322694V.4242401C.33499146 .4412384 .33499146 .4482422 .32398988 .4482422 .31900025 .4482422 .31698609 .4482422 .3039856 .43623353 .30099488 .43223573 .29100038 .42323304 .2869873 .42022706 .24899292 .4482422 .20799256 .4482422 .19299317 .4482422 .070999149 .4482422 .032989503 .38124085 .032989503 .3252411 .032989503 .29023744 .04899597 .26223756 .07598877 .24023438 .10798645 .2142334 .13598633 .2082367 .20799256 .19422913 .22999573 .19021607 .31199647 .17422486 .31199647 .10221863 .31199647 .051223756 .2769928 .011245728 .19898987 .011245728 .114990238 .011245728 .07899475 .068222049 .05999756 .1532135 .056991579 .16621399 .055999757 .17021179 .04598999 .17021179 .032989503 .17021179 .032989503 .16322327 .032989503 .1452179V.013214111C.032989503-.003753662 .032989503-.0107421879 .04399109-.0107421879 .04899597-.0107421879 .049987794-.009750366 .068984989 .009246826 .070999149 .011245728 .070999149 .013214111 .08898926 .032226564 .1329956-.009750366 .17799378-.0107421879 .19898987-.0107421879 .31399537-.0107421879 .3600006 .05621338 .3600006 .1282196V.12823487Z"/>
<path id="font_2_1" d="M.7599945 .69506838C.7599945 .69807437 .7579956 .7050781 .7489929 .7050781 .74598696 .7050781 .7449951 .70407107 .73399356 .69306948L.6639862 .61602786C.6549988 .6300354 .60899356 .7050781 .49798585 .7050781 .2749939 .7050781 .049987794 .48391725 .049987794 .25172425 .049987794 .08659363 .16799927-.022460938 .32099916-.022460938 .4079895-.022460938 .48399354 .017532349 .5369873 .063583377 .6299896 .14564514 .6469879 .2367096 .6469879 .23971558 .6469879 .24972534 .6369934 .24972534 .6349945 .24972534 .6289978 .24972534 .6239929 .24772644 .621994 .23971558 .61299136 .21069336 .58999636 .13963318 .5209961 .081588748 .45199586 .025543213 .3889923 .008529663 .33699037 .008529663 .24699402 .008529663 .14099121 .060577394 .14099121 .21670532 .14099121 .27374269 .1619873 .43588258 .2619934 .55296328 .32299806 .62402346 .4169922 .67407229 .5059967 .67407229 .60798647 .67407229 .6669922 .5970001 .6669922 .48091126 .6669922 .44088746 .6639862 .43988038 .6639862 .4298706 .6639862 .41986085 .6749878 .41986085 .67900088 .41986085 .69200137 .41986085 .69200137 .42185975 .69699099 .43988038L.7599945 .69506838Z"/>
<path id="font_3_1" d="M.47299195 .31976319C.47299195 .38682557 .46998597 .47288514 .43499757 .5479431 .3909912 .64201357 .31498719 .6660156 .25698854 .6660156 .19699097 .6660156 .12098694 .64201357 .07699585 .5459442 .04499817 .47688294 .039993287 .39582826 .039993287 .31976319 .039993287 .25471498 .041992189 .15765381 .084991458 .07858276 .13198853-.0064697267 .20999146-.022460938 .2559967-.022460938 .32099916-.022460938 .394989 .0055389406 .43699647 .097595218 .46699525 .1646576 .47299195 .23971558 .47299195 .31976319M.25698854 .002532959C.22698975 .002532959 .15499878 .016540528 .13598633 .12962342 .12599182 .18867493 .12599182 .2747345 .12599182 .33177186 .12599182 .39982606 .12599182 .47888185 .13798523 .53393557 .1579895 .6230011 .22200012 .64100649 .2559967 .64100649 .2939911 .64100649 .35699464 .62098696 .37599183 .5279236 .3869934 .47288514 .3869934 .39482118 .3869934 .33177186 .3869934 .2697296 .3869934 .18566895 .3769989 .12661743 .35598756 .012542725 .28199769 .002532959 .25698854 .002532959Z"/>
<path id="font_3_2" d="M.3039856 .6392822C.3039856 .6642761 .30299378 .666275 .27799989 .666275 .21598816 .60227969 .12399292 .60227969 .09298706 .60227969V.57128909C.11199951 .57128909 .17298889 .57128909 .22698975 .5972748V.08001709C.22698975 .042999269 .22399903 .0309906 .1309967 .0309906H.09899902V0C.1349945 .0029907227 .22399903 .0029907227 .2649994 .0029907227 .30599977 .0029907227 .3959961 .0029907227 .43199159 0V.0309906H.3999939C.30699159 .0309906 .3039856 .042999269 .3039856 .08001709V.6392822Z"/>
<path id="font_3_3" d="M.46199037 .17704773H.43399049C.43199159 .16404724 .42399598 .10501099 .41099549 .08900452 .40499879 .07998657 .33599855 .07998657 .31599427 .07998657H.13798523L.23699951 .17404175C.40098573 .3161316 .46199037 .36915589 .46199037 .4711914 .46199037 .5860901 .36698915 .6660156 .24398804 .6660156 .1289978 .6660156 .050994874 .575119 .050994874 .4841919 .050994874 .43418885 .09399414 .42919923 .102996829 .42919923 .125 .42919923 .15499878 .44519044 .15499878 .48120118 .15499878 .51119998 .13398743 .5332031 .102996829 .5332031 .09799194 .5332031 .09498596 .5332031 .09098816 .53219607 .114990238 .6030731 .1789856 .63500979 .23298645 .63500979 .33499146 .63500979 .36999513 .5401764 .36999513 .4711914 .36999513 .36915589 .29299928 .28611756 .24499512 .23408509L.06199646 .035995485C.050994874 .024993897 .050994874 .022994996 .050994874 0H.43399049L.46199037 .17704773Z"/>
<path id="font_3_4" d="M.30499269 .35195924C.397995 .38697816 .44198609 .46006776 .44198609 .5290985 .44198609 .60606387 .35699464 .6660156 .25299073 .6660156 .14898682 .6660156 .070999149 .60705569 .070999149 .5310974 .070999149 .49809266 .09298706 .47909547 .12199402 .47909547 .15098572 .47909547 .17199707 .50009158 .17199707 .5290985 .17199707 .5640869 .147995 .57910159 .11399841 .57910159 .13999939 .6210327 .20098877 .64100649 .25 .64100649 .33299256 .64100649 .34899903 .5750885 .34899903 .52809146 .34899903 .49809266 .34298707 .45005799 .31799317 .41201783 .2869873 .36695863 .2519989 .36495973 .22299195 .36296083 .19799805 .36094667 .19599915 .36094667 .18798828 .36094667 .1789856 .35995484 .17098999 .35894776 .17098999 .34794618 .17098999 .33496095 .1789856 .33496095 .19599915 .33496095H.24299622C.32998658 .33496095 .36799623 .2646637 .36799623 .16937256 .36799623 .04145813 .2999878 .0055389406 .24899292 .0055389406 .22999573 .0055389406 .1329956 .010528564 .08799744 .0843811 .12399292 .07939148 .1519928 .10437012 .1519928 .13838196 .1519928 .17137146 .1269989 .19238281 .09799194 .19238281 .07299805 .19238281 .042999269 .17736817 .042999269 .13537598 .042999269 .046447755 .13598633-.022460938 .2519989-.022460938 .3769989-.022460938 .46998597 .06741333 .46998597 .16937256 .46998597 .25663758 .40098573 .33093263 .30499269 .35195924Z"/>
<path id="font_3_5" d="M.0289917 .19602967V.16503906H.3019867V.07901001C.3019867 .041992189 .29899598 .0309906 .22399903 .0309906H.20199585V0C.2649994 .0029907227 .33499146 .0029907227 .34199525 .0029907227 .34700013 .0029907227 .4189911 .0029907227 .48199464 0V.0309906H.45999146C.3849945 .0309906 .38198854 .041992189 .38198854 .07901001V.16503906H.48399354V.19602967H.38198854V.64974978C.38198854 .669754 .38198854 .6767578 .36299134 .6767578 .35099793 .6767578 .34999085 .67575076 .34098817 .66174319L.0289917 .19602967M.06098938 .19602967 .30799867 .56581118V.19602967H.06098938Z"/>
<path id="font_3_6" d="M.10398865 .3444519C.10398865 .32641603 .10398865 .31539918 .117996219 .31539918 .12599182 .31539918 .1289978 .31941224 .1349945 .32843019 .16499329 .3704834 .21299744 .39453126 .2649994 .39453126 .37199403 .39453126 .37199403 .24029541 .37199403 .20425415 .37199403 .17324829 .37199403 .11125183 .34399415 .06637573 .31698609 .024475098 .2749939 .0055389406 .23599243 .0055389406 .1769867 .0055389406 .10998535 .042434694 .085998538 .116256717 .08699036 .116256717 .09298706 .11425781 .099990848 .11425781 .11999512 .11425781 .14898682 .12724304 .14898682 .16325379 .14898682 .19424439 .1269989 .21224976 .099990848 .21224976 .07899475 .21224976 .050994874 .20025635 .050994874 .1602478 .050994874 .069366458 .1269989-.022460938 .23799134-.022460938 .35899354-.022460938 .46199037 .0753479 .46199037 .19924927 .46199037 .3204193 .37599183 .41952516 .2669983 .41952516 .21899414 .41952516 .16999817 .40351869 .1349945 .36747743V.56477358C.16499329 .5557709 .19599915 .55078127 .22698975 .55078127 .34999085 .55078127 .42199708 .6397705 .42199708 .652771 .42199708 .6617737 .41600038 .6657715 .41099549 .6657715 .40899659 .6657715 .40699769 .6657715 .397995 .6607666 .35099793 .6417694 .30499269 .6337738 .2630005 .6337738 .21998596 .6337738 .1749878 .6417694 .1289978 .6607666 .11898804 .6657715 .116989139 .6657715 .115997318 .6657715 .10398865 .6657715 .10398865 .655777 .10398865 .6387787V.3444519Z"/>
<path id="font_3_7" d="M.13398743 .33073426C.13398743 .43276979 .14498902 .4897766 .17199707 .54177859 .19198609 .58277896 .24099732 .64100649 .31498719 .64100649 .33499146 .64100649 .3809967 .63697817 .4039917 .6007843 .36698915 .6007843 .35099793 .5817871 .35099793 .55477908 .35099793 .5287781 .36898805 .50878909 .39698792 .50878909 .4249878 .50878909 .44400025 .5267792 .44400025 .55677798 .44400025 .612854 .4039917 .6660156 .31298829 .6660156 .18399048 .6660156 .042999269 .53878787 .042999269 .3157196 .042999269 .044555665 .16499329-.022460938 .25898744-.022460938 .36999513-.022460938 .46998597 .0705719 .46998597 .20265198 .46998597 .32972718 .37799073 .42578126 .2649994 .42578126 .20498657 .42578126 .1619873 .39076234 .13398743 .33073426M.2579956 .0055389406C.20098877 .0055389406 .16799927 .05256653 .1559906 .08157349 .13699341 .12660218 .13598633 .20965576 .13598633 .22566223 .13598633 .29270936 .16699219 .4007721 .2630005 .4007721 .2789917 .4007721 .32798768 .4007721 .3600006 .33872987 .3789978 .30070497 .3789978 .25167848 .3789978 .20365906 .3789978 .15562439 .3789978 .1065979 .3600006 .06956482 .32899476 .012542725 .2849884 .0055389406 .2579956 .0055389406Z"/>
<path id="font_3_8" d="M.48999024 .60954287C.49899293 .62054446 .49899293 .62254336 .49899293 .6435547H.25C.12399292 .6435547 .12098694 .6565399 .117996219 .67555239H.08999634L.056991579 .46655274H.084991458C.08898926 .48954774 .09700012 .5455475 .10998535 .55755618 .116989139 .56355288 .19599915 .56355288 .20999146 .56355288H.41999818L.32398988 .4325409C.19400025 .25354005 .18199158 .090530399 .18199158 .03353882 .18199158 .022537232 .18199158-.022460938 .22799683-.022460938 .2749939-.022460938 .2749939 .021530152 .2749939 .03453064V.08352661C.2749939 .23054505 .29699708 .34654237 .34999085 .41854859L.48999024 .60954287Z"/>
<path id="font_3_9" d="M.17199707 .45387269C.14199829 .47288514 .11898804 .4998932 .11898804 .53692629 .11898804 .6019745 .18899536 .64100649 .25498963 .64100649 .33198548 .64100649 .3939972 .58695986 .3939972 .51690676 .3939972 .44685365 .33399964 .40083314 .2939911 .37780763L.17199707 .45387269M.31900025 .36180116C.36898805 .38581849 .44198609 .43585206 .44198609 .51690676 .44198609 .6109772 .34799195 .6660156 .2579956 .6660156 .15299988 .6660156 .070999149 .5909729 .070999149 .49890138 .070999149 .46087647 .084991458 .42485047 .10899353 .39582826 .12599182 .3768158 .13198853 .37280274 .18998719 .3357849 .101989749 .29374696 .042999269 .23269654 .042999269 .15063477 .042999269 .044555665 .147995-.022460938 .2559967-.022460938 .37199403-.022460938 .46998597 .059570314 .46998597 .16764832 .46998597 .26472474 .3959961 .3127594 .37098695 .32876588 .3600006 .33677674 .33099366 .35479737 .31900025 .36180116M.21699524 .31877137 .34298707 .2407074C.3659973 .22569275 .41600038 .19366455 .41600038 .1326294 .41600038 .05357361 .33599855 .0055389406 .25698854 .0055389406 .16999817 .0055389406 .09700012 .06758118 .09700012 .15063477 .09700012 .22268677 .14698792 .28274537 .21699524 .31877137Z"/>
<path id="font_3_10" d="M.3789978 .31478883V.2927704C.3789978 .04875183 .2679901 .0055389406 .21099854 .0055389406 .18798828 .0055389406 .13699341 .009552002 .11099243 .042755128H.114990238C.12298584 .040740968 .1619873 .04875183 .1619873 .088760379 .1619873 .11476135 .14399719 .13476563 .115997318 .13476563 .08799744 .13476563 .068984989 .116760257 .068984989 .086761478 .068984989 .020629883 .12199402-.022460938 .21199036-.022460938 .34098817-.022460938 .46998597 .10975647 .46998597 .3287964 .46998597 .5999756 .34999085 .6660156 .2599945 .6660156 .14498902 .6660156 .042999269 .5729675 .042999269 .44187928 .042999269 .31478883 .1349945 .21875 .24798584 .21875 .32099916 .21875 .36099244 .27175904 .3789978 .31478883M.25 .2437439C.23399353 .2437439 .18499756 .2437439 .15299988 .30578614 .13398743 .34381105 .13398743 .39283753 .13398743 .4408722 .13398743 .48890687 .13398743 .5389404 .15499878 .57696536 .18499756 .628006 .22399903 .64100649 .2599945 .64100649 .32798768 .64100649 .35499574 .57196047 .35899354 .5619507 .37298585 .52493289 .3769989 .4638977 .3769989 .42086793 .3769989 .34780885 .34399415 .2437439 .25 .2437439Z"/>
<path id="font_1_65" d="M.33299256 0V.0309906H.30699159C.22799683 .0309906 .22499085 .041992189 .22499085 .07795715V.6046295C.22499085 .64060977 .22799683 .6516113 .30699159 .6516113H.33299256V.6826172C.2979889 .6796112 .21899414 .6796112 .18099976 .6796112 .14199829 .6796112 .06298828 .6796112 .027999878 .6826172V.6516113H.053985597C.1329956 .6516113 .13598633 .64060977 .13598633 .6046295V.07795715C.13598633 .041992189 .1329956 .0309906 .053985597 .0309906H.027999878V0C.06298828 .0029907227 .14199829 .0029907227 .17999268 .0029907227 .21899414 .0029907227 .2979889 .0029907227 .33299256 0Z"/>
<path id="font_1_50" d="M.4149933 .11933899C.4149933 .12934876 .40699769 .13134766 .4019928 .13134766 .3929901 .13134766 .3909912 .12535095 .3889923 .11734009 .35398866 .014251709 .2639923 .014251709 .2539978 .014251709 .20399475 .014251709 .1639862 .044281007 .14099121 .08131409 .11099243 .12934876 .11099243 .19540406 .11099243 .23144531H.3899994C.4119873 .23144531 .4149933 .23144531 .4149933 .2524414 .4149933 .35131837 .36099244 .4482422 .23599243 .4482422 .11999512 .4482422 .027999878 .34532167 .027999878 .22042847 .027999878 .08631897 .1329956-.0107421879 .24798584-.0107421879 .36999513-.0107421879 .4149933 .10032654 .4149933 .11933899M.34899903 .2524414H.11199951C.117996219 .40126039 .20199585 .426239 .23599243 .426239 .33898927 .426239 .34899903 .2913971 .34899903 .2524414Z"/>
<path id="font_1_75" d="M.8129883 0V.0309906C.7609863 .0309906 .73599246 .0309906 .7350006 .061019899V.25221253C.7350006 .3383026 .7350006 .36932374 .70399478 .405365 .6899872 .42237855 .6569977 .4423828 .598999 .4423828 .5149994 .4423828 .47099305 .38233949 .45399476 .34429933 .43998719 .43138124 .3659973 .4423828 .32099916 .4423828 .24798584 .4423828 .20098877 .39935304 .17298889 .33729554V.4423828L.03199768 .43066407V.3996582C.101989749 .3996582 .10998535 .39266969 .10998535 .34370423V.07595825C.10998535 .0309906 .09899902 .0309906 .03199768 .0309906V0L.14498902 .0029907227 .25698854 0V.0309906C.18998719 .0309906 .1789856 .0309906 .1789856 .07595825V.25978089C.1789856 .36431886 .25 .42037965 .31399537 .42037965 .3769989 .42037965 .3880005 .36631776 .3880005 .30926515V.076034549C.3880005 .0309906 .3769989 .0309906 .30999757 .0309906V0L.4229889 .0029907227 .5349884 0V.0309906C.46798707 .0309906 .45700074 .0309906 .45700074 .076034549V.2602234C.45700074 .36431886 .5279999 .42037965 .59199526 .42037965 .6549988 .42037965 .66600039 .36631776 .66600039 .30926515V.076034549C.66600039 .0309906 .6549988 .0309906 .58799746 .0309906V0L.70098879 .0029907227 .8129883 0Z"/>
<path id="font_4_1" d="M.44198609 .69781497C.43499757 .7108154 .43299867 .7158203 .41600038 .7158203 .39898683 .7158203 .39698792 .7108154 .3899994 .69781497L.051986696 .019989014C.04699707 .010986328 .04699707 .008987427 .04699707 .0079956059 .04699707 0 .052993776 0 .068984989 0H.7630005C.7789917 0 .7849884 0 .7849884 .0079956059 .7849884 .008987427 .7849884 .010986328 .7799988 .019989014L.44198609 .69781497M.38398744 .61582949 .6529999 .07598877H.11399841L.38398744 .61582949Z"/>
<path id="font_5_1" d="M.6749878 .22944641C.69299319 .22944641 .71199038 .22944641 .71199038 .25144959 .71199038 .27246095 .69200137 .27246095 .6749878 .27246095H.12298584C.10598755 .27246095 .085998538 .27246095 .085998538 .25144959 .085998538 .22944641 .10499573 .22944641 .12298584 .22944641H.6749878Z"/>
</defs>
<path transform="matrix(1.00003,0,0,-1.00003,15.663818,188.85431)" stroke-width=".3985" stroke-linecap="butt" stroke-miterlimit="10" stroke-linejoin="miter" fill="none" stroke="#000000" d="M0 0H136.0652"/>
<path transform="matrix(1.00003,0,0,-1.00003,15.663818,188.85431)" stroke-width=".3985" stroke-linecap="butt" stroke-miterlimit="10" stroke-linejoin="miter" fill="none" stroke="#000000" d="M0 14.17339H136.0652"/>
<path transform="matrix(1.00003,0,0,-1.00003,15.663818,188.85431)" stroke-width=".3985" stroke-linecap="butt" stroke-miterlimit="10" stroke-linejoin="miter" fill="none" stroke="#000000" d="M0 28.3468H136.0652"/>
<path transform="matrix(1.00003,0,0,-1.00003,15.663818,188.85431)" stroke-width=".3985" stroke-linecap="butt" stroke-miterlimit="10" stroke-linejoin="miter" fill="none" stroke="#000000" d="M0 42.5202H136.0652"/>
<path transform="matrix(1.00003,0,0,-1.00003,15.663818,188.85431)" stroke-width=".3985" stroke-linecap="butt" stroke-miterlimit="10" stroke-linejoin="miter" fill="none" stroke="#000000" d="M0 56.69362H136.0652"/>
<path transform="matrix(1.00003,0,0,-1.00003,15.663818,188.85431)" stroke-width=".3985" stroke-linecap="butt" stroke-miterlimit="10" stroke-linejoin="miter" fill="none" stroke="#000000" d="M0 70.867H136.0652"/>
<path transform="matrix(1.00003,0,0,-1.00003,15.663818,188.85431)" stroke-width=".3985" stroke-linecap="butt" stroke-miterlimit="10" stroke-linejoin="miter" fill="none" stroke="#000000" d="M0 85.04042H136.0652"/>
<path transform="matrix(1.00003,0,0,-1.00003,15.663818,188.85431)" stroke-width=".3985" stroke-linecap="butt" stroke-miterlimit="10" stroke-linejoin="miter" fill="none" stroke="#000000" d="M0 99.21382H136.0652"/>
<path transform="matrix(1.00003,0,0,-1.00003,15.663818,188.85431)" stroke-width=".3985" stroke-linecap="butt" stroke-miterlimit="10" stroke-linejoin="miter" fill="none" stroke="#000000" d="M0 113.38724H136.0652"/>
<path transform="matrix(1.00003,0,0,-1.00003,15.663818,188.85431)" stroke-width=".3985" stroke-linecap="butt" stroke-miterlimit="10" stroke-linejoin="miter" fill="none" stroke="#000000" d="M0 127.56062H136.0652"/>
<path transform="matrix(1.00003,0,0,-1.00003,15.663818,188.85431)" stroke-width=".3985" stroke-linecap="butt" stroke-miterlimit="10" stroke-linejoin="miter" fill="none" stroke="#000000" d="M0 141.73404H136.0652"/>
<path transform="matrix(1.00003,0,0,-1.00003,15.663818,188.85431)" stroke-width=".3985" stroke-linecap="butt" stroke-miterlimit="10" stroke-linejoin="miter" fill="none" stroke="#000000" d="M0 155.90744H136.0652"/>
<path transform="matrix(1.00003,0,0,-1.00003,15.663818,188.85431)" stroke-width=".3985" stroke-linecap="butt" stroke-miterlimit="10" stroke-linejoin="miter" fill="none" stroke="#000000" d="M0 170.08086H136.0652"/>
<path transform="matrix(1.00003,0,0,-1.00003,15.663818,188.85431)" stroke-width=".79701" stroke-linecap="butt" stroke-dasharray=".79701,1.99255" stroke-miterlimit="10" stroke-linejoin="miter" fill="none" stroke="#000000" d="M0 7.08669H136.0652"/>
<path transform="matrix(1.00003,0,0,-1.00003,15.663818,188.85431)" stroke-width=".79701" stroke-linecap="butt" stroke-dasharray=".79701,1.99255" stroke-miterlimit="10" stroke-linejoin="miter" fill="none" stroke="#000000" d="M0 21.2601H136.0652"/>
<path transform="matrix(1.00003,0,0,-1.00003,15.663818,188.85431)" stroke-width=".79701" stroke-linecap="butt" stroke-dasharray=".79701,1.99255" stroke-miterlimit="10" stroke-linejoin="miter" fill="none" stroke="#000000" d="M0 35.43349H136.0652"/>
<path transform="matrix(1.00003,0,0,-1.00003,15.663818,188.85431)" stroke-width=".79701" stroke-linecap="butt" stroke-dasharray=".79701,1.99255" stroke-miterlimit="10" stroke-linejoin="miter" fill="none" stroke="#000000" d="M0 49.6069H136.0652"/>
<path transform="matrix(1.00003,0,0,-1.00003,15.663818,188.85431)" stroke-width=".79701" stroke-linecap="butt" stroke-dasharray=".79701,1.99255" stroke-miterlimit="10" stroke-linejoin="miter" fill="none" stroke="#000000" d="M0 63.7803H136.0652"/>
<path transform="matrix(1.00003,0,0,-1.00003,15.663818,188.85431)" stroke-width=".79701" stroke-linecap="butt" stroke-dasharray=".79701,1.99255" stroke-miterlimit="10" stroke-linejoin="miter" fill="none" stroke="#000000" d="M0 77.95372H136.0652"/>
<path transform="matrix(1.00003,0,0,-1.00003,15.663818,188.85431)" stroke-width=".79701" stroke-linecap="butt" stroke-dasharray=".79701,1.99255" stroke-miterlimit="10" stroke-linejoin="miter" fill="none" stroke="#000000" d="M0 92.1271H136.0652"/>
<path transform="matrix(1.00003,0,0,-1.00003,15.663818,188.85431)" stroke-width=".79701" stroke-linecap="butt" stroke-dasharray=".79701,1.99255" stroke-miterlimit="10" stroke-linejoin="miter" fill="none" stroke="#000000" d="M0 106.30052H136.0652"/>
<path transform="matrix(1.00003,0,0,-1.00003,15.663818,188.85431)" stroke-width=".79701" stroke-linecap="butt" stroke-dasharray=".79701,1.99255" stroke-miterlimit="10" stroke-linejoin="miter" fill="none" stroke="#000000" d="M0 120.47392H136.0652"/>
<path transform="matrix(1.00003,0,0,-1.00003,15.663818,188.85431)" stroke-width=".79701" stroke-linecap="butt" stroke-dasharray=".79701,1.99255" stroke-miterlimit="10" stroke-linejoin="miter" fill="none" stroke="#000000" d="M0 134.64734H136.0652"/>
<path transform="matrix(1.00003,0,0,-1.00003,15.663818,188.85431)" stroke-width=".79701" stroke-linecap="butt" stroke-dasharray=".79701,1.99255" stroke-miterlimit="10" stroke-linejoin="miter" fill="none" stroke="#000000" d="M0 148.82074H136.0652"/>
<path transform="matrix(1.00003,0,0,-1.00003,15.663818,188.85431)" stroke-width=".79701" stroke-linecap="butt" stroke-dasharray=".79701,1.99255" stroke-miterlimit="10" stroke-linejoin="miter" fill="none" stroke="#000000" d="M0 162.99414H136.0652"/>
<path transform="matrix(1.00003,0,0,-1.00003,15.663818,188.85431)" stroke-width=".3985" stroke-linecap="butt" stroke-miterlimit="10" stroke-linejoin="miter" fill="none" stroke="#000000" d="M0 0H132.47866"/>
<path transform="matrix(1.00003,0,0,-1.00003,148.14646,188.85431)" d="M3.58653 0C2.52383 .19925 .797 .797-.3985 1.49438V-1.49438C.797-.797 2.52383-.19925 3.58653 0"/>
<path transform="matrix(1.00003,0,0,-1.00003,15.663818,188.85431)" stroke-width=".3985" stroke-linecap="butt" stroke-miterlimit="10" stroke-linejoin="miter" fill="none" stroke="#000000" d="M0 0V173.581"/>
<path transform="matrix(0,-1.00003,-1.00003,-0,15.663818,15.268097)" d="M3.58653 0C2.52383 .19925 .797 .797-.3985 1.49438V-1.49438C.797-.797 2.52383-.19925 3.58653 0"/>
<use data-text="T" xlink:href="#font_1_104" transform="matrix(9.962899,0,0,-9.962899,19.18393,7.9418795)"/>
<use data-text="o" xlink:href="#font_1_81" transform="matrix(9.962899,0,0,-9.962899,25.550232,7.9418795)"/>
<use data-text="t" xlink:href="#font_1_105" transform="matrix(9.962899,0,0,-9.962899,30.531678,7.9418795)"/>
<use data-text="a" xlink:href="#font_1_28" transform="matrix(9.962899,0,0,-9.962899,34.40724,7.9418795)"/>
<use data-text="l" xlink:href="#font_1_72" transform="matrix(9.962899,0,0,-9.962899,39.388689,7.9418795)"/>
<use data-text="C" xlink:href="#font_1_42" transform="matrix(9.962899,0,0,-9.962899,45.466066,7.9418795)"/>
<use data-text="o" xlink:href="#font_1_81" transform="matrix(9.962899,0,0,-9.962899,52.65927,7.9418795)"/>
<use data-text="s" xlink:href="#font_1_98" transform="matrix(9.962899,0,0,-9.962899,57.640718,7.9418795)"/>
<use data-text="t" xlink:href="#font_1_105" transform="matrix(9.962899,0,0,-9.962899,61.5661,7.9418795)"/>
<use data-text="C" xlink:href="#font_2_1" transform="matrix(9.962899,0,0,-9.962899,68.769428,7.9418795)"/>
<use data-text="0" xlink:href="#font_3_1" transform="matrix(8.966669,0,0,-8.966669,13.359756,200.14565)"/>
<use data-text="1" xlink:href="#font_3_2" transform="matrix(8.966669,0,0,-8.966669,36.03843,200.14565)"/>
<use data-text="2" xlink:href="#font_3_3" transform="matrix(8.966669,0,0,-8.966669,58.71611,200.14565)"/>
<use data-text="3" xlink:href="#font_3_4" transform="matrix(8.966669,0,0,-8.966669,81.39479,200.14565)"/>
<use data-text="4" xlink:href="#font_3_5" transform="matrix(8.966669,0,0,-8.966669,104.07247,200.14565)"/>
<use data-text="5" xlink:href="#font_3_6" transform="matrix(8.966669,0,0,-8.966669,126.75115,200.14565)"/>
<use data-text="0" xlink:href="#font_3_1" transform="matrix(8.966669,0,0,-8.966669,5.543518,191.7434)"/>
<use data-text="1" xlink:href="#font_3_2" transform="matrix(8.966669,0,0,-8.966669,5.543518,177.56998)"/>
<use data-text="2" xlink:href="#font_3_3" transform="matrix(8.966669,0,0,-8.966669,5.543518,163.39554)"/>
<use data-text="3" xlink:href="#font_3_4" transform="matrix(8.966669,0,0,-8.966669,5.543518,149.22212)"/>
<use data-text="4" xlink:href="#font_3_5" transform="matrix(8.966669,0,0,-8.966669,5.543518,135.04869)"/>
<use data-text="5" xlink:href="#font_3_6" transform="matrix(8.966669,0,0,-8.966669,5.543518,120.87427)"/>
<use data-text="6" xlink:href="#font_3_7" transform="matrix(8.966669,0,0,-8.966669,5.543518,106.70084)"/>
<use data-text="7" xlink:href="#font_3_8" transform="matrix(8.966669,0,0,-8.966669,5.543518,92.52642)"/>
<use data-text="8" xlink:href="#font_3_9" transform="matrix(8.966669,0,0,-8.966669,5.543518,78.35299)"/>
<use data-text="9" xlink:href="#font_3_10" transform="matrix(8.966669,0,0,-8.966669,5.543518,64.179569)"/>
<use data-text="1" xlink:href="#font_3_2" transform="matrix(8.966669,0,0,-8.966669,.935379,50.005144)"/>
<use data-text="0" xlink:href="#font_3_1" transform="matrix(8.966669,0,0,-8.966669,5.5352785,50.005144)"/>
<use data-text="1" xlink:href="#font_3_2" transform="matrix(8.966669,0,0,-8.966669,.935379,35.83171)"/>
<use data-text="1" xlink:href="#font_3_2" transform="matrix(8.966669,0,0,-8.966669,5.5352785,35.83171)"/>
<use data-text="1" xlink:href="#font_3_2" transform="matrix(8.966669,0,0,-8.966669,.935379,21.657288)"/>
<use data-text="2" xlink:href="#font_3_3" transform="matrix(8.966669,0,0,-8.966669,5.5352785,21.657288)"/>
<path transform="matrix(1.00003,0,0,-1.00003,15.663818,188.85431)" stroke-width=".09962" stroke-linecap="butt" stroke-miterlimit="10" stroke-linejoin="miter" fill="none" stroke="#000000" d="M22.67752 0V173.62419"/>
<path transform="matrix(1.00003,0,0,-1.00003,15.663818,188.85431)" stroke-width=".09962" stroke-linecap="butt" stroke-miterlimit="10" stroke-linejoin="miter" fill="none" stroke="#000000" d="M45.35506 0V173.62419"/>
<path transform="matrix(1.00003,0,0,-1.00003,15.663818,188.85431)" stroke-width=".09962" stroke-linecap="butt" stroke-miterlimit="10" stroke-linejoin="miter" fill="none" stroke="#000000" d="M68.0326 0V173.62419"/>
<path transform="matrix(1.00003,0,0,-1.00003,15.663818,188.85431)" stroke-width=".09962" stroke-linecap="butt" stroke-miterlimit="10" stroke-linejoin="miter" fill="none" stroke="#000000" d="M90.71013 0V173.62419"/>
<path transform="matrix(1.00003,0,0,-1.00003,15.663818,188.85431)" stroke-width=".09962" stroke-linecap="butt" stroke-miterlimit="10" stroke-linejoin="miter" fill="none" stroke="#000000" d="M113.38766 0V173.62419"/>
<g>
<path transform="matrix(1.00003,0,0,-1.00003,15.663818,188.85431)" d="M5.66936 14.17339V0H-5.66936V14.17339ZM-5.66936 0" fill="#0000ff" fill-opacity=".3"/>
<path transform="matrix(1.00003,0,0,-1.00003,15.663818,188.85431)" stroke-width=".3985" stroke-linecap="butt" stroke-miterlimit="10" stroke-linejoin="miter" fill="none" stroke="#000000" stroke-opacity=".3" d="M5.66936 14.17339V0H-5.66936V14.17339ZM-5.66936 0"/>
</g>
<path transform="matrix(1.00003,0,0,-1.00003,15.663818,188.85431)" stroke-width=".79701" stroke-linecap="butt" stroke-miterlimit="10" stroke-linejoin="miter" fill="none" stroke="#000000" d="M5.66936 14.17339V0H-5.66936V14.17339ZM-5.66936 0"/>
<path transform="matrix(1.00003,0,0,-1.00003,15.663818,188.85431)" d="M3.52272 14.17339C3.52272 16.11896 1.94556 17.69612 0 17.69612-1.94556 17.69612-3.52272 16.11896-3.52272 14.17339-3.52272 12.22783-1.94556 10.65067 0 10.65067 1.94556 10.65067 3.52272 12.22783 3.52272 14.17339ZM0 14.17339" fill="#0000ff"/>
<path transform="matrix(1.00003,0,0,-1.00003,15.663818,188.85431)" stroke-width=".3985" stroke-linecap="butt" stroke-miterlimit="10" stroke-linejoin="miter" fill="none" stroke="#000000" d="M3.52272 14.17339C3.52272 16.11896 1.94556 17.69612 0 17.69612-1.94556 17.69612-3.52272 16.11896-3.52272 14.17339-3.52272 12.22783-1.94556 10.65067 0 10.65067 1.94556 10.65067 3.52272 12.22783 3.52272 14.17339ZM0 14.17339"/>
<g>
<path transform="matrix(1.00003,0,0,-1.00003,15.663818,188.85431)" d="M28.3469 42.5202V0H17.00813V42.5202ZM17.00813 0" fill="#0000ff" fill-opacity=".3"/>
<path transform="matrix(1.00003,0,0,-1.00003,15.663818,188.85431)" stroke-width=".3985" stroke-linecap="butt" stroke-miterlimit="10" stroke-linejoin="miter" fill="none" stroke="#000000" stroke-opacity=".3" d="M28.3469 42.5202V0H17.00813V42.5202ZM17.00813 0"/>
</g>
<path transform="matrix(1.00003,0,0,-1.00003,15.663818,188.85431)" stroke-width=".79701" stroke-linecap="butt" stroke-miterlimit="10" stroke-linejoin="miter" fill="none" stroke="#000000" d="M28.3469 42.5202V0H17.00813V42.5202ZM17.00813 0"/>
<path transform="matrix(1.00003,0,0,-1.00003,15.663818,188.85431)" d="M26.20024 42.5202C26.20024 44.46576 24.62308 46.04292 22.67752 46.04292 20.73195 46.04292 19.15479 44.46576 19.15479 42.5202 19.15479 40.57463 20.73195 38.99748 22.67752 38.99748 24.62308 38.99748 26.20024 40.57463 26.20024 42.5202ZM22.67752 42.5202" fill="#0000ff"/>
<path transform="matrix(1.00003,0,0,-1.00003,15.663818,188.85431)" stroke-width=".3985" stroke-linecap="butt" stroke-miterlimit="10" stroke-linejoin="miter" fill="none" stroke="#000000" d="M26.20024 42.5202C26.20024 44.46576 24.62308 46.04292 22.67752 46.04292 20.73195 46.04292 19.15479 44.46576 19.15479 42.5202 19.15479 40.57463 20.73195 38.99748 22.67752 38.99748 24.62308 38.99748 26.20024 40.57463 26.20024 42.5202ZM22.67752 42.5202"/>
<g>
<path transform="matrix(1.00003,0,0,-1.00003,15.663818,188.85431)" d="M51.02443 70.867V0H39.68567V70.867ZM39.68567 0" fill="#0000ff" fill-opacity=".3"/>
<path transform="matrix(1.00003,0,0,-1.00003,15.663818,188.85431)" stroke-width=".3985" stroke-linecap="butt" stroke-miterlimit="10" stroke-linejoin="miter" fill="none" stroke="#000000" stroke-opacity=".3" d="M51.02443 70.867V0H39.68567V70.867ZM39.68567 0"/>
</g>
<path transform="matrix(1.00003,0,0,-1.00003,15.663818,188.85431)" stroke-width=".79701" stroke-linecap="butt" stroke-miterlimit="10" stroke-linejoin="miter" fill="none" stroke="#000000" d="M51.02443 70.867V0H39.68567V70.867ZM39.68567 0"/>
<path transform="matrix(1.00003,0,0,-1.00003,15.663818,188.85431)" d="M48.87778 70.867C48.87778 72.81258 47.30061 74.38974 45.35506 74.38974 43.40948 74.38974 41.83232 72.81258 41.83232 70.867 41.83232 68.92145 43.40948 67.34428 45.35506 67.34428 47.30061 67.34428 48.87778 68.92145 48.87778 70.867ZM45.35506 70.867" fill="#0000ff"/>
<path transform="matrix(1.00003,0,0,-1.00003,15.663818,188.85431)" stroke-width=".3985" stroke-linecap="butt" stroke-miterlimit="10" stroke-linejoin="miter" fill="none" stroke="#000000" d="M48.87778 70.867C48.87778 72.81258 47.30061 74.38974 45.35506 74.38974 43.40948 74.38974 41.83232 72.81258 41.83232 70.867 41.83232 68.92145 43.40948 67.34428 45.35506 67.34428 47.30061 67.34428 48.87778 68.92145 48.87778 70.867ZM45.35506 70.867"/>
<g>
<path transform="matrix(1.00003,0,0,-1.00003,15.663818,188.85431)" d="M73.70197 99.21382V0H62.3632V99.21382ZM62.3632 0" fill="#0000ff" fill-opacity=".3"/>
<path transform="matrix(1.00003,0,0,-1.00003,15.663818,188.85431)" stroke-width=".3985" stroke-linecap="butt" stroke-miterlimit="10" stroke-linejoin="miter" fill="none" stroke="#000000" stroke-opacity=".3" d="M73.70197 99.21382V0H62.3632V99.21382ZM62.3632 0"/>
</g>
<path transform="matrix(1.00003,0,0,-1.00003,15.663818,188.85431)" stroke-width=".79701" stroke-linecap="butt" stroke-miterlimit="10" stroke-linejoin="miter" fill="none" stroke="#000000" d="M73.70197 99.21382V0H62.3632V99.21382ZM62.3632 0"/>
<path transform="matrix(1.00003,0,0,-1.00003,15.663818,188.85431)" d="M71.55531 99.21382C71.55531 101.15938 69.97815 102.73654 68.0326 102.73654 66.08702 102.73654 64.50986 101.15938 64.50986 99.21382 64.50986 97.26825 66.08702 95.6911 68.0326 95.6911 69.97815 95.6911 71.55531 97.26825 71.55531 99.21382ZM68.0326 99.21382" fill="#0000ff"/>
<path transform="matrix(1.00003,0,0,-1.00003,15.663818,188.85431)" stroke-width=".3985" stroke-linecap="butt" stroke-miterlimit="10" stroke-linejoin="miter" fill="none" stroke="#000000" d="M71.55531 99.21382C71.55531 101.15938 69.97815 102.73654 68.0326 102.73654 66.08702 102.73654 64.50986 101.15938 64.50986 99.21382 64.50986 97.26825 66.08702 95.6911 68.0326 95.6911 69.97815 95.6911 71.55531 97.26825 71.55531 99.21382ZM68.0326 99.21382"/>
<g>
<path transform="matrix(1.00003,0,0,-1.00003,15.663818,188.85431)" d="M96.3795 127.56062V0H85.04074V127.56062ZM85.04074 0" fill="#0000ff" fill-opacity=".3"/>
<path transform="matrix(1.00003,0,0,-1.00003,15.663818,188.85431)" stroke-width=".3985" stroke-linecap="butt" stroke-miterlimit="10" stroke-linejoin="miter" fill="none" stroke="#000000" stroke-opacity=".3" d="M96.3795 127.56062V0H85.04074V127.56062ZM85.04074 0"/>
</g>
<path transform="matrix(1.00003,0,0,-1.00003,15.663818,188.85431)" stroke-width=".79701" stroke-linecap="butt" stroke-miterlimit="10" stroke-linejoin="miter" fill="none" stroke="#000000" d="M96.3795 127.56062V0H85.04074V127.56062ZM85.04074 0"/>
<path transform="matrix(1.00003,0,0,-1.00003,15.663818,188.85431)" d="M94.23285 127.56062C94.23285 129.5062 92.65569 131.08336 90.71013 131.08336 88.76456 131.08336 87.1874 129.5062 87.1874 127.56062 87.1874 125.61507 88.76456 124.0379 90.71013 124.0379 92.65569 124.0379 94.23285 125.61507 94.23285 127.56062ZM90.71013 127.56062" fill="#0000ff"/>
<path transform="matrix(1.00003,0,0,-1.00003,15.663818,188.85431)" stroke-width=".3985" stroke-linecap="butt" stroke-miterlimit="10" stroke-linejoin="miter" fill="none" stroke="#000000" d="M94.23285 127.56062C94.23285 129.5062 92.65569 131.08336 90.71013 131.08336 88.76456 131.08336 87.1874 129.5062 87.1874 127.56062 87.1874 125.61507 88.76456 124.0379 90.71013 124.0379 92.65569 124.0379 94.23285 125.61507 94.23285 127.56062ZM90.71013 127.56062"/>
<g>
<path transform="matrix(1.00003,0,0,-1.00003,15.663818,188.85431)" d="M119.05704 155.90744V0H107.71828V155.90744ZM107.71828 0" fill="#0000ff" fill-opacity=".3"/>
<path transform="matrix(1.00003,0,0,-1.00003,15.663818,188.85431)" stroke-width=".3985" stroke-linecap="butt" stroke-miterlimit="10" stroke-linejoin="miter" fill="none" stroke="#000000" stroke-opacity=".3" d="M119.05704 155.90744V0H107.71828V155.90744ZM107.71828 0"/>
</g>
<path transform="matrix(1.00003,0,0,-1.00003,15.663818,188.85431)" stroke-width=".79701" stroke-linecap="butt" stroke-miterlimit="10" stroke-linejoin="miter" fill="none" stroke="#000000" d="M119.05704 155.90744V0H107.71828V155.90744ZM107.71828 0"/>
<path transform="matrix(1.00003,0,0,-1.00003,15.663818,188.85431)" d="M116.91039 155.90744C116.91039 157.853 115.33322 159.43016 113.38766 159.43016 111.4421 159.43016 109.86493 157.853 109.86493 155.90744 109.86493 153.96187 111.4421 152.38472 113.38766 152.38472 115.33322 152.38472 116.91039 153.96187 116.91039 155.90744ZM113.38766 155.90744" fill="#0000ff"/>
<path transform="matrix(1.00003,0,0,-1.00003,15.663818,188.85431)" stroke-width=".3985" stroke-linecap="butt" stroke-miterlimit="10" stroke-linejoin="miter" fill="none" stroke="#000000" d="M116.91039 155.90744C116.91039 157.853 115.33322 159.43016 113.38766 159.43016 111.4421 159.43016 109.86493 157.853 109.86493 155.90744 109.86493 153.96187 111.4421 152.38472 113.38766 152.38472 115.33322 152.38472 116.91039 153.96187 116.91039 155.90744ZM113.38766 155.90744"/>
<path transform="matrix(1.00003,0,0,-1.00003,188.94106,128.17449)" stroke-width=".3985" stroke-linecap="butt" stroke-miterlimit="10" stroke-linejoin="miter" fill="none" stroke="#000000" d="M0-56.69362H136.0652"/>
<path transform="matrix(1.00003,0,0,-1.00003,188.94106,128.17449)" stroke-width=".3985" stroke-linecap="butt" stroke-miterlimit="10" stroke-linejoin="miter" fill="none" stroke="#000000" d="M0-42.5202H136.0652"/>
<path transform="matrix(1.00003,0,0,-1.00003,188.94106,128.17449)" stroke-width=".3985" stroke-linecap="butt" stroke-miterlimit="10" stroke-linejoin="miter" fill="none" stroke="#000000" d="M0-28.3468H136.0652"/>
<path transform="matrix(1.00003,0,0,-1.00003,188.94106,128.17449)" stroke-width=".3985" stroke-linecap="butt" stroke-miterlimit="10" stroke-linejoin="miter" fill="none" stroke="#000000" d="M0-14.17339H136.0652"/>
<path transform="matrix(1.00003,0,0,-1.00003,188.94106,128.17449)" stroke-width=".3985" stroke-linecap="butt" stroke-miterlimit="10" stroke-linejoin="miter" fill="none" stroke="#000000" d="M0 0H136.0652"/>
<path transform="matrix(1.00003,0,0,-1.00003,188.94106,128.17449)" stroke-width=".3985" stroke-linecap="butt" stroke-miterlimit="10" stroke-linejoin="miter" fill="none" stroke="#000000" d="M0 14.17339H136.0652"/>
<path transform="matrix(1.00003,0,0,-1.00003,188.94106,128.17449)" stroke-width=".3985" stroke-linecap="butt" stroke-miterlimit="10" stroke-linejoin="miter" fill="none" stroke="#000000" d="M0 28.3468H136.0652"/>
<path transform="matrix(1.00003,0,0,-1.00003,188.94106,128.17449)" stroke-width=".3985" stroke-linecap="butt" stroke-miterlimit="10" stroke-linejoin="miter" fill="none" stroke="#000000" d="M0 42.5202H136.0652"/>
<path transform="matrix(1.00003,0,0,-1.00003,188.94106,128.17449)" stroke-width=".3985" stroke-linecap="butt" stroke-miterlimit="10" stroke-linejoin="miter" fill="none" stroke="#000000" d="M0 56.69362H136.0652"/>
<path transform="matrix(1.00003,0,0,-1.00003,188.94106,128.17449)" stroke-width=".79701" stroke-linecap="butt" stroke-dasharray=".79701,1.99255" stroke-miterlimit="10" stroke-linejoin="miter" fill="none" stroke="#000000" d="M0-49.6069H136.0652"/>
<path transform="matrix(1.00003,0,0,-1.00003,188.94106,128.17449)" stroke-width=".79701" stroke-linecap="butt" stroke-dasharray=".79701,1.99255" stroke-miterlimit="10" stroke-linejoin="miter" fill="none" stroke="#000000" d="M0-35.43349H136.0652"/>
<path transform="matrix(1.00003,0,0,-1.00003,188.94106,128.17449)" stroke-width=".79701" stroke-linecap="butt" stroke-dasharray=".79701,1.99255" stroke-miterlimit="10" stroke-linejoin="miter" fill="none" stroke="#000000" d="M0-21.2601H136.0652"/>
<path transform="matrix(1.00003,0,0,-1.00003,188.94106,128.17449)" stroke-width=".79701" stroke-linecap="butt" stroke-dasharray=".79701,1.99255" stroke-miterlimit="10" stroke-linejoin="miter" fill="none" stroke="#000000" d="M0-7.08669H136.0652"/>
<path transform="matrix(1.00003,0,0,-1.00003,188.94106,128.17449)" stroke-width=".79701" stroke-linecap="butt" stroke-dasharray=".79701,1.99255" stroke-miterlimit="10" stroke-linejoin="miter" fill="none" stroke="#000000" d="M0 7.08669H136.0652"/>
<path transform="matrix(1.00003,0,0,-1.00003,188.94106,128.17449)" stroke-width=".79701" stroke-linecap="butt" stroke-dasharray=".79701,1.99255" stroke-miterlimit="10" stroke-linejoin="miter" fill="none" stroke="#000000" d="M0 21.2601H136.0652"/>
<path transform="matrix(1.00003,0,0,-1.00003,188.94106,128.17449)" stroke-width=".79701" stroke-linecap="butt" stroke-dasharray=".79701,1.99255" stroke-miterlimit="10" stroke-linejoin="miter" fill="none" stroke="#000000" d="M0 35.43349H136.0652"/>
<path transform="matrix(1.00003,0,0,-1.00003,188.94106,128.17449)" stroke-width=".79701" stroke-linecap="butt" stroke-dasharray=".79701,1.99255" stroke-miterlimit="10" stroke-linejoin="miter" fill="none" stroke="#000000" d="M0 49.6069H136.0652"/>
<path transform="matrix(1.00003,0,0,-1.00003,188.94106,128.17449)" stroke-width=".3985" stroke-linecap="butt" stroke-miterlimit="10" stroke-linejoin="miter" fill="none" stroke="#000000" d="M0 0H132.47866"/>
<path transform="matrix(1.00003,0,0,-1.00003,321.4237,128.17449)" d="M3.58653 0C2.52383 .19925 .797 .797-.3985 1.49438V-1.49438C.797-.797 2.52383-.19925 3.58653 0"/>
<path transform="matrix(1.00003,0,0,-1.00003,188.94106,128.17449)" stroke-width=".3985" stroke-linecap="butt" stroke-miterlimit="10" stroke-linejoin="miter" fill="none" stroke="#000000" d="M0-60.19376V60.19376"/>
<path transform="matrix(0,1.00003,1.00003,0,188.94106,188.37006)" d="M3.58653 0C2.52383 .19925 .797 .797-.3985 1.49438V-1.49438C.797-.797 2.52383-.19925 3.58653 0"/>
<path transform="matrix(0,-1.00003,-1.00003,-0,188.94106,67.97891)" d="M3.58653 0C2.52383 .19925 .797 .797-.3985 1.49438V-1.49438C.797-.797 2.52383-.19925 3.58653 0"/>
<use data-text="I" xlink:href="#font_1_65" transform="matrix(9.962899,0,0,-9.962899,192.46117,60.653459)"/>
<use data-text="t" xlink:href="#font_1_105" transform="matrix(9.962899,0,0,-9.962899,196.05776,60.653459)"/>
<use data-text="e" xlink:href="#font_1_50" transform="matrix(9.962899,0,0,-9.962899,199.93334,60.653459)"/>
<use data-text="m" xlink:href="#font_1_75" transform="matrix(9.962899,0,0,-9.962899,204.35686,60.653459)"/>
<use data-text="C" xlink:href="#font_1_42" transform="matrix(9.962899,0,0,-9.962899,215.97362,60.653459)"/>
<use data-text="o" xlink:href="#font_1_81" transform="matrix(9.962899,0,0,-9.962899,223.16683,60.653459)"/>
<use data-text="s" xlink:href="#font_1_98" transform="matrix(9.962899,0,0,-9.962899,228.14827,60.653459)"/>
<use data-text="t" xlink:href="#font_1_105" transform="matrix(9.962899,0,0,-9.962899,232.07366,60.653459)"/>
<use data-text="&#x2206;" xlink:href="#font_4_1" transform="matrix(9.962899,0,0,-9.962899,239.26757,60.653459)"/>
<use data-text="C" xlink:href="#font_2_1" transform="matrix(9.962899,0,0,-9.962899,247.56981,60.653459)"/>
<use data-text="1" xlink:href="#font_3_2" transform="matrix(8.966669,0,0,-8.966669,209.31568,200.14565)"/>
<use data-text="2" xlink:href="#font_3_3" transform="matrix(8.966669,0,0,-8.966669,231.99335,200.14565)"/>
<use data-text="3" xlink:href="#font_3_4" transform="matrix(8.966669,0,0,-8.966669,254.67203,200.14565)"/>
<use data-text="4" xlink:href="#font_3_5" transform="matrix(8.966669,0,0,-8.966669,277.3497,200.14565)"/>
<use data-text="5" xlink:href="#font_3_6" transform="matrix(8.966669,0,0,-8.966669,300.02839,200.14565)"/>
<use data-text="&#x2212;" xlink:href="#font_5_1" transform="matrix(8.966669,0,0,-8.966669,171.65254,187.34427)"/>
<use data-text="4" xlink:href="#font_3_5" transform="matrix(8.966669,0,0,-8.966669,178.82076,187.34427)"/>
<use data-text="&#x2212;" xlink:href="#font_5_1" transform="matrix(8.966669,0,0,-8.966669,171.65254,173.16983)"/>
<use data-text="3" xlink:href="#font_3_4" transform="matrix(8.966669,0,0,-8.966669,178.82076,173.16983)"/>
<use data-text="&#x2212;" xlink:href="#font_5_1" transform="matrix(8.966669,0,0,-8.966669,171.65254,158.9964)"/>
<use data-text="2" xlink:href="#font_3_3" transform="matrix(8.966669,0,0,-8.966669,178.82076,158.9964)"/>
<use data-text="&#x2212;" xlink:href="#font_5_1" transform="matrix(8.966669,0,0,-8.966669,171.65254,144.82199)"/>
<use data-text="1" xlink:href="#font_3_2" transform="matrix(8.966669,0,0,-8.966669,178.82076,144.82199)"/>
<use data-text="0" xlink:href="#font_3_1" transform="matrix(8.966669,0,0,-8.966669,178.82076,131.06357)"/>
<use data-text="1" xlink:href="#font_3_2" transform="matrix(8.966669,0,0,-8.966669,178.82076,116.890148)"/>
<use data-text="2" xlink:href="#font_3_3" transform="matrix(8.966669,0,0,-8.966669,178.82076,102.71572)"/>
<use data-text="3" xlink:href="#font_3_4" transform="matrix(8.966669,0,0,-8.966669,178.82076,88.5423)"/>
<use data-text="4" xlink:href="#font_3_5" transform="matrix(8.966669,0,0,-8.966669,178.82076,74.368869)"/>
<path transform="matrix(1.00003,0,0,-1.00003,188.94106,128.17449)" stroke-width=".09962" stroke-linecap="butt" stroke-miterlimit="10" stroke-linejoin="miter" fill="none" stroke="#000000" d="M22.67752-60.23695V60.23695"/>
<path transform="matrix(1.00003,0,0,-1.00003,188.94106,128.17449)" stroke-width=".09962" stroke-linecap="butt" stroke-miterlimit="10" stroke-linejoin="miter" fill="none" stroke="#000000" d="M45.35506-60.23695V60.23695"/>
<path transform="matrix(1.00003,0,0,-1.00003,188.94106,128.17449)" stroke-width=".09962" stroke-linecap="butt" stroke-miterlimit="10" stroke-linejoin="miter" fill="none" stroke="#000000" d="M68.0326-60.23695V60.23695"/>
<path transform="matrix(1.00003,0,0,-1.00003,188.94106,128.17449)" stroke-width=".09962" stroke-linecap="butt" stroke-miterlimit="10" stroke-linejoin="miter" fill="none" stroke="#000000" d="M90.71013-60.23695V60.23695"/>
<path transform="matrix(1.00003,0,0,-1.00003,188.94106,128.17449)" stroke-width=".09962" stroke-linecap="butt" stroke-miterlimit="10" stroke-linejoin="miter" fill="none" stroke="#000000" d="M113.38766-60.23695V60.23695"/>
<g>
<path transform="matrix(1.00003,0,0,-1.00003,188.94106,128.17449)" d="M28.3469 28.3468V0H17.00813V28.3468ZM17.00813 0" fill="#0000ff" fill-opacity=".3"/>
<path transform="matrix(1.00003,0,0,-1.00003,188.94106,128.17449)" stroke-width=".3985" stroke-linecap="butt" stroke-miterlimit="10" stroke-linejoin="miter" fill="none" stroke="#000000" stroke-opacity=".3" d="M28.3469 28.3468V0H17.00813V28.3468ZM17.00813 0"/>
</g>
<path transform="matrix(1.00003,0,0,-1.00003,188.94106,128.17449)" stroke-width=".79701" stroke-linecap="butt" stroke-miterlimit="10" stroke-linejoin="miter" fill="none" stroke="#000000" d="M28.3469 28.3468V0H17.00813V28.3468ZM17.00813 0"/>
<path transform="matrix(1.00003,0,0,-1.00003,188.94106,128.17449)" d="M26.20024 28.3468C26.20024 30.29237 24.62308 31.86952 22.67752 31.86952 20.73195 31.86952 19.15479 30.29237 19.15479 28.3468 19.15479 26.40125 20.73195 24.82408 22.67752 24.82408 24.62308 24.82408 26.20024 26.40125 26.20024 28.3468ZM22.67752 28.3468" fill="#0000ff"/>
<path transform="matrix(1.00003,0,0,-1.00003,188.94106,128.17449)" stroke-width=".3985" stroke-linecap="butt" stroke-miterlimit="10" stroke-linejoin="miter" fill="none" stroke="#000000" d="M26.20024 28.3468C26.20024 30.29237 24.62308 31.86952 22.67752 31.86952 20.73195 31.86952 19.15479 30.29237 19.15479 28.3468 19.15479 26.40125 20.73195 24.82408 22.67752 24.82408 24.62308 24.82408 26.20024 26.40125 26.20024 28.3468ZM22.67752 28.3468"/>
<g>
<path transform="matrix(1.00003,0,0,-1.00003,188.94106,128.17449)" d="M51.02443 28.3468V0H39.68567V28.3468ZM39.68567 0" fill="#0000ff" fill-opacity=".3"/>
<path transform="matrix(1.00003,0,0,-1.00003,188.94106,128.17449)" stroke-width=".3985" stroke-linecap="butt" stroke-miterlimit="10" stroke-linejoin="miter" fill="none" stroke="#000000" stroke-opacity=".3" d="M51.02443 28.3468V0H39.68567V28.3468ZM39.68567 0"/>
</g>
<path transform="matrix(1.00003,0,0,-1.00003,188.94106,128.17449)" stroke-width=".79701" stroke-linecap="butt" stroke-miterlimit="10" stroke-linejoin="miter" fill="none" stroke="#000000" d="M51.02443 28.3468V0H39.68567V28.3468ZM39.68567 0"/>
<path transform="matrix(1.00003,0,0,-1.00003,188.94106,128.17449)" d="M48.87778 28.3468C48.87778 30.29237 47.30061 31.86952 45.35506 31.86952 43.40948 31.86952 41.83232 30.29237 41.83232 28.3468 41.83232 26.40125 43.40948 24.82408 45.35506 24.82408 47.30061 24.82408 48.87778 26.40125 48.87778 28.3468ZM45.35506 28.3468" fill="#0000ff"/>
<path transform="matrix(1.00003,0,0,-1.00003,188.94106,128.17449)" stroke-width=".3985" stroke-linecap="butt" stroke-miterlimit="10" stroke-linejoin="miter" fill="none" stroke="#000000" d="M48.87778 28.3468C48.87778 30.29237 47.30061 31.86952 45.35506 31.86952 43.40948 31.86952 41.83232 30.29237 41.83232 28.3468 41.83232 26.40125 43.40948 24.82408 45.35506 24.82408 47.30061 24.82408 48.87778 26.40125 48.87778 28.3468ZM45.35506 28.3468"/>
<g>
<path transform="matrix(1.00003,0,0,-1.00003,188.94106,128.17449)" d="M73.70197 28.3468V0H62.3632V28.3468ZM62.3632 0" fill="#0000ff" fill-opacity=".3"/>
<path transform="matrix(1.00003,0,0,-1.00003,188.94106,128.17449)" stroke-width=".3985" stroke-linecap="butt" stroke-miterlimit="10" stroke-linejoin="miter" fill="none" stroke="#000000" stroke-opacity=".3" d="M73.70197 28.3468V0H62.3632V28.3468ZM62.3632 0"/>
</g>
<path transform="matrix(1.00003,0,0,-1.00003,188.94106,128.17449)" stroke-width=".79701" stroke-linecap="butt" stroke-miterlimit="10" stroke-linejoin="miter" fill="none" stroke="#000000" d="M73.70197 28.3468V0H62.3632V28.3468ZM62.3632 0"/>
<path transform="matrix(1.00003,0,0,-1.00003,188.94106,128.17449)" d="M71.55531 28.3468C71.55531 30.29237 69.97815 31.86952 68.0326 31.86952 66.08702 31.86952 64.50986 30.29237 64.50986 28.3468 64.50986 26.40125 66.08702 24.82408 68.0326 24.82408 69.97815 24.82408 71.55531 26.40125 71.55531 28.3468ZM68.0326 28.3468" fill="#0000ff"/>
<path transform="matrix(1.00003,0,0,-1.00003,188.94106,128.17449)" stroke-width=".3985" stroke-linecap="butt" stroke-miterlimit="10" stroke-linejoin="miter" fill="none" stroke="#000000" d="M71.55531 28.3468C71.55531 30.29237 69.97815 31.86952 68.0326 31.86952 66.08702 31.86952 64.50986 30.29237 64.50986 28.3468 64.50986 26.40125 66.08702 24.82408 68.0326 24.82408 69.97815 24.82408 71.55531 26.40125 71.55531 28.3468ZM68.0326 28.3468"/>
<g>
<path transform="matrix(1.00003,0,0,-1.00003,188.94106,128.17449)" d="M96.3795 28.3468V0H85.04074V28.3468ZM85.04074 0" fill="#0000ff" fill-opacity=".3"/>
<path transform="matrix(1.00003,0,0,-1.00003,188.94106,128.17449)" stroke-width=".3985" stroke-linecap="butt" stroke-miterlimit="10" stroke-linejoin="miter" fill="none" stroke="#000000" stroke-opacity=".3" d="M96.3795 28.3468V0H85.04074V28.3468ZM85.04074 0"/>
</g>
<path transform="matrix(1.00003,0,0,-1.00003,188.94106,128.17449)" stroke-width=".79701" stroke-linecap="butt" stroke-miterlimit="10" stroke-linejoin="miter" fill="none" stroke="#000000" d="M96.3795 28.3468V0H85.04074V28.3468ZM85.04074 0"/>
<path transform="matrix(1.00003,0,0,-1.00003,188.94106,128.17449)" d="M94.23285 28.3468C94.23285 30.29237 92.65569 31.86952 90.71013 31.86952 88.76456 31.86952 87.1874 30.29237 87.1874 28.3468 87.1874 26.40125 88.76456 24.82408 90.71013 24.82408 92.65569 24.82408 94.23285 26.40125 94.23285 28.3468ZM90.71013 28.3468" fill="#0000ff"/>
<path transform="matrix(1.00003,0,0,-1.00003,188.94106,128.17449)" stroke-width=".3985" stroke-linecap="butt" stroke-miterlimit="10" stroke-linejoin="miter" fill="none" stroke="#000000" d="M94.23285 28.3468C94.23285 30.29237 92.65569 31.86952 90.71013 31.86952 88.76456 31.86952 87.1874 30.29237 87.1874 28.3468 87.1874 26.40125 88.76456 24.82408 90.71013 24.82408 92.65569 24.82408 94.23285 26.40125 94.23285 28.3468ZM90.71013 28.3468"/>
<g>
<path transform="matrix(1.00003,0,0,-1.00003,188.94106,128.17449)" d="M119.05704 28.3468V0H107.71828V28.3468ZM107.71828 0" fill="#0000ff" fill-opacity=".3"/>
<path transform="matrix(1.00003,0,0,-1.00003,188.94106,128.17449)" stroke-width=".3985" stroke-linecap="butt" stroke-miterlimit="10" stroke-linejoin="miter" fill="none" stroke="#000000" stroke-opacity=".3" d="M119.05704 28.3468V0H107.71828V28.3468ZM107.71828 0"/>
</g>
<path transform="matrix(1.00003,0,0,-1.00003,188.94106,128.17449)" stroke-width=".79701" stroke-linecap="butt" stroke-miterlimit="10" stroke-linejoin="miter" fill="none" stroke="#000000" d="M119.05704 28.3468V0H107.71828V28.3468ZM107.71828 0"/>
<path transform="matrix(1.00003,0,0,-1.00003,188.94106,128.17449)" d="M116.91039 28.3468C116.91039 30.29237 115.33322 31.86952 113.38766 31.86952 111.4421 31.86952 109.86493 30.29237 109.86493 28.3468 109.86493 26.40125 111.4421 24.82408 113.38766 24.82408 115.33322 24.82408 116.91039 26.40125 116.91039 28.3468ZM113.38766 28.3468" fill="#0000ff"/>
<path transform="matrix(1.00003,0,0,-1.00003,188.94106,128.17449)" stroke-width=".3985" stroke-linecap="butt" stroke-miterlimit="10" stroke-linejoin="miter" fill="none" stroke="#000000" d="M116.91039 28.3468C116.91039 30.29237 115.33322 31.86952 113.38766 31.86952 111.4421 31.86952 109.86493 30.29237 109.86493 28.3468 109.86493 26.40125 111.4421 24.82408 113.38766 24.82408 115.33322 24.82408 116.91039 26.40125 116.91039 28.3468ZM113.38766 28.3468"/>
</svg>
