<svg xmlns="http://www.w3.org/2000/svg" xmlns:xlink="http://www.w3.org/1999/xlink" xmlns:inkscape="http://www.inkscape.org/namespaces/inkscape" version="1.1" width="405" height="51" viewBox="0 0 405 51">
<defs>
<path id="font_1_1" d="M.36698915 .3996582H.45298768C.47299195 .3996582 .48298646 .3996582 .48298646 .41966249 .48298646 .43066407 .47299195 .43066407 .45599366 .43066407H.37298585L.3939972 .5449524C.397995 .5660095 .4119873 .6370239 .41799928 .6490326 .4269867 .66804507 .44400025 .68307498 .46499635 .68307498 .46899415 .68307498 .49499513 .68307498 .5139923 .66503909 .46998597 .661026 .45999146 .6260376 .45999146 .6110382 .45999146 .58802798 .47799684 .57603457 .49699403 .57603457 .522995 .57603457 .5519867 .5980377 .5519867 .6360321 .5519867 .6820679 .5059967 .7050781 .46499635 .7050781 .43099977 .7050781 .36799623 .68707278 .33799745 .58802798 .33198548 .56700137 .32899476 .5569763 .30499269 .43066407H.23599243C.21699524 .43066407 .20599365 .43066407 .20599365 .4116516 .20599365 .3996582 .21499634 .3996582 .23399353 .3996582H.2999878L.22499085 .0048828127C.20698548-.09207153 .18998719-.18309021 .13798523-.18309021 .13398743-.18309021 .10899353-.18309021 .08999634-.16506958 .13598633-.1620636 .14498902-.12606812 .14498902-.111068729 .14498902-.08807373 .1269989-.07606506 .10798645-.07606506 .08198547-.07606506 .052993776-.09806824 .052993776-.13606262 .052993776-.18109131 .09700012-.20507813 .13798523-.20507813 .19299317-.20507813 .23298645-.14607239 .25099183-.108062747 .2829895-.04508972 .30599977 .07583618 .30699159 .082839969L.36698915 .3996582Z"/>
<path id="font_2_2" d="M.2899933 .4720459C.2979889 .4890442 .29899598 .49705506 .29899598 .5040436 .29899598 .53504946 .2709961 .5590515 .23999024 .5590515 .20199585 .5590515 .18998719 .52804568 .18499756 .51205447L.052993776 .07901001C.051986696 .07701111 .04798889 .06401062 .04798889 .06300354 .04798889 .05101013 .07899475 .041015626 .08699036 .041015626 .09399414 .041015626 .09498596 .043014528 .101989749 .058013917L.2899933 .4720459Z"/>
<path id="font_3_1" d="M.6589966 .23046875C.6759949 .23046875 .69400027 .23046875 .69400027 .25045777 .69400027 .27046205 .6759949 .27046205 .6589966 .27046205H.117996219C.100997928 .27046205 .08299255 .27046205 .08299255 .25045777 .08299255 .23046875 .100997928 .23046875 .117996219 .23046875H.6589966Z"/>
<path id="font_4_2" d="M.1269989 .07699585 .23298645 .18003845C.3889923 .31811524 .44898988 .3721466 .44898988 .47216798 .44898988 .5860901 .35899354 .6660156 .23699951 .6660156 .12399292 .6660156 .049987794 .57411196 .049987794 .48516847 .049987794 .4291687 .099990848 .4291687 .102996829 .4291687 .11999512 .4291687 .15499878 .44117738 .15499878 .48217774 .15499878 .5081787 .13699341 .5341797 .101989749 .5341797 .09399414 .5341797 .09199524 .5341797 .08898926 .5331726 .11199951 .59806826 .1659851 .63500979 .22399903 .63500979 .31498719 .63500979 .35798646 .5541382 .35798646 .47216798 .35798646 .39215089 .30799867 .31311036 .25299073 .25108338L.06098938 .036987306C.049987794 .025985718 .049987794 .023986817 .049987794 0H.42099L.44898988 .17404175H.42399598C.4189911 .14402771 .4119873 .1000061 .4019928 .084991458 .394989 .07699585 .32899476 .07699585 .30699159 .07699585H.1269989Z"/>
<path id="font_4_1" d="M.45999146 .31976319C.45999146 .39982606 .45498658 .47988893 .41999818 .5539398 .37399293 .65000918 .2919922 .6660156 .25 .6660156 .18998719 .6660156 .116989139 .64001467 .07598877 .54693606 .04399109 .47789 .038986207 .39982606 .038986207 .31976319 .038986207 .24472046 .042999269 .15464783 .083999637 .07859802 .1269989-.0024719239 .19999695-.022460938 .24899292-.022460938 .30299378-.022460938 .3789978-.0014648438 .4229889 .09359741 .45498658 .16265869 .45999146 .2407074 .45999146 .31976319M.24899292-.00047302247C.20999146-.00047302247 .15098572 .024551392 .1329956 .12062073 .12199402 .18066406 .12199402 .2727356 .12199402 .3317871 .12199402 .39582826 .12199402 .46188355 .12998963 .5159149 .14898682 .63500979 .22399903 .64401248 .24899292 .64401248 .28199769 .64401248 .34799195 .6259918 .36698915 .52693179 .3769989 .47088624 .3769989 .39482118 .3769989 .3317871 .3769989 .25672914 .3769989 .18867493 .3659973 .12461853 .35099793 .029556275 .2939911-.00047302247 .24899292-.00047302247Z"/>
<path id="font_4_3" d="M.47599793 .609375C.4850006 .6213684 .4850006 .62338259 .4850006 .64437869H.24198914C.11999512 .64437869 .117996219 .65737918 .11399841 .67637637H.08898926L.055999757 .4702301H.08099365C.083999637 .48625184 .09298706 .5493469 .10598755 .56137087 .11299133 .5673828 .19099427 .5673828 .20399475 .5673828H.41099549C.3999939 .5513611 .32099916 .4421997 .29899598 .40914918 .20899964 .27394105 .17599488 .1347351 .17599488 .032577516 .17599488 .022567749 .17599488-.022460938 .22200012-.022460938 .2679901-.022460938 .2679901 .022567749 .2679901 .032577516V.08366394C.2679901 .13873291 .2709961 .19381714 .2789917 .24790955 .2829895 .27093507 .29699708 .35707093 .34098817 .41915895L.47599793 .609375Z"/>
<path id="font_5_1" d="M.40699769 .39465333H.5049896C.5249939 .39465333 .5379944 .39465333 .5379944 .4166565 .5379944 .43066407 .5249939 .43066407 .5069885 .43066407H.4139862C.43699647 .5580139 .44499208 .6040497 .45298768 .63305667 .45799256 .6550598 .47999574 .6760864 .5039978 .6760864 .5049896 .6760864 .5319977 .6760864 .5509949 .6640625 .5099945 .651062 .5069885 .61505129 .5069885 .60905459 .5069885 .5870514 .5239868 .572052 .5469971 .572052 .57398989 .572052 .60398867 .59506228 .60398867 .63305667 .60398867 .6790924 .5549927 .70410159 .5039978 .70410159 .45999146 .70410159 .41099549 .6790924 .38398744 .62905886 .3639984 .5920563 .35598756 .5469818 .33499146 .43066407H.2559967C.23599243 .43066407 .22299195 .43066407 .22299195 .4086609 .22299195 .39465333 .23599243 .39465333 .2539978 .39465333H.32798768C.32699586 .38865663 .2639923 .028869629 .23999024-.078063968 .23498535-.10006714 .21798706-.17610169 .16999817-.17610169 .16899109-.17610169 .14498902-.17610169 .12599182-.1640625 .16699219-.15107727 .16999817-.11506653 .16999817-.109069827 .16999817-.08706665 .15299988-.07206726 .12998963-.07206726 .102996829-.07206726 .07299805-.095077518 .07299805-.1330719 .07299805-.17811585 .11999512-.20410156 .16999817-.20410156 .23399353-.20410156 .27799989-.13807678 .2899933-.11607361 .32598878-.049087526 .34899903 .07385254 .35099793 .08584595L.40699769 .39465333Z"/>
<path id="font_6_1" d="M.3600006 .46505738C.36099244 .46606446 .36999513 .48506166 .36999513 .50006106 .36999513 .5360565 .33799745 .5590515 .30799867 .5590515 .2669983 .5590515 .2559967 .5280609 .25099183 .5130615L.09700012 .080078128C.09298706 .06808472 .09298706 .065078739 .09298706 .064071658 .09298706 .048080446 .1349945 .038085939 .13598633 .038085939 .14498902 .038085939 .14698792 .04307556 .15299988 .05508423L.3600006 .46505738Z"/>
<path id="font_7_1" d="M.35499574 .75C.16499329 .61598208 .114990238 .40397645 .114990238 .25097657 .114990238 .10997009 .15699768-.10902405 .35499574-.24902344 .36299134-.24902344 .375-.24902344 .375-.23703003 .375-.23103333 .37199403-.22903443 .36499024-.22203064 .23199463-.10203552 .18299866 .067977908 .18299866 .24996948 .18299866 .519989 .28599549 .65197756 .36799623 .72598269 .37199403 .7299957 .375 .73298647 .375 .73799136 .375 .75 .36299134 .75 .35499574 .75Z"/>
<path id="font_2_1" d="M.74398806 .2263794C.7599945 .2263794 .7839966 .2263794 .7839966 .25038148 .7839966 .27539063 .7609863 .27539063 .74398806 .27539063H.147995C.13198853 .27539063 .10798645 .27539063 .10798645 .25138856 .10798645 .2263794 .1309967 .2263794 .147995 .2263794H.74398806Z"/>
<path id="font_7_5" d="M.272995 .33428956C.35099793 .33428956 .40699769 .2803192 .40699769 .1733551 .40699769 .04940796 .33499146 .012466431 .2769928 .012466431 .23699951 .012466431 .14898682 .0234375 .10699463 .082351688 .1539917 .084350589 .16499329 .11735535 .16499329 .13835144 .16499329 .17034912 .14099121 .19335938 .10998535 .19335938 .08198547 .19335938 .053985597 .17634583 .053985597 .13534546 .053985597 .041412355 .1579895-.01953125 .2789917-.01953125 .41799928-.01953125 .5139923 .07336426 .5139923 .1733551 .5139923 .2513275 .44999696 .32929994 .33999635 .35229493 .44499208 .39024354 .48298646 .4650879 .48298646 .5260773 .48298646 .60505679 .3919983 .6640625 .2809906 .6640625 .16999817 .6640625 .084991458 .61006167 .084991458 .5300751 .084991458 .49606324 .10699463 .47706605 .13699341 .47706605 .16799927 .47706605 .18798828 .5000763 .18798828 .5280762 .18798828 .5570679 .16799927 .57806399 .13699341 .5800781 .17199707 .62405398 .24099732 .63505557 .27799989 .63505557 .32299806 .63505557 .38598634 .6130676 .38598634 .5260773 .38598634 .48406983 .37199403 .43814088 .34599305 .4072113 .31298829 .36927796 .2849884 .3672943 .23498535 .36428834 .20999146 .3623047 .20799256 .3623047 .20298767 .3612976 .20098877 .3612976 .19299317 .3592987 .19299317 .34829713 .19299317 .33428956 .20199585 .33428956 .21899414 .33428956H.272995Z"/>
<path id="font_7_2" d="M.08999634 .75C.08299255 .75 .070999149 .75 .070999149 .73799136 .070999149 .73298647 .07398987 .7299957 .07998657 .72299197 .1659851 .64398196 .2619934 .5089874 .2619934 .25097657 .2619934 .04197693 .19699097-.11602783 .08898926-.21403504 .07199097-.23103333 .070999149-.23202515 .070999149-.23703003 .070999149-.24203491 .07398987-.24902344 .083999637-.24902344 .09599304-.24902344 .19099427-.18302918 .25698854-.058029176 .30099488 .024978638 .32998658 .13298035 .32998658 .24996948 .32998658 .39097596 .28799439 .60998538 .08999634 .75Z"/>
<path id="font_7_7" d="M.7679901 .3359375C.7829895 .3359375 .80599978 .3359375 .80599978 .3609314 .80599978 .38493348 .7819977 .38493348 .7689972 .38493348H.10699463C.09399414 .38493348 .069992069 .38493348 .069992069 .3609314 .069992069 .3359375 .09298706 .3359375 .10798645 .3359375H.7679901M.7689972 .11602783C.7819977 .11602783 .80599978 .11602783 .80599978 .1400299 .80599978 .16503906 .7829895 .16503906 .7679901 .16503906H.10798645C.09298706 .16503906 .069992069 .16503906 .069992069 .1400299 .069992069 .11602783 .09399414 .11602783 .10699463 .11602783H.7689972Z"/>
<path id="font_7_3" d="M.46299745 .2263794H.7689972C.7819977 .2263794 .80599978 .2263794 .80599978 .25038148 .80599978 .27539063 .7829895 .27539063 .7689972 .27539063H.46299745V.5821533C.46299745 .59513857 .46299745 .6191406 .43899537 .6191406 .4139862 .6191406 .4139862 .5961304 .4139862 .5821533V.27539063H.10699463C.09399414 .27539063 .069992069 .27539063 .069992069 .25138856 .069992069 .2263794 .09298706 .2263794 .10699463 .2263794H.4139862V-.08114624C.4139862-.09416199 .4139862-.11816406 .43798829-.11816406 .46299745-.11816406 .46299745-.09516907 .46299745-.08114624V.2263794Z"/>
<path id="font_8_1" d="M.20298767 .25030519C.20298767 .28430177 .1749878 .30630494 .147995 .30630494 .115997318 .30630494 .09199524 .28030396 .09199524 .25131227 .09199524 .21730042 .11999512 .1953125 .14698792 .1953125 .1789856 .1953125 .20298767 .22129822 .20298767 .25030519Z"/>
<path id="font_9_1" d="M.9229889 .3581543C.9229889 .364151 .9189911 .36816407 .9129944 .36816407 .9069977 .36816407 .9039917 .36515809 .901001 .3601532 .7819977 .20083618 .598999 .17578125 .4889984 .17578125 .3919983 .17578125 .2999878 .19682312 .22898865 .23190308 .13899231 .27799989 .09599304 .33512879 .07499695 .36315919 .070999149 .36816407 .067993167 .36816407 .06498718 .36816407 .05899048 .36816407 .054992677 .364151 .054992677 .3581543 .054992677 .3471527 .19699097 .13378906 .4889984 .13378906 .7809906 .13378906 .9229889 .34614564 .9229889 .3581543Z"/>
<path id="font_7_4" d="M.33499146 .63612368C.33499146 .6630554 .33299256 .6640625 .30499269 .6640625 .24099732 .6014404 .1499939 .6004486 .10899353 .6004486V.5644531C.1329956 .5644531 .19898987 .5644531 .2539978 .592453V.08203125C.2539978 .04899597 .2539978 .035995485 .1539917 .035995485H.115997318V0C.13398743 .0009918213 .25698854 .0039978029 .2939911 .0039978029 .32499696 .0039978029 .45098878 .0009918213 .47299195 0V.035995485H.43499757C.33499146 .035995485 .33499146 .04899597 .33499146 .08203125V.63612368Z"/>
<path id="font_9_2" d="M.9229889 .14183045C.9229889 .15382385 .7799988 .37890626 .4889984 .37890626 .19799805 .37890626 .054992677 .15382385 .054992677 .14183045 .054992677 .13583374 .05899048 .13183594 .06498718 .13183594 .070999149 .13183594 .07299805 .13482666 .07699585 .13983155 .101989749 .1748352 .14099121 .2298584 .23899842 .2808838 .27398683 .29888917 .36499024 .33691407 .4889984 .33691407 .5419922 .33691407 .6309967 .3309021 .72698977 .2868805 .83099368 .23886109 .8799896 .1688385 .8999939 .14082337 .9049988 .13482666 .9069977 .13183594 .9129944 .13183594 .9189911 .13183594 .9229889 .13583374 .9229889 .14183045Z"/>
<path id="font_7_6" d="M.35499574 .36123658C.43299867 .3992157 .48298646 .44618226 .48298646 .5151367 .48298646 .6120758 .38198854 .6640625 .2849884 .6640625 .1749878 .6640625 .084991458 .5920868 .084991458 .4971466 .084991458 .45018006 .10699463 .41619874 .125 .39620973 .14299011 .37522889 .1499939 .37123109 .20899964 .33624269 .15299988 .31227113 .053985597 .25830079 .053985597 .15336609 .053985597 .042434694 .16899109-.01953125 .2829895-.01953125 .4099884-.01953125 .5139923 .061431886 .5139923 .1693573 .5139923 .23532105 .47499085 .29127503 .4169922 .32525636 .4039917 .33325196 .36898805 .35324098 .35499574 .36123658M.19198609 .45617677C.1659851 .4711609 .13798523 .49813844 .13798523 .53512576 .13798523 .5980835 .21099854 .63505557 .2829895 .63505557 .36099244 .63505557 .42999269 .5860901 .42999269 .5151367 .42999269 .42619325 .32598878 .3812256 .32398988 .3812256 .32199098 .3812256 .31999208 .3822174 .31298829 .3862152L.19198609 .45617677M.24099732 .31726075 .37799073 .23831177C.4039917 .22332764 .45399476 .19334412 .45399476 .13438416 .45399476 .059432985 .37098695 .012466431 .2849884 .012466431 .19299317 .012466431 .11399841 .07142639 .11399841 .15336609 .11399841 .22732544 .16899109 .2842865 .24099732 .31726075Z"/>
</defs>
<path transform="matrix(1,0,0,-1.00005,148.47,17.0103)" stroke-width="1.19553" stroke-linecap="butt" stroke-miterlimit="10" stroke-linejoin="miter" fill="none" stroke="#000000" d="M-107.64868 0H249.38274"/>
<path transform="matrix(-1,-0,0,1.00005,40.82132,17.0103)" d="M5.73854 0C4.0382 .31879 1.27522 1.27522-.6376 2.39105V-2.39105C1.27522-1.27522 4.0382-.31879 5.73854 0"/>
<path transform="matrix(1,0,0,-1.00005,397.85273,17.0103)" d="M5.73854 0C4.0382 .31879 1.27522 1.27522-.6376 2.39105V-2.39105C1.27522-1.27522 4.0382-.31879 5.73854 0"/>
<use data-text="f" xlink:href="#font_1_1" transform="matrix(9.9626,0,0,-9.963098,3.7610017,8.161859)"/>
<use data-text="f" xlink:href="#font_1_1" transform="matrix(9.9626,0,0,-9.963098,1.2149963,36.796289)"/>
<use data-text="&#x2032;" xlink:href="#font_2_2" transform="matrix(6.9738,0,0,-6.9741489,7.1649935,33.181108)"/>
<use data-text="&#x2032;" xlink:href="#font_2_2" transform="matrix(6.9738,0,0,-6.9741489,9.459381,33.181108)"/>
<path transform="matrix(1,0,0,-1.00005,148.47,17.0103)" d="M-54.70107 0C-54.70107 1.10046-55.59314 1.99255-56.69362 1.99255-57.79408 1.99255-58.68617 1.10046-58.68617 0-58.68617-1.10046-57.79408-1.99255-56.69362-1.99255-55.59314-1.99255-54.70107-1.10046-54.70107 0ZM-56.69362 0"/>
<path transform="matrix(1,0,0,-1.00005,148.47,17.0103)" stroke-width=".3985" stroke-linecap="butt" stroke-miterlimit="10" stroke-linejoin="miter" fill="none" stroke="#000000" d="M-54.70107 0C-54.70107 1.10046-55.59314 1.99255-56.69362 1.99255-57.79408 1.99255-58.68617 1.10046-58.68617 0-58.68617-1.10046-57.79408-1.99255-56.69362-1.99255-55.59314-1.99255-54.70107-1.10046-54.70107 0ZM-56.69362 0"/>
<use data-text="&#x2212;" xlink:href="#font_3_1" transform="matrix(9.9626,0,0,-9.963098,85.41101,26.950797)"/>
<use data-text="2" xlink:href="#font_4_2" transform="matrix(9.9626,0,0,-9.963098,93.16,26.950797)"/>
<path transform="matrix(1,0,0,-1.00005,148.47,17.0103)" d="M1.99255 0C1.99255 1.10046 1.10046 1.99255 0 1.99255-1.10046 1.99255-1.99255 1.10046-1.99255 0-1.99255-1.10046-1.10046-1.99255 0-1.99255 1.10046-1.99255 1.99255-1.10046 1.99255 0ZM0 0" fill="#ffffff"/>
<path transform="matrix(1,0,0,-1.00005,148.47,17.0103)" stroke-width=".3985" stroke-linecap="butt" stroke-miterlimit="10" stroke-linejoin="miter" fill="none" stroke="#000000" d="M1.99255 0C1.99255 1.10046 1.10046 1.99255 0 1.99255-1.10046 1.99255-1.99255 1.10046-1.99255 0-1.99255-1.10046-1.10046-1.99255 0-1.99255 1.10046-1.99255 1.99255-1.10046 1.99255 0ZM0 0"/>
<use data-text="0" xlink:href="#font_4_1" transform="matrix(9.9626,0,0,-9.963098,145.979,26.950797)"/>
<path transform="matrix(1,0,0,-1.00005,148.47,17.0103)" d="M200.42021 0C200.42021 1.10046 199.52814 1.99255 198.42766 1.99255 197.3272 1.99255 196.4351 1.10046 196.4351 0 196.4351-1.10046 197.3272-1.99255 198.42766-1.99255 199.52814-1.99255 200.42021-1.10046 200.42021 0ZM198.42766 0"/>
<path transform="matrix(1,0,0,-1.00005,148.47,17.0103)" stroke-width=".3985" stroke-linecap="butt" stroke-miterlimit="10" stroke-linejoin="miter" fill="none" stroke="#000000" d="M200.42021 0C200.42021 1.10046 199.52814 1.99255 198.42766 1.99255 197.3272 1.99255 196.4351 1.10046 196.4351 0 196.4351-1.10046 197.3272-1.99255 198.42766-1.99255 199.52814-1.99255 200.42021-1.10046 200.42021 0ZM198.42766 0"/>
<use data-text="7" xlink:href="#font_4_3" transform="matrix(9.9626,0,0,-9.963098,344.40699,26.950797)"/>
<path transform="matrix(1,0,0,-1.00005,148.47,17.0103)" stroke-width="1.39478" stroke-linecap="butt" stroke-miterlimit="10" stroke-linejoin="miter" fill="none" stroke="#0000ff" d="M-85.04042-9.37808V-21.2601"/>
<path transform="matrix(1,0,0,-1.00005,148.47,17.0103)" stroke-width=".59776" stroke-linecap="butt" stroke-miterlimit="10" stroke-linejoin="miter" fill="none" stroke="#ffffff" d="M-85.04042-9.37808V-21.2601"/>
<path transform="matrix(0,-1.00005,-1,-0,63.42958,26.388848)" d="M2.29138 0-1.37483 1.83311 0 0-1.37483-1.83311" fill="#0000ff"/>
<use data-text="f" xlink:href="#font_5_1" transform="matrix(6.9738,0,0,-6.9741489,38.94101,47.565828)" fill="#0000ff"/>
<use data-text="&#x2032;" xlink:href="#font_6_1" transform="matrix(4.9813,0,0,-4.981549,43.608,44.559679)" fill="#0000ff"/>
<use data-text="&#x2032;" xlink:href="#font_6_1" transform="matrix(4.9813,0,0,-4.981549,45.799776,44.559679)" fill="#0000ff"/>
<use data-text="(" xlink:href="#font_7_1" transform="matrix(6.9738,0,0,-6.9741489,48.49901,47.565828)" fill="#0000ff"/>
<use data-text="&#x2212;" xlink:href="#font_2_1" transform="matrix(6.9738,0,0,-6.9741489,51.613008,47.565828)" fill="#0000ff"/>
<use data-text="3" xlink:href="#font_7_5" transform="matrix(6.9738,0,0,-6.9741489,57.839006,47.565828)" fill="#0000ff"/>
<use data-text=")" xlink:href="#font_7_2" transform="matrix(6.9738,0,0,-6.9741489,61.8071,47.565828)" fill="#0000ff"/>
<use data-text="=" xlink:href="#font_7_7" transform="matrix(6.9738,0,0,-6.9741489,67.1839,47.565828)" fill="#0000ff"/>
<use data-text="(" xlink:href="#font_7_1" transform="matrix(6.9738,0,0,-6.9741489,75.56641,47.565828)" fill="#0000ff"/>
<use data-text="+" xlink:href="#font_7_3" transform="matrix(6.9738,0,0,-6.9741489,78.67673,47.565828)" fill="#0000ff"/>
<use data-text=")" xlink:href="#font_7_2" transform="matrix(6.9738,0,0,-6.9741489,84.792758,47.565828)" fill="#0000ff"/>
<use data-text="&#x00b7;" xlink:href="#font_8_1" transform="matrix(7.9701,0,0,-7.970498,60.371004,4.754688)" fill="#0000ff"/>
<use data-text="&#x00b7;" xlink:href="#font_8_1" transform="matrix(7.9701,0,0,-7.970498,64.13289,4.754688)" fill="#0000ff"/>
<use data-text="&#x2323;" xlink:href="#font_9_1" transform="matrix(11.9552,0,0,-11.955797,57.576005,11.422021)" fill="#0000ff"/>
<path transform="matrix(1,0,0,-1.00005,148.47,17.0103)" stroke-width="1.39478" stroke-linecap="butt" stroke-miterlimit="10" stroke-linejoin="miter" fill="none" stroke="#0000ff" d="M-28.3468-9.37808V-21.2601"/>
<path transform="matrix(1,0,0,-1.00005,148.47,17.0103)" stroke-width=".59776" stroke-linecap="butt" stroke-miterlimit="10" stroke-linejoin="miter" fill="none" stroke="#ffffff" d="M-28.3468-9.37808V-21.2601"/>
<path transform="matrix(0,-1.00005,-1,-0,120.1232,26.388848)" d="M2.29138 0-1.37483 1.83311 0 0-1.37483-1.83311" fill="#0000ff"/>
<use data-text="f" xlink:href="#font_5_1" transform="matrix(6.9738,0,0,-6.9741489,95.57901,47.565828)" fill="#0000ff"/>
<use data-text="&#x2032;" xlink:href="#font_6_1" transform="matrix(4.9813,0,0,-4.981549,100.246,44.559679)" fill="#0000ff"/>
<use data-text="&#x2032;" xlink:href="#font_6_1" transform="matrix(4.9813,0,0,-4.981549,102.437778,44.559679)" fill="#0000ff"/>
<use data-text="(" xlink:href="#font_7_1" transform="matrix(6.9738,0,0,-6.9741489,105.13701,47.565828)" fill="#0000ff"/>
<use data-text="&#x2212;" xlink:href="#font_2_1" transform="matrix(6.9738,0,0,-6.9741489,108.25101,47.565828)" fill="#0000ff"/>
<use data-text="1" xlink:href="#font_7_4" transform="matrix(6.9738,0,0,-6.9741489,114.477008,47.565828)" fill="#0000ff"/>
<use data-text=")" xlink:href="#font_7_2" transform="matrix(6.9738,0,0,-6.9741489,118.4451,47.565828)" fill="#0000ff"/>
<use data-text="=" xlink:href="#font_7_7" transform="matrix(6.9738,0,0,-6.9741489,123.8219,47.565828)" fill="#0000ff"/>
<use data-text="(" xlink:href="#font_7_1" transform="matrix(6.9738,0,0,-6.9741489,132.2044,47.565828)" fill="#0000ff"/>
<use data-text="&#x2212;" xlink:href="#font_2_1" transform="matrix(6.9738,0,0,-6.9741489,135.327,47.565828)" fill="#0000ff"/>
<use data-text=")" xlink:href="#font_7_2" transform="matrix(6.9738,0,0,-6.9741489,141.55301,47.565828)" fill="#0000ff"/>
<use data-text="&#x00b7;" xlink:href="#font_8_1" transform="matrix(7.9701,0,0,-7.970498,117.065,4.754688)" fill="#0000ff"/>
<use data-text="&#x00b7;" xlink:href="#font_8_1" transform="matrix(7.9701,0,0,-7.970498,120.82689,4.754688)" fill="#0000ff"/>
<use data-text="&#x2322;" xlink:href="#font_9_2" transform="matrix(11.9552,0,0,-11.955797,114.270008,11.422021)" fill="#0000ff"/>
<path transform="matrix(1,0,0,-1.00005,148.47,17.0103)" stroke-width="1.39478" stroke-linecap="butt" stroke-miterlimit="10" stroke-linejoin="miter" fill="none" stroke="#0000ff" d="M28.3468-9.37808V-21.2601"/>
<path transform="matrix(1,0,0,-1.00005,148.47,17.0103)" stroke-width=".59776" stroke-linecap="butt" stroke-miterlimit="10" stroke-linejoin="miter" fill="none" stroke="#ffffff" d="M28.3468-9.37808V-21.2601"/>
<path transform="matrix(0,-1.00005,-1,-0,176.8168,26.388848)" d="M2.29138 0-1.37483 1.83311 0 0-1.37483-1.83311" fill="#0000ff"/>
<use data-text="f" xlink:href="#font_5_1" transform="matrix(6.9738,0,0,-6.9741489,155.386,47.565828)" fill="#0000ff"/>
<use data-text="&#x2032;" xlink:href="#font_6_1" transform="matrix(4.9813,0,0,-4.981549,160.053,44.559679)" fill="#0000ff"/>
<use data-text="&#x2032;" xlink:href="#font_6_1" transform="matrix(4.9813,0,0,-4.981549,162.24477,44.559679)" fill="#0000ff"/>
<use data-text="(" xlink:href="#font_7_1" transform="matrix(6.9738,0,0,-6.9741489,164.944,47.565828)" fill="#0000ff"/>
<use data-text="1" xlink:href="#font_7_4" transform="matrix(6.9738,0,0,-6.9741489,168.05432,47.565828)" fill="#0000ff"/>
<use data-text=")" xlink:href="#font_7_2" transform="matrix(6.9738,0,0,-6.9741489,172.02242,47.565828)" fill="#0000ff"/>
<use data-text="=" xlink:href="#font_7_7" transform="matrix(6.9738,0,0,-6.9741489,177.39922,47.565828)" fill="#0000ff"/>
<use data-text="(" xlink:href="#font_7_1" transform="matrix(6.9738,0,0,-6.9741489,185.78173,47.565828)" fill="#0000ff"/>
<use data-text="&#x2212;" xlink:href="#font_2_1" transform="matrix(6.9738,0,0,-6.9741489,188.907,47.565828)" fill="#0000ff"/>
<use data-text=")" xlink:href="#font_7_2" transform="matrix(6.9738,0,0,-6.9741489,195.13399,47.565828)" fill="#0000ff"/>
<use data-text="&#x00b7;" xlink:href="#font_8_1" transform="matrix(7.9701,0,0,-7.970498,173.759,4.754688)" fill="#0000ff"/>
<use data-text="&#x00b7;" xlink:href="#font_8_1" transform="matrix(7.9701,0,0,-7.970498,177.52089,4.754688)" fill="#0000ff"/>
<use data-text="&#x2322;" xlink:href="#font_9_2" transform="matrix(11.9552,0,0,-11.955797,170.964,11.422021)" fill="#0000ff"/>
<path transform="matrix(1,0,0,-1.00005,148.47,17.0103)" stroke-width="1.39478" stroke-linecap="butt" stroke-miterlimit="10" stroke-linejoin="miter" fill="none" stroke="#0000ff" d="M226.77448-9.37808V-21.2601"/>
<path transform="matrix(1,0,0,-1.00005,148.47,17.0103)" stroke-width=".59776" stroke-linecap="butt" stroke-miterlimit="10" stroke-linejoin="miter" fill="none" stroke="#ffffff" d="M226.77448-9.37808V-21.2601"/>
<path transform="matrix(0,-1.00005,-1,-0,375.24449,26.388848)" d="M2.29138 0-1.37483 1.83311 0 0-1.37483-1.83311" fill="#0000ff"/>
<use data-text="f" xlink:href="#font_5_1" transform="matrix(6.9738,0,0,-6.9741489,353.86903,47.565828)" fill="#0000ff"/>
<use data-text="&#x2032;" xlink:href="#font_6_1" transform="matrix(4.9813,0,0,-4.981549,358.536,44.559679)" fill="#0000ff"/>
<use data-text="&#x2032;" xlink:href="#font_6_1" transform="matrix(4.9813,0,0,-4.981549,360.72779,44.559679)" fill="#0000ff"/>
<use data-text="(" xlink:href="#font_7_1" transform="matrix(6.9738,0,0,-6.9741489,363.427,47.565828)" fill="#0000ff"/>
<use data-text="8" xlink:href="#font_7_6" transform="matrix(6.9738,0,0,-6.9741489,366.53733,47.565828)" fill="#0000ff"/>
<use data-text=")" xlink:href="#font_7_2" transform="matrix(6.9738,0,0,-6.9741489,370.50544,47.565828)" fill="#0000ff"/>
<use data-text="=" xlink:href="#font_7_7" transform="matrix(6.9738,0,0,-6.9741489,375.8822,47.565828)" fill="#0000ff"/>
<use data-text="(" xlink:href="#font_7_1" transform="matrix(6.9738,0,0,-6.9741489,384.2647,47.565828)" fill="#0000ff"/>
<use data-text="+" xlink:href="#font_7_3" transform="matrix(6.9738,0,0,-6.9741489,387.37507,47.565828)" fill="#0000ff"/>
<use data-text=")" xlink:href="#font_7_2" transform="matrix(6.9738,0,0,-6.9741489,393.4911,47.565828)" fill="#0000ff"/>
<use data-text="&#x00b7;" xlink:href="#font_8_1" transform="matrix(7.9701,0,0,-7.970498,372.186,4.754688)" fill="#0000ff"/>
<use data-text="&#x00b7;" xlink:href="#font_8_1" transform="matrix(7.9701,0,0,-7.970498,375.94789,4.754688)" fill="#0000ff"/>
<use data-text="&#x2323;" xlink:href="#font_9_1" transform="matrix(11.9552,0,0,-11.955797,369.391,11.422021)" fill="#0000ff"/>
</svg>
