<svg xmlns="http://www.w3.org/2000/svg" xmlns:xlink="http://www.w3.org/1999/xlink" xmlns:inkscape="http://www.inkscape.org/namespaces/inkscape" version="1.1" width="355" height="137" viewBox="0 0 355 137">
<defs>
<path id="font_1_98" d="M.3600006 .12823487C.3600006 .18122864 .32998658 .21122742 .31799317 .22323609 .2849884 .25523377 .24598694 .26322938 .20399475 .27124024 .147995 .28224183 .08099365 .29522706 .08099365 .35324098 .08099365 .38822938 .10699463 .42922975 .19299317 .42922975 .30299378 .42922975 .30799867 .3392334 .30999757 .30822755 .31098939 .2992401 .32199098 .2992401 .32199098 .2992401 .33499146 .2992401 .33499146 .30422975 .33499146 .32322694V.4242401C.33499146 .4412384 .33499146 .4482422 .32398988 .4482422 .31900025 .4482422 .31698609 .4482422 .3039856 .43623353 .30099488 .43223573 .29100038 .42323304 .2869873 .42022706 .24899292 .4482422 .20799256 .4482422 .19299317 .4482422 .070999149 .4482422 .032989503 .38124085 .032989503 .3252411 .032989503 .29023744 .04899597 .26223756 .07598877 .24023438 .10798645 .2142334 .13598633 .2082367 .20799256 .19422913 .22999573 .19021607 .31199647 .17422486 .31199647 .10221863 .31199647 .051223756 .2769928 .011245728 .19898987 .011245728 .114990238 .011245728 .07899475 .068222049 .05999756 .1532135 .056991579 .16621399 .055999757 .17021179 .04598999 .17021179 .032989503 .17021179 .032989503 .16322327 .032989503 .1452179V.013214111C.032989503-.003753662 .032989503-.0107421879 .04399109-.0107421879 .04899597-.0107421879 .049987794-.009750366 .068984989 .009246826 .070999149 .011245728 .070999149 .013214111 .08898926 .032226564 .1329956-.009750366 .17799378-.0107421879 .19898987-.0107421879 .31399537-.0107421879 .3600006 .05621338 .3600006 .1282196V.12823487Z"/>
<path id="font_1_72" d="M.25498963 0V.0309906C.18798828 .0309906 .1769867 .0309906 .1769867 .07601929V.69433596L.032989503 .6826172V.6516113C.102996829 .6516113 .11099243 .64460757 .11099243 .5956421V.07595825C.11099243 .0309906 .099990848 .0309906 .032989503 .0309906V0L.14399719 .0029907227 .25498963 0Z"/>
<path id="font_1_81" d="M.47099305 .21424866C.47099305 .34223939 .37098695 .4482422 .25 .4482422 .125 .4482422 .027999878 .3392334 .027999878 .21424866 .027999878 .085250858 .13198853-.0107421879 .24899292-.0107421879 .36999513-.0107421879 .47099305 .087249759 .47099305 .21424866M.3880005 .22224427C.3880005 .18624878 .3880005 .13224793 .3659973 .08824158 .34399415 .04324341 .2999878 .014251709 .25 .014251709 .20698548 .014251709 .16299439 .035247804 .13598633 .08125305 .11099243 .12524414 .11099243 .18624878 .11099243 .22224427 .11099243 .26124574 .11099243 .31523133 .1349945 .35923768 .1619873 .40522767 .20899964 .426239 .24899292 .426239 .29299928 .426239 .33599855 .40423585 .3619995 .36123658 .3880005 .3182373 .3880005 .26023866 .3880005 .22224427Z"/>
<path id="font_1_84" d="M.5209961 .21636963C.5209961 .34336854 .42399598 .4423828 .31199647 .4423828 .23399353 .4423828 .19198609 .39837647 .17199707 .3763733V.4423828L.027999878 .43066407V.3996582C.09899902 .3996582 .10598755 .3936615 .10598755 .34973146V-.117996219C.10598755-.16308594 .09498596-.16308594 .027999878-.16308594V-.1940918L.13999939-.19110108 .25299073-.1940918V-.16308594C.18598938-.16308594 .1749878-.16308594 .1749878-.117996219V.050186159 .059173585C.17999268 .04319763 .22200012-.0107421879 .2979889-.0107421879 .4169922-.0107421879 .5209961 .087127689 .5209961 .21594239V.21636963M.43798829 .21594239C.43798829 .09512329 .36799623 .011245728 .2939911 .011245728 .2539978 .011245728 .21598816 .031219483 .18899536 .07215881 .1749878 .09312439 .1749878 .09411621 .1749878 .114089969V.33674623C.20399475 .38838197 .25299073 .41737367 .3039856 .41737367 .3769989 .41737367 .43798829 .32937623 .43798829 .21636963V.21594239Z"/>
<path id="font_1_50" d="M.4149933 .11933899C.4149933 .12934876 .40699769 .13134766 .4019928 .13134766 .3929901 .13134766 .3909912 .12535095 .3889923 .11734009 .35398866 .014251709 .2639923 .014251709 .2539978 .014251709 .20399475 .014251709 .1639862 .044281007 .14099121 .08131409 .11099243 .12934876 .11099243 .19540406 .11099243 .23144531H.3899994C.4119873 .23144531 .4149933 .23144531 .4149933 .2524414 .4149933 .35131837 .36099244 .4482422 .23599243 .4482422 .11999512 .4482422 .027999878 .34532167 .027999878 .22042847 .027999878 .08631897 .1329956-.0107421879 .24798584-.0107421879 .36999513-.0107421879 .4149933 .10032654 .4149933 .11933899M.34899903 .2524414H.11199951C.117996219 .40126039 .20199585 .426239 .23599243 .426239 .33898927 .426239 .34899903 .2913971 .34899903 .2524414Z"/>
<path id="font_2_1" d="M.5009918 .6898804C.4909973 .70788577 .48799134 .7128906 .46798707 .7128906 .45599366 .7128906 .44599916 .70988467 .43699647 .6938782L.067993167 .023986817C.06098938 .0129852299 .06098938 .010986328 .06098938 .009994507 .06098938 0 .068984989 0 .084991458 0H.85198977C.8679962 0 .8759918 0 .8759918 .009994507 .8759918 .010986328 .8759918 .0129852299 .86898806 .023986817L.5009918 .6898804M.43499757 .6148987 .72898867 .08198547H.14099121L.43499757 .6148987Z"/>
<path id="font_3_2" d="M.55599978 .37738038C.55999758 .39138795 .55999758 .39338685 .55999758 .3993988 .55999758 .41940309 .5439911 .43139649 .5269928 .43139649 .5159912 .43139649 .49699403 .4263916 .48599244 .4073944 .48298646 .4013977 .47499085 .36938478 .46998597 .34936524L.44898988 .2663269C.44299317 .24232483 .4119873 .11627197 .40899659 .105270389 .4079895 .105270389 .3639984 .018234253 .28599549 .018234253 .21798706 .018234253 .21798706 .08325195 .21798706 .101257327 .21798706 .1552887 .24099732 .2183075 .2709961 .29534913 .2829895 .32736207 .28799439 .33937074 .28799439 .35636903 .28799439 .40438844 .24699402 .44140626 .19299317 .44140626 .09199524 .44140626 .04699707 .3053589 .04699707 .28834535 .04699707 .27534486 .06098938 .27534486 .06399536 .27534486 .07798767 .27534486 .07899475 .28033448 .08198547 .29135133 .10699463 .3743744 .1499939 .4133911 .18998719 .4133911 .20698548 .4133911 .21499634 .40238954 .21499634 .37838746 .21499634 .3553772 .20599365 .33335877 .20098877 .32035829 .15299988 .19830323 .14299011 .1612854 .14299011 .117263797 .14299011 .1002655 .14299011 .053237916 .18199158 .021224976 .21299744-.004776001 .25498963-.009765625 .28199769-.009765625 .32199098-.009765625 .35798646 .0052337648 .3909912 .035232545 .37799073-.01977539 .36698915-.061782838 .32499696-.11178589 .2979889-.14279175 .2579956-.17610169 .20498657-.17610169 .19799805-.17610169 .15098572-.17610169 .12998963-.14279175 .18399048-.13679505 .18399048-.08879089 .18399048-.08778381 .18399048-.055786134 .15499878-.04978943 .14498902-.04978943 .11999512-.04978943 .08699036-.0697937 .08699036-.11578369 .08699036-.1670227 .1349945-.20410156 .20599365-.20410156 .30699159-.20410156 .42999269-.12579346 .46099855-.00077819827L.55599978 .37738038Z"/>
<path id="font_3_1" d="M.24899292 .10601807C.23899842 .072021488 .20599365 .018234253 .15499878 .018234253 .1519928 .018234253 .12199402 .018234253 .100997928 .03215027 .14199829 .04508972 .14498902 .08100891 .14498902 .087020877 .14498902 .10900879 .12799073 .12402344 .10499573 .12402344 .07699585 .12402344 .04798889 .10002136 .04798889 .0630188 .04798889 .01322937 .10398865-.009765625 .15299988-.009765625 .19898987-.009765625 .23999024 .019226075 .2649994 .061019899 .2889862 .008224487 .34399415-.009765625 .38398744-.009765625 .49899293-.009765625 .55999758 .11502075 .55999758 .14305115 .55999758 .15608216 .5469971 .15608216 .5439911 .15608216 .5299988 .15608216 .5289917 .15107727 .5249939 .13905335 .5039978 .07002258 .44400025 .018234253 .3880005 .018234253 .34799195 .018234253 .32699586 .04508972 .32699586 .08302307 .32699586 .10900879 .35099793 .20018006 .3789978 .31140138 .39898683 .38841249 .44400025 .4133911 .47698976 .4133911 .47898866 .4133911 .5099945 .4133911 .5309906 .39941407 .49899293 .39041139 .4869995 .3624115 .4869995 .34440614 .4869995 .32240296 .5039978 .30740357 .5269928 .30740357 .5499878 .30740357 .58299258 .32640077 .58299258 .3684082 .58299258 .4243927 .5189972 .44140626 .47898866 .44140626 .42900086 .44140626 .3889923 .4084015 .36698915 .3704071 .34899903 .4113922 .30299378 .44140626 .24699402 .44140626 .1349945 .44140626 .070999149 .31840516 .070999149 .2883606 .070999149 .27534486 .084991458 .27534486 .08799744 .27534486 .100997928 .27534486 .101989749 .27934266 .10699463 .29237367 .13198853 .3704071 .19499207 .4133911 .24398804 .4133911 .2769928 .4133911 .3039856 .395401 .3039856 .3474121 .3039856 .32740785 .2919922 .27734376 .2829895 .24327088L.24899292 .10601807Z"/>
<path id="font_1_66" d="M.24699402 0V.0309906C.18099976 .0309906 .1769867 .035995485 .1769867 .075042728V.4423828L.036987306 .43066407V.3996582C.101989749 .3996582 .11099243 .3936615 .11099243 .3447113V.07595825C.11099243 .0309906 .099990848 .0309906 .032989503 .0309906V0L.14299011 .0029907227C.17799378 .0029907227 .21299744 .0009918213 .24699402 0M.19198609 .603775C.19198609 .6307678 .16899109 .6567688 .13899231 .6567688 .10499573 .6567688 .084991458 .6287689 .084991458 .603775 .084991458 .57676699 .10798645 .55078127 .13798523 .55078127 .17199707 .55078127 .19198609 .5787811 .19198609 .603775Z"/>
<path id="font_1_77" d="M.5349884 0V.0309906C.48298646 .0309906 .45799256 .0309906 .45700074 .061019899V.25221253C.45700074 .3383026 .45700074 .36932374 .42599488 .405365 .4119873 .42237855 .3789978 .4423828 .32099916 .4423828 .24798584 .4423828 .20098877 .39935304 .17298889 .33729554V.4423828L.03199768 .43066407V.3996582C.101989749 .3996582 .10998535 .39266969 .10998535 .34370423V.07595825C.10998535 .0309906 .09899902 .0309906 .03199768 .0309906V0L.14498902 .0029907227 .25698854 0V.0309906C.18998719 .0309906 .1789856 .0309906 .1789856 .07595825V.25978089C.1789856 .36431886 .25 .42037965 .31399537 .42037965 .3769989 .42037965 .3880005 .36631776 .3880005 .30926515V.076034549C.3880005 .0309906 .3769989 .0309906 .30999757 .0309906V0L.4229889 .0029907227 .5349884 0Z"/>
<path id="font_1_105" d="M.33198548 .12385559V.18066406H.30699159V.12585449C.30699159 .052108766 .2769928 .014251709 .23999024 .014251709 .17298889 .014251709 .17298889 .10491943 .17298889 .12187195V.3996582H.31599427V.43066407H.17298889V.6142578H.147995C.14698792 .5324249 .116989139 .42565919 .018997193 .42166139V.3996582H.10398865V.12408447C.10398865 .0012512207 .19699097-.0107421879 .23298645-.0107421879 .3039856-.0107421879 .33198548 .060180665 .33198548 .12408447V.12385559Z"/>
<path id="font_4_6" d="M.48599244 .38136292C.48999024 .39537049 .48999024 .39736939 .48999024 .40437318 .48999024 .42237855 .47599793 .43138124 .46099855 .43138124 .45098878 .43138124 .43499757 .42536927 .42599488 .41036988 .42399598 .405365 .41600038 .37435914 .4119873 .35635377 .40499879 .33035279 .397995 .30334474 .3919983 .27633668L.34700013 .09628296C.34298707 .08126831 .2999878 .011245728 .23399353 .011245728 .18299866 .011245728 .17199707 .055267335 .17199707 .0922699 .17199707 .1382904 .18899536 .20030213 .22299195 .28833009 .23899842 .3293457 .24299622 .3403473 .24299622 .36035157 .24299622 .405365 .21099854 .4423828 .16099549 .4423828 .06599426 .4423828 .0289917 .29733277 .0289917 .28833009 .0289917 .27833558 .038986207 .27833558 .040985109 .27833558 .050994874 .27833558 .051986696 .28033448 .056991579 .29634095 .083999637 .3903656 .12399292 .42037965 .1579895 .42037965 .1659851 .42037965 .18299866 .42037965 .18299866 .3883667 .18299866 .36335755 .17298889 .3373413 .1659851 .31834413 .12599182 .21231079 .10798645 .1552887 .10798645 .10827637 .10798645 .019256592 .17098999-.0107421879 .22999573-.0107421879 .2689972-.0107421879 .30299378 .0062561037 .33099366 .03425598 .31799317-.017745972 .30599977-.06674194 .2659912-.11973572 .23999024-.15385437 .20199585-.18309021 .1559906-.18309021 .14199829-.18309021 .09700012-.18005371 .07998657-.14074707 .09599304-.14074707 .10899353-.14074707 .12298584-.1287384 .1329956-.11973572 .14299011-.10673523 .14299011-.08773804 .14299011-.056747438 .115997318-.052734376 .10598755-.052734376 .08299255-.052734376 .049987794-.068740848 .049987794-.11773682 .049987794-.16796875 .09399414-.20507813 .1559906-.20507813 .25898744-.20507813 .3619995-.11373901 .3899994-.00074768069L.48599244 .38136292Z"/>
<path id="font_5_4" d="M.68699648 .32714845C.70199587 .32714845 .72099307 .32714845 .72099307 .34713746 .72099307 .36714173 .70199587 .36714173 .6879883 .36714173H.08898926C.07499695 .36714173 .055999757 .36714173 .055999757 .34713746 .055999757 .32714845 .07499695 .32714845 .08999634 .32714845H.68699648M.6879883 .13284302C.70199587 .13284302 .72099307 .13284302 .72099307 .15284729 .72099307 .17285156 .70199587 .17285156 .68699648 .17285156H.08999634C.07499695 .17285156 .055999757 .17285156 .055999757 .15284729 .055999757 .13284302 .07499695 .13284302 .08898926 .13284302H.6879883Z"/>
<path id="font_4_3" d="M.08799744 .059265138C.084991458 .044265748 .07899475 .021255494 .07899475 .01625061 .07899475-.0017547608 .09298706-.0107421879 .10798645-.0107421879 .11999512-.0107421879 .13798523-.002746582 .14498902 .01725769 .1459961 .019256592 .1579895 .06626892 .1639862 .091278079L.18598938 .18130493C.19198609 .2033081 .19799805 .22531128 .20298767 .24832154 .20698548 .26531983 .21499634 .29434205 .21598816 .29833985 .23098755 .3293457 .28399659 .42037965 .3789978 .42037965 .42399598 .42037965 .43299867 .38336183 .43299867 .35035707 .43299867 .3253479 .42599488 .29733277 .41799928 .26733399L.3899994 .1512909 .36999513 .07527161C.3659973 .055267335 .35699464 .021255494 .35699464 .01625061 .35699464-.0017547608 .37098695-.0107421879 .38598634-.0107421879 .4169922-.0107421879 .4229889 .014251709 .43099977 .04626465 .44499208 .10227966 .48199464 .24832154 .4909973 .28733827 .49398805 .30033876 .5469971 .42037965 .6559906 .42037965 .69898989 .42037965 .70999148 .3863678 .70999148 .35035707 .70999148 .29333497 .66799929 .17930603 .647995 .12628174 .6389923 .10227966 .6349945 .091278079 .6349945 .0712738 .6349945 .024261475 .66999819-.0107421879 .71699526-.0107421879 .8109894-.0107421879 .84799197 .13528443 .84799197 .14329529 .84799197 .1532898 .83898928 .1532898 .83599856 .1532898 .82598879 .1532898 .82598879 .15029907 .82099917 .13528443 .80599978 .08227539 .7739868 .011245728 .71899417 .011245728 .70199587 .011245728 .69499209 .021255494 .69499209 .044265748 .69499209 .0692749 .70399478 .09327698 .71299746 .11528015 .7319946 .16729737 .7739868 .27833558 .7739868 .3353424 .7739868 .4003601 .73399356 .4423828 .6589966 .4423828 .58399966 .4423828 .5329895 .3983612 .49598695 .34535218 .49499513 .35835267 .49198915 .3923645 .46398927 .41636659 .43899537 .43737794 .40699769 .4423828 .38198854 .4423828 .2919922 .4423828 .24299622 .37835694 .22599793 .35534669 .22099304 .41236878 .1789856 .4423828 .13398743 .4423828 .08799744 .4423828 .068984989 .4033661 .05999756 .38536073 .041992189 .35035707 .0289917 .29133607 .0289917 .28833009 .0289917 .27833558 .038986207 .27833558 .040985109 .27833558 .050994874 .27833558 .051986696 .2793274 .057998659 .30133058 .07499695 .37236024 .09498596 .42037965 .1309967 .42037965 .14698792 .42037965 .1619873 .41236878 .1619873 .37435914 .1619873 .35334779 .15899658 .3423462 .1459961 .29032899L.08799744 .059265138Z"/>
<path id="font_5_1" d="M.33099366-.2400055C.33099366-.23701477 .33099366-.23500061 .31399537-.21800232 .18899536-.0920105 .15699768 .09700012 .15699768 .25 .15699768 .42399598 .19499207 .59799197 .31799317 .72299197 .33099366 .73498538 .33099366 .7369995 .33099366 .73999026 .33099366 .746994 .32699586 .75 .32099916 .75 .31098939 .75 .22099304 .6819916 .1619873 .5549927 .11099243 .44499208 .09899902 .33399964 .09899902 .25 .09899902 .17199707 .10998535 .050994874 .16499329-.06201172 .22499085-.18501282 .31098939-.25 .32099916-.25 .32699586-.25 .33099366-.24700928 .33099366-.2400055Z"/>
<path id="font_4_5" d="M.33399964 .30233766C.33999635 .32835389 .36299134 .42037965 .43299867 .42037965 .43798829 .42037965 .46199037 .42037965 .48298646 .40734864 .45498658 .402359 .43499757 .37734986 .43499757 .35334779 .43499757 .33735658 .44599916 .31835938 .47299195 .31835938 .49499513 .31835938 .5269928 .3363495 .5269928 .37635804 .5269928 .42837525 .46798707 .4423828 .43399049 .4423828 .37599183 .4423828 .34098817 .38935853 .32899476 .36634828 .3039856 .43237306 .25 .4423828 .22099304 .4423828 .116989139 .4423828 .05999756 .3133545 .05999756 .28834535 .05999756 .27833558 .069992069 .27833558 .07199097 .27833558 .07998657 .27833558 .08299255 .28033448 .084991458 .28933717 .11898804 .39535523 .18499756 .42037965 .21899414 .42037965 .23799134 .42037965 .272995 .4113617 .272995 .35334779 .272995 .32235719 .2559967 .25532533 .21899414 .11528015 .20298767 .053268434 .16799927 .011245728 .12399292 .011245728 .117996219 .011245728 .09498596 .011245728 .07398987 .024276734 .09899902 .029266358 .12098694 .05027771 .12098694 .07827759 .12098694 .105270389 .09899902 .11328125 .083999637 .11328125 .053985597 .11328125 .0289917 .08728027 .0289917 .055267335 .0289917 .009246826 .07899475-.0107421879 .12298584-.0107421879 .18899536-.0107421879 .22499085 .059280397 .22799683 .0652771 .23999024 .028274537 .27598573-.0107421879 .33599855-.0107421879 .43899537-.0107421879 .49598695 .118270877 .49598695 .14328003 .49598695 .1532898 .4869995 .1532898 .48399354 .1532898 .47499085 .1532898 .47299195 .14929199 .47099305 .14228821 .43798829 .03527832 .36999513 .011245728 .33799745 .011245728 .29899598 .011245728 .2829895 .043273927 .2829895 .07727051 .2829895 .09927368 .2889862 .121276859 .2999878 .16529846L.33399964 .30233766Z"/>
<path id="font_6_1" d="M.6589966 .23046875C.6759949 .23046875 .69400027 .23046875 .69400027 .25045777 .69400027 .27046205 .6759949 .27046205 .6589966 .27046205H.117996219C.100997928 .27046205 .08299255 .27046205 .08299255 .25045777 .08299255 .23046875 .100997928 .23046875 .117996219 .23046875H.6589966Z"/>
<path id="font_2_2" d="M.33499146 .63612368C.33499146 .6630554 .33299256 .6640625 .30499269 .6640625 .24099732 .6014404 .1499939 .6004486 .10899353 .6004486V.5644531C.1329956 .5644531 .19898987 .5644531 .2539978 .592453V.08203125C.2539978 .04899597 .2539978 .035995485 .1539917 .035995485H.115997318V0C.13398743 .0009918213 .25698854 .0039978029 .2939911 .0039978029 .32499696 .0039978029 .45098878 .0009918213 .47299195 0V.035995485H.43499757C.33499146 .035995485 .33499146 .04899597 .33499146 .08203125V.63612368Z"/>
<path id="font_5_2" d="M.2889862 .25C.2889862 .32798768 .27799989 .44898988 .22299195 .56199648 .16299439 .68499758 .07699585 .75 .066986087 .75 .06098938 .75 .056991579 .74598696 .056991579 .73999026 .056991579 .7369995 .056991579 .73498538 .07598877 .71699526 .17399597 .6179962 .23098755 .45899964 .23098755 .25 .23098755 .07899475 .19400025-.09700012 .069992069-.2230072 .056991579-.23500061 .056991579-.23701477 .056991579-.2400055 .056991579-.2460022 .06098938-.25 .066986087-.25 .07699585-.25 .16699219-.18200684 .22599793-.055007936 .2769928 .054992677 .2889862 .16600037 .2889862 .25Z"/>
<path id="font_5_3" d="M.40899659 .23046875H.6879883C.70199587 .23046875 .72099307 .23046875 .72099307 .25045777 .72099307 .27046205 .70199587 .27046205 .6879883 .27046205H.40899659V.5500183C.40899659 .56399539 .40899659 .5830078 .3889923 .5830078 .36898805 .5830078 .36898805 .56399539 .36898805 .5500183V.27046205H.08898926C.07499695 .27046205 .055999757 .27046205 .055999757 .25045777 .055999757 .23046875 .07499695 .23046875 .08898926 .23046875H.36898805V-.05000305C.36898805-.06401062 .36898805-.08300781 .3889923-.08300781 .40899659-.08300781 .40899659-.06401062 .40899659-.05000305V.23046875Z"/>
<path id="font_1_47" d="M.5269928 0V.0309906C.45700074 .0309906 .44898988 .038009645 .44898988 .0871582V.69433596L.30499269 .6826172V.6516113C.375 .6516113 .3829956 .64463809 .3829956 .59580996V.38035584C.35398866 .41636659 .31098939 .4423828 .25698854 .4423828 .13899231 .4423828 .033996583 .3443451 .033996583 .21531677 .033996583 .088272098 .13198853-.0107421879 .24598694-.0107421879 .30999757-.0107421879 .35499574 .023254395 .37998963 .055267335V-.0107421879L.5269928 0M.37998963 .117996219C.37998963 .099990848 .37998963 .09799194 .36898805 .08099365 .33898927 .033218385 .2939911 .011245728 .25099183 .011245728 .20599365 .011245728 .16999817 .037216188 .1459961 .075164798 .11999512 .1161499 .116989139 .17320252 .116989139 .21421814 .116989139 .25125123 .11898804 .31129457 .147995 .35632325 .16899109 .38734437 .20698548 .42037965 .26098634 .42037965 .29599 .42037965 .33799745 .405365 .36898805 .3603363 .37998963 .34332276 .37998963 .34132386 .37998963 .32330323V.117996219Z"/>
<path id="font_1_75" d="M.8129883 0V.0309906C.7609863 .0309906 .73599246 .0309906 .7350006 .061019899V.25221253C.7350006 .3383026 .7350006 .36932374 .70399478 .405365 .6899872 .42237855 .6569977 .4423828 .598999 .4423828 .5149994 .4423828 .47099305 .38233949 .45399476 .34429933 .43998719 .43138124 .3659973 .4423828 .32099916 .4423828 .24798584 .4423828 .20098877 .39935304 .17298889 .33729554V.4423828L.03199768 .43066407V.3996582C.101989749 .3996582 .10998535 .39266969 .10998535 .34370423V.07595825C.10998535 .0309906 .09899902 .0309906 .03199768 .0309906V0L.14498902 .0029907227 .25698854 0V.0309906C.18998719 .0309906 .1789856 .0309906 .1789856 .07595825V.25978089C.1789856 .36431886 .25 .42037965 .31399537 .42037965 .3769989 .42037965 .3880005 .36631776 .3880005 .30926515V.076034549C.3880005 .0309906 .3769989 .0309906 .30999757 .0309906V0L.4229889 .0029907227 .5349884 0V.0309906C.46798707 .0309906 .45700074 .0309906 .45700074 .076034549V.2602234C.45700074 .36431886 .5279999 .42037965 .59199526 .42037965 .6549988 .42037965 .66600039 .36631776 .66600039 .30926515V.076034549C.66600039 .0309906 .6549988 .0309906 .58799746 .0309906V0L.70098879 .0029907227 .8129883 0Z"/>
<path id="font_1_28" d="M.48298646 .08912659V.14511109H.45799256V.08912659C.45799256 .03112793 .43299867 .025131226 .42199708 .025131226 .3889923 .025131226 .3849945 .070129398 .3849945 .07511902V.27508546C.3849945 .31707765 .3849945 .3560791 .34899903 .39312745 .30999757 .43223573 .2599945 .4482422 .21199036 .4482422 .12998963 .4482422 .06098938 .40115357 .06098938 .335083 .06098938 .30508424 .08099365 .28808595 .10699463 .28808595 .1349945 .28808595 .15299988 .30807496 .15299988 .33407594 .15299988 .3460846 .147995 .37908937 .101989749 .38008119 .1289978 .41519166 .17799378 .426239 .20999146 .426239 .25898744 .426239 .31599427 .38710023 .31599427 .29808045V.26107789C.2649994 .25808717 .19499207 .25508119 .13198853 .22509766 .056991579 .19110108 .03199768 .13911438 .03199768 .09512329 .03199768 .014251709 .1289978-.0107421879 .19198609-.0107421879 .2579956-.0107421879 .3039856 .029251099 .32299806 .07624817 .32699586 .036132814 .35398866-.005859375 .40098573-.005859375 .42199708-.005859375 .48298646 .008132935 .48298646 .08912659M.31599427 .14013672C.31599427 .04525757 .24398804 .011245728 .19898987 .011245728 .1499939 .011245728 .10899353 .04624939 .10899353 .09625244 .10899353 .15124512 .15098572 .23425293 .31599427 .24024964V.14013672Z"/>
<path id="font_1_96" d="M.3639984 .38137818C.3639984 .41337586 .33299256 .4423828 .2899933 .4423828 .21699524 .4423828 .18099976 .37538148 .16699219 .3323822V.4423828L.027999878 .43066407V.3996582C.09799194 .3996582 .10598755 .39266969 .10598755 .34370423V.07595825C.10598755 .0309906 .09498596 .0309906 .027999878 .0309906V0L.14199829 .0029907227C.18199158 .0029907227 .22898865 .0029907227 .2689972 0V.0309906H.24798584C.17399597 .0309906 .17199707 .04197693 .17199707 .07795715V.23181153C.17199707 .33137513 .21398926 .42037965 .2899933 .42037965 .29699708 .42037965 .29899598 .42037965 .30099488 .41937257 .2979889 .41838075 .27799989 .40637208 .27799989 .3803711 .27799989 .35237123 .29899598 .33737184 .32099916 .33737184 .33898927 .33737184 .3639984 .3493805 .3639984 .38137818Z"/>
<path id="font_1_43" d="M.4149933 .119140628C.4149933 .12911988 .40499879 .12911988 .4019928 .12911988 .3929901 .12911988 .3909912 .12512207 .3889923 .119140628 .3600006 .026229859 .29499818 .014251709 .2579956 .014251709 .20498657 .014251709 .116989139 .0572052 .116989139 .21801758 .116989139 .38093568 .19898987 .42323304 .2519989 .42323304 .26098634 .42323304 .32398988 .42222596 .35899354 .38594056 .31799317 .38293458 .31199647 .3529358 .31199647 .3399353 .31199647 .31393434 .32998658 .2939453 .35798646 .2939453 .38398744 .2939453 .4039917 .3109436 .4039917 .34094239 .4039917 .40911866 .32798768 .4482422 .25099183 .4482422 .12599182 .4482422 .033996583 .3399353 .033996583 .21601868 .033996583 .08816528 .1329956-.0107421879 .24899292-.0107421879 .3829956-.0107421879 .4149933 .10914612 .4149933 .119140628Z"/>
<path id="font_4_4" d="M.04499817-.122177127C.036987306-.15631104 .034988405-.16334534-.009002686-.16334534-.021011353-.16334534-.03201294-.16334534-.03201294-.18234253-.03201294-.19033814-.027008057-.19433594-.019012452-.19433594 .0079956059-.19433594 .036987306-.19134522 .06498718-.19134522 .09799194-.19134522 .13198853-.19433594 .1639862-.19433594 .16899109-.19433594 .18199158-.19433594 .18199158-.17434693 .18199158-.16334534 .17199707-.16334534 .1579895-.16334534 .10798645-.16334534 .10798645-.15631104 .10798645-.14727783 .10798645-.13523865 .1499939 .028259278 .15699768 .053268434 .16999817 .024261475 .19799805-.0107421879 .24899292-.0107421879 .36499024-.0107421879 .48999024 .13528443 .48999024 .28233338 .48999024 .37635804 .43299867 .4423828 .35699464 .4423828 .30699159 .4423828 .25898744 .40637208 .22599793 .36735536 .21598816 .42137147 .17298889 .4423828 .13598633 .4423828 .08999634 .4423828 .070999149 .4033661 .06199646 .38536073 .04399109 .35134889 .0309906 .29133607 .0309906 .28833009 .0309906 .27833558 .040985109 .27833558 .042999269 .27833558 .052993776 .27833558 .053985597 .2793274 .05999756 .30133058 .07699585 .37236024 .09700012 .42037965 .1329956 .42037965 .1499939 .42037965 .1639862 .41236878 .1639862 .37435914 .1639862 .35134889 .16099549 .3403473 .15699768 .323349L.04499817-.122177127M.22099304 .3123474C.22799683 .33935548 .25498963 .36735536 .272995 .38235475 .30799867 .41337586 .33699037 .42037965 .35398866 .42037965 .3939972 .42037965 .41799928 .38536073 .41799928 .32633973 .41799928 .26733399 .3849945 .15229798 .36698915 .11428833 .33299256 .044265748 .2849884 .011245728 .24798584 .011245728 .18199158 .011245728 .16899109 .0942688 .16899109 .10028076 .16899109 .10227966 .16899109 .104278568 .17199707 .11628723L.22099304 .3123474Z"/>
<path id="font_4_2" d="M.23899842 .68333438C.23899842 .6843262 .23899842 .69433596 .22599793 .69433596 .20298767 .69433596 .12998963 .6863251 .10398865 .6843262 .09599304 .68333438 .084991458 .6823273 .084991458 .6643219 .084991458 .6523285 .09399414 .6523285 .10899353 .6523285 .15699768 .6523285 .15899658 .6453247 .15899658 .6353302 .15899658 .6283264 .1499939 .5943451 .14498902 .573349L.06298828 .24731446C.050994874 .1973114 .04699707 .18130493 .04699707 .14628601 .04699707 .05126953 .099990848-.0107421879 .17399597-.0107421879 .2919922-.0107421879 .4149933 .1382904 .4149933 .28233338 .4149933 .37335206 .3619995 .4423828 .28199769 .4423828 .23599243 .4423828 .19499207 .41337586 .16499329 .38235475L.23899842 .68333438M.14498902 .30534364C.15098572 .3273468 .15098572 .3293457 .1599884 .3403473 .20899964 .405365 .2539978 .42037965 .27999879 .42037965 .31599427 .42037965 .34298707 .3903656 .34298707 .32633973 .34298707 .26733399 .30999757 .15229798 .2919922 .11428833 .25898744 .04725647 .21299744 .011245728 .17399597 .011245728 .13999939 .011245728 .10699463 .038253786 .10699463 .11227417 .10699463 .13128662 .10699463 .15029907 .12298584 .21331787L.14498902 .30534364Z"/>
<path id="font_1_112" d="M.5079956 .3996582V.43066407C.4850006 .4286499 .45599366 .42765809 .43299867 .42765809L.34599305 .43066407V.3996582C.3829956 .39865113 .3939972 .37568666 .3939972 .35671998 .3939972 .34773255 .3919983 .34373475 .3880005 .3327484L.28599549 .078125 .17399597 .35671998C.16799927 .3697052 .16799927 .37368775 .16799927 .37368775 .16799927 .3996582 .20698548 .3996582 .22499085 .3996582V.43066407L.115997318 .42765809C.08898926 .42765809 .04899597 .4286499 .018997193 .43066407V.3996582C.08198547 .3996582 .085998538 .3936615 .09899902 .36271668L.24299622 .008224487C.24899292-.0057525637 .25099183-.0107421879 .2639923-.0107421879 .2769928-.0107421879 .2809906-.0017700195 .2849884 .008224487L.41600038 .3327484C.4249878 .3557129 .44198609 .39865113 .5079956 .3996582Z"/>
<path id="font_1_35" d="M.5209961 .2163086C.5209961 .34335328 .4229889 .4423828 .30899049 .4423828 .23098755 .4423828 .18798828 .39537049 .17199707 .3773651V.69433596L.027999878 .68333438V.6523285C.09799194 .6523285 .10598755 .6453247 .10598755 .596344V.00024414063H.1309967L.16699219 .06227112C.18199158 .039260866 .22399903-.0107421879 .2979889-.0107421879 .4169922-.0107421879 .5209961 .08728027 .5209961 .2163086M.43798829 .21731568C.43798829 .18029785 .43598939 .120285037 .40699769 .07527161 .38598634 .044265748 .34799195 .011245728 .2939911 .011245728 .24899292 .011260986 .21299744 .03526306 .18899536 .072265628 .1749878 .09326172 .1749878 .09625244 .1749878 .11425781V.32034303C.1749878 .3393402 .1749878 .3403473 .18598938 .35635377 .22499085 .41236878 .27999879 .42037965 .3039856 .42037965 .34899903 .42037965 .3849945 .3943634 .40899659 .35635377 .43499757 .31533814 .43798829 .25831605 .43798829 .21730042V.21731568Z"/>
<path id="font_1_118" d="M.5079956 .3996582V.43066407C.4850006 .4286499 .45599366 .42765809 .43299867 .42765809L.34599305 .43066407V.3996582C.3769989 .39866639 .3929901 .3816681 .3929901 .35668946 .3929901 .34669496 .3919983 .34469605 .3869934 .33270265L.28599549 .08685303 .1749878 .35568238C.17098999 .36567689 .16899109 .36967469 .16899109 .3736725 .16899109 .3996582 .20599365 .3996582 .22499085 .3996582V.43066407L.115997318 .42765809C.08898926 .42765809 .04899597 .4286499 .018997193 .43066407V.3996582C.066986087 .3996582 .085998538 .3996582 .099990848 .36468507L.25-.000091552738 .22499085-.059066774C.20298767-.11407471 .1749878-.18309021 .11099243-.18309021 .10598755-.18309021 .08299255-.18309021 .06399536-.16503906 .09498596-.16104126 .102996829-.13905335 .102996829-.123046878 .102996829-.0970459 .083999637-.08103943 .06098938-.08103943 .040985109-.08103943 .018997193-.09403992 .018997193-.124053958 .018997193-.16905213 .06098938-.20507813 .11099243-.20507813 .17399597-.20507813 .21499634-.14804077 .23899842-.091049198L.4149933 .33569337C.44099427 .39865113 .49198915 .3996582 .5079956 .3996582Z"/>
<path id="font_1_54" d="M.6100006 .45477296 .58200076 .6796875H.032989503V.64868167H.056991579C.13398743 .64868167 .13598633 .63768008 .13598633 .6016998V.07797241C.13598633 .041992189 .13398743 .0309906 .056991579 .0309906H.032989503V0C.067993167 .0029907227 .1459961 .0029907227 .18499756 .0029907227 .22599793 .0029907227 .31698609 .0029907227 .35299684 0V.0309906H.31999208C.22499085 .031188965 .22499085 .044189454 .22499085 .079193118V.3251953H.31098939C.40699769 .3251953 .4169922 .29318238 .4169922 .20819092H.44198609V.4731903H.4169922C.4169922 .38919068 .40699769 .3561859 .31098939 .3561859H.22499085V.6091919C.22499085 .64167788 .22698975 .64868167 .27398683 .64868167H.3939972C.5439911 .64868167 .56900027 .5926819 .58499148 .4546814L.6100006 .45477296Z"/>
<path id="font_1_116" d="M.5159912 0V.0309906C.46199037 .03125 .44400025 .0332489 .42099 .0622406L.2869873 .23493958C.31698609 .27287293 .35499574 .3217926 .3789978 .3477478 .4099884 .38368226 .45098878 .39866639 .49798585 .3996582V.43066407C.47200013 .4286499 .44198609 .42765809 .41600038 .42765809 .38598634 .42765809 .33299256 .42965699 .31999208 .43066407V.3996582C.34098817 .3973999 .34899903 .3843994 .34899903 .3684082 .34899903 .35240174 .33898927 .33940126 .33399964 .33340455L.27198792 .2554016 .19400025 .35639955C.18499756 .3664093 .18499756 .3684082 .18499756 .3744049 .18499756 .3894043 .19999695 .39840699 .21998596 .39941407V.43066407L.11199951 .42765809C.09098816 .42765809 .04399109 .4286499 .016998291 .43066407V.3996582C.08699036 .3996582 .08799744 .39865113 .1349945 .3387146L.23399353 .20982361C.18699646 .14988709 .18699646 .14788819 .13999939 .09094238 .09199524 .032989503 .032989503 .0309906 .011993408 .0309906V0C.037994386 .0019989014 .068984989 .0029907227 .09498596 .0029907227L.18998719 0V.0309906C.16799927 .034240724 .16099549 .04724121 .16099549 .0622406 .16099549 .084243778 .18998719 .117248538 .25099183 .1892395L.32699586 .08924866C.33499146 .07824707 .34799195 .0622406 .34799195 .056243898 .34799195 .04724121 .33898927 .03224182 .31199647 .03125V0L.41999818 .0029907227C.44699098 .0029907227 .48599244 .0019989014 .5159912 0Z"/>
<path id="font_1_42" d="M.6649933 .23271179C.6649933 .24272156 .6649933 .24972534 .6519928 .24972534 .6409912 .24972534 .6409912 .24372864 .6399994 .23371887 .6319885 .09059143 .5249939 .008529663 .41600038 .008529663 .35499574 .008529663 .15899658 .042556764 .15899658 .34080506 .15899658 .64004519 .35398866 .67407229 .4149933 .67407229 .5239868 .67407229 .61299136 .58299258 .6329956 .4368744 .6349945 .42286683 .6349945 .41986085 .6489868 .41986085 .6649933 .41986085 .6649933 .42286683 .6649933 .44387818V.68107607C.6649933 .69807437 .6649933 .7050781 .6539917 .7050781 .6499939 .7050781 .6459961 .7050781 .6380005 .69306948L.58799746 .61901858C.5509949 .6550598 .5 .7050781 .4039917 .7050781 .21699524 .7050781 .055999757 .5459595 .055999757 .34179688 .055999757 .1346283 .21798706-.022460938 .4039917-.022460938 .5669861-.022460938 .6649933 .116622928 .6649933 .23271179Z"/>
<path id="font_1_55" d="M.35699464 .63479617C.35699464 .6717987 .31999208 .7050781 .2669983 .7050781 .19699097 .7050781 .11199951 .65179446 .11199951 .5457611V.43066407H.032989503V.3996582H.11199951V.07595825C.11199951 .0309906 .100997928 .0309906 .033996583 .0309906V0L.147995 .0029907227C.18798828 .0029907227 .23498535 .0029907227 .2749939 0V.0309906H.2539978C.17999268 .0309906 .17799378 .04197693 .17799378 .07795715V.3996582H.2919922V.43066407H.1749878V.5467529C.1749878 .63479617 .22299195 .68307498 .2669983 .68307498 .269989 .68307498 .2849884 .68307498 .2999878 .675827 .28799439 .6717987 .269989 .6587982 .269989 .6338043 .269989 .61079409 .28599549 .5907898 .31298829 .5907898 .34199525 .5907898 .35699464 .61079409 .35699464 .63479617Z"/>
<path id="font_1_109" d="M.5349884 0V.0309906C.46499635 .0309906 .45700074 .037994386 .45700074 .08705139V.4423828L.30999757 .43066407V.3996582C.37998963 .3996582 .3880005 .39266969 .3880005 .34373475V.16601563C.3880005 .07910156 .33999635 .011245728 .2669983 .011245728 .18299866 .011245728 .1789856 .058135988 .1789856 .11009216V.4423828L.03199768 .43066407V.3996582C.10998535 .3996582 .10998535 .39666749 .10998535 .3078003V.15802002C.10998535 .080093387 .10998535-.0107421879 .2619934-.0107421879 .31799317-.0107421879 .3619995 .017242432 .3909912 .07910156V-.0107421879L.5349884 0Z"/>
<path id="font_4_1" d="M.7599945 .69506838C.7599945 .69807437 .7579956 .7050781 .7489929 .7050781 .74598696 .7050781 .7449951 .70407107 .73399356 .69306948L.6639862 .61602786C.6549988 .6300354 .60899356 .7050781 .49798585 .7050781 .2749939 .7050781 .049987794 .48391725 .049987794 .25172425 .049987794 .08659363 .16799927-.022460938 .32099916-.022460938 .4079895-.022460938 .48399354 .017532349 .5369873 .063583377 .6299896 .14564514 .6469879 .2367096 .6469879 .23971558 .6469879 .24972534 .6369934 .24972534 .6349945 .24972534 .6289978 .24972534 .6239929 .24772644 .621994 .23971558 .61299136 .21069336 .58999636 .13963318 .5209961 .081588748 .45199586 .025543213 .3889923 .008529663 .33699037 .008529663 .24699402 .008529663 .14099121 .060577394 .14099121 .21670532 .14099121 .27374269 .1619873 .43588258 .2619934 .55296328 .32299806 .62402346 .4169922 .67407229 .5059967 .67407229 .60798647 .67407229 .6669922 .5970001 .6669922 .48091126 .6669922 .44088746 .6639862 .43988038 .6639862 .4298706 .6639862 .41986085 .6749878 .41986085 .67900088 .41986085 .69200137 .41986085 .69200137 .42185975 .69699099 .43988038L.7599945 .69506838Z"/>
</defs>
<use data-text="s" xlink:href="#font_1_98" transform="matrix(9.963098,0,0,-9.962799,66.09345,14.485062)"/>
<use data-text="l" xlink:href="#font_1_72" transform="matrix(9.963098,0,0,-9.962799,70.0189,14.485062)"/>
<use data-text="o" xlink:href="#font_1_81" transform="matrix(9.963098,0,0,-9.962799,72.78864,14.485062)"/>
<use data-text="p" xlink:href="#font_1_84" transform="matrix(9.963098,0,0,-9.962799,77.770198,14.485062)"/>
<use data-text="e" xlink:href="#font_1_50" transform="matrix(9.963098,0,0,-9.962799,83.57868,14.485062)"/>
<use data-text="&#x2206;" xlink:href="#font_2_1" transform="matrix(6.9741489,0,0,-6.97394,92.63877,10.039963)"/>
<use data-text="y" xlink:href="#font_3_2" transform="matrix(6.9741489,0,0,-6.97394,99.184108,10.039963)"/>
<path transform="matrix(1.00005,0,0,-1.00002,-74.00155,-126.85278)" stroke-width=".3985" stroke-linecap="butt" stroke-miterlimit="10" stroke-linejoin="miter" fill="none" stroke="#000000" d="M166.519-138.844H177.581"/>
<use data-text="&#x2206;" xlink:href="#font_2_1" transform="matrix(6.9741489,0,0,-6.97394,92.525768,17.92012)"/>
<use data-text="x" xlink:href="#font_3_1" transform="matrix(6.9741489,0,0,-6.97394,99.07011,17.92012)"/>
<use data-text="p" xlink:href="#font_1_84" transform="matrix(9.963098,0,0,-9.962799,174.85987,7.831909)"/>
<use data-text="o" xlink:href="#font_1_81" transform="matrix(9.963098,0,0,-9.962799,180.66837,7.831909)"/>
<use data-text="i" xlink:href="#font_1_66" transform="matrix(9.963098,0,0,-9.962799,185.6499,7.831909)"/>
<use data-text="n" xlink:href="#font_1_77" transform="matrix(9.963098,0,0,-9.962799,188.41965,7.831909)"/>
<use data-text="t" xlink:href="#font_1_105" transform="matrix(9.963098,0,0,-9.962799,193.69013,7.831909)"/>
<use data-text="s" xlink:href="#font_1_98" transform="matrix(9.963098,0,0,-9.962799,200.87354,7.831909)"/>
<use data-text="l" xlink:href="#font_1_72" transform="matrix(9.963098,0,0,-9.962799,204.79898,7.831909)"/>
<use data-text="o" xlink:href="#font_1_81" transform="matrix(9.963098,0,0,-9.962799,207.56873,7.831909)"/>
<use data-text="p" xlink:href="#font_1_84" transform="matrix(9.963098,0,0,-9.962799,212.55027,7.831909)"/>
<use data-text="e" xlink:href="#font_1_50" transform="matrix(9.963098,0,0,-9.962799,218.36872,7.831909)"/>
<use data-text="y" xlink:href="#font_4_6" transform="matrix(9.963098,0,0,-9.962799,156.53595,19.787156)"/>
<use data-text="=" xlink:href="#font_5_4" transform="matrix(9.963098,0,0,-9.962799,164.54538,19.787156)"/>
<use data-text="m" xlink:href="#font_4_3" transform="matrix(9.963098,0,0,-9.962799,175.06189,19.787156)"/>
<use data-text="(" xlink:href="#font_5_1" transform="matrix(9.963098,0,0,-9.962799,183.81034,19.787156)"/>
<use data-text="x" xlink:href="#font_4_5" transform="matrix(9.963098,0,0,-9.962799,187.68451,19.787156)"/>
<use data-text="&#x2212;" xlink:href="#font_6_1" transform="matrix(9.963098,0,0,-9.962799,195.59293,19.787156)"/>
<use data-text="x" xlink:href="#font_4_5" transform="matrix(9.963098,0,0,-9.962799,205.55542,19.787156)"/>
<use data-text="1" xlink:href="#font_2_2" transform="matrix(6.9741489,0,0,-6.97394,211.24973,21.28218)"/>
<use data-text=")" xlink:href="#font_5_2" transform="matrix(9.963098,0,0,-9.962799,215.71994,19.787156)"/>
<use data-text="+" xlink:href="#font_5_3" transform="matrix(9.963098,0,0,-9.962799,221.79743,19.787156)"/>
<use data-text="y" xlink:href="#font_4_6" transform="matrix(9.963098,0,0,-9.962799,231.77173,19.787156)"/>
<use data-text="1" xlink:href="#font_2_2" transform="matrix(6.9741489,0,0,-6.97394,236.65598,21.28218)"/>
<use data-text="d" xlink:href="#font_1_47" transform="matrix(9.963098,0,0,-9.962799,282.8733,30.477364)"/>
<use data-text="e" xlink:href="#font_1_50" transform="matrix(9.963098,0,0,-9.962799,288.41279,30.477364)"/>
<use data-text="m" xlink:href="#font_1_75" transform="matrix(9.963098,0,0,-9.962799,292.83638,30.477364)"/>
<use data-text="a" xlink:href="#font_1_28" transform="matrix(9.963098,0,0,-9.962799,301.13566,30.477364)"/>
<use data-text="n" xlink:href="#font_1_77" transform="matrix(9.963098,0,0,-9.962799,306.1172,30.477364)"/>
<use data-text="d" xlink:href="#font_1_47" transform="matrix(9.963098,0,0,-9.962799,311.65669,30.477364)"/>
<use data-text="p" xlink:href="#font_1_84" transform="matrix(9.963098,0,0,-9.962799,320.5039,30.477364)"/>
<use data-text="r" xlink:href="#font_1_96" transform="matrix(9.963098,0,0,-9.962799,326.04338,30.477364)"/>
<use data-text="i" xlink:href="#font_1_66" transform="matrix(9.963098,0,0,-9.962799,329.9489,30.477364)"/>
<use data-text="c" xlink:href="#font_1_43" transform="matrix(9.963098,0,0,-9.962799,332.71864,30.477364)"/>
<use data-text="e" xlink:href="#font_1_50" transform="matrix(9.963098,0,0,-9.962799,337.14228,30.477364)"/>
<use data-text="p" xlink:href="#font_4_4" transform="matrix(9.963098,0,0,-9.962799,270.04466,42.433588)"/>
<use data-text="=" xlink:href="#font_5_4" transform="matrix(9.963098,0,0,-9.962799,277.82405,42.433588)"/>
<use data-text="m" xlink:href="#font_4_3" transform="matrix(9.963098,0,0,-9.962799,288.34156,42.433588)"/>
<use data-text="(" xlink:href="#font_5_1" transform="matrix(9.963098,0,0,-9.962799,297.089,42.433588)"/>
<use data-text="x" xlink:href="#font_4_5" transform="matrix(9.963098,0,0,-9.962799,300.9632,42.433588)"/>
<use data-text="&#x2212;" xlink:href="#font_6_1" transform="matrix(9.963098,0,0,-9.962799,308.87159,42.433588)"/>
<use data-text="x" xlink:href="#font_4_5" transform="matrix(9.963098,0,0,-9.962799,318.83509,42.433588)"/>
<use data-text="1" xlink:href="#font_2_2" transform="matrix(6.9741489,0,0,-6.97394,324.52937,43.92762)"/>
<use data-text=")" xlink:href="#font_5_2" transform="matrix(9.963098,0,0,-9.962799,328.9986,42.433588)"/>
<use data-text="+" xlink:href="#font_5_3" transform="matrix(9.963098,0,0,-9.962799,335.07609,42.433588)"/>
<use data-text="y" xlink:href="#font_4_6" transform="matrix(9.963098,0,0,-9.962799,345.05036,42.433588)"/>
<use data-text="1" xlink:href="#font_2_2" transform="matrix(6.9741489,0,0,-6.97394,349.93464,43.92762)"/>
<use data-text="p" xlink:href="#font_4_4" transform="matrix(9.963098,0,0,-9.962799,287.62849,54.388833)"/>
<use data-text="=" xlink:href="#font_5_4" transform="matrix(9.963098,0,0,-9.962799,295.40888,54.388833)"/>
<use data-text="m" xlink:href="#font_4_3" transform="matrix(9.963098,0,0,-9.962799,305.9254,54.388833)"/>
<use data-text="x" xlink:href="#font_4_5" transform="matrix(9.963098,0,0,-9.962799,314.67304,54.388833)"/>
<use data-text="+" xlink:href="#font_5_3" transform="matrix(9.963098,0,0,-9.962799,322.58125,54.388833)"/>
<use data-text="b" xlink:href="#font_4_2" transform="matrix(9.963098,0,0,-9.962799,332.54475,54.388833)"/>
<use data-text="p" xlink:href="#font_1_84" transform="matrix(9.963098,0,0,-9.962799,58.683084,70.72818)"/>
<use data-text="r" xlink:href="#font_1_96" transform="matrix(9.963098,0,0,-9.962799,64.22256,70.72818)"/>
<use data-text="i" xlink:href="#font_1_66" transform="matrix(9.963098,0,0,-9.962799,68.128078,70.72818)"/>
<use data-text="c" xlink:href="#font_1_43" transform="matrix(9.963098,0,0,-9.962799,70.897838,70.72818)"/>
<use data-text="e" xlink:href="#font_1_50" transform="matrix(9.963098,0,0,-9.962799,75.32145,70.72818)"/>
<use data-text="v" xlink:href="#font_1_112" transform="matrix(9.963098,0,0,-9.962799,83.05282,70.72818)"/>
<use data-text="a" xlink:href="#font_1_28" transform="matrix(9.963098,0,0,-9.962799,87.76537,70.72818)"/>
<use data-text="r" xlink:href="#font_1_96" transform="matrix(9.963098,0,0,-9.962799,92.74691,70.72818)"/>
<use data-text="i" xlink:href="#font_1_66" transform="matrix(9.963098,0,0,-9.962799,96.65244,70.72818)"/>
<use data-text="e" xlink:href="#font_1_50" transform="matrix(9.963098,0,0,-9.962799,99.42219,70.72818)"/>
<use data-text="s" xlink:href="#font_1_98" transform="matrix(9.963098,0,0,-9.962799,103.8458,70.72818)"/>
<use data-text="b" xlink:href="#font_1_35" transform="matrix(9.963098,0,0,-9.962799,111.07902,70.72818)"/>
<use data-text="y" xlink:href="#font_1_118" transform="matrix(9.963098,0,0,-9.962799,116.34948,70.72818)"/>
<use data-text="s" xlink:href="#font_1_98" transform="matrix(9.963098,0,0,-9.962799,124.91775,70.72818)"/>
<use data-text="c" xlink:href="#font_1_43" transform="matrix(9.963098,0,0,-9.962799,128.8432,70.72818)"/>
<use data-text="e" xlink:href="#font_1_50" transform="matrix(9.963098,0,0,-9.962799,133.26685,70.72818)"/>
<use data-text="n" xlink:href="#font_1_77" transform="matrix(9.963098,0,0,-9.962799,137.69046,70.72818)"/>
<use data-text="a" xlink:href="#font_1_28" transform="matrix(9.963098,0,0,-9.962799,143.22992,70.72818)"/>
<use data-text="r" xlink:href="#font_1_96" transform="matrix(9.963098,0,0,-9.962799,148.21149,70.72818)"/>
<use data-text="i" xlink:href="#font_1_66" transform="matrix(9.963098,0,0,-9.962799,152.117,70.72818)"/>
<use data-text="o" xlink:href="#font_1_81" transform="matrix(9.963098,0,0,-9.962799,154.88675,70.72818)"/>
<use data-text="x" xlink:href="#font_4_5" transform="matrix(9.963098,0,0,-9.962799,163.19632,70.72818)"/>
<use data-text="F" xlink:href="#font_1_54" transform="matrix(9.963098,0,0,-9.962799,49.440614,122.4142)"/>
<use data-text="i" xlink:href="#font_1_66" transform="matrix(9.963098,0,0,-9.962799,55.946519,122.4142)"/>
<use data-text="x" xlink:href="#font_1_116" transform="matrix(9.963098,0,0,-9.962799,58.716264,122.4142)"/>
<use data-text="e" xlink:href="#font_1_50" transform="matrix(9.963098,0,0,-9.962799,63.97679,122.4142)"/>
<use data-text="d" xlink:href="#font_1_47" transform="matrix(9.963098,0,0,-9.962799,68.400409,122.4142)"/>
<use data-text="c" xlink:href="#font_1_43" transform="matrix(9.963098,0,0,-9.962799,77.247638,122.4142)"/>
<use data-text="o" xlink:href="#font_1_81" transform="matrix(9.963098,0,0,-9.962799,81.671268,122.4142)"/>
<use data-text="s" xlink:href="#font_1_98" transform="matrix(9.963098,0,0,-9.962799,86.6528,122.4142)"/>
<use data-text="t" xlink:href="#font_1_105" transform="matrix(9.963098,0,0,-9.962799,90.57826,122.4142)"/>
<use data-text="b" xlink:href="#font_4_2" transform="matrix(9.963098,0,0,-9.962799,97.78203,122.4142)"/>
<use data-text="a" xlink:href="#font_1_28" transform="matrix(9.963098,0,0,-9.962799,105.37541,122.4142)"/>
<use data-text="n" xlink:href="#font_1_77" transform="matrix(9.963098,0,0,-9.962799,110.35695,122.4142)"/>
<use data-text="d" xlink:href="#font_1_47" transform="matrix(9.963098,0,0,-9.962799,115.89644,122.4142)"/>
<use data-text="v" xlink:href="#font_1_112" transform="matrix(9.963098,0,0,-9.962799,52.10675,134.36945)"/>
<use data-text="a" xlink:href="#font_1_28" transform="matrix(9.963098,0,0,-9.962799,56.809328,134.36945)"/>
<use data-text="r" xlink:href="#font_1_96" transform="matrix(9.963098,0,0,-9.962799,61.790864,134.36945)"/>
<use data-text="i" xlink:href="#font_1_66" transform="matrix(9.963098,0,0,-9.962799,65.696399,134.36945)"/>
<use data-text="a" xlink:href="#font_1_28" transform="matrix(9.963098,0,0,-9.962799,68.46614,134.36945)"/>
<use data-text="b" xlink:href="#font_1_35" transform="matrix(9.963098,0,0,-9.962799,73.44769,134.36945)"/>
<use data-text="l" xlink:href="#font_1_72" transform="matrix(9.963098,0,0,-9.962799,78.98717,134.36945)"/>
<use data-text="e" xlink:href="#font_1_50" transform="matrix(9.963098,0,0,-9.962799,81.75691,134.36945)"/>
<use data-text="c" xlink:href="#font_1_43" transform="matrix(9.963098,0,0,-9.962799,89.48828,134.36945)"/>
<use data-text="o" xlink:href="#font_1_81" transform="matrix(9.963098,0,0,-9.962799,93.91191,134.36945)"/>
<use data-text="s" xlink:href="#font_1_98" transform="matrix(9.963098,0,0,-9.962799,98.89345,134.36945)"/>
<use data-text="t" xlink:href="#font_1_105" transform="matrix(9.963098,0,0,-9.962799,102.81891,134.36945)"/>
<use data-text="m" xlink:href="#font_4_3" transform="matrix(9.963098,0,0,-9.962799,110.02164,134.36945)"/>
<use data-text="C" xlink:href="#font_1_42" transform="matrix(9.963098,0,0,-9.962799,169.32459,121.27617)"/>
<use data-text="o" xlink:href="#font_1_81" transform="matrix(9.963098,0,0,-9.962799,176.51795,121.27617)"/>
<use data-text="s" xlink:href="#font_1_98" transform="matrix(9.963098,0,0,-9.962799,181.49948,121.27617)"/>
<use data-text="t" xlink:href="#font_1_105" transform="matrix(9.963098,0,0,-9.962799,185.42496,121.27617)"/>
<use data-text="f" xlink:href="#font_1_55" transform="matrix(9.963098,0,0,-9.962799,192.61832,121.27617)"/>
<use data-text="u" xlink:href="#font_1_109" transform="matrix(9.963098,0,0,-9.962799,195.66703,121.27617)"/>
<use data-text="n" xlink:href="#font_1_77" transform="matrix(9.963098,0,0,-9.962799,201.20652,121.27617)"/>
<use data-text="c" xlink:href="#font_1_43" transform="matrix(9.963098,0,0,-9.962799,206.74597,121.27617)"/>
<use data-text="t" xlink:href="#font_1_105" transform="matrix(9.963098,0,0,-9.962799,211.16959,121.27617)"/>
<use data-text="i" xlink:href="#font_1_66" transform="matrix(9.963098,0,0,-9.962799,215.04526,121.27617)"/>
<use data-text="o" xlink:href="#font_1_81" transform="matrix(9.963098,0,0,-9.962799,217.815,121.27617)"/>
<use data-text="n" xlink:href="#font_1_77" transform="matrix(9.963098,0,0,-9.962799,222.79654,121.27617)"/>
<use data-text="C" xlink:href="#font_4_1" transform="matrix(9.963098,0,0,-9.962799,166.10245,133.23142)"/>
<use data-text="(" xlink:href="#font_5_1" transform="matrix(9.963098,0,0,-9.962799,173.93683,133.23142)"/>
<use data-text="x" xlink:href="#font_4_5" transform="matrix(9.963098,0,0,-9.962799,177.811,133.23142)"/>
<use data-text=")" xlink:href="#font_5_2" transform="matrix(9.963098,0,0,-9.962799,183.50531,133.23142)"/>
<use data-text="=" xlink:href="#font_5_4" transform="matrix(9.963098,0,0,-9.962799,190.13077,133.23142)"/>
<use data-text="m" xlink:href="#font_4_3" transform="matrix(9.963098,0,0,-9.962799,200.66416,133.23142)"/>
<use data-text="x" xlink:href="#font_4_5" transform="matrix(9.963098,0,0,-9.962799,209.41178,133.23142)"/>
<use data-text="+" xlink:href="#font_5_3" transform="matrix(9.963098,0,0,-9.962799,217.31998,133.23142)"/>
<use data-text="b" xlink:href="#font_4_2" transform="matrix(9.963098,0,0,-9.962799,227.2825,133.23142)"/>
<path transform="matrix(1.00005,0,0,-1.00002,57.091005,153.33484)" stroke-width=".3985" stroke-linecap="butt" stroke-miterlimit="10" stroke-linejoin="miter" fill="none" stroke="#000000" d="M-55.99622 85.50479 10.60738 129.90227"/>
<path transform="matrix(.83207157,-.55464109,-.5546577,-.8320467,67.69889,23.429993)" d="M3.58653 0C2.52383 .19925 .797 .797-.3985 1.49438V-1.49438C.797-.797 2.52383-.19925 3.58653 0"/>
<path transform="matrix(1.00005,0,0,-1.00002,57.091005,153.33484)" stroke-width=".3985" stroke-linecap="butt" stroke-miterlimit="10" stroke-linejoin="miter" fill="none" stroke="#000000" d="M51.21143 141.73404H89.6271"/>
<path transform="matrix(1.00005,0,0,-1.00002,146.72258,11.597961)" d="M3.58653 0C2.52383 .19925 .797 .797-.3985 1.49438V-1.49438C.797-.797 2.52383-.19925 3.58653 0"/>
<path transform="matrix(1.00005,0,0,-1.00002,57.091005,153.33484)" stroke-width=".3985" stroke-linecap="butt" stroke-miterlimit="10" stroke-linejoin="miter" fill="none" stroke="#000000" d="M190.25444 129.59803 203.12206 126.37167"/>
<path transform="matrix(.97001847,.24316487,.24317214,-.9699894,260.2232,26.960618)" d="M3.58653 0C2.52383 .19925 .797 .797-.3985 1.49438V-1.49438C.797-.797 2.52383-.19925 3.58653 0"/>
<path transform="matrix(1.00005,0,0,-1.00002,57.091005,153.33484)" stroke-width=".3985" stroke-linecap="butt" stroke-miterlimit="10" stroke-linejoin="miter" fill="none" stroke="#000000" d="M-55.99622 85.04042H-5.51445"/>
<path transform="matrix(1.00005,0,0,-1.00002,51.57628,68.29272)" d="M3.58653 0C2.52383 .19925 .797 .797-.3985 1.49438V-1.49438C.797-.797 2.52383-.19925 3.58653 0"/>
<path transform="matrix(1.00005,0,0,-1.00002,57.091005,153.33484)" stroke-width=".3985" stroke-linecap="butt" stroke-miterlimit="10" stroke-linejoin="miter" fill="none" stroke="#000000" d="M112.66455 93.0385 203.05052 105.9503"/>
<path transform="matrix(.9899595,-.14140283,-.14140706,-.98992988,260.15168,47.38243)" d="M3.58653 0C2.52383 .19925 .797 .797-.3985 1.49438V-1.49438C.797-.797 2.52383-.19925 3.58653 0"/>
<path transform="matrix(1.00005,0,0,-1.00002,57.091005,153.33484)" stroke-width=".3985" stroke-linecap="butt" stroke-miterlimit="10" stroke-linejoin="miter" fill="none" stroke="#000000" d="M-55.99622 84.57573 5.85663 43.34743"/>
<path transform="matrix(.83209159,.5546111,.5546277,-.8320667,62.947927,109.98654)" d="M3.58653 0C2.52383 .19925 .797 .797-.3985 1.49438V-1.49438C.797-.797 2.52383-.19925 3.58653 0"/>
<path transform="matrix(1.00005,0,0,-1.00002,57.091005,153.33484)" stroke-width=".3985" stroke-linecap="butt" stroke-miterlimit="10" stroke-linejoin="miter" fill="none" stroke="#000000" d="M76.8672 28.3468H89.6271"/>
<path transform="matrix(1.00005,0,0,-1.00002,146.72258,124.98747)" d="M3.58653 0C2.52383 .19925 .797 .797-.3985 1.49438V-1.49438C.797-.797 2.52383-.19925 3.58653 0"/>
</svg>
