<svg xmlns="http://www.w3.org/2000/svg" xmlns:xlink="http://www.w3.org/1999/xlink" xmlns:inkscape="http://www.inkscape.org/namespaces/inkscape" version="1.1" width="289" height="215" viewBox="0 0 289 215">
<defs>
<path id="font_1_56" d="M.58898928 .20191956C.58898928 .3149109 .49198915 .41992188 .35299684 .41992188 .2899933 .41993714 .23899842 .4039154 .19599915 .37088014V.55107119C.24899292 .53808596 .2939911 .53808596 .30499269 .53808596 .37298585 .53808596 .4229889 .55807498 .44898988 .5720825 .47299195 .5840759 .54100039 .6270752 .54100039 .64904788 .54100039 .6640167 .5299988 .6660156 .5269928 .6660156 .5269928 .6660156 .522995 .6660156 .5119934 .661026 .47399903 .6480408 .4119873 .634079 .34599305 .634079 .2889862 .634079 .23399353 .6440582 .18099976 .6620178 .16999817 .6660156 .1659851 .6660156 .1659851 .6660156 .1519928 .6660156 .1519928 .6540375 .1519928 .6380768V.33789063C.1519928 .3209076 .1519928 .3079071 .17098999 .3079071 .18199158 .3079071 .18299866 .30992127 .19198609 .3209076 .22999573 .36489869 .2829895 .3869171 .35099793 .3869171 .40899659 .3869171 .44099427 .35289 .45498658 .3318634 .47799684 .2978363 .48298646 .25279237 .48298646 .20477295 .48298646 .1627655 .47898866 .10676575 .43998719 .06765747 .394989 .02154541 .33799745 .01852417 .31599427 .01852417 .25099183 .01852417 .17799378 .04660034 .14698792 .10575867 .18899536 .10876465 .20298767 .13876343 .20298767 .16175843 .20298767 .19377136 .1789856 .21777344 .14698792 .21777344 .125 .21777344 .09098816 .20477295 .09098816 .1587677 .09098816 .060638429 .18699646-.022460938 .31799317-.022460938 .46699525-.022537232 .58898928 .07745361 .58898928 .20146179V.20191956Z"/>
<path id="font_1_82" d="M.55400088 0V.04399109H.5039978C.397995 .04399109 .397995 .054977418 .397995 .08596802V.6358185C.397995 .6660156 .394989 .6660156 .3619995 .6660156 .29100038 .6016083 .17999268 .6016083 .1599884 .6016083H.14299011V.5576172H.1599884C.18299866 .5576172 .24798584 .5606079 .30599977 .58561709V.08596802C.30599977 .054977418 .30599977 .04399109 .19999695 .04399109H.1499939V0C.20498657 .0039978029 .2939911 .0039978029 .35198976 .0039978029 .4099884 .0039978029 .49899293 .0039978029 .55400088 0Z"/>
<path id="font_1_121" d="M.6009979 .31976319C.6009979 .3918152 .6009979 .6660156 .33999635 .6660156 .07899475 .6660156 .07899475 .3918152 .07899475 .31976319 .07899475 .2467041 .07899475-.022460938 .33999635-.022460938 .6009979-.022460938 .6009979 .2467041 .6009979 .31976319M.5009918 .33177186C.5009918 .26371766 .5009918 .18266297 .48599244 .12261963 .45999146 .025543213 .37998963 .010528564 .33999635 .010528564 .30299378 .010528564 .21899414 .023544312 .19400025 .12461853 .17999268 .17866516 .1789856 .24971009 .1789856 .33177186 .1789856 .405838 .1789856 .47488404 .19499207 .5319214 .21998596 .6159973 .29699708 .63301089 .33999635 .63301089 .4139862 .63301089 .46699525 .5949707 .4869995 .5249176 .5009918 .47387696 .5009918 .39082337 .5009918 .33177186Z"/>
<path id="font_2_104" d="M.68499758 .45214845 .66600039 .6767578H.054992677L.035995485 .45214845H.06098938C.07499695 .6128235 .08999634 .64575198 .24099732 .64575198 .25898744 .64575198 .2849884 .64575198 .29499818 .64375308 .31599427 .6397705 .31599427 .6287842 .31599427 .60583499V.07901001C.31599427 .04499817 .31599427 .0309906 .21099854 .0309906H.17098999V0C.21199036 .0029907227 .31399537 .0029907227 .3600006 .0029907227 .4059906 .0029907227 .5089874 .0029907227 .5499878 0V.0309906H.5099945C.40499879 .0309906 .40499879 .04499817 .40499879 .07901001V.60583499C.40499879 .62579348 .40499879 .6397705 .4229889 .64375308 .43399049 .64575198 .46099855 .64575198 .47999574 .64575198 .6309967 .64575198 .6459961 .6128235 .6599884 .45214845H.68499758Z"/>
<path id="font_2_81" d="M.47099305 .21424866C.47099305 .34223939 .37098695 .4482422 .25 .4482422 .125 .4482422 .027999878 .3392334 .027999878 .21424866 .027999878 .085250858 .13198853-.0107421879 .24899292-.0107421879 .36999513-.0107421879 .47099305 .087249759 .47099305 .21424866M.3880005 .22224427C.3880005 .18624878 .3880005 .13224793 .3659973 .08824158 .34399415 .04324341 .2999878 .014251709 .25 .014251709 .20698548 .014251709 .16299439 .035247804 .13598633 .08125305 .11099243 .12524414 .11099243 .18624878 .11099243 .22224427 .11099243 .26124574 .11099243 .31523133 .1349945 .35923768 .1619873 .40522767 .20899964 .426239 .24899292 .426239 .29299928 .426239 .33599855 .40423585 .3619995 .36123658 .3880005 .3182373 .3880005 .26023866 .3880005 .22224427Z"/>
<path id="font_2_105" d="M.33198548 .12385559V.18066406H.30699159V.12585449C.30699159 .052108766 .2769928 .014251709 .23999024 .014251709 .17298889 .014251709 .17298889 .10491943 .17298889 .12187195V.3996582H.31599427V.43066407H.17298889V.6142578H.147995C.14698792 .5324249 .116989139 .42565919 .018997193 .42166139V.3996582H.10398865V.12408447C.10398865 .0012512207 .19699097-.0107421879 .23298645-.0107421879 .3039856-.0107421879 .33198548 .060180665 .33198548 .12408447V.12385559Z"/>
<path id="font_2_28" d="M.48298646 .08912659V.14511109H.45799256V.08912659C.45799256 .03112793 .43299867 .025131226 .42199708 .025131226 .3889923 .025131226 .3849945 .070129398 .3849945 .07511902V.27508546C.3849945 .31707765 .3849945 .3560791 .34899903 .39312745 .30999757 .43223573 .2599945 .4482422 .21199036 .4482422 .12998963 .4482422 .06098938 .40115357 .06098938 .335083 .06098938 .30508424 .08099365 .28808595 .10699463 .28808595 .1349945 .28808595 .15299988 .30807496 .15299988 .33407594 .15299988 .3460846 .147995 .37908937 .101989749 .38008119 .1289978 .41519166 .17799378 .426239 .20999146 .426239 .25898744 .426239 .31599427 .38710023 .31599427 .29808045V.26107789C.2649994 .25808717 .19499207 .25508119 .13198853 .22509766 .056991579 .19110108 .03199768 .13911438 .03199768 .09512329 .03199768 .014251709 .1289978-.0107421879 .19198609-.0107421879 .2579956-.0107421879 .3039856 .029251099 .32299806 .07624817 .32699586 .036132814 .35398866-.005859375 .40098573-.005859375 .42199708-.005859375 .48298646 .008132935 .48298646 .08912659M.31599427 .14013672C.31599427 .04525757 .24398804 .011245728 .19898987 .011245728 .1499939 .011245728 .10899353 .04624939 .10899353 .09625244 .10899353 .15124512 .15098572 .23425293 .31599427 .24024964V.14013672Z"/>
<path id="font_2_72" d="M.25498963 0V.0309906C.18798828 .0309906 .1769867 .0309906 .1769867 .07601929V.69433596L.032989503 .6826172V.6516113C.102996829 .6516113 .11099243 .64460757 .11099243 .5956421V.07595825C.11099243 .0309906 .099990848 .0309906 .032989503 .0309906V0L.14399719 .0029907227 .25498963 0Z"/>
<path id="font_3_1" d="M.7599945 .69506838C.7599945 .69807437 .7579956 .7050781 .7489929 .7050781 .74598696 .7050781 .7449951 .70407107 .73399356 .69306948L.6639862 .61602786C.6549988 .6300354 .60899356 .7050781 .49798585 .7050781 .2749939 .7050781 .049987794 .48391725 .049987794 .25172425 .049987794 .08659363 .16799927-.022460938 .32099916-.022460938 .4079895-.022460938 .48399354 .017532349 .5369873 .063583377 .6299896 .14564514 .6469879 .2367096 .6469879 .23971558 .6469879 .24972534 .6369934 .24972534 .6349945 .24972534 .6289978 .24972534 .6239929 .24772644 .621994 .23971558 .61299136 .21069336 .58999636 .13963318 .5209961 .081588748 .45199586 .025543213 .3889923 .008529663 .33699037 .008529663 .24699402 .008529663 .14099121 .060577394 .14099121 .21670532 .14099121 .27374269 .1619873 .43588258 .2619934 .55296328 .32299806 .62402346 .4169922 .67407229 .5059967 .67407229 .60798647 .67407229 .6669922 .5970001 .6669922 .48091126 .6669922 .44088746 .6639862 .43988038 .6639862 .4298706 .6639862 .41986085 .6749878 .41986085 .67900088 .41986085 .69200137 .41986085 .69200137 .42185975 .69699099 .43988038L.7599945 .69506838Z"/>
<path id="font_2_42" d="M.6649933 .23271179C.6649933 .24272156 .6649933 .24972534 .6519928 .24972534 .6409912 .24972534 .6409912 .24372864 .6399994 .23371887 .6319885 .09059143 .5249939 .008529663 .41600038 .008529663 .35499574 .008529663 .15899658 .042556764 .15899658 .34080506 .15899658 .64004519 .35398866 .67407229 .4149933 .67407229 .5239868 .67407229 .61299136 .58299258 .6329956 .4368744 .6349945 .42286683 .6349945 .41986085 .6489868 .41986085 .6649933 .41986085 .6649933 .42286683 .6649933 .44387818V.68107607C.6649933 .69807437 .6649933 .7050781 .6539917 .7050781 .6499939 .7050781 .6459961 .7050781 .6380005 .69306948L.58799746 .61901858C.5509949 .6550598 .5 .7050781 .4039917 .7050781 .21699524 .7050781 .055999757 .5459595 .055999757 .34179688 .055999757 .1346283 .21798706-.022460938 .4039917-.022460938 .5669861-.022460938 .6649933 .116622928 .6649933 .23271179Z"/>
<path id="font_2_63" d="M.5349884 0V.0309906C.48298646 .0309906 .45799256 .0309906 .45700074 .061019899V.25221253C.45700074 .3383026 .45700074 .36932374 .42599488 .405365 .4119873 .42237855 .3789978 .4423828 .32099916 .4423828 .23699951 .4423828 .19299317 .38233949 .1769867 .34629823H.17599488V.69433596L.03199768 .6826172V.6516113C.101989749 .6516113 .10998535 .64463809 .10998535 .59580996V.076034549C.10998535 .0309906 .09899902 .0309906 .03199768 .0309906V0L.14498902 .0029907227 .25698854 0V.0309906C.18998719 .0309906 .1789856 .0309906 .1789856 .076034549V.2602234C.1789856 .36431886 .25 .42037965 .31399537 .42037965 .3769989 .42037965 .3880005 .36631776 .3880005 .30926515V.076034549C.3880005 .0309906 .3769989 .0309906 .30999757 .0309906V0L.4229889 .0029907227 .5349884 0Z"/>
<path id="font_2_77" d="M.5349884 0V.0309906C.48298646 .0309906 .45799256 .0309906 .45700074 .061019899V.25221253C.45700074 .3383026 .45700074 .36932374 .42599488 .405365 .4119873 .42237855 .3789978 .4423828 .32099916 .4423828 .24798584 .4423828 .20098877 .39935304 .17298889 .33729554V.4423828L.03199768 .43066407V.3996582C.101989749 .3996582 .10998535 .39266969 .10998535 .34370423V.07595825C.10998535 .0309906 .09899902 .0309906 .03199768 .0309906V0L.14498902 .0029907227 .25698854 0V.0309906C.18998719 .0309906 .1789856 .0309906 .1789856 .07595825V.25978089C.1789856 .36431886 .25 .42037965 .31399537 .42037965 .3769989 .42037965 .3880005 .36631776 .3880005 .30926515V.076034549C.3880005 .0309906 .3769989 .0309906 .30999757 .0309906V0L.4229889 .0029907227 .5349884 0Z"/>
<path id="font_2_59" d="M.4850006 .40411378C.4850006 .42111207 .47299195 .453125 .43399049 .453125 .4139862 .453125 .36999513 .44711305 .32798768 .40611268 .28599549 .43937684 .24398804 .4423828 .22200012 .4423828 .1289978 .4423828 .05999756 .37338258 .05999756 .29638673 .05999756 .25239564 .08198547 .21440125 .10699463 .19340515 .09399414 .17840576 .07598877 .14538574 .07598877 .11035156 .07598877 .07899475 .08898926 .04083252 .11999512 .020828248 .05999756 .003829956 .027999878-.039138795 .027999878-.07911682 .027999878-.15107727 .1269989-.20605469 .24899292-.20605469 .36698915-.20605469 .47099305-.15507508 .47099305-.07711792 .47099305-.042144777 .45700074 .008834839 .4059906 .036834718 .35299684 .064834598 .29499818 .064834598 .23399353 .064834598 .20899964 .064834598 .1659851 .064834598 .15899658 .065841678 .1269989 .069885257 .10598755 .101242069 .10598755 .13334656 .10598755 .13735962 .10598755 .16040039 .12298584 .18040467 .1619873 .15240479 .20298767 .14941406 .22200012 .14941406 .31498719 .14941406 .38398744 .21839905 .38398744 .2953949 .38398744 .3323822 .36799623 .36938478 .34298707 .39237977 .3789978 .42637635 .4149933 .43138124 .43299867 .43138124 .43299867 .43112184 .43998719 .43112184 .44299317 .43011476 .43199159 .42611695 .4269867 .41513063 .4269867 .40315248 .4269867 .38616944 .43998719 .37417604 .45599366 .37417604 .46598817 .37417604 .4850006 .3811798 .4850006 .4041443V.40411378M.30899049 .29626466C.30899049 .26930238 .30799867 .2373352 .29299928 .21235657 .2849884 .20037842 .2619934 .17240906 .22200012 .17240906 .1349945 .17240906 .1349945 .2722931 .1349945 .29527284 .1349945 .3222351 .13598633 .35420228 .15098572 .3791809 .15899658 .3913269 .18199158 .41937257 .22200012 .41937257 .30899049 .41937257 .30899049 .31922914 .30899049 .29618836V.29626466M.4189911-.07911682C.4189911-.13308716 .34799195-.18305969 .25-.18305969 .14898682-.18305969 .07998657-.13209534 .07998657-.07911682 .07998657-.03314209 .117996219 .003829956 .1619873 .0068359377H.22099304C.30699159 .0068359377 .4189911 .0068359377 .4189911-.07911682Z"/>
<path id="font_2_50" d="M.4149933 .11933899C.4149933 .12934876 .40699769 .13134766 .4019928 .13134766 .3929901 .13134766 .3909912 .12535095 .3889923 .11734009 .35398866 .014251709 .2639923 .014251709 .2539978 .014251709 .20399475 .014251709 .1639862 .044281007 .14099121 .08131409 .11099243 .12934876 .11099243 .19540406 .11099243 .23144531H.3899994C.4119873 .23144531 .4149933 .23144531 .4149933 .2524414 .4149933 .35131837 .36099244 .4482422 .23599243 .4482422 .11999512 .4482422 .027999878 .34532167 .027999878 .22042847 .027999878 .08631897 .1329956-.0107421879 .24798584-.0107421879 .36999513-.0107421879 .4149933 .10032654 .4149933 .11933899M.34899903 .2524414H.11199951C.117996219 .40126039 .20199585 .426239 .23599243 .426239 .33898927 .426239 .34899903 .2913971 .34899903 .2524414Z"/>
<path id="font_4_1" d="M.44198609 .69781497C.43499757 .7108154 .43299867 .7158203 .41600038 .7158203 .39898683 .7158203 .39698792 .7108154 .3899994 .69781497L.051986696 .019989014C.04699707 .010986328 .04699707 .008987427 .04699707 .0079956059 .04699707 0 .052993776 0 .068984989 0H.7630005C.7789917 0 .7849884 0 .7849884 .0079956059 .7849884 .008987427 .7849884 .010986328 .7799988 .019989014L.44198609 .69781497M.38398744 .61582949 .6529999 .07598877H.11399841L.38398744 .61582949Z"/>
<path id="font_2_27" d="M.71699526 0V.0309906H.69898989C.6389923 .0309906 .625 .037979127 .6139984 .07095337L.397995 .6958008C.3929901 .7088165 .3909912 .7158203 .375 .7158203 .35899354 .7158203 .35598756 .70980837 .35099793 .6958008L.14399719 .09791565C.12599182 .04698181 .085998538 .03199768 .03199768 .0309906V0L.13398743 .0029907227 .24899292 0V.0309906C.19898987 .0309906 .17399597 .05596924 .17399597 .0819397 .17399597 .08493042 .1749878 .09492493 .17599488 .09692383L.22200012 .2277832H.46899415L.5219879 .07495117C.522995 .07095337 .5249939 .064956668 .5249939 .060958864 .5249939 .0309906 .46899415 .0309906 .44198609 .0309906V0C.47799684 .0029907227 .5479889 .0029907227 .58599856 .0029907227L.71699526 0M.45799256 .25878907H.23298645L.34498597 .58380129 .45799256 .25878907Z"/>
<path id="font_2_95" d="M.7319946 .08753967C.7319946 .09353638 .7319946 .104537967 .71899417 .104537967 .70799258 .104537967 .70799258 .09555054 .70700076 .08854675 .70098879 .017532349 .66600039-.00047302247 .6409912-.00047302247 .59199526-.00047302247 .58399966 .05053711 .56999209 .14355469L.5569916 .22355652C.5389862 .28756715 .48999024 .3205719 .43499757 .3395691 .5319977 .36357118 .6100006 .4245758 .6100006 .502594 .6100006 .5986023 .49598695 .6826172 .34899903 .6826172H.034988405V.6516113H.05899048C.13598633 .6516113 .13798523 .64060977 .13798523 .604599V.077545169C.13798523 .04197693 .13598633 .0309906 .05899048 .0309906H.034988405V0C.070999149 .0029907227 .14199829 .0029907227 .18099976 .0029907227 .21998596 .0029907227 .29100038 .0029907227 .32699586 0V.0309906H.30299378C.22599793 .0309906 .22399903 .04197693 .22399903 .077926639V.3305359H.33898927C.35499574 .3305359 .39698792 .3305359 .43199159 .29658509 .46998597 .26063539 .46998597 .22969055 .46998597 .16279602 .46998597 .09788513 .46998597 .05795288 .5109863 .019989014 .5519867-.016464234 .6069946-.022460938 .6369934-.022460938 .71499636-.022460938 .7319946 .059524537 .7319946 .087524417V.08753967M.5069885 .5025635C.5069885 .43354798 .48298646 .35253907 .33499146 .35253907H.22399903V.6116028C.22399903 .6345978 .22399903 .64660647 .24598694 .6496124 .2559967 .6516113 .2849884 .6516113 .30499269 .6516113 .394989 .6516113 .5069885 .6476135 .5069885 .5025635Z"/>
<path id="font_2_80" d="M.72099307 .3387909C.72099307 .5429535 .56999209 .7050781 .3880005 .7050781 .20899964 .7050781 .055999757 .5449524 .055999757 .3387909 .055999757 .13363648 .20999146-.022460938 .3880005-.022460938 .56999209-.022460938 .72099307 .13664246 .72099307 .3387909M.6179962 .35281373C.6179962 .08760071 .48098756 .0035247803 .3889923 .0035247803 .29299928 .0035247803 .15899658 .09159851 .15899658 .35281373 .15899658 .6120148 .30499269 .68006899 .3880005 .68006899 .47499085 .68006899 .6179962 .6090088 .6179962 .35281373Z"/>
<path id="font_5_1" d="M.5009918 .6898804C.4909973 .70788577 .48799134 .7128906 .46798707 .7128906 .45599366 .7128906 .44599916 .70988467 .43699647 .6938782L.067993167 .023986817C.06098938 .0129852299 .06098938 .010986328 .06098938 .009994507 .06098938 0 .068984989 0 .084991458 0H.85198977C.8679962 0 .8759918 0 .8759918 .009994507 .8759918 .010986328 .8759918 .0129852299 .86898806 .023986817L.5009918 .6898804M.43499757 .6148987 .72898867 .08198547H.14099121L.43499757 .6148987Z"/>
<path id="font_6_1" d="M.84298709 .6901245C.84298709 .69511416 .83999636 .703125 .8299866 .703125 .82299807 .703125 .82099917 .70111086 .81199648 .69111636L.7389984 .61413577C.7299957 .62612918 .673996 .703125 .5509949 .703125 .30799867 .703125 .069992069 .48820497 .069992069 .2623291 .069992069 .09941101 .19799805-.01953125 .3769989-.01953125 .43099977-.01953125 .5269928-.008544922 .6299896 .078430179 .70899966 .14538574 .73098757 .23234558 .73098757 .24034119 .73098757 .25334168 .71899417 .25334168 .71398928 .25334168 .70098879 .25334168 .69898989 .24833679 .69599917 .23735047 .6549988 .10041809 .5149994 .016464234 .3939972 .016464234 .28799439 .016464234 .16999817 .07342529 .16999817 .23135376 .16999817 .2603302 .1769867 .4182434 .2919922 .5441742 .36099244 .6211395 .46598817 .66711428 .5609894 .66711428 .6769867 .66711428 .7449951 .5831604 .7449951 .47122193 .7449951 .4432373 .74198916 .43623353 .74198916 .43023683 .74198916 .4172516 .7549896 .4172516 .7599945 .4172516 .776001 .4172516 .776001 .4202423 .7809906 .4392395L.84298709 .6901245Z"/>
<path id="font_6_2" d="M.24899292 .10601807C.23899842 .072021488 .20599365 .018234253 .15499878 .018234253 .1519928 .018234253 .12199402 .018234253 .100997928 .03215027 .14199829 .04508972 .14498902 .08100891 .14498902 .087020877 .14498902 .10900879 .12799073 .12402344 .10499573 .12402344 .07699585 .12402344 .04798889 .10002136 .04798889 .0630188 .04798889 .01322937 .10398865-.009765625 .15299988-.009765625 .19898987-.009765625 .23999024 .019226075 .2649994 .061019899 .2889862 .008224487 .34399415-.009765625 .38398744-.009765625 .49899293-.009765625 .55999758 .11502075 .55999758 .14305115 .55999758 .15608216 .5469971 .15608216 .5439911 .15608216 .5299988 .15608216 .5289917 .15107727 .5249939 .13905335 .5039978 .07002258 .44400025 .018234253 .3880005 .018234253 .34799195 .018234253 .32699586 .04508972 .32699586 .08302307 .32699586 .10900879 .35099793 .20018006 .3789978 .31140138 .39898683 .38841249 .44400025 .4133911 .47698976 .4133911 .47898866 .4133911 .5099945 .4133911 .5309906 .39941407 .49899293 .39041139 .4869995 .3624115 .4869995 .34440614 .4869995 .32240296 .5039978 .30740357 .5269928 .30740357 .5499878 .30740357 .58299258 .32640077 .58299258 .3684082 .58299258 .4243927 .5189972 .44140626 .47898866 .44140626 .42900086 .44140626 .3889923 .4084015 .36698915 .3704071 .34899903 .4113922 .30299378 .44140626 .24699402 .44140626 .1349945 .44140626 .070999149 .31840516 .070999149 .2883606 .070999149 .27534486 .084991458 .27534486 .08799744 .27534486 .100997928 .27534486 .101989749 .27934266 .10699463 .29237367 .13198853 .3704071 .19499207 .4133911 .24398804 .4133911 .2769928 .4133911 .3039856 .395401 .3039856 .3474121 .3039856 .32740785 .2919922 .27734376 .2829895 .24327088L.24899292 .10601807Z"/>
</defs>
<path transform="matrix(1.00005,0,0,-1.00003,7.0945589,142.73484)" stroke-width=".79701" stroke-linecap="butt" stroke-miterlimit="10" stroke-linejoin="miter" fill="none" stroke="#000000" d="M-4.76222 0H76.29565"/>
<path transform="matrix(1.00005,0,0,-1.00003,83.39401,142.73484)" d="M4.66248 0C3.28098 .25902 1.0361 1.0361-.51805 1.94269V-1.94269C1.0361-1.0361 3.28098-.25902 4.66248 0"/>
<path transform="matrix(1.00005,0,0,-1.00003,7.0945589,142.73484)" stroke-width=".79701" stroke-linecap="butt" stroke-miterlimit="10" stroke-linejoin="miter" fill="none" stroke="#000000" d="M0-66.20453V137.07157"/>
<path transform="matrix(0,1.00003,1.00005,0,7.0945589,208.94135)" d="M4.66248 0C3.28098 .25902 1.0361 1.0361-.51805 1.94269V-1.94269C1.0361-1.0361 3.28098-.25902 4.66248 0"/>
<path transform="matrix(0,-1.00003,-1.00005,-0,7.0945589,5.659149)" d="M4.66248 0C3.28098 .25902 1.0361 1.0361-.51805 1.94269V-1.94269C1.0361-1.0361 3.28098-.25902 4.66248 0"/>
<path transform="matrix(1.00005,0,0,-1.00003,7.0945589,142.73484)" stroke-width=".3985" stroke-linecap="butt" stroke-miterlimit="10" stroke-linejoin="miter" fill="none" stroke="#000000" d="M23.8112 2.83484V-2.83484"/>
<use data-text="5" xlink:href="#font_1_56" transform="matrix(4.981549,0,0,-4.9814498,29.210663,152.40712)"/>
<path transform="matrix(1.00005,0,0,-1.00003,7.0945589,142.73484)" stroke-width=".3985" stroke-linecap="butt" stroke-miterlimit="10" stroke-linejoin="miter" fill="none" stroke="#000000" d="M47.62242 2.83484V-2.83484"/>
<use data-text="1" xlink:href="#font_1_82" transform="matrix(4.981549,0,0,-4.9814498,51.326768,152.40712)"/>
<use data-text="0" xlink:href="#font_1_121" transform="matrix(4.981549,0,0,-4.9814498,54.719209,152.40712)"/>
<path transform="matrix(1.00005,0,0,-1.00003,7.0945589,142.73484)" stroke-width=".3985" stroke-linecap="butt" stroke-miterlimit="10" stroke-linejoin="miter" fill="none" stroke="#000000" d="M71.43364 2.83484V-2.83484"/>
<use data-text="1" xlink:href="#font_1_82" transform="matrix(4.981549,0,0,-4.9814498,75.138957,152.40712)"/>
<use data-text="5" xlink:href="#font_1_56" transform="matrix(4.981549,0,0,-4.9814498,78.531398,152.40712)"/>
<use data-text="T" xlink:href="#font_2_104" transform="matrix(9.963098,0,0,-9.962899,25.749489,32.74653)"/>
<use data-text="o" xlink:href="#font_2_81" transform="matrix(9.963098,0,0,-9.962899,32.1159,32.74653)"/>
<use data-text="t" xlink:href="#font_2_105" transform="matrix(9.963098,0,0,-9.962899,37.09745,32.74653)"/>
<use data-text="a" xlink:href="#font_2_28" transform="matrix(9.963098,0,0,-9.962899,40.97309,32.74653)"/>
<use data-text="l" xlink:href="#font_2_72" transform="matrix(9.963098,0,0,-9.962899,45.954645,32.74653)"/>
<use data-text="C" xlink:href="#font_3_1" transform="matrix(9.963098,0,0,-9.962899,52.0418,32.74653)"/>
<g>
<path transform="matrix(1.00005,0,0,-1.00003,7.0945589,142.73484)" d="M4.76222-28.3468V0H-4.76222V-28.3468ZM-4.76222 0" fill="#0000ff" fill-opacity=".3"/>
<path transform="matrix(1.00005,0,0,-1.00003,7.0945589,142.73484)" stroke-width=".3985" stroke-linecap="butt" stroke-miterlimit="10" stroke-linejoin="miter" fill="none" stroke="#000000" stroke-opacity=".3" d="M4.76222-28.3468V0H-4.76222V-28.3468ZM-4.76222 0"/>
</g>
<path transform="matrix(1.00005,0,0,-1.00003,7.0945589,142.73484)" stroke-width=".79701" stroke-linecap="butt" stroke-miterlimit="10" stroke-linejoin="miter" fill="none" stroke="#000000" d="M4.76222-28.3468V0H-4.76222V-28.3468ZM-4.76222 0"/>
<path transform="matrix(1.00005,0,0,-1.00003,7.0945589,142.73484)" d="M3.52272-28.3468C3.52272-26.40125 1.94556-24.82408 0-24.82408-1.94556-24.82408-3.52272-26.40125-3.52272-28.3468-3.52272-30.29237-1.94556-31.86952 0-31.86952 1.94556-31.86952 3.52272-30.29237 3.52272-28.3468ZM0-28.3468" fill="#0000ff"/>
<path transform="matrix(1.00005,0,0,-1.00003,7.0945589,142.73484)" stroke-width=".3985" stroke-linecap="butt" stroke-miterlimit="10" stroke-linejoin="miter" fill="none" stroke="#000000" d="M3.52272-28.3468C3.52272-26.40125 1.94556-24.82408 0-24.82408-1.94556-24.82408-3.52272-26.40125-3.52272-28.3468-3.52272-30.29237-1.94556-31.86952 0-31.86952 1.94556-31.86952 3.52272-30.29237 3.52272-28.3468ZM0-28.3468"/>
<g>
<path transform="matrix(1.00005,0,0,-1.00003,7.0945589,142.73484)" d="M28.57346 49.6069V0H19.04895V49.6069ZM19.04895 0" fill="#0000ff" fill-opacity=".3"/>
<path transform="matrix(1.00005,0,0,-1.00003,7.0945589,142.73484)" stroke-width=".3985" stroke-linecap="butt" stroke-miterlimit="10" stroke-linejoin="miter" fill="none" stroke="#000000" stroke-opacity=".3" d="M28.57346 49.6069V0H19.04895V49.6069ZM19.04895 0"/>
</g>
<path transform="matrix(1.00005,0,0,-1.00003,7.0945589,142.73484)" stroke-width=".79701" stroke-linecap="butt" stroke-miterlimit="10" stroke-linejoin="miter" fill="none" stroke="#000000" d="M28.57346 49.6069V0H19.04895V49.6069ZM19.04895 0"/>
<path transform="matrix(1.00005,0,0,-1.00003,7.0945589,142.73484)" d="M27.33392 49.6069C27.33392 51.55247 25.75676 53.12962 23.8112 53.12962 21.86563 53.12962 20.28848 51.55247 20.28848 49.6069 20.28848 47.66135 21.86563 46.08418 23.8112 46.08418 25.75676 46.08418 27.33392 47.66135 27.33392 49.6069ZM23.8112 49.6069" fill="#0000ff"/>
<path transform="matrix(1.00005,0,0,-1.00003,7.0945589,142.73484)" stroke-width=".3985" stroke-linecap="butt" stroke-miterlimit="10" stroke-linejoin="miter" fill="none" stroke="#000000" d="M27.33392 49.6069C27.33392 51.55247 25.75676 53.12962 23.8112 53.12962 21.86563 53.12962 20.28848 51.55247 20.28848 49.6069 20.28848 47.66135 21.86563 46.08418 23.8112 46.08418 25.75676 46.08418 27.33392 47.66135 27.33392 49.6069ZM23.8112 49.6069"/>
<g>
<path transform="matrix(1.00005,0,0,-1.00003,7.0945589,142.73484)" d="M52.38466 56.69362V0H42.86018V56.69362ZM42.86018 0" fill="#0000ff" fill-opacity=".3"/>
<path transform="matrix(1.00005,0,0,-1.00003,7.0945589,142.73484)" stroke-width=".3985" stroke-linecap="butt" stroke-miterlimit="10" stroke-linejoin="miter" fill="none" stroke="#000000" stroke-opacity=".3" d="M52.38466 56.69362V0H42.86018V56.69362ZM42.86018 0"/>
</g>
<path transform="matrix(1.00005,0,0,-1.00003,7.0945589,142.73484)" stroke-width=".79701" stroke-linecap="butt" stroke-miterlimit="10" stroke-linejoin="miter" fill="none" stroke="#000000" d="M52.38466 56.69362V0H42.86018V56.69362ZM42.86018 0"/>
<path transform="matrix(1.00005,0,0,-1.00003,7.0945589,142.73484)" d="M51.14514 56.69362C51.14514 58.63918 49.568 60.21634 47.62242 60.21634 45.67686 60.21634 44.0997 58.63918 44.0997 56.69362 44.0997 54.74805 45.67686 53.17088 47.62242 53.17088 49.568 53.17088 51.14514 54.74805 51.14514 56.69362ZM47.62242 56.69362" fill="#0000ff"/>
<path transform="matrix(1.00005,0,0,-1.00003,7.0945589,142.73484)" stroke-width=".3985" stroke-linecap="butt" stroke-miterlimit="10" stroke-linejoin="miter" fill="none" stroke="#000000" d="M51.14514 56.69362C51.14514 58.63918 49.568 60.21634 47.62242 60.21634 45.67686 60.21634 44.0997 58.63918 44.0997 56.69362 44.0997 54.74805 45.67686 53.17088 47.62242 53.17088 49.568 53.17088 51.14514 54.74805 51.14514 56.69362ZM47.62242 56.69362"/>
<g>
<path transform="matrix(1.00005,0,0,-1.00003,7.0945589,142.73484)" d="M76.19588-7.08669V0H66.67139V-7.08669ZM66.67139 0" fill="#0000ff" fill-opacity=".3"/>
<path transform="matrix(1.00005,0,0,-1.00003,7.0945589,142.73484)" stroke-width=".3985" stroke-linecap="butt" stroke-miterlimit="10" stroke-linejoin="miter" fill="none" stroke="#000000" stroke-opacity=".3" d="M76.19588-7.08669V0H66.67139V-7.08669ZM66.67139 0"/>
</g>
<path transform="matrix(1.00005,0,0,-1.00003,7.0945589,142.73484)" stroke-width=".79701" stroke-linecap="butt" stroke-miterlimit="10" stroke-linejoin="miter" fill="none" stroke="#000000" d="M76.19588-7.08669V0H66.67139V-7.08669ZM66.67139 0"/>
<path transform="matrix(1.00005,0,0,-1.00003,7.0945589,142.73484)" d="M74.95636-7.08669C74.95636-5.14111 73.3792-3.56396 71.43364-3.56396 69.48807-3.56396 67.9109-5.14111 67.9109-7.08669 67.9109-9.03224 69.48807-10.6094 71.43364-10.6094 73.3792-10.6094 74.95636-9.03224 74.95636-7.08669ZM71.43364-7.08669" fill="#0000ff"/>
<path transform="matrix(1.00005,0,0,-1.00003,7.0945589,142.73484)" stroke-width=".3985" stroke-linecap="butt" stroke-miterlimit="10" stroke-linejoin="miter" fill="none" stroke="#000000" d="M74.95636-7.08669C74.95636-5.14111 73.3792-3.56396 71.43364-3.56396 69.48807-3.56396 67.9109-5.14111 67.9109-7.08669 67.9109-9.03224 69.48807-10.6094 71.43364-10.6094 73.3792-10.6094 74.95636-9.03224 74.95636-7.08669ZM71.43364-7.08669"/>
<path transform="matrix(1.00005,0,0,-1.00003,106.89552,142.73484)" stroke-width=".79701" stroke-linecap="butt" stroke-miterlimit="10" stroke-linejoin="miter" fill="none" stroke="#000000" d="M-4.76222 0H76.29565"/>
<path transform="matrix(1.00005,0,0,-1.00003,183.19498,142.73484)" d="M4.66248 0C3.28098 .25902 1.0361 1.0361-.51805 1.94269V-1.94269C1.0361-1.0361 3.28098-.25902 4.66248 0"/>
<path transform="matrix(1.00005,0,0,-1.00003,106.89552,142.73484)" stroke-width=".79701" stroke-linecap="butt" stroke-miterlimit="10" stroke-linejoin="miter" fill="none" stroke="#000000" d="M0-66.20453V137.07157"/>
<path transform="matrix(0,1.00003,1.00005,0,106.89552,208.94135)" d="M4.66248 0C3.28098 .25902 1.0361 1.0361-.51805 1.94269V-1.94269C1.0361-1.0361 3.28098-.25902 4.66248 0"/>
<path transform="matrix(0,-1.00003,-1.00005,-0,106.89552,5.659149)" d="M4.66248 0C3.28098 .25902 1.0361 1.0361-.51805 1.94269V-1.94269C1.0361-1.0361 3.28098-.25902 4.66248 0"/>
<path transform="matrix(1.00005,0,0,-1.00003,106.89552,142.73484)" stroke-width=".3985" stroke-linecap="butt" stroke-miterlimit="10" stroke-linejoin="miter" fill="none" stroke="#000000" d="M23.8112 2.83484V-2.83484"/>
<use data-text="5" xlink:href="#font_1_56" transform="matrix(4.981549,0,0,-4.9814498,129.01163,152.40712)"/>
<path transform="matrix(1.00005,0,0,-1.00003,106.89552,142.73484)" stroke-width=".3985" stroke-linecap="butt" stroke-miterlimit="10" stroke-linejoin="miter" fill="none" stroke="#000000" d="M47.62242 2.83484V-2.83484"/>
<use data-text="1" xlink:href="#font_1_82" transform="matrix(4.981549,0,0,-4.9814498,151.12773,152.40712)"/>
<use data-text="0" xlink:href="#font_1_121" transform="matrix(4.981549,0,0,-4.9814498,154.52017,152.40712)"/>
<path transform="matrix(1.00005,0,0,-1.00003,106.89552,142.73484)" stroke-width=".3985" stroke-linecap="butt" stroke-miterlimit="10" stroke-linejoin="miter" fill="none" stroke="#000000" d="M71.43364 2.83484V-2.83484"/>
<use data-text="1" xlink:href="#font_1_82" transform="matrix(4.981549,0,0,-4.9814498,174.93991,152.40712)"/>
<use data-text="5" xlink:href="#font_1_56" transform="matrix(4.981549,0,0,-4.9814498,178.33237,152.40712)"/>
<use data-text="C" xlink:href="#font_2_42" transform="matrix(9.963098,0,0,-9.962899,121.32024,31.830498)"/>
<use data-text="h" xlink:href="#font_2_63" transform="matrix(9.963098,0,0,-9.962899,128.51358,31.830498)"/>
<use data-text="a" xlink:href="#font_2_28" transform="matrix(9.963098,0,0,-9.962899,134.05307,31.830498)"/>
<use data-text="n" xlink:href="#font_2_77" transform="matrix(9.963098,0,0,-9.962899,139.03464,31.830498)"/>
<use data-text="g" xlink:href="#font_2_59" transform="matrix(9.963098,0,0,-9.962899,144.57413,31.830498)"/>
<use data-text="e" xlink:href="#font_2_50" transform="matrix(9.963098,0,0,-9.962899,149.55567,31.830498)"/>
<use data-text="&#x2206;" xlink:href="#font_4_1" transform="matrix(9.963098,0,0,-9.962899,157.29807,31.830498)"/>
<use data-text="C" xlink:href="#font_3_1" transform="matrix(9.963098,0,0,-9.962899,165.60047,31.830498)"/>
<g>
<path transform="matrix(1.00005,0,0,-1.00003,106.89552,142.73484)" d="M28.57346 77.95372V0H19.04895V77.95372ZM19.04895 0" fill="#0000ff" fill-opacity=".3"/>
<path transform="matrix(1.00005,0,0,-1.00003,106.89552,142.73484)" stroke-width=".3985" stroke-linecap="butt" stroke-miterlimit="10" stroke-linejoin="miter" fill="none" stroke="#000000" stroke-opacity=".3" d="M28.57346 77.95372V0H19.04895V77.95372ZM19.04895 0"/>
</g>
<path transform="matrix(1.00005,0,0,-1.00003,106.89552,142.73484)" stroke-width=".79701" stroke-linecap="butt" stroke-miterlimit="10" stroke-linejoin="miter" fill="none" stroke="#000000" d="M28.57346 77.95372V0H19.04895V77.95372ZM19.04895 0"/>
<path transform="matrix(1.00005,0,0,-1.00003,106.89552,142.73484)" d="M27.33392 77.95372C27.33392 79.89928 25.75676 81.47644 23.8112 81.47644 21.86563 81.47644 20.28848 79.89928 20.28848 77.95372 20.28848 76.00815 21.86563 74.43098 23.8112 74.43098 25.75676 74.43098 27.33392 76.00815 27.33392 77.95372ZM23.8112 77.95372" fill="#0000ff"/>
<path transform="matrix(1.00005,0,0,-1.00003,106.89552,142.73484)" stroke-width=".3985" stroke-linecap="butt" stroke-miterlimit="10" stroke-linejoin="miter" fill="none" stroke="#000000" d="M27.33392 77.95372C27.33392 79.89928 25.75676 81.47644 23.8112 81.47644 21.86563 81.47644 20.28848 79.89928 20.28848 77.95372 20.28848 76.00815 21.86563 74.43098 23.8112 74.43098 25.75676 74.43098 27.33392 76.00815 27.33392 77.95372ZM23.8112 77.95372"/>
<g>
<path transform="matrix(1.00005,0,0,-1.00003,106.89552,142.73484)" d="M52.38466 7.08669V0H42.86018V7.08669ZM42.86018 0" fill="#0000ff" fill-opacity=".3"/>
<path transform="matrix(1.00005,0,0,-1.00003,106.89552,142.73484)" stroke-width=".3985" stroke-linecap="butt" stroke-miterlimit="10" stroke-linejoin="miter" fill="none" stroke="#000000" stroke-opacity=".3" d="M52.38466 7.08669V0H42.86018V7.08669ZM42.86018 0"/>
</g>
<path transform="matrix(1.00005,0,0,-1.00003,106.89552,142.73484)" stroke-width=".79701" stroke-linecap="butt" stroke-miterlimit="10" stroke-linejoin="miter" fill="none" stroke="#000000" d="M52.38466 7.08669V0H42.86018V7.08669ZM42.86018 0"/>
<path transform="matrix(1.00005,0,0,-1.00003,106.89552,142.73484)" d="M51.14514 7.08669C51.14514 9.03224 49.568 10.6094 47.62242 10.6094 45.67686 10.6094 44.0997 9.03224 44.0997 7.08669 44.0997 5.14111 45.67686 3.56396 47.62242 3.56396 49.568 3.56396 51.14514 5.14111 51.14514 7.08669ZM47.62242 7.08669" fill="#0000ff"/>
<path transform="matrix(1.00005,0,0,-1.00003,106.89552,142.73484)" stroke-width=".3985" stroke-linecap="butt" stroke-miterlimit="10" stroke-linejoin="miter" fill="none" stroke="#000000" d="M51.14514 7.08669C51.14514 9.03224 49.568 10.6094 47.62242 10.6094 45.67686 10.6094 44.0997 9.03224 44.0997 7.08669 44.0997 5.14111 45.67686 3.56396 47.62242 3.56396 49.568 3.56396 51.14514 5.14111 51.14514 7.08669ZM47.62242 7.08669"/>
<g>
<path transform="matrix(1.00005,0,0,-1.00003,106.89552,142.73484)" d="M76.19588-63.7803V0H66.67139V-63.7803ZM66.67139 0" fill="#0000ff" fill-opacity=".3"/>
<path transform="matrix(1.00005,0,0,-1.00003,106.89552,142.73484)" stroke-width=".3985" stroke-linecap="butt" stroke-miterlimit="10" stroke-linejoin="miter" fill="none" stroke="#000000" stroke-opacity=".3" d="M76.19588-63.7803V0H66.67139V-63.7803ZM66.67139 0"/>
</g>
<path transform="matrix(1.00005,0,0,-1.00003,106.89552,142.73484)" stroke-width=".79701" stroke-linecap="butt" stroke-miterlimit="10" stroke-linejoin="miter" fill="none" stroke="#000000" d="M76.19588-63.7803V0H66.67139V-63.7803ZM66.67139 0"/>
<path transform="matrix(1.00005,0,0,-1.00003,106.89552,142.73484)" d="M74.95636-63.7803C74.95636-61.83473 73.3792-60.25758 71.43364-60.25758 69.48807-60.25758 67.9109-61.83473 67.9109-63.7803 67.9109-65.72586 69.48807-67.30302 71.43364-67.30302 73.3792-67.30302 74.95636-65.72586 74.95636-63.7803ZM71.43364-63.7803" fill="#0000ff"/>
<path transform="matrix(1.00005,0,0,-1.00003,106.89552,142.73484)" stroke-width=".3985" stroke-linecap="butt" stroke-miterlimit="10" stroke-linejoin="miter" fill="none" stroke="#000000" d="M74.95636-63.7803C74.95636-61.83473 73.3792-60.25758 71.43364-60.25758 69.48807-60.25758 67.9109-61.83473 67.9109-63.7803 67.9109-65.72586 69.48807-67.30302 71.43364-67.30302 73.3792-67.30302 74.95636-65.72586 74.95636-63.7803ZM71.43364-63.7803"/>
<path transform="matrix(1.00005,0,0,-1.00003,206.69751,142.73484)" stroke-width=".79701" stroke-linecap="butt" stroke-miterlimit="10" stroke-linejoin="miter" fill="none" stroke="#000000" d="M-4.76222 0H76.29565"/>
<path transform="matrix(1.00005,0,0,-1.00003,282.99696,142.73484)" d="M4.66248 0C3.28098 .25902 1.0361 1.0361-.51805 1.94269V-1.94269C1.0361-1.0361 3.28098-.25902 4.66248 0"/>
<path transform="matrix(1.00005,0,0,-1.00003,206.69751,142.73484)" stroke-width=".79701" stroke-linecap="butt" stroke-miterlimit="10" stroke-linejoin="miter" fill="none" stroke="#000000" d="M0-66.20453V137.07157"/>
<path transform="matrix(0,1.00003,1.00005,0,206.69751,208.94135)" d="M4.66248 0C3.28098 .25902 1.0361 1.0361-.51805 1.94269V-1.94269C1.0361-1.0361 3.28098-.25902 4.66248 0"/>
<path transform="matrix(0,-1.00003,-1.00005,-0,206.69751,5.659149)" d="M4.66248 0C3.28098 .25902 1.0361 1.0361-.51805 1.94269V-1.94269C1.0361-1.0361 3.28098-.25902 4.66248 0"/>
<path transform="matrix(1.00005,0,0,-1.00003,206.69751,142.73484)" stroke-width=".3985" stroke-linecap="butt" stroke-miterlimit="10" stroke-linejoin="miter" fill="none" stroke="#000000" d="M23.8112 2.83484V-2.83484"/>
<use data-text="5" xlink:href="#font_1_56" transform="matrix(4.981549,0,0,-4.9814498,228.81362,152.40712)"/>
<path transform="matrix(1.00005,0,0,-1.00003,206.69751,142.73484)" stroke-width=".3985" stroke-linecap="butt" stroke-miterlimit="10" stroke-linejoin="miter" fill="none" stroke="#000000" d="M47.62242 2.83484V-2.83484"/>
<use data-text="1" xlink:href="#font_1_82" transform="matrix(4.981549,0,0,-4.9814498,250.92972,152.40712)"/>
<use data-text="0" xlink:href="#font_1_121" transform="matrix(4.981549,0,0,-4.9814498,254.32218,152.40712)"/>
<path transform="matrix(1.00005,0,0,-1.00003,206.69751,142.73484)" stroke-width=".3985" stroke-linecap="butt" stroke-miterlimit="10" stroke-linejoin="miter" fill="none" stroke="#000000" d="M71.43364 2.83484V-2.83484"/>
<use data-text="1" xlink:href="#font_1_82" transform="matrix(4.981549,0,0,-4.9814498,274.7419,152.40712)"/>
<use data-text="5" xlink:href="#font_1_56" transform="matrix(4.981549,0,0,-4.9814498,278.13438,152.40712)"/>
<use data-text="A" xlink:href="#font_2_27" transform="matrix(9.963098,0,0,-9.962899,225.59546,60.31835)"/>
<use data-text="R" xlink:href="#font_2_95" transform="matrix(9.963098,0,0,-9.962899,233.06778,60.31835)"/>
<use data-text="O" xlink:href="#font_2_80" transform="matrix(9.963098,0,0,-9.962899,240.12168,60.31835)"/>
<use data-text="C" xlink:href="#font_2_42" transform="matrix(9.963098,0,0,-9.962899,247.87296,60.31835)"/>
<use data-text="&#x2206;" xlink:href="#font_5_1" transform="matrix(6.9741489,0,0,-6.9740097,259.57917,56.39624)"/>
<use data-text="C" xlink:href="#font_6_1" transform="matrix(6.9741489,0,0,-6.9740097,266.12449,56.39624)"/>
<path transform="matrix(1.00005,0,0,-1.00003,-125.10606,-67.422489)" stroke-width=".3985" stroke-linecap="butt" stroke-miterlimit="10" stroke-linejoin="miter" fill="none" stroke="#000000" d="M384.666-125.247H397.414"/>
<use data-text="&#x2206;" xlink:href="#font_5_1" transform="matrix(6.9741489,0,0,-6.9740097,260.4222,63.754457)"/>
<use data-text="x" xlink:href="#font_6_2" transform="matrix(6.9741489,0,0,-6.9740097,266.96757,63.754457)"/>
<g>
<path transform="matrix(1.00005,0,0,-1.00003,206.69751,142.73484)" d="M28.57346 15.59038V0H19.04895V15.59038ZM19.04895 0" fill="#0000ff" fill-opacity=".3"/>
<path transform="matrix(1.00005,0,0,-1.00003,206.69751,142.73484)" stroke-width=".3985" stroke-linecap="butt" stroke-miterlimit="10" stroke-linejoin="miter" fill="none" stroke="#000000" stroke-opacity=".3" d="M28.57346 15.59038V0H19.04895V15.59038ZM19.04895 0"/>
</g>
<path transform="matrix(1.00005,0,0,-1.00003,206.69751,142.73484)" stroke-width=".79701" stroke-linecap="butt" stroke-miterlimit="10" stroke-linejoin="miter" fill="none" stroke="#000000" d="M28.57346 15.59038V0H19.04895V15.59038ZM19.04895 0"/>
<path transform="matrix(1.00005,0,0,-1.00003,206.69751,142.73484)" d="M27.33392 15.59038C27.33392 17.53595 25.75676 19.1131 23.8112 19.1131 21.86563 19.1131 20.28848 17.53595 20.28848 15.59038 20.28848 13.64482 21.86563 12.06766 23.8112 12.06766 25.75676 12.06766 27.33392 13.64482 27.33392 15.59038ZM23.8112 15.59038" fill="#0000ff"/>
<path transform="matrix(1.00005,0,0,-1.00003,206.69751,142.73484)" stroke-width=".3985" stroke-linecap="butt" stroke-miterlimit="10" stroke-linejoin="miter" fill="none" stroke="#000000" d="M27.33392 15.59038C27.33392 17.53595 25.75676 19.1131 23.8112 19.1131 21.86563 19.1131 20.28848 17.53595 20.28848 15.59038 20.28848 13.64482 21.86563 12.06766 23.8112 12.06766 25.75676 12.06766 27.33392 13.64482 27.33392 15.59038ZM23.8112 15.59038"/>
<g>
<path transform="matrix(1.00005,0,0,-1.00003,206.69751,142.73484)" d="M52.38466 1.41698V0H42.86018V1.41698ZM42.86018 0" fill="#0000ff" fill-opacity=".3"/>
<path transform="matrix(1.00005,0,0,-1.00003,206.69751,142.73484)" stroke-width=".3985" stroke-linecap="butt" stroke-miterlimit="10" stroke-linejoin="miter" fill="none" stroke="#000000" stroke-opacity=".3" d="M52.38466 1.41698V0H42.86018V1.41698ZM42.86018 0"/>
</g>
<path transform="matrix(1.00005,0,0,-1.00003,206.69751,142.73484)" stroke-width=".79701" stroke-linecap="butt" stroke-miterlimit="10" stroke-linejoin="miter" fill="none" stroke="#000000" d="M52.38466 1.41698V0H42.86018V1.41698ZM42.86018 0"/>
<path transform="matrix(1.00005,0,0,-1.00003,206.69751,142.73484)" d="M51.14514 1.41698C51.14514 3.36255 49.568 4.93971 47.62242 4.93971 45.67686 4.93971 44.0997 3.36255 44.0997 1.41698 44.0997-.52856 45.67686-2.10573 47.62242-2.10573 49.568-2.10573 51.14514-.52856 51.14514 1.41698ZM47.62242 1.41698" fill="#0000ff"/>
<path transform="matrix(1.00005,0,0,-1.00003,206.69751,142.73484)" stroke-width=".3985" stroke-linecap="butt" stroke-miterlimit="10" stroke-linejoin="miter" fill="none" stroke="#000000" d="M51.14514 1.41698C51.14514 3.36255 49.568 4.93971 47.62242 4.93971 45.67686 4.93971 44.0997 3.36255 44.0997 1.41698 44.0997-.52856 45.67686-2.10573 47.62242-2.10573 49.568-2.10573 51.14514-.52856 51.14514 1.41698ZM47.62242 1.41698"/>
<g>
<path transform="matrix(1.00005,0,0,-1.00003,206.69751,142.73484)" d="M76.19588-12.75595V0H66.67139V-12.75595ZM66.67139 0" fill="#0000ff" fill-opacity=".3"/>
<path transform="matrix(1.00005,0,0,-1.00003,206.69751,142.73484)" stroke-width=".3985" stroke-linecap="butt" stroke-miterlimit="10" stroke-linejoin="miter" fill="none" stroke="#000000" stroke-opacity=".3" d="M76.19588-12.75595V0H66.67139V-12.75595ZM66.67139 0"/>
</g>
<path transform="matrix(1.00005,0,0,-1.00003,206.69751,142.73484)" stroke-width=".79701" stroke-linecap="butt" stroke-miterlimit="10" stroke-linejoin="miter" fill="none" stroke="#000000" d="M76.19588-12.75595V0H66.67139V-12.75595ZM66.67139 0"/>
<path transform="matrix(1.00005,0,0,-1.00003,206.69751,142.73484)" d="M74.95636-12.75595C74.95636-10.8104 73.3792-9.23323 71.43364-9.23323 69.48807-9.23323 67.9109-10.8104 67.9109-12.75595 67.9109-14.70152 69.48807-16.27869 71.43364-16.27869 73.3792-16.27869 74.95636-14.70152 74.95636-12.75595ZM71.43364-12.75595" fill="#0000ff"/>
<path transform="matrix(1.00005,0,0,-1.00003,206.69751,142.73484)" stroke-width=".3985" stroke-linecap="butt" stroke-miterlimit="10" stroke-linejoin="miter" fill="none" stroke="#000000" d="M74.95636-12.75595C74.95636-10.8104 73.3792-9.23323 71.43364-9.23323 69.48807-9.23323 67.9109-10.8104 67.9109-12.75595 67.9109-14.70152 69.48807-16.27869 71.43364-16.27869 73.3792-16.27869 74.95636-14.70152 74.95636-12.75595ZM71.43364-12.75595"/>
</svg>
