<svg xmlns="http://www.w3.org/2000/svg" xmlns:xlink="http://www.w3.org/1999/xlink" xmlns:inkscape="http://www.inkscape.org/namespaces/inkscape" version="1.1" width="201" height="173" viewBox="0 0 201 173">
<path transform="matrix(1.00002,0,0,-1,43.616518,143.54001)" stroke-width=".3985" stroke-linecap="butt" stroke-miterlimit="10" stroke-linejoin="miter" fill="none" stroke="#000000" d="M-38.93365 0H152.32089"/>
<path transform="matrix(-1.00002,-0,0,1,4.682087,143.54001)" d="M3.58653 0C2.52383 .19925 .797 .797-.3985 1.49438V-1.49438C.797-.797 2.52383-.19925 3.58653 0"/>
<path transform="matrix(1.00002,0,0,-1,195.94046,143.54001)" d="M3.58653 0C2.52383 .19925 .797 .797-.3985 1.49438V-1.49438C.797-.797 2.52383-.19925 3.58653 0"/>
<path transform="matrix(1.00002,0,0,-1,43.616518,143.54001)" stroke-width=".3985" stroke-linecap="butt" stroke-miterlimit="10" stroke-linejoin="miter" fill="none" stroke="#000000" d="M0-24.76198V138.15615"/>
<path transform="matrix(0,1,1.00002,0,43.616518,168.30199)" d="M3.58653 0C2.52383 .19925 .797 .797-.3985 1.49438V-1.49438C.797-.797 2.52383-.19925 3.58653 0"/>
<path transform="matrix(0,-1,-1.00002,-0,43.616518,5.3838655)" d="M3.58653 0C2.52383 .19925 .797 .797-.3985 1.49438V-1.49438C.797-.797 2.52383-.19925 3.58653 0"/>
<path transform="matrix(1.00002,0,0,-1,43.616518,143.54001)" stroke-width=".79701" stroke-linecap="butt" stroke-dasharray=".79701,1.99255" stroke-miterlimit="10" stroke-linejoin="miter" fill="none" stroke="#000000" d="M-28.3468-17.00911-27.16597-14.21877-25.98514-11.51593-24.80432-8.8994-23.62349-6.36755-22.44266-3.91946-21.26183-1.55367-20.081 .73102-18.90018 2.93567-17.71935 5.06177-16.53851 7.11017-15.35768 9.08249-14.17685 10.97958-12.99603 12.80307-11.8152 14.5541-10.63437 16.23361-9.45354 17.84317-8.2727 19.38371-7.09189 20.85643-5.91106 22.26312-4.73022 23.60449-3.5494 24.88179-2.36856 26.09642-1.18774 27.24947-.00691 28.34229"/>
<path transform="matrix(1.00002,0,0,-1,43.616518,143.54001)" stroke-width=".79701" stroke-linecap="butt" stroke-miterlimit="10" stroke-linejoin="miter" fill="none" stroke="#000000" d="M0 28.34853 5.90543 32.95122 11.81087 36.23123 17.71631 38.34253 23.62175 39.43869 29.52719 39.6735 35.43263 39.20079 41.33807 38.1747 47.24352 36.74849 53.14896 35.07625 59.0544 33.31168 64.95984 31.60863 70.86528 30.1207 76.7707 29.002 82.67616 28.40613 88.5816 28.48686 94.48705 29.39793 100.39249 31.29333 106.29793 34.32664 112.20337 38.65186 118.10881 44.42262 124.01425 51.79279 129.9197 60.91608 135.82514 71.9463 141.73058 85.03731"/>
<path transform="matrix(1.00002,0,0,-1,43.616518,143.54001)" stroke-width=".79701" stroke-linecap="butt" stroke-dasharray=".79701,1.99255" stroke-miterlimit="10" stroke-linejoin="miter" fill="none" stroke="#000000" d="M141.73404 85.04561 142.32445 86.47375 142.91486 87.92424 143.50527 89.39716 144.09569 90.89267 144.6861 92.41092 145.27652 93.95207 145.86693 95.5163 146.45734 97.10373 147.04776 98.71455 147.63817 100.34883 148.22859 102.00685 148.819 103.68866 149.40941 105.39447 149.99983 107.12437 150.59024 108.87865 151.18067 110.65726 151.77108 112.46054 152.36148 114.28856 152.9519 116.14145 153.54232 118.01942 154.13274 119.92262 154.72315 121.85117 155.31356 123.80524 155.90398 125.78494"/>
<path transform="matrix(1.00002,0,0,-1,43.616518,143.54001)" d="M2.81807 28.34853C2.81807 29.9049 1.55638 31.1666 0 31.1666-1.55638 31.1666-2.81807 29.9049-2.81807 28.34853-2.81807 26.79213-1.55638 25.53044 0 25.53044 1.55638 25.53044 2.81807 26.79213 2.81807 28.34853ZM0 28.34853"/>
<path transform="matrix(1.00002,0,0,-1,43.616518,143.54001)" d="M144.55213 85.04561C144.55213 86.602 143.29044 87.8637 141.73404 87.8637 140.17765 87.8637 138.91596 86.602 138.91596 85.04561 138.91596 83.48921 140.17765 82.22752 141.73404 82.22752 143.29044 82.22752 144.55213 83.48921 144.55213 85.04561ZM141.73404 85.04561"/>
</svg>
