<svg xmlns="http://www.w3.org/2000/svg" xmlns:xlink="http://www.w3.org/1999/xlink" xmlns:inkscape="http://www.inkscape.org/namespaces/inkscape" version="1.1" width="373" height="213" viewBox="0 0 373 213">
<defs>
<path id="font_1_58" d="M.7350006 .24145508V.27246095L.61299136 .26945497C.57299807 .26945497 .48799134 .26945497 .45199586 .27246095V.24145508H.48399354C.57398989 .24145508 .57699587 .23045349 .57699587 .19346619V.12948609C.57699587 .017532349 .44999696 .008529663 .42199708 .008529663 .35699464 .008529663 .15899658 .043518068 .15899658 .34155274 .15899658 .6410217 .35598756 .67407229 .41600038 .67407229 .522995 .67407229 .6139984 .5839386 .6339874 .43670655 .6359863 .42268373 .6359863 .41967774 .6499939 .41967774 .66600039 .41967774 .66600039 .42268373 .66600039 .44371034V.68107607C.66600039 .69807437 .66600039 .7050781 .6549988 .7050781 .651001 .7050781 .6469879 .7050781 .6389923 .69306948L.58898928 .61898806C.5569916 .6510315 .5029907 .7050781 .4039917 .7050781 .21798706 .7050781 .055999757 .546875 .055999757 .34155274 .055999757 .13648987 .21598816-.022460938 .4059906-.022460938 .47898866-.022460938 .5589905 .0035247803 .59298709 .06251526 .60598757 .040527345 .6459961 .0005340576 .6569977 .0005340576 .66600039 .0005340576 .66600039 .008529663 .66600039 .023529053V.19746399C.66600039 .2364502 .66999819 .24145508 .7350006 .24145508Z"/>
<path id="font_1_96" d="M.3639984 .38137818C.3639984 .41337586 .33299256 .4423828 .2899933 .4423828 .21699524 .4423828 .18099976 .37538148 .16699219 .3323822V.4423828L.027999878 .43066407V.3996582C.09799194 .3996582 .10598755 .39266969 .10598755 .34370423V.07595825C.10598755 .0309906 .09498596 .0309906 .027999878 .0309906V0L.14199829 .0029907227C.18199158 .0029907227 .22898865 .0029907227 .2689972 0V.0309906H.24798584C.17399597 .0309906 .17199707 .04197693 .17199707 .07795715V.23181153C.17199707 .33137513 .21398926 .42037965 .2899933 .42037965 .29699708 .42037965 .29899598 .42037965 .30099488 .41937257 .2979889 .41838075 .27799989 .40637208 .27799989 .3803711 .27799989 .35237123 .29899598 .33737184 .32099916 .33737184 .33898927 .33737184 .3639984 .3493805 .3639984 .38137818Z"/>
<path id="font_1_28" d="M.48298646 .08912659V.14511109H.45799256V.08912659C.45799256 .03112793 .43299867 .025131226 .42199708 .025131226 .3889923 .025131226 .3849945 .070129398 .3849945 .07511902V.27508546C.3849945 .31707765 .3849945 .3560791 .34899903 .39312745 .30999757 .43223573 .2599945 .4482422 .21199036 .4482422 .12998963 .4482422 .06098938 .40115357 .06098938 .335083 .06098938 .30508424 .08099365 .28808595 .10699463 .28808595 .1349945 .28808595 .15299988 .30807496 .15299988 .33407594 .15299988 .3460846 .147995 .37908937 .101989749 .38008119 .1289978 .41519166 .17799378 .426239 .20999146 .426239 .25898744 .426239 .31599427 .38710023 .31599427 .29808045V.26107789C.2649994 .25808717 .19499207 .25508119 .13198853 .22509766 .056991579 .19110108 .03199768 .13911438 .03199768 .09512329 .03199768 .014251709 .1289978-.0107421879 .19198609-.0107421879 .2579956-.0107421879 .3039856 .029251099 .32299806 .07624817 .32699586 .036132814 .35398866-.005859375 .40098573-.005859375 .42199708-.005859375 .48298646 .008132935 .48298646 .08912659M.31599427 .14013672C.31599427 .04525757 .24398804 .011245728 .19898987 .011245728 .1499939 .011245728 .10899353 .04624939 .10899353 .09625244 .10899353 .15124512 .15098572 .23425293 .31599427 .24024964V.14013672Z"/>
<path id="font_1_84" d="M.5209961 .21636963C.5209961 .34336854 .42399598 .4423828 .31199647 .4423828 .23399353 .4423828 .19198609 .39837647 .17199707 .3763733V.4423828L.027999878 .43066407V.3996582C.09899902 .3996582 .10598755 .3936615 .10598755 .34973146V-.117996219C.10598755-.16308594 .09498596-.16308594 .027999878-.16308594V-.1940918L.13999939-.19110108 .25299073-.1940918V-.16308594C.18598938-.16308594 .1749878-.16308594 .1749878-.117996219V.050186159 .059173585C.17999268 .04319763 .22200012-.0107421879 .2979889-.0107421879 .4169922-.0107421879 .5209961 .087127689 .5209961 .21594239V.21636963M.43798829 .21594239C.43798829 .09512329 .36799623 .011245728 .2939911 .011245728 .2539978 .011245728 .21598816 .031219483 .18899536 .07215881 .1749878 .09312439 .1749878 .09411621 .1749878 .114089969V.33674623C.20399475 .38838197 .25299073 .41737367 .3039856 .41737367 .3769989 .41737367 .43798829 .32937623 .43798829 .21636963V.21594239Z"/>
<path id="font_1_63" d="M.5349884 0V.0309906C.48298646 .0309906 .45799256 .0309906 .45700074 .061019899V.25221253C.45700074 .3383026 .45700074 .36932374 .42599488 .405365 .4119873 .42237855 .3789978 .4423828 .32099916 .4423828 .23699951 .4423828 .19299317 .38233949 .1769867 .34629823H.17599488V.69433596L.03199768 .6826172V.6516113C.101989749 .6516113 .10998535 .64463809 .10998535 .59580996V.076034549C.10998535 .0309906 .09899902 .0309906 .03199768 .0309906V0L.14498902 .0029907227 .25698854 0V.0309906C.18998719 .0309906 .1789856 .0309906 .1789856 .076034549V.2602234C.1789856 .36431886 .25 .42037965 .31399537 .42037965 .3769989 .42037965 .3880005 .36631776 .3880005 .30926515V.076034549C.3880005 .0309906 .3769989 .0309906 .30999757 .0309906V0L.4229889 .0029907227 .5349884 0Z"/>
<path id="font_1_81" d="M.47099305 .21424866C.47099305 .34223939 .37098695 .4482422 .25 .4482422 .125 .4482422 .027999878 .3392334 .027999878 .21424866 .027999878 .085250858 .13198853-.0107421879 .24899292-.0107421879 .36999513-.0107421879 .47099305 .087249759 .47099305 .21424866M.3880005 .22224427C.3880005 .18624878 .3880005 .13224793 .3659973 .08824158 .34399415 .04324341 .2999878 .014251709 .25 .014251709 .20698548 .014251709 .16299439 .035247804 .13598633 .08125305 .11099243 .12524414 .11099243 .18624878 .11099243 .22224427 .11099243 .26124574 .11099243 .31523133 .1349945 .35923768 .1619873 .40522767 .20899964 .426239 .24899292 .426239 .29299928 .426239 .33599855 .40423585 .3619995 .36123658 .3880005 .3182373 .3880005 .26023866 .3880005 .22224427Z"/>
<path id="font_1_55" d="M.35699464 .63479617C.35699464 .6717987 .31999208 .7050781 .2669983 .7050781 .19699097 .7050781 .11199951 .65179446 .11199951 .5457611V.43066407H.032989503V.3996582H.11199951V.07595825C.11199951 .0309906 .100997928 .0309906 .033996583 .0309906V0L.147995 .0029907227C.18798828 .0029907227 .23498535 .0029907227 .2749939 0V.0309906H.2539978C.17999268 .0309906 .17799378 .04197693 .17799378 .07795715V.3996582H.2919922V.43066407H.1749878V.5467529C.1749878 .63479617 .22299195 .68307498 .2669983 .68307498 .269989 .68307498 .2849884 .68307498 .2999878 .675827 .28799439 .6717987 .269989 .6587982 .269989 .6338043 .269989 .61079409 .28599549 .5907898 .31298829 .5907898 .34199525 .5907898 .35699464 .61079409 .35699464 .63479617Z"/>
<path id="font_1_104" d="M.68499758 .45214845 .66600039 .6767578H.054992677L.035995485 .45214845H.06098938C.07499695 .6128235 .08999634 .64575198 .24099732 .64575198 .25898744 .64575198 .2849884 .64575198 .29499818 .64375308 .31599427 .6397705 .31599427 .6287842 .31599427 .60583499V.07901001C.31599427 .04499817 .31599427 .0309906 .21099854 .0309906H.17098999V0C.21199036 .0029907227 .31399537 .0029907227 .3600006 .0029907227 .4059906 .0029907227 .5089874 .0029907227 .5499878 0V.0309906H.5099945C.40499879 .0309906 .40499879 .04499817 .40499879 .07901001V.60583499C.40499879 .62579348 .40499879 .6397705 .4229889 .64375308 .43399049 .64575198 .46099855 .64575198 .47999574 .64575198 .6309967 .64575198 .6459961 .6128235 .6599884 .45214845H.68499758Z"/>
<path id="font_1_105" d="M.33198548 .12385559V.18066406H.30699159V.12585449C.30699159 .052108766 .2769928 .014251709 .23999024 .014251709 .17298889 .014251709 .17298889 .10491943 .17298889 .12187195V.3996582H.31599427V.43066407H.17298889V.6142578H.147995C.14698792 .5324249 .116989139 .42565919 .018997193 .42166139V.3996582H.10398865V.12408447C.10398865 .0012512207 .19699097-.0107421879 .23298645-.0107421879 .3039856-.0107421879 .33198548 .060180665 .33198548 .12408447V.12385559Z"/>
<path id="font_1_72" d="M.25498963 0V.0309906C.18798828 .0309906 .1769867 .0309906 .1769867 .07601929V.69433596L.032989503 .6826172V.6516113C.102996829 .6516113 .11099243 .64460757 .11099243 .5956421V.07595825C.11099243 .0309906 .099990848 .0309906 .032989503 .0309906V0L.14399719 .0029907227 .25498963 0Z"/>
<path id="font_2_1" d="M.48599244 .38136292C.48999024 .39537049 .48999024 .39736939 .48999024 .40437318 .48999024 .42237855 .47599793 .43138124 .46099855 .43138124 .45098878 .43138124 .43499757 .42536927 .42599488 .41036988 .42399598 .405365 .41600038 .37435914 .4119873 .35635377 .40499879 .33035279 .397995 .30334474 .3919983 .27633668L.34700013 .09628296C.34298707 .08126831 .2999878 .011245728 .23399353 .011245728 .18299866 .011245728 .17199707 .055267335 .17199707 .0922699 .17199707 .1382904 .18899536 .20030213 .22299195 .28833009 .23899842 .3293457 .24299622 .3403473 .24299622 .36035157 .24299622 .405365 .21099854 .4423828 .16099549 .4423828 .06599426 .4423828 .0289917 .29733277 .0289917 .28833009 .0289917 .27833558 .038986207 .27833558 .040985109 .27833558 .050994874 .27833558 .051986696 .28033448 .056991579 .29634095 .083999637 .3903656 .12399292 .42037965 .1579895 .42037965 .1659851 .42037965 .18299866 .42037965 .18299866 .3883667 .18299866 .36335755 .17298889 .3373413 .1659851 .31834413 .12599182 .21231079 .10798645 .1552887 .10798645 .10827637 .10798645 .019256592 .17098999-.0107421879 .22999573-.0107421879 .2689972-.0107421879 .30299378 .0062561037 .33099366 .03425598 .31799317-.017745972 .30599977-.06674194 .2659912-.11973572 .23999024-.15385437 .20199585-.18309021 .1559906-.18309021 .14199829-.18309021 .09700012-.18005371 .07998657-.14074707 .09599304-.14074707 .10899353-.14074707 .12298584-.1287384 .1329956-.11973572 .14299011-.10673523 .14299011-.08773804 .14299011-.056747438 .115997318-.052734376 .10598755-.052734376 .08299255-.052734376 .049987794-.068740848 .049987794-.11773682 .049987794-.16796875 .09399414-.20507813 .1559906-.20507813 .25898744-.20507813 .3619995-.11373901 .3899994-.00074768069L.48599244 .38136292Z"/>
<path id="font_1_47" d="M.5269928 0V.0309906C.45700074 .0309906 .44898988 .038009645 .44898988 .0871582V.69433596L.30499269 .6826172V.6516113C.375 .6516113 .3829956 .64463809 .3829956 .59580996V.38035584C.35398866 .41636659 .31098939 .4423828 .25698854 .4423828 .13899231 .4423828 .033996583 .3443451 .033996583 .21531677 .033996583 .088272098 .13198853-.0107421879 .24598694-.0107421879 .30999757-.0107421879 .35499574 .023254395 .37998963 .055267335V-.0107421879L.5269928 0M.37998963 .117996219C.37998963 .099990848 .37998963 .09799194 .36898805 .08099365 .33898927 .033218385 .2939911 .011245728 .25099183 .011245728 .20599365 .011245728 .16999817 .037216188 .1459961 .075164798 .11999512 .1161499 .116989139 .17320252 .116989139 .21421814 .116989139 .25125123 .11898804 .31129457 .147995 .35632325 .16899109 .38734437 .20698548 .42037965 .26098634 .42037965 .29599 .42037965 .33799745 .405365 .36898805 .3603363 .37998963 .34332276 .37998963 .34132386 .37998963 .32330323V.117996219Z"/>
<path id="font_1_118" d="M.5079956 .3996582V.43066407C.4850006 .4286499 .45599366 .42765809 .43299867 .42765809L.34599305 .43066407V.3996582C.3769989 .39866639 .3929901 .3816681 .3929901 .35668946 .3929901 .34669496 .3919983 .34469605 .3869934 .33270265L.28599549 .08685303 .1749878 .35568238C.17098999 .36567689 .16899109 .36967469 .16899109 .3736725 .16899109 .3996582 .20599365 .3996582 .22499085 .3996582V.43066407L.115997318 .42765809C.08898926 .42765809 .04899597 .4286499 .018997193 .43066407V.3996582C.066986087 .3996582 .085998538 .3996582 .099990848 .36468507L.25-.000091552738 .22499085-.059066774C.20298767-.11407471 .1749878-.18309021 .11099243-.18309021 .10598755-.18309021 .08299255-.18309021 .06399536-.16503906 .09498596-.16104126 .102996829-.13905335 .102996829-.123046878 .102996829-.0970459 .083999637-.08103943 .06098938-.08103943 .040985109-.08103943 .018997193-.09403992 .018997193-.124053958 .018997193-.16905213 .06098938-.20507813 .11099243-.20507813 .17399597-.20507813 .21499634-.14804077 .23899842-.091049198L.4149933 .33569337C.44099427 .39865113 .49198915 .3996582 .5079956 .3996582Z"/>
<path id="font_1_43" d="M.4149933 .119140628C.4149933 .12911988 .40499879 .12911988 .4019928 .12911988 .3929901 .12911988 .3909912 .12512207 .3889923 .119140628 .3600006 .026229859 .29499818 .014251709 .2579956 .014251709 .20498657 .014251709 .116989139 .0572052 .116989139 .21801758 .116989139 .38093568 .19898987 .42323304 .2519989 .42323304 .26098634 .42323304 .32398988 .42222596 .35899354 .38594056 .31799317 .38293458 .31199647 .3529358 .31199647 .3399353 .31199647 .31393434 .32998658 .2939453 .35798646 .2939453 .38398744 .2939453 .4039917 .3109436 .4039917 .34094239 .4039917 .40911866 .32798768 .4482422 .25099183 .4482422 .12599182 .4482422 .033996583 .3399353 .033996583 .21601868 .033996583 .08816528 .1329956-.0107421879 .24899292-.0107421879 .3829956-.0107421879 .4149933 .10914612 .4149933 .119140628Z"/>
<path id="font_1_98" d="M.3600006 .12823487C.3600006 .18122864 .32998658 .21122742 .31799317 .22323609 .2849884 .25523377 .24598694 .26322938 .20399475 .27124024 .147995 .28224183 .08099365 .29522706 .08099365 .35324098 .08099365 .38822938 .10699463 .42922975 .19299317 .42922975 .30299378 .42922975 .30799867 .3392334 .30999757 .30822755 .31098939 .2992401 .32199098 .2992401 .32199098 .2992401 .33499146 .2992401 .33499146 .30422975 .33499146 .32322694V.4242401C.33499146 .4412384 .33499146 .4482422 .32398988 .4482422 .31900025 .4482422 .31698609 .4482422 .3039856 .43623353 .30099488 .43223573 .29100038 .42323304 .2869873 .42022706 .24899292 .4482422 .20799256 .4482422 .19299317 .4482422 .070999149 .4482422 .032989503 .38124085 .032989503 .3252411 .032989503 .29023744 .04899597 .26223756 .07598877 .24023438 .10798645 .2142334 .13598633 .2082367 .20799256 .19422913 .22999573 .19021607 .31199647 .17422486 .31199647 .10221863 .31199647 .051223756 .2769928 .011245728 .19898987 .011245728 .114990238 .011245728 .07899475 .068222049 .05999756 .1532135 .056991579 .16621399 .055999757 .17021179 .04598999 .17021179 .032989503 .17021179 .032989503 .16322327 .032989503 .1452179V.013214111C.032989503-.003753662 .032989503-.0107421879 .04399109-.0107421879 .04899597-.0107421879 .049987794-.009750366 .068984989 .009246826 .070999149 .011245728 .070999149 .013214111 .08898926 .032226564 .1329956-.009750366 .17799378-.0107421879 .19898987-.0107421879 .31399537-.0107421879 .3600006 .05621338 .3600006 .1282196V.12823487Z"/>
<path id="font_3_2" d="M.3039856 .6392822C.3039856 .6642761 .30299378 .666275 .27799989 .666275 .21598816 .60227969 .12399292 .60227969 .09298706 .60227969V.57128909C.11199951 .57128909 .17298889 .57128909 .22698975 .5972748V.08001709C.22698975 .042999269 .22399903 .0309906 .1309967 .0309906H.09899902V0C.1349945 .0029907227 .22399903 .0029907227 .2649994 .0029907227 .30599977 .0029907227 .3959961 .0029907227 .43199159 0V.0309906H.3999939C.30699159 .0309906 .3039856 .042999269 .3039856 .08001709V.6392822Z"/>
<path id="font_3_3" d="M.46199037 .17704773H.43399049C.43199159 .16404724 .42399598 .10501099 .41099549 .08900452 .40499879 .07998657 .33599855 .07998657 .31599427 .07998657H.13798523L.23699951 .17404175C.40098573 .3161316 .46199037 .36915589 .46199037 .4711914 .46199037 .5860901 .36698915 .6660156 .24398804 .6660156 .1289978 .6660156 .050994874 .575119 .050994874 .4841919 .050994874 .43418885 .09399414 .42919923 .102996829 .42919923 .125 .42919923 .15499878 .44519044 .15499878 .48120118 .15499878 .51119998 .13398743 .5332031 .102996829 .5332031 .09799194 .5332031 .09498596 .5332031 .09098816 .53219607 .114990238 .6030731 .1789856 .63500979 .23298645 .63500979 .33499146 .63500979 .36999513 .5401764 .36999513 .4711914 .36999513 .36915589 .29299928 .28611756 .24499512 .23408509L.06199646 .035995485C.050994874 .024993897 .050994874 .022994996 .050994874 0H.43399049L.46199037 .17704773Z"/>
<path id="font_3_4" d="M.30499269 .35195924C.397995 .38697816 .44198609 .46006776 .44198609 .5290985 .44198609 .60606387 .35699464 .6660156 .25299073 .6660156 .14898682 .6660156 .070999149 .60705569 .070999149 .5310974 .070999149 .49809266 .09298706 .47909547 .12199402 .47909547 .15098572 .47909547 .17199707 .50009158 .17199707 .5290985 .17199707 .5640869 .147995 .57910159 .11399841 .57910159 .13999939 .6210327 .20098877 .64100649 .25 .64100649 .33299256 .64100649 .34899903 .5750885 .34899903 .52809146 .34899903 .49809266 .34298707 .45005799 .31799317 .41201783 .2869873 .36695863 .2519989 .36495973 .22299195 .36296083 .19799805 .36094667 .19599915 .36094667 .18798828 .36094667 .1789856 .35995484 .17098999 .35894776 .17098999 .34794618 .17098999 .33496095 .1789856 .33496095 .19599915 .33496095H.24299622C.32998658 .33496095 .36799623 .2646637 .36799623 .16937256 .36799623 .04145813 .2999878 .0055389406 .24899292 .0055389406 .22999573 .0055389406 .1329956 .010528564 .08799744 .0843811 .12399292 .07939148 .1519928 .10437012 .1519928 .13838196 .1519928 .17137146 .1269989 .19238281 .09799194 .19238281 .07299805 .19238281 .042999269 .17736817 .042999269 .13537598 .042999269 .046447755 .13598633-.022460938 .2519989-.022460938 .3769989-.022460938 .46998597 .06741333 .46998597 .16937256 .46998597 .25663758 .40098573 .33093263 .30499269 .35195924Z"/>
<path id="font_3_5" d="M.0289917 .19602967V.16503906H.3019867V.07901001C.3019867 .041992189 .29899598 .0309906 .22399903 .0309906H.20199585V0C.2649994 .0029907227 .33499146 .0029907227 .34199525 .0029907227 .34700013 .0029907227 .4189911 .0029907227 .48199464 0V.0309906H.45999146C.3849945 .0309906 .38198854 .041992189 .38198854 .07901001V.16503906H.48399354V.19602967H.38198854V.64974978C.38198854 .669754 .38198854 .6767578 .36299134 .6767578 .35099793 .6767578 .34999085 .67575076 .34098817 .66174319L.0289917 .19602967M.06098938 .19602967 .30799867 .56581118V.19602967H.06098938Z"/>
<path id="font_3_6" d="M.10398865 .3444519C.10398865 .32641603 .10398865 .31539918 .117996219 .31539918 .12599182 .31539918 .1289978 .31941224 .1349945 .32843019 .16499329 .3704834 .21299744 .39453126 .2649994 .39453126 .37199403 .39453126 .37199403 .24029541 .37199403 .20425415 .37199403 .17324829 .37199403 .11125183 .34399415 .06637573 .31698609 .024475098 .2749939 .0055389406 .23599243 .0055389406 .1769867 .0055389406 .10998535 .042434694 .085998538 .116256717 .08699036 .116256717 .09298706 .11425781 .099990848 .11425781 .11999512 .11425781 .14898682 .12724304 .14898682 .16325379 .14898682 .19424439 .1269989 .21224976 .099990848 .21224976 .07899475 .21224976 .050994874 .20025635 .050994874 .1602478 .050994874 .069366458 .1269989-.022460938 .23799134-.022460938 .35899354-.022460938 .46199037 .0753479 .46199037 .19924927 .46199037 .3204193 .37599183 .41952516 .2669983 .41952516 .21899414 .41952516 .16999817 .40351869 .1349945 .36747743V.56477358C.16499329 .5557709 .19599915 .55078127 .22698975 .55078127 .34999085 .55078127 .42199708 .6397705 .42199708 .652771 .42199708 .6617737 .41600038 .6657715 .41099549 .6657715 .40899659 .6657715 .40699769 .6657715 .397995 .6607666 .35099793 .6417694 .30499269 .6337738 .2630005 .6337738 .21998596 .6337738 .1749878 .6417694 .1289978 .6607666 .11898804 .6657715 .116989139 .6657715 .115997318 .6657715 .10398865 .6657715 .10398865 .655777 .10398865 .6387787V.3444519Z"/>
<path id="font_3_7" d="M.13398743 .33073426C.13398743 .43276979 .14498902 .4897766 .17199707 .54177859 .19198609 .58277896 .24099732 .64100649 .31498719 .64100649 .33499146 .64100649 .3809967 .63697817 .4039917 .6007843 .36698915 .6007843 .35099793 .5817871 .35099793 .55477908 .35099793 .5287781 .36898805 .50878909 .39698792 .50878909 .4249878 .50878909 .44400025 .5267792 .44400025 .55677798 .44400025 .612854 .4039917 .6660156 .31298829 .6660156 .18399048 .6660156 .042999269 .53878787 .042999269 .3157196 .042999269 .044555665 .16499329-.022460938 .25898744-.022460938 .36999513-.022460938 .46998597 .0705719 .46998597 .20265198 .46998597 .32972718 .37799073 .42578126 .2649994 .42578126 .20498657 .42578126 .1619873 .39076234 .13398743 .33073426M.2579956 .0055389406C.20098877 .0055389406 .16799927 .05256653 .1559906 .08157349 .13699341 .12660218 .13598633 .20965576 .13598633 .22566223 .13598633 .29270936 .16699219 .4007721 .2630005 .4007721 .2789917 .4007721 .32798768 .4007721 .3600006 .33872987 .3789978 .30070497 .3789978 .25167848 .3789978 .20365906 .3789978 .15562439 .3789978 .1065979 .3600006 .06956482 .32899476 .012542725 .2849884 .0055389406 .2579956 .0055389406Z"/>
<path id="font_3_8" d="M.48999024 .60954287C.49899293 .62054446 .49899293 .62254336 .49899293 .6435547H.25C.12399292 .6435547 .12098694 .6565399 .117996219 .67555239H.08999634L.056991579 .46655274H.084991458C.08898926 .48954774 .09700012 .5455475 .10998535 .55755618 .116989139 .56355288 .19599915 .56355288 .20999146 .56355288H.41999818L.32398988 .4325409C.19400025 .25354005 .18199158 .090530399 .18199158 .03353882 .18199158 .022537232 .18199158-.022460938 .22799683-.022460938 .2749939-.022460938 .2749939 .021530152 .2749939 .03453064V.08352661C.2749939 .23054505 .29699708 .34654237 .34999085 .41854859L.48999024 .60954287Z"/>
<path id="font_3_1" d="M.47299195 .31976319C.47299195 .38682557 .46998597 .47288514 .43499757 .5479431 .3909912 .64201357 .31498719 .6660156 .25698854 .6660156 .19699097 .6660156 .12098694 .64201357 .07699585 .5459442 .04499817 .47688294 .039993287 .39582826 .039993287 .31976319 .039993287 .25471498 .041992189 .15765381 .084991458 .07858276 .13198853-.0064697267 .20999146-.022460938 .2559967-.022460938 .32099916-.022460938 .394989 .0055389406 .43699647 .097595218 .46699525 .1646576 .47299195 .23971558 .47299195 .31976319M.25698854 .002532959C.22698975 .002532959 .15499878 .016540528 .13598633 .12962342 .12599182 .18867493 .12599182 .2747345 .12599182 .33177186 .12599182 .39982606 .12599182 .47888185 .13798523 .53393557 .1579895 .6230011 .22200012 .64100649 .2559967 .64100649 .2939911 .64100649 .35699464 .62098696 .37599183 .5279236 .3869934 .47288514 .3869934 .39482118 .3869934 .33177186 .3869934 .2697296 .3869934 .18566895 .3769989 .12661743 .35598756 .012542725 .28199769 .002532959 .25698854 .002532959Z"/>
<path id="font_1_42" d="M.6649933 .23271179C.6649933 .24272156 .6649933 .24972534 .6519928 .24972534 .6409912 .24972534 .6409912 .24372864 .6399994 .23371887 .6319885 .09059143 .5249939 .008529663 .41600038 .008529663 .35499574 .008529663 .15899658 .042556764 .15899658 .34080506 .15899658 .64004519 .35398866 .67407229 .4149933 .67407229 .5239868 .67407229 .61299136 .58299258 .6329956 .4368744 .6349945 .42286683 .6349945 .41986085 .6489868 .41986085 .6649933 .41986085 .6649933 .42286683 .6649933 .44387818V.68107607C.6649933 .69807437 .6649933 .7050781 .6539917 .7050781 .6499939 .7050781 .6459961 .7050781 .6380005 .69306948L.58799746 .61901858C.5509949 .6550598 .5 .7050781 .4039917 .7050781 .21699524 .7050781 .055999757 .5459595 .055999757 .34179688 .055999757 .1346283 .21798706-.022460938 .4039917-.022460938 .5669861-.022460938 .6649933 .116622928 .6649933 .23271179Z"/>
<path id="font_1_77" d="M.5349884 0V.0309906C.48298646 .0309906 .45799256 .0309906 .45700074 .061019899V.25221253C.45700074 .3383026 .45700074 .36932374 .42599488 .405365 .4119873 .42237855 .3789978 .4423828 .32099916 .4423828 .24798584 .4423828 .20098877 .39935304 .17298889 .33729554V.4423828L.03199768 .43066407V.3996582C.101989749 .3996582 .10998535 .39266969 .10998535 .34370423V.07595825C.10998535 .0309906 .09899902 .0309906 .03199768 .0309906V0L.14498902 .0029907227 .25698854 0V.0309906C.18998719 .0309906 .1789856 .0309906 .1789856 .07595825V.25978089C.1789856 .36431886 .25 .42037965 .31399537 .42037965 .3769989 .42037965 .3880005 .36631776 .3880005 .30926515V.076034549C.3880005 .0309906 .3769989 .0309906 .30999757 .0309906V0L.4229889 .0029907227 .5349884 0Z"/>
<path id="font_1_59" d="M.4850006 .40411378C.4850006 .42111207 .47299195 .453125 .43399049 .453125 .4139862 .453125 .36999513 .44711305 .32798768 .40611268 .28599549 .43937684 .24398804 .4423828 .22200012 .4423828 .1289978 .4423828 .05999756 .37338258 .05999756 .29638673 .05999756 .25239564 .08198547 .21440125 .10699463 .19340515 .09399414 .17840576 .07598877 .14538574 .07598877 .11035156 .07598877 .07899475 .08898926 .04083252 .11999512 .020828248 .05999756 .003829956 .027999878-.039138795 .027999878-.07911682 .027999878-.15107727 .1269989-.20605469 .24899292-.20605469 .36698915-.20605469 .47099305-.15507508 .47099305-.07711792 .47099305-.042144777 .45700074 .008834839 .4059906 .036834718 .35299684 .064834598 .29499818 .064834598 .23399353 .064834598 .20899964 .064834598 .1659851 .064834598 .15899658 .065841678 .1269989 .069885257 .10598755 .101242069 .10598755 .13334656 .10598755 .13735962 .10598755 .16040039 .12298584 .18040467 .1619873 .15240479 .20298767 .14941406 .22200012 .14941406 .31498719 .14941406 .38398744 .21839905 .38398744 .2953949 .38398744 .3323822 .36799623 .36938478 .34298707 .39237977 .3789978 .42637635 .4149933 .43138124 .43299867 .43138124 .43299867 .43112184 .43998719 .43112184 .44299317 .43011476 .43199159 .42611695 .4269867 .41513063 .4269867 .40315248 .4269867 .38616944 .43998719 .37417604 .45599366 .37417604 .46598817 .37417604 .4850006 .3811798 .4850006 .4041443V.40411378M.30899049 .29626466C.30899049 .26930238 .30799867 .2373352 .29299928 .21235657 .2849884 .20037842 .2619934 .17240906 .22200012 .17240906 .1349945 .17240906 .1349945 .2722931 .1349945 .29527284 .1349945 .3222351 .13598633 .35420228 .15098572 .3791809 .15899658 .3913269 .18199158 .41937257 .22200012 .41937257 .30899049 .41937257 .30899049 .31922914 .30899049 .29618836V.29626466M.4189911-.07911682C.4189911-.13308716 .34799195-.18305969 .25-.18305969 .14898682-.18305969 .07998657-.13209534 .07998657-.07911682 .07998657-.03314209 .117996219 .003829956 .1619873 .0068359377H.22099304C.30699159 .0068359377 .4189911 .0068359377 .4189911-.07911682Z"/>
<path id="font_1_50" d="M.4149933 .11933899C.4149933 .12934876 .40699769 .13134766 .4019928 .13134766 .3929901 .13134766 .3909912 .12535095 .3889923 .11734009 .35398866 .014251709 .2639923 .014251709 .2539978 .014251709 .20399475 .014251709 .1639862 .044281007 .14099121 .08131409 .11099243 .12934876 .11099243 .19540406 .11099243 .23144531H.3899994C.4119873 .23144531 .4149933 .23144531 .4149933 .2524414 .4149933 .35131837 .36099244 .4482422 .23599243 .4482422 .11999512 .4482422 .027999878 .34532167 .027999878 .22042847 .027999878 .08631897 .1329956-.0107421879 .24798584-.0107421879 .36999513-.0107421879 .4149933 .10032654 .4149933 .11933899M.34899903 .2524414H.11199951C.117996219 .40126039 .20199585 .426239 .23599243 .426239 .33898927 .426239 .34899903 .2913971 .34899903 .2524414Z"/>
<path id="font_4_1" d="M.44198609 .69781497C.43499757 .7108154 .43299867 .7158203 .41600038 .7158203 .39898683 .7158203 .39698792 .7108154 .3899994 .69781497L.051986696 .019989014C.04699707 .010986328 .04699707 .008987427 .04699707 .0079956059 .04699707 0 .052993776 0 .068984989 0H.7630005C.7789917 0 .7849884 0 .7849884 .0079956059 .7849884 .008987427 .7849884 .010986328 .7799988 .019989014L.44198609 .69781497M.38398744 .61582949 .6529999 .07598877H.11399841L.38398744 .61582949Z"/>
<path id="font_1_66" d="M.24699402 0V.0309906C.18099976 .0309906 .1769867 .035995485 .1769867 .075042728V.4423828L.036987306 .43066407V.3996582C.101989749 .3996582 .11099243 .3936615 .11099243 .3447113V.07595825C.11099243 .0309906 .099990848 .0309906 .032989503 .0309906V0L.14299011 .0029907227C.17799378 .0029907227 .21299744 .0009918213 .24699402 0M.19198609 .603775C.19198609 .6307678 .16899109 .6567688 .13899231 .6567688 .10499573 .6567688 .084991458 .6287689 .084991458 .603775 .084991458 .57676699 .10798645 .55078127 .13798523 .55078127 .17199707 .55078127 .19198609 .5787811 .19198609 .603775Z"/>
<path id="font_5_1" d="M.6749878 .22944641C.69299319 .22944641 .71199038 .22944641 .71199038 .25144959 .71199038 .27246095 .69200137 .27246095 .6749878 .27246095H.12298584C.10598755 .27246095 .085998538 .27246095 .085998538 .25144959 .085998538 .22944641 .10499573 .22944641 .12298584 .22944641H.6749878Z"/>
</defs>
<path transform="matrix(1.00006,0,0,-1.00005,19.958634,166.27352)" stroke-width=".3985" stroke-linecap="butt" stroke-miterlimit="10" stroke-linejoin="miter" fill="none" stroke="#000000" d="M-18.14192-22.67752V164.4121H154.20648V-22.67752ZM154.20648 164.4121"/>
<use data-text="G" xlink:href="#font_1_58" transform="matrix(9.963197,0,0,-9.963098,44.805124,208.50463)"/>
<use data-text="r" xlink:href="#font_1_96" transform="matrix(9.963197,0,0,-9.963098,52.626245,208.50463)"/>
<use data-text="a" xlink:href="#font_1_28" transform="matrix(9.963197,0,0,-9.963098,56.531824,208.50463)"/>
<use data-text="p" xlink:href="#font_1_84" transform="matrix(9.963197,0,0,-9.963098,61.513406,208.50463)"/>
<use data-text="h" xlink:href="#font_1_63" transform="matrix(9.963197,0,0,-9.963098,67.05294,208.50463)"/>
<use data-text="o" xlink:href="#font_1_81" transform="matrix(9.963197,0,0,-9.963098,75.90026,208.50463)"/>
<use data-text="f" xlink:href="#font_1_55" transform="matrix(9.963197,0,0,-9.963098,80.88184,208.50463)"/>
<use data-text="T" xlink:href="#font_1_104" transform="matrix(9.963197,0,0,-9.963098,87.24833,208.50463)"/>
<use data-text="o" xlink:href="#font_1_81" transform="matrix(9.963197,0,0,-9.963098,93.62476,208.50463)"/>
<use data-text="t" xlink:href="#font_1_105" transform="matrix(9.963197,0,0,-9.963098,98.60636,208.50463)"/>
<use data-text="a" xlink:href="#font_1_28" transform="matrix(9.963197,0,0,-9.963098,102.48205,208.50463)"/>
<use data-text="l" xlink:href="#font_1_72" transform="matrix(9.963197,0,0,-9.963098,107.463649,208.50463)"/>
<use data-text="y" xlink:href="#font_2_1" transform="matrix(9.963197,0,0,-9.963098,116.86846,208.50463)"/>
<path transform="matrix(1.00006,0,0,-1.00005,19.958634,166.27352)" stroke-width=".3985" stroke-linecap="butt" stroke-miterlimit="10" stroke-linejoin="miter" fill="none" stroke="#000000" d="M0 0H145.13552"/>
<path transform="matrix(1.00006,0,0,-1.00005,19.958634,166.27352)" stroke-width=".3985" stroke-linecap="butt" stroke-miterlimit="10" stroke-linejoin="miter" fill="none" stroke="#000000" d="M0 22.67752H145.13552"/>
<path transform="matrix(1.00006,0,0,-1.00005,19.958634,166.27352)" stroke-width=".3985" stroke-linecap="butt" stroke-miterlimit="10" stroke-linejoin="miter" fill="none" stroke="#000000" d="M0 45.35506H145.13552"/>
<path transform="matrix(1.00006,0,0,-1.00005,19.958634,166.27352)" stroke-width=".3985" stroke-linecap="butt" stroke-miterlimit="10" stroke-linejoin="miter" fill="none" stroke="#000000" d="M0 68.0326H145.13552"/>
<path transform="matrix(1.00006,0,0,-1.00005,19.958634,166.27352)" stroke-width=".3985" stroke-linecap="butt" stroke-miterlimit="10" stroke-linejoin="miter" fill="none" stroke="#000000" d="M0 90.71013H145.13552"/>
<path transform="matrix(1.00006,0,0,-1.00005,19.958634,166.27352)" stroke-width=".3985" stroke-linecap="butt" stroke-miterlimit="10" stroke-linejoin="miter" fill="none" stroke="#000000" d="M0 113.38766H145.13552"/>
<path transform="matrix(1.00006,0,0,-1.00005,19.958634,166.27352)" stroke-width=".3985" stroke-linecap="butt" stroke-miterlimit="10" stroke-linejoin="miter" fill="none" stroke="#000000" d="M0 136.0652H145.13552"/>
<path transform="matrix(1.00006,0,0,-1.00005,19.958634,166.27352)" stroke-width=".79701" stroke-linecap="butt" stroke-dasharray=".79701,1.99255" stroke-miterlimit="10" stroke-linejoin="miter" fill="none" stroke="#000000" d="M0 11.33876H145.13552"/>
<path transform="matrix(1.00006,0,0,-1.00005,19.958634,166.27352)" stroke-width=".79701" stroke-linecap="butt" stroke-dasharray=".79701,1.99255" stroke-miterlimit="10" stroke-linejoin="miter" fill="none" stroke="#000000" d="M0 34.01628H145.13552"/>
<path transform="matrix(1.00006,0,0,-1.00005,19.958634,166.27352)" stroke-width=".79701" stroke-linecap="butt" stroke-dasharray=".79701,1.99255" stroke-miterlimit="10" stroke-linejoin="miter" fill="none" stroke="#000000" d="M0 56.69382H145.13552"/>
<path transform="matrix(1.00006,0,0,-1.00005,19.958634,166.27352)" stroke-width=".79701" stroke-linecap="butt" stroke-dasharray=".79701,1.99255" stroke-miterlimit="10" stroke-linejoin="miter" fill="none" stroke="#000000" d="M0 79.37135H145.13552"/>
<path transform="matrix(1.00006,0,0,-1.00005,19.958634,166.27352)" stroke-width=".79701" stroke-linecap="butt" stroke-dasharray=".79701,1.99255" stroke-miterlimit="10" stroke-linejoin="miter" fill="none" stroke="#000000" d="M0 102.04889H145.13552"/>
<path transform="matrix(1.00006,0,0,-1.00005,19.958634,166.27352)" stroke-width=".79701" stroke-linecap="butt" stroke-dasharray=".79701,1.99255" stroke-miterlimit="10" stroke-linejoin="miter" fill="none" stroke="#000000" d="M0 124.72643H145.13552"/>
<path transform="matrix(1.00006,0,0,-1.00005,19.958634,166.27352)" stroke-width=".3985" stroke-linecap="butt" stroke-miterlimit="10" stroke-linejoin="miter" fill="none" stroke="#000000" d="M0 0H141.54897"/>
<path transform="matrix(1.00006,0,0,-1.00005,161.51609,166.27352)" d="M3.58653 0C2.52383 .19925 .797 .797-.3985 1.49438V-1.49438C.797-.797 2.52383-.19925 3.58653 0"/>
<use data-text="d" xlink:href="#font_1_47" transform="matrix(9.963197,0,0,-9.963098,157.35088,176.70804)"/>
<use data-text="a" xlink:href="#font_1_28" transform="matrix(9.963197,0,0,-9.963098,162.89041,176.70804)"/>
<use data-text="y" xlink:href="#font_1_118" transform="matrix(9.963197,0,0,-9.963098,167.59305,176.70804)"/>
<path transform="matrix(1.00006,0,0,-1.00005,19.958634,166.27352)" stroke-width=".3985" stroke-linecap="butt" stroke-miterlimit="10" stroke-linejoin="miter" fill="none" stroke="#000000" d="M0 0V143.81742"/>
<path transform="matrix(0,-1.00005,-1.00006,-0,19.958634,22.448914)" d="M3.58653 0C2.52383 .19925 .797 .797-.3985 1.49438V-1.49438C.797-.797 2.52383-.19925 3.58653 0"/>
<use data-text="c" xlink:href="#font_1_43" transform="matrix(9.963197,0,0,-9.963098,23.478852,15.232971)"/>
<use data-text="o" xlink:href="#font_1_81" transform="matrix(9.963197,0,0,-9.963098,27.902527,15.232971)"/>
<use data-text="s" xlink:href="#font_1_98" transform="matrix(9.963197,0,0,-9.963098,32.88411,15.232971)"/>
<use data-text="t" xlink:href="#font_1_105" transform="matrix(9.963197,0,0,-9.963098,36.809617,15.232971)"/>
<path transform="matrix(1.00006,0,0,-1.00005,19.958634,166.27352)" d="M12.51749-14.61133H23.76638V-2.1918H12.51749Z" fill="#ffffff"/>
<use data-text="1" xlink:href="#font_3_2" transform="matrix(8.966938,0,0,-8.966848,35.797586,177.56508)"/>
<path transform="matrix(1.00006,0,0,-1.00005,19.958634,166.27352)" d="M30.65942-14.61133H41.90831V-2.1918H30.65942Z" fill="#ffffff"/>
<use data-text="2" xlink:href="#font_3_3" transform="matrix(8.966938,0,0,-8.966848,53.940675,177.56508)"/>
<path transform="matrix(1.00006,0,0,-1.00005,19.958634,166.27352)" d="M48.80136-14.61133H60.05025V-2.1918H48.80136Z" fill="#ffffff"/>
<use data-text="3" xlink:href="#font_3_4" transform="matrix(8.966938,0,0,-8.966848,72.083759,177.56508)"/>
<path transform="matrix(1.00006,0,0,-1.00005,19.958634,166.27352)" d="M66.9433-14.61133H78.192188V-2.1918H66.9433Z" fill="#ffffff"/>
<use data-text="4" xlink:href="#font_3_5" transform="matrix(8.966938,0,0,-8.966848,90.226848,177.56508)"/>
<path transform="matrix(1.00006,0,0,-1.00005,19.958634,166.27352)" d="M85.08525-14.61133H96.33414V-2.1918H85.08525Z" fill="#ffffff"/>
<use data-text="5" xlink:href="#font_3_6" transform="matrix(8.966938,0,0,-8.966848,108.369937,177.56508)"/>
<path transform="matrix(1.00006,0,0,-1.00005,19.958634,166.27352)" d="M103.22719-14.61133H114.476078V-2.1918H103.22719Z" fill="#ffffff"/>
<use data-text="6" xlink:href="#font_3_7" transform="matrix(8.966938,0,0,-8.966848,126.513019,177.56508)"/>
<path transform="matrix(1.00006,0,0,-1.00005,19.958634,166.27352)" d="M121.36913-14.61133H132.61803V-2.1918H121.36913Z" fill="#ffffff"/>
<use data-text="7" xlink:href="#font_3_8" transform="matrix(8.966938,0,0,-8.966848,144.65612,177.56508)"/>
<path transform="matrix(1.00006,0,0,-1.00005,19.958634,166.27352)" d="M-13.44069-6.20976H-2.1918V6.2097699H-13.44069Z" fill="#ffffff"/>
<use data-text="0" xlink:href="#font_3_1" transform="matrix(8.966938,0,0,-8.966848,9.838028,169.16266)"/>
<path transform="matrix(1.00006,0,0,-1.00005,19.958634,166.27352)" d="M-13.44069 16.46774H-2.1918V28.887269H-13.44069Z" fill="#ffffff"/>
<use data-text="1" xlink:href="#font_3_2" transform="matrix(8.966938,0,0,-8.966848,9.838028,146.48453)"/>
<path transform="matrix(1.00006,0,0,-1.00005,19.958634,166.27352)" d="M-13.44069 39.14528H-2.1918V51.564809H-13.44069Z" fill="#ffffff"/>
<use data-text="2" xlink:href="#font_3_3" transform="matrix(8.966938,0,0,-8.966848,9.838028,123.80539)"/>
<path transform="matrix(1.00006,0,0,-1.00005,19.958634,166.27352)" d="M-13.44069 61.82281H-2.1918V74.24234H-13.44069Z" fill="#ffffff"/>
<use data-text="3" xlink:href="#font_3_4" transform="matrix(8.966938,0,0,-8.966848,9.838028,101.127269)"/>
<path transform="matrix(1.00006,0,0,-1.00005,19.958634,166.27352)" d="M-13.44069 84.50035H-2.1918V96.91988H-13.44069Z" fill="#ffffff"/>
<use data-text="4" xlink:href="#font_3_5" transform="matrix(8.966938,0,0,-8.966848,9.838028,78.44813)"/>
<path transform="matrix(1.00006,0,0,-1.00005,19.958634,166.27352)" d="M-13.44069 107.17789H-2.1918V119.59742H-13.44069Z" fill="#ffffff"/>
<use data-text="5" xlink:href="#font_3_6" transform="matrix(8.966938,0,0,-8.966848,9.838028,55.769998)"/>
<path transform="matrix(1.00006,0,0,-1.00005,19.958634,166.27352)" d="M-13.44069 129.85543H-2.1918V142.27495H-13.44069Z" fill="#ffffff"/>
<use data-text="6" xlink:href="#font_3_7" transform="matrix(8.966938,0,0,-8.966848,9.838028,33.090867)"/>
<path transform="matrix(1.00006,0,0,-1.00005,19.958634,166.27352)" stroke-width=".09962" stroke-linecap="butt" stroke-miterlimit="10" stroke-linejoin="miter" fill="none" stroke="#000000" d="M18.14192 0V141.73456"/>
<path transform="matrix(1.00006,0,0,-1.00005,19.958634,166.27352)" stroke-width=".09962" stroke-linecap="butt" stroke-miterlimit="10" stroke-linejoin="miter" fill="none" stroke="#000000" d="M36.28386 0V141.73456"/>
<path transform="matrix(1.00006,0,0,-1.00005,19.958634,166.27352)" stroke-width=".09962" stroke-linecap="butt" stroke-miterlimit="10" stroke-linejoin="miter" fill="none" stroke="#000000" d="M54.42581 0V141.73456"/>
<path transform="matrix(1.00006,0,0,-1.00005,19.958634,166.27352)" stroke-width=".09962" stroke-linecap="butt" stroke-miterlimit="10" stroke-linejoin="miter" fill="none" stroke="#000000" d="M72.56775 0V141.73456"/>
<path transform="matrix(1.00006,0,0,-1.00005,19.958634,166.27352)" stroke-width=".09962" stroke-linecap="butt" stroke-miterlimit="10" stroke-linejoin="miter" fill="none" stroke="#000000" d="M90.7097 0V141.73456"/>
<path transform="matrix(1.00006,0,0,-1.00005,19.958634,166.27352)" stroke-width=".09962" stroke-linecap="butt" stroke-miterlimit="10" stroke-linejoin="miter" fill="none" stroke="#000000" d="M108.85162 0V141.73456"/>
<path transform="matrix(1.00006,0,0,-1.00005,19.958634,166.27352)" stroke-width=".09962" stroke-linecap="butt" stroke-miterlimit="10" stroke-linejoin="miter" fill="none" stroke="#000000" d="M126.99356 0V141.73456"/>
<g>
<path transform="matrix(1.00006,0,0,-1.00005,19.958634,166.27352)" d="M26.30574 45.35506V0H9.9781V45.35506ZM9.9781 0" fill="#0000ff" fill-opacity=".3"/>
<path transform="matrix(1.00006,0,0,-1.00005,19.958634,166.27352)" stroke-width=".3985" stroke-linecap="butt" stroke-miterlimit="10" stroke-linejoin="miter" fill="none" stroke="#000000" stroke-opacity=".3" d="M26.30574 45.35506V0H9.9781V45.35506ZM9.9781 0"/>
</g>
<path transform="matrix(1.00006,0,0,-1.00005,19.958634,166.27352)" stroke-width=".79701" stroke-linecap="butt" stroke-miterlimit="10" stroke-linejoin="miter" fill="none" stroke="#000000" d="M26.30574 45.35506V0H9.9781V45.35506ZM9.9781 0"/>
<path transform="matrix(1.00006,0,0,-1.00005,19.958634,166.27352)" d="M20.96 45.35506C20.96 46.91144 19.69832 48.17313 18.14192 48.17313 16.58554 48.17313 15.32385 46.91144 15.32385 45.35506 15.32385 43.79866 16.58554 42.53697 18.14192 42.53697 19.69832 42.53697 20.96 43.79866 20.96 45.35506ZM18.14192 45.35506" fill="#0000ff"/>
<path transform="matrix(1.00006,0,0,-1.00005,19.958634,166.27352)" stroke-width=".3985" stroke-linecap="butt" stroke-miterlimit="10" stroke-linejoin="miter" fill="none" stroke="#000000" d="M20.96 45.35506C20.96 46.91144 19.69832 48.17313 18.14192 48.17313 16.58554 48.17313 15.32385 46.91144 15.32385 45.35506 15.32385 43.79866 16.58554 42.53697 18.14192 42.53697 19.69832 42.53697 20.96 43.79866 20.96 45.35506ZM18.14192 45.35506"/>
<g>
<path transform="matrix(1.00006,0,0,-1.00005,19.958634,166.27352)" d="M44.44768 79.37135V0H28.12006V79.37135ZM28.12006 0" fill="#0000ff" fill-opacity=".3"/>
<path transform="matrix(1.00006,0,0,-1.00005,19.958634,166.27352)" stroke-width=".3985" stroke-linecap="butt" stroke-miterlimit="10" stroke-linejoin="miter" fill="none" stroke="#000000" stroke-opacity=".3" d="M44.44768 79.37135V0H28.12006V79.37135ZM28.12006 0"/>
</g>
<path transform="matrix(1.00006,0,0,-1.00005,19.958634,166.27352)" stroke-width=".79701" stroke-linecap="butt" stroke-miterlimit="10" stroke-linejoin="miter" fill="none" stroke="#000000" d="M44.44768 79.37135V0H28.12006V79.37135ZM28.12006 0"/>
<path transform="matrix(1.00006,0,0,-1.00005,19.958634,166.27352)" d="M39.10194 79.37135C39.10194 80.92773 37.84026 82.18942 36.28386 82.18942 34.72746 82.18942 33.46577 80.92773 33.46577 79.37135 33.46577 77.81496 34.72746 76.55327 36.28386 76.55327 37.84026 76.55327 39.10194 77.81496 39.10194 79.37135ZM36.28386 79.37135" fill="#0000ff"/>
<path transform="matrix(1.00006,0,0,-1.00005,19.958634,166.27352)" stroke-width=".3985" stroke-linecap="butt" stroke-miterlimit="10" stroke-linejoin="miter" fill="none" stroke="#000000" d="M39.10194 79.37135C39.10194 80.92773 37.84026 82.18942 36.28386 82.18942 34.72746 82.18942 33.46577 80.92773 33.46577 79.37135 33.46577 77.81496 34.72746 76.55327 36.28386 76.55327 37.84026 76.55327 39.10194 77.81496 39.10194 79.37135ZM36.28386 79.37135"/>
<g>
<path transform="matrix(1.00006,0,0,-1.00005,19.958634,166.27352)" d="M62.58963 90.71013V0H46.26198V90.71013ZM46.26198 0" fill="#0000ff" fill-opacity=".3"/>
<path transform="matrix(1.00006,0,0,-1.00005,19.958634,166.27352)" stroke-width=".3985" stroke-linecap="butt" stroke-miterlimit="10" stroke-linejoin="miter" fill="none" stroke="#000000" stroke-opacity=".3" d="M62.58963 90.71013V0H46.26198V90.71013ZM46.26198 0"/>
</g>
<path transform="matrix(1.00006,0,0,-1.00005,19.958634,166.27352)" stroke-width=".79701" stroke-linecap="butt" stroke-miterlimit="10" stroke-linejoin="miter" fill="none" stroke="#000000" d="M62.58963 90.71013V0H46.26198V90.71013ZM46.26198 0"/>
<path transform="matrix(1.00006,0,0,-1.00005,19.958634,166.27352)" d="M57.2439 90.71013C57.2439 92.26651 55.98221 93.5282 54.42581 93.5282 52.86942 93.5282 51.60773 92.26651 51.60773 90.71013 51.60773 89.15373 52.86942 87.89204 54.42581 87.89204 55.98221 87.89204 57.2439 89.15373 57.2439 90.71013ZM54.42581 90.71013" fill="#0000ff"/>
<path transform="matrix(1.00006,0,0,-1.00005,19.958634,166.27352)" stroke-width=".3985" stroke-linecap="butt" stroke-miterlimit="10" stroke-linejoin="miter" fill="none" stroke="#000000" d="M57.2439 90.71013C57.2439 92.26651 55.98221 93.5282 54.42581 93.5282 52.86942 93.5282 51.60773 92.26651 51.60773 90.71013 51.60773 89.15373 52.86942 87.89204 54.42581 87.89204 55.98221 87.89204 57.2439 89.15373 57.2439 90.71013ZM54.42581 90.71013"/>
<g>
<path transform="matrix(1.00006,0,0,-1.00005,19.958634,166.27352)" d="M80.73155 68.0326V0H64.40393V68.0326ZM64.40393 0" fill="#0000ff" fill-opacity=".3"/>
<path transform="matrix(1.00006,0,0,-1.00005,19.958634,166.27352)" stroke-width=".3985" stroke-linecap="butt" stroke-miterlimit="10" stroke-linejoin="miter" fill="none" stroke="#000000" stroke-opacity=".3" d="M80.73155 68.0326V0H64.40393V68.0326ZM64.40393 0"/>
</g>
<path transform="matrix(1.00006,0,0,-1.00005,19.958634,166.27352)" stroke-width=".79701" stroke-linecap="butt" stroke-miterlimit="10" stroke-linejoin="miter" fill="none" stroke="#000000" d="M80.73155 68.0326V0H64.40393V68.0326ZM64.40393 0"/>
<path transform="matrix(1.00006,0,0,-1.00005,19.958634,166.27352)" d="M75.38583 68.0326C75.38583 69.58897 74.12415 70.85066 72.56775 70.85066 71.01135 70.85066 69.74966 69.58897 69.74966 68.0326 69.74966 66.4762 71.01135 65.21451 72.56775 65.21451 74.12415 65.21451 75.38583 66.4762 75.38583 68.0326ZM72.56775 68.0326" fill="#0000ff"/>
<path transform="matrix(1.00006,0,0,-1.00005,19.958634,166.27352)" stroke-width=".3985" stroke-linecap="butt" stroke-miterlimit="10" stroke-linejoin="miter" fill="none" stroke="#000000" d="M75.38583 68.0326C75.38583 69.58897 74.12415 70.85066 72.56775 70.85066 71.01135 70.85066 69.74966 69.58897 69.74966 68.0326 69.74966 66.4762 71.01135 65.21451 72.56775 65.21451 74.12415 65.21451 75.38583 66.4762 75.38583 68.0326ZM72.56775 68.0326"/>
<g>
<path transform="matrix(1.00006,0,0,-1.00005,19.958634,166.27352)" d="M98.87349 102.04889V0H82.54587V102.04889ZM82.54587 0" fill="#0000ff" fill-opacity=".3"/>
<path transform="matrix(1.00006,0,0,-1.00005,19.958634,166.27352)" stroke-width=".3985" stroke-linecap="butt" stroke-miterlimit="10" stroke-linejoin="miter" fill="none" stroke="#000000" stroke-opacity=".3" d="M98.87349 102.04889V0H82.54587V102.04889ZM82.54587 0"/>
</g>
<path transform="matrix(1.00006,0,0,-1.00005,19.958634,166.27352)" stroke-width=".79701" stroke-linecap="butt" stroke-miterlimit="10" stroke-linejoin="miter" fill="none" stroke="#000000" d="M98.87349 102.04889V0H82.54587V102.04889ZM82.54587 0"/>
<path transform="matrix(1.00006,0,0,-1.00005,19.958634,166.27352)" d="M93.52777 102.04889C93.52777 103.60527 92.26608 104.86696 90.7097 104.86696 89.1533 104.86696 87.89162 103.60527 87.89162 102.04889 87.89162 100.4925 89.1533 99.2308 90.7097 99.2308 92.26608 99.2308 93.52777 100.4925 93.52777 102.04889ZM90.7097 102.04889" fill="#0000ff"/>
<path transform="matrix(1.00006,0,0,-1.00005,19.958634,166.27352)" stroke-width=".3985" stroke-linecap="butt" stroke-miterlimit="10" stroke-linejoin="miter" fill="none" stroke="#000000" d="M93.52777 102.04889C93.52777 103.60527 92.26608 104.86696 90.7097 104.86696 89.1533 104.86696 87.89162 103.60527 87.89162 102.04889 87.89162 100.4925 89.1533 99.2308 90.7097 99.2308 92.26608 99.2308 93.52777 100.4925 93.52777 102.04889ZM90.7097 102.04889"/>
<g>
<path transform="matrix(1.00006,0,0,-1.00005,19.958634,166.27352)" d="M117.01544 45.35506V0H100.68782V45.35506ZM100.68782 0" fill="#0000ff" fill-opacity=".3"/>
<path transform="matrix(1.00006,0,0,-1.00005,19.958634,166.27352)" stroke-width=".3985" stroke-linecap="butt" stroke-miterlimit="10" stroke-linejoin="miter" fill="none" stroke="#000000" stroke-opacity=".3" d="M117.01544 45.35506V0H100.68782V45.35506ZM100.68782 0"/>
</g>
<path transform="matrix(1.00006,0,0,-1.00005,19.958634,166.27352)" stroke-width=".79701" stroke-linecap="butt" stroke-miterlimit="10" stroke-linejoin="miter" fill="none" stroke="#000000" d="M117.01544 45.35506V0H100.68782V45.35506ZM100.68782 0"/>
<path transform="matrix(1.00006,0,0,-1.00005,19.958634,166.27352)" d="M111.66971 45.35506C111.66971 46.91144 110.40802 48.17313 108.85162 48.17313 107.29524 48.17313 106.03355 46.91144 106.03355 45.35506 106.03355 43.79866 107.29524 42.53697 108.85162 42.53697 110.40802 42.53697 111.66971 43.79866 111.66971 45.35506ZM108.85162 45.35506" fill="#0000ff"/>
<path transform="matrix(1.00006,0,0,-1.00005,19.958634,166.27352)" stroke-width=".3985" stroke-linecap="butt" stroke-miterlimit="10" stroke-linejoin="miter" fill="none" stroke="#000000" d="M111.66971 45.35506C111.66971 46.91144 110.40802 48.17313 108.85162 48.17313 107.29524 48.17313 106.03355 46.91144 106.03355 45.35506 106.03355 43.79866 107.29524 42.53697 108.85162 42.53697 110.40802 42.53697 111.66971 43.79866 111.66971 45.35506ZM108.85162 45.35506"/>
<g>
<path transform="matrix(1.00006,0,0,-1.00005,19.958634,166.27352)" d="M135.15738 79.37135V0H118.82976V79.37135ZM118.82976 0" fill="#0000ff" fill-opacity=".3"/>
<path transform="matrix(1.00006,0,0,-1.00005,19.958634,166.27352)" stroke-width=".3985" stroke-linecap="butt" stroke-miterlimit="10" stroke-linejoin="miter" fill="none" stroke="#000000" stroke-opacity=".3" d="M135.15738 79.37135V0H118.82976V79.37135ZM118.82976 0"/>
</g>
<path transform="matrix(1.00006,0,0,-1.00005,19.958634,166.27352)" stroke-width=".79701" stroke-linecap="butt" stroke-miterlimit="10" stroke-linejoin="miter" fill="none" stroke="#000000" d="M135.15738 79.37135V0H118.82976V79.37135ZM118.82976 0"/>
<path transform="matrix(1.00006,0,0,-1.00005,19.958634,166.27352)" d="M129.81165 79.37135C129.81165 80.92773 128.54996 82.18942 126.99356 82.18942 125.43716 82.18942 124.17548 80.92773 124.17548 79.37135 124.17548 77.81496 125.43716 76.55327 126.99356 76.55327 128.54996 76.55327 129.81165 77.81496 129.81165 79.37135ZM126.99356 79.37135" fill="#0000ff"/>
<path transform="matrix(1.00006,0,0,-1.00005,19.958634,166.27352)" stroke-width=".3985" stroke-linecap="butt" stroke-miterlimit="10" stroke-linejoin="miter" fill="none" stroke="#000000" d="M129.81165 79.37135C129.81165 80.92773 128.54996 82.18942 126.99356 82.18942 125.43716 82.18942 124.17548 80.92773 124.17548 79.37135 124.17548 77.81496 125.43716 76.55327 126.99356 76.55327 128.54996 76.55327 129.81165 77.81496 129.81165 79.37135ZM126.99356 79.37135"/>
<path transform="matrix(1.00006,0,0,-1.00005,216.86746,98.1811)" stroke-width=".3985" stroke-linecap="butt" stroke-miterlimit="10" stroke-linejoin="miter" fill="none" stroke="#000000" d="M-27.21289-90.71013V96.3795H154.20648V-90.71013ZM154.20648 96.3795"/>
<use data-text="G" xlink:href="#font_1_58" transform="matrix(9.963197,0,0,-9.963098,232.72042,208.3906)"/>
<use data-text="r" xlink:href="#font_1_96" transform="matrix(9.963197,0,0,-9.963098,240.54152,208.3906)"/>
<use data-text="a" xlink:href="#font_1_28" transform="matrix(9.963197,0,0,-9.963098,244.4471,208.3906)"/>
<use data-text="p" xlink:href="#font_1_84" transform="matrix(9.963197,0,0,-9.963098,249.4287,208.3906)"/>
<use data-text="h" xlink:href="#font_1_63" transform="matrix(9.963197,0,0,-9.963098,254.96825,208.3906)"/>
<use data-text="o" xlink:href="#font_1_81" transform="matrix(9.963197,0,0,-9.963098,263.81556,208.3906)"/>
<use data-text="f" xlink:href="#font_1_55" transform="matrix(9.963197,0,0,-9.963098,268.79719,208.3906)"/>
<use data-text="C" xlink:href="#font_1_42" transform="matrix(9.963197,0,0,-9.963098,275.16365,208.3906)"/>
<use data-text="h" xlink:href="#font_1_63" transform="matrix(9.963197,0,0,-9.963098,282.35707,208.3906)"/>
<use data-text="a" xlink:href="#font_1_28" transform="matrix(9.963197,0,0,-9.963098,287.8966,208.3906)"/>
<use data-text="n" xlink:href="#font_1_77" transform="matrix(9.963197,0,0,-9.963098,292.87818,208.3906)"/>
<use data-text="g" xlink:href="#font_1_59" transform="matrix(9.963197,0,0,-9.963098,298.41773,208.3906)"/>
<use data-text="e" xlink:href="#font_1_50" transform="matrix(9.963197,0,0,-9.963098,303.39936,208.3906)"/>
<use data-text="&#x2206;" xlink:href="#font_4_1" transform="matrix(9.963197,0,0,-9.963098,314.46833,208.3906)"/>
<use data-text="y" xlink:href="#font_2_1" transform="matrix(9.963197,0,0,-9.963098,322.7708,208.3906)"/>
<path transform="matrix(1.00006,0,0,-1.00005,216.86746,98.1811)" stroke-width=".3985" stroke-linecap="butt" stroke-miterlimit="10" stroke-linejoin="miter" fill="none" stroke="#000000" d="M0-68.0326H145.13552"/>
<path transform="matrix(1.00006,0,0,-1.00005,216.86746,98.1811)" stroke-width=".3985" stroke-linecap="butt" stroke-miterlimit="10" stroke-linejoin="miter" fill="none" stroke="#000000" d="M0-45.35506H145.13552"/>
<path transform="matrix(1.00006,0,0,-1.00005,216.86746,98.1811)" stroke-width=".3985" stroke-linecap="butt" stroke-miterlimit="10" stroke-linejoin="miter" fill="none" stroke="#000000" d="M0-22.67752H145.13552"/>
<path transform="matrix(1.00006,0,0,-1.00005,216.86746,98.1811)" stroke-width=".3985" stroke-linecap="butt" stroke-miterlimit="10" stroke-linejoin="miter" fill="none" stroke="#000000" d="M0 0H145.13552"/>
<path transform="matrix(1.00006,0,0,-1.00005,216.86746,98.1811)" stroke-width=".3985" stroke-linecap="butt" stroke-miterlimit="10" stroke-linejoin="miter" fill="none" stroke="#000000" d="M0 22.67752H145.13552"/>
<path transform="matrix(1.00006,0,0,-1.00005,216.86746,98.1811)" stroke-width=".3985" stroke-linecap="butt" stroke-miterlimit="10" stroke-linejoin="miter" fill="none" stroke="#000000" d="M0 45.35506H145.13552"/>
<path transform="matrix(1.00006,0,0,-1.00005,216.86746,98.1811)" stroke-width=".3985" stroke-linecap="butt" stroke-miterlimit="10" stroke-linejoin="miter" fill="none" stroke="#000000" d="M0 68.0326H145.13552"/>
<path transform="matrix(1.00006,0,0,-1.00005,216.86746,98.1811)" stroke-width=".79701" stroke-linecap="butt" stroke-dasharray=".79701,1.99255" stroke-miterlimit="10" stroke-linejoin="miter" fill="none" stroke="#000000" d="M0-56.69382H145.13552"/>
<path transform="matrix(1.00006,0,0,-1.00005,216.86746,98.1811)" stroke-width=".79701" stroke-linecap="butt" stroke-dasharray=".79701,1.99255" stroke-miterlimit="10" stroke-linejoin="miter" fill="none" stroke="#000000" d="M0-34.01628H145.13552"/>
<path transform="matrix(1.00006,0,0,-1.00005,216.86746,98.1811)" stroke-width=".79701" stroke-linecap="butt" stroke-dasharray=".79701,1.99255" stroke-miterlimit="10" stroke-linejoin="miter" fill="none" stroke="#000000" d="M0-11.33876H145.13552"/>
<path transform="matrix(1.00006,0,0,-1.00005,216.86746,98.1811)" stroke-width=".79701" stroke-linecap="butt" stroke-dasharray=".79701,1.99255" stroke-miterlimit="10" stroke-linejoin="miter" fill="none" stroke="#000000" d="M0 11.33876H145.13552"/>
<path transform="matrix(1.00006,0,0,-1.00005,216.86746,98.1811)" stroke-width=".79701" stroke-linecap="butt" stroke-dasharray=".79701,1.99255" stroke-miterlimit="10" stroke-linejoin="miter" fill="none" stroke="#000000" d="M0 34.01628H145.13552"/>
<path transform="matrix(1.00006,0,0,-1.00005,216.86746,98.1811)" stroke-width=".79701" stroke-linecap="butt" stroke-dasharray=".79701,1.99255" stroke-miterlimit="10" stroke-linejoin="miter" fill="none" stroke="#000000" d="M0 56.69382H145.13552"/>
<path transform="matrix(1.00006,0,0,-1.00005,216.86746,98.1811)" stroke-width=".3985" stroke-linecap="butt" stroke-miterlimit="10" stroke-linejoin="miter" fill="none" stroke="#000000" d="M0 0H141.54897"/>
<path transform="matrix(1.00006,0,0,-1.00005,358.42494,98.1811)" d="M3.58653 0C2.52383 .19925 .797 .797-.3985 1.49438V-1.49438C.797-.797 2.52383-.19925 3.58653 0"/>
<use data-text="d" xlink:href="#font_1_47" transform="matrix(9.963197,0,0,-9.963098,354.2597,108.615619)"/>
<use data-text="a" xlink:href="#font_1_28" transform="matrix(9.963197,0,0,-9.963098,359.79927,108.615619)"/>
<use data-text="y" xlink:href="#font_1_118" transform="matrix(9.963197,0,0,-9.963098,364.50187,108.615619)"/>
<path transform="matrix(1.00006,0,0,-1.00005,216.86746,98.1811)" stroke-width=".3985" stroke-linecap="butt" stroke-miterlimit="10" stroke-linejoin="miter" fill="none" stroke="#000000" d="M0-75.7848V75.7848"/>
<path transform="matrix(0,1.00005,1.00006,0,216.86746,173.96968)" d="M3.58653 0C2.52383 .19925 .797 .797-.3985 1.49438V-1.49438C.797-.797 2.52383-.19925 3.58653 0"/>
<path transform="matrix(0,-1.00005,-1.00006,-0,216.86746,22.392518)" d="M3.58653 0C2.52383 .19925 .797 .797-.3985 1.49438V-1.49438C.797-.797 2.52383-.19925 3.58653 0"/>
<use data-text="c" xlink:href="#font_1_43" transform="matrix(9.963197,0,0,-9.963098,220.38768,13.233856)"/>
<use data-text="h" xlink:href="#font_1_63" transform="matrix(9.963197,0,0,-9.963098,224.53237,13.233856)"/>
<use data-text="a" xlink:href="#font_1_28" transform="matrix(9.963197,0,0,-9.963098,230.07192,13.233856)"/>
<use data-text="n" xlink:href="#font_1_77" transform="matrix(9.963197,0,0,-9.963098,235.05352,13.233856)"/>
<use data-text="g" xlink:href="#font_1_59" transform="matrix(9.963197,0,0,-9.963098,240.59307,13.233856)"/>
<use data-text="e" xlink:href="#font_1_50" transform="matrix(9.963197,0,0,-9.963098,245.57466,13.233856)"/>
<use data-text="i" xlink:href="#font_1_66" transform="matrix(9.963197,0,0,-9.963098,253.3061,13.233856)"/>
<use data-text="n" xlink:href="#font_1_77" transform="matrix(9.963197,0,0,-9.963098,256.07588,13.233856)"/>
<use data-text="c" xlink:href="#font_1_43" transform="matrix(9.963197,0,0,-9.963098,264.93318,13.233856)"/>
<use data-text="o" xlink:href="#font_1_81" transform="matrix(9.963197,0,0,-9.963098,269.3568,13.233856)"/>
<use data-text="s" xlink:href="#font_1_98" transform="matrix(9.963197,0,0,-9.963098,274.33839,13.233856)"/>
<use data-text="t" xlink:href="#font_1_105" transform="matrix(9.963197,0,0,-9.963098,278.26393,13.233856)"/>
<path transform="matrix(1.00006,0,0,-1.00005,216.86746,98.1811)" d="M12.51749-86.62903H23.76638V-74.209499H12.51749Z" fill="#ffffff"/>
<use data-text="1" xlink:href="#font_3_2" transform="matrix(8.966938,0,0,-8.966848,232.70642,181.49326)"/>
<path transform="matrix(1.00006,0,0,-1.00005,216.86746,98.1811)" d="M30.65942-86.62903H41.90831V-74.209499H30.65942Z" fill="#ffffff"/>
<use data-text="2" xlink:href="#font_3_3" transform="matrix(8.966938,0,0,-8.966848,250.8495,181.49326)"/>
<path transform="matrix(1.00006,0,0,-1.00005,216.86746,98.1811)" d="M48.80136-86.62903H60.05025V-74.209499H48.80136Z" fill="#ffffff"/>
<use data-text="3" xlink:href="#font_3_4" transform="matrix(8.966938,0,0,-8.966848,268.99259,181.49326)"/>
<path transform="matrix(1.00006,0,0,-1.00005,216.86746,98.1811)" d="M66.9433-86.62903H78.192188V-74.209499H66.9433Z" fill="#ffffff"/>
<use data-text="4" xlink:href="#font_3_5" transform="matrix(8.966938,0,0,-8.966848,287.13569,181.49326)"/>
<path transform="matrix(1.00006,0,0,-1.00005,216.86746,98.1811)" d="M85.08525-86.62903H96.33414V-74.209499H85.08525Z" fill="#ffffff"/>
<use data-text="5" xlink:href="#font_3_6" transform="matrix(8.966938,0,0,-8.966848,305.27876,181.49326)"/>
<path transform="matrix(1.00006,0,0,-1.00005,216.86746,98.1811)" d="M103.22719-86.62903H114.476078V-74.209499H103.22719Z" fill="#ffffff"/>
<use data-text="6" xlink:href="#font_3_7" transform="matrix(8.966938,0,0,-8.966848,323.42185,181.49326)"/>
<path transform="matrix(1.00006,0,0,-1.00005,216.86746,98.1811)" d="M121.36913-86.62903H132.61803V-74.209499H121.36913Z" fill="#ffffff"/>
<use data-text="7" xlink:href="#font_3_8" transform="matrix(8.966938,0,0,-8.966848,341.56495,181.49326)"/>
<path transform="matrix(1.00006,0,0,-1.00005,216.86746,98.1811)" d="M-20.60829-74.65746H-2.1917992V-61.407735H-20.60829Z" fill="#ffffff"/>
<use data-text="&#x2212;" xlink:href="#font_5_1" transform="matrix(8.966938,0,0,-8.966848,199.57843,168.69162)"/>
<use data-text="3" xlink:href="#font_3_4" transform="matrix(8.966938,0,0,-8.966848,206.74585,168.69162)"/>
<path transform="matrix(1.00006,0,0,-1.00005,216.86746,98.1811)" d="M-20.60829-51.97992H-2.1917992V-38.73019H-20.60829Z" fill="#ffffff"/>
<use data-text="&#x2212;" xlink:href="#font_5_1" transform="matrix(8.966938,0,0,-8.966848,199.57843,146.01248)"/>
<use data-text="2" xlink:href="#font_3_3" transform="matrix(8.966938,0,0,-8.966848,206.74585,146.01248)"/>
<path transform="matrix(1.00006,0,0,-1.00005,216.86746,98.1811)" d="M-20.60829-29.30238H-2.1917992V-16.05265H-20.60829Z" fill="#ffffff"/>
<use data-text="&#x2212;" xlink:href="#font_5_1" transform="matrix(8.966938,0,0,-8.966848,199.57843,123.33436)"/>
<use data-text="1" xlink:href="#font_3_2" transform="matrix(8.966938,0,0,-8.966848,206.74585,123.33436)"/>
<path transform="matrix(1.00006,0,0,-1.00005,216.86746,98.1811)" d="M-13.44069-6.20976H-2.1918V6.2097699H-13.44069Z" fill="#ffffff"/>
<use data-text="0" xlink:href="#font_3_1" transform="matrix(8.966938,0,0,-8.966848,206.74686,101.070247)"/>
<path transform="matrix(1.00006,0,0,-1.00005,216.86746,98.1811)" d="M-13.44069 16.46774H-2.1918V28.887269H-13.44069Z" fill="#ffffff"/>
<use data-text="1" xlink:href="#font_3_2" transform="matrix(8.966938,0,0,-8.966848,206.74686,78.39211)"/>
<path transform="matrix(1.00006,0,0,-1.00005,216.86746,98.1811)" d="M-13.44069 39.14528H-2.1918V51.564809H-13.44069Z" fill="#ffffff"/>
<use data-text="2" xlink:href="#font_3_3" transform="matrix(8.966938,0,0,-8.966848,206.74686,55.71298)"/>
<path transform="matrix(1.00006,0,0,-1.00005,216.86746,98.1811)" d="M-13.44069 61.82281H-2.1918V74.24234H-13.44069Z" fill="#ffffff"/>
<use data-text="3" xlink:href="#font_3_4" transform="matrix(8.966938,0,0,-8.966848,206.74686,33.03485)"/>
<path transform="matrix(1.00006,0,0,-1.00005,216.86746,98.1811)" stroke-width=".09962" stroke-linecap="butt" stroke-miterlimit="10" stroke-linejoin="miter" fill="none" stroke="#000000" d="M18.14192-73.70197V73.70197"/>
<path transform="matrix(1.00006,0,0,-1.00005,216.86746,98.1811)" stroke-width=".09962" stroke-linecap="butt" stroke-miterlimit="10" stroke-linejoin="miter" fill="none" stroke="#000000" d="M36.28386-73.70197V73.70197"/>
<path transform="matrix(1.00006,0,0,-1.00005,216.86746,98.1811)" stroke-width=".09962" stroke-linecap="butt" stroke-miterlimit="10" stroke-linejoin="miter" fill="none" stroke="#000000" d="M54.42581-73.70197V73.70197"/>
<path transform="matrix(1.00006,0,0,-1.00005,216.86746,98.1811)" stroke-width=".09962" stroke-linecap="butt" stroke-miterlimit="10" stroke-linejoin="miter" fill="none" stroke="#000000" d="M72.56775-73.70197V73.70197"/>
<path transform="matrix(1.00006,0,0,-1.00005,216.86746,98.1811)" stroke-width=".09962" stroke-linecap="butt" stroke-miterlimit="10" stroke-linejoin="miter" fill="none" stroke="#000000" d="M90.7097-73.70197V73.70197"/>
<path transform="matrix(1.00006,0,0,-1.00005,216.86746,98.1811)" stroke-width=".09962" stroke-linecap="butt" stroke-miterlimit="10" stroke-linejoin="miter" fill="none" stroke="#000000" d="M108.85162-73.70197V73.70197"/>
<path transform="matrix(1.00006,0,0,-1.00005,216.86746,98.1811)" stroke-width=".09962" stroke-linecap="butt" stroke-miterlimit="10" stroke-linejoin="miter" fill="none" stroke="#000000" d="M126.99356-73.70197V73.70197"/>
</svg>
