<svg xmlns="http://www.w3.org/2000/svg" xmlns:xlink="http://www.w3.org/1999/xlink" xmlns:inkscape="http://www.inkscape.org/namespaces/inkscape" version="1.1" width="207" height="51" viewBox="0 0 207 51">
<defs>
<path id="font_1_1" d="M.36698915 .3996582H.45298768C.47299195 .3996582 .48298646 .3996582 .48298646 .41966249 .48298646 .43066407 .47299195 .43066407 .45599366 .43066407H.37298585L.3939972 .5449524C.397995 .5660095 .4119873 .6370239 .41799928 .6490326 .4269867 .66804507 .44400025 .68307498 .46499635 .68307498 .46899415 .68307498 .49499513 .68307498 .5139923 .66503909 .46998597 .661026 .45999146 .6260376 .45999146 .6110382 .45999146 .58802798 .47799684 .57603457 .49699403 .57603457 .522995 .57603457 .5519867 .5980377 .5519867 .6360321 .5519867 .6820679 .5059967 .7050781 .46499635 .7050781 .43099977 .7050781 .36799623 .68707278 .33799745 .58802798 .33198548 .56700137 .32899476 .5569763 .30499269 .43066407H.23599243C.21699524 .43066407 .20599365 .43066407 .20599365 .4116516 .20599365 .3996582 .21499634 .3996582 .23399353 .3996582H.2999878L.22499085 .0048828127C.20698548-.09207153 .18998719-.18309021 .13798523-.18309021 .13398743-.18309021 .10899353-.18309021 .08999634-.16506958 .13598633-.1620636 .14498902-.12606812 .14498902-.111068729 .14498902-.08807373 .1269989-.07606506 .10798645-.07606506 .08198547-.07606506 .052993776-.09806824 .052993776-.13606262 .052993776-.18109131 .09700012-.20507813 .13798523-.20507813 .19299317-.20507813 .23298645-.14607239 .25099183-.108062747 .2829895-.04508972 .30599977 .07583618 .30699159 .082839969L.36698915 .3996582Z"/>
<path id="font_2_2" d="M.2899933 .4720459C.2979889 .4890442 .29899598 .49705506 .29899598 .5040436 .29899598 .53504946 .2709961 .5590515 .23999024 .5590515 .20199585 .5590515 .18998719 .52804568 .18499756 .51205447L.052993776 .07901001C.051986696 .07701111 .04798889 .06401062 .04798889 .06300354 .04798889 .05101013 .07899475 .041015626 .08699036 .041015626 .09399414 .041015626 .09498596 .043014528 .101989749 .058013917L.2899933 .4720459Z"/>
<path id="font_3_1" d="M.2899933 .35191346C.37199403 .37893678 .42999269 .4490509 .42999269 .52809146 .42999269 .6100464 .34199525 .6660156 .24598694 .6660156 .14498902 .6660156 .068984989 .60606387 .068984989 .53009036 .068984989 .49710084 .09098816 .47808839 .11999512 .47808839 .15098572 .47808839 .17098999 .50009158 .17098999 .5290985 .17098999 .57910159 .12399292 .57910159 .10899353 .57910159 .13999939 .62802127 .20599365 .64100649 .24198914 .64100649 .2829895 .64100649 .33799745 .6190338 .33799745 .5290985 .33799745 .51708987 .33599855 .45906068 .30999757 .4149933 .27999879 .36691285 .24598694 .36390687 .22099304 .36291505 .21299744 .36190797 .18899536 .35990907 .18199158 .35990907 .17399597 .35890199 .16699219 .35791017 .16699219 .3479004 .16699219 .33691407 .17399597 .33691407 .19099427 .33691407H.23498535C.31698609 .33691407 .35398866 .2686615 .35398866 .17037964 .35398866 .034469606 .2849884 .0055389406 .24099732 .0055389406 .19799805 .0055389406 .12298584 .022491456 .08799744 .08137512 .12298584 .07637024 .1539917 .09837341 .1539917 .1363678 .1539917 .17237854 .1269989 .19238281 .09799194 .19238281 .07398987 .19238281 .041992189 .17837525 .041992189 .1343689 .041992189 .043441774 .1349945-.022460938 .24398804-.022460938 .3659973-.022460938 .45700074 .06838989 .45700074 .17037964 .45700074 .252594 .3939972 .33088685 .2899933 .35191346Z"/>
<path id="font_4_1" d="M.40699769 .39465333H.5049896C.5249939 .39465333 .5379944 .39465333 .5379944 .4166565 .5379944 .43066407 .5249939 .43066407 .5069885 .43066407H.4139862C.43699647 .5580139 .44499208 .6040497 .45298768 .63305667 .45799256 .6550598 .47999574 .6760864 .5039978 .6760864 .5049896 .6760864 .5319977 .6760864 .5509949 .6640625 .5099945 .651062 .5069885 .61505129 .5069885 .60905459 .5069885 .5870514 .5239868 .572052 .5469971 .572052 .57398989 .572052 .60398867 .59506228 .60398867 .63305667 .60398867 .6790924 .5549927 .70410159 .5039978 .70410159 .45999146 .70410159 .41099549 .6790924 .38398744 .62905886 .3639984 .5920563 .35598756 .5469818 .33499146 .43066407H.2559967C.23599243 .43066407 .22299195 .43066407 .22299195 .4086609 .22299195 .39465333 .23599243 .39465333 .2539978 .39465333H.32798768C.32699586 .38865663 .2639923 .028869629 .23999024-.078063968 .23498535-.10006714 .21798706-.17610169 .16999817-.17610169 .16899109-.17610169 .14498902-.17610169 .12599182-.1640625 .16699219-.15107727 .16999817-.11506653 .16999817-.109069827 .16999817-.08706665 .15299988-.07206726 .12998963-.07206726 .102996829-.07206726 .07299805-.095077518 .07299805-.1330719 .07299805-.17811585 .11999512-.20410156 .16999817-.20410156 .23399353-.20410156 .27799989-.13807678 .2899933-.11607361 .32598878-.049087526 .34899903 .07385254 .35099793 .08584595L.40699769 .39465333Z"/>
<path id="font_5_1" d="M.3600006 .46505738C.36099244 .46606446 .36999513 .48506166 .36999513 .50006106 .36999513 .5360565 .33799745 .5590515 .30799867 .5590515 .2669983 .5590515 .2559967 .5280609 .25099183 .5130615L.09700012 .080078128C.09298706 .06808472 .09298706 .065078739 .09298706 .064071658 .09298706 .048080446 .1349945 .038085939 .13598633 .038085939 .14498902 .038085939 .14698792 .04307556 .15299988 .05508423L.3600006 .46505738Z"/>
<path id="font_6_1" d="M.35499574 .75C.16499329 .61598208 .114990238 .40397645 .114990238 .25097657 .114990238 .10997009 .15699768-.10902405 .35499574-.24902344 .36299134-.24902344 .375-.24902344 .375-.23703003 .375-.23103333 .37199403-.22903443 .36499024-.22203064 .23199463-.10203552 .18299866 .067977908 .18299866 .24996948 .18299866 .519989 .28599549 .65197756 .36799623 .72598269 .37199403 .7299957 .375 .73298647 .375 .73799136 .375 .75 .36299134 .75 .35499574 .75Z"/>
<path id="font_6_4" d="M.33499146 .63612368C.33499146 .6630554 .33299256 .6640625 .30499269 .6640625 .24099732 .6014404 .1499939 .6004486 .10899353 .6004486V.5644531C.1329956 .5644531 .19898987 .5644531 .2539978 .592453V.08203125C.2539978 .04899597 .2539978 .035995485 .1539917 .035995485H.115997318V0C.13398743 .0009918213 .25698854 .0039978029 .2939911 .0039978029 .32499696 .0039978029 .45098878 .0009918213 .47299195 0V.035995485H.43499757C.33499146 .035995485 .33499146 .04899597 .33499146 .08203125V.63612368Z"/>
<path id="font_6_2" d="M.08999634 .75C.08299255 .75 .070999149 .75 .070999149 .73799136 .070999149 .73298647 .07398987 .7299957 .07998657 .72299197 .1659851 .64398196 .2619934 .5089874 .2619934 .25097657 .2619934 .04197693 .19699097-.11602783 .08898926-.21403504 .07199097-.23103333 .070999149-.23202515 .070999149-.23703003 .070999149-.24203491 .07398987-.24902344 .083999637-.24902344 .09599304-.24902344 .19099427-.18302918 .25698854-.058029176 .30099488 .024978638 .32998658 .13298035 .32998658 .24996948 .32998658 .39097596 .28799439 .60998538 .08999634 .75Z"/>
<path id="font_6_6" d="M.7679901 .3359375C.7829895 .3359375 .80599978 .3359375 .80599978 .3609314 .80599978 .38493348 .7819977 .38493348 .7689972 .38493348H.10699463C.09399414 .38493348 .069992069 .38493348 .069992069 .3609314 .069992069 .3359375 .09298706 .3359375 .10798645 .3359375H.7679901M.7689972 .11602783C.7819977 .11602783 .80599978 .11602783 .80599978 .1400299 .80599978 .16503906 .7829895 .16503906 .7679901 .16503906H.10798645C.09298706 .16503906 .069992069 .16503906 .069992069 .1400299 .069992069 .11602783 .09399414 .11602783 .10699463 .11602783H.7689972Z"/>
<path id="font_2_1" d="M.74398806 .2263794C.7599945 .2263794 .7839966 .2263794 .7839966 .25038148 .7839966 .27539063 .7609863 .27539063 .74398806 .27539063H.147995C.13198853 .27539063 .10798645 .27539063 .10798645 .25138856 .10798645 .2263794 .1309967 .2263794 .147995 .2263794H.74398806Z"/>
<path id="font_7_1" d="M.20298767 .25030519C.20298767 .28430177 .1749878 .30630494 .147995 .30630494 .115997318 .30630494 .09199524 .28030396 .09199524 .25131227 .09199524 .21730042 .11999512 .1953125 .14698792 .1953125 .1789856 .1953125 .20298767 .22129822 .20298767 .25030519Z"/>
<path id="font_8_2" d="M.9229889 .14183045C.9229889 .15382385 .7799988 .37890626 .4889984 .37890626 .19799805 .37890626 .054992677 .15382385 .054992677 .14183045 .054992677 .13583374 .05899048 .13183594 .06498718 .13183594 .070999149 .13183594 .07299805 .13482666 .07699585 .13983155 .101989749 .1748352 .14099121 .2298584 .23899842 .2808838 .27398683 .29888917 .36499024 .33691407 .4889984 .33691407 .5419922 .33691407 .6309967 .3309021 .72698977 .2868805 .83099368 .23886109 .8799896 .1688385 .8999939 .14082337 .9049988 .13482666 .9069977 .13183594 .9129944 .13183594 .9189911 .13183594 .9229889 .13583374 .9229889 .14183045Z"/>
<path id="font_6_5" d="M.15499878 .5588074C.20599365 .5458069 .23599243 .5458069 .2519989 .5458069 .38398744 .5458069 .46199037 .6358032 .46199037 .6508026 .46199037 .6618042 .45498658 .6648102 .44999696 .6648102 .44799806 .6648102 .44599916 .6648102 .44198609 .6618042 .41799928 .6528015 .36499024 .6328125 .29100038 .6328125 .2630005 .6328125 .20999146 .6348114 .14498902 .6598053 .1349945 .6648102 .1329956 .6648102 .13198853 .6648102 .11898804 .6648102 .11898804 .6538086 .11898804 .6378021V.34251405C.11898804 .32548524 .11898804 .3134613 .1349945 .3134613 .14399719 .3134613 .14498902 .3154602 .15499878 .32748414 .19799805 .38259889 .25898744 .390625 .2939911 .390625 .35398866 .390625 .3809967 .34251405 .38598634 .33450318 .4039917 .30143739 .4099884 .26335145 .4099884 .20524597 .4099884 .17524719 .4099884 .116256717 .37998963 .07234192 .35499574 .03640747 .31199647 .012466431 .2630005 .012466431 .19799805 .012466431 .1309967 .04838562 .10598755 .11425781 .14399719 .11125183 .16299439 .13624573 .16299439 .16325379 .16299439 .20625305 .12599182 .21424866 .11299133 .21424866 .11099243 .21424866 .06298828 .21424866 .06298828 .1602478 .06298828 .07034302 .14498902-.01953125 .2649994-.01953125 .3929901-.01953125 .5049896 .07533264 .5049896 .20124817 .5049896 .31445313 .4189911 .41862489 .29499818 .41862489 .25099183 .41862489 .19898987 .4076233 .15499878 .36956788V.5588074Z"/>
<path id="font_6_3" d="M.46299745 .2263794H.7689972C.7819977 .2263794 .80599978 .2263794 .80599978 .25038148 .80599978 .27539063 .7829895 .27539063 .7689972 .27539063H.46299745V.5821533C.46299745 .59513857 .46299745 .6191406 .43899537 .6191406 .4139862 .6191406 .4139862 .5961304 .4139862 .5821533V.27539063H.10699463C.09399414 .27539063 .069992069 .27539063 .069992069 .25138856 .069992069 .2263794 .09298706 .2263794 .10699463 .2263794H.4139862V-.08114624C.4139862-.09416199 .4139862-.11816406 .43798829-.11816406 .46299745-.11816406 .46299745-.09516907 .46299745-.08114624V.2263794Z"/>
<path id="font_8_1" d="M.9229889 .3581543C.9229889 .364151 .9189911 .36816407 .9129944 .36816407 .9069977 .36816407 .9039917 .36515809 .901001 .3601532 .7819977 .20083618 .598999 .17578125 .4889984 .17578125 .3919983 .17578125 .2999878 .19682312 .22898865 .23190308 .13899231 .27799989 .09599304 .33512879 .07499695 .36315919 .070999149 .36816407 .067993167 .36816407 .06498718 .36816407 .05899048 .36816407 .054992677 .364151 .054992677 .3581543 .054992677 .3471527 .19699097 .13378906 .4889984 .13378906 .7809906 .13378906 .9229889 .34614564 .9229889 .3581543Z"/>
</defs>
<path transform="matrix(1.00003,0,0,-1.00005,35.08661,17.0103)" stroke-width="1.19553" stroke-linecap="butt" stroke-miterlimit="10" stroke-linejoin="miter" fill="none" stroke="#000000" d="M5.73854 0H164.3423"/>
<path transform="matrix(-1.00003,-0,0,1.00005,40.82532,17.0103)" d="M5.73854 0C4.0382 .31879 1.27522 1.27522-.6376 2.39105V-2.39105C1.27522-1.27522 4.0382-.31879 5.73854 0"/>
<path transform="matrix(1.00003,0,0,-1.00005,199.43386,17.0103)" d="M5.73854 0C4.0382 .31879 1.27522 1.27522-.6376 2.39105V-2.39105C1.27522-1.27522 4.0382-.31879 5.73854 0"/>
<use data-text="f" xlink:href="#font_1_1" transform="matrix(9.962899,0,0,-9.963098,3.7636719,8.161859)"/>
<use data-text="f" xlink:href="#font_1_1" transform="matrix(9.962899,0,0,-9.963098,1.2175903,36.796289)"/>
<use data-text="&#x2032;" xlink:href="#font_2_2" transform="matrix(6.9740097,0,0,-6.9741489,7.1677629,33.181108)"/>
<use data-text="&#x2032;" xlink:href="#font_2_2" transform="matrix(6.9740097,0,0,-6.9741489,9.462219,33.181108)"/>
<path transform="matrix(1.00003,0,0,-1.00005,35.08661,17.0103)" d="M87.03297 0C87.03297 1.10046 86.1409 1.99255 85.04042 1.99255 83.93996 1.99255 83.04787 1.10046 83.04787 0 83.04787-1.10046 83.93996-1.99255 85.04042-1.99255 86.1409-1.99255 87.03297-1.10046 87.03297 0ZM85.04042 0"/>
<path transform="matrix(1.00003,0,0,-1.00005,35.08661,17.0103)" stroke-width=".3985" stroke-linecap="butt" stroke-miterlimit="10" stroke-linejoin="miter" fill="none" stroke="#000000" d="M87.03297 0C87.03297 1.10046 86.1409 1.99255 85.04042 1.99255 83.93996 1.99255 83.04787 1.10046 83.04787 0 83.04787-1.10046 83.93996-1.99255 85.04042-1.99255 86.1409-1.99255 87.03297-1.10046 87.03297 0ZM85.04042 0"/>
<use data-text="3" xlink:href="#font_3_1" transform="matrix(9.962899,0,0,-9.963098,117.63909,26.950797)"/>
<path transform="matrix(1.00003,0,0,-1.00005,35.08661,17.0103)" stroke-width="1.39478" stroke-linecap="butt" stroke-miterlimit="10" stroke-linejoin="miter" fill="none" stroke="#0000ff" d="M28.3468-9.37808V-21.2601"/>
<path transform="matrix(1.00003,0,0,-1.00005,35.08661,17.0103)" stroke-width=".59776" stroke-linecap="butt" stroke-miterlimit="10" stroke-linejoin="miter" fill="none" stroke="#ffffff" d="M28.3468-9.37808V-21.2601"/>
<path transform="matrix(0,-1.00005,-1.00003,-0,63.434259,26.388848)" d="M2.29138 0-1.37483 1.83311 0 0-1.37483-1.83311" fill="#0000ff"/>
<use data-text="f" xlink:href="#font_4_1" transform="matrix(6.9740097,0,0,-6.9741489,42.002817,47.565828)" fill="#0000ff"/>
<use data-text="&#x2032;" xlink:href="#font_5_1" transform="matrix(4.9814498,0,0,-4.981549,46.668954,44.559679)" fill="#0000ff"/>
<use data-text="&#x2032;" xlink:href="#font_5_1" transform="matrix(4.9814498,0,0,-4.981549,48.860795,44.559679)" fill="#0000ff"/>
<use data-text="(" xlink:href="#font_6_1" transform="matrix(6.9740097,0,0,-6.9741489,51.561105,47.565828)" fill="#0000ff"/>
<use data-text="1" xlink:href="#font_6_4" transform="matrix(6.9740097,0,0,-6.9741489,54.671518,47.565828)" fill="#0000ff"/>
<use data-text=")" xlink:href="#font_6_2" transform="matrix(6.9740097,0,0,-6.9741489,58.639734,47.565828)" fill="#0000ff"/>
<use data-text="=" xlink:href="#font_6_6" transform="matrix(6.9740097,0,0,-6.9741489,64.0167,47.565828)" fill="#0000ff"/>
<use data-text="(" xlink:href="#font_6_1" transform="matrix(6.9740097,0,0,-6.9741489,72.39945,47.565828)" fill="#0000ff"/>
<use data-text="&#x2212;" xlink:href="#font_2_1" transform="matrix(6.9740097,0,0,-6.9741489,75.52383,47.565828)" fill="#0000ff"/>
<use data-text=")" xlink:href="#font_6_2" transform="matrix(6.9740097,0,0,-6.9741489,81.75103,47.565828)" fill="#0000ff"/>
<use data-text="&#x00b7;" xlink:href="#font_7_1" transform="matrix(7.9703395,0,0,-7.970498,60.376367,4.754688)" fill="#0000ff"/>
<use data-text="&#x00b7;" xlink:href="#font_7_1" transform="matrix(7.9703395,0,0,-7.970498,64.13837,4.754688)" fill="#0000ff"/>
<use data-text="&#x2322;" xlink:href="#font_8_2" transform="matrix(11.95556,0,0,-11.955797,57.581285,11.422021)" fill="#0000ff"/>
<path transform="matrix(1.00003,0,0,-1.00005,35.08661,17.0103)" stroke-width="1.39478" stroke-linecap="butt" stroke-miterlimit="10" stroke-linejoin="miter" fill="none" stroke="#0000ff" d="M141.73404-9.37808V-21.2601"/>
<path transform="matrix(1.00003,0,0,-1.00005,35.08661,17.0103)" stroke-width=".59776" stroke-linecap="butt" stroke-miterlimit="10" stroke-linejoin="miter" fill="none" stroke="#ffffff" d="M141.73404-9.37808V-21.2601"/>
<path transform="matrix(0,-1.00005,-1.00003,-0,176.8249,26.388848)" d="M2.29138 0-1.37483 1.83311 0 0-1.37483-1.83311" fill="#0000ff"/>
<use data-text="f" xlink:href="#font_4_1" transform="matrix(6.9740097,0,0,-6.9741489,155.44922,47.565828)" fill="#0000ff"/>
<use data-text="&#x2032;" xlink:href="#font_5_1" transform="matrix(4.9814498,0,0,-4.981549,160.11536,44.559679)" fill="#0000ff"/>
<use data-text="&#x2032;" xlink:href="#font_5_1" transform="matrix(4.9814498,0,0,-4.981549,162.3072,44.559679)" fill="#0000ff"/>
<use data-text="(" xlink:href="#font_6_1" transform="matrix(6.9740097,0,0,-6.9741489,165.0075,47.565828)" fill="#0000ff"/>
<use data-text="5" xlink:href="#font_6_5" transform="matrix(6.9740097,0,0,-6.9741489,168.11792,47.565828)" fill="#0000ff"/>
<use data-text=")" xlink:href="#font_6_2" transform="matrix(6.9740097,0,0,-6.9741489,172.08615,47.565828)" fill="#0000ff"/>
<use data-text="=" xlink:href="#font_6_6" transform="matrix(6.9740097,0,0,-6.9741489,177.4631,47.565828)" fill="#0000ff"/>
<use data-text="(" xlink:href="#font_6_1" transform="matrix(6.9740097,0,0,-6.9741489,185.84586,47.565828)" fill="#0000ff"/>
<use data-text="+" xlink:href="#font_6_3" transform="matrix(6.9740097,0,0,-6.9741489,188.95627,47.565828)" fill="#0000ff"/>
<use data-text=")" xlink:href="#font_6_2" transform="matrix(6.9740097,0,0,-6.9741489,195.07248,47.565828)" fill="#0000ff"/>
<use data-text="&#x00b7;" xlink:href="#font_7_1" transform="matrix(7.9703395,0,0,-7.970498,173.76679,4.754688)" fill="#0000ff"/>
<use data-text="&#x00b7;" xlink:href="#font_7_1" transform="matrix(7.9703395,0,0,-7.970498,177.52878,4.754688)" fill="#0000ff"/>
<use data-text="&#x2323;" xlink:href="#font_8_1" transform="matrix(11.95556,0,0,-11.955797,170.9717,11.422021)" fill="#0000ff"/>
</svg>
