<svg xmlns="http://www.w3.org/2000/svg" xmlns:xlink="http://www.w3.org/1999/xlink" xmlns:inkscape="http://www.inkscape.org/namespaces/inkscape" version="1.1" width="350" height="215" viewBox="0 0 350 215">
<defs>
<path id="font_1_56" d="M.58898928 .20191956C.58898928 .3149109 .49198915 .41992188 .35299684 .41992188 .2899933 .41993714 .23899842 .4039154 .19599915 .37088014V.55107119C.24899292 .53808596 .2939911 .53808596 .30499269 .53808596 .37298585 .53808596 .4229889 .55807498 .44898988 .5720825 .47299195 .5840759 .54100039 .6270752 .54100039 .64904788 .54100039 .6640167 .5299988 .6660156 .5269928 .6660156 .5269928 .6660156 .522995 .6660156 .5119934 .661026 .47399903 .6480408 .4119873 .634079 .34599305 .634079 .2889862 .634079 .23399353 .6440582 .18099976 .6620178 .16999817 .6660156 .1659851 .6660156 .1659851 .6660156 .1519928 .6660156 .1519928 .6540375 .1519928 .6380768V.33789063C.1519928 .3209076 .1519928 .3079071 .17098999 .3079071 .18199158 .3079071 .18299866 .30992127 .19198609 .3209076 .22999573 .36489869 .2829895 .3869171 .35099793 .3869171 .40899659 .3869171 .44099427 .35289 .45498658 .3318634 .47799684 .2978363 .48298646 .25279237 .48298646 .20477295 .48298646 .1627655 .47898866 .10676575 .43998719 .06765747 .394989 .02154541 .33799745 .01852417 .31599427 .01852417 .25099183 .01852417 .17799378 .04660034 .14698792 .10575867 .18899536 .10876465 .20298767 .13876343 .20298767 .16175843 .20298767 .19377136 .1789856 .21777344 .14698792 .21777344 .125 .21777344 .09098816 .20477295 .09098816 .1587677 .09098816 .060638429 .18699646-.022460938 .31799317-.022460938 .46699525-.022537232 .58898928 .07745361 .58898928 .20146179V.20191956Z"/>
<path id="font_1_82" d="M.55400088 0V.04399109H.5039978C.397995 .04399109 .397995 .054977418 .397995 .08596802V.6358185C.397995 .6660156 .394989 .6660156 .3619995 .6660156 .29100038 .6016083 .17999268 .6016083 .1599884 .6016083H.14299011V.5576172H.1599884C.18299866 .5576172 .24798584 .5606079 .30599977 .58561709V.08596802C.30599977 .054977418 .30599977 .04399109 .19999695 .04399109H.1499939V0C.20498657 .0039978029 .2939911 .0039978029 .35198976 .0039978029 .4099884 .0039978029 .49899293 .0039978029 .55400088 0Z"/>
<path id="font_1_121" d="M.6009979 .31976319C.6009979 .3918152 .6009979 .6660156 .33999635 .6660156 .07899475 .6660156 .07899475 .3918152 .07899475 .31976319 .07899475 .2467041 .07899475-.022460938 .33999635-.022460938 .6009979-.022460938 .6009979 .2467041 .6009979 .31976319M.5009918 .33177186C.5009918 .26371766 .5009918 .18266297 .48599244 .12261963 .45999146 .025543213 .37998963 .010528564 .33999635 .010528564 .30299378 .010528564 .21899414 .023544312 .19400025 .12461853 .17999268 .17866516 .1789856 .24971009 .1789856 .33177186 .1789856 .405838 .1789856 .47488404 .19499207 .5319214 .21998596 .6159973 .29699708 .63301089 .33999635 .63301089 .4139862 .63301089 .46699525 .5949707 .4869995 .5249176 .5009918 .47387696 .5009918 .39082337 .5009918 .33177186Z"/>
<path id="font_2_2" d="M.7599945 .69506838C.7599945 .69807437 .7579956 .7050781 .7489929 .7050781 .74598696 .7050781 .7449951 .70407107 .73399356 .69306948L.6639862 .61602786C.6549988 .6300354 .60899356 .7050781 .49798585 .7050781 .2749939 .7050781 .049987794 .48391725 .049987794 .25172425 .049987794 .08659363 .16799927-.022460938 .32099916-.022460938 .4079895-.022460938 .48399354 .017532349 .5369873 .063583377 .6299896 .14564514 .6469879 .2367096 .6469879 .23971558 .6469879 .24972534 .6369934 .24972534 .6349945 .24972534 .6289978 .24972534 .6239929 .24772644 .621994 .23971558 .61299136 .21069336 .58999636 .13963318 .5209961 .081588748 .45199586 .025543213 .3889923 .008529663 .33699037 .008529663 .24699402 .008529663 .14099121 .060577394 .14099121 .21670532 .14099121 .27374269 .1619873 .43588258 .2619934 .55296328 .32299806 .62402346 .4169922 .67407229 .5059967 .67407229 .60798647 .67407229 .6669922 .5970001 .6669922 .48091126 .6669922 .44088746 .6639862 .43988038 .6639862 .4298706 .6639862 .41986085 .6749878 .41986085 .67900088 .41986085 .69200137 .41986085 .69200137 .42185975 .69699099 .43988038L.7599945 .69506838Z"/>
<path id="font_3_7" d="M.68699648 .32714845C.70199587 .32714845 .72099307 .32714845 .72099307 .34713746 .72099307 .36714173 .70199587 .36714173 .6879883 .36714173H.08898926C.07499695 .36714173 .055999757 .36714173 .055999757 .34713746 .055999757 .32714845 .07499695 .32714845 .08999634 .32714845H.68699648M.6879883 .13284302C.70199587 .13284302 .72099307 .13284302 .72099307 .15284729 .72099307 .17285156 .70199587 .17285156 .68699648 .17285156H.08999634C.07499695 .17285156 .055999757 .17285156 .055999757 .15284729 .055999757 .13284302 .07499695 .13284302 .08898926 .13284302H.6879883Z"/>
<path id="font_4_1" d="M.6589966 .23046875C.6759949 .23046875 .69400027 .23046875 .69400027 .25045777 .69400027 .27046205 .6759949 .27046205 .6589966 .27046205H.117996219C.100997928 .27046205 .08299255 .27046205 .08299255 .25045777 .08299255 .23046875 .100997928 .23046875 .117996219 .23046875H.6589966Z"/>
<path id="font_3_3" d="M.45999146 .31976319C.45999146 .39982606 .45498658 .47988893 .41999818 .5539398 .37399293 .65000918 .2919922 .6660156 .25 .6660156 .18998719 .6660156 .116989139 .64001467 .07598877 .54693606 .04399109 .47789 .038986207 .39982606 .038986207 .31976319 .038986207 .24472046 .042999269 .15464783 .083999637 .07859802 .1269989-.0024719239 .19999695-.022460938 .24899292-.022460938 .30299378-.022460938 .3789978-.0014648438 .4229889 .09359741 .45498658 .16265869 .45999146 .2407074 .45999146 .31976319M.24899292-.00047302247C.20999146-.00047302247 .15098572 .024551392 .1329956 .12062073 .12199402 .18066406 .12199402 .2727356 .12199402 .3317871 .12199402 .39582826 .12199402 .46188355 .12998963 .5159149 .14898682 .63500979 .22399903 .64401248 .24899292 .64401248 .28199769 .64401248 .34799195 .6259918 .36698915 .52693179 .3769989 .47088624 .3769989 .39482118 .3769989 .3317871 .3769989 .25672914 .3769989 .18867493 .3659973 .12461853 .35099793 .029556275 .2939911-.00047302247 .24899292-.00047302247Z"/>
<path id="font_2_1" d="M.19198609 .052993776C.19198609 .08198547 .16799927 .10598755 .13899231 .10598755 .10998535 .10598755 .085998538 .08198547 .085998538 .052993776 .085998538 .023986817 .10998535 0 .13899231 0 .16799927 0 .19198609 .023986817 .19198609 .052993776Z"/>
<path id="font_3_5" d="M.44898988 .20022583C.44898988 .3193512 .36698915 .41944886 .25898744 .41944886 .21099854 .41944886 .16799927 .40345765 .13198853 .36842347V.5637665C.1519928 .5577698 .18499756 .55078127 .21699524 .55078127 .33999635 .55078127 .4099884 .6417694 .4099884 .6547699 .4099884 .6607666 .40699769 .6657715 .3999939 .6657715 .39898683 .6657715 .39698792 .6657715 .3919983 .66278079 .37199403 .6537781 .32299806 .6337738 .2559967 .6337738 .21598816 .6337738 .16999817 .6407776 .12298584 .6617737 .114990238 .66477969 .11299133 .66477969 .11099243 .66477969 .100997928 .66477969 .100997928 .6567688 .100997928 .6407776V.34439088C.100997928 .32637025 .100997928 .31835938 .114990238 .31835938 .12199402 .31835938 .12399292 .32136537 .12799073 .32736207 .13899231 .3433838 .17599488 .39746095 .25698854 .39746095 .30899049 .39746095 .33399964 .35139466 .34199525 .33337403 .35798646 .29632569 .3600006 .25727845 .3600006 .20722962 .3600006 .17222595 .3600006 .11222839 .33599855 .07035828 .31199647 .031463624 .2749939 .0055389406 .22898865 .0055389406 .1559906 .0055389406 .09899902 .058380128 .08198547 .11723328 .084991458 .1162262 .08799744 .115234378 .09899902 .115234378 .13198853 .115234378 .14898682 .14022827 .14898682 .16423035 .14898682 .18823242 .13198853 .21322632 .09899902 .21322632 .084991458 .21322632 .049987794 .20622254 .049987794 .16023255 .049987794 .07434082 .11898804-.022460938 .23098755-.022460938 .34700013-.022460938 .44898988 .073349 .44898988 .20022583Z"/>
<path id="font_2_3" d="M.33399964 .30233766C.33999635 .32835389 .36299134 .42037965 .43299867 .42037965 .43798829 .42037965 .46199037 .42037965 .48298646 .40734864 .45498658 .402359 .43499757 .37734986 .43499757 .35334779 .43499757 .33735658 .44599916 .31835938 .47299195 .31835938 .49499513 .31835938 .5269928 .3363495 .5269928 .37635804 .5269928 .42837525 .46798707 .4423828 .43399049 .4423828 .37599183 .4423828 .34098817 .38935853 .32899476 .36634828 .3039856 .43237306 .25 .4423828 .22099304 .4423828 .116989139 .4423828 .05999756 .3133545 .05999756 .28834535 .05999756 .27833558 .069992069 .27833558 .07199097 .27833558 .07998657 .27833558 .08299255 .28033448 .084991458 .28933717 .11898804 .39535523 .18499756 .42037965 .21899414 .42037965 .23799134 .42037965 .272995 .4113617 .272995 .35334779 .272995 .32235719 .2559967 .25532533 .21899414 .11528015 .20298767 .053268434 .16799927 .011245728 .12399292 .011245728 .117996219 .011245728 .09498596 .011245728 .07398987 .024276734 .09899902 .029266358 .12098694 .05027771 .12098694 .07827759 .12098694 .105270389 .09899902 .11328125 .083999637 .11328125 .053985597 .11328125 .0289917 .08728027 .0289917 .055267335 .0289917 .009246826 .07899475-.0107421879 .12298584-.0107421879 .18899536-.0107421879 .22499085 .059280397 .22799683 .0652771 .23999024 .028274537 .27598573-.0107421879 .33599855-.0107421879 .43899537-.0107421879 .49598695 .118270877 .49598695 .14328003 .49598695 .1532898 .4869995 .1532898 .48399354 .1532898 .47499085 .1532898 .47299195 .14929199 .47099305 .14228821 .43798829 .03527832 .36999513 .011245728 .33799745 .011245728 .29899598 .011245728 .2829895 .043273927 .2829895 .07727051 .2829895 .09927368 .2889862 .121276859 .2999878 .16529846L.33399964 .30233766Z"/>
<path id="font_5_2" d="M.5049896 .18203736H.47099305C.46798707 .16001892 .45799256 .100997928 .44499208 .09098816 .43699647 .084991458 .3600006 .084991458 .34599305 .084991458H.1619873C.2669983 .17803955 .3019867 .20603943 .3619995 .25306703 .43598939 .312088 .5049896 .374115 .5049896 .46914674 .5049896 .5900879 .39898683 .6640625 .2709961 .6640625 .14698792 .6640625 .06298828 .57710269 .06298828 .4851532 .06298828 .43414308 .10598755 .42915345 .115997318 .42915345 .13999939 .42915345 .16899109 .44615174 .16899109 .48214723 .16899109 .5001526 .1619873 .53515627 .10998535 .53515627 .14099121 .6060791 .20899964 .62805178 .2559967 .62805178 .35598756 .62805178 .4079895 .5501404 .4079895 .46914674 .4079895 .38212586 .34599305 .3130951 .31399537 .27708436L.07299805 .038986207C.06298828 .02999878 .06298828 .027999878 .06298828 0H.47499085L.5049896 .18203736Z"/>
<path id="font_3_2" d="M.40899659 .23046875H.6879883C.70199587 .23046875 .72099307 .23046875 .72099307 .25045777 .72099307 .27046205 .70199587 .27046205 .6879883 .27046205H.40899659V.5500183C.40899659 .56399539 .40899659 .5830078 .3889923 .5830078 .36898805 .5830078 .36898805 .56399539 .36898805 .5500183V.27046205H.08898926C.07499695 .27046205 .055999757 .27046205 .055999757 .25045777 .055999757 .23046875 .07499695 .23046875 .08898926 .23046875H.36898805V-.05000305C.36898805-.06401062 .36898805-.08300781 .3889923-.08300781 .40899659-.08300781 .40899659-.06401062 .40899659-.05000305V.23046875Z"/>
<path id="font_3_6" d="M.16299439 .4569702C.116989139 .486969 .11299133 .52098086 .11299133 .5379791 .11299133 .598999 .17799378 .64100649 .24899292 .64100649 .32199098 .64100649 .38598634 .58898928 .38598634 .51698306 .38598634 .45996095 .34700013 .4119568 .2869873 .37695313L.16299439 .4569702M.30899049 .36193849C.3809967 .3989563 .42999269 .45095826 .42999269 .51698306 .42999269 .6090088 .34098817 .6660156 .25 .6660156 .1499939 .6660156 .068984989 .59199526 .068984989 .49897767 .068984989 .4809723 .070999149 .43595887 .11299133 .38894654 .12399292 .37695313 .16099549 .35194398 .18598938 .33494569 .12799073 .30592347 .041992189 .24984741 .041992189 .15072632 .041992189 .04458618 .14399719-.022460938 .24899292-.022460938 .3619995-.022460938 .45700074 .06060791 .45700074 .16773987 .45700074 .20379639 .44599916 .24885559 .4079895 .2909088 .3889923 .31193543 .37298585 .3219452 .30899049 .36193849M.20899964 .3199463 .33198548 .24183655C.3600006 .2228241 .40699769 .19277954 .40699769 .13169861 .40699769 .05760193 .33198548 .0055389406 .25 .0055389406 .1639862 .0055389406 .09199524 .067611698 .09199524 .15072632 .09199524 .20880127 .12399292 .27288819 .20899964 .3199463Z"/>
<path id="font_3_4" d="M.2939911 .64004519C.2939911 .66400149 .2939911 .6660156 .2709961 .6660156 .20899964 .60227969 .12098694 .60227969 .08898926 .60227969V.57128909C.10899353 .57128909 .16799927 .57128909 .21998596 .5972748V.07902527C.21998596 .042999269 .21699524 .0309906 .1269989 .0309906H.09498596V0C.12998963 .0029907227 .21699524 .0029907227 .25698854 .0029907227 .29699708 .0029907227 .38398744 .0029907227 .4189911 0V.0309906H.3869934C.29699708 .0309906 .2939911 .041992189 .2939911 .07902527V.64004519Z"/>
<path id="font_6_1" d="M.2899933 .4720459C.2979889 .4890442 .29899598 .49705506 .29899598 .5040436 .29899598 .53504946 .2709961 .5590515 .23999024 .5590515 .20199585 .5590515 .18998719 .52804568 .18499756 .51205447L.052993776 .07901001C.051986696 .07701111 .04798889 .06401062 .04798889 .06300354 .04798889 .05101013 .07899475 .041015626 .08699036 .041015626 .09399414 .041015626 .09498596 .043014528 .101989749 .058013917L.2899933 .4720459Z"/>
<path id="font_7_28" d="M.48298646 .08912659V.14511109H.45799256V.08912659C.45799256 .03112793 .43299867 .025131226 .42199708 .025131226 .3889923 .025131226 .3849945 .070129398 .3849945 .07511902V.27508546C.3849945 .31707765 .3849945 .3560791 .34899903 .39312745 .30999757 .43223573 .2599945 .4482422 .21199036 .4482422 .12998963 .4482422 .06098938 .40115357 .06098938 .335083 .06098938 .30508424 .08099365 .28808595 .10699463 .28808595 .1349945 .28808595 .15299988 .30807496 .15299988 .33407594 .15299988 .3460846 .147995 .37908937 .101989749 .38008119 .1289978 .41519166 .17799378 .426239 .20999146 .426239 .25898744 .426239 .31599427 .38710023 .31599427 .29808045V.26107789C.2649994 .25808717 .19499207 .25508119 .13198853 .22509766 .056991579 .19110108 .03199768 .13911438 .03199768 .09512329 .03199768 .014251709 .1289978-.0107421879 .19198609-.0107421879 .2579956-.0107421879 .3039856 .029251099 .32299806 .07624817 .32699586 .036132814 .35398866-.005859375 .40098573-.005859375 .42199708-.005859375 .48298646 .008132935 .48298646 .08912659M.31599427 .14013672C.31599427 .04525757 .24398804 .011245728 .19898987 .011245728 .1499939 .011245728 .10899353 .04624939 .10899353 .09625244 .10899353 .15124512 .15098572 .23425293 .31599427 .24024964V.14013672Z"/>
<path id="font_7_77" d="M.5349884 0V.0309906C.48298646 .0309906 .45799256 .0309906 .45700074 .061019899V.25221253C.45700074 .3383026 .45700074 .36932374 .42599488 .405365 .4119873 .42237855 .3789978 .4423828 .32099916 .4423828 .24798584 .4423828 .20098877 .39935304 .17298889 .33729554V.4423828L.03199768 .43066407V.3996582C.101989749 .3996582 .10998535 .39266969 .10998535 .34370423V.07595825C.10998535 .0309906 .09899902 .0309906 .03199768 .0309906V0L.14498902 .0029907227 .25698854 0V.0309906C.18998719 .0309906 .1789856 .0309906 .1789856 .07595825V.25978089C.1789856 .36431886 .25 .42037965 .31399537 .42037965 .3769989 .42037965 .3880005 .36631776 .3880005 .30926515V.076034549C.3880005 .0309906 .3769989 .0309906 .30999757 .0309906V0L.4229889 .0029907227 .5349884 0Z"/>
<path id="font_7_47" d="M.5269928 0V.0309906C.45700074 .0309906 .44898988 .038009645 .44898988 .0871582V.69433596L.30499269 .6826172V.6516113C.375 .6516113 .3829956 .64463809 .3829956 .59580996V.38035584C.35398866 .41636659 .31098939 .4423828 .25698854 .4423828 .13899231 .4423828 .033996583 .3443451 .033996583 .21531677 .033996583 .088272098 .13198853-.0107421879 .24598694-.0107421879 .30999757-.0107421879 .35499574 .023254395 .37998963 .055267335V-.0107421879L.5269928 0M.37998963 .117996219C.37998963 .099990848 .37998963 .09799194 .36898805 .08099365 .33898927 .033218385 .2939911 .011245728 .25099183 .011245728 .20599365 .011245728 .16999817 .037216188 .1459961 .075164798 .11999512 .1161499 .116989139 .17320252 .116989139 .21421814 .116989139 .25125123 .11898804 .31129457 .147995 .35632325 .16899109 .38734437 .20698548 .42037965 .26098634 .42037965 .29599 .42037965 .33799745 .405365 .36898805 .3603363 .37998963 .34332276 .37998963 .34132386 .37998963 .32330323V.117996219Z"/>
<path id="font_3_1" d="M.44198609 .69781497C.43499757 .7108154 .43299867 .7158203 .41600038 .7158203 .39898683 .7158203 .39698792 .7108154 .3899994 .69781497L.051986696 .019989014C.04699707 .010986328 .04699707 .008987427 .04699707 .0079956059 .04699707 0 .052993776 0 .068984989 0H.7630005C.7789917 0 .7849884 0 .7849884 .0079956059 .7849884 .008987427 .7849884 .010986328 .7799988 .019989014L.44198609 .69781497M.38398744 .61582949 .6529999 .07598877H.11399841L.38398744 .61582949Z"/>
<path id="font_5_1" d="M.5009918 .6898804C.4909973 .70788577 .48799134 .7128906 .46798707 .7128906 .45599366 .7128906 .44599916 .70988467 .43699647 .6938782L.067993167 .023986817C.06098938 .0129852299 .06098938 .010986328 .06098938 .009994507 .06098938 0 .068984989 0 .084991458 0H.85198977C.8679962 0 .8759918 0 .8759918 .009994507 .8759918 .010986328 .8759918 .0129852299 .86898806 .023986817L.5009918 .6898804M.43499757 .6148987 .72898867 .08198547H.14099121L.43499757 .6148987Z"/>
<path id="font_8_1" d="M.84298709 .6901245C.84298709 .69511416 .83999636 .703125 .8299866 .703125 .82299807 .703125 .82099917 .70111086 .81199648 .69111636L.7389984 .61413577C.7299957 .62612918 .673996 .703125 .5509949 .703125 .30799867 .703125 .069992069 .48820497 .069992069 .2623291 .069992069 .09941101 .19799805-.01953125 .3769989-.01953125 .43099977-.01953125 .5269928-.008544922 .6299896 .078430179 .70899966 .14538574 .73098757 .23234558 .73098757 .24034119 .73098757 .25334168 .71899417 .25334168 .71398928 .25334168 .70098879 .25334168 .69898989 .24833679 .69599917 .23735047 .6549988 .10041809 .5149994 .016464234 .3939972 .016464234 .28799439 .016464234 .16999817 .07342529 .16999817 .23135376 .16999817 .2603302 .1769867 .4182434 .2919922 .5441742 .36099244 .6211395 .46598817 .66711428 .5609894 .66711428 .6769867 .66711428 .7449951 .5831604 .7449951 .47122193 .7449951 .4432373 .74198916 .43623353 .74198916 .43023683 .74198916 .4172516 .7549896 .4172516 .7599945 .4172516 .776001 .4172516 .776001 .4202423 .7809906 .4392395L.84298709 .6901245Z"/>
<path id="font_8_2" d="M.24899292 .10601807C.23899842 .072021488 .20599365 .018234253 .15499878 .018234253 .1519928 .018234253 .12199402 .018234253 .100997928 .03215027 .14199829 .04508972 .14498902 .08100891 .14498902 .087020877 .14498902 .10900879 .12799073 .12402344 .10499573 .12402344 .07699585 .12402344 .04798889 .10002136 .04798889 .0630188 .04798889 .01322937 .10398865-.009765625 .15299988-.009765625 .19898987-.009765625 .23999024 .019226075 .2649994 .061019899 .2889862 .008224487 .34399415-.009765625 .38398744-.009765625 .49899293-.009765625 .55999758 .11502075 .55999758 .14305115 .55999758 .15608216 .5469971 .15608216 .5439911 .15608216 .5299988 .15608216 .5289917 .15107727 .5249939 .13905335 .5039978 .07002258 .44400025 .018234253 .3880005 .018234253 .34799195 .018234253 .32699586 .04508972 .32699586 .08302307 .32699586 .10900879 .35099793 .20018006 .3789978 .31140138 .39898683 .38841249 .44400025 .4133911 .47698976 .4133911 .47898866 .4133911 .5099945 .4133911 .5309906 .39941407 .49899293 .39041139 .4869995 .3624115 .4869995 .34440614 .4869995 .32240296 .5039978 .30740357 .5269928 .30740357 .5499878 .30740357 .58299258 .32640077 .58299258 .3684082 .58299258 .4243927 .5189972 .44140626 .47898866 .44140626 .42900086 .44140626 .3889923 .4084015 .36698915 .3704071 .34899903 .4113922 .30299378 .44140626 .24699402 .44140626 .1349945 .44140626 .070999149 .31840516 .070999149 .2883606 .070999149 .27534486 .084991458 .27534486 .08799744 .27534486 .100997928 .27534486 .101989749 .27934266 .10699463 .29237367 .13198853 .3704071 .19499207 .4133911 .24398804 .4133911 .2769928 .4133911 .3039856 .395401 .3039856 .3474121 .3039856 .32740785 .2919922 .27734376 .2829895 .24327088L.24899292 .10601807Z"/>
</defs>
<path transform="matrix(1.00002,0,0,-1.00003,6.8790895,142.73484)" stroke-width=".79701" stroke-linecap="butt" stroke-miterlimit="10" stroke-linejoin="miter" fill="none" stroke="#000000" d="M-4.76222 0H76.29565"/>
<path transform="matrix(1.00002,0,0,-1.00003,83.17626,142.73484)" d="M4.66248 0C3.28098 .25902 1.0361 1.0361-.51805 1.94269V-1.94269C1.0361-1.0361 3.28098-.25902 4.66248 0"/>
<path transform="matrix(1.00002,0,0,-1.00003,6.8790895,142.73484)" stroke-width=".79701" stroke-linecap="butt" stroke-miterlimit="10" stroke-linejoin="miter" fill="none" stroke="#000000" d="M0-66.20453V137.07157"/>
<path transform="matrix(0,1.00003,1.00002,0,6.8790895,208.94135)" d="M4.66248 0C3.28098 .25902 1.0361 1.0361-.51805 1.94269V-1.94269C1.0361-1.0361 3.28098-.25902 4.66248 0"/>
<path transform="matrix(0,-1.00003,-1.00002,-0,6.8790895,5.659149)" d="M4.66248 0C3.28098 .25902 1.0361 1.0361-.51805 1.94269V-1.94269C1.0361-1.0361 3.28098-.25902 4.66248 0"/>
<path transform="matrix(1.00002,0,0,-1.00003,6.8790895,142.73484)" stroke-width=".3985" stroke-linecap="butt" stroke-miterlimit="10" stroke-linejoin="miter" fill="none" stroke="#000000" d="M23.8112 2.83484V-2.83484"/>
<use data-text="5" xlink:href="#font_1_56" transform="matrix(4.9813997,0,0,-4.9814498,28.99453,152.40712)"/>
<path transform="matrix(1.00002,0,0,-1.00003,6.8790895,142.73484)" stroke-width=".3985" stroke-linecap="butt" stroke-miterlimit="10" stroke-linejoin="miter" fill="none" stroke="#000000" d="M47.62242 2.83484V-2.83484"/>
<use data-text="1" xlink:href="#font_1_82" transform="matrix(4.9813997,0,0,-4.9814498,51.10997,152.40712)"/>
<use data-text="0" xlink:href="#font_1_121" transform="matrix(4.9813997,0,0,-4.9814498,54.502305,152.40712)"/>
<path transform="matrix(1.00002,0,0,-1.00003,6.8790895,142.73484)" stroke-width=".3985" stroke-linecap="butt" stroke-miterlimit="10" stroke-linejoin="miter" fill="none" stroke="#000000" d="M71.43364 2.83484V-2.83484"/>
<use data-text="1" xlink:href="#font_1_82" transform="matrix(4.9813997,0,0,-4.9814498,74.921459,152.40712)"/>
<use data-text="5" xlink:href="#font_1_56" transform="matrix(4.9813997,0,0,-4.9814498,78.31379,152.40712)"/>
<use data-text="C" xlink:href="#font_2_2" transform="matrix(9.962799,0,0,-9.962899,38.679727,32.748529)"/>
<use data-text="C" xlink:href="#font_2_2" transform="matrix(9.962799,0,0,-9.962899,2.251999,67.51557)"/>
<use data-text="=" xlink:href="#font_3_7" transform="matrix(9.962799,0,0,-9.962899,12.85321,67.51557)"/>
<use data-text="&#x2212;" xlink:href="#font_4_1" transform="matrix(9.962799,0,0,-9.962899,23.36943,67.51557)"/>
<use data-text="0" xlink:href="#font_3_3" transform="matrix(9.962799,0,0,-9.962899,31.117585,67.51557)"/>
<use data-text="." xlink:href="#font_2_1" transform="matrix(9.962799,0,0,-9.962899,36.09967,67.51557)"/>
<use data-text="0" xlink:href="#font_3_3" transform="matrix(9.962799,0,0,-9.962899,38.86673,67.51557)"/>
<use data-text="5" xlink:href="#font_3_5" transform="matrix(9.962799,0,0,-9.962899,43.84813,67.51557)"/>
<use data-text="x" xlink:href="#font_2_3" transform="matrix(9.962799,0,0,-9.962899,48.829927,67.51557)"/>
<use data-text="2" xlink:href="#font_5_2" transform="matrix(6.97394,0,0,-6.9740097,54.524049,63.900468)"/>
<use data-text="+" xlink:href="#font_3_2" transform="matrix(9.962799,0,0,-9.962899,61.20717,67.51557)"/>
<use data-text="0" xlink:href="#font_3_3" transform="matrix(9.962799,0,0,-9.962899,71.16,67.51557)"/>
<use data-text="." xlink:href="#font_2_1" transform="matrix(9.962799,0,0,-9.962899,76.151477,67.51557)"/>
<use data-text="8" xlink:href="#font_3_6" transform="matrix(9.962799,0,0,-9.962899,78.91853,67.51557)"/>
<use data-text="x" xlink:href="#font_2_3" transform="matrix(9.962799,0,0,-9.962899,83.90062,67.51557)"/>
<use data-text="&#x2212;" xlink:href="#font_4_1" transform="matrix(9.962799,0,0,-9.962899,91.807788,67.51557)"/>
<use data-text="1" xlink:href="#font_3_4" transform="matrix(9.962799,0,0,-9.962899,101.77098,67.51557)"/>
<g>
<path transform="matrix(1.00002,0,0,-1.00003,6.8790895,142.73484)" d="M4.76222-28.3468V0H-4.76222V-28.3468ZM-4.76222 0" fill="#0000ff" fill-opacity=".3"/>
<path transform="matrix(1.00002,0,0,-1.00003,6.8790895,142.73484)" stroke-width=".3985" stroke-linecap="butt" stroke-miterlimit="10" stroke-linejoin="miter" fill="none" stroke="#000000" stroke-opacity=".3" d="M4.76222-28.3468V0H-4.76222V-28.3468ZM-4.76222 0"/>
</g>
<path transform="matrix(1.00002,0,0,-1.00003,6.8790895,142.73484)" stroke-width=".79701" stroke-linecap="butt" stroke-miterlimit="10" stroke-linejoin="miter" fill="none" stroke="#000000" d="M4.76222-28.3468V0H-4.76222V-28.3468ZM-4.76222 0"/>
<path transform="matrix(1.00002,0,0,-1.00003,6.8790895,142.73484)" d="M3.52272-28.3468C3.52272-26.40125 1.94556-24.82408 0-24.82408-1.94556-24.82408-3.52272-26.40125-3.52272-28.3468-3.52272-30.29237-1.94556-31.86952 0-31.86952 1.94556-31.86952 3.52272-30.29237 3.52272-28.3468ZM0-28.3468" fill="#0000ff"/>
<path transform="matrix(1.00002,0,0,-1.00003,6.8790895,142.73484)" stroke-width=".3985" stroke-linecap="butt" stroke-miterlimit="10" stroke-linejoin="miter" fill="none" stroke="#000000" d="M3.52272-28.3468C3.52272-26.40125 1.94556-24.82408 0-24.82408-1.94556-24.82408-3.52272-26.40125-3.52272-28.3468-3.52272-30.29237-1.94556-31.86952 0-31.86952 1.94556-31.86952 3.52272-30.29237 3.52272-28.3468ZM0-28.3468"/>
<g>
<path transform="matrix(1.00002,0,0,-1.00003,6.8790895,142.73484)" d="M28.57346 49.6069V0H19.04895V49.6069ZM19.04895 0" fill="#0000ff" fill-opacity=".3"/>
<path transform="matrix(1.00002,0,0,-1.00003,6.8790895,142.73484)" stroke-width=".3985" stroke-linecap="butt" stroke-miterlimit="10" stroke-linejoin="miter" fill="none" stroke="#000000" stroke-opacity=".3" d="M28.57346 49.6069V0H19.04895V49.6069ZM19.04895 0"/>
</g>
<path transform="matrix(1.00002,0,0,-1.00003,6.8790895,142.73484)" stroke-width=".79701" stroke-linecap="butt" stroke-miterlimit="10" stroke-linejoin="miter" fill="none" stroke="#000000" d="M28.57346 49.6069V0H19.04895V49.6069ZM19.04895 0"/>
<path transform="matrix(1.00002,0,0,-1.00003,6.8790895,142.73484)" d="M27.33392 49.6069C27.33392 51.55247 25.75676 53.12962 23.8112 53.12962 21.86563 53.12962 20.28848 51.55247 20.28848 49.6069 20.28848 47.66135 21.86563 46.08418 23.8112 46.08418 25.75676 46.08418 27.33392 47.66135 27.33392 49.6069ZM23.8112 49.6069" fill="#0000ff"/>
<path transform="matrix(1.00002,0,0,-1.00003,6.8790895,142.73484)" stroke-width=".3985" stroke-linecap="butt" stroke-miterlimit="10" stroke-linejoin="miter" fill="none" stroke="#000000" d="M27.33392 49.6069C27.33392 51.55247 25.75676 53.12962 23.8112 53.12962 21.86563 53.12962 20.28848 51.55247 20.28848 49.6069 20.28848 47.66135 21.86563 46.08418 23.8112 46.08418 25.75676 46.08418 27.33392 47.66135 27.33392 49.6069ZM23.8112 49.6069"/>
<g>
<path transform="matrix(1.00002,0,0,-1.00003,6.8790895,142.73484)" d="M52.38466 56.69362V0H42.86018V56.69362ZM42.86018 0" fill="#0000ff" fill-opacity=".3"/>
<path transform="matrix(1.00002,0,0,-1.00003,6.8790895,142.73484)" stroke-width=".3985" stroke-linecap="butt" stroke-miterlimit="10" stroke-linejoin="miter" fill="none" stroke="#000000" stroke-opacity=".3" d="M52.38466 56.69362V0H42.86018V56.69362ZM42.86018 0"/>
</g>
<path transform="matrix(1.00002,0,0,-1.00003,6.8790895,142.73484)" stroke-width=".79701" stroke-linecap="butt" stroke-miterlimit="10" stroke-linejoin="miter" fill="none" stroke="#000000" d="M52.38466 56.69362V0H42.86018V56.69362ZM42.86018 0"/>
<path transform="matrix(1.00002,0,0,-1.00003,6.8790895,142.73484)" d="M51.14514 56.69362C51.14514 58.63918 49.568 60.21634 47.62242 60.21634 45.67686 60.21634 44.0997 58.63918 44.0997 56.69362 44.0997 54.74805 45.67686 53.17088 47.62242 53.17088 49.568 53.17088 51.14514 54.74805 51.14514 56.69362ZM47.62242 56.69362" fill="#0000ff"/>
<path transform="matrix(1.00002,0,0,-1.00003,6.8790895,142.73484)" stroke-width=".3985" stroke-linecap="butt" stroke-miterlimit="10" stroke-linejoin="miter" fill="none" stroke="#000000" d="M51.14514 56.69362C51.14514 58.63918 49.568 60.21634 47.62242 60.21634 45.67686 60.21634 44.0997 58.63918 44.0997 56.69362 44.0997 54.74805 45.67686 53.17088 47.62242 53.17088 49.568 53.17088 51.14514 54.74805 51.14514 56.69362ZM47.62242 56.69362"/>
<g>
<path transform="matrix(1.00002,0,0,-1.00003,6.8790895,142.73484)" d="M76.19588-7.08669V0H66.67139V-7.08669ZM66.67139 0" fill="#0000ff" fill-opacity=".3"/>
<path transform="matrix(1.00002,0,0,-1.00003,6.8790895,142.73484)" stroke-width=".3985" stroke-linecap="butt" stroke-miterlimit="10" stroke-linejoin="miter" fill="none" stroke="#000000" stroke-opacity=".3" d="M76.19588-7.08669V0H66.67139V-7.08669ZM66.67139 0"/>
</g>
<path transform="matrix(1.00002,0,0,-1.00003,6.8790895,142.73484)" stroke-width=".79701" stroke-linecap="butt" stroke-miterlimit="10" stroke-linejoin="miter" fill="none" stroke="#000000" d="M76.19588-7.08669V0H66.67139V-7.08669ZM66.67139 0"/>
<path transform="matrix(1.00002,0,0,-1.00003,6.8790895,142.73484)" d="M74.95636-7.08669C74.95636-5.14111 73.3792-3.56396 71.43364-3.56396 69.48807-3.56396 67.9109-5.14111 67.9109-7.08669 67.9109-9.03224 69.48807-10.6094 71.43364-10.6094 73.3792-10.6094 74.95636-9.03224 74.95636-7.08669ZM71.43364-7.08669" fill="#0000ff"/>
<path transform="matrix(1.00002,0,0,-1.00003,6.8790895,142.73484)" stroke-width=".3985" stroke-linecap="butt" stroke-miterlimit="10" stroke-linejoin="miter" fill="none" stroke="#000000" d="M74.95636-7.08669C74.95636-5.14111 73.3792-3.56396 71.43364-3.56396 69.48807-3.56396 67.9109-5.14111 67.9109-7.08669 67.9109-9.03224 69.48807-10.6094 71.43364-10.6094 73.3792-10.6094 74.95636-9.03224 74.95636-7.08669ZM71.43364-7.08669"/>
<path transform="matrix(1.00002,0,0,-1.00003,6.8790895,142.73484)" stroke-width=".79701" stroke-linecap="butt" stroke-miterlimit="10" stroke-linejoin="miter" fill="none" stroke="#0000ff" d="M0-28.3468 2.9764-14.72705 5.95279-2.21458 8.9292 9.19055 11.9056 19.48799 14.882 28.67856 17.8584 36.76138 20.8348 43.73694 23.8112 49.60518 26.7876 54.36612 29.764 58.01978 32.7404 60.56567 35.71681 62.0043 38.6932 62.33563 41.66962 61.55966 44.64601 59.67639 47.62242 56.6858 50.59882 52.58795 53.57521 47.38235 56.55162 41.06946 59.52802 33.64928 62.50443 25.1218 65.48082 15.48701 68.45724 4.7445 71.43364-7.10484"/>
<path transform="matrix(1.00002,0,0,-1.00003,162.2982,142.73484)" stroke-width=".79701" stroke-linecap="butt" stroke-miterlimit="10" stroke-linejoin="miter" fill="none" stroke="#000000" d="M-4.76222 0H76.29565"/>
<path transform="matrix(1.00002,0,0,-1.00003,238.59537,142.73484)" d="M4.66248 0C3.28098 .25902 1.0361 1.0361-.51805 1.94269V-1.94269C1.0361-1.0361 3.28098-.25902 4.66248 0"/>
<path transform="matrix(1.00002,0,0,-1.00003,162.2982,142.73484)" stroke-width=".79701" stroke-linecap="butt" stroke-miterlimit="10" stroke-linejoin="miter" fill="none" stroke="#000000" d="M0-66.20453V137.07157"/>
<path transform="matrix(0,1.00003,1.00002,0,162.2982,208.94135)" d="M4.66248 0C3.28098 .25902 1.0361 1.0361-.51805 1.94269V-1.94269C1.0361-1.0361 3.28098-.25902 4.66248 0"/>
<path transform="matrix(0,-1.00003,-1.00002,-0,162.2982,5.659149)" d="M4.66248 0C3.28098 .25902 1.0361 1.0361-.51805 1.94269V-1.94269C1.0361-1.0361 3.28098-.25902 4.66248 0"/>
<path transform="matrix(1.00002,0,0,-1.00003,162.2982,142.73484)" stroke-width=".3985" stroke-linecap="butt" stroke-miterlimit="10" stroke-linejoin="miter" fill="none" stroke="#000000" d="M23.8112 2.83484V-2.83484"/>
<use data-text="5" xlink:href="#font_1_56" transform="matrix(4.9813997,0,0,-4.9814498,184.41364,152.40712)"/>
<path transform="matrix(1.00002,0,0,-1.00003,162.2982,142.73484)" stroke-width=".3985" stroke-linecap="butt" stroke-miterlimit="10" stroke-linejoin="miter" fill="none" stroke="#000000" d="M47.62242 2.83484V-2.83484"/>
<use data-text="1" xlink:href="#font_1_82" transform="matrix(4.9813997,0,0,-4.9814498,206.52909,152.40712)"/>
<use data-text="0" xlink:href="#font_1_121" transform="matrix(4.9813997,0,0,-4.9814498,209.92142,152.40712)"/>
<path transform="matrix(1.00002,0,0,-1.00003,162.2982,142.73484)" stroke-width=".3985" stroke-linecap="butt" stroke-miterlimit="10" stroke-linejoin="miter" fill="none" stroke="#000000" d="M71.43364 2.83484V-2.83484"/>
<use data-text="1" xlink:href="#font_1_82" transform="matrix(4.9813997,0,0,-4.9814498,230.34058,152.40712)"/>
<use data-text="5" xlink:href="#font_1_56" transform="matrix(4.9813997,0,0,-4.9814498,233.73291,152.40712)"/>
<use data-text="C" xlink:href="#font_2_2" transform="matrix(9.962799,0,0,-9.962899,178.04853,33.03454)"/>
<use data-text="&#x2032;" xlink:href="#font_6_1" transform="matrix(6.97394,0,0,-6.9740097,185.88169,29.419434)"/>
<use data-text="a" xlink:href="#font_7_28" transform="matrix(9.962799,0,0,-9.962899,191.99481,33.03454)"/>
<use data-text="n" xlink:href="#font_7_77" transform="matrix(9.962799,0,0,-9.962899,196.9762,33.03454)"/>
<use data-text="d" xlink:href="#font_7_47" transform="matrix(9.962799,0,0,-9.962899,202.51554,33.03454)"/>
<use data-text="&#x2206;" xlink:href="#font_3_1" transform="matrix(9.962799,0,0,-9.962899,211.37223,33.03454)"/>
<use data-text="C" xlink:href="#font_2_2" transform="matrix(9.962799,0,0,-9.962899,219.67438,33.03454)"/>
<g>
<path transform="matrix(1.00002,0,0,-1.00003,162.2982,142.73484)" d="M28.57346 77.95372V0H19.04895V77.95372ZM19.04895 0" fill="#0000ff" fill-opacity=".3"/>
<path transform="matrix(1.00002,0,0,-1.00003,162.2982,142.73484)" stroke-width=".3985" stroke-linecap="butt" stroke-miterlimit="10" stroke-linejoin="miter" fill="none" stroke="#000000" stroke-opacity=".3" d="M28.57346 77.95372V0H19.04895V77.95372ZM19.04895 0"/>
</g>
<path transform="matrix(1.00002,0,0,-1.00003,162.2982,142.73484)" stroke-width=".79701" stroke-linecap="butt" stroke-miterlimit="10" stroke-linejoin="miter" fill="none" stroke="#000000" d="M28.57346 77.95372V0H19.04895V77.95372ZM19.04895 0"/>
<path transform="matrix(1.00002,0,0,-1.00003,162.2982,142.73484)" d="M27.33392 77.95372C27.33392 79.89928 25.75676 81.47644 23.8112 81.47644 21.86563 81.47644 20.28848 79.89928 20.28848 77.95372 20.28848 76.00815 21.86563 74.43098 23.8112 74.43098 25.75676 74.43098 27.33392 76.00815 27.33392 77.95372ZM23.8112 77.95372" fill="#0000ff"/>
<path transform="matrix(1.00002,0,0,-1.00003,162.2982,142.73484)" stroke-width=".3985" stroke-linecap="butt" stroke-miterlimit="10" stroke-linejoin="miter" fill="none" stroke="#000000" d="M27.33392 77.95372C27.33392 79.89928 25.75676 81.47644 23.8112 81.47644 21.86563 81.47644 20.28848 79.89928 20.28848 77.95372 20.28848 76.00815 21.86563 74.43098 23.8112 74.43098 25.75676 74.43098 27.33392 76.00815 27.33392 77.95372ZM23.8112 77.95372"/>
<g>
<path transform="matrix(1.00002,0,0,-1.00003,162.2982,142.73484)" d="M52.38466 7.08669V0H42.86018V7.08669ZM42.86018 0" fill="#0000ff" fill-opacity=".3"/>
<path transform="matrix(1.00002,0,0,-1.00003,162.2982,142.73484)" stroke-width=".3985" stroke-linecap="butt" stroke-miterlimit="10" stroke-linejoin="miter" fill="none" stroke="#000000" stroke-opacity=".3" d="M52.38466 7.08669V0H42.86018V7.08669ZM42.86018 0"/>
</g>
<path transform="matrix(1.00002,0,0,-1.00003,162.2982,142.73484)" stroke-width=".79701" stroke-linecap="butt" stroke-miterlimit="10" stroke-linejoin="miter" fill="none" stroke="#000000" d="M52.38466 7.08669V0H42.86018V7.08669ZM42.86018 0"/>
<path transform="matrix(1.00002,0,0,-1.00003,162.2982,142.73484)" d="M51.14514 7.08669C51.14514 9.03224 49.568 10.6094 47.62242 10.6094 45.67686 10.6094 44.0997 9.03224 44.0997 7.08669 44.0997 5.14111 45.67686 3.56396 47.62242 3.56396 49.568 3.56396 51.14514 5.14111 51.14514 7.08669ZM47.62242 7.08669" fill="#0000ff"/>
<path transform="matrix(1.00002,0,0,-1.00003,162.2982,142.73484)" stroke-width=".3985" stroke-linecap="butt" stroke-miterlimit="10" stroke-linejoin="miter" fill="none" stroke="#000000" d="M51.14514 7.08669C51.14514 9.03224 49.568 10.6094 47.62242 10.6094 45.67686 10.6094 44.0997 9.03224 44.0997 7.08669 44.0997 5.14111 45.67686 3.56396 47.62242 3.56396 49.568 3.56396 51.14514 5.14111 51.14514 7.08669ZM47.62242 7.08669"/>
<g>
<path transform="matrix(1.00002,0,0,-1.00003,162.2982,142.73484)" d="M76.19588-63.7803V0H66.67139V-63.7803ZM66.67139 0" fill="#0000ff" fill-opacity=".3"/>
<path transform="matrix(1.00002,0,0,-1.00003,162.2982,142.73484)" stroke-width=".3985" stroke-linecap="butt" stroke-miterlimit="10" stroke-linejoin="miter" fill="none" stroke="#000000" stroke-opacity=".3" d="M76.19588-63.7803V0H66.67139V-63.7803ZM66.67139 0"/>
</g>
<path transform="matrix(1.00002,0,0,-1.00003,162.2982,142.73484)" stroke-width=".79701" stroke-linecap="butt" stroke-miterlimit="10" stroke-linejoin="miter" fill="none" stroke="#000000" d="M76.19588-63.7803V0H66.67139V-63.7803ZM66.67139 0"/>
<path transform="matrix(1.00002,0,0,-1.00003,162.2982,142.73484)" d="M74.95636-63.7803C74.95636-61.83473 73.3792-60.25758 71.43364-60.25758 69.48807-60.25758 67.9109-61.83473 67.9109-63.7803 67.9109-65.72586 69.48807-67.30302 71.43364-67.30302 73.3792-67.30302 74.95636-65.72586 74.95636-63.7803ZM71.43364-63.7803" fill="#0000ff"/>
<path transform="matrix(1.00002,0,0,-1.00003,162.2982,142.73484)" stroke-width=".3985" stroke-linecap="butt" stroke-miterlimit="10" stroke-linejoin="miter" fill="none" stroke="#000000" d="M74.95636-63.7803C74.95636-61.83473 73.3792-60.25758 71.43364-60.25758 69.48807-60.25758 67.9109-61.83473 67.9109-63.7803 67.9109-65.72586 69.48807-67.30302 71.43364-67.30302 73.3792-67.30302 74.95636-65.72586 74.95636-63.7803ZM71.43364-63.7803"/>
<path transform="matrix(1.00002,0,0,-1.00003,162.2982,142.73484)" stroke-width=".79701" stroke-linecap="butt" stroke-miterlimit="10" stroke-linejoin="miter" fill="none" stroke="#0000ff" d="M0 22.67752 2.9764 20.90584 5.95279 19.13417 8.9292 17.36249 11.9056 15.59038 14.882 13.81871 17.8584 12.04703 20.8348 10.27536 23.8112 8.50325 26.7876 6.73158 29.764 4.9599 32.7404 3.18823 35.71681 1.41612 38.6932-.35553 41.66962-2.12721 44.64601-3.8989 47.62242-5.67099 50.59882-7.44267 53.57521-9.21434 56.55162-10.98602 59.52802-12.75813 62.50443-14.5298 65.48082-16.30147 68.45724-18.07315 71.43364-19.84526"/>
<use data-text="C" xlink:href="#font_2_2" transform="matrix(9.962799,0,0,-9.962899,126.67349,173.78977)" fill="#0000ff"/>
<use data-text="&#x2032;" xlink:href="#font_6_1" transform="matrix(6.97394,0,0,-6.9740097,134.50666,170.17465)" fill="#0000ff"/>
<use data-text="=" xlink:href="#font_3_7" transform="matrix(9.962799,0,0,-9.962899,140.06879,173.78977)" fill="#0000ff"/>
<use data-text="&#x2212;" xlink:href="#font_4_1" transform="matrix(9.962799,0,0,-9.962899,150.586,173.78977)" fill="#0000ff"/>
<use data-text="0" xlink:href="#font_3_3" transform="matrix(9.962799,0,0,-9.962899,158.33414,173.78977)" fill="#0000ff"/>
<use data-text="." xlink:href="#font_2_1" transform="matrix(9.962799,0,0,-9.962899,163.31623,173.78977)" fill="#0000ff"/>
<use data-text="1" xlink:href="#font_3_4" transform="matrix(9.962799,0,0,-9.962899,166.08329,173.78977)" fill="#0000ff"/>
<use data-text="x" xlink:href="#font_2_3" transform="matrix(9.962799,0,0,-9.962899,171.06436,173.78977)" fill="#0000ff"/>
<use data-text="+" xlink:href="#font_3_2" transform="matrix(9.962799,0,0,-9.962899,178.9725,173.78977)" fill="#0000ff"/>
<use data-text="0" xlink:href="#font_3_3" transform="matrix(9.962799,0,0,-9.962899,188.92536,173.78977)" fill="#0000ff"/>
<use data-text="." xlink:href="#font_2_1" transform="matrix(9.962799,0,0,-9.962899,193.91681,173.78977)" fill="#0000ff"/>
<use data-text="8" xlink:href="#font_3_6" transform="matrix(9.962799,0,0,-9.962899,196.68387,173.78977)" fill="#0000ff"/>
<path transform="matrix(1.00002,0,0,-1.00003,267.53334,142.73484)" stroke-width=".79701" stroke-linecap="butt" stroke-miterlimit="10" stroke-linejoin="miter" fill="none" stroke="#000000" d="M-4.76222 0H76.29565"/>
<path transform="matrix(1.00002,0,0,-1.00003,343.8305,142.73484)" d="M4.66248 0C3.28098 .25902 1.0361 1.0361-.51805 1.94269V-1.94269C1.0361-1.0361 3.28098-.25902 4.66248 0"/>
<path transform="matrix(1.00002,0,0,-1.00003,267.53334,142.73484)" stroke-width=".79701" stroke-linecap="butt" stroke-miterlimit="10" stroke-linejoin="miter" fill="none" stroke="#000000" d="M0-66.20453V137.07157"/>
<path transform="matrix(0,1.00003,1.00002,0,267.53334,208.94135)" d="M4.66248 0C3.28098 .25902 1.0361 1.0361-.51805 1.94269V-1.94269C1.0361-1.0361 3.28098-.25902 4.66248 0"/>
<path transform="matrix(0,-1.00003,-1.00002,-0,267.53334,5.659149)" d="M4.66248 0C3.28098 .25902 1.0361 1.0361-.51805 1.94269V-1.94269C1.0361-1.0361 3.28098-.25902 4.66248 0"/>
<path transform="matrix(1.00002,0,0,-1.00003,267.53334,142.73484)" stroke-width=".3985" stroke-linecap="butt" stroke-miterlimit="10" stroke-linejoin="miter" fill="none" stroke="#000000" d="M23.8112 2.83484V-2.83484"/>
<use data-text="5" xlink:href="#font_1_56" transform="matrix(4.9813997,0,0,-4.9814498,289.64878,152.40712)"/>
<path transform="matrix(1.00002,0,0,-1.00003,267.53334,142.73484)" stroke-width=".3985" stroke-linecap="butt" stroke-miterlimit="10" stroke-linejoin="miter" fill="none" stroke="#000000" d="M47.62242 2.83484V-2.83484"/>
<use data-text="1" xlink:href="#font_1_82" transform="matrix(4.9813997,0,0,-4.9814498,311.76423,152.40712)"/>
<use data-text="0" xlink:href="#font_1_121" transform="matrix(4.9813997,0,0,-4.9814498,315.15657,152.40712)"/>
<path transform="matrix(1.00002,0,0,-1.00003,267.53334,142.73484)" stroke-width=".3985" stroke-linecap="butt" stroke-miterlimit="10" stroke-linejoin="miter" fill="none" stroke="#000000" d="M71.43364 2.83484V-2.83484"/>
<use data-text="1" xlink:href="#font_1_82" transform="matrix(4.9813997,0,0,-4.9814498,335.57569,152.40712)"/>
<use data-text="5" xlink:href="#font_1_56" transform="matrix(4.9813997,0,0,-4.9814498,338.96803,152.40712)"/>
<use data-text="C" xlink:href="#font_2_2" transform="matrix(9.962799,0,0,-9.962899,286.16273,60.31835)"/>
<use data-text="&#x2032;" xlink:href="#font_6_1" transform="matrix(6.97394,0,0,-6.9740097,293.9969,56.703248)"/>
<use data-text="a" xlink:href="#font_7_28" transform="matrix(9.962799,0,0,-9.962899,300.109,60.31835)"/>
<use data-text="n" xlink:href="#font_7_77" transform="matrix(9.962799,0,0,-9.962899,305.0904,60.31835)"/>
<use data-text="d" xlink:href="#font_7_47" transform="matrix(9.962799,0,0,-9.962899,310.6297,60.31835)"/>
<use data-text="&#x2206;" xlink:href="#font_5_1" transform="matrix(6.97394,0,0,-6.9740097,320.68244,56.39624)"/>
<use data-text="C" xlink:href="#font_8_1" transform="matrix(6.97394,0,0,-6.9740097,327.22755,56.39624)"/>
<path transform="matrix(1.00002,0,0,-1.00003,-128.3726,-67.422489)" stroke-width=".3985" stroke-linecap="butt" stroke-miterlimit="10" stroke-linejoin="miter" fill="none" stroke="#000000" d="M449.046-125.247H461.794"/>
<use data-text="&#x2206;" xlink:href="#font_5_1" transform="matrix(6.97394,0,0,-6.9740097,321.5254,63.754457)"/>
<use data-text="x" xlink:href="#font_8_2" transform="matrix(6.97394,0,0,-6.9740097,328.06959,63.754457)"/>
<g>
<path transform="matrix(1.00002,0,0,-1.00003,267.53334,142.73484)" d="M28.57346 15.59038V0H19.04895V15.59038ZM19.04895 0" fill="#0000ff" fill-opacity=".3"/>
<path transform="matrix(1.00002,0,0,-1.00003,267.53334,142.73484)" stroke-width=".3985" stroke-linecap="butt" stroke-miterlimit="10" stroke-linejoin="miter" fill="none" stroke="#000000" stroke-opacity=".3" d="M28.57346 15.59038V0H19.04895V15.59038ZM19.04895 0"/>
</g>
<path transform="matrix(1.00002,0,0,-1.00003,267.53334,142.73484)" stroke-width=".79701" stroke-linecap="butt" stroke-miterlimit="10" stroke-linejoin="miter" fill="none" stroke="#000000" d="M28.57346 15.59038V0H19.04895V15.59038ZM19.04895 0"/>
<path transform="matrix(1.00002,0,0,-1.00003,267.53334,142.73484)" d="M27.33392 15.59038C27.33392 17.53595 25.75676 19.1131 23.8112 19.1131 21.86563 19.1131 20.28848 17.53595 20.28848 15.59038 20.28848 13.64482 21.86563 12.06766 23.8112 12.06766 25.75676 12.06766 27.33392 13.64482 27.33392 15.59038ZM23.8112 15.59038" fill="#0000ff"/>
<path transform="matrix(1.00002,0,0,-1.00003,267.53334,142.73484)" stroke-width=".3985" stroke-linecap="butt" stroke-miterlimit="10" stroke-linejoin="miter" fill="none" stroke="#000000" d="M27.33392 15.59038C27.33392 17.53595 25.75676 19.1131 23.8112 19.1131 21.86563 19.1131 20.28848 17.53595 20.28848 15.59038 20.28848 13.64482 21.86563 12.06766 23.8112 12.06766 25.75676 12.06766 27.33392 13.64482 27.33392 15.59038ZM23.8112 15.59038"/>
<g>
<path transform="matrix(1.00002,0,0,-1.00003,267.53334,142.73484)" d="M52.38466 1.41698V0H42.86018V1.41698ZM42.86018 0" fill="#0000ff" fill-opacity=".3"/>
<path transform="matrix(1.00002,0,0,-1.00003,267.53334,142.73484)" stroke-width=".3985" stroke-linecap="butt" stroke-miterlimit="10" stroke-linejoin="miter" fill="none" stroke="#000000" stroke-opacity=".3" d="M52.38466 1.41698V0H42.86018V1.41698ZM42.86018 0"/>
</g>
<path transform="matrix(1.00002,0,0,-1.00003,267.53334,142.73484)" stroke-width=".79701" stroke-linecap="butt" stroke-miterlimit="10" stroke-linejoin="miter" fill="none" stroke="#000000" d="M52.38466 1.41698V0H42.86018V1.41698ZM42.86018 0"/>
<path transform="matrix(1.00002,0,0,-1.00003,267.53334,142.73484)" d="M51.14514 1.41698C51.14514 3.36255 49.568 4.93971 47.62242 4.93971 45.67686 4.93971 44.0997 3.36255 44.0997 1.41698 44.0997-.52856 45.67686-2.10573 47.62242-2.10573 49.568-2.10573 51.14514-.52856 51.14514 1.41698ZM47.62242 1.41698" fill="#0000ff"/>
<path transform="matrix(1.00002,0,0,-1.00003,267.53334,142.73484)" stroke-width=".3985" stroke-linecap="butt" stroke-miterlimit="10" stroke-linejoin="miter" fill="none" stroke="#000000" d="M51.14514 1.41698C51.14514 3.36255 49.568 4.93971 47.62242 4.93971 45.67686 4.93971 44.0997 3.36255 44.0997 1.41698 44.0997-.52856 45.67686-2.10573 47.62242-2.10573 49.568-2.10573 51.14514-.52856 51.14514 1.41698ZM47.62242 1.41698"/>
<g>
<path transform="matrix(1.00002,0,0,-1.00003,267.53334,142.73484)" d="M76.19588-12.75595V0H66.67139V-12.75595ZM66.67139 0" fill="#0000ff" fill-opacity=".3"/>
<path transform="matrix(1.00002,0,0,-1.00003,267.53334,142.73484)" stroke-width=".3985" stroke-linecap="butt" stroke-miterlimit="10" stroke-linejoin="miter" fill="none" stroke="#000000" stroke-opacity=".3" d="M76.19588-12.75595V0H66.67139V-12.75595ZM66.67139 0"/>
</g>
<path transform="matrix(1.00002,0,0,-1.00003,267.53334,142.73484)" stroke-width=".79701" stroke-linecap="butt" stroke-miterlimit="10" stroke-linejoin="miter" fill="none" stroke="#000000" d="M76.19588-12.75595V0H66.67139V-12.75595ZM66.67139 0"/>
<path transform="matrix(1.00002,0,0,-1.00003,267.53334,142.73484)" d="M74.95636-12.75595C74.95636-10.8104 73.3792-9.23323 71.43364-9.23323 69.48807-9.23323 67.9109-10.8104 67.9109-12.75595 67.9109-14.70152 69.48807-16.27869 71.43364-16.27869 73.3792-16.27869 74.95636-14.70152 74.95636-12.75595ZM71.43364-12.75595" fill="#0000ff"/>
<path transform="matrix(1.00002,0,0,-1.00003,267.53334,142.73484)" stroke-width=".3985" stroke-linecap="butt" stroke-miterlimit="10" stroke-linejoin="miter" fill="none" stroke="#000000" d="M74.95636-12.75595C74.95636-10.8104 73.3792-9.23323 71.43364-9.23323 69.48807-9.23323 67.9109-10.8104 67.9109-12.75595 67.9109-14.70152 69.48807-16.27869 71.43364-16.27869 73.3792-16.27869 74.95636-14.70152 74.95636-12.75595ZM71.43364-12.75595"/>
<path transform="matrix(1.00002,0,0,-1.00003,267.53334,142.73484)" stroke-width=".79701" stroke-linecap="butt" stroke-miterlimit="10" stroke-linejoin="miter" fill="none" stroke="#0000ff" d="M0 22.67752 2.9764 20.90584 5.95279 19.13417 8.9292 17.36249 11.9056 15.59038 14.882 13.81871 17.8584 12.04703 20.8348 10.27536 23.8112 8.50325 26.7876 6.73158 29.764 4.9599 32.7404 3.18823 35.71681 1.41612 38.6932-.35553 41.66962-2.12721 44.64601-3.8989 47.62242-5.67099 50.59882-7.44267 53.57521-9.21434 56.55162-10.98602 59.52802-12.75813 62.50443-14.5298 65.48082-16.30147 68.45724-18.07315 71.43364-19.84526"/>
<use data-text="C" xlink:href="#font_2_2" transform="matrix(9.962799,0,0,-9.962899,260.25617,173.78977)" fill="#0000ff"/>
<use data-text="&#x2032;" xlink:href="#font_6_1" transform="matrix(6.97394,0,0,-6.9740097,268.09034,170.17465)" fill="#0000ff"/>
<use data-text="=" xlink:href="#font_3_7" transform="matrix(9.962799,0,0,-9.962899,273.65248,173.78977)" fill="#0000ff"/>
<use data-text="&#x2212;" xlink:href="#font_4_1" transform="matrix(9.962799,0,0,-9.962899,284.1687,173.78977)" fill="#0000ff"/>
<use data-text="0" xlink:href="#font_3_3" transform="matrix(9.962799,0,0,-9.962899,291.91786,173.78977)" fill="#0000ff"/>
<use data-text="." xlink:href="#font_2_1" transform="matrix(9.962799,0,0,-9.962899,296.89894,173.78977)" fill="#0000ff"/>
<use data-text="1" xlink:href="#font_3_4" transform="matrix(9.962799,0,0,-9.962899,299.667,173.78977)" fill="#0000ff"/>
<use data-text="x" xlink:href="#font_2_3" transform="matrix(9.962799,0,0,-9.962899,304.64808,173.78977)" fill="#0000ff"/>
<use data-text="+" xlink:href="#font_3_2" transform="matrix(9.962799,0,0,-9.962899,312.5562,173.78977)" fill="#0000ff"/>
<use data-text="0" xlink:href="#font_3_3" transform="matrix(9.962799,0,0,-9.962899,322.50904,173.78977)" fill="#0000ff"/>
<use data-text="." xlink:href="#font_2_1" transform="matrix(9.962799,0,0,-9.962899,327.5005,173.78977)" fill="#0000ff"/>
<use data-text="8" xlink:href="#font_3_6" transform="matrix(9.962799,0,0,-9.962899,330.26759,173.78977)" fill="#0000ff"/>
</svg>
