<svg xmlns="http://www.w3.org/2000/svg" xmlns:xlink="http://www.w3.org/1999/xlink" xmlns:inkscape="http://www.inkscape.org/namespaces/inkscape" version="1.1" width="201" height="60" viewBox="0 0 201 60">
<path transform="matrix(1.00005,0,0,-1,43.61827,44.321)" stroke-width=".3985" stroke-linecap="butt" stroke-miterlimit="10" stroke-linejoin="miter" fill="none" stroke="#000000" d="M-38.93365 0H152.32089"/>
<path transform="matrix(-1.00005,-0,0,1,4.6826746,44.321)" d="M3.58653 0C2.52383 .19925 .797 .797-.3985 1.49438V-1.49438C.797-.797 2.52383-.19925 3.58653 0"/>
<path transform="matrix(1.00005,0,0,-1,195.94678,44.321)" d="M3.58653 0C2.52383 .19925 .797 .797-.3985 1.49438V-1.49438C.797-.797 2.52383-.19925 3.58653 0"/>
<path transform="matrix(1.00005,0,0,-1,43.61827,44.321)" stroke-width=".3985" stroke-linecap="butt" stroke-miterlimit="10" stroke-linejoin="miter" fill="none" stroke="#000000" d="M0-10.5877V38.93626"/>
<path transform="matrix(0,1,1.00005,0,43.61827,54.9087)" d="M3.58653 0C2.52383 .19925 .797 .797-.3985 1.49438V-1.49438C.797-.797 2.52383-.19925 3.58653 0"/>
<path transform="matrix(0,-1,-1.00005,-0,43.61827,5.384739)" d="M3.58653 0C2.52383 .19925 .797 .797-.3985 1.49438V-1.49438C.797-.797 2.52383-.19925 3.58653 0"/>
<path transform="matrix(1.00005,0,0,-1,43.61827,44.321)" stroke-width=".79701" stroke-linecap="butt" stroke-miterlimit="10" stroke-linejoin="miter" fill="none" stroke="#000000" d="M0 28.34853 2.36208 30.35803 4.72415 32.1413 7.08626 33.708 9.44833 35.06807 11.81044 36.23106 14.17252 37.20709 16.53462 38.00621 18.8967 38.63785 21.25879 39.11198 23.62088 39.43854 25.98297 39.62729 28.34506 39.68793 30.70715 39.63066 33.06924 39.46516 35.43134 39.20105 37.79341 38.84837 40.15552 38.41698 42.5176 37.91672 44.8797 37.3574 47.24178 36.74887 49.60388 36.10098 51.96596 35.4236 54.32805 34.72635 56.69014 34.01927"/>
<path transform="matrix(1.00005,0,0,-1,43.61827,44.321)" d="M2.81807 28.34853C2.81807 29.9049 1.55638 31.1666 0 31.1666-1.55638 31.1666-2.81807 29.9049-2.81807 28.34853-2.81807 26.79213-1.55638 25.53044 0 25.53044 1.55638 25.53044 2.81807 26.79213 2.81807 28.34853ZM0 28.34853" fill="#0000ff"/>
<path transform="matrix(1.00005,0,0,-1,43.61827,44.321)" d="M59.51169 34.01823C59.51169 35.57463 58.25 36.83632 56.69362 36.83632 55.13722 36.83632 53.87553 35.57463 53.87553 34.01823 53.87553 32.46184 55.13722 31.20015 56.69362 31.20015 58.25 31.20015 59.51169 32.46184 59.51169 34.01823ZM56.69362 34.01823" fill="#0000ff"/>
<path transform="matrix(1.00005,0,0,-1,43.61827,44.321)" d="M31.16489 39.68793C31.16489 41.24432 29.9032 42.50601 28.3468 42.50601 26.7904 42.50601 25.52872 41.24432 25.52872 39.68793 25.52872 38.13155 26.7904 36.86986 28.3468 36.86986 29.9032 36.86986 31.16489 38.13155 31.16489 39.68793ZM28.3468 39.68793" fill="#ff0000"/>
</svg>
