<svg xmlns="http://www.w3.org/2000/svg" xmlns:xlink="http://www.w3.org/1999/xlink" xmlns:inkscape="http://www.inkscape.org/namespaces/inkscape" version="1.1" width="286" height="52" viewBox="0 0 286 52">
<defs>
<path id="font_1_1" d="M.1269989 .07699585 .23298645 .18003845C.3889923 .31811524 .44898988 .3721466 .44898988 .47216798 .44898988 .5860901 .35899354 .6660156 .23699951 .6660156 .12399292 .6660156 .049987794 .57411196 .049987794 .48516847 .049987794 .4291687 .099990848 .4291687 .102996829 .4291687 .11999512 .4291687 .15499878 .44117738 .15499878 .48217774 .15499878 .5081787 .13699341 .5341797 .101989749 .5341797 .09399414 .5341797 .09199524 .5341797 .08898926 .5331726 .11199951 .59806826 .1659851 .63500979 .22399903 .63500979 .31498719 .63500979 .35798646 .5541382 .35798646 .47216798 .35798646 .39215089 .30799867 .31311036 .25299073 .25108338L.06098938 .036987306C.049987794 .025985718 .049987794 .023986817 .049987794 0H.42099L.44898988 .17404175H.42399598C.4189911 .14402771 .4119873 .1000061 .4019928 .084991458 .394989 .07699585 .32899476 .07699585 .30699159 .07699585H.1269989Z"/>
<path id="font_2_1" d="M.6589966 .23046875C.6759949 .23046875 .69400027 .23046875 .69400027 .25045777 .69400027 .27046205 .6759949 .27046205 .6589966 .27046205H.117996219C.100997928 .27046205 .08299255 .27046205 .08299255 .25045777 .08299255 .23046875 .100997928 .23046875 .117996219 .23046875H.6589966Z"/>
<path id="font_1_2" d="M.2899933 .35191346C.37199403 .37893678 .42999269 .4490509 .42999269 .52809146 .42999269 .6100464 .34199525 .6660156 .24598694 .6660156 .14498902 .6660156 .068984989 .60606387 .068984989 .53009036 .068984989 .49710084 .09098816 .47808839 .11999512 .47808839 .15098572 .47808839 .17098999 .50009158 .17098999 .5290985 .17098999 .57910159 .12399292 .57910159 .10899353 .57910159 .13999939 .62802127 .20599365 .64100649 .24198914 .64100649 .2829895 .64100649 .33799745 .6190338 .33799745 .5290985 .33799745 .51708987 .33599855 .45906068 .30999757 .4149933 .27999879 .36691285 .24598694 .36390687 .22099304 .36291505 .21299744 .36190797 .18899536 .35990907 .18199158 .35990907 .17399597 .35890199 .16699219 .35791017 .16699219 .3479004 .16699219 .33691407 .17399597 .33691407 .19099427 .33691407H.23498535C.31698609 .33691407 .35398866 .2686615 .35398866 .17037964 .35398866 .034469606 .2849884 .0055389406 .24099732 .0055389406 .19799805 .0055389406 .12298584 .022491456 .08799744 .08137512 .12298584 .07637024 .1539917 .09837341 .1539917 .1363678 .1539917 .17237854 .1269989 .19238281 .09799194 .19238281 .07398987 .19238281 .041992189 .17837525 .041992189 .1343689 .041992189 .043441774 .1349945-.022460938 .24398804-.022460938 .3659973-.022460938 .45700074 .06838989 .45700074 .17037964 .45700074 .252594 .3939972 .33088685 .2899933 .35191346Z"/>
<path id="font_3_1" d="M.40699769 .39465333H.5049896C.5249939 .39465333 .5379944 .39465333 .5379944 .4166565 .5379944 .43066407 .5249939 .43066407 .5069885 .43066407H.4139862C.43699647 .5580139 .44499208 .6040497 .45298768 .63305667 .45799256 .6550598 .47999574 .6760864 .5039978 .6760864 .5049896 .6760864 .5319977 .6760864 .5509949 .6640625 .5099945 .651062 .5069885 .61505129 .5069885 .60905459 .5069885 .5870514 .5239868 .572052 .5469971 .572052 .57398989 .572052 .60398867 .59506228 .60398867 .63305667 .60398867 .6790924 .5549927 .70410159 .5039978 .70410159 .45999146 .70410159 .41099549 .6790924 .38398744 .62905886 .3639984 .5920563 .35598756 .5469818 .33499146 .43066407H.2559967C.23599243 .43066407 .22299195 .43066407 .22299195 .4086609 .22299195 .39465333 .23599243 .39465333 .2539978 .39465333H.32798768C.32699586 .38865663 .2639923 .028869629 .23999024-.078063968 .23498535-.10006714 .21798706-.17610169 .16999817-.17610169 .16899109-.17610169 .14498902-.17610169 .12599182-.1640625 .16699219-.15107727 .16999817-.11506653 .16999817-.109069827 .16999817-.08706665 .15299988-.07206726 .12998963-.07206726 .102996829-.07206726 .07299805-.095077518 .07299805-.1330719 .07299805-.17811585 .11999512-.20410156 .16999817-.20410156 .23399353-.20410156 .27799989-.13807678 .2899933-.11607361 .32598878-.049087526 .34899903 .07385254 .35099793 .08584595L.40699769 .39465333Z"/>
<path id="font_4_1" d="M.3600006 .46505738C.36099244 .46606446 .36999513 .48506166 .36999513 .50006106 .36999513 .5360565 .33799745 .5590515 .30799867 .5590515 .2669983 .5590515 .2559967 .5280609 .25099183 .5130615L.09700012 .080078128C.09298706 .06808472 .09298706 .065078739 .09298706 .064071658 .09298706 .048080446 .1349945 .038085939 .13598633 .038085939 .14498902 .038085939 .14698792 .04307556 .15299988 .05508423L.3600006 .46505738Z"/>
<path id="font_5_1" d="M.35499574 .75C.16499329 .61598208 .114990238 .40397645 .114990238 .25097657 .114990238 .10997009 .15699768-.10902405 .35499574-.24902344 .36299134-.24902344 .375-.24902344 .375-.23703003 .375-.23103333 .37199403-.22903443 .36499024-.22203064 .23199463-.10203552 .18299866 .067977908 .18299866 .24996948 .18299866 .519989 .28599549 .65197756 .36799623 .72598269 .37199403 .7299957 .375 .73298647 .375 .73799136 .375 .75 .36299134 .75 .35499574 .75Z"/>
<path id="font_6_1" d="M.74398806 .2263794C.7599945 .2263794 .7839966 .2263794 .7839966 .25038148 .7839966 .27539063 .7609863 .27539063 .74398806 .27539063H.147995C.13198853 .27539063 .10798645 .27539063 .10798645 .25138856 .10798645 .2263794 .1309967 .2263794 .147995 .2263794H.74398806Z"/>
<path id="font_5_6" d="M.5289917 .1640625V.20005799H.41799928V.64582827C.41799928 .66682437 .41799928 .6738281 .3959961 .6738281 .38398744 .6738281 .37998963 .6738281 .36999513 .65982058L.038986207 .20005799V.1640625H.33299256V.08201599C.33299256 .04800415 .33299256 .035995485 .2519989 .035995485H.22499085V0C.2749939 .0019989014 .33898927 .0039978029 .375 .0039978029 .4119873 .0039978029 .47599793 .0019989014 .526001 0V.035995485H.49899293C.41799928 .035995485 .41799928 .04800415 .41799928 .08201599V.1640625H.5289917M.33999635 .5658722V.20005799H.07598877L.33999635 .5658722Z"/>
<path id="font_5_2" d="M.08999634 .75C.08299255 .75 .070999149 .75 .070999149 .73799136 .070999149 .73298647 .07398987 .7299957 .07998657 .72299197 .1659851 .64398196 .2619934 .5089874 .2619934 .25097657 .2619934 .04197693 .19699097-.11602783 .08898926-.21403504 .07199097-.23103333 .070999149-.23202515 .070999149-.23703003 .070999149-.24203491 .07398987-.24902344 .083999637-.24902344 .09599304-.24902344 .19099427-.18302918 .25698854-.058029176 .30099488 .024978638 .32998658 .13298035 .32998658 .24996948 .32998658 .39097596 .28799439 .60998538 .08999634 .75Z"/>
<path id="font_5_7" d="M.7679901 .3359375C.7829895 .3359375 .80599978 .3359375 .80599978 .3609314 .80599978 .38493348 .7819977 .38493348 .7689972 .38493348H.10699463C.09399414 .38493348 .069992069 .38493348 .069992069 .3609314 .069992069 .3359375 .09298706 .3359375 .10798645 .3359375H.7679901M.7689972 .11602783C.7819977 .11602783 .80599978 .11602783 .80599978 .1400299 .80599978 .16503906 .7829895 .16503906 .7679901 .16503906H.10798645C.09298706 .16503906 .069992069 .16503906 .069992069 .1400299 .069992069 .11602783 .09399414 .11602783 .10699463 .11602783H.7689972Z"/>
<path id="font_2_3" d="M.848999-.12788391C.83200076-.12487793 .8089905-.12287903 .79100039-.12287903 .7709961-.12287903 .7220001-.12487793 .6639862-.14588928 .6569977-.14888 .58299258-.17988587 .58299258-.19587708 .58299258-.20288086 .598999-.21888733 .60598757-.21888733 .6100006-.21888733 .61299136-.21788025 .61898806-.21388245 .69799807-.1618805 .7669983-.1618805 .7919922-.1618805 .8529968-.1618805 .897995-.17788697 .92099-.18888855 .9269867-.19187927 .9299927-.19288635 .93299868-.19288635 .93699648-.19288635 .94299319-.19088745 .94299319-.18287659 .94299319-.18087769 .94299319-.17887879 .9399872-.17088318 .9269867-.14387512 .9119873-.100875858 .9119873-.04185486 .9119873 .00015258789 .91799929 .060180665 .96398928 .13119507 .96798709 .13819885 .96899417 .14019776 .96899417 .14419556 .96899417 .15119934 .9529877 .16720581 .94599917 .16720581 .9319916 .16720581 .9039917 .10519409 .8959961 .08618164 .875 .030166626 .8730011-.017852784 .8730011-.04084778 .8730011-.07286072 .8730011-.0738678 .8779907-.09887695L.09700012 .6813507C.084991458 .6933594 .08299255 .6953583 .07499695 .6953583 .06298828 .6953583 .054992677 .6853485 .054992677 .675354 .054992677 .66734316 .056991579 .66534426 .069992069 .65234377L.848999-.12788391Z"/>
<path id="font_5_4" d="M.5159912 .31925965C.5159912 .42918397 .5029907 .50813296 .45700074 .5780945 .42599488 .62405398 .3639984 .6640625 .28399659 .6640625 .051986696 .6640625 .051986696 .39120484 .051986696 .31925965 .051986696 .2472992 .051986696-.01953125 .28399659-.01953125 .5159912-.01953125 .5159912 .2472992 .5159912 .31925965M.28399659 .008468628C.23799134 .008468628 .1769867 .035446168 .15699768 .117385867 .14299011 .17634583 .14299011 .25830079 .14299011 .33224488 .14299011 .40519715 .14299011 .4811554 .1579895 .53611758 .1789856 .6150665 .24299622 .63604739 .28399659 .63604739 .33799745 .63604739 .3899994 .6030731 .4079895 .545105 .42399598 .4911499 .4249878 .41918946 .4249878 .33224488 .4249878 .25830079 .4249878 .18434143 .4119873 .12138367 .3919983 .030441285 .32398988 .008468628 .28399659 .008468628Z"/>
<path id="font_5_3" d="M.46299745 .2263794H.7689972C.7819977 .2263794 .80599978 .2263794 .80599978 .25038148 .80599978 .27539063 .7829895 .27539063 .7689972 .27539063H.46299745V.5821533C.46299745 .59513857 .46299745 .6191406 .43899537 .6191406 .4139862 .6191406 .4139862 .5961304 .4139862 .5821533V.27539063H.10699463C.09399414 .27539063 .069992069 .27539063 .069992069 .25138856 .069992069 .2263794 .09298706 .2263794 .10699463 .2263794H.4139862V-.08114624C.4139862-.09416199 .4139862-.11816406 .43798829-.11816406 .46299745-.11816406 .46299745-.09516907 .46299745-.08114624V.2263794Z"/>
<path id="font_2_2" d="M.8779907 .59887698C.875 .58187869 .8730011 .55888369 .8730011 .54089358 .8730011 .52090457 .875 .47192384 .8959961 .41394044 .901001 .40193177 .93099978 .33296205 .94599917 .33296205 .9529877 .33296205 .96899417 .34895326 .96899417 .35595704 .96899417 .35995484 .96798709 .36195375 .96398928 .36894227 .9149933 .44493104 .9119873 .50691226 .9119873 .54190066 .9119873 .60287478 .9279938 .6478729 .93899539 .6708679 .94200137 .6768646 .94299319 .6798706 .94299319 .6828613 .94299319 .6908722 .93699648 .6928711 .93299868 .6928711 .93099978 .6928711 .92900088 .6928711 .92099 .6898651 .8939972 .6768646 .84999087 .66186526 .7919922 .66186526 .7630005 .66186526 .69599917 .6628723 .61898806 .7138672 .61299136 .717865 .6100006 .7188721 .60598757 .7188721 .598999 .7188721 .58299258 .7028656 .58299258 .6958618 .58299258 .6818695 .644989 .6538696 .66600039 .645874 .723999 .62387087 .772995 .62286379 .79100039 .62286379 .82299807 .62286379 .82398989 .62286379 .848999 .62786868L.069992069-.15188599C.056991579-.16488648 .054992677-.16688538 .054992677-.17488098 .054992677-.18487549 .06399536-.19488526 .07499695-.19488526 .08299255-.19488526 .084991458-.19288635 .09700012-.18087769L.8779907 .59887698Z"/>
<path id="font_5_5" d="M.272995 .33428956C.35099793 .33428956 .40699769 .2803192 .40699769 .1733551 .40699769 .04940796 .33499146 .012466431 .2769928 .012466431 .23699951 .012466431 .14898682 .0234375 .10699463 .082351688 .1539917 .084350589 .16499329 .11735535 .16499329 .13835144 .16499329 .17034912 .14099121 .19335938 .10998535 .19335938 .08198547 .19335938 .053985597 .17634583 .053985597 .13534546 .053985597 .041412355 .1579895-.01953125 .2789917-.01953125 .41799928-.01953125 .5139923 .07336426 .5139923 .1733551 .5139923 .2513275 .44999696 .32929994 .33999635 .35229493 .44499208 .39024354 .48298646 .4650879 .48298646 .5260773 .48298646 .60505679 .3919983 .6640625 .2809906 .6640625 .16999817 .6640625 .084991458 .61006167 .084991458 .5300751 .084991458 .49606324 .10699463 .47706605 .13699341 .47706605 .16799927 .47706605 .18798828 .5000763 .18798828 .5280762 .18798828 .5570679 .16799927 .57806399 .13699341 .5800781 .17199707 .62405398 .24099732 .63505557 .27799989 .63505557 .32299806 .63505557 .38598634 .6130676 .38598634 .5260773 .38598634 .48406983 .37199403 .43814088 .34599305 .4072113 .31298829 .36927796 .2849884 .3672943 .23498535 .36428834 .20999146 .3623047 .20799256 .3623047 .20298767 .3612976 .20098877 .3612976 .19299317 .3592987 .19299317 .34829713 .19299317 .33428956 .20199585 .33428956 .21899414 .33428956H.272995Z"/>
</defs>
<path transform="matrix(1.00003,0,0,-1.00002,143.23177,18.572112)" stroke-width="1.19553" stroke-linecap="butt" stroke-miterlimit="10" stroke-linejoin="miter" fill="none" stroke="#000000" d="M-135.9955 0H135.9955"/>
<path transform="matrix(-1.00003,-0,0,1.00002,7.2321779,18.572112)" d="M5.73854 0C4.0382 .31879 1.27522 1.27522-.6376 2.39105V-2.39105C1.27522-1.27522 4.0382-.31879 5.73854 0"/>
<path transform="matrix(1.00003,0,0,-1.00002,279.23136,18.572112)" d="M5.73854 0C4.0382 .31879 1.27522 1.27522-.6376 2.39105V-2.39105C1.27522-1.27522 4.0382-.31879 5.73854 0"/>
<path transform="matrix(1.00003,0,0,-1.00002,143.23177,18.572112)" d="M58.68617 0C58.68617 1.10046 57.79408 1.99255 56.69362 1.99255 55.59314 1.99255 54.70107 1.10046 54.70107 0 54.70107-1.10046 55.59314-1.99255 56.69362-1.99255 57.79408-1.99255 58.68617-1.10046 58.68617 0ZM56.69362 0" fill="#ffffff"/>
<path transform="matrix(1.00003,0,0,-1.00002,143.23177,18.572112)" stroke-width=".3985" stroke-linecap="butt" stroke-miterlimit="10" stroke-linejoin="miter" fill="none" stroke="#000000" d="M58.68617 0C58.68617 1.10046 57.79408 1.99255 56.69362 1.99255 55.59314 1.99255 54.70107 1.10046 54.70107 0 54.70107-1.10046 55.59314-1.99255 56.69362-1.99255 57.79408-1.99255 58.68617-1.10046 58.68617 0ZM56.69362 0"/>
<use data-text="2" xlink:href="#font_1_1" transform="matrix(9.962899,0,0,-9.962799,197.4364,28.51231)"/>
<path transform="matrix(1.00003,0,0,-1.00002,143.23177,18.572112)" d="M-83.04787 0C-83.04787 1.10046-83.93996 1.99255-85.04042 1.99255-86.1409 1.99255-87.03297 1.10046-87.03297 0-87.03297-1.10046-86.1409-1.99255-85.04042-1.99255-83.93996-1.99255-83.04787-1.10046-83.04787 0ZM-85.04042 0"/>
<path transform="matrix(1.00003,0,0,-1.00002,143.23177,18.572112)" stroke-width=".3985" stroke-linecap="butt" stroke-miterlimit="10" stroke-linejoin="miter" fill="none" stroke="#000000" d="M-83.04787 0C-83.04787 1.10046-83.93996 1.99255-85.04042 1.99255-86.1409 1.99255-87.03297 1.10046-87.03297 0-87.03297-1.10046-86.1409-1.99255-85.04042-1.99255-83.93996-1.99255-83.04787-1.10046-83.04787 0ZM-85.04042 0"/>
<use data-text="&#x2212;" xlink:href="#font_2_1" transform="matrix(9.962899,0,0,-9.962799,51.82303,28.51231)"/>
<use data-text="3" xlink:href="#font_1_2" transform="matrix(9.962899,0,0,-9.962799,59.571275,28.51231)"/>
<path transform="matrix(1.00003,0,0,-1.00002,143.23177,18.572112)" stroke-width="1.39478" stroke-linecap="butt" stroke-miterlimit="10" stroke-linejoin="miter" fill="none" stroke="#ff0000" d="M-113.38724-9.37808V-21.2601"/>
<path transform="matrix(1.00003,0,0,-1.00002,143.23177,18.572112)" stroke-width=".59776" stroke-linecap="butt" stroke-miterlimit="10" stroke-linejoin="miter" fill="none" stroke="#ffffff" d="M-113.38724-9.37808V-21.2601"/>
<path transform="matrix(0,-1.00002,-1.00003,-0,29.841126,27.950379)" d="M2.29138 0-1.37483 1.83311 0 0-1.37483-1.83311" fill="#ff0000"/>
<use data-text="f" xlink:href="#font_3_1" transform="matrix(6.9740097,0,0,-6.97394,6.3946688,49.126726)" fill="#ff0000"/>
<use data-text="&#x2032;" xlink:href="#font_4_1" transform="matrix(4.9814498,0,0,-4.9813997,11.060822,46.120664)" fill="#ff0000"/>
<use data-text="(" xlink:href="#font_5_1" transform="matrix(6.9740097,0,0,-6.97394,13.755905,49.126726)" fill="#ff0000"/>
<use data-text="&#x2212;" xlink:href="#font_6_1" transform="matrix(6.9740097,0,0,-6.97394,16.869004,49.126726)" fill="#ff0000"/>
<use data-text="4" xlink:href="#font_5_6" transform="matrix(6.9740097,0,0,-6.97394,23.096192,49.126726)" fill="#ff0000"/>
<use data-text=")" xlink:href="#font_5_2" transform="matrix(6.9740097,0,0,-6.97394,27.064408,49.126726)" fill="#ff0000"/>
<use data-text="=" xlink:href="#font_5_7" transform="matrix(6.9740097,0,0,-6.97394,32.441377,49.126726)" fill="#ff0000"/>
<use data-text="(" xlink:href="#font_5_1" transform="matrix(6.9740097,0,0,-6.97394,40.824144,49.126726)" fill="#ff0000"/>
<use data-text="&#x2212;" xlink:href="#font_6_1" transform="matrix(6.9740097,0,0,-6.97394,43.945848,49.126726)" fill="#ff0000"/>
<use data-text=")" xlink:href="#font_5_2" transform="matrix(6.9740097,0,0,-6.97394,50.17302,49.126726)" fill="#ff0000"/>
<use data-text="&#x2198;" xlink:href="#font_2_3" transform="matrix(11.95556,0,0,-11.95544,23.86319,10.221944)" fill="#ff0000"/>
<path transform="matrix(1.00003,0,0,-1.00002,143.23177,18.572112)" stroke-width="1.39478" stroke-linecap="butt" stroke-miterlimit="10" stroke-linejoin="miter" fill="none" stroke="#ff0000" d="M0-9.37808V-21.2601"/>
<path transform="matrix(1.00003,0,0,-1.00002,143.23177,18.572112)" stroke-width=".59776" stroke-linecap="butt" stroke-miterlimit="10" stroke-linejoin="miter" fill="none" stroke="#ffffff" d="M0-9.37808V-21.2601"/>
<path transform="matrix(0,-1.00002,-1.00003,-0,143.23177,27.950379)" d="M2.29138 0-1.37483 1.83311 0 0-1.37483-1.83311" fill="#ff0000"/>
<use data-text="f" xlink:href="#font_3_1" transform="matrix(6.9740097,0,0,-6.97394,122.954158,49.126726)" fill="#ff0000"/>
<use data-text="&#x2032;" xlink:href="#font_4_1" transform="matrix(4.9814498,0,0,-4.9813997,127.62031,46.120664)" fill="#ff0000"/>
<use data-text="(" xlink:href="#font_5_1" transform="matrix(6.9740097,0,0,-6.97394,130.3154,49.126726)" fill="#ff0000"/>
<use data-text="0" xlink:href="#font_5_4" transform="matrix(6.9740097,0,0,-6.97394,133.42581,49.126726)" fill="#ff0000"/>
<use data-text=")" xlink:href="#font_5_2" transform="matrix(6.9740097,0,0,-6.97394,137.39402,49.126726)" fill="#ff0000"/>
<use data-text="=" xlink:href="#font_5_7" transform="matrix(6.9740097,0,0,-6.97394,142.77097,49.126726)" fill="#ff0000"/>
<use data-text="(" xlink:href="#font_5_1" transform="matrix(6.9740097,0,0,-6.97394,151.15375,49.126726)" fill="#ff0000"/>
<use data-text="+" xlink:href="#font_5_3" transform="matrix(6.9740097,0,0,-6.97394,154.26416,49.126726)" fill="#ff0000"/>
<use data-text=")" xlink:href="#font_5_2" transform="matrix(6.9740097,0,0,-6.97394,160.38037,49.126726)" fill="#ff0000"/>
<use data-text="&#x2197;" xlink:href="#font_2_2" transform="matrix(11.95556,0,0,-11.95544,137.25359,10.221944)" fill="#ff0000"/>
<path transform="matrix(1.00003,0,0,-1.00002,143.23177,18.572112)" stroke-width="1.39478" stroke-linecap="butt" stroke-miterlimit="10" stroke-linejoin="miter" fill="none" stroke="#ff0000" d="M85.04042-9.37808V-21.2601"/>
<path transform="matrix(1.00003,0,0,-1.00002,143.23177,18.572112)" stroke-width=".59776" stroke-linecap="butt" stroke-miterlimit="10" stroke-linejoin="miter" fill="none" stroke="#ffffff" d="M85.04042-9.37808V-21.2601"/>
<path transform="matrix(0,-1.00002,-1.00003,-0,228.27475,27.950379)" d="M2.29138 0-1.37483 1.83311 0 0-1.37483-1.83311" fill="#ff0000"/>
<use data-text="f" xlink:href="#font_3_1" transform="matrix(6.9740097,0,0,-6.97394,207.9967,49.126726)" fill="#ff0000"/>
<use data-text="&#x2032;" xlink:href="#font_4_1" transform="matrix(4.9814498,0,0,-4.9813997,212.66287,46.120664)" fill="#ff0000"/>
<use data-text="(" xlink:href="#font_5_1" transform="matrix(6.9740097,0,0,-6.97394,215.35794,49.126726)" fill="#ff0000"/>
<use data-text="3" xlink:href="#font_5_5" transform="matrix(6.9740097,0,0,-6.97394,218.46836,49.126726)" fill="#ff0000"/>
<use data-text=")" xlink:href="#font_5_2" transform="matrix(6.9740097,0,0,-6.97394,222.43659,49.126726)" fill="#ff0000"/>
<use data-text="=" xlink:href="#font_5_7" transform="matrix(6.9740097,0,0,-6.97394,227.81354,49.126726)" fill="#ff0000"/>
<use data-text="(" xlink:href="#font_5_1" transform="matrix(6.9740097,0,0,-6.97394,236.19629,49.126726)" fill="#ff0000"/>
<use data-text="+" xlink:href="#font_5_3" transform="matrix(6.9740097,0,0,-6.97394,239.3067,49.126726)" fill="#ff0000"/>
<use data-text=")" xlink:href="#font_5_2" transform="matrix(6.9740097,0,0,-6.97394,245.42292,49.126726)" fill="#ff0000"/>
<use data-text="&#x2197;" xlink:href="#font_2_2" transform="matrix(11.95556,0,0,-11.95544,222.29715,10.221944)" fill="#ff0000"/>
</svg>
