<svg xmlns="http://www.w3.org/2000/svg" xmlns:xlink="http://www.w3.org/1999/xlink" xmlns:inkscape="http://www.inkscape.org/namespaces/inkscape" version="1.1" width="399" height="258" viewBox="0 0 399 258">
<path transform="matrix(1.00005,0,0,-1.00002,57.791994,200.22669)" stroke-width=".3985" stroke-linecap="butt" stroke-miterlimit="10" stroke-linejoin="miter" fill="none" stroke="#000000" d="M-53.10707 0H336.57518"/>
<path transform="matrix(-1.00005,-0,0,1.00002,4.68227,200.22669)" d="M3.58653 0C2.52383 .19925 .797 .797-.3985 1.49438V-1.49438C.797-.797 2.52383-.19925 3.58653 0"/>
<path transform="matrix(1.00005,0,0,-1.00002,394.38398,200.22669)" d="M3.58653 0C2.52383 .19925 .797 .797-.3985 1.49438V-1.49438C.797-.797 2.52383-.19925 3.58653 0"/>
<path transform="matrix(1.00005,0,0,-1.00002,57.791994,200.22669)" stroke-width=".3985" stroke-linecap="butt" stroke-miterlimit="10" stroke-linejoin="miter" fill="none" stroke="#000000" d="M0-53.10707V194.84113"/>
<path transform="matrix(0,1.00002,1.00005,0,57.791994,253.33483)" d="M3.58653 0C2.52383 .19925 .797 .797-.3985 1.49438V-1.49438C.797-.797 2.52383-.19925 3.58653 0"/>
<path transform="matrix(0,-1.00002,-1.00005,-0,57.791994,5.381653)" d="M3.58653 0C2.52383 .19925 .797 .797-.3985 1.49438V-1.49438C.797-.797 2.52383-.19925 3.58653 0"/>
<path transform="matrix(1.00005,0,0,-1.00002,57.791994,200.22669)" stroke-width=".79701" stroke-linecap="butt" stroke-miterlimit="10" stroke-linejoin="miter" fill="none" stroke="#000000" d="M-28.3468 196.06514-25.54785 173.39798-22.74889 155.39403-19.94994 141.47452-17.15099 131.07846-14.35204 123.66216-11.55307 118.69879-8.75414 115.67752-5.95517 114.10048-3.15622 113.49147-.35725 113.38724 2.44167 113.34007 5.24062 112.91922 8.03958 111.70984 10.83852 109.31401 13.63748 105.35023 16.43643 99.453 19.23538 91.27199 22.03433 80.47282 24.8333 66.73973 27.63225 49.7691 30.4312 29.27805 33.23015 4.99796 36.02911-23.32762 38.82805-55.9306"/>
<path transform="matrix(1.00005,0,0,-1.00002,57.791994,200.22669)" stroke-width=".79701" stroke-linecap="butt" stroke-miterlimit="10" stroke-linejoin="miter" fill="none" stroke="#000000" d="M301.83668-46.0151 301.86955-36.14935 301.9024-26.26758 301.9353-16.38063 301.96818-6.48978 302.00105 3.41661 302.0339 13.31697 302.0668 23.23204 302.09968 33.15315 302.13255 43.06563 302.1654 53.00665 302.1983 62.94032 302.23118 72.88956 302.264 82.8323 302.29689 92.79063 302.32978 102.75328 302.36265 112.72025 302.3955 122.7041 302.42839 132.68016 302.46128 142.67351 302.49415 152.67076 302.527 162.67189 302.55989 172.67694 302.59278 182.6997 302.62565 192.72594"/>
</svg>
