<svg xmlns="http://www.w3.org/2000/svg" xmlns:xlink="http://www.w3.org/1999/xlink" xmlns:inkscape="http://www.inkscape.org/namespaces/inkscape" version="1.1" width="259" height="74" viewBox="0 0 259 74">
<path transform="matrix(1.00003,0,0,-1,44.617776,30.146)" stroke-width=".3985" stroke-linecap="butt" stroke-dasharray=".3985,1.99255" stroke-miterlimit="10" stroke-linejoin="miter" fill="none" stroke="#000000" d="M-42.5202-38.5351V24.3617C-42.5202 26.56264-40.73604 28.3468-38.5351 28.3468H38.5351C40.73604 28.3468 42.5202 26.56264 42.5202 24.3617V-38.5351C42.5202-40.73604 40.73604-42.5202 38.5351-42.5202H-38.5351C-40.73604-42.5202-42.5202-40.73604-42.5202-38.5351ZM42.5202 28.3468"/>
<path transform="matrix(1.00003,0,0,-1,44.617776,30.146)" d="M-5.09413 5.66927C-5.09413 6.76974-5.9862 7.66182-7.08669 7.66182-8.18715 7.66182-9.07924 6.76974-9.07924 5.66927-9.07924 4.5688-8.18715 3.67671-7.08669 3.67671-5.9862 3.67671-5.09413 4.5688-5.09413 5.66927ZM-7.08669 5.66927"/>
<path transform="matrix(1.00003,0,0,-1,44.617776,30.146)" stroke-width=".3985" stroke-linecap="butt" stroke-miterlimit="10" stroke-linejoin="miter" fill="none" stroke="#000000" d="M-5.09413 5.66927C-5.09413 6.76974-5.9862 7.66182-7.08669 7.66182-8.18715 7.66182-9.07924 6.76974-9.07924 5.66927-9.07924 4.5688-8.18715 3.67671-7.08669 3.67671-5.9862 3.67671-5.09413 4.5688-5.09413 5.66927ZM-7.08669 5.66927"/>
<path transform="matrix(1.00003,0,0,-1,44.617776,30.146)" d="M9.07924 5.66927C9.07924 6.76974 8.18715 7.66182 7.08669 7.66182 5.9862 7.66182 5.09413 6.76974 5.09413 5.66927 5.09413 4.5688 5.9862 3.67671 7.08669 3.67671 8.18715 3.67671 9.07924 4.5688 9.07924 5.66927ZM7.08669 5.66927"/>
<path transform="matrix(1.00003,0,0,-1,44.617776,30.146)" stroke-width=".3985" stroke-linecap="butt" stroke-miterlimit="10" stroke-linejoin="miter" fill="none" stroke="#000000" d="M9.07924 5.66927C9.07924 6.76974 8.18715 7.66182 7.08669 7.66182 5.9862 7.66182 5.09413 6.76974 5.09413 5.66927 5.09413 4.5688 5.9862 3.67671 7.08669 3.67671 8.18715 3.67671 9.07924 4.5688 9.07924 5.66927ZM7.08669 5.66927"/>
<path transform="matrix(1.00003,0,0,-1,44.617776,30.146)" stroke-width=".79701" stroke-linecap="butt" stroke-miterlimit="10" stroke-linejoin="miter" fill="none" stroke="#000000" d="M-28.3468 0-25.98471-4.52736-23.62262-8.66112-21.26053-12.40128-18.89844-15.74783-16.53635-18.70033-14.17426-21.25923-11.81216-23.42494-9.45007-25.19662-7.088-26.57469-4.72589-27.55914-2.36382-28.15-.00171-28.3468 2.36034-28.15042 4.72244-27.56044 7.08452-26.57642 9.44661-25.19878 11.8087-23.42754 14.17079-21.26268 16.53288-18.70422 18.89497-15.75217 21.25706-12.40648 23.61916-8.66719 25.98123-4.53384 28.34334-.00691"/>
<path transform="matrix(1.00003,0,0,-1,44.617776,30.146)" stroke-width=".3985" stroke-linecap="butt" stroke-dasharray=".3985,1.99255" stroke-miterlimit="10" stroke-linejoin="miter" fill="none" stroke="#000000" d="M56.69362-38.5351V24.3617C56.69362 26.56264 58.47778 28.3468 60.67873 28.3468H123.57552C125.77646 28.3468 127.56062 26.56264 127.56062 24.3617V-38.5351C127.56062-40.73604 125.77646-42.5202 123.57552-42.5202H60.67873C58.47778-42.5202 56.69362-40.73604 56.69362-38.5351ZM127.56062 28.3468"/>
<path transform="matrix(1.00003,0,0,-1,44.617776,30.146)" d="M89.86783 5.66927C89.86783 6.76974 88.97574 7.66182 87.87527 7.66182 86.7748 7.66182 85.88272 6.76974 85.88272 5.66927 85.88272 4.5688 86.7748 3.67671 87.87527 3.67671 88.97574 3.67671 89.86783 4.5688 89.86783 5.66927ZM87.87527 5.66927"/>
<path transform="matrix(1.00003,0,0,-1,44.617776,30.146)" stroke-width=".3985" stroke-linecap="butt" stroke-miterlimit="10" stroke-linejoin="miter" fill="none" stroke="#000000" d="M89.86783 5.66927C89.86783 6.76974 88.97574 7.66182 87.87527 7.66182 86.7748 7.66182 85.88272 6.76974 85.88272 5.66927 85.88272 4.5688 86.7748 3.67671 87.87527 3.67671 88.97574 3.67671 89.86783 4.5688 89.86783 5.66927ZM87.87527 5.66927"/>
<path transform="matrix(1.00003,0,0,-1,44.617776,30.146)" d="M104.04123 5.66927C104.04123 6.76974 103.14914 7.66182 102.04868 7.66182 100.9482 7.66182 100.05612 6.76974 100.05612 5.66927 100.05612 4.5688 100.9482 3.67671 102.04868 3.67671 103.14914 3.67671 104.04123 4.5688 104.04123 5.66927ZM102.04868 5.66927"/>
<path transform="matrix(1.00003,0,0,-1,44.617776,30.146)" stroke-width=".3985" stroke-linecap="butt" stroke-miterlimit="10" stroke-linejoin="miter" fill="none" stroke="#000000" d="M104.04123 5.66927C104.04123 6.76974 103.14914 7.66182 102.04868 7.66182 100.9482 7.66182 100.05612 6.76974 100.05612 5.66927 100.05612 4.5688 100.9482 3.67671 102.04868 3.67671 103.14914 3.67671 104.04123 4.5688 104.04123 5.66927ZM102.04868 5.66927"/>
<path transform="matrix(1.00003,0,0,-1,44.617776,30.146)" stroke-width=".79701" stroke-linecap="butt" stroke-miterlimit="10" stroke-linejoin="miter" fill="none" stroke="#000000" d="M70.867 0 72.04784-2.31276 73.22867-4.52693 74.4095-6.64247 75.59033-8.65984 76.77115-10.57857 77.95198-12.39912 79.13281-14.12149 80.31364-15.74522 81.49448-17.2708 82.6753-18.69774 83.85612-20.0265 85.03696-21.25662 86.21779-22.38858 87.39862-23.42235 88.57944-24.3575 89.76027-25.19446 90.9411-25.9328 92.12193-26.57253 93.30276-27.1145 94.48358-27.55785 95.66441-27.90259 96.84525-28.14912 98.02608-28.29704 99.20691-28.3468"/>
<path transform="matrix(1.00003,0,0,-1,44.617776,30.146)" stroke-width=".3985" stroke-linecap="butt" stroke-dasharray=".3985,1.99255" stroke-miterlimit="10" stroke-linejoin="miter" fill="none" stroke="#000000" d="M141.73404-38.5351V24.3617C141.73404 26.56264 143.5182 28.3468 145.71915 28.3468H208.61595C210.8169 28.3468 212.60106 26.56264 212.60106 24.3617V-38.5351C212.60106-40.73604 210.8169-42.5202 208.61595-42.5202H145.71915C143.5182-42.5202 141.73404-40.73604 141.73404-38.5351ZM212.60106 28.3468"/>
<path transform="matrix(1.00003,0,0,-1,44.617776,30.146)" d="M169.23856 5.66927C169.23856 6.76974 168.34647 7.66182 167.246 7.66182 166.14553 7.66182 165.25345 6.76974 165.25345 5.66927 165.25345 4.5688 166.14553 3.67671 167.246 3.67671 168.34647 3.67671 169.23856 4.5688 169.23856 5.66927ZM167.246 5.66927"/>
<path transform="matrix(1.00003,0,0,-1,44.617776,30.146)" stroke-width=".3985" stroke-linecap="butt" stroke-miterlimit="10" stroke-linejoin="miter" fill="none" stroke="#000000" d="M169.23856 5.66927C169.23856 6.76974 168.34647 7.66182 167.246 7.66182 166.14553 7.66182 165.25345 6.76974 165.25345 5.66927 165.25345 4.5688 166.14553 3.67671 167.246 3.67671 168.34647 3.67671 169.23856 4.5688 169.23856 5.66927ZM167.246 5.66927"/>
<path transform="matrix(1.00003,0,0,-1,44.617776,30.146)" d="M183.41196 5.66927C183.41196 6.76974 182.51987 7.66182 181.4194 7.66182 180.31893 7.66182 179.42685 6.76974 179.42685 5.66927 179.42685 4.5688 180.31893 3.67671 181.4194 3.67671 182.51987 3.67671 183.41196 4.5688 183.41196 5.66927ZM181.4194 5.66927"/>
<path transform="matrix(1.00003,0,0,-1,44.617776,30.146)" stroke-width=".3985" stroke-linecap="butt" stroke-miterlimit="10" stroke-linejoin="miter" fill="none" stroke="#000000" d="M183.41196 5.66927C183.41196 6.76974 182.51987 7.66182 181.4194 7.66182 180.31893 7.66182 179.42685 6.76974 179.42685 5.66927 179.42685 4.5688 180.31893 3.67671 181.4194 3.67671 182.51987 3.67671 183.41196 4.5688 183.41196 5.66927ZM181.4194 5.66927"/>
<path transform="matrix(1.00003,0,0,-1,44.617776,30.146)" stroke-width=".79701" stroke-linecap="butt" stroke-miterlimit="10" stroke-linejoin="miter" fill="none" stroke="#000000" d="M170.08086-28.3468 171.26166-28.29791 172.44249-28.15042 173.62332-27.9043 174.80416-27.56001 175.98499-27.11708 177.1658-26.57599 178.34664-25.93669 179.52747-25.19878 180.7083-24.36269 181.88913-23.42798 183.06995-22.39508 184.25078-21.26355 185.43161-20.03384 186.61244-18.70595 187.79328-17.27945 188.9741-15.75475 190.15493-14.13144 191.33576-12.4095 192.51659-10.58981 193.69742-8.67151 194.87825-6.65459 196.05907-4.53947 197.2399-2.32574 198.42073-.01382"/>
</svg>
