<svg xmlns="http://www.w3.org/2000/svg" xmlns:xlink="http://www.w3.org/1999/xlink" xmlns:inkscape="http://www.inkscape.org/namespaces/inkscape" version="1.1" width="230" height="174" viewBox="0 0 230 174">
<path transform="matrix(1.00005,0,0,-1.00003,29.761734,86.84113)" stroke-width=".3985" stroke-linecap="butt" stroke-miterlimit="10" stroke-linejoin="miter" fill="none" stroke="#000000" d="M-24.76025 0H194.84113"/>
<path transform="matrix(-1.00005,-0,0,1.00003,5.000248,86.84113)" d="M3.58653 0C2.52383 .19925 .797 .797-.3985 1.49438V-1.49438C.797-.797 2.52383-.19925 3.58653 0"/>
<path transform="matrix(1.00005,0,0,-1.00003,224.6126,86.84113)" d="M3.58653 0C2.52383 .19925 .797 .797-.3985 1.49438V-1.49438C.797-.797 2.52383-.19925 3.58653 0"/>
<path transform="matrix(1.00005,0,0,-1.00003,29.761734,86.84113)" stroke-width=".3985" stroke-linecap="butt" stroke-miterlimit="10" stroke-linejoin="miter" fill="none" stroke="#000000" d="M0-81.45387V81.45387"/>
<path transform="matrix(0,1.00003,1.00005,0,29.761734,168.29746)" d="M3.58653 0C2.52383 .19925 .797 .797-.3985 1.49438V-1.49438C.797-.797 2.52383-.19925 3.58653 0"/>
<path transform="matrix(0,-1.00003,-1.00005,-0,29.761734,5.3848116)" d="M3.58653 0C2.52383 .19925 .797 .797-.3985 1.49438V-1.49438C.797-.797 2.52383-.19925 3.58653 0"/>
<path transform="matrix(1.00005,0,0,-1.00003,29.761734,86.84113)" stroke-width=".3985" stroke-linecap="butt" stroke-dasharray=".3985,1.99255" stroke-miterlimit="10" stroke-linejoin="miter" fill="none" stroke="#000000" d="M-14.17339-85.04042H184.25424M-14.17339-56.69362H184.25424M-14.17339-28.3468H184.25424M-14.17339 0H184.25424M-14.17339 28.3468H184.25424M-14.17339 56.69362H184.25424M-14.17339 85.03047H184.25424M0-85.04042V85.04042M28.3468-85.04042V85.04042M56.69362-85.04042V85.04042M85.04042-85.04042V85.04042M113.38724-85.04042V85.04042M141.73404-85.04042V85.04042M170.08086-85.04042V85.04042M184.25424-85.04042"/>
<path transform="matrix(1.00005,0,0,-1.00003,29.761734,86.84113)" d="M2.98883-28.3468C2.98883-26.69609 1.6507-25.35797 0-25.35797-1.6507-25.35797-2.98883-26.69609-2.98883-28.3468-2.98883-29.99751-1.6507-31.33563 0-31.33563 1.6507-31.33563 2.98883-29.99751 2.98883-28.3468ZM0-28.3468"/>
<path transform="matrix(1.00005,0,0,-1.00003,29.761734,86.84113)" stroke-width=".3985" stroke-linecap="butt" stroke-miterlimit="10" stroke-linejoin="miter" fill="none" stroke="#000000" d="M2.98883-28.3468C2.98883-26.69609 1.6507-25.35797 0-25.35797-1.6507-25.35797-2.98883-26.69609-2.98883-28.3468-2.98883-29.99751-1.6507-31.33563 0-31.33563 1.6507-31.33563 2.98883-29.99751 2.98883-28.3468ZM0-28.3468"/>
<path transform="matrix(1.00005,0,0,-1.00003,29.761734,86.84113)" stroke-width=".79701" stroke-linecap="butt" stroke-miterlimit="10" stroke-linejoin="miter" fill="none" stroke="#000000" d="M0-28.3468 1.1808-28.25078 2.36163-27.97005 3.54247-27.51675 4.7233-26.90428 5.90413-26.14345 7.08495-25.24767 8.26578-24.22903 9.44661-23.09967 10.62744-21.87213 11.80827-20.55809 12.98909-19.1705 14.16992-17.72105 15.35075-16.22232 16.53159-14.68724 17.71242-13.12709 18.89323-11.55524 20.07407-9.98253 21.2549-8.42194 22.43573-6.88686 23.61656-5.3881 24.79738-3.93825 25.97821-2.54979 27.15904-1.23532 28.33987-.00691"/>
<path transform="matrix(1.00005,0,0,-1.00003,29.761734,86.84113)" d="M31.33563 0C31.33563 1.6507 29.99751 2.98883 28.3468 2.98883 26.69609 2.98883 25.35797 1.6507 25.35797 0 25.35797-1.6507 26.69609-2.98883 28.3468-2.98883 29.99751-2.98883 31.33563-1.6507 31.33563 0ZM28.3468 0"/>
<path transform="matrix(1.00005,0,0,-1.00003,29.761734,86.84113)" stroke-width=".3985" stroke-linecap="butt" stroke-miterlimit="10" stroke-linejoin="miter" fill="none" stroke="#000000" d="M31.33563 0C31.33563 1.6507 29.99751 2.98883 28.3468 2.98883 26.69609 2.98883 25.35797 1.6507 25.35797 0 25.35797-1.6507 26.69609-2.98883 28.3468-2.98883 29.99751-2.98883 31.33563-1.6507 31.33563 0ZM28.3468 0"/>
<path transform="matrix(1.00005,0,0,-1.00003,29.761734,86.84113)" stroke-width=".79701" stroke-linecap="butt" stroke-miterlimit="10" stroke-linejoin="miter" fill="none" stroke="#000000" d="M28.3468 0 29.52762 1.2271 30.70845 2.54114 31.88927 3.9296 33.0701 5.37859 34.25093 6.87778 35.43176 8.41328 36.6126 9.973 37.79341 11.54573 38.97424 13.11757 40.15508 14.67816 41.3359 16.21368 42.51674 17.71242 43.69756 19.16228 44.87839 20.54987 46.05922 21.86435 47.24005 23.09189 48.42088 24.2221 49.6017 25.24246 50.78253 26.13826 51.96336 26.8991 53.1442 27.51329 54.32503 27.96703 55.50584 28.24948 56.68668 28.3468"/>
<path transform="matrix(1.00005,0,0,-1.00003,29.761734,86.84113)" d="M59.68245 28.3468C59.68245 29.99751 58.34431 31.33563 56.69362 31.33563 55.04291 31.33563 53.70479 29.99751 53.70479 28.3468 53.70479 26.69609 55.04291 25.35797 56.69362 25.35797 58.34431 25.35797 59.68245 26.69609 59.68245 28.3468ZM56.69362 28.3468"/>
<path transform="matrix(1.00005,0,0,-1.00003,29.761734,86.84113)" stroke-width=".3985" stroke-linecap="butt" stroke-miterlimit="10" stroke-linejoin="miter" fill="none" stroke="#000000" d="M59.68245 28.3468C59.68245 29.99751 58.34431 31.33563 56.69362 31.33563 55.04291 31.33563 53.70479 29.99751 53.70479 28.3468 53.70479 26.69609 55.04291 25.35797 56.69362 25.35797 58.34431 25.35797 59.68245 26.69609 59.68245 28.3468ZM56.69362 28.3468"/>
<path transform="matrix(1.00005,0,0,-1.00003,29.761734,86.84113)" stroke-width=".79701" stroke-linecap="butt" stroke-miterlimit="10" stroke-linejoin="miter" fill="none" stroke="#000000" d="M56.69362 28.3468 57.87442 28.275 59.05525 28.06088 60.23608 27.71097 61.41692 27.23257 62.59775 26.63048 63.77856 25.9116 64.9594 25.0833 66.14023 24.14944 67.32106 23.11784 68.50189 21.99324 69.68271 20.78299 70.86354 19.49231 72.04437 18.12808 73.2252 16.69725 74.40604 15.20369 75.58685 13.65564 76.76768 12.05785 77.94852 10.41551 79.12935 8.73898 80.31018 7.03046 81.491 5.29684 82.67183 3.5455 83.85266 1.78073 85.0335 .01036"/>
<path transform="matrix(1.00005,0,0,-1.00003,29.761734,86.84113)" d="M88.02925 0C88.02925 1.6507 86.69113 2.98883 85.04042 2.98883 83.38971 2.98883 82.05159 1.6507 82.05159 0 82.05159-1.6507 83.38971-2.98883 85.04042-2.98883 86.69113-2.98883 88.02925-1.6507 88.02925 0ZM85.04042 0"/>
<path transform="matrix(1.00005,0,0,-1.00003,29.761734,86.84113)" stroke-width=".3985" stroke-linecap="butt" stroke-miterlimit="10" stroke-linejoin="miter" fill="none" stroke="#000000" d="M88.02925 0C88.02925 1.6507 86.69113 2.98883 85.04042 2.98883 83.38971 2.98883 82.05159 1.6507 82.05159 0 82.05159-1.6507 83.38971-2.98883 85.04042-2.98883 86.69113-2.98883 88.02925-1.6507 88.02925 0ZM85.04042 0"/>
<path transform="matrix(1.00005,0,0,-1.00003,29.761734,86.84113)" stroke-width=".79701" stroke-linecap="butt" stroke-miterlimit="10" stroke-linejoin="miter" fill="none" stroke="#000000" d="M85.04042 0 86.22124-1.90791 87.40207-4.08531 88.58289-6.5006 89.76372-9.11443 90.94455-11.90517 92.12538-14.83388 93.30621-17.86986 94.48705-20.99063 95.66786-24.15636 96.8487-27.34546 98.02953-30.519 99.21036-33.65274 100.39119-36.71036 101.572-39.66025 102.75284-42.47998 103.93367-45.12927 105.1145-47.58565 106.29533-49.82014 107.47615-51.78517 108.65698-53.46558 109.83781-54.8298 111.01865-55.84064 112.19948-56.47517 113.3803-56.69362"/>
<path transform="matrix(1.00005,0,0,-1.00003,29.761734,86.84113)" d="M116.37607-56.69362C116.37607-55.04291 115.03793-53.70479 113.38724-53.70479 111.73653-53.70479 110.3984-55.04291 110.3984-56.69362 110.3984-58.34431 111.73653-59.68245 113.38724-59.68245 115.03793-59.68245 116.37607-58.34431 116.37607-56.69362ZM113.38724-56.69362"/>
<path transform="matrix(1.00005,0,0,-1.00003,29.761734,86.84113)" stroke-width=".3985" stroke-linecap="butt" stroke-miterlimit="10" stroke-linejoin="miter" fill="none" stroke="#000000" d="M116.37607-56.69362C116.37607-55.04291 115.03793-53.70479 113.38724-53.70479 111.73653-53.70479 110.3984-55.04291 110.3984-56.69362 110.3984-58.34431 111.73653-59.68245 113.38724-59.68245 115.03793-59.68245 116.37607-58.34431 116.37607-56.69362ZM113.38724-56.69362"/>
<path transform="matrix(1.00005,0,0,-1.00003,29.761734,86.84113)" stroke-width=".79701" stroke-linecap="butt" stroke-miterlimit="10" stroke-linejoin="miter" fill="none" stroke="#000000" d="M113.38724-56.69362 114.56804-56.44014 115.74887-55.68018 116.9297-54.45825 118.11053-52.83105 119.29137-50.82664 120.47218-48.50264 121.65302-45.90092 122.83385-43.05351 124.01468-40.0145 125.19551-36.81287 126.37633-33.50871 127.55716-30.12842 128.73799-26.7291 129.91883-23.354 131.09966-20.0317 132.28047-16.82182 133.4613-13.75081 134.64214-10.8623 135.82297-8.22858 137.0038-5.86174 138.18462-3.80804 139.36545-2.1229 140.54628-.83522 141.72711-.00345"/>
<path transform="matrix(1.00005,0,0,-1.00003,29.761734,86.84113)" d="M144.72287 0C144.72287 1.6507 143.38475 2.98883 141.73404 2.98883 140.08333 2.98883 138.74521 1.6507 138.74521 0 138.74521-1.6507 140.08333-2.98883 141.73404-2.98883 143.38475-2.98883 144.72287-1.6507 144.72287 0ZM141.73404 0"/>
<path transform="matrix(1.00005,0,0,-1.00003,29.761734,86.84113)" stroke-width=".3985" stroke-linecap="butt" stroke-miterlimit="10" stroke-linejoin="miter" fill="none" stroke="#000000" d="M144.72287 0C144.72287 1.6507 143.38475 2.98883 141.73404 2.98883 140.08333 2.98883 138.74521 1.6507 138.74521 0 138.74521-1.6507 140.08333-2.98883 141.73404-2.98883 143.38475-2.98883 144.72287-1.6507 144.72287 0ZM141.73404 0"/>
<path transform="matrix(1.00005,0,0,-1.00003,29.761734,86.84113)" stroke-width=".79701" stroke-linecap="butt" stroke-miterlimit="10" stroke-linejoin="miter" fill="none" stroke="#000000" d="M141.73404 0 142.91486 .61246 144.09569 1.26906 145.27652 1.96413 146.45734 2.68864 147.63817 3.43909 148.819 4.20685 149.99983 4.98584 151.18067 5.77264 152.36148 6.55812 153.54232 7.33885 154.72315 8.10617 155.90398 8.8562 157.08481 9.58113 158.26563 10.27406 159.44646 10.93152 160.62729 11.54442 161.80812 12.11018 162.98896 12.62144 164.16977 13.06783 165.3506 13.44803 166.53144 13.75598 167.71227 13.98264 168.8931 14.12494 170.07392 14.17339"/>
<path transform="matrix(1.00005,0,0,-1.00003,29.761734,86.84113)" d="M173.06969 14.17339C173.06969 15.8241 171.73155 17.16222 170.08086 17.16222 168.43015 17.16222 167.09203 15.8241 167.09203 14.17339 167.09203 12.52269 168.43015 11.18456 170.08086 11.18456 171.73155 11.18456 173.06969 12.52269 173.06969 14.17339ZM170.08086 14.17339"/>
<path transform="matrix(1.00005,0,0,-1.00003,29.761734,86.84113)" stroke-width=".3985" stroke-linecap="butt" stroke-miterlimit="10" stroke-linejoin="miter" fill="none" stroke="#000000" d="M173.06969 14.17339C173.06969 15.8241 171.73155 17.16222 170.08086 17.16222 168.43015 17.16222 167.09203 15.8241 167.09203 14.17339 167.09203 12.52269 168.43015 11.18456 170.08086 11.18456 171.73155 11.18456 173.06969 12.52269 173.06969 14.17339ZM170.08086 14.17339"/>
</svg>
