<svg xmlns="http://www.w3.org/2000/svg" xmlns:xlink="http://www.w3.org/1999/xlink" xmlns:inkscape="http://www.inkscape.org/namespaces/inkscape" version="1.1" width="400" height="117" viewBox="0 0 400 117">
<defs>
<path id="font_1_1" d="M.45999146 .31976319C.45999146 .39982606 .45498658 .47988893 .41999818 .5539398 .37399293 .65000918 .2919922 .6660156 .25 .6660156 .18998719 .6660156 .116989139 .64001467 .07598877 .54693606 .04399109 .47789 .038986207 .39982606 .038986207 .31976319 .038986207 .24472046 .042999269 .15464783 .083999637 .07859802 .1269989-.0024719239 .19999695-.022460938 .24899292-.022460938 .30299378-.022460938 .3789978-.0014648438 .4229889 .09359741 .45498658 .16265869 .45999146 .2407074 .45999146 .31976319M.24899292-.00047302247C.20999146-.00047302247 .15098572 .024551392 .1329956 .12062073 .12199402 .18066406 .12199402 .2727356 .12199402 .3317871 .12199402 .39582826 .12199402 .46188355 .12998963 .5159149 .14898682 .63500979 .22399903 .64401248 .24899292 .64401248 .28199769 .64401248 .34799195 .6259918 .36698915 .52693179 .3769989 .47088624 .3769989 .39482118 .3769989 .3317871 .3769989 .25672914 .3769989 .18867493 .3659973 .12461853 .35099793 .029556275 .2939911-.00047302247 .24899292-.00047302247Z"/>
<path id="font_1_2" d="M.16299439 .4569702C.116989139 .486969 .11299133 .52098086 .11299133 .5379791 .11299133 .598999 .17799378 .64100649 .24899292 .64100649 .32199098 .64100649 .38598634 .58898928 .38598634 .51698306 .38598634 .45996095 .34700013 .4119568 .2869873 .37695313L.16299439 .4569702M.30899049 .36193849C.3809967 .3989563 .42999269 .45095826 .42999269 .51698306 .42999269 .6090088 .34098817 .6660156 .25 .6660156 .1499939 .6660156 .068984989 .59199526 .068984989 .49897767 .068984989 .4809723 .070999149 .43595887 .11299133 .38894654 .12399292 .37695313 .16099549 .35194398 .18598938 .33494569 .12799073 .30592347 .041992189 .24984741 .041992189 .15072632 .041992189 .04458618 .14399719-.022460938 .24899292-.022460938 .3619995-.022460938 .45700074 .06060791 .45700074 .16773987 .45700074 .20379639 .44599916 .24885559 .4079895 .2909088 .3889923 .31193543 .37298585 .3219452 .30899049 .36193849M.20899964 .3199463 .33198548 .24183655C.3600006 .2228241 .40699769 .19277954 .40699769 .13169861 .40699769 .05760193 .33198548 .0055389406 .25 .0055389406 .1639862 .0055389406 .09199524 .067611698 .09199524 .15072632 .09199524 .20880127 .12399292 .27288819 .20899964 .3199463Z"/>
<path id="font_2_1" d="M.40699769 .39465333H.5049896C.5249939 .39465333 .5379944 .39465333 .5379944 .4166565 .5379944 .43066407 .5249939 .43066407 .5069885 .43066407H.4139862C.43699647 .5580139 .44499208 .6040497 .45298768 .63305667 .45799256 .6550598 .47999574 .6760864 .5039978 .6760864 .5049896 .6760864 .5319977 .6760864 .5509949 .6640625 .5099945 .651062 .5069885 .61505129 .5069885 .60905459 .5069885 .5870514 .5239868 .572052 .5469971 .572052 .57398989 .572052 .60398867 .59506228 .60398867 .63305667 .60398867 .6790924 .5549927 .70410159 .5039978 .70410159 .45999146 .70410159 .41099549 .6790924 .38398744 .62905886 .3639984 .5920563 .35598756 .5469818 .33499146 .43066407H.2559967C.23599243 .43066407 .22299195 .43066407 .22299195 .4086609 .22299195 .39465333 .23599243 .39465333 .2539978 .39465333H.32798768C.32699586 .38865663 .2639923 .028869629 .23999024-.078063968 .23498535-.10006714 .21798706-.17610169 .16999817-.17610169 .16899109-.17610169 .14498902-.17610169 .12599182-.1640625 .16699219-.15107727 .16999817-.11506653 .16999817-.109069827 .16999817-.08706665 .15299988-.07206726 .12998963-.07206726 .102996829-.07206726 .07299805-.095077518 .07299805-.1330719 .07299805-.17811585 .11999512-.20410156 .16999817-.20410156 .23399353-.20410156 .27799989-.13807678 .2899933-.11607361 .32598878-.049087526 .34899903 .07385254 .35099793 .08584595L.40699769 .39465333Z"/>
<path id="font_3_1" d="M.3600006 .46505738C.36099244 .46606446 .36999513 .48506166 .36999513 .50006106 .36999513 .5360565 .33799745 .5590515 .30799867 .5590515 .2669983 .5590515 .2559967 .5280609 .25099183 .5130615L.09700012 .080078128C.09298706 .06808472 .09298706 .065078739 .09298706 .064071658 .09298706 .048080446 .1349945 .038085939 .13598633 .038085939 .14498902 .038085939 .14698792 .04307556 .15299988 .05508423L.3600006 .46505738Z"/>
<path id="font_4_1" d="M.35499574 .75C.16499329 .61598208 .114990238 .40397645 .114990238 .25097657 .114990238 .10997009 .15699768-.10902405 .35499574-.24902344 .36299134-.24902344 .375-.24902344 .375-.23703003 .375-.23103333 .37199403-.22903443 .36499024-.22203064 .23199463-.10203552 .18299866 .067977908 .18299866 .24996948 .18299866 .519989 .28599549 .65197756 .36799623 .72598269 .37199403 .7299957 .375 .73298647 .375 .73799136 .375 .75 .36299134 .75 .35499574 .75Z"/>
<path id="font_5_1" d="M.74398806 .2263794C.7599945 .2263794 .7839966 .2263794 .7839966 .25038148 .7839966 .27539063 .7609863 .27539063 .74398806 .27539063H.147995C.13198853 .27539063 .10798645 .27539063 .10798645 .25138856 .10798645 .2263794 .1309967 .2263794 .147995 .2263794H.74398806Z"/>
<path id="font_4_5" d="M.33499146 .63612368C.33499146 .6630554 .33299256 .6640625 .30499269 .6640625 .24099732 .6014404 .1499939 .6004486 .10899353 .6004486V.5644531C.1329956 .5644531 .19898987 .5644531 .2539978 .592453V.08203125C.2539978 .04899597 .2539978 .035995485 .1539917 .035995485H.115997318V0C.13398743 .0009918213 .25698854 .0039978029 .2939911 .0039978029 .32499696 .0039978029 .45098878 .0009918213 .47299195 0V.035995485H.43499757C.33499146 .035995485 .33499146 .04899597 .33499146 .08203125V.63612368Z"/>
<path id="font_4_2" d="M.08999634 .75C.08299255 .75 .070999149 .75 .070999149 .73799136 .070999149 .73298647 .07398987 .7299957 .07998657 .72299197 .1659851 .64398196 .2619934 .5089874 .2619934 .25097657 .2619934 .04197693 .19699097-.11602783 .08898926-.21403504 .07199097-.23103333 .070999149-.23202515 .070999149-.23703003 .070999149-.24203491 .07398987-.24902344 .083999637-.24902344 .09599304-.24902344 .19099427-.18302918 .25698854-.058029176 .30099488 .024978638 .32998658 .13298035 .32998658 .24996948 .32998658 .39097596 .28799439 .60998538 .08999634 .75Z"/>
<path id="font_4_6" d="M.7679901 .3359375C.7829895 .3359375 .80599978 .3359375 .80599978 .3609314 .80599978 .38493348 .7819977 .38493348 .7689972 .38493348H.10699463C.09399414 .38493348 .069992069 .38493348 .069992069 .3609314 .069992069 .3359375 .09298706 .3359375 .10798645 .3359375H.7679901M.7689972 .11602783C.7819977 .11602783 .80599978 .11602783 .80599978 .1400299 .80599978 .16503906 .7829895 .16503906 .7679901 .16503906H.10798645C.09298706 .16503906 .069992069 .16503906 .069992069 .1400299 .069992069 .11602783 .09399414 .11602783 .10699463 .11602783H.7689972Z"/>
<path id="font_6_2" d="M.848999-.12788391C.83200076-.12487793 .8089905-.12287903 .79100039-.12287903 .7709961-.12287903 .7220001-.12487793 .6639862-.14588928 .6569977-.14888 .58299258-.17988587 .58299258-.19587708 .58299258-.20288086 .598999-.21888733 .60598757-.21888733 .6100006-.21888733 .61299136-.21788025 .61898806-.21388245 .69799807-.1618805 .7669983-.1618805 .7919922-.1618805 .8529968-.1618805 .897995-.17788697 .92099-.18888855 .9269867-.19187927 .9299927-.19288635 .93299868-.19288635 .93699648-.19288635 .94299319-.19088745 .94299319-.18287659 .94299319-.18087769 .94299319-.17887879 .9399872-.17088318 .9269867-.14387512 .9119873-.100875858 .9119873-.04185486 .9119873 .00015258789 .91799929 .060180665 .96398928 .13119507 .96798709 .13819885 .96899417 .14019776 .96899417 .14419556 .96899417 .15119934 .9529877 .16720581 .94599917 .16720581 .9319916 .16720581 .9039917 .10519409 .8959961 .08618164 .875 .030166626 .8730011-.017852784 .8730011-.04084778 .8730011-.07286072 .8730011-.0738678 .8779907-.09887695L.09700012 .6813507C.084991458 .6933594 .08299255 .6953583 .07499695 .6953583 .06298828 .6953583 .054992677 .6853485 .054992677 .675354 .054992677 .66734316 .056991579 .66534426 .069992069 .65234377L.848999-.12788391Z"/>
<path id="font_4_4" d="M.5159912 .31925965C.5159912 .42918397 .5029907 .50813296 .45700074 .5780945 .42599488 .62405398 .3639984 .6640625 .28399659 .6640625 .051986696 .6640625 .051986696 .39120484 .051986696 .31925965 .051986696 .2472992 .051986696-.01953125 .28399659-.01953125 .5159912-.01953125 .5159912 .2472992 .5159912 .31925965M.28399659 .008468628C.23799134 .008468628 .1769867 .035446168 .15699768 .117385867 .14299011 .17634583 .14299011 .25830079 .14299011 .33224488 .14299011 .40519715 .14299011 .4811554 .1579895 .53611758 .1789856 .6150665 .24299622 .63604739 .28399659 .63604739 .33799745 .63604739 .3899994 .6030731 .4079895 .545105 .42399598 .4911499 .4249878 .41918946 .4249878 .33224488 .4249878 .25830079 .4249878 .18434143 .4119873 .12138367 .3919983 .030441285 .32398988 .008468628 .28399659 .008468628Z"/>
<path id="font_4_3" d="M.46299745 .2263794H.7689972C.7819977 .2263794 .80599978 .2263794 .80599978 .25038148 .80599978 .27539063 .7829895 .27539063 .7689972 .27539063H.46299745V.5821533C.46299745 .59513857 .46299745 .6191406 .43899537 .6191406 .4139862 .6191406 .4139862 .5961304 .4139862 .5821533V.27539063H.10699463C.09399414 .27539063 .069992069 .27539063 .069992069 .25138856 .069992069 .2263794 .09298706 .2263794 .10699463 .2263794H.4139862V-.08114624C.4139862-.09416199 .4139862-.11816406 .43798829-.11816406 .46299745-.11816406 .46299745-.09516907 .46299745-.08114624V.2263794Z"/>
<path id="font_6_1" d="M.8779907 .59887698C.875 .58187869 .8730011 .55888369 .8730011 .54089358 .8730011 .52090457 .875 .47192384 .8959961 .41394044 .901001 .40193177 .93099978 .33296205 .94599917 .33296205 .9529877 .33296205 .96899417 .34895326 .96899417 .35595704 .96899417 .35995484 .96798709 .36195375 .96398928 .36894227 .9149933 .44493104 .9119873 .50691226 .9119873 .54190066 .9119873 .60287478 .9279938 .6478729 .93899539 .6708679 .94200137 .6768646 .94299319 .6798706 .94299319 .6828613 .94299319 .6908722 .93699648 .6928711 .93299868 .6928711 .93099978 .6928711 .92900088 .6928711 .92099 .6898651 .8939972 .6768646 .84999087 .66186526 .7919922 .66186526 .7630005 .66186526 .69599917 .6628723 .61898806 .7138672 .61299136 .717865 .6100006 .7188721 .60598757 .7188721 .598999 .7188721 .58299258 .7028656 .58299258 .6958618 .58299258 .6818695 .644989 .6538696 .66600039 .645874 .723999 .62387087 .772995 .62286379 .79100039 .62286379 .82299807 .62286379 .82398989 .62286379 .848999 .62786868L.069992069-.15188599C.056991579-.16488648 .054992677-.16688538 .054992677-.17488098 .054992677-.18487549 .06399536-.19488526 .07499695-.19488526 .08299255-.19488526 .084991458-.19288635 .09700012-.18087769L.8779907 .59887698Z"/>
</defs>
<path transform="matrix(1.00006,0,0,-1,58.309595,58.691)" stroke-width=".3985" stroke-linecap="butt" stroke-miterlimit="10" stroke-linejoin="miter" fill="none" stroke="#000000" d="M-53.10707 0H336.57518"/>
<path transform="matrix(-1.00006,-0,0,1,5.199337,58.691)" d="M3.58653 0C2.52383 .19925 .797 .797-.3985 1.49438V-1.49438C.797-.797 2.52383-.19925 3.58653 0"/>
<path transform="matrix(1.00006,0,0,-1,394.90495,58.691)" d="M3.58653 0C2.52383 .19925 .797 .797-.3985 1.49438V-1.49438C.797-.797 2.52383-.19925 3.58653 0"/>
<path transform="matrix(1.00006,0,0,-1,58.309595,58.691)" d="M1.99255 0C1.99255 1.10046 1.10046 1.99255 0 1.99255-1.10046 1.99255-1.99255 1.10046-1.99255 0-1.99255-1.10046-1.10046-1.99255 0-1.99255 1.10046-1.99255 1.99255-1.10046 1.99255 0ZM0 0"/>
<path transform="matrix(1.00006,0,0,-1,58.309595,58.691)" stroke-width=".3985" stroke-linecap="butt" stroke-miterlimit="10" stroke-linejoin="miter" fill="none" stroke="#000000" d="M1.99255 0C1.99255 1.10046 1.10046 1.99255 0 1.99255-1.10046 1.99255-1.99255 1.10046-1.99255 0-1.99255-1.10046-1.10046-1.99255 0-1.99255 1.10046-1.99255 1.99255-1.10046 1.99255 0ZM0 0"/>
<use data-text="0" xlink:href="#font_1_1" transform="matrix(9.963197,0,0,-9.9626,55.818445,68.631)"/>
<path transform="matrix(1.00006,0,0,-1,58.309595,58.691)" d="M228.76703 0C228.76703 1.10046 227.87494 1.99255 226.77448 1.99255 225.674 1.99255 224.78192 1.10046 224.78192 0 224.78192-1.10046 225.674-1.99255 226.77448-1.99255 227.87494-1.99255 228.76703-1.10046 228.76703 0ZM226.77448 0"/>
<path transform="matrix(1.00006,0,0,-1,58.309595,58.691)" stroke-width=".3985" stroke-linecap="butt" stroke-miterlimit="10" stroke-linejoin="miter" fill="none" stroke="#000000" d="M228.76703 0C228.76703 1.10046 227.87494 1.99255 226.77448 1.99255 225.674 1.99255 224.78192 1.10046 224.78192 0 224.78192-1.10046 225.674-1.99255 226.77448-1.99255 227.87494-1.99255 228.76703-1.10046 228.76703 0ZM226.77448 0"/>
<use data-text="8" xlink:href="#font_1_2" transform="matrix(9.963197,0,0,-9.9626,282.60707,68.631)"/>
<path transform="matrix(1.00006,0,0,-1,58.309595,58.691)" stroke-width=".79701" stroke-linecap="butt" stroke-miterlimit="10" stroke-linejoin="miter" fill="none" stroke="#000000" d="M-56.69362 56.69362-54.33151 54.38039-51.96944 52.16623-49.60733 50.04982-47.24525 48.03247-44.88315 46.1133-42.52107 44.29231-40.15897 42.56995-37.79689 40.94576-35.4348 39.4202-33.07271 37.99326-30.71062 36.6645-28.34853 35.43436-25.98643 34.3024-23.62434 33.26865-21.26225 32.3335-18.90018 31.49698-16.53807 30.75862-14.176 30.1189-11.81389 29.57738-9.45181 29.13445-7.0897 28.78972-4.72763 28.5436-2.36554 28.3961-.00345 28.3468"/>
<path transform="matrix(1.00006,0,0,-1,58.309595,58.691)" stroke-width=".79701" stroke-linecap="butt" stroke-miterlimit="10" stroke-linejoin="miter" fill="none" stroke="#000000" d="M0 28.3468 9.44878 27.91641 18.89757 26.67374 28.34636 24.69272 37.79515 22.04774 47.24394 18.81192 56.69275 15.05966 66.14154 10.86404 75.59033 6.29991 85.03911 1.44034 94.4879-3.64066 103.9367-8.87004 113.3855-14.17252 122.83429-19.475 132.28308-24.70395 141.73188-29.78499 151.18067-34.64455 160.62946-39.20912 170.07825-43.40474 179.52704-47.15744 188.97583-50.39326 198.42462-53.0391 207.87343-55.01968 217.32222-56.2628 226.77101-56.69362"/>
<path transform="matrix(1.00006,0,0,-1,58.309595,58.691)" stroke-width=".79701" stroke-linecap="butt" stroke-miterlimit="10" stroke-linejoin="miter" fill="none" stroke="#000000" d="M226.77448-56.69362 231.49864-56.45181 236.22283-55.74246 240.947-54.59018 245.67119-53.01962 250.39537-51.05505 255.11956-48.72192 259.84373-46.04453 264.5679-43.04703 269.29209-39.75412 274.01628-36.19044 278.74046-32.38107 283.46464-28.34982 288.1888-24.12177 292.913-19.72198 297.63716-15.17429 302.36134-10.50374 307.08555-5.73457 311.80973-.891 316.5339 4.00096 321.25807 8.91762 325.98225 13.83472 330.70646 18.72714 335.4306 23.57028 340.1548 28.33987"/>
<path transform="matrix(1.00006,0,0,-1,58.309595,58.691)" stroke-width="1.39478" stroke-linecap="butt" stroke-miterlimit="10" stroke-linejoin="miter" fill="none" stroke="#ff0000" d="M-28.3468-9.37808V-21.2601"/>
<path transform="matrix(1.00006,0,0,-1,58.309595,58.691)" stroke-width=".59776" stroke-linecap="butt" stroke-miterlimit="10" stroke-linejoin="miter" fill="none" stroke="#ffffff" d="M-28.3468-9.37808V-21.2601"/>
<path transform="matrix(0,-1,-1.00006,-0,29.961094,68.069087)" d="M2.29138 0-1.37483 1.83311 0 0-1.37483-1.83311" fill="#ff0000"/>
<use data-text="f" xlink:href="#font_2_1" transform="matrix(6.9742186,0,0,-6.9738,6.5144808,89.245)" fill="#ff0000"/>
<use data-text="&#x2032;" xlink:href="#font_3_1" transform="matrix(4.9815986,0,0,-4.9813,11.180756,86.239)" fill="#ff0000"/>
<use data-text="(" xlink:href="#font_4_1" transform="matrix(6.9742186,0,0,-6.9738,13.875931,89.245)" fill="#ff0000"/>
<use data-text="&#x2212;" xlink:href="#font_5_1" transform="matrix(6.9742186,0,0,-6.9738,16.98912,89.245)" fill="#ff0000"/>
<use data-text="1" xlink:href="#font_4_5" transform="matrix(6.9742186,0,0,-6.9738,23.216507,89.245)" fill="#ff0000"/>
<use data-text=")" xlink:href="#font_4_2" transform="matrix(6.9742186,0,0,-6.9738,27.18483,89.245)" fill="#ff0000"/>
<use data-text="=" xlink:href="#font_4_6" transform="matrix(6.9742186,0,0,-6.9738,32.561967,89.245)" fill="#ff0000"/>
<use data-text="(" xlink:href="#font_4_1" transform="matrix(6.9742186,0,0,-6.9738,40.94496,89.245)" fill="#ff0000"/>
<use data-text="&#x2212;" xlink:href="#font_5_1" transform="matrix(6.9742186,0,0,-6.9738,44.066759,89.245)" fill="#ff0000"/>
<use data-text=")" xlink:href="#font_4_2" transform="matrix(6.9742186,0,0,-6.9738,50.29413,89.245)" fill="#ff0000"/>
<use data-text="&#x2198;" xlink:href="#font_6_2" transform="matrix(11.955917,0,0,-11.9552,23.983536,50.341005)" fill="#ff0000"/>
<path transform="matrix(1.00006,0,0,-1,58.309595,58.691)" stroke-width="1.39478" stroke-linecap="butt" stroke-miterlimit="10" stroke-linejoin="miter" fill="none" stroke="#ff0000" d="M28.3468-9.37808V-21.2601"/>
<path transform="matrix(1.00006,0,0,-1,58.309595,58.691)" stroke-width=".59776" stroke-linecap="butt" stroke-miterlimit="10" stroke-linejoin="miter" fill="none" stroke="#ffffff" d="M28.3468-9.37808V-21.2601"/>
<path transform="matrix(0,-1,-1.00006,-0,86.6581,68.069087)" d="M2.29138 0-1.37483 1.83311 0 0-1.37483-1.83311" fill="#ff0000"/>
<use data-text="f" xlink:href="#font_2_1" transform="matrix(6.9742186,0,0,-6.9738,66.32507,89.245)" fill="#ff0000"/>
<use data-text="&#x2032;" xlink:href="#font_3_1" transform="matrix(4.9815986,0,0,-4.9813,70.99135,86.239)" fill="#ff0000"/>
<use data-text="(" xlink:href="#font_4_1" transform="matrix(6.9742186,0,0,-6.9738,73.68652,89.245)" fill="#ff0000"/>
<use data-text="1" xlink:href="#font_4_5" transform="matrix(6.9742186,0,0,-6.9738,76.79703,89.245)" fill="#ff0000"/>
<use data-text=")" xlink:href="#font_4_2" transform="matrix(6.9742186,0,0,-6.9738,80.765369,89.245)" fill="#ff0000"/>
<use data-text="=" xlink:href="#font_4_6" transform="matrix(6.9742186,0,0,-6.9738,86.14249,89.245)" fill="#ff0000"/>
<use data-text="(" xlink:href="#font_4_1" transform="matrix(6.9742186,0,0,-6.9738,94.5255,89.245)" fill="#ff0000"/>
<use data-text="&#x2212;" xlink:href="#font_5_1" transform="matrix(6.9742186,0,0,-6.9738,97.650959,89.245)" fill="#ff0000"/>
<use data-text=")" xlink:href="#font_4_2" transform="matrix(6.9742186,0,0,-6.9738,103.877338,89.245)" fill="#ff0000"/>
<use data-text="&#x2198;" xlink:href="#font_6_2" transform="matrix(11.955917,0,0,-11.9552,80.67993,50.341005)" fill="#ff0000"/>
<path transform="matrix(1.00006,0,0,-1,58.309595,58.691)" stroke-width="1.39478" stroke-linecap="butt" stroke-miterlimit="10" stroke-linejoin="miter" fill="none" stroke="#ff0000" d="M283.4681-9.37808V-21.2601"/>
<path transform="matrix(1.00006,0,0,-1,58.309595,58.691)" stroke-width=".59776" stroke-linecap="butt" stroke-miterlimit="10" stroke-linejoin="miter" fill="none" stroke="#ffffff" d="M283.4681-9.37808V-21.2601"/>
<path transform="matrix(0,-1,-1.00006,-0,341.7947,68.069087)" d="M2.29138 0-1.37483 1.83311 0 0-1.37483-1.83311" fill="#ff0000"/>
<use data-text="f" xlink:href="#font_2_1" transform="matrix(6.9742186,0,0,-6.9738,319.5302,89.245)" fill="#ff0000"/>
<use data-text="&#x2032;" xlink:href="#font_3_1" transform="matrix(4.9815986,0,0,-4.9813,324.1965,86.239)" fill="#ff0000"/>
<use data-text="(" xlink:href="#font_4_1" transform="matrix(6.9742186,0,0,-6.9738,326.89167,89.245)" fill="#ff0000"/>
<use data-text="1" xlink:href="#font_4_5" transform="matrix(6.9742186,0,0,-6.9738,330.0022,89.245)" fill="#ff0000"/>
<use data-text="0" xlink:href="#font_4_4" transform="matrix(6.9742186,0,0,-6.9738,333.97053,89.245)" fill="#ff0000"/>
<use data-text=")" xlink:href="#font_4_2" transform="matrix(6.9742186,0,0,-6.9738,337.93885,89.245)" fill="#ff0000"/>
<use data-text="=" xlink:href="#font_4_6" transform="matrix(6.9742186,0,0,-6.9738,343.31599,89.245)" fill="#ff0000"/>
<use data-text="(" xlink:href="#font_4_1" transform="matrix(6.9742186,0,0,-6.9738,351.69898,89.245)" fill="#ff0000"/>
<use data-text="+" xlink:href="#font_4_3" transform="matrix(6.9742186,0,0,-6.9738,354.8095,89.245)" fill="#ff0000"/>
<use data-text=")" xlink:href="#font_4_2" transform="matrix(6.9742186,0,0,-6.9738,360.9259,89.245)" fill="#ff0000"/>
<use data-text="&#x2197;" xlink:href="#font_6_1" transform="matrix(11.955917,0,0,-11.9552,335.81623,50.341005)" fill="#ff0000"/>
</svg>
