<svg xmlns="http://www.w3.org/2000/svg" xmlns:xlink="http://www.w3.org/1999/xlink" xmlns:inkscape="http://www.inkscape.org/namespaces/inkscape" version="1.1" width="128" height="100" viewBox="0 0 128 100">
<defs>
<path id="font_1_1" d="M.36698915 .3996582H.45298768C.47299195 .3996582 .48298646 .3996582 .48298646 .41966249 .48298646 .43066407 .47299195 .43066407 .45599366 .43066407H.37298585L.3939972 .5449524C.397995 .5660095 .4119873 .6370239 .41799928 .6490326 .4269867 .66804507 .44400025 .68307498 .46499635 .68307498 .46899415 .68307498 .49499513 .68307498 .5139923 .66503909 .46998597 .661026 .45999146 .6260376 .45999146 .6110382 .45999146 .58802798 .47799684 .57603457 .49699403 .57603457 .522995 .57603457 .5519867 .5980377 .5519867 .6360321 .5519867 .6820679 .5059967 .7050781 .46499635 .7050781 .43099977 .7050781 .36799623 .68707278 .33799745 .58802798 .33198548 .56700137 .32899476 .5569763 .30499269 .43066407H.23599243C.21699524 .43066407 .20599365 .43066407 .20599365 .4116516 .20599365 .3996582 .21499634 .3996582 .23399353 .3996582H.2999878L.22499085 .0048828127C.20698548-.09207153 .18998719-.18309021 .13798523-.18309021 .13398743-.18309021 .10899353-.18309021 .08999634-.16506958 .13598633-.1620636 .14498902-.12606812 .14498902-.111068729 .14498902-.08807373 .1269989-.07606506 .10798645-.07606506 .08198547-.07606506 .052993776-.09806824 .052993776-.13606262 .052993776-.18109131 .09700012-.20507813 .13798523-.20507813 .19299317-.20507813 .23298645-.14607239 .25099183-.108062747 .2829895-.04508972 .30599977 .07583618 .30699159 .082839969L.36698915 .3996582Z"/>
<path id="font_2_1" d="M.2899933 .4720459C.2979889 .4890442 .29899598 .49705506 .29899598 .5040436 .29899598 .53504946 .2709961 .5590515 .23999024 .5590515 .20199585 .5590515 .18998719 .52804568 .18499756 .51205447L.052993776 .07901001C.051986696 .07701111 .04798889 .06401062 .04798889 .06300354 .04798889 .05101013 .07899475 .041015626 .08699036 .041015626 .09399414 .041015626 .09498596 .043014528 .101989749 .058013917L.2899933 .4720459Z"/>
<path id="font_3_3" d="M.68699648 .32714845C.70199587 .32714845 .72099307 .32714845 .72099307 .34713746 .72099307 .36714173 .70199587 .36714173 .6879883 .36714173H.08898926C.07499695 .36714173 .055999757 .36714173 .055999757 .34713746 .055999757 .32714845 .07499695 .32714845 .08999634 .32714845H.68699648M.6879883 .13284302C.70199587 .13284302 .72099307 .13284302 .72099307 .15284729 .72099307 .17285156 .70199587 .17285156 .68699648 .17285156H.08999634C.07499695 .17285156 .055999757 .17285156 .055999757 .15284729 .055999757 .13284302 .07499695 .13284302 .08898926 .13284302H.6879883Z"/>
<path id="font_4_1" d="M.6589966 .23046875C.6759949 .23046875 .69400027 .23046875 .69400027 .25045777 .69400027 .27046205 .6759949 .27046205 .6589966 .27046205H.117996219C.100997928 .27046205 .08299255 .27046205 .08299255 .25045777 .08299255 .23046875 .100997928 .23046875 .117996219 .23046875H.6589966Z"/>
<path id="font_3_2" d="M.1269989 .07699585 .23298645 .18003845C.3889923 .31811524 .44898988 .3721466 .44898988 .47216798 .44898988 .5860901 .35899354 .6660156 .23699951 .6660156 .12399292 .6660156 .049987794 .57411196 .049987794 .48516847 .049987794 .4291687 .099990848 .4291687 .102996829 .4291687 .11999512 .4291687 .15499878 .44117738 .15499878 .48217774 .15499878 .5081787 .13699341 .5341797 .101989749 .5341797 .09399414 .5341797 .09199524 .5341797 .08898926 .5331726 .11199951 .59806826 .1659851 .63500979 .22399903 .63500979 .31498719 .63500979 .35798646 .5541382 .35798646 .47216798 .35798646 .39215089 .30799867 .31311036 .25299073 .25108338L.06098938 .036987306C.049987794 .025985718 .049987794 .023986817 .049987794 0H.42099L.44898988 .17404175H.42399598C.4189911 .14402771 .4119873 .1000061 .4019928 .084991458 .394989 .07699585 .32899476 .07699585 .30699159 .07699585H.1269989Z"/>
<path id="font_3_1" d="M.45999146 .31976319C.45999146 .39982606 .45498658 .47988893 .41999818 .5539398 .37399293 .65000918 .2919922 .6660156 .25 .6660156 .18998719 .6660156 .116989139 .64001467 .07598877 .54693606 .04399109 .47789 .038986207 .39982606 .038986207 .31976319 .038986207 .24472046 .042999269 .15464783 .083999637 .07859802 .1269989-.0024719239 .19999695-.022460938 .24899292-.022460938 .30299378-.022460938 .3789978-.0014648438 .4229889 .09359741 .45498658 .16265869 .45999146 .2407074 .45999146 .31976319M.24899292-.00047302247C.20999146-.00047302247 .15098572 .024551392 .1329956 .12062073 .12199402 .18066406 .12199402 .2727356 .12199402 .3317871 .12199402 .39582826 .12199402 .46188355 .12998963 .5159149 .14898682 .63500979 .22399903 .64401248 .24899292 .64401248 .28199769 .64401248 .34799195 .6259918 .36698915 .52693179 .3769989 .47088624 .3769989 .39482118 .3769989 .3317871 .3769989 .25672914 .3769989 .18867493 .3659973 .12461853 .35099793 .029556275 .2939911-.00047302247 .24899292-.00047302247Z"/>
</defs>
<path transform="matrix(1,0,0,-1.00005,67.841999,70.56293)" stroke-width=".79701" stroke-linecap="butt" stroke-miterlimit="10" stroke-linejoin="miter" fill="none" stroke="#000000" d="M-42.5202-7.08669-38.97685 3.10042-35.43349 12.40172-31.89014 20.81717-28.3468 28.3468-24.80345 34.99059-21.2601 40.74854-17.71674 45.62062-14.17339 49.6069-10.63004 52.70734-7.08669 54.92192-3.54333 56.25069 0 56.69362 3.54333 56.25069 7.08669 54.92192 10.63004 52.70734 14.17339 49.6069 17.71674 45.62062 21.2601 40.74854 24.80345 34.99059 28.3468 28.3468 31.89014 20.81717 35.43349 12.40172 38.97685 3.10042 42.5202-7.08669"/>
<path transform="matrix(1,0,0,-1.00005,67.841999,70.56293)" stroke-width=".79701" stroke-linecap="butt" stroke-miterlimit="10" stroke-linejoin="miter" fill="none" stroke="#ff0000" d="M-36.85092 11.33855-36.14243 12.75554-35.43393 14.17252-34.72543 15.58951-34.01694 17.0065-33.30844 18.42351-32.59993 19.8405-31.89145 21.25749-31.18294 22.67448-30.47446 24.09148-29.76595 25.50848-29.05745 26.92548-28.34897 28.34247-27.64046 29.75946-26.93198 31.17645-26.22346 32.59346-25.51497 34.01045-24.80647 35.42744-24.09798 36.84444-23.38948 38.26143-22.68098 39.67842-21.97247 41.09543-21.26399 42.51242-20.55548 43.92941-19.847 45.3464"/>
<use data-text="f" xlink:href="#font_1_1" transform="matrix(9.9626,0,0,-9.963098,1.2159882,29.669888)" fill="#ff0000"/>
<use data-text="&#x2032;" xlink:href="#font_2_1" transform="matrix(6.9738,0,0,-6.9741489,7.165985,26.054703)" fill="#ff0000"/>
<use data-text="=" xlink:href="#font_3_3" transform="matrix(9.9626,0,0,-9.963098,12.727982,29.669888)" fill="#ff0000"/>
<use data-text="&#x2212;" xlink:href="#font_4_1" transform="matrix(9.9626,0,0,-9.963098,23.243988,29.669888)" fill="#ff0000"/>
<use data-text="2" xlink:href="#font_3_2" transform="matrix(9.9626,0,0,-9.963098,30.992981,29.669888)" fill="#ff0000"/>
<path transform="matrix(1,0,0,-1.00005,67.841999,70.56293)" stroke-width=".79701" stroke-linecap="butt" stroke-miterlimit="10" stroke-linejoin="miter" fill="none" stroke="#0000ff" d="M19.84267 45.35506 20.55116 43.93806 21.25966 42.52107 21.96815 41.10408 22.67665 39.68709 23.38515 38.27008 24.09366 36.85309 24.80214 35.4361 25.51065 34.0191 26.21913 32.60211 26.92764 31.1851 27.63614 29.76811 28.34464 28.35112 29.05313 26.93413 29.76163 25.51714 30.47012 24.10013 31.17862 22.68314 31.88712 21.26614 32.59561 19.84915 33.30411 18.43216 34.0126 17.01517 34.72112 15.59816 35.4296 14.18117 36.1381 12.76418 36.84659 11.34718"/>
<use data-text="f" xlink:href="#font_1_1" transform="matrix(9.9626,0,0,-9.963098,99.709,29.669888)" fill="#0000ff"/>
<use data-text="&#x2032;" xlink:href="#font_2_1" transform="matrix(6.9738,0,0,-6.9741489,105.659,26.054703)" fill="#0000ff"/>
<use data-text="=" xlink:href="#font_3_3" transform="matrix(9.9626,0,0,-9.963098,111.22099,29.669888)" fill="#0000ff"/>
<use data-text="2" xlink:href="#font_3_2" transform="matrix(9.9626,0,0,-9.963098,121.72157,29.669888)" fill="#0000ff"/>
<path transform="matrix(1,0,0,-1.00005,67.841999,70.56293)" stroke-width=".79701" stroke-linecap="butt" stroke-miterlimit="10" stroke-linejoin="miter" fill="none" stroke="#00cc00" d="M-11.33855 56.69362H-10.39388-9.4492-8.50455-7.55989-6.61522-5.67056-4.72589-3.78122-2.83658-1.8919-.94725-.00258 .94206 1.8867 2.83138 3.77605 4.7207 5.66537 6.61003 7.55469 8.49936 9.44403 10.38867 11.33334"/>
<use data-text="f" xlink:href="#font_1_1" transform="matrix(9.9626,0,0,-9.963098,54.336999,8.408821)" fill="#00cc00"/>
<use data-text="&#x2032;" xlink:href="#font_2_1" transform="matrix(6.9738,0,0,-6.9741489,60.286996,4.7936365)" fill="#00cc00"/>
<use data-text="=" xlink:href="#font_3_3" transform="matrix(9.9626,0,0,-9.963098,65.84899,8.408821)" fill="#00cc00"/>
<use data-text="0" xlink:href="#font_3_1" transform="matrix(9.9626,0,0,-9.963098,76.34957,8.408821)" fill="#00cc00"/>
<path transform="matrix(1,0,0,-1.00005,67.841999,70.56293)" stroke-width="3.78583" stroke-linecap="butt" stroke-miterlimit="10" stroke-linejoin="miter" fill="none" stroke="#000000" d="M-49.6069-21.2601H47.03154"/>
<path transform="matrix(1,0,0,-1.00005,67.841999,70.56293)" stroke-width="2.98883" stroke-linecap="butt" stroke-miterlimit="10" stroke-linejoin="miter" fill="none" stroke="#ffffff" d="M-49.6069-21.2601H47.03154"/>
<path transform="matrix(1,0,0,-1.00005,114.873538,91.82409)" stroke-width="3.02867" stroke-linecap="round" stroke-linejoin="round" fill="none" stroke="#000000" d="M-4.24413 5.65884C-3.89044 3.53676 0 .35367 1.06102 0 0-.35367-3.89044-3.53676-4.24413-5.65884"/>
</svg>
