<svg xmlns="http://www.w3.org/2000/svg" xmlns:xlink="http://www.w3.org/1999/xlink" xmlns:inkscape="http://www.inkscape.org/namespaces/inkscape" version="1.1" width="145" height="88" viewBox="0 0 145 88">
<defs>
<path id="font_1_1" d="M.35499574 .75C.16499329 .61598208 .114990238 .40397645 .114990238 .25097657 .114990238 .10997009 .15699768-.10902405 .35499574-.24902344 .36299134-.24902344 .375-.24902344 .375-.23703003 .375-.23103333 .37199403-.22903443 .36499024-.22203064 .23199463-.10203552 .18299866 .067977908 .18299866 .24996948 .18299866 .519989 .28599549 .65197756 .36799623 .72598269 .37199403 .7299957 .375 .73298647 .375 .73799136 .375 .75 .36299134 .75 .35499574 .75Z"/>
<path id="font_1_4" d="M.33499146 .63612368C.33499146 .6630554 .33299256 .6640625 .30499269 .6640625 .24099732 .6014404 .1499939 .6004486 .10899353 .6004486V.5644531C.1329956 .5644531 .19898987 .5644531 .2539978 .592453V.08203125C.2539978 .04899597 .2539978 .035995485 .1539917 .035995485H.115997318V0C.13398743 .0009918213 .25698854 .0039978029 .2939911 .0039978029 .32499696 .0039978029 .45098878 .0009918213 .47299195 0V.035995485H.43499757C.33499146 .035995485 .33499146 .04899597 .33499146 .08203125V.63612368Z"/>
<path id="font_2_1" d="M.22698975 .056991579C.22698975 .09298706 .19699097 .114990238 .16999817 .114990238 .13699341 .114990238 .11199951 .08799744 .11199951 .057998659 .11199951 .021987915 .14199829 0 .16899109 0 .20199585 0 .22698975 .026992798 .22698975 .056991579Z"/>
<path id="font_1_6" d="M.15499878 .5588074C.20599365 .5458069 .23599243 .5458069 .2519989 .5458069 .38398744 .5458069 .46199037 .6358032 .46199037 .6508026 .46199037 .6618042 .45498658 .6648102 .44999696 .6648102 .44799806 .6648102 .44599916 .6648102 .44198609 .6618042 .41799928 .6528015 .36499024 .6328125 .29100038 .6328125 .2630005 .6328125 .20999146 .6348114 .14498902 .6598053 .1349945 .6648102 .1329956 .6648102 .13198853 .6648102 .11898804 .6648102 .11898804 .6538086 .11898804 .6378021V.34251405C.11898804 .32548524 .11898804 .3134613 .1349945 .3134613 .14399719 .3134613 .14498902 .3154602 .15499878 .32748414 .19799805 .38259889 .25898744 .390625 .2939911 .390625 .35398866 .390625 .3809967 .34251405 .38598634 .33450318 .4039917 .30143739 .4099884 .26335145 .4099884 .20524597 .4099884 .17524719 .4099884 .116256717 .37998963 .07234192 .35499574 .03640747 .31199647 .012466431 .2630005 .012466431 .19799805 .012466431 .1309967 .04838562 .10598755 .11425781 .14399719 .11125183 .16299439 .13624573 .16299439 .16325379 .16299439 .20625305 .12599182 .21424866 .11299133 .21424866 .11099243 .21424866 .06298828 .21424866 .06298828 .1602478 .06298828 .07034302 .14498902-.01953125 .2649994-.01953125 .3929901-.01953125 .5049896 .07533264 .5049896 .20124817 .5049896 .31445313 .4189911 .41862489 .29499818 .41862489 .25099183 .41862489 .19898987 .4076233 .15499878 .36956788V.5588074Z"/>
<path id="font_2_2" d="M.21099854 .015991211C.21099854-.03907776 .20098877-.10321045 .1329956-.16732788 .1289978-.17134094 .12599182-.17434693 .12599182-.17933655 .12599182-.18634033 .13398743-.19334412 .13999939-.19334412 .1539917-.19334412 .23899842-.113220218 .23899842 .005996704 .23899842 .067993167 .21499634 .114990238 .16899109 .114990238 .13598633 .114990238 .11199951 .08898926 .11199951 .057998659 .11199951 .025985718 .1349945 0 .16999817 0 .19400025 0 .20999146 .015991211 .21099854 .015991211Z"/>
<path id="font_1_3" d="M.5159912 .31925965C.5159912 .42918397 .5029907 .50813296 .45700074 .5780945 .42599488 .62405398 .3639984 .6640625 .28399659 .6640625 .051986696 .6640625 .051986696 .39120484 .051986696 .31925965 .051986696 .2472992 .051986696-.01953125 .28399659-.01953125 .5159912-.01953125 .5159912 .2472992 .5159912 .31925965M.28399659 .008468628C.23799134 .008468628 .1769867 .035446168 .15699768 .117385867 .14299011 .17634583 .14299011 .25830079 .14299011 .33224488 .14299011 .40519715 .14299011 .4811554 .1579895 .53611758 .1789856 .6150665 .24299622 .63604739 .28399659 .63604739 .33799745 .63604739 .3899994 .6030731 .4079895 .545105 .42399598 .4911499 .4249878 .41918946 .4249878 .33224488 .4249878 .25830079 .4249878 .18434143 .4119873 .12138367 .3919983 .030441285 .32398988 .008468628 .28399659 .008468628Z"/>
<path id="font_1_5" d="M.5049896 .18203736H.47099305C.46798707 .16001892 .45799256 .100997928 .44499208 .09098816 .43699647 .084991458 .3600006 .084991458 .34599305 .084991458H.1619873C.2669983 .17803955 .3019867 .20603943 .3619995 .25306703 .43598939 .312088 .5049896 .374115 .5049896 .46914674 .5049896 .5900879 .39898683 .6640625 .2709961 .6640625 .14698792 .6640625 .06298828 .57710269 .06298828 .4851532 .06298828 .43414308 .10598755 .42915345 .115997318 .42915345 .13999939 .42915345 .16899109 .44615174 .16899109 .48214723 .16899109 .5001526 .1619873 .53515627 .10998535 .53515627 .14099121 .6060791 .20899964 .62805178 .2559967 .62805178 .35598756 .62805178 .4079895 .5501404 .4079895 .46914674 .4079895 .38212586 .34599305 .3130951 .31399537 .27708436L.07299805 .038986207C.06298828 .02999878 .06298828 .027999878 .06298828 0H.47499085L.5049896 .18203736Z"/>
<path id="font_1_2" d="M.08999634 .75C.08299255 .75 .070999149 .75 .070999149 .73799136 .070999149 .73298647 .07398987 .7299957 .07998657 .72299197 .1659851 .64398196 .2619934 .5089874 .2619934 .25097657 .2619934 .04197693 .19699097-.11602783 .08898926-.21403504 .07199097-.23103333 .070999149-.23202515 .070999149-.23703003 .070999149-.24203491 .07398987-.24902344 .083999637-.24902344 .09599304-.24902344 .19099427-.18302918 .25698854-.058029176 .30099488 .024978638 .32998658 .13298035 .32998658 .24996948 .32998658 .39097596 .28799439 .60998538 .08999634 .75Z"/>
<path id="font_3_1" d="M.31399537 .63708499C.31399537 .664032 .31199647 .66503909 .2849884 .66503909 .24398804 .6251831 .19099427 .6013489 .09599304 .6013489V.5683594C.12298584 .5683594 .1769867 .5683594 .23498535 .5953522V.08203125C.23498535 .04499817 .23199463 .032989503 .13699341 .032989503H.101989749V0C.14299011 .0029907227 .22898865 .0029907227 .27398683 .0029907227 .31900025 .0029907227 .4059906 .0029907227 .44699098 0V.032989503H.4119873C.31698609 .032989503 .31399537 .04499817 .31399537 .08203125V.63708499Z"/>
<path id="font_3_2" d="M.28199769 .20405579C.2979889 .21907044 .33999635 .2520752 .35598756 .26608277 .41799928 .32312013 .47698976 .3781433 .47698976 .46917726 .47698976 .588089 .3769989 .66503909 .2519989 .66503909 .13198853 .66503909 .052993776 .57411196 .052993776 .48516847 .052993776 .4361725 .09199524 .4291687 .10598755 .4291687 .1269989 .4291687 .1579895 .4441681 .1579895 .48217774 .1579895 .5341797 .10798645 .5341797 .09599304 .5341797 .125 .6070709 .19198609 .6320343 .24099732 .6320343 .33399964 .6320343 .38198854 .55314639 .38198854 .46917726 .38198854 .36514283 .30899049 .28910829 .19099427 .16804505L.06498718 .037994386C.052993776 .026992798 .052993776 .024993897 .052993776 0H.44799806L.47698976 .17904663H.44599916C.44299317 .1590271 .43499757 .10900879 .4229889 .08999634 .4169922 .08198547 .34098817 .08198547 .32499696 .08198547H.14698792L.28199769 .20405579Z"/>
</defs>
<path transform="matrix(1.00005,0,0,-1,44.2153,44.319)" stroke-width="1.59404" stroke-linecap="butt" stroke-miterlimit="10" stroke-linejoin="miter" fill="none" stroke="#ff0000" d="M28.3468 0H56.69362"/>
<path transform="matrix(1.00005,0,0,-1,44.2153,44.319)" stroke-width="1.59404" stroke-linecap="butt" stroke-dasharray="1.59404,1.99255" stroke-miterlimit="10" stroke-linejoin="miter" fill="none" stroke="#ff0000" d="M-42.5202 0H28.3468"/>
<path transform="matrix(1.00005,0,0,-1,44.2153,44.319)" stroke-width="1.59404" stroke-linecap="butt" stroke-dasharray="1.59404,1.99255" stroke-miterlimit="10" stroke-linejoin="miter" fill="none" stroke="#ff0000" d="M56.69362 0H99.21382"/>
<path transform="matrix(1.00005,0,0,-1,44.2153,44.319)" d="M31.33563 0C31.33563 1.6507 29.99751 2.98883 28.3468 2.98883 26.69609 2.98883 25.35797 1.6507 25.35797 0 25.35797-1.6507 26.69609-2.98883 28.3468-2.98883 29.99751-2.98883 31.33563-1.6507 31.33563 0ZM28.3468 0" fill="#ffffff"/>
<path transform="matrix(1.00005,0,0,-1,44.2153,44.319)" stroke-width="1.19553" stroke-linecap="butt" stroke-miterlimit="10" stroke-linejoin="miter" fill="none" stroke="#ff0000" d="M31.33563 0C31.33563 1.6507 29.99751 2.98883 28.3468 2.98883 26.69609 2.98883 25.35797 1.6507 25.35797 0 25.35797-1.6507 26.69609-2.98883 28.3468-2.98883 29.99751-2.98883 31.33563-1.6507 31.33563 0ZM28.3468 0"/>
<path transform="matrix(1.00005,0,0,-1,44.2153,44.319)" d="M59.68245 0C59.68245 1.6507 58.34431 2.98883 56.69362 2.98883 55.04291 2.98883 53.70479 1.6507 53.70479 0 53.70479-1.6507 55.04291-2.98883 56.69362-2.98883 58.34431-2.98883 59.68245-1.6507 59.68245 0ZM56.69362 0" fill="#ffffff"/>
<path transform="matrix(1.00005,0,0,-1,44.2153,44.319)" stroke-width="1.19553" stroke-linecap="butt" stroke-miterlimit="10" stroke-linejoin="miter" fill="none" stroke="#ff0000" d="M59.68245 0C59.68245 1.6507 58.34431 2.98883 56.69362 2.98883 55.04291 2.98883 53.70479 1.6507 53.70479 0 53.70479-1.6507 55.04291-2.98883 56.69362-2.98883 58.34431-2.98883 59.68245-1.6507 59.68245 0ZM56.69362 0"/>
<path transform="matrix(1.00005,0,0,-1,44.2153,44.319)" stroke-width=".3985" stroke-linecap="butt" stroke-miterlimit="10" stroke-linejoin="miter" fill="none" stroke="#000000" d="M-38.93365 0H95.62727"/>
<path transform="matrix(-1.00005,-0,0,1,5.279705,44.319)" d="M3.58653 0C2.52383 .19925 .797 .797-.3985 1.49438V-1.49438C.797-.797 2.52383-.19925 3.58653 0"/>
<path transform="matrix(1.00005,0,0,-1,139.84735,44.319)" d="M3.58653 0C2.52383 .19925 .797 .797-.3985 1.49438V-1.49438C.797-.797 2.52383-.19925 3.58653 0"/>
<path transform="matrix(1.00005,0,0,-1,44.2153,44.319)" stroke-width=".3985" stroke-linecap="butt" stroke-miterlimit="10" stroke-linejoin="miter" fill="none" stroke="#000000" d="M0-38.93365V38.93365"/>
<path transform="matrix(0,1,1.00005,0,44.2153,83.252658)" d="M3.58653 0C2.52383 .19925 .797 .797-.3985 1.49438V-1.49438C.797-.797 2.52383-.19925 3.58653 0"/>
<path transform="matrix(0,-1,-1.00005,-0,44.2153,5.3853495)" d="M3.58653 0C2.52383 .19925 .797 .797-.3985 1.49438V-1.49438C.797-.797 2.52383-.19925 3.58653 0"/>
<path transform="matrix(1.00005,0,0,-1,44.2153,44.319)" stroke-width=".3985" stroke-linecap="butt" stroke-dasharray=".3985,1.99255" stroke-miterlimit="10" stroke-linejoin="miter" fill="none" stroke="#000000" d="M-42.5202-28.3468H70.867M-42.5202 0H70.867M-42.5202 28.3468H70.867M-28.3468-42.5202V42.5202M0-42.5202V42.5202M28.3468-42.5202V42.5202M56.69362-42.5202V42.5202M70.867 42.5202"/>
<path transform="matrix(1.00005,0,0,-1,44.2153,44.319)" stroke-width=".79701" stroke-linecap="butt" stroke-miterlimit="10" stroke-linejoin="miter" fill="none" stroke="#000000" d="M14.17339-21.2601C14.17339-21.2601 14.58685-20.43808 14.74564-20.12685 14.90442-19.81561 15.1591-19.32169 15.31789-19.01695 15.47667-18.71222 15.73135-18.22874 15.89014-17.93042 16.04892-17.6321 16.3036-17.15875 16.46239-16.8668 16.62117-16.57484 16.87584-16.11166 17.03464-15.82611 17.19342-15.54057 17.44809-15.0879 17.60687-14.80879 17.76566-14.52966 18.02034-14.08707 18.17912-13.81438 18.3379-13.54169 18.59259-13.10962 18.75137-12.84334 18.91016-12.57706 19.16484-12.15512 19.32362-11.8952 19.4824-11.6353 19.73709-11.22351 19.89587-10.97002 20.05466-10.71652 20.30934-10.31523 20.46812-10.06818 20.6269-9.8211 20.88158-9.4299 21.04036-9.18925 21.19916-8.94861 21.45383-8.56793 21.61261-8.3337 21.7714-8.09947 22.02608-7.72887 22.18486-7.50105 22.34364-7.27325 22.59833-6.91316 22.75711-6.69179 22.9159-6.4704 23.17058-6.12045 23.32936-5.90543 23.48814-5.69041 23.74283-5.3506 23.90161-5.142 24.0604-4.9334 24.31506-4.60411 24.47386-4.40192 24.63264-4.19974 24.88731-3.88052 25.0461-3.68477 25.2049-3.48901 25.45956-3.18033 25.61835-2.99098 25.77713-2.80164 26.03181-2.50308 26.1906-2.32011 26.34938-2.13715 26.60406-1.84874 26.76285-1.67218 26.92163-1.49562 27.17632-1.21771 27.3351-1.04759 27.49388-.87747 27.74857-.60963 27.90735-.44592 28.06613-.28221 28.32079-.02492 28.47958 .13234 28.63837 .28963 28.89304 .53685 29.05182 .68771 29.2106 .83858 29.46529 1.07523 29.62407 1.21974 29.78285 1.36424 30.03754 1.5912 30.19632 1.72928 30.3551 1.86736 30.60979 2.0834 30.76857 2.21501 30.92735 2.34662 31.18204 2.55257 31.34082 2.67783 31.4996 2.80307 31.75427 2.99884 31.91307 3.11772 32.07185 3.2366 32.32652 3.42221 32.4853 3.53468 32.6441 3.64714 32.89877 3.82231 33.05756 3.92828 33.21634 4.03426 33.47102 4.19899 33.6298 4.29855 33.78859 4.3981 34.04327 4.55267 34.20206 4.64587 34.36084 4.73906 34.61552 4.8835 34.7743 4.97028 34.93309 5.05705 35.18777 5.19096 35.34656 5.27132 35.50534 5.35168 35.76001 5.47545 35.91881 5.54944 36.07759 5.62343 36.33226 5.73706 36.49104 5.80464 36.64984 5.87221 36.90451 5.97534 37.0633 6.03648 37.22208 6.09763 37.47676 6.19067 37.63554 6.2454 37.79433 6.30014 38.04901 6.38266 38.2078 6.43095 38.36658 6.47926 38.62126 6.55171 38.78004 6.5936 38.93883 6.63547 39.19351 6.6974 39.3523 6.73288 39.51108 6.76834 39.76575 6.82013 39.92455 6.84923 40.08333 6.87833 40.338 6.91997 40.49678 6.94264 40.65556 6.96533 40.91025 6.99652 41.06903 7.01273 41.22781 7.02893 41.4825 7.0496 41.64128 7.05945 41.80006 7.06927 42.05475 7.08018 42.21353 7.08366 42.37231 7.08713 42.627 7.08752 42.78578 7.08452 42.94456 7.08153 43.19923 7.07144 43.35803 7.06203 43.51682 7.05261 43.77148 7.0324 43.93027 7.01662 44.08907 7.00084 44.34373 6.97046 44.50252 6.94827 44.6613 6.92607 44.91599 6.8852 45.07477 6.85657 45.23355 6.82794 45.48824 6.77693 45.64702 6.74194 45.8058 6.70697 46.06049 6.6458 46.21927 6.6044 46.37805 6.563 46.63274 6.4914 46.79152 6.4435 46.9503 6.39561 47.20497 6.31354 47.36377 6.25925 47.52255 6.20494 47.77722 6.11272 47.936 6.05205 48.0948 5.99138 48.34947 5.88902 48.50826 5.82195 48.66704 5.75485 48.92172 5.64198 49.0805 5.56848 49.23929 5.49498 49.49397 5.37196 49.65276 5.29208 49.81154 5.21222 50.06622 5.07907 50.225 4.99278 50.38379 4.9065 50.63847 4.76282 50.79726 4.6701 50.95604 4.57738 51.21071 4.42363 51.36949 4.3245 51.52829 4.22537 51.78296 4.06111 51.94174 3.95555 52.10052 3.84999 52.35521 3.67564 52.51399 3.56367 52.67278 3.45169 52.92746 3.26683 53.08624 3.14842 53.24503 3.03001 53.49971 2.83502 53.6585 2.71027 53.81728 2.5855 54.07196 2.38037 54.23074 2.24919 54.38953 2.11801 54.6442 1.90236 54.803 1.76474 54.96178 1.62714 55.21645 1.4014 55.37523 1.25739 55.53403 1.11336 55.7887 .8771 55.94748 .72665 56.10626 .57619 56.36093 .32982 56.51971 .173 56.6785 .0162 56.93318-.24033 57.09196-.40355 57.25075-.56677 57.50543-.83376 57.66422-1.00348 57.823-1.17319 58.07768-1.45068 58.23647-1.62675 58.39525-1.80283 58.64992-2.09004 58.80872-2.27254 58.9675-2.45503 59.22217-2.75319 59.38095-2.94211 59.53975-3.13103 59.79442-3.43889 59.9532-3.63416 60.11198-3.82944 60.36667-4.14789 60.52545-4.34958 60.68423-4.55128 60.93892-4.8798 61.0977-5.08792 61.25648-5.29604 61.51117-5.63507 61.66995-5.84962 61.82874-6.06416 62.08342-6.4133 62.2422-6.63426 62.40099-6.85522 62.65565-7.21483 62.81444-7.44223 62.97324-7.66962 63.2279-8.03934 63.38669-8.27313 63.54547-8.50694 63.80016-8.88724 63.95894-9.1274 64.11772-9.36755 64.3724-9.75757 64.53119-10.00415 64.68997-10.25075 64.94466-10.6517 65.10344-10.90471 65.26222-11.15771 65.5169-11.5683 65.67569-11.82774 65.83447-12.08717 66.08914-12.50871 66.24794-12.77457 66.40672-13.04042 66.66139-13.47166 66.82018-13.74387 66.97897-14.01608 67.23364-14.45786 67.39243-14.73654 67.55121-15.01524 67.8059-15.46753 67.96468-15.7526 68.12346-16.03764 68.37814-16.49963 68.53693-16.7911 68.69571-17.0826 68.9504-17.55553 69.10918-17.85342 69.26796-18.15132 69.52264-18.63396 69.68143-18.93822 69.84021-19.2425 70.09488-19.73564 70.25368-20.04639 70.41246-20.35713 70.82591-21.17792 70.82591-21.17792"/>
<use data-text="(" xlink:href="#font_1_1" transform="matrix(6.9741489,0,0,-6.9738,69.46556,31.969)"/>
<use data-text="1" xlink:href="#font_1_4" transform="matrix(6.9741489,0,0,-6.9738,72.576038,31.969)"/>
<use data-text="." xlink:href="#font_2_1" transform="matrix(6.9741489,0,0,-6.9738,76.55092,31.969)"/>
<use data-text="5" xlink:href="#font_1_6" transform="matrix(6.9741489,0,0,-6.9738,78.91704,31.969)"/>
<use data-text="," xlink:href="#font_2_2" transform="matrix(6.9741489,0,0,-6.9738,82.88823,31.969)"/>
<use data-text="0" xlink:href="#font_1_3" transform="matrix(6.9741489,0,0,-6.9738,86.61542,31.969)"/>
<use data-text="." xlink:href="#font_2_1" transform="matrix(6.9741489,0,0,-6.9738,90.58661,31.969)"/>
<use data-text="2" xlink:href="#font_1_5" transform="matrix(6.9741489,0,0,-6.9738,92.95273,31.969)"/>
<use data-text="5" xlink:href="#font_1_6" transform="matrix(6.9741489,0,0,-6.9738,96.92102,31.969)"/>
<use data-text=")" xlink:href="#font_1_2" transform="matrix(6.9741489,0,0,-6.9738,100.88931,31.969)"/>
<path transform="matrix(1.00005,0,0,-1,44.2153,44.319)" d="M44.51276 7.08669C44.51276 8.18715 43.62067 9.07924 42.5202 9.07924 41.41972 9.07924 40.52765 8.18715 40.52765 7.08669 40.52765 5.9862 41.41972 5.09413 42.5202 5.09413 43.62067 5.09413 44.51276 5.9862 44.51276 7.08669ZM42.5202 7.08669"/>
<path transform="matrix(1.00005,0,0,-1,44.2153,44.319)" stroke-width=".3985" stroke-linecap="butt" stroke-miterlimit="10" stroke-linejoin="miter" fill="none" stroke="#000000" d="M44.51276 7.08669C44.51276 8.18715 43.62067 9.07924 42.5202 9.07924 41.41972 9.07924 40.52765 8.18715 40.52765 7.08669 40.52765 5.9862 41.41972 5.09413 42.5202 5.09413 43.62067 5.09413 44.51276 5.9862 44.51276 7.08669ZM42.5202 7.08669"/>
<use data-text="1" xlink:href="#font_3_1" transform="matrix(7.970498,0,0,-7.9701,70.44661,52.975)"/>
<use data-text="2" xlink:href="#font_3_2" transform="matrix(7.970498,0,0,-7.9701,98.79403,52.975)"/>
</svg>
