<svg xmlns="http://www.w3.org/2000/svg" xmlns:xlink="http://www.w3.org/1999/xlink" xmlns:inkscape="http://www.inkscape.org/namespaces/inkscape" version="1.1" width="246" height="191" viewBox="0 0 246 191">
<defs>
<path id="font_1_4" d="M.2899933 .35191346C.37199403 .37893678 .42999269 .4490509 .42999269 .52809146 .42999269 .6100464 .34199525 .6660156 .24598694 .6660156 .14498902 .6660156 .068984989 .60606387 .068984989 .53009036 .068984989 .49710084 .09098816 .47808839 .11999512 .47808839 .15098572 .47808839 .17098999 .50009158 .17098999 .5290985 .17098999 .57910159 .12399292 .57910159 .10899353 .57910159 .13999939 .62802127 .20599365 .64100649 .24198914 .64100649 .2829895 .64100649 .33799745 .6190338 .33799745 .5290985 .33799745 .51708987 .33599855 .45906068 .30999757 .4149933 .27999879 .36691285 .24598694 .36390687 .22099304 .36291505 .21299744 .36190797 .18899536 .35990907 .18199158 .35990907 .17399597 .35890199 .16699219 .35791017 .16699219 .3479004 .16699219 .33691407 .17399597 .33691407 .19099427 .33691407H.23498535C.31698609 .33691407 .35398866 .2686615 .35398866 .17037964 .35398866 .034469606 .2849884 .0055389406 .24099732 .0055389406 .19799805 .0055389406 .12298584 .022491456 .08799744 .08137512 .12298584 .07637024 .1539917 .09837341 .1539917 .1363678 .1539917 .17237854 .1269989 .19238281 .09799194 .19238281 .07398987 .19238281 .041992189 .17837525 .041992189 .1343689 .041992189 .043441774 .1349945-.022460938 .24398804-.022460938 .3659973-.022460938 .45700074 .06838989 .45700074 .17037964 .45700074 .252594 .3939972 .33088685 .2899933 .35191346Z"/>
<path id="font_2_1" d="M.33399964 .30233766C.33999635 .32835389 .36299134 .42037965 .43299867 .42037965 .43798829 .42037965 .46199037 .42037965 .48298646 .40734864 .45498658 .402359 .43499757 .37734986 .43499757 .35334779 .43499757 .33735658 .44599916 .31835938 .47299195 .31835938 .49499513 .31835938 .5269928 .3363495 .5269928 .37635804 .5269928 .42837525 .46798707 .4423828 .43399049 .4423828 .37599183 .4423828 .34098817 .38935853 .32899476 .36634828 .3039856 .43237306 .25 .4423828 .22099304 .4423828 .116989139 .4423828 .05999756 .3133545 .05999756 .28834535 .05999756 .27833558 .069992069 .27833558 .07199097 .27833558 .07998657 .27833558 .08299255 .28033448 .084991458 .28933717 .11898804 .39535523 .18499756 .42037965 .21899414 .42037965 .23799134 .42037965 .272995 .4113617 .272995 .35334779 .272995 .32235719 .2559967 .25532533 .21899414 .11528015 .20298767 .053268434 .16799927 .011245728 .12399292 .011245728 .117996219 .011245728 .09498596 .011245728 .07398987 .024276734 .09899902 .029266358 .12098694 .05027771 .12098694 .07827759 .12098694 .105270389 .09899902 .11328125 .083999637 .11328125 .053985597 .11328125 .0289917 .08728027 .0289917 .055267335 .0289917 .009246826 .07899475-.0107421879 .12298584-.0107421879 .18899536-.0107421879 .22499085 .059280397 .22799683 .0652771 .23999024 .028274537 .27598573-.0107421879 .33599855-.0107421879 .43899537-.0107421879 .49598695 .118270877 .49598695 .14328003 .49598695 .1532898 .4869995 .1532898 .48399354 .1532898 .47499085 .1532898 .47299195 .14929199 .47099305 .14228821 .43798829 .03527832 .36999513 .011245728 .33799745 .011245728 .29899598 .011245728 .2829895 .043273927 .2829895 .07727051 .2829895 .09927368 .2889862 .121276859 .2999878 .16529846L.33399964 .30233766Z"/>
<path id="font_1_3" d="M.1269989 .07699585 .23298645 .18003845C.3889923 .31811524 .44898988 .3721466 .44898988 .47216798 .44898988 .5860901 .35899354 .6660156 .23699951 .6660156 .12399292 .6660156 .049987794 .57411196 .049987794 .48516847 .049987794 .4291687 .099990848 .4291687 .102996829 .4291687 .11999512 .4291687 .15499878 .44117738 .15499878 .48217774 .15499878 .5081787 .13699341 .5341797 .101989749 .5341797 .09399414 .5341797 .09199524 .5341797 .08898926 .5331726 .11199951 .59806826 .1659851 .63500979 .22399903 .63500979 .31498719 .63500979 .35798646 .5541382 .35798646 .47216798 .35798646 .39215089 .30799867 .31311036 .25299073 .25108338L.06098938 .036987306C.049987794 .025985718 .049987794 .023986817 .049987794 0H.42099L.44898988 .17404175H.42399598C.4189911 .14402771 .4119873 .1000061 .4019928 .084991458 .394989 .07699585 .32899476 .07699585 .30699159 .07699585H.1269989Z"/>
<path id="font_1_5" d="M.44898988 .20022583C.44898988 .3193512 .36698915 .41944886 .25898744 .41944886 .21099854 .41944886 .16799927 .40345765 .13198853 .36842347V.5637665C.1519928 .5577698 .18499756 .55078127 .21699524 .55078127 .33999635 .55078127 .4099884 .6417694 .4099884 .6547699 .4099884 .6607666 .40699769 .6657715 .3999939 .6657715 .39898683 .6657715 .39698792 .6657715 .3919983 .66278079 .37199403 .6537781 .32299806 .6337738 .2559967 .6337738 .21598816 .6337738 .16999817 .6407776 .12298584 .6617737 .114990238 .66477969 .11299133 .66477969 .11099243 .66477969 .100997928 .66477969 .100997928 .6567688 .100997928 .6407776V.34439088C.100997928 .32637025 .100997928 .31835938 .114990238 .31835938 .12199402 .31835938 .12399292 .32136537 .12799073 .32736207 .13899231 .3433838 .17599488 .39746095 .25698854 .39746095 .30899049 .39746095 .33399964 .35139466 .34199525 .33337403 .35798646 .29632569 .3600006 .25727845 .3600006 .20722962 .3600006 .17222595 .3600006 .11222839 .33599855 .07035828 .31199647 .031463624 .2749939 .0055389406 .22898865 .0055389406 .1559906 .0055389406 .09899902 .058380128 .08198547 .11723328 .084991458 .1162262 .08799744 .115234378 .09899902 .115234378 .13198853 .115234378 .14898682 .14022827 .14898682 .16423035 .14898682 .18823242 .13198853 .21322632 .09899902 .21322632 .084991458 .21322632 .049987794 .20622254 .049987794 .16023255 .049987794 .07434082 .11898804-.022460938 .23098755-.022460938 .34700013-.022460938 .44898988 .073349 .44898988 .20022583Z"/>
<path id="font_3_1" d="M.19198609 .2502594C.19198609 .2792511 .16799927 .30325318 .13899231 .30325318 .10998535 .30325318 .085998538 .2792511 .085998538 .2502594 .085998538 .22125244 .10998535 .19726563 .13899231 .19726563 .16799927 .19726563 .19198609 .22125244 .19198609 .2502594Z"/>
<path id="font_1_6" d="M.68699648 .32714845C.70199587 .32714845 .72099307 .32714845 .72099307 .34713746 .72099307 .36714173 .70199587 .36714173 .6879883 .36714173H.08898926C.07499695 .36714173 .055999757 .36714173 .055999757 .34713746 .055999757 .32714845 .07499695 .32714845 .08999634 .32714845H.68699648M.6879883 .13284302C.70199587 .13284302 .72099307 .13284302 .72099307 .15284729 .72099307 .17285156 .70199587 .17285156 .68699648 .17285156H.08999634C.07499695 .17285156 .055999757 .17285156 .055999757 .15284729 .055999757 .13284302 .07499695 .13284302 .08898926 .13284302H.6879883Z"/>
<path id="font_4_1" d="M.5049896 .18203736H.47099305C.46798707 .16001892 .45799256 .100997928 .44499208 .09098816 .43699647 .084991458 .3600006 .084991458 .34599305 .084991458H.1619873C.2669983 .17803955 .3019867 .20603943 .3619995 .25306703 .43598939 .312088 .5049896 .374115 .5049896 .46914674 .5049896 .5900879 .39898683 .6640625 .2709961 .6640625 .14698792 .6640625 .06298828 .57710269 .06298828 .4851532 .06298828 .43414308 .10598755 .42915345 .115997318 .42915345 .13999939 .42915345 .16899109 .44615174 .16899109 .48214723 .16899109 .5001526 .1619873 .53515627 .10998535 .53515627 .14099121 .6060791 .20899964 .62805178 .2559967 .62805178 .35598756 .62805178 .4079895 .5501404 .4079895 .46914674 .4079895 .38212586 .34599305 .3130951 .31399537 .27708436L.07299805 .038986207C.06298828 .02999878 .06298828 .027999878 .06298828 0H.47499085L.5049896 .18203736Z"/>
<path id="font_1_2" d="M.2939911 .64004519C.2939911 .66400149 .2939911 .6660156 .2709961 .6660156 .20899964 .60227969 .12098694 .60227969 .08898926 .60227969V.57128909C.10899353 .57128909 .16799927 .57128909 .21998596 .5972748V.07902527C.21998596 .042999269 .21699524 .0309906 .1269989 .0309906H.09498596V0C.12998963 .0029907227 .21699524 .0029907227 .25698854 .0029907227 .29699708 .0029907227 .38398744 .0029907227 .4189911 0V.0309906H.3869934C.29699708 .0309906 .2939911 .041992189 .2939911 .07902527V.64004519Z"/>
<path id="font_1_1" d="M.45999146 .31976319C.45999146 .39982606 .45498658 .47988893 .41999818 .5539398 .37399293 .65000918 .2919922 .6660156 .25 .6660156 .18998719 .6660156 .116989139 .64001467 .07598877 .54693606 .04399109 .47789 .038986207 .39982606 .038986207 .31976319 .038986207 .24472046 .042999269 .15464783 .083999637 .07859802 .1269989-.0024719239 .19999695-.022460938 .24899292-.022460938 .30299378-.022460938 .3789978-.0014648438 .4229889 .09359741 .45498658 .16265869 .45999146 .2407074 .45999146 .31976319M.24899292-.00047302247C.20999146-.00047302247 .15098572 .024551392 .1329956 .12062073 .12199402 .18066406 .12199402 .2727356 .12199402 .3317871 .12199402 .39582826 .12199402 .46188355 .12998963 .5159149 .14898682 .63500979 .22399903 .64401248 .24899292 .64401248 .28199769 .64401248 .34799195 .6259918 .36698915 .52693179 .3769989 .47088624 .3769989 .39482118 .3769989 .3317871 .3769989 .25672914 .3769989 .18867493 .3659973 .12461853 .35099793 .029556275 .2939911-.00047302247 .24899292-.00047302247Z"/>
</defs>
<path transform="matrix(1.00005,0,0,-1.00002,17.471123,172.00119)" stroke-width=".3985" stroke-linecap="butt" stroke-miterlimit="10" stroke-linejoin="miter" fill="none" stroke="#000000" d="M0 0V170.08086H226.77448V0ZM226.77448 170.08086"/>
<path transform="matrix(1.00005,0,0,-1.00002,17.471123,172.00119)" stroke-width=".3985" stroke-linecap="butt" stroke-miterlimit="10" stroke-linejoin="miter" fill="none" stroke="#000000" d="M141.73404 0V170.08086"/>
<path transform="matrix(1.00005,0,0,-1.00002,17.471123,172.00119)" stroke-width=".3985" stroke-linecap="butt" stroke-miterlimit="10" stroke-linejoin="miter" fill="none" stroke="#000000" d="M0 56.69362H226.77448"/>
<path transform="matrix(1.00005,0,0,-1.00002,17.471123,172.00119)" stroke-width=".3985" stroke-linecap="butt" stroke-miterlimit="10" stroke-linejoin="miter" fill="none" stroke="#000000" d="M3.98503-7.03963H137.74901"/>
<path transform="matrix(-1.00005,-0,0,1.00002,21.456353,179.04096)" d="M3.58653 0C2.52383 .19925 .797 .797-.3985 1.49438V-1.49438C.797-.797 2.52383-.19925 3.58653 0"/>
<path transform="matrix(-1.00005,-0,0,1.00002,17.769999,179.04096)" stroke-width=".3985" stroke-linecap="square" stroke-miterlimit="10" stroke-linejoin="miter" fill="none" stroke="#000000" d="M.09961-2.5903V2.5903"/>
<path transform="matrix(1.00005,0,0,-1.00002,155.22702,179.04096)" d="M3.58653 0C2.52383 .19925 .797 .797-.3985 1.49438V-1.49438C.797-.797 2.52383-.19925 3.58653 0"/>
<path transform="matrix(1.00005,0,0,-1.00002,158.91336,179.04096)" stroke-width=".3985" stroke-linecap="square" stroke-miterlimit="10" stroke-linejoin="miter" fill="none" stroke="#000000" d="M.09961-2.5903V2.5903"/>
<path transform="matrix(1.00005,0,0,-1.00002,17.471123,172.00119)" d="M62.20876-20.30046H79.52526V-7.2388908H62.20876Z" fill="#ffffff"/>
<use data-text="3" xlink:href="#font_1_4" transform="matrix(9.963098,0,0,-9.962799,83.003398,188.98154)"/>
<use data-text="x" xlink:href="#font_2_1" transform="matrix(9.963098,0,0,-9.962799,87.98564,188.98154)"/>
<path transform="matrix(1.00005,0,0,-1.00002,17.471123,172.00119)" stroke-width=".3985" stroke-linecap="butt" stroke-miterlimit="10" stroke-linejoin="miter" fill="none" stroke="#000000" d="M145.71907-7.03963H222.78945"/>
<path transform="matrix(-1.00005,-0,0,1.00002,163.19748,179.04096)" d="M3.58653 0C2.52383 .19925 .797 .797-.3985 1.49438V-1.49438C.797-.797 2.52383-.19925 3.58653 0"/>
<path transform="matrix(-1.00005,-0,0,1.00002,159.51114,179.04096)" stroke-width=".3985" stroke-linecap="square" stroke-miterlimit="10" stroke-linejoin="miter" fill="none" stroke="#000000" d="M.09961-2.5903V2.5903"/>
<path transform="matrix(1.00005,0,0,-1.00002,240.2717,179.04096)" d="M3.58653 0C2.52383 .19925 .797 .797-.3985 1.49438V-1.49438C.797-.797 2.52383-.19925 3.58653 0"/>
<path transform="matrix(1.00005,0,0,-1.00002,243.95804,179.04096)" stroke-width=".3985" stroke-linecap="square" stroke-miterlimit="10" stroke-linejoin="miter" fill="none" stroke="#000000" d="M.09961-2.5903V2.5903"/>
<path transform="matrix(1.00005,0,0,-1.00002,17.471123,172.00119)" d="M178.443-20.30046H190.0655V-7.2388908H178.443Z" fill="#ffffff"/>
<use data-text="2" xlink:href="#font_1_3" transform="matrix(9.963098,0,0,-9.962799,199.2442,188.98154)"/>
<path transform="matrix(1.00005,0,0,-1.00002,17.471123,172.00119)" stroke-width=".3985" stroke-linecap="butt" stroke-miterlimit="10" stroke-linejoin="miter" fill="none" stroke="#000000" d="M-7.03963 60.67865V166.09583"/>
<path transform="matrix(0,1.00002,1.00005,0,10.431141,111.32132)" d="M3.58653 0C2.52383 .19925 .797 .797-.3985 1.49438V-1.49438C.797-.797 2.52383-.19925 3.58653 0"/>
<path transform="matrix(0,1.00002,1.00005,0,10.431141,115.00757)" stroke-width=".3985" stroke-linecap="square" stroke-miterlimit="10" stroke-linejoin="miter" fill="none" stroke="#000000" d="M.09961-2.5903V2.5903"/>
<path transform="matrix(0,-1.00002,-1.00005,-0,10.431141,5.9020388)" d="M3.58653 0C2.52383 .19925 .797 .797-.3985 1.49438V-1.49438C.797-.797 2.52383-.19925 3.58653 0"/>
<path transform="matrix(0,-1.00002,-1.00005,-0,10.431141,2.215805)" stroke-width=".3985" stroke-linecap="square" stroke-miterlimit="10" stroke-linejoin="miter" fill="none" stroke="#000000" d="M.09961-2.5903V2.5903"/>
<path transform="matrix(1.00005,0,0,-1.00002,17.471123,172.00119)" d="M-18.8614 106.85645H-7.2388908V119.91802H-18.8614Z" fill="#ffffff"/>
<use data-text="5" xlink:href="#font_1_5" transform="matrix(9.963098,0,0,-9.962799,1.9293442,61.821985)"/>
<path transform="matrix(1.00005,0,0,-1.00002,17.471123,172.00119)" stroke-width=".3985" stroke-linecap="butt" stroke-miterlimit="10" stroke-linejoin="miter" fill="none" stroke="#000000" d="M-7.03963 3.98503V52.70859"/>
<path transform="matrix(0,1.00002,1.00005,0,10.431141,168.01609)" d="M3.58653 0C2.52383 .19925 .797 .797-.3985 1.49438V-1.49438C.797-.797 2.52383-.19925 3.58653 0"/>
<path transform="matrix(0,1.00002,1.00005,0,10.431141,171.70233)" stroke-width=".3985" stroke-linecap="square" stroke-miterlimit="10" stroke-linejoin="miter" fill="none" stroke="#000000" d="M.09961-2.5903V2.5903"/>
<path transform="matrix(0,-1.00002,-1.00005,-0,10.431141,119.29154)" d="M3.58653 0C2.52383 .19925 .797 .797-.3985 1.49438V-1.49438C.797-.797 2.52383-.19925 3.58653 0"/>
<path transform="matrix(0,-1.00002,-1.00005,-0,10.431141,115.605319)" stroke-width=".3985" stroke-linecap="square" stroke-miterlimit="10" stroke-linejoin="miter" fill="none" stroke="#000000" d="M.09961-2.5903V2.5903"/>
<path transform="matrix(1.00005,0,0,-1.00002,17.471123,172.00119)" d="M-19.57402 22.88148H-7.2389109V33.81211H-19.57402Z" fill="#ffffff"/>
<use data-text="x" xlink:href="#font_2_1" transform="matrix(9.963098,0,0,-9.962799,1.217308,145.79866)"/>
<use data-text="3" xlink:href="#font_1_4" transform="matrix(9.963098,0,0,-9.962799,62.343366,147.70871)"/>
<use data-text="x" xlink:href="#font_2_1" transform="matrix(9.963098,0,0,-9.962799,67.32561,147.70871)"/>
<use data-text="&#x00b7;" xlink:href="#font_3_1" transform="matrix(9.963098,0,0,-9.962799,75.23401,147.70871)"/>
<use data-text="x" xlink:href="#font_2_1" transform="matrix(9.963098,0,0,-9.962799,80.215259,147.70871)"/>
<use data-text="=" xlink:href="#font_1_6" transform="matrix(9.963098,0,0,-9.962799,88.67668,147.70871)"/>
<use data-text="3" xlink:href="#font_1_4" transform="matrix(9.963098,0,0,-9.962799,99.17778,147.70871)"/>
<use data-text="x" xlink:href="#font_2_1" transform="matrix(9.963098,0,0,-9.962799,104.175449,147.70871)"/>
<use data-text="2" xlink:href="#font_4_1" transform="matrix(6.9741489,0,0,-6.97394,109.86873,144.09363)"/>
<use data-text="2" xlink:href="#font_1_3" transform="matrix(9.963098,0,0,-9.962799,180.8183,146.8637)"/>
<use data-text="&#x00b7;" xlink:href="#font_3_1" transform="matrix(9.963098,0,0,-9.962799,188.01465,146.8637)"/>
<use data-text="x" xlink:href="#font_2_1" transform="matrix(9.963098,0,0,-9.962799,192.99591,146.8637)"/>
<use data-text="=" xlink:href="#font_1_6" transform="matrix(9.963098,0,0,-9.962799,201.45732,146.8637)"/>
<use data-text="2" xlink:href="#font_1_3" transform="matrix(9.963098,0,0,-9.962799,211.95842,146.8637)"/>
<use data-text="x" xlink:href="#font_2_1" transform="matrix(9.963098,0,0,-9.962799,216.9561,146.8637)"/>
<use data-text="3" xlink:href="#font_1_4" transform="matrix(9.963098,0,0,-9.962799,62.44437,61.821985)"/>
<use data-text="x" xlink:href="#font_2_1" transform="matrix(9.963098,0,0,-9.962799,67.42662,61.821985)"/>
<use data-text="&#x00b7;" xlink:href="#font_3_1" transform="matrix(9.963098,0,0,-9.962799,75.33501,61.821985)"/>
<use data-text="5" xlink:href="#font_1_5" transform="matrix(9.963098,0,0,-9.962799,80.31627,61.821985)"/>
<use data-text="=" xlink:href="#font_1_6" transform="matrix(9.963098,0,0,-9.962799,88.05759,61.821985)"/>
<use data-text="1" xlink:href="#font_1_2" transform="matrix(9.963098,0,0,-9.962799,98.568668,61.821985)"/>
<use data-text="5" xlink:href="#font_1_5" transform="matrix(9.963098,0,0,-9.962799,103.5502,61.821985)"/>
<use data-text="x" xlink:href="#font_2_1" transform="matrix(9.963098,0,0,-9.962799,108.54468,61.821985)"/>
<use data-text="2" xlink:href="#font_1_3" transform="matrix(9.963098,0,0,-9.962799,181.53131,61.821985)"/>
<use data-text="&#x00b7;" xlink:href="#font_3_1" transform="matrix(9.963098,0,0,-9.962799,188.72768,61.821985)"/>
<use data-text="5" xlink:href="#font_1_5" transform="matrix(9.963098,0,0,-9.962799,193.70893,61.821985)"/>
<use data-text="=" xlink:href="#font_1_6" transform="matrix(9.963098,0,0,-9.962799,201.45026,61.821985)"/>
<use data-text="1" xlink:href="#font_1_2" transform="matrix(9.963098,0,0,-9.962799,211.96134,61.821985)"/>
<use data-text="0" xlink:href="#font_1_1" transform="matrix(9.963098,0,0,-9.962799,216.94287,61.821985)"/>
</svg>
