<svg xmlns="http://www.w3.org/2000/svg" xmlns:xlink="http://www.w3.org/1999/xlink" xmlns:inkscape="http://www.inkscape.org/namespaces/inkscape" version="1.1" width="151" height="139" viewBox="0 0 151 139">
<defs>
<path id="font_1_1" d="M.36698915 .3996582H.45298768C.47299195 .3996582 .48298646 .3996582 .48298646 .41966249 .48298646 .43066407 .47299195 .43066407 .45599366 .43066407H.37298585L.3939972 .5449524C.397995 .5660095 .4119873 .6370239 .41799928 .6490326 .4269867 .66804507 .44400025 .68307498 .46499635 .68307498 .46899415 .68307498 .49499513 .68307498 .5139923 .66503909 .46998597 .661026 .45999146 .6260376 .45999146 .6110382 .45999146 .58802798 .47799684 .57603457 .49699403 .57603457 .522995 .57603457 .5519867 .5980377 .5519867 .6360321 .5519867 .6820679 .5059967 .7050781 .46499635 .7050781 .43099977 .7050781 .36799623 .68707278 .33799745 .58802798 .33198548 .56700137 .32899476 .5569763 .30499269 .43066407H.23599243C.21699524 .43066407 .20599365 .43066407 .20599365 .4116516 .20599365 .3996582 .21499634 .3996582 .23399353 .3996582H.2999878L.22499085 .0048828127C.20698548-.09207153 .18998719-.18309021 .13798523-.18309021 .13398743-.18309021 .10899353-.18309021 .08999634-.16506958 .13598633-.1620636 .14498902-.12606812 .14498902-.111068729 .14498902-.08807373 .1269989-.07606506 .10798645-.07606506 .08198547-.07606506 .052993776-.09806824 .052993776-.13606262 .052993776-.18109131 .09700012-.20507813 .13798523-.20507813 .19299317-.20507813 .23298645-.14607239 .25099183-.108062747 .2829895-.04508972 .30599977 .07583618 .30699159 .082839969L.36698915 .3996582Z"/>
<path id="font_2_1" d="M.33099366-.2400055C.33099366-.23701477 .33099366-.23500061 .31399537-.21800232 .18899536-.0920105 .15699768 .09700012 .15699768 .25 .15699768 .42399598 .19499207 .59799197 .31799317 .72299197 .33099366 .73498538 .33099366 .7369995 .33099366 .73999026 .33099366 .746994 .32699586 .75 .32099916 .75 .31098939 .75 .22099304 .6819916 .1619873 .5549927 .11099243 .44499208 .09899902 .33399964 .09899902 .25 .09899902 .17199707 .10998535 .050994874 .16499329-.06201172 .22499085-.18501282 .31098939-.25 .32099916-.25 .32699586-.25 .33099366-.24700928 .33099366-.2400055Z"/>
<path id="font_1_2" d="M.33399964 .30233766C.33999635 .32835389 .36299134 .42037965 .43299867 .42037965 .43798829 .42037965 .46199037 .42037965 .48298646 .40734864 .45498658 .402359 .43499757 .37734986 .43499757 .35334779 .43499757 .33735658 .44599916 .31835938 .47299195 .31835938 .49499513 .31835938 .5269928 .3363495 .5269928 .37635804 .5269928 .42837525 .46798707 .4423828 .43399049 .4423828 .37599183 .4423828 .34098817 .38935853 .32899476 .36634828 .3039856 .43237306 .25 .4423828 .22099304 .4423828 .116989139 .4423828 .05999756 .3133545 .05999756 .28834535 .05999756 .27833558 .069992069 .27833558 .07199097 .27833558 .07998657 .27833558 .08299255 .28033448 .084991458 .28933717 .11898804 .39535523 .18499756 .42037965 .21899414 .42037965 .23799134 .42037965 .272995 .4113617 .272995 .35334779 .272995 .32235719 .2559967 .25532533 .21899414 .11528015 .20298767 .053268434 .16799927 .011245728 .12399292 .011245728 .117996219 .011245728 .09498596 .011245728 .07398987 .024276734 .09899902 .029266358 .12098694 .05027771 .12098694 .07827759 .12098694 .105270389 .09899902 .11328125 .083999637 .11328125 .053985597 .11328125 .0289917 .08728027 .0289917 .055267335 .0289917 .009246826 .07899475-.0107421879 .12298584-.0107421879 .18899536-.0107421879 .22499085 .059280397 .22799683 .0652771 .23999024 .028274537 .27598573-.0107421879 .33599855-.0107421879 .43899537-.0107421879 .49598695 .118270877 .49598695 .14328003 .49598695 .1532898 .4869995 .1532898 .48399354 .1532898 .47499085 .1532898 .47299195 .14929199 .47099305 .14228821 .43798829 .03527832 .36999513 .011245728 .33799745 .011245728 .29899598 .011245728 .2829895 .043273927 .2829895 .07727051 .2829895 .09927368 .2889862 .121276859 .2999878 .16529846L.33399964 .30233766Z"/>
<path id="font_2_2" d="M.2889862 .25C.2889862 .32798768 .27799989 .44898988 .22299195 .56199648 .16299439 .68499758 .07699585 .75 .066986087 .75 .06098938 .75 .056991579 .74598696 .056991579 .73999026 .056991579 .7369995 .056991579 .73498538 .07598877 .71699526 .17399597 .6179962 .23098755 .45899964 .23098755 .25 .23098755 .07899475 .19400025-.09700012 .069992069-.2230072 .056991579-.23500061 .056991579-.23701477 .056991579-.2400055 .056991579-.2460022 .06098938-.25 .066986087-.25 .07699585-.25 .16699219-.18200684 .22599793-.055007936 .2769928 .054992677 .2889862 .16600037 .2889862 .25Z"/>
<path id="font_2_3" d="M.68699648 .32714845C.70199587 .32714845 .72099307 .32714845 .72099307 .34713746 .72099307 .36714173 .70199587 .36714173 .6879883 .36714173H.08898926C.07499695 .36714173 .055999757 .36714173 .055999757 .34713746 .055999757 .32714845 .07499695 .32714845 .08999634 .32714845H.68699648M.6879883 .13284302C.70199587 .13284302 .72099307 .13284302 .72099307 .15284729 .72099307 .17285156 .70199587 .17285156 .68699648 .17285156H.08999634C.07499695 .17285156 .055999757 .17285156 .055999757 .15284729 .055999757 .13284302 .07499695 .13284302 .08898926 .13284302H.6879883Z"/>
<path id="font_3_1" d="M.3889923-.8549652 .21299744-.4659729C.20599365-.44996644 .20098877-.44996644 .19799805-.44996644 .19699097-.44996644 .19198609-.44996644 .18099976-.45796205L.085998538-.52996829C.07299805-.53996279 .07299805-.54296877 .07299805-.54597476 .07299805-.55096438 .07598877-.55696108 .08299255-.55696108 .08898926-.55696108 .10598755-.54296877 .116989139-.53497317 .12298584-.52996829 .13798523-.5189667 .14898682-.51097109L.34599305-.9439697C.35299684-.95996096 .35798646-.95996096 .36698915-.95996096 .38198854-.95996096 .3849945-.95396426 .3919983-.9399719L.84599307 .000030517579C.8529968 .014038086 .8529968 .018035889 .8529968 .02003479 .8529968 .030029297 .8450012 .040039064 .83299258 .040039064 .82499697 .040039064 .81799319 .03503418 .80999758 .01902771L.3889923-.8549652Z"/>
<path id="font_4_1" d="M.32998658 .3310547C.42199708 .3310547 .48298646 .2737732 .48298646 .17437744 .48298646 .07237244 .41999818 .01852417 .33099366 .01852417 .31999208 .01852417 .20098877 .01852417 .1499939 .070373538 .19099427 .07637024 .20298767 .1073761 .20298767 .13137818 .20298767 .16838074 .1749878 .19238281 .14199829 .19238281 .10998535 .19238281 .07998657 .17137146 .07998657 .12937927 .07998657 .025512696 .19799805-.022460938 .33399964-.022460938 .49798585-.022460938 .59999087 .07637024 .59999087 .17337036 .59999087 .25567628 .5269928 .3260193 .41299439 .35205079 .5329895 .3909912 .5649872 .46684266 .5649872 .5228424 .5649872 .60491946 .46299745 .6660156 .33699037 .6660156 .21398926 .6660156 .114990238 .61395266 .114990238 .5238342 .114990238 .47683717 .15299988 .46484376 .17199707 .46484376 .20098877 .46484376 .22898865 .48583985 .22898865 .5218353 .22898865 .5448303 .21699524 .5728302 .18099976 .57884219 .22399903 .625 .31298829 .628006 .33399964 .628006 .40699769 .628006 .45899964 .5908661 .45899964 .5228424 .45899964 .46484376 .42099 .37402345 .31599427 .368042 .28799439 .3670349 .28399659 .3660431 .2579956 .365036 .24699402 .3640442 .23599243 .36305238 .23599243 .34805299 .23599243 .3310547 .24598694 .3310547 .2639923 .3310547H.32998658Z"/>
</defs>
<path transform="matrix(1.00006,0,0,-1.00002,69.131069,69.83208)" stroke-width=".3985" stroke-linecap="butt" stroke-miterlimit="10" stroke-linejoin="miter" fill="none" stroke="#000000" d="M-64.44562 0H64.44562"/>
<path transform="matrix(-1.00006,-0,0,1.00002,4.6815798,69.83208)" d="M3.58653 0C2.52383 .19925 .797 .797-.3985 1.49438V-1.49438C.797-.797 2.52383-.19925 3.58653 0"/>
<path transform="matrix(1.00006,0,0,-1.00002,133.58055,69.83208)" d="M3.58653 0C2.52383 .19925 .797 .797-.3985 1.49438V-1.49438C.797-.797 2.52383-.19925 3.58653 0"/>
<path transform="matrix(1.00006,0,0,-1.00002,69.131069,69.83208)" stroke-width=".3985" stroke-linecap="butt" stroke-miterlimit="10" stroke-linejoin="miter" fill="none" stroke="#000000" d="M0-64.44562V64.44562"/>
<path transform="matrix(0,1.00002,1.00006,0,69.131069,134.27899)" d="M3.58653 0C2.52383 .19925 .797 .797-.3985 1.49438V-1.49438C.797-.797 2.52383-.19925 3.58653 0"/>
<path transform="matrix(0,-1.00002,-1.00006,-0,69.131069,5.38517)" d="M3.58653 0C2.52383 .19925 .797 .797-.3985 1.49438V-1.49438C.797-.797 2.52383-.19925 3.58653 0"/>
<path transform="matrix(1.00006,0,0,-1.00002,69.131069,69.83208)" stroke-width=".79701" stroke-linecap="butt" stroke-miterlimit="10" stroke-linejoin="miter" fill="none" stroke="#000000" d="M0 0C0 0 .00288 .31001 .00647 .42906 .01006 .54813 .01875 .73907 .02594 .85814 .03313 .9772 .04759 1.16815 .05838 1.28722 .06918 1.40628 .0894 1.59723 .10379 1.7163 .1182 1.83536 .14418 2.0263 .16219 2.14537 .18018 2.26443 .21196 2.45538 .23355 2.57445 .25516 2.69351 .29263 2.88446 .3179 3.00352 .34315 3.12259 .38681 3.31354 .41566 3.4326 .44452 3.55167 .49356 3.74263 .52596 3.8617 .55835 3.98076 .61322 4.1717 .64922 4.29077 .68523 4.40982 .74582 4.60078 .78548 4.71985 .82513 4.8389 .89186 5.02986 .93512 5.14891 .9784 5.26797 1.05046 5.45894 1.09734 5.57799 1.1442 5.69705 1.22247 5.888 1.27295 6.00706 1.32341 6.12613 1.40704 6.31708 1.4611 6.43614 1.51515 6.5552 1.605 6.74615 1.66266 6.86522 1.72032 6.98428 1.8155 7.17525 1.87677 7.29431 1.93803 7.41338 2.03941 7.60432 2.10428 7.72339 2.16914 7.84245 2.27586 8.0334 2.34433 8.15247 2.41281 8.27153 2.52574 8.46248 2.59781 8.58154 2.66989 8.7006 2.78815 8.89156 2.86382 9.01062 2.9395 9.12968 3.0639 9.32063 3.14325 9.4397 3.22258 9.55875 3.3527 9.74971 3.43564 9.86877 3.51857 9.98782 3.65453 10.17879 3.741 10.29784 3.82747 10.4169 3.96884 10.60788 4.05891 10.72693 4.14899 10.846 4.29651 11.03694 4.39024 11.156 4.48398 11.27507 4.6372 11.46602 4.73454 11.58508 4.83188 11.70415 4.99088 11.8951 5.09181 12.01416 5.19276 12.13322 5.35753 12.32417 5.46208 12.44324 5.56662 12.5623 5.73717 12.75325 5.8453 12.87231 5.95343 12.99138 6.12978 13.18233 6.24152 13.30139 6.35326 13.42046 6.53535 13.6114 6.6507 13.73047 6.76602 13.84953 6.9539 14.0405 7.07285 14.15956 7.19179 14.27861 7.38544 14.46957 7.50798 14.58864 7.63052 14.70769 7.82994 14.89865 7.95609 15.0177 8.08223 15.13676 8.28743 15.32773 8.41718 15.44678 8.54692 15.56584 8.7579 15.75679 8.89124 15.87585 9.02457 15.99492 9.24133 16.18587 9.37828 16.30493 9.51521 16.424 9.73769 16.61494 9.87828 16.73401 10.01889 16.85307 10.24751 17.04402 10.39171 17.16309 10.53592 17.28215 10.76993 17.4731 10.91768 17.59216 11.06541 17.71123 11.30527 17.90219 11.45662 18.02126 11.60797 18.14032 11.85352 18.33127 12.00853 18.45033 12.16356 18.5694 12.41525 18.76035 12.57387 18.87941 12.73248 18.99847 12.98953 19.18942 13.15173 19.30849 13.31395 19.42754 13.57721 19.6185 13.74303 19.73756 13.90883 19.85661 14.17743 20.04758 14.34685 20.16663 14.51625 20.28569 14.79106 20.47665 14.96408 20.5957 15.13708 20.71477 15.41724 20.90572 15.59384 21.02478 15.77046 21.14384 16.05681 21.33481 16.23703 21.45387 16.41725 21.57294 16.70892 21.76389 16.89275 21.88295 17.07657 22.00201 17.37448 22.19296 17.56189 22.31203 17.7493 22.43109 18.05255 22.62204 18.24356 22.7411 18.43459 22.86017 18.74399 23.05112 18.93866 23.17018 19.13335 23.28925 19.44844 23.4802 19.64673 23.59926 19.845 23.71832 20.16595 23.90927 20.36777 24.02834 20.5696 24.1474 20.89594 24.33835 21.10136 24.45741 21.30678 24.57646 21.63927 24.76744 21.84834 24.8865 22.0574 25.00555 22.39565 25.19652 22.6083 25.31557 22.82098 25.43463 23.16498 25.62558 23.38126 25.74464 23.59753 25.86371 23.94731 26.05466 24.16719 26.17372 24.38707 26.29279 24.7426 26.48373 24.96608 26.6028 25.18956 26.72186 25.55087 26.91281 25.77795 27.03188 26.00505 27.15094 26.37212 27.34189 26.6028 27.46095 26.8335 27.58002 27.20633 27.77097 27.44063 27.89003 27.67493 28.0091 28.05356 28.20006 28.29144 28.31912 28.52931 28.43819 28.91373 28.62914 29.15521 28.7482 29.3967 28.86726 29.78687 29.05821 30.03195 29.17728 30.27704 29.29633 30.673 29.48729 30.92169 29.60635 31.1704 29.7254 31.57211 29.91637 31.8244 30.03542 32.0767 30.15448 32.48413 30.34544 32.74008 30.4645 32.99603 30.58356 33.40962 30.7745 33.66919 30.89357 33.92874 31.01263 34.34772 31.20358 34.61081 31.32265 34.87389 31.44171 35.29872 31.63266 35.56541 31.75172 35.8321 31.87079 36.26265 32.06175 36.533 32.18082 36.80336 32.29988 37.24005 32.49083 37.514 32.6099 37.78796 32.72896 38.23 32.9199 38.50755 33.03897 38.78511 33.15804 39.23334 33.34898 39.5145 33.46805 39.79565 33.58711 40.24922 33.77806 40.53398 33.89713 40.81876 34.01619 41.27853 34.20714 41.56688 34.3262 41.85524 34.44525 42.32037 34.63622 42.61232 34.75528 42.90428 34.87433 43.37563 35.06529 43.67119 35.18434 43.96675 35.3034 44.44342 35.49438 44.74258 35.61343 45.04173 35.7325 45.52463 35.92345 45.8274 36.04251 46.13016 36.16158 46.61836 36.35252 46.92473 36.47159 47.2311 36.59065 47.72546 36.7816 48.03549 36.90067 48.34552 37.01973 48.8456 37.21068 49.15923 37.32974 49.47285 37.4488 49.97878 37.63976 50.29593 37.75882 50.6131 37.87788 51.12444 38.06883 51.44519 38.1879 51.76595 38.30696 52.28343 38.49791 52.60785 38.61697 52.93228 38.73604 53.45546 38.927 53.78348 39.04607 54.11151 39.16512 54.64047 39.35608 54.9721 39.47514 55.30374 39.5942 55.83846 39.78516 56.17369 39.9042 56.50893 40.02327 57.04942 40.21423 57.38826 40.33328 57.7271 40.45235 58.27338 40.6433 58.6158 40.76236 58.95822 40.88142 59.5103 41.07237 59.85632 41.19144 60.20235 41.3105 60.7602 41.50145 61.10982 41.62051 61.45944 41.73958 62.02306 41.93053 62.3763 42.04959 62.72952 42.16866 63.65573 42.47868 63.65573 42.47868"/>
<use data-text="f" xlink:href="#font_1_1" transform="matrix(9.963197,0,0,-9.962799,102.49007,22.965138)"/>
<use data-text="(" xlink:href="#font_2_1" transform="matrix(9.963197,0,0,-9.962799,108.440418,22.965138)"/>
<use data-text="x" xlink:href="#font_1_2" transform="matrix(9.963197,0,0,-9.962799,112.31564,22.965138)"/>
<use data-text=")" xlink:href="#font_2_2" transform="matrix(9.963197,0,0,-9.962799,118.00899,22.965138)"/>
<use data-text="=" xlink:href="#font_2_3" transform="matrix(9.963197,0,0,-9.962799,124.63452,22.965138)"/>
<use data-text="&#x221a;" xlink:href="#font_3_1" transform="matrix(9.963197,0,0,-9.962799,135.16802,15.788994)"/>
<path transform="matrix(1.00006,0,0,-1.00002,-48.646,-30.868943)" stroke-width=".3985" stroke-linecap="butt" stroke-miterlimit="10" stroke-linejoin="miter" fill="none" stroke="#000000" d="M192.105-46.458H197.799"/>
<use data-text="x" xlink:href="#font_1_2" transform="matrix(9.963197,0,0,-9.962799,143.47052,22.965138)"/>
<path transform="matrix(1.00006,0,0,-1.00002,69.131069,69.83208)" stroke-width=".79701" stroke-linecap="butt" stroke-dasharray="2.98883,2.98883" stroke-miterlimit="10" stroke-linejoin="miter" fill="none" stroke="#000000" d="M-62.2781-36.85092-58.57904-36.10654-55.03006-35.36214-51.62814-34.61772-48.36855-33.87334-45.24907-33.12894-42.26674-32.38454-39.41846-31.64014-36.70126-30.89575-34.11209-30.15134-31.64706-29.40694-29.30443-28.66255-27.07945-27.91815-24.97084-27.17375-22.97424-26.42935-21.08708-25.68495-19.30632-24.94055-17.62894-24.19617-16.05147-23.45177-14.57047-22.70737-13.18419-21.96297-11.88873-21.21857-10.68065-20.47417-9.55779-19.72977-8.5158-18.98538-7.55296-18.24098-6.66539-17.49657-5.8505-16.75218-5.10435-16.00778-4.42485-15.26338-3.80849-14.519-3.25224-13.7746-2.75308-13.03018-2.30757-12.2858-1.91267-11.5414-1.56621-10.797-1.26385-10.0526-1.00348-9.30821-.78114-8.5638-.59473-7.8194-.4403-7.07501-.3153-6.33061-.21667-5.58621-.14099-4.84183-.0852-4.09741-.04669-3.35301-.02205-2.60863-.00778-1.86423-.00171-1.11983 0-.37543V.36894L.00128 1.11334 .00778 1.85774 .0216 2.60213 .04626 3.34653 .08476 4.09094 .14056 4.83533 .21582 5.57973 .31444 6.32413 .43944 7.06851 .59343 7.81291 .77942 8.55733 1.00131 9.30171 1.26169 10.04611 1.56319 10.79051 1.90964 11.5349 2.30368 12.2793 2.74876 13.02371 3.24748 13.76811 3.80328 14.5125 4.41922 15.2569 5.09831 16.0013 5.84357 16.74568 6.65805 17.4901 7.54518 18.2345 8.50714 18.97888 9.54826 19.72328 10.6707 20.46768 11.87749 21.21207 13.17249 21.95648 14.5579 22.70088 16.03807 23.44527 17.61465 24.18967 19.29118 24.93407 21.07108 25.67848 22.95737 26.42287 24.9531 27.16727 27.06085 27.91167 29.2841 28.65605 31.6263 29.40045 34.09003 30.14487 36.67834 30.88925 39.39467 31.63365 42.24164 32.37805 45.2227 33.12244 48.34087 33.86684 51.59874 34.61125 55.00021 35.35564 58.54788 36.10004 62.24522 36.84444"/>
<use data-text="f" xlink:href="#font_1_1" transform="matrix(9.963197,0,0,-9.962799,73.830348,86.74742)"/>
<use data-text="(" xlink:href="#font_2_1" transform="matrix(9.963197,0,0,-9.962799,79.78069,86.74742)"/>
<use data-text="x" xlink:href="#font_1_2" transform="matrix(9.963197,0,0,-9.962799,83.65592,86.74742)"/>
<use data-text=")" xlink:href="#font_2_2" transform="matrix(9.963197,0,0,-9.962799,89.349269,86.74742)"/>
<use data-text="=" xlink:href="#font_2_3" transform="matrix(9.963197,0,0,-9.962799,95.9748,86.74742)"/>
<use data-text="3" xlink:href="#font_4_1" transform="matrix(4.9815986,0,0,-4.9813997,109.27645,83.39635)"/>
<use data-text="&#x221a;" xlink:href="#font_3_1" transform="matrix(9.963197,0,0,-9.962799,107.131328,79.57127)"/>
<path transform="matrix(1.00006,0,0,-1.00002,-77.30572,32.913339)" stroke-width=".3985" stroke-linecap="butt" stroke-miterlimit="10" stroke-linejoin="miter" fill="none" stroke="#000000" d="M192.728-46.458H198.422"/>
<use data-text="x" xlink:href="#font_1_2" transform="matrix(9.963197,0,0,-9.962799,115.43383,86.74742)"/>
</svg>
