<svg xmlns="http://www.w3.org/2000/svg" xmlns:xlink="http://www.w3.org/1999/xlink" xmlns:inkscape="http://www.inkscape.org/namespaces/inkscape" version="1.1" width="120" height="85" viewBox="0 0 120 85">
<defs>
<path id="font_1_1" d="M.44198609 .69781497C.43499757 .7108154 .43299867 .7158203 .41600038 .7158203 .39898683 .7158203 .39698792 .7108154 .3899994 .69781497L.051986696 .019989014C.04699707 .010986328 .04699707 .008987427 .04699707 .0079956059 .04699707 0 .052993776 0 .068984989 0H.7630005C.7789917 0 .7849884 0 .7849884 .0079956059 .7849884 .008987427 .7849884 .010986328 .7799988 .019989014L.44198609 .69781497M.38398744 .61582949 .6529999 .07598877H.11399841L.38398744 .61582949Z"/>
<path id="font_2_2" d="M.2869873 .68333438C.2869873 .6843262 .2869873 .69433596 .27398683 .69433596 .25099183 .69433596 .17799378 .6863251 .1519928 .6843262 .14399719 .68333438 .1329956 .6823273 .1329956 .6643219 .1329956 .6523285 .14199829 .6523285 .15699768 .6523285 .20498657 .6523285 .20698548 .6453247 .20698548 .6353302L.20399475 .6153412 .05899048 .039260866C.054992677 .025253296 .054992677 .023254395 .054992677 .01725769 .054992677-.0057525637 .07499695-.0107421879 .083999637-.0107421879 .099990848-.0107421879 .115997318 .0012512207 .12098694 .015258789L.13999939 .091278079 .1619873 .18130493C.16799927 .2033081 .17399597 .22531128 .1789856 .24832154 .18099976 .25431825 .18899536 .28733827 .18998719 .29333497 .19299317 .30233766 .22399903 .35835267 .2579956 .38536073 .27999879 .4013672 .31098939 .42037965 .35398866 .42037965 .39698792 .42037965 .4079895 .3863678 .4079895 .35035707 .4079895 .29634095 .36999513 .18730164 .34599305 .12628174 .33799745 .103271488 .33299256 .091278079 .33299256 .0712738 .33299256 .024261475 .36799623-.0107421879 .4149933-.0107421879 .5089874-.0107421879 .54599 .13528443 .54599 .14329529 .54599 .1532898 .5369873 .1532898 .5339966 .1532898 .5239868 .1532898 .5239868 .15029907 .5189972 .13528443 .5039978 .08227539 .47200013 .011245728 .4169922 .011245728 .3999939 .011245728 .3929901 .021255494 .3929901 .044265748 .3929901 .0692749 .4019928 .09327698 .41099549 .11528015 .4269867 .15829468 .47200013 .2773285 .47200013 .3353424 .47200013 .4003601 .43199159 .4423828 .35699464 .4423828 .2939911 .4423828 .24598694 .41137696 .20899964 .36535646L.2869873 .68333438Z"/>
<path id="font_2_1" d="M.23899842 .68333438C.23899842 .6843262 .23899842 .69433596 .22599793 .69433596 .20298767 .69433596 .12998963 .6863251 .10398865 .6843262 .09599304 .68333438 .084991458 .6823273 .084991458 .6643219 .084991458 .6523285 .09399414 .6523285 .10899353 .6523285 .15699768 .6523285 .15899658 .6453247 .15899658 .6353302 .15899658 .6283264 .1499939 .5943451 .14498902 .573349L.06298828 .24731446C.050994874 .1973114 .04699707 .18130493 .04699707 .14628601 .04699707 .05126953 .099990848-.0107421879 .17399597-.0107421879 .2919922-.0107421879 .4149933 .1382904 .4149933 .28233338 .4149933 .37335206 .3619995 .4423828 .28199769 .4423828 .23599243 .4423828 .19499207 .41337586 .16499329 .38235475L.23899842 .68333438M.14498902 .30534364C.15098572 .3273468 .15098572 .3293457 .1599884 .3403473 .20899964 .405365 .2539978 .42037965 .27999879 .42037965 .31599427 .42037965 .34298707 .3903656 .34298707 .32633973 .34298707 .26733399 .30999757 .15229798 .2919922 .11428833 .25898744 .04725647 .21299744 .011245728 .17399597 .011245728 .13999939 .011245728 .10699463 .038253786 .10699463 .11227417 .10699463 .13128662 .10699463 .15029907 .12298584 .21331787L.14498902 .30534364Z"/>
</defs>
<path transform="matrix(1.00002,0,0,-1.00002,18.779076,72.66714)" stroke-width=".3985" stroke-linecap="butt" stroke-miterlimit="10" stroke-linejoin="miter" fill="none" stroke="#000000" d="M85.04042 0V56.69362H99.21382V0ZM99.21382 56.69362"/>
<g>
<path transform="matrix(1.00002,0,0,-1.00002,18.779076,72.66714)" d="M85.04042 0V56.69362H99.21382V0ZM99.21382 56.69362" fill="#0000ff" fill-opacity=".5"/>
<path transform="matrix(1.00002,0,0,-1.00002,18.779076,72.66714)" stroke-width=".3985" stroke-linecap="butt" stroke-miterlimit="10" stroke-linejoin="miter" fill="none" stroke="#000000" stroke-opacity=".5" d="M85.04042 0V56.69362H99.21382V0ZM99.21382 56.69362"/>
</g>
<path transform="matrix(1.00002,0,0,-1.00002,18.779076,72.66714)" stroke-width=".3985" stroke-linecap="butt" stroke-miterlimit="10" stroke-linejoin="miter" fill="none" stroke="#000000" d="M0 56.69362V70.867H85.04042V56.69362ZM85.04042 70.867"/>
<g>
<path transform="matrix(1.00002,0,0,-1.00002,18.779076,72.66714)" d="M0 56.69362V70.867H85.04042V56.69362ZM85.04042 70.867" fill="#00ff00" fill-opacity=".5"/>
<path transform="matrix(1.00002,0,0,-1.00002,18.779076,72.66714)" stroke-width=".3985" stroke-linecap="butt" stroke-miterlimit="10" stroke-linejoin="miter" fill="none" stroke="#000000" stroke-opacity=".5" d="M0 56.69362V70.867H85.04042V56.69362ZM85.04042 70.867"/>
</g>
<path transform="matrix(1.00002,0,0,-1.00002,18.779076,72.66714)" stroke-width=".3985" stroke-linecap="butt" stroke-miterlimit="10" stroke-linejoin="miter" fill="none" stroke="#000000" d="M0 0V56.69362H85.04042V0ZM85.04042 56.69362"/>
<path transform="matrix(1.00002,0,0,-1.00002,18.779076,72.66714)" stroke-width=".3985" stroke-linecap="butt" stroke-dasharray=".3985,1.99255" stroke-miterlimit="10" stroke-linejoin="miter" fill="none" stroke="#000000" d="M0 0V70.867H99.21382V0ZM99.21382 70.867"/>
<use data-text="&#x2206;" xlink:href="#font_1_1" transform="matrix(9.962799,0,0,-9.962799,1.2167282,12.344929)"/>
<use data-text="h" xlink:href="#font_2_2" transform="matrix(9.962799,0,0,-9.962799,9.518898,12.344929)"/>
<use data-text="h" xlink:href="#font_2_2" transform="matrix(9.962799,0,0,-9.962799,9.51889,47.77864)"/>
<use data-text="b" xlink:href="#font_2_1" transform="matrix(9.962799,0,0,-9.962799,59.161886,83.10535)"/>
<use data-text="&#x2206;" xlink:href="#font_1_1" transform="matrix(9.962799,0,0,-9.962799,104.61879,83.10535)"/>
<use data-text="b" xlink:href="#font_2_1" transform="matrix(9.962799,0,0,-9.962799,112.92096,83.10535)"/>
</svg>
