<svg xmlns="http://www.w3.org/2000/svg" xmlns:xlink="http://www.w3.org/1999/xlink" xmlns:inkscape="http://www.inkscape.org/namespaces/inkscape" version="1.1" width="107" height="116" viewBox="0 0 107 116">
<defs>
<path id="font_1_1" d="M.33099366-.2400055C.33099366-.23701477 .33099366-.23500061 .31399537-.21800232 .18899536-.0920105 .15699768 .09700012 .15699768 .25 .15699768 .42399598 .19499207 .59799197 .31799317 .72299197 .33099366 .73498538 .33099366 .7369995 .33099366 .73999026 .33099366 .746994 .32699586 .75 .32099916 .75 .31098939 .75 .22099304 .6819916 .1619873 .5549927 .11099243 .44499208 .09899902 .33399964 .09899902 .25 .09899902 .17199707 .10998535 .050994874 .16499329-.06201172 .22499085-.18501282 .31098939-.25 .32099916-.25 .32699586-.25 .33099366-.24700928 .33099366-.2400055Z"/>
<path id="font_2_2" d="M.2869873 .68333438C.2869873 .6843262 .2869873 .69433596 .27398683 .69433596 .25099183 .69433596 .17799378 .6863251 .1519928 .6843262 .14399719 .68333438 .1329956 .6823273 .1329956 .6643219 .1329956 .6523285 .14199829 .6523285 .15699768 .6523285 .20498657 .6523285 .20698548 .6453247 .20698548 .6353302L.20399475 .6153412 .05899048 .039260866C.054992677 .025253296 .054992677 .023254395 .054992677 .01725769 .054992677-.0057525637 .07499695-.0107421879 .083999637-.0107421879 .099990848-.0107421879 .115997318 .0012512207 .12098694 .015258789L.13999939 .091278079 .1619873 .18130493C.16799927 .2033081 .17399597 .22531128 .1789856 .24832154 .18099976 .25431825 .18899536 .28733827 .18998719 .29333497 .19299317 .30233766 .22399903 .35835267 .2579956 .38536073 .27999879 .4013672 .31098939 .42037965 .35398866 .42037965 .39698792 .42037965 .4079895 .3863678 .4079895 .35035707 .4079895 .29634095 .36999513 .18730164 .34599305 .12628174 .33799745 .103271488 .33299256 .091278079 .33299256 .0712738 .33299256 .024261475 .36799623-.0107421879 .4149933-.0107421879 .5089874-.0107421879 .54599 .13528443 .54599 .14329529 .54599 .1532898 .5369873 .1532898 .5339966 .1532898 .5239868 .1532898 .5239868 .15029907 .5189972 .13528443 .5039978 .08227539 .47200013 .011245728 .4169922 .011245728 .3999939 .011245728 .3929901 .021255494 .3929901 .044265748 .3929901 .0692749 .4019928 .09327698 .41099549 .11528015 .4269867 .15829468 .47200013 .2773285 .47200013 .3353424 .47200013 .4003601 .43199159 .4423828 .35699464 .4423828 .2939911 .4423828 .24598694 .41137696 .20899964 .36535646L.2869873 .68333438Z"/>
<path id="font_2_1" d="M.20298767 .0009918213C.20298767 .066986087 .17799378 .10598755 .13899231 .10598755 .10598755 .10598755 .085998538 .08099365 .085998538 .052993776 .085998538 .025985718 .10598755 0 .13899231 0 .15098572 0 .1639862 .0039978029 .17399597 .0129852299 .1769867 .01499939 .17799378 .015991211 .1789856 .015991211 .17999268 .015991211 .18099976 .01499939 .18099976 .0009918213 .18099976-.07316589 .1459961-.13328552 .11299133-.16635132 .101989749-.17736817 .101989749-.17936707 .101989749-.18237305 .101989749-.18936157 .10699463-.19335938 .11199951-.19335938 .12298584-.19335938 .20298767-.116256717 .20298767 .0009918213Z"/>
<path id="font_2_3" d="M.2869873 .68333438C.2869873 .6843262 .2869873 .69433596 .27398683 .69433596 .25099183 .69433596 .17799378 .6863251 .1519928 .6843262 .14399719 .68333438 .1329956 .6823273 .1329956 .6643219 .1329956 .6523285 .14199829 .6523285 .15699768 .6523285 .20498657 .6523285 .20698548 .6453247 .20698548 .6353302L.20399475 .6153412 .05899048 .039260866C.054992677 .025253296 .054992677 .023254395 .054992677 .01725769 .054992677-.0057525637 .07499695-.0107421879 .083999637-.0107421879 .09700012-.0107421879 .11199951-.0017547608 .117996219 .010253906 .12298584 .019256592 .16799927 .20431519 .17399597 .22932434 .20799256 .22631836 .2899933 .21031189 .2899933 .14428711 .2899933 .13729859 .2899933 .13328552 .2869873 .123291019 .2849884 .11128235 .2829895 .09927368 .2829895 .088272098 .2829895 .029251099 .32299806-.0107421879 .375-.0107421879 .40499879-.0107421879 .43199159 .0052490236 .45399476 .042266847 .47898866 .08627319 .48999024 .14129639 .48999024 .14329529 .48999024 .1532898 .48098756 .1532898 .47799684 .1532898 .46798707 .1532898 .46699525 .14929199 .46398927 .13528443 .44400025 .06227112 .42099 .011245728 .3769989 .011245728 .35798646 .011245728 .34498597 .022247315 .34498597 .058273317 .34498597 .07527161 .34899903 .09828186 .35299684 .11428833 .35699464 .13128662 .35699464 .13528443 .35699464 .14529419 .35699464 .21031189 .2939911 .23931885 .20899964 .2503357 .23999024 .26834107 .27198792 .30033876 .29499818 .32435609 .34298707 .37734986 .3889923 .42037965 .43798829 .42037965 .44400025 .42037965 .44499208 .42037965 .44699098 .41937257 .45899964 .41737367 .45999146 .41737367 .46798707 .4113617 .46998597 .4103546 .46998597 .40934754 .47200013 .40734864 .42399598 .4043579 .4149933 .36535646 .4149933 .35334779 .4149933 .33735658 .42599488 .31835938 .45298768 .31835938 .47898866 .31835938 .5079956 .3403473 .5079956 .37934876 .5079956 .40934754 .4850006 .4423828 .43998719 .4423828 .4119873 .4423828 .3659973 .43437196 .2939911 .35435487 .2599945 .3163452 .22099304 .27633668 .18299866 .26133729L.2869873 .68333438Z"/>
<path id="font_1_2" d="M.2889862 .25C.2889862 .32798768 .27799989 .44898988 .22299195 .56199648 .16299439 .68499758 .07699585 .75 .066986087 .75 .06098938 .75 .056991579 .74598696 .056991579 .73999026 .056991579 .7369995 .056991579 .73498538 .07598877 .71699526 .17399597 .6179962 .23098755 .45899964 .23098755 .25 .23098755 .07899475 .19400025-.09700012 .069992069-.2230072 .056991579-.23500061 .056991579-.23701477 .056991579-.2400055 .056991579-.2460022 .06098938-.25 .066986087-.25 .07699585-.25 .16699219-.18200684 .22599793-.055007936 .2769928 .054992677 .2889862 .16600037 .2889862 .25Z"/>
<path id="font_2_4" d="M.33399964 .30233766C.33999635 .32835389 .36299134 .42037965 .43299867 .42037965 .43798829 .42037965 .46199037 .42037965 .48298646 .40734864 .45498658 .402359 .43499757 .37734986 .43499757 .35334779 .43499757 .33735658 .44599916 .31835938 .47299195 .31835938 .49499513 .31835938 .5269928 .3363495 .5269928 .37635804 .5269928 .42837525 .46798707 .4423828 .43399049 .4423828 .37599183 .4423828 .34098817 .38935853 .32899476 .36634828 .3039856 .43237306 .25 .4423828 .22099304 .4423828 .116989139 .4423828 .05999756 .3133545 .05999756 .28834535 .05999756 .27833558 .069992069 .27833558 .07199097 .27833558 .07998657 .27833558 .08299255 .28033448 .084991458 .28933717 .11898804 .39535523 .18499756 .42037965 .21899414 .42037965 .23799134 .42037965 .272995 .4113617 .272995 .35334779 .272995 .32235719 .2559967 .25532533 .21899414 .11528015 .20298767 .053268434 .16799927 .011245728 .12399292 .011245728 .117996219 .011245728 .09498596 .011245728 .07398987 .024276734 .09899902 .029266358 .12098694 .05027771 .12098694 .07827759 .12098694 .105270389 .09899902 .11328125 .083999637 .11328125 .053985597 .11328125 .0289917 .08728027 .0289917 .055267335 .0289917 .009246826 .07899475-.0107421879 .12298584-.0107421879 .18899536-.0107421879 .22499085 .059280397 .22799683 .0652771 .23999024 .028274537 .27598573-.0107421879 .33599855-.0107421879 .43899537-.0107421879 .49598695 .118270877 .49598695 .14328003 .49598695 .1532898 .4869995 .1532898 .48399354 .1532898 .47499085 .1532898 .47299195 .14929199 .47099305 .14228821 .43798829 .03527832 .36999513 .011245728 .33799745 .011245728 .29899598 .011245728 .2829895 .043273927 .2829895 .07727051 .2829895 .09927368 .2889862 .121276859 .2999878 .16529846L.33399964 .30233766Z"/>
<path id="font_3_64" d="M.27598573 .18710327V.24511719H.010986328V.18710327H.27598573Z"/>
<path id="font_3_66" d="M.24699402 0V.0309906C.18099976 .0309906 .1769867 .035995485 .1769867 .075042728V.4423828L.036987306 .43066407V.3996582C.101989749 .3996582 .11099243 .3936615 .11099243 .3447113V.07595825C.11099243 .0309906 .099990848 .0309906 .032989503 .0309906V0L.14299011 .0029907227C.17799378 .0029907227 .21299744 .0009918213 .24699402 0M.19198609 .603775C.19198609 .6307678 .16899109 .6567688 .13899231 .6567688 .10499573 .6567688 .084991458 .6287689 .084991458 .603775 .084991458 .57676699 .10798645 .55078127 .13798523 .55078127 .17199707 .55078127 .19198609 .5787811 .19198609 .603775Z"/>
<path id="font_3_77" d="M.5349884 0V.0309906C.48298646 .0309906 .45799256 .0309906 .45700074 .061019899V.25221253C.45700074 .3383026 .45700074 .36932374 .42599488 .405365 .4119873 .42237855 .3789978 .4423828 .32099916 .4423828 .24798584 .4423828 .20098877 .39935304 .17298889 .33729554V.4423828L.03199768 .43066407V.3996582C.101989749 .3996582 .10998535 .39266969 .10998535 .34370423V.07595825C.10998535 .0309906 .09899902 .0309906 .03199768 .0309906V0L.14498902 .0029907227 .25698854 0V.0309906C.18998719 .0309906 .1789856 .0309906 .1789856 .07595825V.25978089C.1789856 .36431886 .25 .42037965 .31399537 .42037965 .3769989 .42037965 .3880005 .36631776 .3880005 .30926515V.076034549C.3880005 .0309906 .3769989 .0309906 .30999757 .0309906V0L.4229889 .0029907227 .5349884 0Z"/>
<path id="font_3_105" d="M.33198548 .12385559V.18066406H.30699159V.12585449C.30699159 .052108766 .2769928 .014251709 .23999024 .014251709 .17298889 .014251709 .17298889 .10491943 .17298889 .12187195V.3996582H.31599427V.43066407H.17298889V.6142578H.147995C.14698792 .5324249 .116989139 .42565919 .018997193 .42166139V.3996582H.10398865V.12408447C.10398865 .0012512207 .19699097-.0107421879 .23298645-.0107421879 .3039856-.0107421879 .33198548 .060180665 .33198548 .12408447V.12385559Z"/>
<path id="font_3_50" d="M.4149933 .11933899C.4149933 .12934876 .40699769 .13134766 .4019928 .13134766 .3929901 .13134766 .3909912 .12535095 .3889923 .11734009 .35398866 .014251709 .2639923 .014251709 .2539978 .014251709 .20399475 .014251709 .1639862 .044281007 .14099121 .08131409 .11099243 .12934876 .11099243 .19540406 .11099243 .23144531H.3899994C.4119873 .23144531 .4149933 .23144531 .4149933 .2524414 .4149933 .35131837 .36099244 .4482422 .23599243 .4482422 .11999512 .4482422 .027999878 .34532167 .027999878 .22042847 .027999878 .08631897 .1329956-.0107421879 .24798584-.0107421879 .36999513-.0107421879 .4149933 .10032654 .4149933 .11933899M.34899903 .2524414H.11199951C.117996219 .40126039 .20199585 .426239 .23599243 .426239 .33898927 .426239 .34899903 .2913971 .34899903 .2524414Z"/>
<path id="font_3_96" d="M.3639984 .38137818C.3639984 .41337586 .33299256 .4423828 .2899933 .4423828 .21699524 .4423828 .18099976 .37538148 .16699219 .3323822V.4423828L.027999878 .43066407V.3996582C.09799194 .3996582 .10598755 .39266969 .10598755 .34370423V.07595825C.10598755 .0309906 .09498596 .0309906 .027999878 .0309906V0L.14199829 .0029907227C.18199158 .0029907227 .22898865 .0029907227 .2689972 0V.0309906H.24798584C.17399597 .0309906 .17199707 .04197693 .17199707 .07795715V.23181153C.17199707 .33137513 .21398926 .42037965 .2899933 .42037965 .29699708 .42037965 .29899598 .42037965 .30099488 .41937257 .2979889 .41838075 .27799989 .40637208 .27799989 .3803711 .27799989 .35237123 .29899598 .33737184 .32099916 .33737184 .33898927 .33737184 .3639984 .3493805 .3639984 .38137818Z"/>
<path id="font_3_43" d="M.4149933 .119140628C.4149933 .12911988 .40499879 .12911988 .4019928 .12911988 .3929901 .12911988 .3909912 .12512207 .3889923 .119140628 .3600006 .026229859 .29499818 .014251709 .2579956 .014251709 .20498657 .014251709 .116989139 .0572052 .116989139 .21801758 .116989139 .38093568 .19898987 .42323304 .2519989 .42323304 .26098634 .42323304 .32398988 .42222596 .35899354 .38594056 .31799317 .38293458 .31199647 .3529358 .31199647 .3399353 .31199647 .31393434 .32998658 .2939453 .35798646 .2939453 .38398744 .2939453 .4039917 .3109436 .4039917 .34094239 .4039917 .40911866 .32798768 .4482422 .25099183 .4482422 .12599182 .4482422 .033996583 .3399353 .033996583 .21601868 .033996583 .08816528 .1329956-.0107421879 .24899292-.0107421879 .3829956-.0107421879 .4149933 .10914612 .4149933 .119140628Z"/>
<path id="font_3_84" d="M.5209961 .21636963C.5209961 .34336854 .42399598 .4423828 .31199647 .4423828 .23399353 .4423828 .19198609 .39837647 .17199707 .3763733V.4423828L.027999878 .43066407V.3996582C.09899902 .3996582 .10598755 .3936615 .10598755 .34973146V-.117996219C.10598755-.16308594 .09498596-.16308594 .027999878-.16308594V-.1940918L.13999939-.19110108 .25299073-.1940918V-.16308594C.18598938-.16308594 .1749878-.16308594 .1749878-.117996219V.050186159 .059173585C.17999268 .04319763 .22200012-.0107421879 .2979889-.0107421879 .4169922-.0107421879 .5209961 .087127689 .5209961 .21594239V.21636963M.43798829 .21594239C.43798829 .09512329 .36799623 .011245728 .2939911 .011245728 .2539978 .011245728 .21598816 .031219483 .18899536 .07215881 .1749878 .09312439 .1749878 .09411621 .1749878 .114089969V.33674623C.20399475 .38838197 .25299073 .41737367 .3039856 .41737367 .3769989 .41737367 .43798829 .32937623 .43798829 .21636963V.21594239Z"/>
<path id="font_3_98" d="M.3600006 .12823487C.3600006 .18122864 .32998658 .21122742 .31799317 .22323609 .2849884 .25523377 .24598694 .26322938 .20399475 .27124024 .147995 .28224183 .08099365 .29522706 .08099365 .35324098 .08099365 .38822938 .10699463 .42922975 .19299317 .42922975 .30299378 .42922975 .30799867 .3392334 .30999757 .30822755 .31098939 .2992401 .32199098 .2992401 .32199098 .2992401 .33499146 .2992401 .33499146 .30422975 .33499146 .32322694V.4242401C.33499146 .4412384 .33499146 .4482422 .32398988 .4482422 .31900025 .4482422 .31698609 .4482422 .3039856 .43623353 .30099488 .43223573 .29100038 .42323304 .2869873 .42022706 .24899292 .4482422 .20799256 .4482422 .19299317 .4482422 .070999149 .4482422 .032989503 .38124085 .032989503 .3252411 .032989503 .29023744 .04899597 .26223756 .07598877 .24023438 .10798645 .2142334 .13598633 .2082367 .20799256 .19422913 .22999573 .19021607 .31199647 .17422486 .31199647 .10221863 .31199647 .051223756 .2769928 .011245728 .19898987 .011245728 .114990238 .011245728 .07899475 .068222049 .05999756 .1532135 .056991579 .16621399 .055999757 .17021179 .04598999 .17021179 .032989503 .17021179 .032989503 .16322327 .032989503 .1452179V.013214111C.032989503-.003753662 .032989503-.0107421879 .04399109-.0107421879 .04899597-.0107421879 .049987794-.009750366 .068984989 .009246826 .070999149 .011245728 .070999149 .013214111 .08898926 .032226564 .1329956-.009750366 .17799378-.0107421879 .19898987-.0107421879 .31399537-.0107421879 .3600006 .05621338 .3600006 .1282196V.12823487Z"/>
</defs>
<path transform="matrix(1.00006,0,0,-1.00002,43.61853,57.9229)" stroke-width=".3985" stroke-linecap="butt" stroke-miterlimit="10" stroke-linejoin="miter" fill="none" stroke="#000000" d="M-38.93365 0H58.77634"/>
<path transform="matrix(-1.00006,-0,0,1.00002,4.6825449,57.9229)" d="M3.58653 0C2.52383 .19925 .797 .797-.3985 1.49438V-1.49438C.797-.797 2.52383-.19925 3.58653 0"/>
<path transform="matrix(1.00006,0,0,-1.00002,102.39839,57.9229)" d="M3.58653 0C2.52383 .19925 .797 .797-.3985 1.49438V-1.49438C.797-.797 2.52383-.19925 3.58653 0"/>
<path transform="matrix(1.00006,0,0,-1.00002,43.61853,57.9229)" stroke-width=".3985" stroke-linecap="butt" stroke-miterlimit="10" stroke-linejoin="miter" fill="none" stroke="#000000" d="M0-53.10707V53.10707"/>
<path transform="matrix(0,1.00002,1.00006,0,43.61853,111.03104)" d="M3.58653 0C2.52383 .19925 .797 .797-.3985 1.49438V-1.49438C.797-.797 2.52383-.19925 3.58653 0"/>
<path transform="matrix(0,-1.00002,-1.00006,-0,43.61853,4.814766)" d="M3.58653 0C2.52383 .19925 .797 .797-.3985 1.49438V-1.49438C.797-.797 2.52383-.19925 3.58653 0"/>
<path transform="matrix(1.00006,0,0,-1.00002,43.61853,57.9229)" stroke-width=".79701" stroke-linecap="butt" stroke-miterlimit="10" stroke-linejoin="miter" fill="none" stroke="#000000" d="M-32.59865-34.65321C-32.59865-34.65321-31.96768-32.58282-31.72536-31.79802-31.48302-31.01321-31.09439-29.76668-30.85205-28.9969-30.60973-28.22711-30.2211-27.00476-29.97876-26.24986-29.73643-25.49495-29.34781-24.29597-29.10547-23.556-28.86314-22.81604-28.47452-21.64168-28.23218-20.91666-27.98984-20.19162-27.60121-19.04063-27.35887-18.3305-27.11653-17.62038-26.72792-16.49362-26.48558-15.79843-26.24324-15.10326-25.85461-14.00024-25.61229-13.31999-25.36995-12.63976-24.98132-11.56091-24.739-10.89561-24.49666-10.23032-24.10803-9.17523-23.8657-8.52489-23.62337-7.87453-23.23474-6.84361-22.9924-6.2082-22.75008-5.5728-22.36145-4.56569-22.11911-3.94516-21.87679-3.32463-21.48816-2.34134-21.24582-1.73575-21.00348-1.13017-20.61487-.17108-20.37253 .41956-20.13019 1.0102-19.74158 1.9455-19.49924 2.52126-19.2569 3.09702-18.86827 4.0085-18.62595 4.5693-18.3836 5.13013-17.99496 6.0175-17.75264 6.56331-17.5103 7.10912-17.12167 7.97232-16.87935 8.50325-16.63701 9.03418-16.24838 9.874-16.00604 10.38998-15.76372 10.90596-15.37509 11.72118-15.13275 12.22221-14.89043 12.72325-14.5018 13.51508-14.25946 14.00124-14.01714 14.4874-13.62851 15.25497-13.38617 15.7262-13.14383 16.19742-12.75522 16.94125-12.51288 17.39754-12.27054 17.8538-11.88191 18.57347-11.63959 19.0148-11.39725 19.45612-11.00862 20.15202-10.7663 20.57841-10.52396 21.00479-10.13533 21.67653-9.893 22.08797-9.65067 22.4994-9.26204 23.14732-9.0197 23.54388-8.77737 23.94044-8.38873 24.56456-8.1464 24.94618-7.90407 25.32779-7.51544 25.92772-7.2731 26.2944-7.03078 26.66107-6.64215 27.23726-6.39981 27.58899-6.15747 27.9407-5.76886 28.49266-5.52652 28.82951-5.28418 29.16635-4.89557 29.69493-4.65323 30.01683-4.41089 30.33873-4.02226 30.84274-3.77994 31.14964-3.5376 31.45653-3.14897 31.93681-2.90665 32.22882-2.6643 32.52084-2.27568 32.97723-2.03336 33.25436-1.79102 33.5315-1.40239 33.9641-1.16005 34.22629-.91772 34.48848-.52908 34.89694-.28676 35.14412-.04445 35.39131 .34416 35.7756 .5865 36.0079 .82884 36.2402 1.21747 36.60106 1.45981 36.81848 1.70215 37.0359 2.09076 37.37259 2.3331 37.575 2.57544 37.7774 2.96407 38.08997 3.20639 38.27744 3.44873 38.4649 3.83736 38.75365 4.07968 38.92624 4.32202 39.09883 4.71065 39.36377 4.95297 39.52141 5.19531 39.67906 5.58394 39.91983 5.82628 40.06253 6.0686 40.20523 6.45723 40.42224 6.69957 40.54999 6.9419 40.67775 7.33052 40.87057 7.57286 40.98338 7.81519 41.0962 8.20381 41.26523 8.44615 41.36316 8.68849 41.46109 9.0771 41.60631 9.31944 41.68929 9.56178 41.77228 9.95041 41.89331 10.19273 41.96136 10.43507 42.0294 10.8237 42.1267 11.06602 42.1798 11.30836 42.2329 11.697 42.306 11.93933 42.34416 12.18167 42.38232 12.5703 42.43161 12.81264 42.4549 13.05496 42.47816 13.44359 42.50365 13.68593 42.51198 13.92825 42.52031 14.31688 42.5216 14.55922 42.51501 14.80154 42.50842 15.19017 42.48589 15.43251 42.4644 15.67485 42.44293 16.06346 42.39658 16.3058 42.36015 16.54814 42.32373 16.93675 42.25328 17.1791 42.20186 17.42143 42.15042 17.81006 42.05579 18.05238 41.98947 18.29472 41.92316 18.68335 41.80515 18.92567 41.72389 19.16801 41.64264 19.55664 41.50002 19.79897 41.40381 20.0413 41.30762 20.42993 41.14162 20.67227 41.03055 20.9146 40.91946 21.30324 40.72926 21.54558 40.60318 21.7879 40.4771 22.17653 40.26276 22.41887 40.12178 22.66121 39.98082 23.04982 39.74301 23.29216 39.58716 23.5345 39.4313 23.92311 39.16933 24.16545 38.99847 24.40779 38.82762 24.79642 38.54152 25.03874 38.35573 25.28108 38.16992 25.66971 37.86002 25.91203 37.65933 26.15437 37.45865 26.543 37.12494 26.78532 36.90932 27.02766 36.6937 27.41629 36.33578 27.65863 36.10522 27.90096 35.87465 28.28958 35.49303 28.53192 35.24751 28.77425 35.002 29.16287 34.59616 29.40521 34.33571 29.64754 34.07526 30.03616 33.64563 30.2785 33.3703 30.52084 33.09496 30.90947 32.64151 31.15181 32.35123 31.39415 32.06094 31.78278 31.58333 32.0251 31.2781 32.26744 30.97289 32.65607 30.47151 32.89839 30.15134 33.14073 29.83116 33.52936 29.30562 33.77168 28.9705 34.01402 28.63539 34.40265 28.08604 34.64499 27.73605 34.88731 27.38605 35.27594 26.8129 35.51828 26.44795 35.7606 26.08301 36.14923 25.48567 36.39157 25.10579 36.6339 24.7259 37.02252 24.10481 37.26486 23.70999 37.5072 23.31516 37.89581 22.66988 38.13815 22.26012 38.3805 21.85034 38.7691 21.18127 39.01144 20.75662 39.25378 20.33197 39.64241 19.63908 39.88474 19.19948 40.12708 18.75989 40.51572 18.04282 40.75804 17.58827 41.00038 17.13373 41.389 16.39293 41.63133 15.92345 41.87367 15.45396 42.2623 14.68896 42.50464 14.20454 42.74696 13.72011 43.13559 12.93129 43.37793 12.43199 43.62025 11.93268 44.00888 11.12007 44.25122 10.60582 44.49356 10.09157 44.88217 9.25478 45.12451 8.72559 45.36685 8.19638 45.75546 7.33577 45.9978 6.79169 46.24014 6.2476 46.62877 5.3632 46.8711 4.80418 47.11343 4.24516 47.50206 3.33662 47.74438 2.7626 47.98672 2.18857 48.37535 1.25594 48.61768 .66696 48.86002 .07799 49.24864-.87843 49.49098-1.48228 49.7333-2.08615 50.12195-3.06647 50.36429-3.68521 50.60661-4.30394 50.99524-5.30807 51.23758-5.94176 51.4799-6.57544 51.86853-7.60368 52.11087-8.25237 52.35321-8.90106 52.74182-9.95345 52.98416-10.61707 53.2265-11.2807 53.85745-13.03539 53.85745-13.03539"/>
<path transform="matrix(1.00006,0,0,-1.00002,43.61853,57.9229)" stroke-width=".3985" stroke-linecap="butt" stroke-dasharray="2.98883,2.98883" stroke-miterlimit="10" stroke-linejoin="miter" fill="none" stroke="#000000" d="M14.17339-14.17339V53.85875"/>
<path transform="matrix(1.00006,0,0,-1.00002,43.61853,57.9229)" d="M16.16594 42.5202C16.16594 43.62067 15.27386 44.51276 14.17339 44.51276 13.07292 44.51276 12.18083 43.62067 12.18083 42.5202 12.18083 41.41972 13.07292 40.52765 14.17339 40.52765 15.27386 40.52765 16.16594 41.41972 16.16594 42.5202ZM14.17339 42.5202"/>
<path transform="matrix(1.00006,0,0,-1.00002,43.61853,57.9229)" stroke-width=".3985" stroke-linecap="butt" stroke-miterlimit="10" stroke-linejoin="miter" fill="none" stroke="#000000" d="M16.16594 42.5202C16.16594 43.62067 15.27386 44.51276 14.17339 44.51276 13.07292 44.51276 12.18083 43.62067 12.18083 42.5202 12.18083 41.41972 13.07292 40.52765 14.17339 40.52765 15.27386 40.52765 16.16594 41.41972 16.16594 42.5202ZM14.17339 42.5202"/>
<use data-text="(" xlink:href="#font_1_1" transform="matrix(9.963197,0,0,-9.962799,61.31259,9.39093)"/>
<use data-text="h" xlink:href="#font_2_2" transform="matrix(9.963197,0,0,-9.962799,65.18682,9.39093)"/>
<use data-text="," xlink:href="#font_2_1" transform="matrix(9.963197,0,0,-9.962799,70.92562,9.39093)"/>
<use data-text="k" xlink:href="#font_2_3" transform="matrix(9.963197,0,0,-9.962799,75.33933,9.39093)"/>
<use data-text=")" xlink:href="#font_1_2" transform="matrix(9.963197,0,0,-9.962799,80.85575,9.39093)"/>
<path transform="matrix(1.00006,0,0,-1.00002,43.61853,57.9229)" d="M50.8836 0C50.8836 1.10046 49.99152 1.99255 48.89105 1.99255 47.79057 1.99255 46.8985 1.10046 46.8985 0 46.8985-1.10046 47.79057-1.99255 48.89105-1.99255 49.99152-1.99255 50.8836-1.10046 50.8836 0ZM48.89105 0"/>
<path transform="matrix(1.00006,0,0,-1.00002,43.61853,57.9229)" stroke-width=".3985" stroke-linecap="butt" stroke-miterlimit="10" stroke-linejoin="miter" fill="none" stroke="#000000" d="M50.8836 0C50.8836 1.10046 49.99152 1.99255 48.89105 1.99255 47.79057 1.99255 46.8985 1.10046 46.8985 0 46.8985-1.10046 47.79057-1.99255 48.89105-1.99255 49.99152-1.99255 50.8836-1.10046 50.8836 0ZM48.89105 0"/>
<path transform="matrix(1.00006,0,0,-1.00002,43.61853,57.9229)" d="M-18.55168 0C-18.55168 1.10046-19.44376 1.99255-20.54424 1.99255-21.6447 1.99255-22.53679 1.10046-22.53679 0-22.53679-1.10046-21.6447-1.99255-20.54424-1.99255-19.44376-1.99255-18.55168-1.10046-18.55168 0ZM-20.54424 0"/>
<path transform="matrix(1.00006,0,0,-1.00002,43.61853,57.9229)" stroke-width=".3985" stroke-linecap="butt" stroke-miterlimit="10" stroke-linejoin="miter" fill="none" stroke="#000000" d="M-18.55168 0C-18.55168 1.10046-19.44376 1.99255-20.54424 1.99255-21.6447 1.99255-22.53679 1.10046-22.53679 0-22.53679-1.10046-21.6447-1.99255-20.54424-1.99255-19.44376-1.99255-18.55168-1.10046-18.55168 0ZM-20.54424 0"/>
<use data-text="h" xlink:href="#font_2_2" transform="matrix(9.963197,0,0,-9.962799,61.31259,68.361118)"/>
<use data-text="x" xlink:href="#font_2_4" transform="matrix(9.963197,0,0,-9.962799,49.083856,102.75079)"/>
<use data-text="-" xlink:href="#font_3_64" transform="matrix(9.963197,0,0,-9.962799,54.77719,102.75079)"/>
<use data-text="i" xlink:href="#font_3_66" transform="matrix(9.963197,0,0,-9.962799,58.09494,102.75079)"/>
<use data-text="n" xlink:href="#font_3_77" transform="matrix(9.963197,0,0,-9.962799,60.864717,102.75079)"/>
<use data-text="t" xlink:href="#font_3_105" transform="matrix(9.963197,0,0,-9.962799,66.13524,102.75079)"/>
<use data-text="e" xlink:href="#font_3_50" transform="matrix(9.963197,0,0,-9.962799,70.010929,102.75079)"/>
<use data-text="r" xlink:href="#font_3_96" transform="matrix(9.963197,0,0,-9.962799,74.434589,102.75079)"/>
<use data-text="c" xlink:href="#font_3_43" transform="matrix(9.963197,0,0,-9.962799,78.340167,102.75079)"/>
<use data-text="e" xlink:href="#font_3_50" transform="matrix(9.963197,0,0,-9.962799,82.763828,102.75079)"/>
<use data-text="p" xlink:href="#font_3_84" transform="matrix(9.963197,0,0,-9.962799,87.187488,102.75079)"/>
<use data-text="t" xlink:href="#font_3_105" transform="matrix(9.963197,0,0,-9.962799,92.72702,102.75079)"/>
<use data-text="s" xlink:href="#font_3_98" transform="matrix(9.963197,0,0,-9.962799,96.60271,102.75079)"/>
<path transform="matrix(1.00006,0,0,-1.00002,43.61853,57.9229)" stroke-width=".3985" stroke-linecap="butt" stroke-miterlimit="10" stroke-linejoin="miter" fill="none" stroke="#000000" d="M34.41304-34.76123 46.04669-6.83043"/>
<path transform="matrix(.38450308,-.9230885,-.9231254,-.3844877,89.66797,64.75347)" d="M3.58653 0C2.52383 .19925 .797 .797-.3985 1.49438V-1.49438C.797-.797 2.52383-.19925 3.58653 0"/>
<path transform="matrix(1.00006,0,0,-1.00002,43.61853,57.9229)" stroke-width=".3985" stroke-linecap="butt" stroke-miterlimit="10" stroke-linejoin="miter" fill="none" stroke="#000000" d="M21.74672-34.76123-14.2539-5.17001"/>
<path transform="matrix(-.7725263,-.6349627,-.63498809,.7724955,29.363778,63.093034)" d="M3.58653 0C2.52383 .19925 .797 .797-.3985 1.49438V-1.49438C.797-.797 2.52383-.19925 3.58653 0"/>
</svg>
